<?xml version="1.0" encoding="UTF-8"?>
<!DOCTYPE svg PUBLIC "-//W3C//DTD SVG 1.1//EN" "http://www.w3.org/Graphics/SVG/1.1/DTD/svg11.dtd">
<!-- Creator: CorelDRAW 2018 (64-Bit) -->
<svg xmlns="http://www.w3.org/2000/svg" xml:space="preserve" width="39.8415mm" height="39.9006mm" version="1.1" style="shape-rendering:geometricPrecision; text-rendering:geometricPrecision; image-rendering:optimizeQuality; fill-rule:evenodd; clip-rule:evenodd"
viewBox="0 0 7.77 7.79"
 xmlns:xlink="http://www.w3.org/1999/xlink">
 <defs>
  <style type="text/css">
   <![CDATA[
    .fil1 {fill:#59656C}
    .fil0 {fill:#59656C;fill-rule:nonzero}
   ]]>
  </style>
 </defs>
 <g id="Слой_x0020_1">
  <metadata id="CorelCorpID_0Corel-Layer"/>
  <path class="fil0" d="M5 5.49l0 -0.47c0,-0.16 0,-0.25 0,-0.29 0.01,-0.65 -0.02,-0.66 -0.84,-1l-0.1 -0.04c-0.03,-0.01 -0.06,-0.03 -0.1,-0.05 -0.11,-0.05 -0.26,-0.13 -0.3,-0.1l-0.01 0.01c-0.26,0.18 -0.46,0.32 -0.89,0.08 -0.05,-0.03 -0.08,-0.05 -0.11,-0.07 -0.05,-0.04 -0.05,-0.04 -0.53,0.18 -0.13,0.06 -0.24,0.11 -0.33,0.15 -0.48,0.21 -0.5,0.21 -0.5,1.01l0 0c0,0.03 -0,-0.01 -0,0.04 -0,0.06 -0,0.2 -0,0.51l-0.19 0c0,-0.31 0,-0.45 0,-0.51l0 -0c0,-0.01 -0,0.01 -0,-0.04l0 0c0,-0.92 0.02,-0.93 0.61,-1.18 0.09,-0.04 0.2,-0.09 0.33,-0.15 0.59,-0.27 0.6,-0.27 0.73,-0.16 0.02,0.02 0.04,0.04 0.08,0.06 0.32,0.18 0.48,0.07 0.68,-0.07l0.01 -0.01c0.13,-0.09 0.35,0.01 0.5,0.09 0.03,0.02 0.06,0.03 0.09,0.04l0.1 0.04c0.93,0.39 0.97,0.4 0.96,1.18 -0,0.04 -0,0.13 -0,0.29l-0 0.47 -0.19 0z"/>
  <path class="fil0" d="M3.15 0.84c0.29,0 0.56,0.14 0.75,0.36 0.19,0.22 0.3,0.52 0.3,0.85 0,0.33 -0.12,0.63 -0.3,0.85 -0.19,0.22 -0.46,0.36 -0.75,0.36 -0.29,0 -0.56,-0.14 -0.75,-0.36 -0.19,-0.22 -0.3,-0.52 -0.3,-0.85 0,-0.33 0.12,-0.63 0.3,-0.85 0.19,-0.22 0.46,-0.36 0.75,-0.36zm0.6 0.49c-0.16,-0.18 -0.37,-0.29 -0.6,-0.29 -0.23,0 -0.45,0.11 -0.6,0.29 -0.16,0.18 -0.26,0.44 -0.26,0.72 0,0.28 0.1,0.54 0.26,0.72 0.16,0.18 0.37,0.29 0.6,0.29 0.23,0 0.45,-0.11 0.6,-0.29 0.16,-0.18 0.26,-0.44 0.26,-0.72 0,-0.28 -0.1,-0.54 -0.26,-0.72z"/>
  <path class="fil0" d="M3.15 0c0.87,0 1.66,0.35 2.23,0.92 0.57,0.57 0.92,1.36 0.92,2.23 0,0.87 -0.35,1.66 -0.92,2.23 -0.57,0.57 -1.36,0.92 -2.23,0.92 -0.87,0 -1.66,-0.35 -2.23,-0.92 -0.57,-0.57 -0.92,-1.36 -0.92,-2.23 0,-0.87 0.35,-1.66 0.92,-2.23 0.57,-0.57 1.36,-0.92 2.23,-0.92zm2.09 1.06c-0.54,-0.54 -1.28,-0.87 -2.09,-0.87 -0.82,0 -1.56,0.33 -2.09,0.87 -0.54,0.54 -0.87,1.28 -0.87,2.09 0,0.82 0.33,1.56 0.87,2.09 0.54,0.54 1.28,0.87 2.09,0.87 0.82,0 1.56,-0.33 2.09,-0.87 0.54,-0.54 0.87,-1.28 0.87,-2.09 0,-0.82 -0.33,-1.56 -0.87,-2.09z"/>
  <path class="fil1" d="M7.75 7.62l-2.37 -2.37c-0.04,0.05 -0.09,0.09 -0.14,0.14l2.37 2.37c0.04,0.04 0.1,0.04 0.14,0l0 0c0.04,-0.04 0.04,-0.1 0,-0.14z"/>
 </g>
</svg>
