<?xml version="1.0" encoding="UTF-8"?>
<!DOCTYPE svg PUBLIC "-//W3C//DTD SVG 1.1//EN" "http://www.w3.org/Graphics/SVG/1.1/DTD/svg11.dtd">
<!-- Creator: CorelDRAW 2018 (64-Bit) -->
<svg xmlns="http://www.w3.org/2000/svg" xml:space="preserve" width="31.8715mm" height="40.7814mm" version="1.1" style="shape-rendering:geometricPrecision; text-rendering:geometricPrecision; image-rendering:optimizeQuality; fill-rule:evenodd; clip-rule:evenodd"
viewBox="0 0 6.85 8.77"
 xmlns:xlink="http://www.w3.org/1999/xlink">
 <defs>
  <style type="text/css">
   <![CDATA[
    .fil0 {fill:#59656C;fill-rule:nonzero}
   ]]>
  </style>
 </defs>
 <g id="Слой_x0020_1">
  <metadata id="CorelCorpID_0Corel-Layer"/>
  <g id="_1805314192">
   <path class="fil0" d="M2.23 1.4c0,0.18 0.03,0.33 0.09,0.47 0.06,0.15 0.15,0.28 0.26,0.39 0.25,0.25 0.55,0.36 0.85,0.36 0.16,0 0.32,-0.03 0.46,-0.09 0.15,-0.06 0.28,-0.15 0.39,-0.26 0.21,-0.21 0.35,-0.5 0.35,-0.86 0,-0.32 -0.14,-0.62 -0.36,-0.84 -0.22,-0.21 -0.52,-0.35 -0.86,-0.35 -0.32,0 -0.62,0.14 -0.83,0.35 -0.22,0.22 -0.35,0.51 -0.35,0.83zm-0.11 0.55c-0.06,-0.16 -0.1,-0.34 -0.1,-0.55 0,-0.38 0.16,-0.73 0.41,-0.98 0.25,-0.25 0.6,-0.41 0.98,-0.41 0.4,0 0.75,0.16 1.01,0.41 0.26,0.26 0.42,0.61 0.42,0.99 0,0.42 -0.16,0.76 -0.41,1.01 -0.13,0.13 -0.29,0.24 -0.46,0.31 -0.17,0.07 -0.36,0.11 -0.55,0.11 -0.35,0 -0.71,-0.13 -1,-0.42 -0.12,-0.12 -0.23,-0.27 -0.3,-0.46z"/>
   <path class="fil0" d="M0.22 6.68c0,0.14 0.02,0.25 0.06,0.34 0.04,0.09 0.11,0.18 0.22,0.28 0.1,0.09 0.21,0.14 0.34,0.17 0.1,0.02 0.21,0.03 0.33,0.03l0 -1.26c0,-0.28 0.06,-0.54 0.2,-0.76 0.13,-0.2 0.31,-0.36 0.57,-0.45l0.01 -0.01 1.24 -0.06 -1.14 -2.14c-0.22,0 -0.44,0.02 -0.62,0.09 -0.18,0.08 -0.33,0.22 -0.4,0.49l-0.8 3.27zm-0.14 0.43c-0.05,-0.12 -0.08,-0.26 -0.08,-0.44l0 -0.01c0.27,-1.1 0.52,-2.2 0.8,-3.3 0.09,-0.35 0.28,-0.54 0.53,-0.64 0.23,-0.1 0.5,-0.11 0.77,-0.11l0.06 0 1.36 2.55 -1.55 0.08c-0.2,0.07 -0.34,0.2 -0.44,0.35 -0.11,0.18 -0.17,0.4 -0.17,0.64l0 1.47 -0.11 0c-0.16,0 -0.32,-0 -0.48,-0.03 -0.16,-0.03 -0.31,-0.1 -0.44,-0.23 -0.12,-0.12 -0.21,-0.23 -0.26,-0.35z"/>
   <path class="fil0" d="M3.7 4.97l1.3 0.06 0.01 0c0.14,0.05 0.27,0.12 0.38,0.21 0.11,0.09 0.2,0.2 0.27,0.33 0.15,0.28 0.14,1 0.14,1.5 -0,0.25 -0.07,0.41 -0.04,0.43 0.05,0.02 0.14,0.01 0.25,-0.02 0.14,-0.04 0.29,-0.11 0.36,-0.17 0.09,-0.07 0.16,-0.16 0.2,-0.25 0.04,-0.09 0.07,-0.18 0.07,-0.26l-0.71 -3.09c-0.04,-0.21 -0.09,-0.37 -0.17,-0.5 -0.08,-0.12 -0.19,-0.22 -0.37,-0.31 -0.14,-0.07 -0.33,-0.07 -0.54,-0.07l-0.01 0 -1.14 2.14zm1.26 0.27l-1.61 -0.07c0.45,-0.85 0.91,-1.7 1.36,-2.55l0.14 -0c0.24,-0 0.46,-0 0.64,0.09 0.22,0.11 0.36,0.23 0.46,0.39 0.1,0.15 0.15,0.34 0.2,0.57l0.71 3.11 0 0.01c0,0.13 -0.03,0.25 -0.1,0.37 -0.06,0.12 -0.15,0.23 -0.26,0.32 -0.09,0.07 -0.27,0.16 -0.43,0.21 -0.14,0.04 -0.29,0.05 -0.39,0.01 -0.09,-0.04 -0.09,-0.29 -0.09,-0.63 0.01,-0.48 0.01,-1.17 -0.11,-1.4 -0.05,-0.1 -0.13,-0.19 -0.22,-0.27 -0.09,-0.07 -0.18,-0.13 -0.29,-0.17z"/>
   <path class="fil0" d="M1.99 6.09l0 1.28 2.95 0 -0.04 -1.42c-0.02,-0.04 -0.06,-0.07 -0.1,-0.1 -0.04,-0.03 -0.09,-0.04 -0.13,-0.04l-2.38 0c-0.07,0 -0.14,0.04 -0.19,0.09 -0.05,0.05 -0.09,0.12 -0.09,0.19zm-0.22 1.39l0 -1.39c0,-0.13 0.06,-0.25 0.15,-0.34l0 -0c0.09,-0.09 0.22,-0.15 0.35,-0.15l2.38 0c0.09,0 0.18,0.03 0.25,0.08 0.08,0.05 0.15,0.13 0.19,0.2l0.01 0.02 0.05 1.69 -3.38 0 0 -0.11z"/>
   <path class="fil0" d="M1.2 7.99l4.46 0c0.07,0 0.13,0.03 0.17,0.07 0.04,0.04 0.07,0.1 0.07,0.17l0 0.3c0,0.07 -0.03,0.13 -0.07,0.17 -0.04,0.04 -0.1,0.07 -0.17,0.07l-4.46 0c-0.07,0 -0.13,-0.03 -0.17,-0.07 -0.04,-0.04 -0.07,-0.1 -0.07,-0.17l0 -0.3c0,-0.07 0.03,-0.13 0.07,-0.17 0.04,-0.04 0.1,-0.07 0.17,-0.07zm4.46 0.22l-4.46 0c-0.01,0 -0.01,0 -0.02,0.01 -0,0 -0.01,0.01 -0.01,0.02l0 0.3c0,0.01 0,0.01 0.01,0.02 0,0 0.01,0.01 0.02,0.01l4.46 0c0.01,0 0.01,-0 0.02,-0.01 0,-0 0.01,-0.01 0.01,-0.02l0 -0.3c0,-0.01 -0,-0.01 -0.01,-0.02 -0,-0 -0.01,-0.01 -0.02,-0.01z"/>
  </g>
 </g>
</svg>
