<?xml version="1.0" encoding="UTF-8"?>
<!DOCTYPE svg PUBLIC "-//W3C//DTD SVG 1.1//EN" "http://www.w3.org/Graphics/SVG/1.1/DTD/svg11.dtd">
<!-- Creator: CorelDRAW 2018 (64-Bit) -->
<svg xmlns="http://www.w3.org/2000/svg" xml:space="preserve" width="34.5394mm" height="43.395mm" version="1.1" style="shape-rendering:geometricPrecision; text-rendering:geometricPrecision; image-rendering:optimizeQuality; fill-rule:evenodd; clip-rule:evenodd"
viewBox="0 0 7.9 9.93"
 xmlns:xlink="http://www.w3.org/1999/xlink">
 <defs>
  <style type="text/css">
   <![CDATA[
    .fil0 {fill:white}
    .fil1 {fill:#59656C;fill-rule:nonzero}
   ]]>
  </style>
 </defs>
 <g id="Слой_x0020_1">
  <metadata id="CorelCorpID_0Corel-Layer"/>
  <g id="_2052316624">
   <path class="fil0" d="M3.97 5.54c0,0.27 -0.5,0.48 -0.64,0.02l-0.29 -1.21c-0.06,-0.26 -0.06,-0.3 -0.06,-0 0.02,1.39 0.16,2.8 0.16,4.19 0,0.24 -0.38,0.48 -0.64,0.16 -0.11,-0.13 -0.38,-2.37 -0.46,-2.89l-0.48 2.9c-0.2,0.27 -0.61,0.15 -0.65,-0.2l0.18 -4.13c0.02,-0.23 -0.02,-0.19 -0.06,0l-0.39 1.36c-0.27,0.22 -0.53,-0.03 -0.53,-0.23 0,-0.19 0.37,-2.48 0.42,-2.74 0.04,-0.21 0.09,-0.3 0.23,-0.41 0.16,-0.13 0.53,-0.28 0.75,-0.33 0.23,0.27 0.86,0.24 1.06,0 0.24,0.06 0.48,0.18 0.68,0.29 0.29,0.17 0.28,0.39 0.37,0.99 0.04,0.22 0.34,2.05 0.34,2.24z"/>
   <path class="fil1" d="M4.08 5.54c0,0.13 -0.08,0.25 -0.18,0.32 -0.06,0.04 -0.12,0.07 -0.19,0.08 -0.07,0.01 -0.14,0.01 -0.21,-0.02 -0.12,-0.04 -0.22,-0.14 -0.27,-0.32l-0 -0.01 -0.11 -0.43c0.02,0.39 0.04,0.78 0.06,1.17 0.04,0.74 0.08,1.49 0.08,2.22 0,0.09 -0.04,0.18 -0.09,0.25 -0.05,0.06 -0.12,0.12 -0.2,0.15 -0.08,0.03 -0.18,0.04 -0.27,0.01 -0.09,-0.03 -0.19,-0.08 -0.27,-0.19 -0.1,-0.12 -0.26,-1.33 -0.38,-2.2l-0.36 2.18 -0.02 0.02c-0.09,0.12 -0.2,0.18 -0.32,0.19 -0.06,0.01 -0.12,0 -0.17,-0.01 -0.06,-0.02 -0.11,-0.04 -0.16,-0.08 -0.1,-0.08 -0.18,-0.2 -0.19,-0.35l-0 -0.01 0.15 -3.43 -0.21 0.73 -0.03 0.02c-0.1,0.08 -0.2,0.11 -0.29,0.11 -0.07,0 -0.13,-0.02 -0.19,-0.05 -0.05,-0.03 -0.1,-0.07 -0.14,-0.12 -0.06,-0.08 -0.1,-0.18 -0.1,-0.27 0,-0.08 0.06,-0.48 0.13,-0.95 0.11,-0.73 0.26,-1.65 0.29,-1.81 0.02,-0.12 0.05,-0.2 0.09,-0.28 0.04,-0.08 0.1,-0.14 0.18,-0.2 0.08,-0.07 0.21,-0.14 0.35,-0.2 0.15,-0.07 0.32,-0.13 0.44,-0.15l0.07 -0.02 0.05 0.05c0.01,0.01 0.03,0.03 0.04,0.04 0.1,0.08 0.26,0.12 0.42,0.12 0.16,-0 0.31,-0.05 0.4,-0.12 0.01,-0.01 0.02,-0.02 0.03,-0.03l0.05 -0.06 0.07 0.02c0.13,0.03 0.25,0.08 0.37,0.13 0.12,0.05 0.23,0.11 0.34,0.17 0.3,0.17 0.33,0.37 0.39,0.81 0.01,0.08 0.03,0.17 0.04,0.25l0.01 0.07c0.07,0.39 0.33,2.01 0.33,2.19zm-0.31 0.13c0.05,-0.03 0.08,-0.08 0.08,-0.13 0,-0.17 -0.26,-1.76 -0.33,-2.15l-0.01 -0.07c-0.02,-0.1 -0.03,-0.19 -0.04,-0.26 -0.05,-0.37 -0.08,-0.53 -0.28,-0.65 -0.1,-0.06 -0.21,-0.11 -0.32,-0.17 -0.09,-0.04 -0.18,-0.08 -0.27,-0.1l-0.01 0c-0.13,0.11 -0.33,0.17 -0.54,0.18 -0.21,0 -0.42,-0.05 -0.57,-0.17l-0.02 -0.01c-0.1,0.03 -0.23,0.07 -0.34,0.13 -0.12,0.05 -0.23,0.11 -0.3,0.17 -0.06,0.05 -0.1,0.09 -0.12,0.14 -0.03,0.05 -0.05,0.12 -0.07,0.21 -0.03,0.16 -0.18,1.07 -0.29,1.8 -0.07,0.46 -0.13,0.85 -0.13,0.92 0,0.04 0.02,0.09 0.05,0.13 0.02,0.02 0.04,0.04 0.07,0.06 0.02,0.01 0.05,0.02 0.08,0.02 0.04,0 0.08,-0.01 0.12,-0.04l0.38 -1.32c0.02,-0.08 0.04,-0.14 0.05,-0.17 0.02,-0.05 0.06,-0.07 0.11,-0.08 0.07,-0 0.11,0.03 0.13,0.11 0.01,0.03 0.01,0.09 -0,0.17l-0.18 4.12c0.01,0.08 0.05,0.15 0.1,0.19 0.02,0.02 0.05,0.03 0.08,0.04 0.03,0.01 0.06,0.01 0.09,0.01 0.05,-0.01 0.11,-0.03 0.15,-0.08l0.59 -3.59 0.11 0.72c0.02,0.11 0.05,0.32 0.08,0.58 0.11,0.84 0.29,2.18 0.36,2.26 0.05,0.06 0.1,0.1 0.15,0.11 0.05,0.01 0.09,0.01 0.13,-0.01 0.04,-0.02 0.08,-0.04 0.11,-0.08 0.03,-0.03 0.04,-0.07 0.04,-0.11 0,-0.74 -0.04,-1.47 -0.08,-2.21 -0.04,-0.66 -0.07,-1.32 -0.08,-1.98l-0 -0.05c-0,-0.19 -0,-0.28 0.13,-0.27 0.09,0.01 0.1,0.07 0.13,0.19l0.03 0.11 0.29 1.2c0.03,0.1 0.08,0.15 0.13,0.17 0.03,0.01 0.06,0.01 0.1,0.01 0.04,-0.01 0.07,-0.02 0.1,-0.04zm-0.82 -1.41l0.01 -0c-0.02,-0 -0.02,-0 -0.01,0zm0.02 0c0.03,-0 0.05,-0 0.01,-0l-0.02 -0 -0.01 0 0.02 0z"/>
   <path class="fil0" d="M2.85 0.89c0,0.25 -0.1,0.45 -0.22,0.58 -0.42,0.46 -1.39,0.27 -1.39,-0.58 0,-0.54 0.59,-0.96 1.15,-0.7 0.05,0.03 0.18,0.11 0.22,0.16 0.1,0.1 0.23,0.34 0.23,0.54z"/>
   <path class="fil1" d="M2.96 0.89c0,0.13 -0.02,0.25 -0.06,0.35 -0.05,0.12 -0.11,0.23 -0.19,0.31 -0.17,0.19 -0.42,0.28 -0.66,0.28 -0.11,0 -0.22,-0.02 -0.33,-0.06 -0.11,-0.04 -0.21,-0.1 -0.3,-0.18 -0.18,-0.16 -0.29,-0.39 -0.29,-0.71 0,-0.13 0.03,-0.25 0.08,-0.36 0.07,-0.15 0.19,-0.29 0.33,-0.38 0.14,-0.09 0.32,-0.15 0.5,-0.15 0.13,0 0.27,0.03 0.4,0.09 0.03,0.02 0.08,0.05 0.13,0.08 0.05,0.03 0.1,0.07 0.12,0.1 0.07,0.07 0.14,0.18 0.19,0.3 0.04,0.1 0.08,0.22 0.08,0.33zm-0.28 0.27c0.03,-0.08 0.05,-0.17 0.05,-0.27 0,-0.07 -0.02,-0.16 -0.06,-0.24 -0.04,-0.1 -0.1,-0.18 -0.14,-0.23 -0.02,-0.02 -0.05,-0.05 -0.09,-0.07 -0.04,-0.03 -0.08,-0.05 -0.1,-0.06 -0.1,-0.05 -0.21,-0.07 -0.31,-0.07 -0.14,0 -0.27,0.04 -0.37,0.11 -0.11,0.07 -0.2,0.17 -0.25,0.29 -0.04,0.08 -0.06,0.17 -0.06,0.27 0,0.24 0.09,0.42 0.22,0.54 0.06,0.06 0.14,0.1 0.22,0.13 0.08,0.03 0.17,0.04 0.25,0.04 0.19,0 0.37,-0.07 0.49,-0.21 0.06,-0.06 0.11,-0.14 0.14,-0.23z"/>
   <path class="fil0" d="M5.88 6.04c0,0.27 -0.5,0.48 -0.64,0.02l-0.29 -1.21c-0.06,-0.26 -0.06,-0.3 -0.06,-0 0.02,1.39 0.16,2.8 0.16,4.19 0,0.24 -0.38,0.48 -0.64,0.16 -0.11,-0.13 -0.38,-2.37 -0.46,-2.89l-0.48 2.9c-0.2,0.27 -0.61,0.15 -0.65,-0.2l0.18 -4.13c0.02,-0.23 -0.02,-0.19 -0.06,0l-0.39 1.36c-0.27,0.22 -0.53,-0.03 -0.53,-0.23 0,-0.19 0.37,-2.48 0.42,-2.74 0.04,-0.21 0.09,-0.3 0.23,-0.41 0.16,-0.13 0.53,-0.28 0.75,-0.33 0.23,0.27 0.86,0.24 1.06,0 0.24,0.06 0.48,0.18 0.68,0.29 0.29,0.17 0.28,0.39 0.37,0.99 0.04,0.22 0.34,2.05 0.34,2.24z"/>
   <path class="fil1" d="M5.99 6.04c0,0.13 -0.08,0.25 -0.18,0.32 -0.06,0.04 -0.12,0.07 -0.19,0.08 -0.07,0.01 -0.14,0.01 -0.21,-0.02 -0.12,-0.04 -0.22,-0.14 -0.27,-0.32l-0 -0.01 -0.11 -0.43c0.02,0.39 0.04,0.78 0.06,1.17 0.04,0.74 0.08,1.49 0.08,2.22 0,0.09 -0.04,0.18 -0.09,0.25 -0.05,0.06 -0.12,0.12 -0.2,0.15 -0.08,0.03 -0.18,0.04 -0.27,0.01 -0.09,-0.03 -0.19,-0.08 -0.27,-0.19 -0.1,-0.12 -0.26,-1.33 -0.38,-2.2l-0.36 2.18 -0.02 0.02c-0.09,0.12 -0.2,0.18 -0.32,0.19 -0.06,0.01 -0.12,0 -0.17,-0.01 -0.06,-0.02 -0.11,-0.04 -0.16,-0.08 -0.1,-0.08 -0.18,-0.2 -0.19,-0.35l-0 -0.01 0.15 -3.43 -0.21 0.73 -0.03 0.02c-0.1,0.08 -0.2,0.11 -0.29,0.11 -0.07,0 -0.13,-0.02 -0.19,-0.05 -0.05,-0.03 -0.1,-0.07 -0.14,-0.12 -0.06,-0.08 -0.1,-0.18 -0.1,-0.27 0,-0.08 0.06,-0.48 0.13,-0.95 0.11,-0.73 0.26,-1.65 0.29,-1.81 0.02,-0.12 0.05,-0.2 0.09,-0.28 0.04,-0.08 0.1,-0.14 0.18,-0.2 0.08,-0.07 0.21,-0.14 0.35,-0.2 0.15,-0.07 0.32,-0.13 0.44,-0.15l0.07 -0.02 0.05 0.05c0.01,0.01 0.03,0.03 0.04,0.04 0.1,0.08 0.26,0.12 0.42,0.12 0.16,-0 0.31,-0.05 0.4,-0.12 0.01,-0.01 0.02,-0.02 0.03,-0.03l0.05 -0.06 0.07 0.02c0.13,0.03 0.25,0.08 0.37,0.13 0.12,0.05 0.23,0.11 0.34,0.17 0.3,0.17 0.33,0.37 0.39,0.81 0.01,0.08 0.03,0.17 0.04,0.25l0.01 0.07c0.07,0.39 0.33,2.01 0.33,2.19zm-0.31 0.13c0.05,-0.03 0.08,-0.08 0.08,-0.13 0,-0.17 -0.26,-1.76 -0.33,-2.15l-0.01 -0.07c-0.02,-0.1 -0.03,-0.19 -0.04,-0.26 -0.05,-0.37 -0.08,-0.53 -0.28,-0.65 -0.1,-0.06 -0.21,-0.11 -0.32,-0.17 -0.09,-0.04 -0.18,-0.08 -0.27,-0.1l-0.01 0c-0.13,0.11 -0.33,0.17 -0.54,0.18 -0.21,0 -0.42,-0.05 -0.57,-0.17l-0.02 -0.01c-0.1,0.03 -0.23,0.07 -0.34,0.13 -0.12,0.05 -0.23,0.11 -0.3,0.17 -0.06,0.05 -0.1,0.09 -0.12,0.14 -0.03,0.05 -0.05,0.12 -0.07,0.21 -0.03,0.16 -0.18,1.07 -0.29,1.8 -0.07,0.46 -0.13,0.85 -0.13,0.92 0,0.04 0.02,0.09 0.05,0.13 0.02,0.02 0.04,0.04 0.07,0.06 0.02,0.01 0.05,0.02 0.08,0.02 0.04,0 0.08,-0.01 0.12,-0.04l0.38 -1.32c0.02,-0.08 0.04,-0.14 0.05,-0.17 0.02,-0.05 0.06,-0.07 0.11,-0.08 0.07,-0 0.11,0.03 0.13,0.11 0.01,0.03 0.01,0.09 -0,0.17l-0.18 4.12c0.01,0.08 0.05,0.15 0.1,0.19 0.02,0.02 0.05,0.03 0.08,0.04 0.03,0.01 0.06,0.01 0.09,0.01 0.05,-0.01 0.11,-0.03 0.15,-0.08l0.59 -3.59 0.11 0.72c0.02,0.11 0.05,0.32 0.08,0.58 0.11,0.84 0.29,2.18 0.36,2.26 0.05,0.06 0.1,0.1 0.15,0.11 0.05,0.01 0.09,0.01 0.13,-0.01 0.04,-0.02 0.08,-0.04 0.11,-0.08 0.03,-0.03 0.04,-0.07 0.04,-0.11 0,-0.74 -0.04,-1.47 -0.08,-2.21 -0.04,-0.66 -0.07,-1.32 -0.08,-1.98l-0 -0.05c-0,-0.19 -0,-0.28 0.13,-0.27 0.09,0.01 0.1,0.07 0.13,0.19l0.03 0.11 0.29 1.2c0.03,0.1 0.08,0.15 0.13,0.17 0.03,0.01 0.06,0.01 0.1,0.01 0.04,-0.01 0.07,-0.02 0.1,-0.04zm-0.82 -1.41l0.01 -0c-0.02,-0 -0.02,-0 -0.01,0zm0.02 0c0.03,-0 0.05,-0 0.01,-0l-0.02 -0 -0.01 0 0.02 0z"/>
   <path class="fil0" d="M4.75 1.39c0,0.25 -0.1,0.45 -0.22,0.58 -0.42,0.46 -1.39,0.27 -1.39,-0.58 0,-0.54 0.59,-0.96 1.15,-0.7 0.05,0.03 0.18,0.11 0.22,0.16 0.1,0.1 0.23,0.34 0.23,0.54z"/>
   <path class="fil1" d="M4.87 1.39c0,0.13 -0.02,0.25 -0.06,0.35 -0.05,0.12 -0.11,0.23 -0.19,0.31 -0.17,0.19 -0.42,0.28 -0.66,0.28 -0.11,0 -0.22,-0.02 -0.33,-0.06 -0.11,-0.04 -0.21,-0.1 -0.3,-0.18 -0.18,-0.16 -0.29,-0.39 -0.29,-0.71 0,-0.13 0.03,-0.25 0.08,-0.36 0.07,-0.15 0.19,-0.29 0.33,-0.38 0.14,-0.09 0.32,-0.15 0.5,-0.15 0.13,0 0.27,0.03 0.4,0.09 0.03,0.02 0.08,0.05 0.13,0.08 0.05,0.03 0.1,0.07 0.12,0.1 0.07,0.07 0.14,0.18 0.19,0.3 0.04,0.1 0.08,0.22 0.08,0.33zm-0.28 0.27c0.03,-0.08 0.05,-0.17 0.05,-0.27 0,-0.07 -0.02,-0.16 -0.06,-0.24 -0.04,-0.1 -0.1,-0.18 -0.14,-0.23 -0.02,-0.02 -0.05,-0.05 -0.09,-0.07 -0.04,-0.03 -0.08,-0.05 -0.1,-0.06 -0.1,-0.05 -0.21,-0.07 -0.31,-0.07 -0.14,0 -0.27,0.04 -0.37,0.11 -0.11,0.07 -0.2,0.17 -0.25,0.29 -0.04,0.08 -0.06,0.17 -0.06,0.27 0,0.24 0.09,0.42 0.22,0.54 0.06,0.06 0.14,0.1 0.22,0.13 0.08,0.03 0.17,0.04 0.25,0.04 0.19,0 0.37,-0.07 0.49,-0.21 0.06,-0.06 0.11,-0.14 0.14,-0.23z"/>
   <path class="fil0" d="M7.79 6.49c0,0.27 -0.5,0.48 -0.64,0.02l-0.29 -1.21c-0.06,-0.26 -0.06,-0.3 -0.06,-0 0.02,1.39 0.16,2.8 0.16,4.19 0,0.24 -0.38,0.48 -0.64,0.16 -0.11,-0.13 -0.38,-2.37 -0.46,-2.89l-0.48 2.9c-0.2,0.27 -0.61,0.15 -0.65,-0.2l0.18 -4.13c0.02,-0.23 -0.02,-0.19 -0.06,0l-0.39 1.36c-0.27,0.22 -0.53,-0.03 -0.53,-0.23 0,-0.19 0.37,-2.48 0.42,-2.74 0.04,-0.21 0.09,-0.3 0.23,-0.41 0.16,-0.13 0.53,-0.28 0.75,-0.33 0.23,0.27 0.86,0.24 1.06,0 0.24,0.06 0.48,0.18 0.68,0.29 0.29,0.17 0.28,0.39 0.37,0.99 0.04,0.22 0.34,2.05 0.34,2.24z"/>
   <path class="fil1" d="M7.9 6.49c0,0.13 -0.08,0.25 -0.18,0.32 -0.06,0.04 -0.12,0.07 -0.19,0.08 -0.07,0.01 -0.14,0.01 -0.21,-0.02 -0.12,-0.04 -0.22,-0.14 -0.27,-0.32l-0 -0.01 -0.11 -0.43c0.02,0.39 0.04,0.78 0.06,1.17 0.04,0.74 0.08,1.49 0.08,2.22 0,0.09 -0.04,0.18 -0.09,0.25 -0.05,0.06 -0.12,0.12 -0.2,0.15 -0.08,0.03 -0.18,0.04 -0.27,0.01 -0.09,-0.03 -0.19,-0.08 -0.27,-0.19 -0.1,-0.12 -0.26,-1.33 -0.38,-2.2l-0.36 2.18 -0.02 0.02c-0.09,0.12 -0.2,0.18 -0.32,0.19 -0.06,0.01 -0.12,0 -0.17,-0.01 -0.06,-0.02 -0.11,-0.04 -0.16,-0.08 -0.1,-0.08 -0.18,-0.2 -0.19,-0.35l-0 -0.01 0.15 -3.43 -0.21 0.73 -0.03 0.02c-0.1,0.08 -0.2,0.11 -0.29,0.11 -0.07,0 -0.13,-0.02 -0.19,-0.05 -0.05,-0.03 -0.1,-0.07 -0.14,-0.12 -0.06,-0.08 -0.1,-0.18 -0.1,-0.27 0,-0.08 0.06,-0.48 0.13,-0.95 0.11,-0.73 0.26,-1.65 0.29,-1.81 0.02,-0.12 0.05,-0.2 0.09,-0.28 0.04,-0.08 0.1,-0.14 0.18,-0.2 0.08,-0.07 0.21,-0.14 0.35,-0.2 0.15,-0.07 0.32,-0.13 0.44,-0.15l0.07 -0.02 0.05 0.05c0.01,0.01 0.03,0.03 0.04,0.04 0.1,0.08 0.26,0.12 0.42,0.12 0.16,-0 0.31,-0.05 0.4,-0.12 0.01,-0.01 0.02,-0.02 0.03,-0.03l0.05 -0.06 0.07 0.02c0.13,0.03 0.25,0.08 0.37,0.13 0.12,0.05 0.23,0.11 0.34,0.17 0.3,0.17 0.33,0.37 0.39,0.81 0.01,0.08 0.03,0.17 0.04,0.25l0.01 0.07c0.07,0.39 0.33,2.01 0.33,2.19zm-0.31 0.13c0.05,-0.03 0.08,-0.08 0.08,-0.13 0,-0.17 -0.26,-1.76 -0.33,-2.15l-0.01 -0.07c-0.02,-0.1 -0.03,-0.19 -0.04,-0.26 -0.05,-0.37 -0.08,-0.53 -0.28,-0.65 -0.1,-0.06 -0.21,-0.11 -0.32,-0.17 -0.09,-0.04 -0.18,-0.08 -0.27,-0.1l-0.01 0c-0.13,0.11 -0.33,0.17 -0.54,0.18 -0.21,0 -0.42,-0.05 -0.57,-0.17l-0.02 -0.01c-0.1,0.03 -0.23,0.07 -0.34,0.13 -0.12,0.05 -0.23,0.11 -0.3,0.17 -0.06,0.05 -0.1,0.09 -0.12,0.14 -0.03,0.05 -0.05,0.12 -0.07,0.21 -0.03,0.16 -0.18,1.07 -0.29,1.8 -0.07,0.46 -0.13,0.85 -0.13,0.92 0,0.04 0.02,0.09 0.05,0.13 0.02,0.02 0.04,0.04 0.07,0.06 0.02,0.01 0.05,0.02 0.08,0.02 0.04,0 0.08,-0.01 0.12,-0.04l0.38 -1.32c0.02,-0.08 0.04,-0.14 0.05,-0.17 0.02,-0.05 0.06,-0.07 0.11,-0.08 0.07,-0 0.11,0.03 0.13,0.11 0.01,0.03 0.01,0.09 -0,0.17l-0.18 4.12c0.01,0.08 0.05,0.15 0.1,0.19 0.02,0.02 0.05,0.03 0.08,0.04 0.03,0.01 0.06,0.01 0.09,0.01 0.05,-0.01 0.11,-0.03 0.15,-0.08l0.59 -3.59 0.11 0.72c0.02,0.11 0.05,0.32 0.08,0.58 0.11,0.84 0.29,2.18 0.36,2.26 0.05,0.06 0.1,0.1 0.15,0.11 0.05,0.01 0.09,0.01 0.13,-0.01 0.04,-0.02 0.08,-0.04 0.11,-0.08 0.03,-0.03 0.04,-0.07 0.04,-0.11 0,-0.74 -0.04,-1.47 -0.08,-2.21 -0.04,-0.66 -0.07,-1.32 -0.08,-1.98l-0 -0.05c-0,-0.19 -0,-0.28 0.13,-0.27 0.09,0.01 0.1,0.07 0.13,0.19l0.03 0.11 0.29 1.2c0.03,0.1 0.08,0.15 0.13,0.17 0.03,0.01 0.06,0.01 0.1,0.01 0.04,-0.01 0.07,-0.02 0.1,-0.04zm-0.82 -1.41l0.01 -0c-0.02,-0 -0.02,-0 -0.01,0zm0.02 0c0.03,-0 0.05,-0 0.01,-0l-0.02 -0 -0.01 0 0.02 0z"/>
   <path class="fil0" d="M6.66 1.85c0,0.25 -0.1,0.45 -0.22,0.58 -0.42,0.46 -1.39,0.27 -1.39,-0.58 0,-0.54 0.59,-0.96 1.15,-0.7 0.05,0.03 0.18,0.11 0.22,0.16 0.1,0.1 0.23,0.34 0.23,0.54z"/>
   <path class="fil1" d="M6.78 1.85c0,0.13 -0.02,0.25 -0.06,0.35 -0.05,0.12 -0.11,0.23 -0.19,0.31 -0.17,0.19 -0.42,0.28 -0.66,0.28 -0.11,0 -0.22,-0.02 -0.33,-0.06 -0.11,-0.04 -0.21,-0.1 -0.3,-0.18 -0.18,-0.16 -0.29,-0.39 -0.29,-0.71 0,-0.13 0.03,-0.25 0.08,-0.36 0.07,-0.15 0.19,-0.29 0.33,-0.38 0.14,-0.09 0.32,-0.15 0.5,-0.15 0.13,0 0.27,0.03 0.4,0.09 0.03,0.02 0.08,0.05 0.13,0.08 0.05,0.03 0.1,0.07 0.12,0.1 0.07,0.07 0.14,0.18 0.19,0.3 0.04,0.1 0.08,0.22 0.08,0.33zm-0.28 0.27c0.03,-0.08 0.05,-0.17 0.05,-0.27 0,-0.07 -0.02,-0.16 -0.06,-0.24 -0.04,-0.1 -0.1,-0.18 -0.14,-0.23 -0.02,-0.02 -0.05,-0.05 -0.09,-0.07 -0.04,-0.03 -0.08,-0.05 -0.1,-0.06 -0.1,-0.05 -0.21,-0.07 -0.31,-0.07 -0.14,0 -0.27,0.04 -0.37,0.11 -0.11,0.07 -0.2,0.17 -0.25,0.29 -0.04,0.08 -0.06,0.17 -0.06,0.27 0,0.24 0.09,0.42 0.22,0.54 0.06,0.06 0.14,0.1 0.22,0.13 0.08,0.03 0.17,0.04 0.25,0.04 0.19,0 0.37,-0.07 0.49,-0.21 0.06,-0.06 0.11,-0.14 0.14,-0.23z"/>
  </g>
 </g>
</svg>
