<?xml version="1.0" encoding="UTF-8"?>
<!DOCTYPE svg PUBLIC "-//W3C//DTD SVG 1.1//EN" "http://www.w3.org/Graphics/SVG/1.1/DTD/svg11.dtd">
<!-- Creator: CorelDRAW 2018 (64-Bit) -->
<svg xmlns="http://www.w3.org/2000/svg" xml:space="preserve" width="33.1905mm" height="21.4944mm" version="1.1" style="shape-rendering:geometricPrecision; text-rendering:geometricPrecision; image-rendering:optimizeQuality; fill-rule:evenodd; clip-rule:evenodd"
viewBox="0 0 7.43 4.81"
 xmlns:xlink="http://www.w3.org/1999/xlink">
 <defs>
  <style type="text/css">
   <![CDATA[
    .fil0 {fill:#59656C}
    .fil1 {fill:#59656C;fill-rule:nonzero}
   ]]>
  </style>
 </defs>
 <g id="Слой_x0020_1">
  <metadata id="CorelCorpID_0Corel-Layer"/>
  <g id="_1805351024">
   <path class="fil0" d="M3.29 0.63c0,-0.16 0.11,-0.32 0.23,-0.38 0.4,-0.2 0.81,0.26 0.54,0.63 -0.12,0.17 -0.17,0.05 -0.17,0.24 0,0.35 0.13,0.6 0.33,0.84 0.06,0.07 0.2,0.18 0.28,0.23 0.49,0.3 1.2,0.31 1.68,0 0.17,-0.11 0.41,-0.39 0.41,-0.58 0,-0.04 -0.06,-0.06 -0.12,-0.15 -0.12,-0.16 -0.09,-0.41 0.05,-0.54 0.28,-0.26 0.71,-0.04 0.71,0.26 0,0.13 0,0.18 -0.08,0.3 -0.05,0.07 -0.1,0.09 -0.17,0.13 -0.08,0.04 -0.08,0.1 -0.11,0.2l-0.34 1.19c-0.09,0.32 -0.18,0.63 -0.27,0.95 -0.04,0.15 -0.08,0.35 -0.16,0.45 -0.09,0.1 -0.22,0.21 -0.4,0.21l-3.93 0c-0.18,0 -0.32,-0.11 -0.4,-0.21 -0.09,-0.12 -0.12,-0.28 -0.17,-0.45l-0.61 -2.15c-0.02,-0.08 -0.03,-0.16 -0.1,-0.2 -0.08,-0.04 -0.12,-0.06 -0.18,-0.13 -0.13,-0.17 -0.12,-0.41 0.03,-0.56 0.16,-0.16 0.43,-0.16 0.59,-0.01 0.18,0.17 0.16,0.48 -0.01,0.62 -0.03,0.03 -0.06,0.03 -0.06,0.08 0,0.18 0.24,0.46 0.4,0.57 0.51,0.34 1.28,0.3 1.78,-0.06 0.1,-0.07 0.18,-0.15 0.26,-0.25 0.17,-0.23 0.26,-0.49 0.26,-0.81 0,-0.09 -0.08,-0.06 -0.17,-0.18 -0.05,-0.07 -0.1,-0.17 -0.1,-0.26zm-0.16 -0.01c0,0.16 0.06,0.3 0.16,0.4 0.02,0.02 0.03,0.03 0.05,0.05 0.06,0.05 0.05,0.02 0.05,0.07 0,0.16 -0.05,0.34 -0.11,0.45 -0.06,0.11 -0.14,0.25 -0.24,0.33 -0.06,0.05 -0.1,0.08 -0.16,0.12 -0.43,0.25 -1.04,0.27 -1.46,0.03 -0.13,-0.08 -0.23,-0.16 -0.3,-0.29 -0.11,-0.19 -0.06,-0.12 0.04,-0.3 0.19,-0.32 -0.02,-0.85 -0.54,-0.85 -0.3,0 -0.57,0.27 -0.57,0.56 0,0.21 0.07,0.37 0.22,0.49 0.17,0.13 0.09,-0.04 0.22,0.43 0.06,0.19 0.6,2.15 0.66,2.28 0.01,0.03 0.04,0.07 0.06,0.1 0.03,0.05 0.11,0.13 0.16,0.16 0.1,0.07 0.23,0.13 0.36,0.13l3.99 0c0.19,0 0.35,-0.1 0.44,-0.2 0.14,-0.14 0.16,-0.23 0.22,-0.43l0.65 -2.28c0.01,-0.03 0.01,-0.04 0.02,-0.06 0.02,-0.08 0,-0.02 0.13,-0.12 0.43,-0.32 0.21,-1.05 -0.37,-1.05 -0.13,0 -0.25,0.05 -0.33,0.11 -0.05,0.03 -0.08,0.06 -0.12,0.11 -0.03,0.03 -0.07,0.09 -0.09,0.14 -0.16,0.41 0.13,0.63 0.13,0.65 0,0.12 -0.22,0.36 -0.36,0.44 -0.31,0.16 -0.46,0.18 -0.8,0.18 -0.31,0 -0.6,-0.14 -0.82,-0.32 -0.21,-0.17 -0.36,-0.52 -0.36,-0.81 0,-0.05 0.4,-0.25 0.21,-0.73 -0.03,-0.08 -0.07,-0.11 -0.11,-0.17 -0.03,-0.04 -0.12,-0.1 -0.16,-0.12 -0.38,-0.19 -0.86,0.08 -0.86,0.52z"/>
   <path class="fil1" d="M3.25 0.63c0,-0.08 0.03,-0.16 0.07,-0.23 0.05,-0.08 0.11,-0.14 0.18,-0.17 0.13,-0.06 0.26,-0.06 0.37,-0.02 0.08,0.03 0.15,0.08 0.2,0.14 0.05,0.06 0.09,0.14 0.1,0.22 0.02,0.11 -0.01,0.23 -0.09,0.35 -0.06,0.08 -0.1,0.1 -0.13,0.12 -0.02,0.01 -0.03,0.02 -0.03,0.1 0,0.17 0.03,0.31 0.09,0.45 0.06,0.13 0.14,0.25 0.23,0.37 0.02,0.03 0.07,0.07 0.11,0.11 0.06,0.05 0.12,0.09 0.16,0.12 0.24,0.15 0.54,0.23 0.83,0.23 0.29,0 0.58,-0.07 0.81,-0.22 0.09,-0.06 0.2,-0.16 0.28,-0.28 0.07,-0.09 0.11,-0.19 0.11,-0.27 0,-0.01 -0.01,-0.02 -0.03,-0.04 -0.02,-0.02 -0.05,-0.05 -0.08,-0.09 -0.06,-0.09 -0.09,-0.2 -0.08,-0.3 0.01,-0.11 0.06,-0.21 0.13,-0.28 0.09,-0.09 0.2,-0.13 0.31,-0.13 0.07,0 0.13,0.01 0.19,0.04 0.06,0.03 0.11,0.06 0.16,0.11 0.07,0.07 0.11,0.16 0.11,0.26l0 0c-0,0.14 -0,0.19 -0.09,0.31 -0.03,0.04 -0.05,0.06 -0.08,0.09 -0.03,0.02 -0.06,0.04 -0.1,0.06 -0.05,0.03 -0.06,0.07 -0.08,0.13 -0,0.01 -0.01,0.03 -0.01,0.05l-0.34 1.19c-0.07,0.24 -0.14,0.48 -0.21,0.73l-0.06 0.22c-0.01,0.03 -0.02,0.06 -0.02,0.09 -0.04,0.14 -0.08,0.29 -0.15,0.37 -0.05,0.06 -0.12,0.12 -0.2,0.17 -0.07,0.03 -0.14,0.06 -0.23,0.06l-3.93 0c-0.09,0 -0.16,-0.02 -0.23,-0.06 -0.08,-0.04 -0.15,-0.1 -0.19,-0.16 -0.08,-0.1 -0.11,-0.23 -0.15,-0.36 -0.01,-0.03 -0.02,-0.06 -0.03,-0.09l-0.61 -2.15c-0,-0.02 -0.01,-0.03 -0.01,-0.05 -0.01,-0.06 -0.03,-0.11 -0.07,-0.14l-0.03 -0.01c-0.07,-0.03 -0.11,-0.06 -0.16,-0.12 -0.07,-0.09 -0.1,-0.2 -0.09,-0.31 0.01,-0.11 0.05,-0.21 0.13,-0.29 0.09,-0.09 0.2,-0.13 0.32,-0.13 0.12,-0 0.24,0.04 0.32,0.12 0.01,0.01 0.02,0.02 0.04,0.04 0.07,0.09 0.1,0.2 0.1,0.31 -0,0.11 -0.04,0.22 -0.11,0.29 -0.01,0.01 -0.02,0.02 -0.03,0.03 -0.01,0.01 -0.01,0.01 -0.02,0.02 -0.01,0.01 -0.03,0.02 -0.03,0.04 0,0.08 0.05,0.17 0.11,0.26 0.08,0.11 0.19,0.22 0.28,0.28 0.25,0.16 0.56,0.24 0.87,0.23 0.32,-0.01 0.63,-0.11 0.88,-0.29 0.05,-0.04 0.09,-0.07 0.14,-0.11 0.04,-0.04 0.08,-0.08 0.12,-0.13 0.08,-0.11 0.15,-0.23 0.19,-0.36 0.04,-0.13 0.06,-0.27 0.06,-0.43 0,-0.03 -0.02,-0.04 -0.04,-0.05 -0.03,-0.02 -0.07,-0.05 -0.12,-0.11 -0.03,-0.04 -0.06,-0.09 -0.08,-0.14 -0.02,-0.05 -0.03,-0.09 -0.03,-0.14zm0.13 -0.2c-0.04,0.06 -0.06,0.13 -0.06,0.2 0,0.04 0.01,0.08 0.02,0.12 0.02,0.04 0.04,0.09 0.07,0.12 0.04,0.05 0.07,0.07 0.1,0.09 0.04,0.03 0.07,0.04 0.07,0.11 0,0.16 -0.02,0.31 -0.07,0.45 -0.04,0.14 -0.11,0.26 -0.2,0.38 -0.04,0.05 -0.08,0.1 -0.12,0.14 -0.04,0.04 -0.09,0.08 -0.14,0.12 -0.26,0.19 -0.59,0.29 -0.91,0.3 -0.32,0.01 -0.65,-0.07 -0.9,-0.24 -0.09,-0.06 -0.21,-0.18 -0.29,-0.3 -0.07,-0.1 -0.12,-0.21 -0.12,-0.3 0,-0.06 0.02,-0.08 0.05,-0.1 0.01,-0 0.01,-0.01 0.02,-0.01 0.01,-0.01 0.02,-0.02 0.03,-0.03 0.06,-0.06 0.09,-0.15 0.1,-0.25 0,-0.09 -0.02,-0.19 -0.08,-0.26 -0.01,-0.01 -0.02,-0.02 -0.03,-0.03 -0.08,-0.07 -0.18,-0.11 -0.28,-0.11 -0.1,0 -0.2,0.04 -0.27,0.11 -0.07,0.07 -0.11,0.16 -0.11,0.25 -0.01,0.09 0.02,0.19 0.08,0.27 0.04,0.06 0.08,0.08 0.14,0.11l0.03 0.01c0.07,0.04 0.09,0.11 0.11,0.18 0,0.02 0.01,0.03 0.01,0.04l0.61 2.15c0.01,0.03 0.02,0.06 0.03,0.1 0.03,0.13 0.07,0.25 0.14,0.34 0.04,0.05 0.1,0.11 0.17,0.14 0.06,0.03 0.12,0.05 0.2,0.05l3.93 0c0.08,0 0.14,-0.02 0.2,-0.05 0.07,-0.04 0.13,-0.09 0.18,-0.15 0.06,-0.08 0.1,-0.22 0.13,-0.35 0.01,-0.03 0.02,-0.06 0.02,-0.09l0.06 -0.22c0.07,-0.24 0.14,-0.48 0.21,-0.73l0.34 -1.19c0,-0.01 0.01,-0.03 0.01,-0.05 0.02,-0.08 0.03,-0.13 0.11,-0.17 0.04,-0.02 0.07,-0.03 0.09,-0.05 0.02,-0.02 0.05,-0.04 0.07,-0.07 0.08,-0.11 0.08,-0.15 0.08,-0.27l-0 -0c0,-0.08 -0.03,-0.16 -0.09,-0.22 -0.04,-0.04 -0.08,-0.07 -0.14,-0.1 -0.05,-0.02 -0.11,-0.04 -0.17,-0.04 -0.09,0 -0.19,0.03 -0.26,0.11 -0.07,0.06 -0.1,0.15 -0.11,0.24 -0.01,0.09 0.01,0.18 0.06,0.26 0.03,0.04 0.05,0.06 0.08,0.09 0.03,0.03 0.05,0.05 0.05,0.09 0,0.1 -0.05,0.21 -0.13,0.31 -0.09,0.12 -0.2,0.24 -0.3,0.3 -0.25,0.16 -0.55,0.23 -0.85,0.23 -0.31,-0 -0.62,-0.08 -0.87,-0.24 -0.05,-0.03 -0.11,-0.07 -0.17,-0.12 -0.05,-0.04 -0.09,-0.08 -0.12,-0.12 -0.1,-0.12 -0.18,-0.25 -0.24,-0.39 -0.06,-0.14 -0.09,-0.29 -0.09,-0.47 0,-0.12 0.02,-0.14 0.07,-0.16 0.02,-0.01 0.06,-0.03 0.11,-0.1 0.07,-0.1 0.09,-0.2 0.08,-0.3 -0.01,-0.07 -0.04,-0.13 -0.09,-0.19 -0.04,-0.05 -0.1,-0.09 -0.17,-0.12 -0.09,-0.03 -0.21,-0.03 -0.32,0.02 -0.06,0.03 -0.11,0.08 -0.15,0.15zm-0.22 0.19c0,0.08 0.01,0.15 0.04,0.21 0.03,0.06 0.06,0.12 0.11,0.17l0.02 0.02c0.01,0.01 0.02,0.02 0.03,0.03 0.02,0.01 0.03,0.02 0.03,0.02 0.01,0.01 0.01,0.01 0.02,0.02l0 0c0.01,0.01 0.01,0.02 0.01,0.04l-0 0.02c0,0.08 -0.01,0.16 -0.03,0.24 -0.02,0.09 -0.05,0.17 -0.08,0.23 -0.03,0.06 -0.07,0.14 -0.12,0.2 -0.04,0.05 -0.08,0.1 -0.13,0.14 -0.02,0.01 -0.03,0.03 -0.05,0.04 -0.04,0.03 -0.07,0.06 -0.12,0.09 -0.22,0.13 -0.49,0.2 -0.76,0.21 -0.26,0 -0.53,-0.05 -0.74,-0.18 -0.07,-0.04 -0.12,-0.08 -0.18,-0.13 -0.05,-0.05 -0.1,-0.1 -0.14,-0.17 -0.09,-0.16 -0.09,-0.16 -0.03,-0.23 0.02,-0.02 0.04,-0.05 0.07,-0.1 0.04,-0.07 0.06,-0.16 0.06,-0.25 0,-0.09 -0.02,-0.19 -0.07,-0.27 -0.05,-0.08 -0.11,-0.16 -0.2,-0.21 -0.08,-0.05 -0.18,-0.08 -0.3,-0.08 -0.14,0 -0.28,0.06 -0.38,0.16 -0.1,0.1 -0.16,0.23 -0.16,0.37 0,0.1 0.02,0.19 0.05,0.27 0.03,0.08 0.09,0.14 0.16,0.19 0.04,0.03 0.06,0.04 0.08,0.05 0.03,0.01 0.04,0.02 0.05,0.05 0.01,0.02 0.02,0.05 0.04,0.12 0.01,0.05 0.03,0.13 0.06,0.23 0.01,0.04 0.04,0.16 0.09,0.31 0.17,0.61 0.53,1.87 0.57,1.96 0.01,0.01 0.01,0.03 0.02,0.04 0.01,0.02 0.02,0.04 0.03,0.05 0.02,0.02 0.05,0.06 0.08,0.09 0.03,0.03 0.05,0.05 0.08,0.07 0.05,0.03 0.11,0.07 0.18,0.09 0.05,0.02 0.11,0.03 0.17,0.03l3.99 0c0.08,0 0.15,-0.02 0.22,-0.05 0.08,-0.04 0.15,-0.09 0.2,-0.14 0.12,-0.12 0.15,-0.21 0.2,-0.39l0.66 -2.31c0.01,-0.02 0.01,-0.05 0.02,-0.07 0.01,-0.03 0.01,-0.04 0.03,-0.06 0.01,-0.01 0.01,-0.01 0.02,-0.01 0.01,-0.01 0.04,-0.02 0.09,-0.05 0.11,-0.08 0.17,-0.18 0.2,-0.3 0.03,-0.1 0.02,-0.21 -0.01,-0.31 -0.03,-0.1 -0.09,-0.19 -0.18,-0.26 -0.09,-0.07 -0.21,-0.12 -0.35,-0.12 -0.06,0 -0.11,0.01 -0.16,0.03 -0.06,0.02 -0.11,0.05 -0.15,0.07 -0.02,0.02 -0.04,0.03 -0.06,0.05 -0.02,0.02 -0.04,0.03 -0.05,0.05 -0.01,0.02 -0.03,0.04 -0.05,0.07 -0.01,0.02 -0.02,0.04 -0.03,0.06 -0.13,0.33 0.05,0.53 0.11,0.59 0.02,0.02 0.03,0.03 0.03,0.05 0,0.07 -0.05,0.16 -0.12,0.24 -0.08,0.09 -0.18,0.18 -0.26,0.23 -0.16,0.08 -0.27,0.13 -0.4,0.15 -0.12,0.02 -0.25,0.03 -0.42,0.03 -0.15,0 -0.29,-0.03 -0.43,-0.08 -0.15,-0.06 -0.29,-0.14 -0.41,-0.24 -0.11,-0.09 -0.2,-0.22 -0.26,-0.37 -0.07,-0.15 -0.11,-0.32 -0.11,-0.47 0,-0.03 0.02,-0.05 0.06,-0.08 0.09,-0.09 0.29,-0.28 0.15,-0.63 -0.02,-0.06 -0.05,-0.09 -0.09,-0.14l-0.02 -0.03c-0.01,-0.02 -0.04,-0.04 -0.06,-0.06 -0.03,-0.02 -0.07,-0.05 -0.09,-0.06 -0.08,-0.04 -0.16,-0.06 -0.25,-0.06 -0.1,0 -0.21,0.03 -0.3,0.08 -0.09,0.05 -0.16,0.13 -0.21,0.22 -0.04,0.07 -0.06,0.15 -0.06,0.24zm-0.02 0.23c-0.03,-0.07 -0.04,-0.15 -0.04,-0.23 0,-0.1 0.02,-0.19 0.07,-0.27 0.05,-0.1 0.14,-0.19 0.24,-0.25 0.1,-0.06 0.21,-0.09 0.33,-0.09 0.09,0 0.19,0.02 0.28,0.07 0.03,0.01 0.07,0.04 0.1,0.06 0.03,0.02 0.06,0.05 0.07,0.07l0.02 0.03c0.04,0.05 0.07,0.08 0.1,0.15 0.16,0.4 -0.06,0.61 -0.17,0.71 -0.02,0.02 -0.04,0.03 -0.04,0.03 0,0.14 0.04,0.3 0.1,0.44 0.06,0.14 0.14,0.26 0.24,0.34 0.11,0.09 0.25,0.17 0.39,0.23 0.13,0.05 0.27,0.08 0.41,0.08 0.17,0 0.29,-0 0.41,-0.03 0.12,-0.02 0.23,-0.07 0.38,-0.15 0.07,-0.04 0.17,-0.12 0.24,-0.21 0.06,-0.07 0.11,-0.15 0.11,-0.2 0,-0.01 -0,0.01 -0.01,-0 -0.06,-0.07 -0.26,-0.3 -0.12,-0.66 0.01,-0.02 0.02,-0.05 0.04,-0.07 0.02,-0.03 0.04,-0.06 0.05,-0.08 0.02,-0.02 0.04,-0.04 0.06,-0.06 0.02,-0.02 0.04,-0.03 0.07,-0.05 0.04,-0.03 0.1,-0.06 0.17,-0.08 0.06,-0.02 0.12,-0.03 0.19,-0.03 0.16,0 0.29,0.05 0.39,0.13 0.1,0.08 0.16,0.18 0.2,0.29 0.04,0.11 0.04,0.24 0.01,0.35 -0.03,0.13 -0.1,0.24 -0.22,0.33 -0.06,0.04 -0.08,0.05 -0.1,0.06l-0.01 0c-0,0 -0,0.01 -0.01,0.03l-0.02 0.07 -0.65 2.28 -0.01 0.03c-0.05,0.19 -0.08,0.28 -0.22,0.42 -0.06,0.06 -0.13,0.11 -0.22,0.16 -0.07,0.03 -0.16,0.06 -0.24,0.06l-3.99 0c-0.06,0 -0.13,-0.01 -0.19,-0.04 -0.07,-0.03 -0.14,-0.06 -0.19,-0.1 -0.02,-0.02 -0.06,-0.05 -0.09,-0.08 -0.03,-0.03 -0.07,-0.07 -0.09,-0.1 -0.01,-0.02 -0.03,-0.04 -0.04,-0.06 -0.01,-0.02 -0.02,-0.04 -0.03,-0.05 -0.04,-0.1 -0.4,-1.36 -0.57,-1.97l-0.09 -0.31c-0.03,-0.11 -0.05,-0.18 -0.07,-0.24 -0.02,-0.06 -0.02,-0.09 -0.03,-0.1 -0,-0.01 -0.01,-0.01 -0.02,-0.02 -0.02,-0.01 -0.05,-0.02 -0.09,-0.06 -0.08,-0.06 -0.14,-0.13 -0.18,-0.22 -0.04,-0.08 -0.06,-0.18 -0.06,-0.29 0,-0.16 0.07,-0.31 0.18,-0.41 0.11,-0.11 0.26,-0.18 0.42,-0.18 0.13,0 0.24,0.03 0.34,0.09 0.1,0.06 0.17,0.14 0.23,0.24 0.05,0.09 0.08,0.2 0.08,0.3 0,0.1 -0.02,0.2 -0.07,0.28 -0.03,0.05 -0.06,0.08 -0.08,0.11 -0.03,0.04 -0.03,0.04 0.03,0.16 0.04,0.06 0.08,0.11 0.13,0.16 0.05,0.05 0.1,0.08 0.17,0.12 0.2,0.12 0.45,0.18 0.7,0.17 0.26,-0 0.51,-0.07 0.72,-0.2 0.04,-0.03 0.08,-0.05 0.11,-0.08 0.02,-0.01 0.03,-0.03 0.05,-0.04 0.04,-0.03 0.08,-0.08 0.12,-0.12 0.05,-0.06 0.09,-0.13 0.12,-0.19 0.03,-0.06 0.06,-0.13 0.08,-0.22 0.02,-0.07 0.03,-0.15 0.03,-0.22 0,-0 0,-0.02 0,-0.02 0,-0 0,-0 0,-0 -0.01,-0.01 -0.02,-0.01 -0.04,-0.03 -0.01,-0.01 -0.02,-0.02 -0.03,-0.03l-0.02 -0.02c-0.05,-0.05 -0.1,-0.12 -0.13,-0.19zm0.22 0.27c-0,-0 -0,-0 0,0l-0 -0z"/>
  </g>
 </g>
</svg>
