<?xml version="1.0" encoding="UTF-8"?>
<!DOCTYPE svg PUBLIC "-//W3C//DTD SVG 1.1//EN" "http://www.w3.org/Graphics/SVG/1.1/DTD/svg11.dtd">
<!-- Creator: CorelDRAW 2018 (64-Bit) -->
<svg xmlns="http://www.w3.org/2000/svg" xml:space="preserve" width="40.2552mm" height="33.0478mm" version="1.1" style="shape-rendering:geometricPrecision; text-rendering:geometricPrecision; image-rendering:optimizeQuality; fill-rule:evenodd; clip-rule:evenodd"
viewBox="0 0 6.83 5.61"
 xmlns:xlink="http://www.w3.org/1999/xlink">
 <defs>
  <style type="text/css">
   <![CDATA[
    .fil1 {fill:#59656C}
    .fil0 {fill:#59656C;fill-rule:nonzero}
   ]]>
  </style>
 </defs>
 <g id="Слой_x0020_1">
  <metadata id="CorelCorpID_0Corel-Layer"/>
  <path class="fil0" d="M0.55 0.8l5.73 0c0.15,0 0.29,0.06 0.39,0.16 0.1,0.1 0.16,0.24 0.16,0.39l0 3.71c0,0.15 -0.06,0.29 -0.16,0.39 -0.1,0.1 -0.24,0.16 -0.39,0.16l-5.73 0c-0.15,0 -0.29,-0.06 -0.39,-0.16 -0.1,-0.1 -0.16,-0.24 -0.16,-0.39l0 -3.71c0,-0.15 0.06,-0.29 0.16,-0.39 0.1,-0.1 0.24,-0.16 0.39,-0.16zm5.73 0.17l-5.73 0c-0.1,0 -0.2,0.04 -0.27,0.11 -0.07,0.07 -0.11,0.16 -0.11,0.27l0 3.71c0,0.1 0.04,0.2 0.11,0.27 0.07,0.07 0.16,0.11 0.27,0.11l5.73 0c0.1,0 0.2,-0.04 0.27,-0.11 0.07,-0.07 0.11,-0.16 0.11,-0.27l0 -3.71c0,-0.1 -0.04,-0.2 -0.11,-0.27 -0.07,-0.07 -0.16,-0.11 -0.27,-0.11z"/>
  <path class="fil1" d="M3.82 2.28l2.29 0c0.04,0 0.08,0.04 0.08,0.09l0 0c0,0.05 -0.03,0.09 -0.08,0.09l-2.29 0c-0.04,0 -0.08,-0.04 -0.08,-0.09l0 0c0,-0.05 0.03,-0.09 0.08,-0.09z"/>
  <path class="fil1" d="M3.82 3.12l2.29 0c0.04,0 0.08,0.04 0.08,0.09l0 0c0,0.05 -0.03,0.09 -0.08,0.09l-2.29 0c-0.04,0 -0.08,-0.04 -0.08,-0.09l0 0c0,-0.05 0.03,-0.09 0.08,-0.09z"/>
  <path class="fil1" d="M3.82 3.96l2.29 0c0.04,0 0.08,0.04 0.08,0.09l0 0c0,0.05 -0.03,0.09 -0.08,0.09l-2.29 0c-0.04,0 -0.08,-0.04 -0.08,-0.09l0 0c0,-0.05 0.03,-0.09 0.08,-0.09z"/>
  <path class="fil0" d="M3.08 4.36l0 -0.14c0,-0.2 0,-0.31 -0.04,-0.37 -0.05,-0.07 -0.17,-0.12 -0.43,-0.23l-0.06 -0.02c-0.02,-0.01 -0.04,-0.02 -0.06,-0.03 -0.06,-0.03 -0.14,-0.07 -0.15,-0.06l-0.01 0c-0.16,0.11 -0.29,0.2 -0.55,0.05 -0.03,-0.02 -0.05,-0.03 -0.07,-0.05 -0.02,-0.01 -0.02,-0.01 -0.28,0.11 -0.07,0.03 -0.14,0.06 -0.2,0.09 -0.27,0.11 -0.27,0.12 -0.27,0.56 -0,0.02 -0,0.03 -0,0.04 -0,0.02 -0,0.04 -0,0.06 0,0.01 0.01,-0.01 0.05,-0.01 0.04,-0 0.08,-0 0.11,-0l0 0 1.87 0c0.02,0 0.03,0 0.04,0 0.01,0 0.02,0 0.03,0zm0.17 -0.14c-0,0.03 -0,0.07 -0,0.16 0,0.13 -0.07,0.15 -0.17,0.15 -0.01,0 -0.03,-0 -0.04,-0 -0.01,-0 -0.02,-0 -0.03,-0l-1.87 -0 0 0c-0.06,0 -0.08,0 -0.11,0 -0.2,0 -0.22,0.01 -0.23,-0.15 -0,-0.02 -0,-0.05 0,-0.07 0,-0.01 0,-0.03 0,-0.04 0,-0.56 0.01,-0.56 0.37,-0.72 0.05,-0.02 0.12,-0.05 0.19,-0.09 0.36,-0.17 0.36,-0.16 0.46,-0.09 0.01,0.01 0.02,0.02 0.04,0.03 0.17,0.1 0.26,0.04 0.37,-0.04l0.01 -0c0.09,-0.06 0.23,0 0.32,0.05 0.02,0.01 0.04,0.02 0.05,0.02l0.06 0.02c0.29,0.12 0.43,0.18 0.51,0.29 0.07,0.11 0.07,0.23 0.07,0.47z"/>
  <path class="fil0" d="M2.03 1.88c0.18,0 0.34,0.08 0.46,0.22 0.11,0.13 0.18,0.31 0.18,0.51 0,0.2 -0.07,0.38 -0.18,0.51 -0.12,0.14 -0.28,0.22 -0.46,0.22 -0.18,0 -0.34,-0.08 -0.46,-0.22 -0.11,-0.13 -0.18,-0.31 -0.18,-0.51 0,-0.2 0.07,-0.38 0.18,-0.51 0.12,-0.14 0.28,-0.22 0.46,-0.22zm0.33 0.33c-0.09,-0.1 -0.2,-0.16 -0.33,-0.16 -0.13,0 -0.25,0.06 -0.33,0.16 -0.09,0.1 -0.14,0.24 -0.14,0.4 0,0.16 0.05,0.3 0.14,0.4 0.09,0.1 0.2,0.16 0.33,0.16 0.13,0 0.25,-0.06 0.33,-0.16 0.09,-0.1 0.14,-0.24 0.14,-0.4 0,-0.16 -0.05,-0.3 -0.14,-0.4z"/>
  <path class="fil0" d="M3.42 0c0.22,0 0.42,0.1 0.56,0.26 0.14,0.16 0.23,0.38 0.23,0.62l0 0.08 -1.57 0 0 -0.08c0,-0.24 0.09,-0.46 0.23,-0.62 0.14,-0.16 0.34,-0.26 0.56,-0.26zm0.43 0.38c-0.11,-0.13 -0.26,-0.21 -0.43,-0.21 -0.17,0 -0.32,0.08 -0.43,0.21 -0.1,0.11 -0.16,0.26 -0.18,0.43l1.22 0c-0.02,-0.17 -0.08,-0.31 -0.18,-0.43z"/>
 </g>
</svg>
