<?xml version="1.0" encoding="UTF-8"?>
<!DOCTYPE svg PUBLIC "-//W3C//DTD SVG 1.1//EN" "http://www.w3.org/Graphics/SVG/1.1/DTD/svg11.dtd">
<!-- Creator: CorelDRAW 2018 (64-Bit) -->
<svg xmlns="http://www.w3.org/2000/svg" xml:space="preserve" width="32.4856mm" height="37.4608mm" version="1.1" style="shape-rendering:geometricPrecision; text-rendering:geometricPrecision; image-rendering:optimizeQuality; fill-rule:evenodd; clip-rule:evenodd"
viewBox="0 0 3.9 4.5"
 xmlns:xlink="http://www.w3.org/1999/xlink">
 <defs>
  <style type="text/css">
   <![CDATA[
    .fil0 {fill:#59656C}
   ]]>
  </style>
 </defs>
 <g id="Слой_x0020_1">
  <metadata id="CorelCorpID_0Corel-Layer"/>
  <path class="fil0" d="M3.78 4.38c-0.03,-0.01 -0.52,-0.01 -0.63,-0.01 -0.03,0 -0.07,0.01 -0.07,-0.02l0 -1.23c0.07,0 0.35,0.13 0.42,0.17 0.17,0.1 0.23,0.13 0.26,0.33 0.03,0.22 0.03,0.51 0.01,0.74zm-3.67 -0.27c0,-0.03 -0,-0.07 -0,-0.1l0.02 -0.29c0.02,-0.14 0.02,-0.23 0.1,-0.3 0.11,-0.1 0.26,-0.16 0.39,-0.22 0.03,-0.01 0.12,-0.05 0.16,-0.05l0 1.23 -0.67 0c0,-0.1 -0.01,-0.17 -0.01,-0.27zm2.85 -0.45l0 0.71 -2.06 0 0 -0.81 2.05 0c0.03,0 0.01,0.04 0.01,0.1zm-0.01 -0.21l-2.06 0 0 -0.35 0.12 -0.06c0.02,-0.01 0.04,-0.02 0.06,-0.03 0.06,-0.03 0.27,-0.12 0.33,-0.12 0.03,0 0.1,0.04 0.13,0.06 0.04,0.02 0.08,0.04 0.12,0.07 0.26,0.12 0.49,0.09 0.73,-0.06 0.03,-0.02 0.08,-0.06 0.12,-0.06 0.09,0 0.41,0.14 0.47,0.18 0,0.04 -0.01,0.05 -0.01,0.09l-0.01 0.29zm0.64 1.04c0.07,0 0.12,0.01 0.18,0.01 0.06,-0 0.11,-0.01 0.12,-0.06 0.01,-0.03 0.01,-0.3 0.01,-0.35 0,-0.6 0.01,-0.73 -0.51,-0.96 -0.15,-0.07 -0.3,-0.13 -0.45,-0.19 -0.04,-0.01 -0.07,-0.03 -0.11,-0.05 -0.04,-0.02 -0.07,-0.03 -0.11,-0.05 -0.07,-0.03 -0.16,-0.08 -0.25,-0.08 -0.13,0 -0.33,0.37 -0.81,0.13 -0.15,-0.07 -0.17,-0.14 -0.25,-0.14 -0.09,0 -0.49,0.2 -0.63,0.26l-0.31 0.14c-0.25,0.1 -0.41,0.18 -0.44,0.45 -0.02,0.13 -0.02,0.27 -0.02,0.43 0,0.11 -0.02,0.36 0,0.43 0.02,0.07 0.21,0.04 0.28,0.04 1.1,0 2.21,0 3.31,0z"/>
  <path class="fil0" d="M2.45 2.42c-0.18,0.12 -0.32,0.16 -0.55,0.16 -0.14,0 -0.3,-0.06 -0.39,-0.11 -0.23,-0.14 -0.35,-0.32 -0.43,-0.57 -0.02,-0.07 -0.04,-0.13 -0.05,-0.2l-0.02 -0.23 1.9 0c0,0.4 -0.13,0.68 -0.38,0.9 -0.02,0.02 -0.05,0.04 -0.07,0.05zm-1.03 -2.16c0,-0.02 0.06,-0.05 0.08,-0.06 0.13,-0.07 0.26,-0.08 0.41,-0.08l-0.01 0.59c0,0.06 0.01,0.11 0.01,0.16 -0,0.03 0.01,0.15 0.02,0.15l0.07 -0.01c0,-0.03 0.01,-0.05 0.01,-0.09 0.01,-0.25 0.01,-0.55 0.01,-0.8 0.16,0 0.24,0.02 0.37,0.07 0.03,0.01 0.07,0.02 0.09,0.04 0,0.05 0.01,0.08 0.01,0.13l-0.01 0.13c-0.01,0.19 0.02,0.2 0.02,0.26 0.06,0 0.11,0.01 0.11,-0.12 0,-0.12 -0.01,-0.22 -0.01,-0.32 0.02,0.01 0.04,0.01 0.07,0.03 0.12,0.07 0.19,0.2 0.25,0.32 0.05,0.1 0.09,0.24 0.12,0.35 0.01,0.05 0.02,0.1 0.03,0.15 0.02,0.07 0.1,0.03 0.1,0.09 0,0.04 -0.01,0.05 -0.01,0.08 -0.41,0 -0.8,-0.01 -1.21,-0.01 -0.4,0 -0.81,0 -1.21,0 -0.01,-0.11 -0.02,-0.09 0.06,-0.12 0.03,-0.01 0.04,-0.02 0.04,-0.05 0.04,-0.22 0.13,-0.51 0.26,-0.69 0.04,-0.06 0.13,-0.16 0.21,-0.17 0,0.04 -0.01,0.06 -0.01,0.1l0 0.16c0,0.08 0.01,0.12 0.02,0.17 0.04,0 0.08,0.01 0.09,-0.02 0.01,-0.02 0.01,-0.06 0.01,-0.1l-0.01 -0.38zm-0.52 1.21c0,0.21 0.03,0.33 0.09,0.5 0.03,0.08 0.09,0.2 0.14,0.27 0.1,0.14 0.21,0.24 0.36,0.32 0.28,0.16 0.67,0.16 0.95,-0 0.3,-0.18 0.52,-0.5 0.56,-0.85 0.01,-0.07 0.02,-0.2 0.04,-0.24 0.08,0 0.19,0.03 0.23,-0.06 0.03,-0.07 0.04,-0.22 -0.05,-0.28 -0.05,-0.04 -0.05,-0.05 -0.07,-0.12 -0.05,-0.19 -0.1,-0.36 -0.21,-0.53 -0.12,-0.19 -0.3,-0.33 -0.52,-0.4 -0.41,-0.14 -0.87,-0.11 -1.2,0.15 -0.21,0.16 -0.38,0.45 -0.44,0.71 -0.01,0.07 -0.03,0.16 -0.09,0.2 -0.03,0.02 -0.03,0.01 -0.05,0.05 -0.03,0.07 -0.03,0.17 0.01,0.23 0.03,0.06 0.16,0.05 0.24,0.05z"/>
 </g>
</svg>
