<?xml version="1.0" encoding="UTF-8"?>
<!DOCTYPE svg PUBLIC "-//W3C//DTD SVG 1.1//EN" "http://www.w3.org/Graphics/SVG/1.1/DTD/svg11.dtd">
<!-- Creator: CorelDRAW 2018 (64-Bit) -->
<svg xmlns="http://www.w3.org/2000/svg" xml:space="preserve" width="32.9542mm" height="36.2716mm" version="1.1" style="shape-rendering:geometricPrecision; text-rendering:geometricPrecision; image-rendering:optimizeQuality; fill-rule:evenodd; clip-rule:evenodd"
viewBox="0 0 4.1 4.51"
 xmlns:xlink="http://www.w3.org/1999/xlink">
 <defs>
  <style type="text/css">
   <![CDATA[
    .fil1 {fill:#59656C}
    .fil0 {fill:#59656C;fill-rule:nonzero}
   ]]>
  </style>
 </defs>
 <g id="Слой_x0020_1">
  <metadata id="CorelCorpID_0Corel-Layer"/>
  <path class="fil0" d="M3.97 4.34c0,-0.08 0,-0.19 0,-0.28 0,-0.37 0.01,-0.57 -0.08,-0.7 -0.1,-0.15 -0.32,-0.24 -0.79,-0.43l-0.1 -0.04c-0.03,-0.01 -0.06,-0.03 -0.1,-0.05 -0.12,-0.06 -0.29,-0.14 -0.35,-0.1l-0.01 0.01c-0.25,0.17 -0.45,0.32 -0.87,0.08 -0.05,-0.03 -0.08,-0.05 -0.1,-0.07 -0.07,-0.05 -0.07,-0.06 -0.58,0.18 -0.13,0.06 -0.24,0.11 -0.34,0.15 -0.51,0.22 -0.53,0.23 -0.53,1.06 -0,0.02 -0,0.05 -0,0.07 -0,0.04 -0,0.08 -0,0.11 0,0.07 0.02,0.07 0.18,0.07 0.06,-0 0.12,-0 0.19,-0l0 0 3.27 0c0.02,0 0.04,0 0.07,0 0.02,0 0.04,0 0.06,0 0.04,0 0.08,-0.01 0.08,-0.05zm0.13 -0.28c-0,0.07 -0,0.15 -0,0.28 0,0.15 -0.09,0.17 -0.2,0.17 -0.02,0 -0.04,-0 -0.07,-0 -0.02,-0 -0.04,-0 -0.06,-0l-3.27 -0 0 0c-0.08,0 -0.14,0 -0.19,0 -0.27,0.01 -0.3,0.01 -0.31,-0.19 -0,-0.04 -0,-0.08 0,-0.12 0,-0.02 0,-0.05 0,-0.07 0,-0.91 0.01,-0.92 0.6,-1.17 0.09,-0.04 0.21,-0.09 0.34,-0.15 0.58,-0.27 0.58,-0.26 0.71,-0.16 0.02,0.02 0.05,0.04 0.09,0.06 0.35,0.2 0.52,0.08 0.73,-0.07l0.01 -0.01c0.12,-0.08 0.32,0.02 0.47,0.09 0.03,0.02 0.07,0.03 0.09,0.04l0.1 0.04c0.49,0.2 0.73,0.3 0.85,0.48 0.11,0.16 0.11,0.37 0.1,0.77z"/>
  <path class="fil1" d="M3.17 2.36l0.57 0 0 -0.57c0,-0.03 0.03,-0.06 0.06,-0.06l0 0c0.03,0 0.06,0.03 0.06,0.06l0 0.63 0 0 -0 0 -0 0 -0 0 -0 0 -0 0 -0 0 -0 0 -0 0 -0 0c-0,0 -0,0 -0,0l-0 0c-0,0 -0,0 -0,0l-0 0c-0,0 -0,0 -0,0 -0,0 -0,0 -0,0 -0.01,0.01 -0.02,0.02 -0.04,0.03l-0 0c-0,0 -0,0 -0,0l-0 0 -0 0 -0.63 0c-0.03,0 -0.06,-0.03 -0.06,-0.06l0 0c0,-0.03 0.03,-0.06 0.06,-0.06z"/>
  <path class="fil1" d="M3.17 0.11l0.57 0 0 0.57c0,0.03 0.03,0.06 0.06,0.06l0 0c0.03,0 0.06,-0.03 0.06,-0.06l0 -0.63 0 0 -0 -0 -0 -0 -0 -0 -0 -0 -0 -0 -0 -0 -0 -0 -0 -0 -0 -0c-0,-0 -0,-0 -0,-0l-0 -0c-0,-0 -0,-0 -0,-0l-0 -0c-0,-0 -0,-0 -0,-0 -0,-0 -0,-0 -0,-0 -0.01,-0.01 -0.02,-0.02 -0.04,-0.03l-0 -0c-0,-0 -0,-0 -0,-0l-0 -0 -0 -0 -0.63 0c-0.03,0 -0.06,0.03 -0.06,0.06l0 0c0,0.03 0.03,0.06 0.06,0.06z"/>
  <path class="fil1" d="M0.93 2.36l-0.57 0 0 -0.57c0,-0.03 -0.03,-0.06 -0.06,-0.06l0 0c-0.03,0 -0.06,0.03 -0.06,0.06l0 0.63 0 0 0 0 0 0 0 0 0 0 0 0 0 0 0 0 0 0 0 0c0,0 0,0 0,0l0 0c0,0 0,0 0,0l0 0c0,0 0,0 0,0 0,0 0,0 0,0 0.01,0.01 0.02,0.02 0.04,0.03l0 0c0,0 0,0 0,0l0 0 0 0 0.63 0c0.03,0 0.06,-0.03 0.06,-0.06l0 0c0,-0.03 -0.03,-0.06 -0.06,-0.06z"/>
  <path class="fil1" d="M0.93 0.11l-0.57 0 0 0.57c0,0.03 -0.03,0.06 -0.06,0.06l0 0c-0.03,0 -0.06,-0.03 -0.06,-0.06l0 -0.63 0 0 0 -0 0 -0 0 -0 0 -0 0 -0 0 -0 0 -0 0 -0 0 -0c0,-0 0,-0 0,-0l0 -0c0,-0 0,-0 0,-0l0 -0c0,-0 0,-0 0,-0 0,-0 0,-0 0,-0 0.01,-0.01 0.02,-0.02 0.04,-0.03l0 -0c0,-0 0,-0 0,-0l0 -0 0 -0 0.63 0c0.03,0 0.06,0.03 0.06,0.06l0 0c0,0.03 -0.03,0.06 -0.06,0.06z"/>
  <path class="fil0" d="M2.05 0.06c0.29,0 0.55,0.13 0.74,0.35 0.19,0.21 0.3,0.51 0.3,0.84 0,0.33 -0.11,0.62 -0.3,0.84 -0.19,0.22 -0.45,0.35 -0.74,0.35 -0.29,0 -0.55,-0.13 -0.74,-0.35 -0.19,-0.21 -0.3,-0.51 -0.3,-0.84 0,-0.33 0.11,-0.62 0.3,-0.84 0.19,-0.22 0.45,-0.35 0.74,-0.35zm0.64 0.43c-0.16,-0.19 -0.39,-0.31 -0.64,-0.31 -0.25,0 -0.48,0.12 -0.64,0.31 -0.17,0.19 -0.27,0.46 -0.27,0.76 0,0.3 0.1,0.56 0.27,0.76 0.16,0.19 0.39,0.31 0.64,0.31 0.25,0 0.48,-0.12 0.64,-0.31 0.17,-0.19 0.27,-0.46 0.27,-0.76 0,-0.3 -0.1,-0.56 -0.27,-0.76z"/>
 </g>
</svg>
