<?xml version="1.0" encoding="UTF-8"?>
<!DOCTYPE svg PUBLIC "-//W3C//DTD SVG 1.1//EN" "http://www.w3.org/Graphics/SVG/1.1/DTD/svg11.dtd">
<!-- Creator: CorelDRAW 2018 (64-Bit) -->
<svg xmlns="http://www.w3.org/2000/svg" xml:space="preserve" width="48.8879mm" height="28.8772mm" version="1.1" style="shape-rendering:geometricPrecision; text-rendering:geometricPrecision; image-rendering:optimizeQuality; fill-rule:evenodd; clip-rule:evenodd"
viewBox="0 0 9.01 5.32"
 xmlns:xlink="http://www.w3.org/1999/xlink">
 <defs>
  <style type="text/css">
   <![CDATA[
    .fil0 {fill:#59656C}
   ]]>
  </style>
 </defs>
 <g id="Слой_x0020_1">
  <metadata id="CorelCorpID_0Corel-Layer"/>
  <path class="fil0" d="M7.99 5.15l0.85 0 0 -0.85c0,-0.05 0.04,-0.08 0.08,-0.08l0 0c0.05,0 0.08,0.04 0.08,0.08l0 0.93 0 0 -0 0 -0 0 -0 0 -0 0 -0 0 -0 0 -0 0 -0 0 -0 0c-0,0 -0,0 -0,0l-0 0c-0,0 -0,0 -0,0.01l-0 0c-0,0 -0,0 -0,0 -0,0 -0,0 -0,0.01 -0.01,0.02 -0.04,0.04 -0.06,0.04l-0 0c-0,0 -0,0 -0,0l-0 0 -0 0 -0.93 0c-0.05,0 -0.08,-0.04 -0.08,-0.08l0 0c0,-0.05 0.04,-0.08 0.08,-0.08z"/>
  <path class="fil0" d="M7.99 0.17l0.85 0 0 0.85c0,0.05 0.04,0.08 0.08,0.08l0 0c0.05,0 0.08,-0.04 0.08,-0.08l0 -0.93 0 0 -0 -0 -0 -0 -0 -0 -0 -0 -0 -0 -0 -0 -0 -0 -0 -0 -0 -0c-0,-0 -0,-0 -0,-0l-0 -0c-0,-0 -0,-0 -0,-0.01l-0 -0c-0,-0 -0,-0 -0,-0 -0,-0 -0,-0 -0,-0.01 -0.01,-0.02 -0.04,-0.04 -0.06,-0.04l-0 -0c-0,-0 -0,-0 -0,-0l-0 -0 -0 -0 -0.93 0c-0.05,0 -0.08,0.04 -0.08,0.08l0 0c0,0.05 0.04,0.08 0.08,0.08z"/>
  <path class="fil0" d="M1.02 5.15l-0.85 0 0 -0.85c0,-0.05 -0.04,-0.08 -0.08,-0.08l0 0c-0.05,0 -0.08,0.04 -0.08,0.08l0 0.93 0 0 0 0 0 0 0 0 0 0 0 0 0 0 0 0 0 0 0 0c0,0 0,0 0,0l0 0c0,0 0,0 0,0.01l0 0c0,0 0,0 0,0 0,0 0,0 0,0.01 0.01,0.02 0.04,0.04 0.06,0.04l0 0c0,0 0,0 0,0l0 0 0 0 0.93 0c0.05,0 0.08,-0.04 0.08,-0.08l0 0c0,-0.05 -0.04,-0.08 -0.08,-0.08z"/>
  <path class="fil0" d="M1.02 0.17l-0.85 0 0 0.85c0,0.05 -0.04,0.08 -0.08,0.08l0 0c-0.05,0 -0.08,-0.04 -0.08,-0.08l0 -0.93 0 0 0 -0 0 -0 0 -0 0 -0 0 -0 0 -0 0 -0 0 -0 0 -0c0,-0 0,-0 0,-0l0 -0c0,-0 0,-0 0,-0.01l0 -0c0,-0 0,-0 0,-0 0,-0 0,-0 0,-0.01 0.01,-0.02 0.04,-0.04 0.06,-0.04l0 -0c0,-0 0,-0 0,-0l0 -0 0 -0 0.93 0c0.05,0 0.08,0.04 0.08,0.08l0 0c0,0.05 -0.04,0.08 -0.08,0.08z"/>
  <path class="fil0" d="M2.58 3.7l0.92 0 0 -2.63c-0.08,-0.01 -0.86,-0.01 -0.93,0l0 2.63z"/>
  <polygon class="fil0" points="5.91,3.71 5.99,3.71 6.78,3.71 6.83,3.71 6.84,1.07 5.91,1.07 "/>
  <polygon class="fil0" points="1.52,4.25 1.99,4.25 1.99,1.07 1.52,1.07 "/>
  <polygon class="fil0" points="4.47,3.71 4.95,3.71 4.95,1.07 4.47,1.07 "/>
  <polygon class="fil0" points="7.21,4.26 7.49,4.26 7.49,1.07 7.21,1.07 "/>
  <polygon class="fil0" points="3.69,3.71 4.01,3.71 4.01,1.07 3.69,1.07 "/>
  <polygon class="fil0" points="5.11,3.71 5.34,3.71 5.34,1.07 5.26,1.07 5.2,1.07 5.16,1.07 5.11,1.07 "/>
  <polygon class="fil0" points="5.49,3.71 5.54,3.71 5.64,3.71 5.72,3.71 5.73,1.07 5.63,1.07 5.57,1.07 5.49,1.07 "/>
  <polygon class="fil0" points="2.16,1.12 2.16,3.63 2.16,3.71 2.39,3.71 2.39,1.12 2.39,1.07 2.16,1.07 "/>
  <polygon class="fil0" points="6.95,1.12 6.95,3.66 6.96,3.71 7.01,3.71 7.04,3.71 7.09,3.71 7.1,3.65 7.1,1.07 6.95,1.07 "/>
 </g>
</svg>
