<?xml version="1.0" encoding="UTF-8"?>
<!DOCTYPE svg PUBLIC "-//W3C//DTD SVG 1.1//EN" "http://www.w3.org/Graphics/SVG/1.1/DTD/svg11.dtd">
<!-- Creator: CorelDRAW 2018 (64-Bit) -->
<svg xmlns="http://www.w3.org/2000/svg" xml:space="preserve" width="33.0924mm" height="32.8268mm" version="1.1" style="shape-rendering:geometricPrecision; text-rendering:geometricPrecision; image-rendering:optimizeQuality; fill-rule:evenodd; clip-rule:evenodd"
viewBox="0 0 4.13 4.1"
 xmlns:xlink="http://www.w3.org/1999/xlink">
 <defs>
  <style type="text/css">
   <![CDATA[
    .fil0 {fill:#59656C}
   ]]>
  </style>
 </defs>
 <g id="Слой_x0020_1">
  <metadata id="CorelCorpID_0Corel-Layer"/>
  <path class="fil0" d="M3.73 1.09l0.1 0 0 0.1 0 0.29c0,0.04 0.03,0.07 0.07,0.07l0 0c0.04,0 0.07,-0.03 0.07,-0.07l0 -0.46c0,-0 0,-0.01 0,-0.01l0 -0c0,-0.02 -0.01,-0.04 -0.02,-0.05l-0 -0 -0 -0 -0 -0c-0.02,-0.02 -0.04,-0.02 -0.06,-0.02l-0.45 0c-0.04,0 -0.07,0.03 -0.07,0.07l0 0c0,0.04 0.03,0.07 0.07,0.07l0.29 0z"/>
  <path class="fil0" d="M0.12 3.97l3.94 0c0.03,0 0.06,0.03 0.06,0.06l0 0c0,0.03 -0.03,0.06 -0.06,0.06l-4.01 0 -0 -0 -0 -0c-0,-0 -0.01,-0 -0.01,-0 -0.02,-0 -0.03,-0.01 -0.04,-0.02 -0,-0 -0.01,-0.01 -0.01,-0.02l-0 -0 -0 -0 -0 -0 -0 -0 -0 -0 -0 -0 -0 -0 -0 -0 -0 -0 -0 -0 -0 -0 -0 -0 -0 -0 -0 -0 0 -3.97c0,-0.03 0.03,-0.06 0.06,-0.06l0 0c0.03,0 0.06,0.03 0.06,0.06l0 3.91zm-0.12 0.06l0 0z"/>
  <rect class="fil0" transform="matrix(-0.878394 -0.878394 -0.878396 0.878396 2.03841 1.84585)" width="0.1" height="1.7" rx="0.05" ry="0.05"/>
  <rect class="fil0" transform="matrix(-0.878394 -0.878394 -0.878396 0.878396 3.97533 1.03969)" width="0.1" height="1.7" rx="0.05" ry="0.05"/>
  <path class="fil0" d="M1.91 1.8l-0 0c-0.03,0.02 -0.03,0.06 -0,0.09l0.53 0.6c0.02,0.03 0.06,0.03 0.09,0l0 -0c0.02,-0.02 0.03,-0.06 0,-0.09l-0.53 -0.6c-0.02,-0.03 -0.06,-0.02 -0.09,-0z"/>
 </g>
</svg>
