<?xml version="1.0" encoding="UTF-8"?>
<!DOCTYPE svg PUBLIC "-//W3C//DTD SVG 1.1//EN" "http://www.w3.org/Graphics/SVG/1.1/DTD/svg11.dtd">
<!-- Creator: CorelDRAW 2018 (64-Bit) -->
<svg xmlns="http://www.w3.org/2000/svg" xml:space="preserve" width="32.7373mm" height="42.7353mm" version="1.1" style="shape-rendering:geometricPrecision; text-rendering:geometricPrecision; image-rendering:optimizeQuality; fill-rule:evenodd; clip-rule:evenodd"
viewBox="0 0 6.97 9.1"
 xmlns:xlink="http://www.w3.org/1999/xlink">
 <defs>
  <style type="text/css">
   <![CDATA[
    .fil0 {fill:#59656C;fill-rule:nonzero}
   ]]>
  </style>
 </defs>
 <g id="Слой_x0020_1">
  <metadata id="CorelCorpID_0Corel-Layer"/>
  <g id="_1807492144">
   <path class="fil0" d="M1.63 5.62c0,0.05 0.04,0.1 0.09,0.14 0.03,0.02 0.07,0.04 0.1,0.04 0.03,0.01 0.07,0 0.1,-0.01 0.06,-0.02 0.11,-0.08 0.14,-0.18l0.3 -1.22 0.03 -0.11c0.03,-0.11 0.04,-0.18 0.12,-0.18 0.12,-0.01 0.12,0.08 0.12,0.27l-0 0.05c-0.01,0.67 -0.04,1.35 -0.08,2.02 -0.04,0.75 -0.08,1.5 -0.08,2.25 0,0.04 0.02,0.08 0.05,0.12 0.03,0.04 0.07,0.07 0.11,0.08 0.04,0.02 0.09,0.02 0.14,0.01 0.05,-0.01 0.11,-0.05 0.16,-0.11 0.06,-0.08 0.25,-1.44 0.36,-2.3 0.04,-0.26 0.07,-0.48 0.08,-0.59l0.1 -0.67 0.59 3.59c0.05,0.05 0.1,0.08 0.16,0.09 0.03,0 0.06,0 0.09,-0.01 0.03,-0.01 0.06,-0.02 0.09,-0.04 0.06,-0.04 0.1,-0.11 0.11,-0.2l-0.18 -4.19c-0.01,-0.09 -0.01,-0.14 -0,-0.17 0.01,-0.07 0.05,-0.1 0.12,-0.1 0.04,0 0.08,0.03 0.1,0.07 0.02,0.03 0.03,0.09 0.05,0.17l0.39 1.34c0.05,0.03 0.09,0.04 0.13,0.04 0.03,0 0.06,-0.01 0.09,-0.02 0.03,-0.01 0.05,-0.04 0.07,-0.06 0.03,-0.04 0.05,-0.09 0.05,-0.13 0,-0.07 -0.06,-0.46 -0.13,-0.94 -0.11,-0.75 -0.27,-1.67 -0.3,-1.83 -0.02,-0.09 -0.04,-0.16 -0.07,-0.22 -0.03,-0.05 -0.07,-0.1 -0.13,-0.14 -0.07,-0.05 -0.18,-0.12 -0.3,-0.17 -0.12,-0.05 -0.25,-0.1 -0.36,-0.13 -0.01,0.01 -0.01,0.01 -0.02,0.02 -0.15,0.12 -0.36,0.17 -0.57,0.17 -0.21,-0 -0.42,-0.07 -0.54,-0.18l-0.01 -0.01c-0.1,0.03 -0.19,0.06 -0.28,0.11 -0.12,0.05 -0.23,0.11 -0.33,0.17 -0.21,0.12 -0.23,0.29 -0.29,0.66 -0.01,0.07 -0.02,0.16 -0.04,0.26l-0.01 0.07c-0.07,0.4 -0.33,2.02 -0.33,2.19zm-0.03 0.32c-0.11,-0.07 -0.18,-0.19 -0.18,-0.32 0,-0.18 0.27,-1.82 0.34,-2.22l0.01 -0.07c0.01,-0.09 0.03,-0.18 0.04,-0.26 0.07,-0.45 0.1,-0.65 0.39,-0.82 0.11,-0.06 0.22,-0.12 0.34,-0.18 0.12,-0.06 0.25,-0.1 0.38,-0.13l0.06 -0.02 0.04 0.05c0.01,0.01 0.02,0.02 0.03,0.03 0.09,0.08 0.25,0.12 0.41,0.13 0.16,0 0.33,-0.03 0.43,-0.12 0.02,-0.01 0.03,-0.03 0.04,-0.04l0.04 -0.05 0.06 0.01c0.12,0.03 0.29,0.09 0.45,0.16 0.14,0.06 0.27,0.13 0.35,0.2 0.08,0.07 0.14,0.13 0.18,0.21 0.04,0.08 0.07,0.16 0.09,0.28 0.03,0.17 0.18,1.1 0.3,1.84 0.07,0.48 0.13,0.89 0.13,0.97 0,0.09 -0.04,0.19 -0.1,0.27 -0.04,0.05 -0.08,0.09 -0.14,0.12 -0.06,0.03 -0.12,0.05 -0.19,0.05 -0.09,0 -0.19,-0.03 -0.29,-0.11l-0.03 -0.02 -0.24 -0.81 0.15 3.57 -0 0.01c-0.02,0.15 -0.09,0.27 -0.19,0.35 -0.05,0.04 -0.1,0.06 -0.16,0.08 -0.06,0.02 -0.12,0.02 -0.17,0.01 -0.12,-0.01 -0.24,-0.07 -0.32,-0.19l-0.02 -0.02 -0.37 -2.28c-0.12,0.88 -0.3,2.17 -0.4,2.29 -0.08,0.1 -0.18,0.16 -0.27,0.19 -0.09,0.03 -0.19,0.02 -0.27,-0.01 -0.08,-0.03 -0.15,-0.08 -0.2,-0.15 -0.06,-0.07 -0.09,-0.16 -0.09,-0.25 0,-0.74 0.04,-1.5 0.08,-2.26 0.02,-0.43 0.05,-0.86 0.06,-1.28l-0.13 0.53 -0 0.01c-0.05,0.18 -0.16,0.28 -0.27,0.32 -0.07,0.03 -0.14,0.03 -0.21,0.02 -0.07,-0.01 -0.13,-0.04 -0.19,-0.08zm0.92 -1.63l0.02 0c0.03,-0.01 0.03,-0.01 -0.01,-0.01l-0.01 0zm0 0c-0.02,0 -0,0 0.02,0l0 -0 -0.02 -0z"/>
   <path class="fil0" d="M2.78 0.9c0,0.1 0.02,0.2 0.05,0.28 0.04,0.1 0.09,0.18 0.15,0.24 0.13,0.14 0.32,0.21 0.51,0.21 0.09,0 0.18,-0.02 0.26,-0.05 0.08,-0.03 0.16,-0.07 0.23,-0.13 0.13,-0.12 0.23,-0.31 0.23,-0.55 0,-0.1 -0.02,-0.19 -0.06,-0.28 -0.06,-0.12 -0.15,-0.22 -0.26,-0.29 -0.11,-0.07 -0.24,-0.11 -0.38,-0.11 -0.1,0 -0.21,0.02 -0.31,0.07 -0.02,0.01 -0.06,0.03 -0.1,0.06 -0.04,0.03 -0.08,0.06 -0.09,0.07l-0 0c-0.05,0.05 -0.11,0.13 -0.15,0.23 -0.03,0.08 -0.06,0.17 -0.06,0.24zm-0.15 0.35c-0.04,-0.11 -0.07,-0.23 -0.07,-0.35 0,-0.11 0.03,-0.22 0.08,-0.33 0.05,-0.12 0.13,-0.23 0.19,-0.3l-0 -0c0.03,-0.03 0.07,-0.06 0.12,-0.1 0.05,-0.03 0.1,-0.07 0.13,-0.08 0.14,-0.06 0.27,-0.09 0.4,-0.09 0.18,0 0.36,0.06 0.5,0.15 0.14,0.09 0.26,0.23 0.33,0.38 0.05,0.11 0.08,0.24 0.08,0.37 0,0.32 -0.12,0.55 -0.3,0.71 -0.09,0.08 -0.19,0.14 -0.3,0.18 -0.11,0.04 -0.22,0.06 -0.33,0.06 -0.25,0 -0.5,-0.09 -0.67,-0.28 -0.07,-0.08 -0.14,-0.19 -0.19,-0.31z"/>
   <path class="fil0" d="M0.43 3.08c0.12,0 0.22,0.05 0.3,0.13 0.08,0.08 0.13,0.18 0.13,0.3l0 5.17c0,0.12 -0.05,0.22 -0.13,0.3l0 0c-0.08,0.08 -0.18,0.13 -0.3,0.13 -0.12,0 -0.22,-0.05 -0.3,-0.13l0 -0c-0.08,-0.08 -0.13,-0.18 -0.13,-0.3l0 -5.17c0,-0.12 0.05,-0.22 0.13,-0.3l0 -0c0.08,-0.08 0.18,-0.13 0.3,-0.13zm0 0.21c-0.06,0 -0.11,0.02 -0.15,0.06 -0.04,0.04 -0.06,0.09 -0.06,0.15l0 5.17c0,0.06 0.02,0.11 0.06,0.15l0 -0c0.04,0.04 0.09,0.06 0.15,0.06 0.06,0 0.11,-0.02 0.15,-0.06l0 0c0.04,-0.04 0.06,-0.09 0.06,-0.15l0 -5.17c0,-0.06 -0.02,-0.11 -0.06,-0.15 -0.04,-0.04 -0.09,-0.06 -0.15,-0.06z"/>
   <path class="fil0" d="M6.55 3.08c0.12,0 0.22,0.05 0.3,0.13 0.08,0.08 0.13,0.18 0.13,0.3l0 5.17c0,0.12 -0.05,0.22 -0.13,0.3l0 0c-0.08,0.08 -0.18,0.13 -0.3,0.13 -0.12,0 -0.22,-0.05 -0.3,-0.13l0 -0c-0.08,-0.08 -0.13,-0.18 -0.13,-0.3l0 -5.17c0,-0.12 0.05,-0.22 0.13,-0.3l0 -0c0.08,-0.08 0.18,-0.13 0.3,-0.13zm0 0.21c-0.06,0 -0.11,0.02 -0.15,0.06 -0.04,0.04 -0.06,0.09 -0.06,0.15l0 5.17c0,0.06 0.02,0.11 0.06,0.15l0 -0c0.04,0.04 0.09,0.06 0.15,0.06 0.06,0 0.11,-0.02 0.15,-0.06l0 0c0.04,-0.04 0.06,-0.09 0.06,-0.15l0 -5.17c0,-0.06 -0.02,-0.11 -0.06,-0.15 -0.04,-0.04 -0.09,-0.06 -0.15,-0.06z"/>
  </g>
 </g>
</svg>
