<?xml version="1.0" encoding="UTF-8"?>
<!DOCTYPE svg PUBLIC "-//W3C//DTD SVG 1.1//EN" "http://www.w3.org/Graphics/SVG/1.1/DTD/svg11.dtd">
<!-- Creator: CorelDRAW 2018 (64-Bit) -->
<svg xmlns="http://www.w3.org/2000/svg" xml:space="preserve" width="53.9mm" height="41.0653mm" version="1.1" style="shape-rendering:geometricPrecision; text-rendering:geometricPrecision; image-rendering:optimizeQuality; fill-rule:evenodd; clip-rule:evenodd"
viewBox="0 0 17.29 13.17"
 xmlns:xlink="http://www.w3.org/1999/xlink">
 <defs>
  <style type="text/css">
   <![CDATA[
    .fil1 {fill:#59656C}
    .fil0 {fill:#59656C;fill-rule:nonzero}
   ]]>
  </style>
 </defs>
 <g id="Слой_x0020_1">
  <metadata id="CorelCorpID_0Corel-Layer"/>
  <g id="_1844884960">
   <path class="fil0" d="M0.32 8.13c0,0.07 0.05,0.15 0.13,0.2 0.04,0.03 0.1,0.05 0.15,0.06 0.05,0.01 0.1,0.01 0.15,-0.01 0.08,-0.03 0.16,-0.11 0.2,-0.26l0.43 -1.77 0.04 -0.16c0.04,-0.17 0.06,-0.26 0.18,-0.27l0 0c0.18,-0.01 0.18,0.11 0.18,0.39l-0 0.08c-0.01,0.97 -0.06,1.95 -0.12,2.92 -0.06,1.08 -0.12,2.16 -0.12,3.25 0,0.06 0.02,0.11 0.06,0.16 0.04,0.05 0.1,0.09 0.16,0.12l0 0c0.06,0.02 0.13,0.03 0.2,0.01 0.08,-0.02 0.15,-0.07 0.23,-0.16 0.09,-0.12 0.36,-2.08 0.53,-3.32 0.05,-0.38 0.09,-0.7 0.12,-0.85l0.15 -1.01 0.86 5.23c0.07,0.07 0.15,0.11 0.23,0.12 0.05,0.01 0.09,0 0.13,-0.01 0.04,-0.01 0.09,-0.03 0.12,-0.06 0.08,-0.06 0.14,-0.15 0.16,-0.28l-0.26 -6.05c-0.01,-0.13 -0.01,-0.21 -0,-0.25 0.02,-0.11 0.08,-0.16 0.18,-0.15 0.07,0 0.12,0.04 0.15,0.11 0.02,0.05 0.05,0.13 0.08,0.25l0.56 1.94c0.07,0.04 0.13,0.06 0.18,0.06 0.04,0 0.08,-0.01 0.12,-0.03 0.04,-0.02 0.07,-0.05 0.1,-0.09 0.05,-0.06 0.07,-0.13 0.07,-0.19 0,-0.1 -0.08,-0.67 -0.19,-1.35 -0.17,-1.08 -0.38,-2.41 -0.43,-2.65 -0.03,-0.14 -0.05,-0.23 -0.1,-0.31 -0.04,-0.07 -0.1,-0.14 -0.18,-0.2 -0.1,-0.08 -0.26,-0.17 -0.44,-0.24 -0.17,-0.08 -0.36,-0.14 -0.51,-0.19l-0.03 0.02c-0.21,0.17 -0.52,0.25 -0.83,0.24 -0.3,-0.01 -0.6,-0.1 -0.79,-0.26l-0.01 -0.01c-0.14,0.04 -0.27,0.09 -0.4,0.15 -0.17,0.08 -0.33,0.16 -0.47,0.24 -0.3,0.17 -0.33,0.41 -0.41,0.96 -0.02,0.11 -0.03,0.23 -0.06,0.38l-0.02 0.1c-0.1,0.58 -0.48,2.92 -0.48,3.16zm-0.05 0.46c-0.16,-0.11 -0.27,-0.28 -0.27,-0.46 0,-0.27 0.39,-2.63 0.49,-3.21l0.02 -0.1c0.02,-0.12 0.04,-0.26 0.06,-0.37 0.1,-0.65 0.14,-0.94 0.57,-1.19 0.16,-0.09 0.33,-0.18 0.5,-0.26 0.18,-0.08 0.36,-0.15 0.55,-0.19l0.1 -0.02 0.06 0.08c0.01,0.02 0.03,0.03 0.05,0.05 0.13,0.11 0.36,0.17 0.59,0.18 0.23,0.01 0.47,-0.05 0.62,-0.17 0.02,-0.02 0.04,-0.04 0.06,-0.06l0.06 -0.07 0.09 0.02c0.18,0.04 0.43,0.13 0.65,0.23 0.2,0.09 0.39,0.19 0.51,0.29 0.12,0.09 0.2,0.18 0.26,0.3 0.06,0.11 0.1,0.24 0.13,0.41 0.05,0.24 0.27,1.59 0.43,2.66 0.11,0.7 0.19,1.28 0.19,1.4 0,0.14 -0.05,0.28 -0.14,0.39 -0.05,0.07 -0.12,0.13 -0.2,0.17 -0.08,0.04 -0.17,0.07 -0.27,0.07 -0.13,0 -0.28,-0.05 -0.42,-0.16l-0.04 -0.03 -0.33 -1.13 0.22 5.11 -0 0.01c-0.03,0.23 -0.13,0.4 -0.28,0.51 -0.07,0.05 -0.15,0.09 -0.23,0.11 -0.08,0.02 -0.17,0.03 -0.25,0.02 -0.17,-0.02 -0.35,-0.11 -0.47,-0.28l-0.02 -0.03 -0.53 -3.26c-0.17,1.27 -0.43,3.1 -0.57,3.28 -0.12,0.15 -0.26,0.24 -0.39,0.27 -0.14,0.04 -0.27,0.02 -0.39,-0.02 -0.12,-0.04 -0.22,-0.12 -0.3,-0.22 -0.08,-0.11 -0.14,-0.23 -0.14,-0.36 0,-1.08 0.06,-2.17 0.12,-3.26 0.03,-0.6 0.07,-1.2 0.09,-1.79l-0.17 0.71 -0 0.01c-0.08,0.26 -0.23,0.4 -0.4,0.47 -0.1,0.04 -0.21,0.05 -0.31,0.03 -0.1,-0.02 -0.19,-0.06 -0.28,-0.11zm1.36 -2.36l0.02 0.01c0.03,-0.01 0.03,-0.01 -0.02,-0.01zm-0 0c-0.06,0 -0.03,0.01 0.02,0.01l0.01 -0 -0.02 -0.01 -0 0z"/>
   <path class="fil0" d="M1.97 1.31c0,0.15 0.03,0.28 0.07,0.4 0.05,0.14 0.13,0.26 0.21,0.35 0.18,0.2 0.45,0.31 0.73,0.31 0.13,0 0.26,-0.02 0.38,-0.07 0.12,-0.04 0.23,-0.11 0.33,-0.19 0.19,-0.17 0.32,-0.44 0.32,-0.8 0,-0.14 -0.03,-0.28 -0.09,-0.4 -0.08,-0.17 -0.21,-0.32 -0.37,-0.42 -0.16,-0.1 -0.35,-0.16 -0.55,-0.16 -0.15,0 -0.3,0.03 -0.45,0.1 -0.03,0.01 -0.09,0.05 -0.14,0.09 -0.06,0.04 -0.11,0.08 -0.13,0.11l-0 0c-0.07,0.07 -0.15,0.19 -0.21,0.34 -0.05,0.12 -0.08,0.24 -0.08,0.35zm-0.23 0.52c-0.06,-0.15 -0.09,-0.33 -0.09,-0.52 0,-0.16 0.04,-0.32 0.11,-0.48 0.08,-0.18 0.19,-0.34 0.28,-0.44l-0 -0c0.04,-0.04 0.11,-0.09 0.18,-0.14 0.07,-0.05 0.14,-0.09 0.19,-0.12 0.2,-0.09 0.4,-0.13 0.59,-0.13 0.27,0 0.52,0.08 0.73,0.22 0.21,0.14 0.38,0.33 0.49,0.56 0.08,0.16 0.12,0.34 0.12,0.53 0,0.46 -0.17,0.8 -0.43,1.03 -0.13,0.11 -0.27,0.2 -0.43,0.26 -0.16,0.06 -0.32,0.09 -0.49,0.09 -0.36,0 -0.72,-0.14 -0.97,-0.41 -0.11,-0.12 -0.2,-0.27 -0.27,-0.45z"/>
   <path class="fil0" d="M11.62 8.13c0,0.07 0.05,0.15 0.13,0.2 0.04,0.03 0.1,0.05 0.15,0.06 0.05,0.01 0.1,0.01 0.15,-0.01 0.08,-0.03 0.16,-0.11 0.2,-0.26l0.43 -1.77 0.04 -0.16c0.04,-0.17 0.06,-0.26 0.18,-0.27l0 0c0.18,-0.01 0.18,0.11 0.18,0.39l-0 0.08c-0.01,0.97 -0.06,1.95 -0.12,2.92 -0.06,1.08 -0.12,2.16 -0.12,3.25 0,0.06 0.02,0.11 0.06,0.16 0.04,0.05 0.1,0.09 0.16,0.12l0 0c0.06,0.02 0.13,0.03 0.2,0.01 0.08,-0.02 0.15,-0.07 0.23,-0.16 0.09,-0.12 0.36,-2.08 0.53,-3.32 0.05,-0.38 0.09,-0.7 0.12,-0.85l0.15 -1.01 0.86 5.23c0.07,0.07 0.15,0.11 0.23,0.12 0.05,0.01 0.09,0 0.13,-0.01 0.04,-0.01 0.09,-0.03 0.12,-0.06 0.08,-0.06 0.14,-0.15 0.16,-0.28l-0.26 -6.05c-0.01,-0.13 -0.01,-0.21 -0,-0.25 0.02,-0.11 0.08,-0.16 0.18,-0.15 0.07,0 0.12,0.04 0.15,0.11 0.02,0.05 0.05,0.13 0.08,0.25l0.56 1.94c0.07,0.04 0.13,0.06 0.18,0.06 0.04,0 0.08,-0.01 0.12,-0.03 0.04,-0.02 0.07,-0.05 0.1,-0.09 0.05,-0.06 0.07,-0.13 0.07,-0.19 0,-0.1 -0.08,-0.67 -0.19,-1.35 -0.17,-1.08 -0.38,-2.41 -0.43,-2.65 -0.03,-0.14 -0.05,-0.23 -0.1,-0.31 -0.04,-0.07 -0.1,-0.14 -0.18,-0.2 -0.1,-0.08 -0.26,-0.17 -0.44,-0.24 -0.17,-0.08 -0.36,-0.14 -0.51,-0.19l-0.03 0.02c-0.21,0.17 -0.52,0.25 -0.83,0.24 -0.3,-0.01 -0.6,-0.1 -0.79,-0.26l-0.01 -0.01c-0.14,0.04 -0.27,0.09 -0.4,0.15 -0.17,0.08 -0.33,0.16 -0.47,0.24 -0.3,0.17 -0.33,0.41 -0.41,0.96 -0.02,0.11 -0.03,0.23 -0.06,0.38l-0.02 0.1c-0.1,0.58 -0.48,2.92 -0.48,3.16zm-0.05 0.46c-0.16,-0.11 -0.27,-0.28 -0.27,-0.46 0,-0.27 0.39,-2.63 0.49,-3.21l0.02 -0.1c0.02,-0.12 0.04,-0.26 0.06,-0.37 0.1,-0.65 0.14,-0.94 0.57,-1.19 0.16,-0.09 0.33,-0.18 0.5,-0.26 0.18,-0.08 0.36,-0.15 0.55,-0.19l0.1 -0.02 0.06 0.08c0.01,0.02 0.03,0.03 0.05,0.05 0.13,0.11 0.36,0.17 0.59,0.18 0.23,0.01 0.47,-0.05 0.62,-0.17 0.02,-0.02 0.04,-0.04 0.06,-0.06l0.06 -0.07 0.09 0.02c0.18,0.04 0.43,0.13 0.65,0.23 0.2,0.09 0.39,0.19 0.51,0.29 0.12,0.09 0.2,0.18 0.26,0.3 0.06,0.11 0.1,0.24 0.13,0.41 0.05,0.24 0.27,1.59 0.43,2.66 0.11,0.7 0.19,1.28 0.19,1.4 0,0.14 -0.05,0.28 -0.14,0.39 -0.05,0.07 -0.12,0.13 -0.2,0.17 -0.08,0.04 -0.17,0.07 -0.27,0.07 -0.13,0 -0.28,-0.05 -0.42,-0.16l-0.04 -0.03 -0.33 -1.13 0.22 5.11 -0 0.01c-0.03,0.23 -0.13,0.4 -0.28,0.51 -0.07,0.05 -0.15,0.09 -0.23,0.11 -0.08,0.02 -0.17,0.03 -0.25,0.02 -0.17,-0.02 -0.35,-0.11 -0.47,-0.28l-0.02 -0.03 -0.53 -3.26c-0.17,1.27 -0.43,3.1 -0.57,3.28 -0.12,0.15 -0.26,0.24 -0.39,0.27 -0.14,0.04 -0.27,0.02 -0.39,-0.02 -0.12,-0.04 -0.22,-0.12 -0.3,-0.22 -0.08,-0.11 -0.14,-0.23 -0.14,-0.36 0,-1.08 0.06,-2.17 0.12,-3.26 0.03,-0.6 0.07,-1.2 0.09,-1.79l-0.17 0.71 -0 0.01c-0.08,0.26 -0.23,0.4 -0.4,0.47 -0.1,0.04 -0.21,0.05 -0.31,0.03 -0.1,-0.02 -0.19,-0.06 -0.28,-0.11zm1.36 -2.36l0.02 0.01c0.03,-0.01 0.03,-0.01 -0.02,-0.01zm-0 0c-0.06,0 -0.03,0.01 0.02,0.01l0.01 -0 -0.02 -0.01 -0 0z"/>
   <path class="fil0" d="M13.28 1.31c0,0.15 0.03,0.28 0.07,0.4 0.05,0.14 0.13,0.26 0.21,0.35 0.18,0.2 0.45,0.31 0.73,0.31 0.13,0 0.26,-0.02 0.38,-0.07 0.12,-0.04 0.23,-0.11 0.33,-0.19 0.19,-0.17 0.32,-0.44 0.32,-0.8 0,-0.14 -0.03,-0.28 -0.09,-0.4 -0.08,-0.17 -0.21,-0.32 -0.37,-0.42 -0.16,-0.1 -0.35,-0.16 -0.55,-0.16 -0.15,0 -0.3,0.03 -0.45,0.1 -0.03,0.01 -0.09,0.05 -0.14,0.09 -0.06,0.04 -0.11,0.08 -0.13,0.11l-0 0c-0.07,0.07 -0.15,0.19 -0.21,0.34 -0.05,0.12 -0.08,0.24 -0.08,0.35zm-0.23 0.52c-0.06,-0.15 -0.09,-0.33 -0.09,-0.52 0,-0.16 0.04,-0.32 0.11,-0.48 0.08,-0.18 0.19,-0.34 0.28,-0.44l-0 -0c0.04,-0.04 0.11,-0.09 0.18,-0.14 0.07,-0.05 0.14,-0.09 0.19,-0.12 0.2,-0.09 0.4,-0.13 0.59,-0.13 0.27,0 0.52,0.08 0.73,0.22 0.21,0.14 0.38,0.33 0.49,0.56 0.08,0.16 0.12,0.34 0.12,0.53 0,0.46 -0.17,0.8 -0.43,1.03 -0.13,0.11 -0.27,0.2 -0.43,0.26 -0.16,0.06 -0.32,0.09 -0.49,0.09 -0.36,0 -0.72,-0.14 -0.97,-0.41 -0.11,-0.12 -0.2,-0.27 -0.27,-0.45z"/>
   <path class="fil1" d="M7.72 8.51l2.31 0c0.1,0 0.19,0.08 0.19,0.19l0 0c0,0.1 -0.08,0.19 -0.19,0.19l-2.31 0 0.53 0.53c0.07,0.07 0.07,0.19 0,0.26l-0 0c-0.07,0.07 -0.19,0.07 -0.26,0l-0.83 -0.83c-0.01,-0 -0.01,-0.01 -0.02,-0.02l0 0c-0.04,-0.04 -0.05,-0.08 -0.05,-0.13l0 -0 0 -0 0 0c0,-0.06 0.03,-0.12 0.08,-0.15l0.82 -0.82c0.07,-0.07 0.19,-0.07 0.26,0l0 0c0.07,0.07 0.07,0.19 0,0.26l-0.52 0.52z"/>
   <path class="fil1" d="M9.57 5.24l-2.31 0c-0.1,0 -0.19,0.08 -0.19,0.19l0 0c0,0.1 0.08,0.19 0.19,0.19l2.31 0 -0.53 0.53c-0.07,0.07 -0.07,0.19 0,0.26l0 0c0.07,0.07 0.19,0.07 0.26,0l0.83 -0.83c0.01,-0 0.01,-0.01 0.02,-0.02l0 0c0.04,-0.04 0.05,-0.08 0.05,-0.13l0 -0 0 -0 0 0c0,-0.06 -0.03,-0.12 -0.08,-0.15l-0.82 -0.82c-0.07,-0.07 -0.19,-0.07 -0.26,0l-0 0c-0.07,0.07 -0.07,0.19 0,0.26l0.52 0.52z"/>
  </g>
 </g>
</svg>
