<?xml version="1.0" encoding="UTF-8"?>
<!DOCTYPE svg PUBLIC "-//W3C//DTD SVG 1.1//EN" "http://www.w3.org/Graphics/SVG/1.1/DTD/svg11.dtd">
<!-- Creator: CorelDRAW 2018 (64-Bit) -->
<svg xmlns="http://www.w3.org/2000/svg" xml:space="preserve" width="29.5057mm" height="36.1265mm" version="1.1" style="shape-rendering:geometricPrecision; text-rendering:geometricPrecision; image-rendering:optimizeQuality; fill-rule:evenodd; clip-rule:evenodd"
viewBox="0 0 5.36 6.57"
 xmlns:xlink="http://www.w3.org/1999/xlink">
 <defs>
  <style type="text/css">
   <![CDATA[
    .fil0 {fill:#59656C;fill-rule:nonzero}
   ]]>
  </style>
 </defs>
 <g id="Слой_x0020_1">
  <metadata id="CorelCorpID_0Corel-Layer"/>
  <g id="_1844939456">
   <path class="fil0" d="M0.63 0l4.11 0c0.17,0 0.33,0.07 0.44,0.18 0.11,0.11 0.18,0.27 0.18,0.44l0 5.32c0,0.17 -0.07,0.33 -0.18,0.44 -0.11,0.11 -0.27,0.18 -0.44,0.18l-4.11 0c-0.17,0 -0.33,-0.07 -0.44,-0.18 -0.11,-0.11 -0.18,-0.27 -0.18,-0.44l0 -5.32c0,-0.17 0.07,-0.33 0.18,-0.44 0.11,-0.11 0.27,-0.18 0.44,-0.18zm4.11 0.18l-4.11 0c-0.12,0 -0.23,0.05 -0.31,0.13 -0.08,0.08 -0.13,0.19 -0.13,0.31l0 5.32c0,0.12 0.05,0.23 0.13,0.31 0.08,0.08 0.19,0.13 0.31,0.13l4.11 0c0.12,0 0.23,-0.05 0.31,-0.13 0.08,-0.08 0.13,-0.19 0.13,-0.31l0 -5.32c0,-0.12 -0.05,-0.23 -0.13,-0.31 -0.08,-0.08 -0.19,-0.13 -0.31,-0.13z"/>
   <path class="fil0" d="M0.63 0l4.11 0c0.17,0 0.33,0.07 0.44,0.18 0.11,0.11 0.18,0.27 0.18,0.44l0 0.96 -5.36 0 0 -0.96c0,-0.17 0.07,-0.33 0.18,-0.44 0.11,-0.11 0.27,-0.18 0.44,-0.18zm4.11 0.18l-4.11 0c-0.12,0 -0.23,0.05 -0.31,0.13 -0.08,0.08 -0.13,0.19 -0.13,0.31l0 0.78 5 0 0 -0.78c0,-0.12 -0.05,-0.23 -0.13,-0.31 -0.08,-0.08 -0.19,-0.13 -0.31,-0.13z"/>
   <path class="fil0" d="M1.13 2.25l0.49 0c0.07,0 0.14,0.03 0.19,0.08l-0 0c0.05,0.05 0.08,0.11 0.08,0.19l0 0.26c0,0.07 -0.03,0.14 -0.08,0.19l0 0c-0.05,0.05 -0.11,0.08 -0.19,0.08l-0.49 0c-0.07,0 -0.14,-0.03 -0.19,-0.08l-0 -0c-0.05,-0.05 -0.08,-0.11 -0.08,-0.19l0 -0.26c0,-0.07 0.03,-0.14 0.08,-0.19 0.05,-0.05 0.11,-0.08 0.19,-0.08zm0.49 0.18l-0.49 0c-0.02,0 -0.04,0.01 -0.06,0.02 -0.02,0.02 -0.02,0.04 -0.02,0.06l0 0.26c0,0.02 0.01,0.04 0.02,0.06l0 0c0.02,0.02 0.04,0.02 0.06,0.02l0.49 0c0.02,0 0.04,-0.01 0.06,-0.02l0 0c0.02,-0.02 0.02,-0.04 0.02,-0.06l0 -0.26c0,-0.02 -0.01,-0.04 -0.02,-0.06l-0 0c-0.02,-0.02 -0.04,-0.02 -0.06,-0.02z"/>
   <path class="fil0" d="M2.44 2.25l0.49 0c0.07,0 0.14,0.03 0.19,0.08l-0 0c0.05,0.05 0.08,0.11 0.08,0.19l0 0.26c0,0.07 -0.03,0.14 -0.08,0.19l0 0c-0.05,0.05 -0.11,0.08 -0.19,0.08l-0.49 0c-0.07,0 -0.14,-0.03 -0.19,-0.08l-0 -0c-0.05,-0.05 -0.08,-0.11 -0.08,-0.19l0 -0.26c0,-0.07 0.03,-0.14 0.08,-0.19l0 -0c0.05,-0.05 0.11,-0.08 0.19,-0.08zm0.49 0.18l-0.49 0c-0.02,0 -0.04,0.01 -0.06,0.02 -0.02,0.02 -0.02,0.04 -0.02,0.06l0 0.26c0,0.02 0.01,0.04 0.02,0.06 0.02,0.02 0.04,0.02 0.06,0.02l0.49 0c0.02,0 0.04,-0.01 0.06,-0.02l0 0c0.02,-0.02 0.02,-0.04 0.02,-0.06l0 -0.26c0,-0.02 -0.01,-0.04 -0.02,-0.06l-0 0c-0.02,-0.02 -0.04,-0.02 -0.06,-0.02z"/>
   <path class="fil0" d="M3.74 2.25l0.49 0c0.07,0 0.14,0.03 0.19,0.08 0.05,0.05 0.08,0.11 0.08,0.19l0 0.26c0,0.07 -0.03,0.14 -0.08,0.19l-0 0c-0.05,0.05 -0.11,0.08 -0.19,0.08l-0.49 0c-0.07,0 -0.14,-0.03 -0.19,-0.08l-0 -0c-0.05,-0.05 -0.08,-0.11 -0.08,-0.19l0 -0.26c0,-0.07 0.03,-0.14 0.08,-0.19 0.05,-0.05 0.11,-0.08 0.19,-0.08zm0.49 0.18l-0.49 0c-0.02,0 -0.04,0.01 -0.06,0.02 -0.02,0.02 -0.02,0.04 -0.02,0.06l0 0.26c0,0.02 0.01,0.04 0.02,0.06l0 0c0.02,0.02 0.04,0.02 0.06,0.02l0.49 0c0.02,0 0.04,-0.01 0.06,-0.02l0 -0c0.02,-0.02 0.02,-0.04 0.02,-0.06l0 -0.26c0,-0.02 -0.01,-0.04 -0.02,-0.06 -0.02,-0.02 -0.04,-0.02 -0.06,-0.02z"/>
   <path class="fil0" d="M1.13 3.55l0.49 0c0.07,0 0.14,0.03 0.19,0.08l-0 0c0.05,0.05 0.08,0.11 0.08,0.19l0 0.26c0,0.07 -0.03,0.14 -0.08,0.19l0 0c-0.05,0.05 -0.11,0.08 -0.19,0.08l-0.49 0c-0.07,0 -0.14,-0.03 -0.19,-0.08l-0 -0c-0.05,-0.05 -0.08,-0.11 -0.08,-0.19l0 -0.26c0,-0.07 0.03,-0.14 0.08,-0.19 0.05,-0.05 0.11,-0.08 0.19,-0.08zm0.49 0.18l-0.49 0c-0.02,0 -0.04,0.01 -0.06,0.02 -0.02,0.02 -0.02,0.04 -0.02,0.06l0 0.26c0,0.02 0.01,0.04 0.02,0.06l0 0c0.02,0.02 0.04,0.02 0.06,0.02l0.49 0c0.02,0 0.04,-0.01 0.06,-0.02l0 0c0.02,-0.02 0.02,-0.04 0.02,-0.06l0 -0.26c0,-0.02 -0.01,-0.04 -0.02,-0.06l-0 0c-0.02,-0.02 -0.04,-0.02 -0.06,-0.02z"/>
   <path class="fil0" d="M2.44 3.55l0.49 0c0.07,0 0.14,0.03 0.19,0.08l-0 0c0.05,0.05 0.08,0.11 0.08,0.19l0 0.26c0,0.07 -0.03,0.14 -0.08,0.19l0 0c-0.05,0.05 -0.11,0.08 -0.19,0.08l-0.49 0c-0.07,0 -0.14,-0.03 -0.19,-0.08l-0 -0c-0.05,-0.05 -0.08,-0.11 -0.08,-0.19l0 -0.26c0,-0.07 0.03,-0.14 0.08,-0.19l0 -0c0.05,-0.05 0.11,-0.08 0.19,-0.08zm0.49 0.18l-0.49 0c-0.02,0 -0.04,0.01 -0.06,0.02 -0.02,0.02 -0.02,0.04 -0.02,0.06l0 0.26c0,0.02 0.01,0.04 0.02,0.06 0.02,0.02 0.04,0.02 0.06,0.02l0.49 0c0.02,0 0.04,-0.01 0.06,-0.02l0 0c0.02,-0.02 0.02,-0.04 0.02,-0.06l0 -0.26c0,-0.02 -0.01,-0.04 -0.02,-0.06l-0 0c-0.02,-0.02 -0.04,-0.02 -0.06,-0.02z"/>
   <path class="fil0" d="M3.74 3.55l0.49 0c0.07,0 0.14,0.03 0.19,0.08 0.05,0.05 0.08,0.11 0.08,0.19l0 0.26c0,0.07 -0.03,0.14 -0.08,0.19l-0 0c-0.05,0.05 -0.11,0.08 -0.19,0.08l-0.49 0c-0.07,0 -0.14,-0.03 -0.19,-0.08l-0 -0c-0.05,-0.05 -0.08,-0.11 -0.08,-0.19l0 -0.26c0,-0.07 0.03,-0.14 0.08,-0.19 0.05,-0.05 0.11,-0.08 0.19,-0.08zm0.49 0.18l-0.49 0c-0.02,0 -0.04,0.01 -0.06,0.02 -0.02,0.02 -0.02,0.04 -0.02,0.06l0 0.26c0,0.02 0.01,0.04 0.02,0.06l0 0c0.02,0.02 0.04,0.02 0.06,0.02l0.49 0c0.02,0 0.04,-0.01 0.06,-0.02l0 -0c0.02,-0.02 0.02,-0.04 0.02,-0.06l0 -0.26c0,-0.02 -0.01,-0.04 -0.02,-0.06 -0.02,-0.02 -0.04,-0.02 -0.06,-0.02z"/>
   <path class="fil0" d="M1.13 4.85l0.49 0c0.07,0 0.14,0.03 0.19,0.08l-0 0c0.05,0.05 0.08,0.11 0.08,0.19l0 0.26c0,0.07 -0.03,0.14 -0.08,0.19l0 0c-0.05,0.05 -0.11,0.08 -0.19,0.08l-0.49 0c-0.07,0 -0.14,-0.03 -0.19,-0.08l-0 -0c-0.05,-0.05 -0.08,-0.11 -0.08,-0.19l0 -0.26c0,-0.07 0.03,-0.14 0.08,-0.19 0.05,-0.05 0.11,-0.08 0.19,-0.08zm0.49 0.18l-0.49 0c-0.02,0 -0.04,0.01 -0.06,0.02 -0.02,0.02 -0.02,0.04 -0.02,0.06l0 0.26c0,0.02 0.01,0.04 0.02,0.06l0 0c0.02,0.02 0.04,0.02 0.06,0.02l0.49 0c0.02,0 0.04,-0.01 0.06,-0.02l0 0c0.02,-0.02 0.02,-0.04 0.02,-0.06l0 -0.26c0,-0.02 -0.01,-0.04 -0.02,-0.06l-0 0c-0.02,-0.02 -0.04,-0.02 -0.06,-0.02z"/>
   <path class="fil0" d="M2.44 4.85l0.49 0c0.07,0 0.14,0.03 0.19,0.08l-0 0c0.05,0.05 0.08,0.11 0.08,0.19l0 0.26c0,0.07 -0.03,0.14 -0.08,0.19l0 0c-0.05,0.05 -0.11,0.08 -0.19,0.08l-0.49 0c-0.07,0 -0.14,-0.03 -0.19,-0.08l-0 -0c-0.05,-0.05 -0.08,-0.11 -0.08,-0.19l0 -0.26c0,-0.07 0.03,-0.14 0.08,-0.19l0 -0c0.05,-0.05 0.11,-0.08 0.19,-0.08zm0.49 0.18l-0.49 0c-0.02,0 -0.04,0.01 -0.06,0.02 -0.02,0.02 -0.02,0.04 -0.02,0.06l0 0.26c0,0.02 0.01,0.04 0.02,0.06 0.02,0.02 0.04,0.02 0.06,0.02l0.49 0c0.02,0 0.04,-0.01 0.06,-0.02l0 0c0.02,-0.02 0.02,-0.04 0.02,-0.06l0 -0.26c0,-0.02 -0.01,-0.04 -0.02,-0.06l-0 0c-0.02,-0.02 -0.04,-0.02 -0.06,-0.02z"/>
   <path class="fil0" d="M3.74 4.85l0.49 0c0.07,0 0.14,0.03 0.19,0.08 0.05,0.05 0.08,0.11 0.08,0.19l0 0.26c0,0.07 -0.03,0.14 -0.08,0.19l-0 0c-0.05,0.05 -0.11,0.08 -0.19,0.08l-0.49 0c-0.07,0 -0.14,-0.03 -0.19,-0.08l-0 -0c-0.05,-0.05 -0.08,-0.11 -0.08,-0.19l0 -0.26c0,-0.07 0.03,-0.14 0.08,-0.19 0.05,-0.05 0.11,-0.08 0.19,-0.08zm0.49 0.18l-0.49 0c-0.02,0 -0.04,0.01 -0.06,0.02 -0.02,0.02 -0.02,0.04 -0.02,0.06l0 0.26c0,0.02 0.01,0.04 0.02,0.06l0 0c0.02,0.02 0.04,0.02 0.06,0.02l0.49 0c0.02,0 0.04,-0.01 0.06,-0.02l0 -0c0.02,-0.02 0.02,-0.04 0.02,-0.06l0 -0.26c0,-0.02 -0.01,-0.04 -0.02,-0.06 -0.02,-0.02 -0.04,-0.02 -0.06,-0.02z"/>
  </g>
 </g>
</svg>
