<?xml version="1.0" encoding="UTF-8"?>
<!DOCTYPE svg PUBLIC "-//W3C//DTD SVG 1.1//EN" "http://www.w3.org/Graphics/SVG/1.1/DTD/svg11.dtd">
<!-- Creator: CorelDRAW 2018 (64-Bit) -->
<svg xmlns="http://www.w3.org/2000/svg" xml:space="preserve" width="35.2932mm" height="35.2901mm" version="1.1" style="shape-rendering:geometricPrecision; text-rendering:geometricPrecision; image-rendering:optimizeQuality; fill-rule:evenodd; clip-rule:evenodd"
viewBox="0 0 5.94 5.94"
 xmlns:xlink="http://www.w3.org/1999/xlink">
 <defs>
  <style type="text/css">
   <![CDATA[
    .fil0 {fill:#59656C}
   ]]>
  </style>
 </defs>
 <g id="Слой_x0020_1">
  <metadata id="CorelCorpID_0Corel-Layer"/>
  <g id="_1842295808">
   <path class="fil0" d="M0.18 2.85c0,-0.45 0.17,-0.93 0.4,-1.31 0.17,-0.28 0.38,-0.53 0.63,-0.73 0.1,-0.08 0.19,-0.15 0.3,-0.21 0.04,-0.02 0.07,-0.04 0.11,-0.06 0.15,-0.09 0.31,-0.15 0.48,-0.21 0.45,-0.15 1,-0.19 1.47,-0.07 0.09,0.02 0.18,0.05 0.26,0.07 0.06,0.02 0.21,0.08 0.21,-0.04 0,-0.07 -0.02,-0.09 -0.08,-0.11 -0.12,-0.05 -0.25,-0.08 -0.38,-0.1 -0.63,-0.12 -1.31,-0.06 -1.86,0.22 -0.16,0.08 -0.31,0.16 -0.45,0.26l-0.34 0.28c-0.05,0.04 -0.08,0.09 -0.13,0.14l-0.09 0.09c-0.18,0.19 -0.3,0.42 -0.42,0.65 -0.18,0.35 -0.28,0.79 -0.28,1.26 0,0.63 0.18,1.22 0.53,1.7 0.12,0.16 0.16,0.21 0.29,0.36l0.14 0.14c0.02,0.02 0.03,0.03 0.05,0.04 0.02,0.02 0.03,0.03 0.05,0.04 0.2,0.16 0.28,0.21 0.49,0.33l0.31 0.15c0.33,0.14 0.7,0.21 1.08,0.21 0.6,0 1.05,-0.13 1.5,-0.38l0.22 -0.14c0.11,-0.08 0.29,-0.22 0.4,-0.32l0.14 -0.15c0.02,-0.02 0.02,-0.03 0.04,-0.05 0.11,-0.13 0.21,-0.27 0.3,-0.42 0.12,-0.21 0.2,-0.4 0.28,-0.63 0.15,-0.44 0.17,-0.99 0.08,-1.45 -0.02,-0.09 -0.03,-0.17 -0.06,-0.25 -0.02,-0.07 -0.03,-0.17 -0.13,-0.17 -0.12,0 -0.07,0.14 -0.05,0.2 0.01,0.03 0.01,0.06 0.02,0.09 0.08,0.28 0.08,0.58 0.08,0.88 0,0.48 -0.24,1.09 -0.52,1.46 -0.13,0.17 -0.27,0.33 -0.43,0.48 -0.17,0.15 -0.42,0.33 -0.63,0.42 -0.25,0.11 -0.46,0.19 -0.74,0.24 -0.2,0.03 -0.36,0.03 -0.57,0.03 -0.48,0 -0.96,-0.16 -1.31,-0.38l-0.2 -0.13c-0.13,-0.09 -0.25,-0.19 -0.36,-0.3 -0.22,-0.22 -0.38,-0.46 -0.53,-0.73 -0.01,-0.02 -0.01,-0.03 -0.02,-0.05 -0.06,-0.12 -0.11,-0.24 -0.14,-0.37 -0.1,-0.35 -0.12,-0.57 -0.12,-0.94z"/>
   <path class="fil0" d="M1.44 2.85c0,0.33 0.01,0.5 0.15,0.8 0.04,0.08 0.08,0.15 0.14,0.22 0.05,0.07 0.11,0.13 0.17,0.19 0.25,0.25 0.64,0.43 1.02,0.43 0.33,0 0.64,-0.08 0.88,-0.25 0.04,-0.03 0.07,-0.05 0.11,-0.08l0.1 -0.09c0.09,-0.08 0.14,-0.16 0.21,-0.26 0.15,-0.2 0.26,-0.53 0.26,-0.78 0,-0.11 0.02,-0.16 -0.09,-0.16 -0.06,0 -0.08,0.04 -0.08,0.09 -0,0.15 -0.04,0.32 -0.08,0.45 -0.11,0.32 -0.36,0.59 -0.66,0.75 -0.45,0.24 -1.01,0.19 -1.42,-0.11 -0.43,-0.31 -0.65,-0.88 -0.51,-1.4 0.06,-0.25 0.15,-0.4 0.31,-0.59 0.05,-0.07 0.13,-0.12 0.19,-0.17 0.04,-0.03 0.06,-0.05 0.11,-0.07 0.11,-0.06 0.13,-0.08 0.25,-0.12 0.35,-0.13 0.55,-0.01 0.55,-0.17 0,-0.07 -0.05,-0.09 -0.1,-0.09 -0.31,0 -0.61,0.1 -0.84,0.26 -0.05,0.03 -0.21,0.16 -0.25,0.2 -0.02,0.02 -0.02,0.03 -0.04,0.05 -0.03,0.03 -0.06,0.07 -0.08,0.1 -0.15,0.21 -0.3,0.53 -0.3,0.8z"/>
   <path class="fil0" d="M3.77 1.67c0,-0.04 0,-0.07 0.01,-0.1 0.01,-0.05 0.32,-0.34 0.36,-0.38 0.07,-0.07 0.14,-0.14 0.21,-0.21 0.04,-0.04 0.07,-0.07 0.11,-0.11 0.03,-0.03 0.07,-0.09 0.11,-0.1 0,0.1 0,0.2 0,0.3 0,0.35 -0.09,0.29 0.59,0.29 -0.03,0.05 -0.15,0.16 -0.2,0.21l-0.4 0.4c-0.02,0.02 -0.03,0.03 -0.05,0.05 -0.07,0.07 -0.02,0.04 -0.06,0.07 -0.03,0.02 -0.05,0.05 -0.09,0.05l-0.56 0c0,-0.07 -0.01,-0.1 -0.01,-0.16l0 -0.32zm-0.89 1.29c0,0.06 0.04,0.09 0.09,0.09 0.06,0 0.18,-0.15 0.23,-0.19l0.52 -0.52c0.05,-0.03 0.12,-0.01 0.19,-0.01l0.47 0c0.09,0 0.09,-0.03 0.16,-0.1l0.66 -0.66c0.05,-0.05 0.25,-0.23 0.25,-0.28 0,-0.07 -0.05,-0.09 -0.11,-0.09l-0.6 -0c-0.03,-0.01 -0.02,-0.03 -0.02,-0.08l0 -0.5c0,-0.11 0,-0.14 -0.09,-0.14 -0.05,0 -0.12,0.09 -0.15,0.12l-0.8 0.8c-0.09,0.09 -0.09,0.07 -0.09,0.17 0,0.18 -0,0.35 0,0.53 0,0.14 -0,0.11 -0.08,0.19l-0.53 0.53c-0.03,0.03 -0.12,0.1 -0.12,0.16z"/>
  </g>
 </g>
</svg>
