<?xml version="1.0" encoding="UTF-8"?>
<!DOCTYPE svg PUBLIC "-//W3C//DTD SVG 1.1//EN" "http://www.w3.org/Graphics/SVG/1.1/DTD/svg11.dtd">
<!-- Creator: CorelDRAW 2018 (64-Bit) -->
<svg xmlns="http://www.w3.org/2000/svg" xml:space="preserve" width="25.8239mm" height="41.8631mm" version="1.1" style="shape-rendering:geometricPrecision; text-rendering:geometricPrecision; image-rendering:optimizeQuality; fill-rule:evenodd; clip-rule:evenodd"
viewBox="0 0 3.23 5.23"
 xmlns:xlink="http://www.w3.org/1999/xlink">
 <defs>
  <style type="text/css">
   <![CDATA[
    .fil1 {fill:#59656C}
    .fil0 {fill:#59656C;fill-rule:nonzero}
   ]]>
  </style>
 </defs>
 <g id="Слой_x0020_1">
  <metadata id="CorelCorpID_0Corel-Layer"/>
  <g id="_1963087040">
   <path class="fil0" d="M0.25 0.03l1.64 0.96c0.01,0.01 0.02,0.01 0.04,0.02 0.08,0.04 0.16,0.08 0.16,0.19l0 3.8c0,0.04 -0.01,0.09 -0.04,0.13 -0.02,0.03 -0.04,0.05 -0.06,0.07 -0.03,0.02 -0.06,0.03 -0.09,0.03 -0.02,0 -0.04,-0.01 -0.07,-0.02l-0 0 -1.69 -0.97c-0.04,-0.03 -0.08,-0.05 -0.1,-0.08 -0.03,-0.04 -0.04,-0.08 -0.04,-0.14l0 -3.82c0,-0.04 0.01,-0.07 0.03,-0.1 0.02,-0.03 0.04,-0.05 0.06,-0.06 0.03,-0.02 0.06,-0.03 0.09,-0.03 0.03,0 0.05,0.01 0.08,0.02zm1.58 1.06l-1.64 -0.96c-0.01,-0 -0.01,-0.01 -0.02,-0.01 -0.01,0 -0.01,0 -0.02,0.01 -0.01,0.01 -0.01,0.01 -0.02,0.02 -0.01,0.01 -0.01,0.02 -0.01,0.04l0 3.82c0,0.03 0,0.05 0.01,0.06 0.01,0.02 0.04,0.03 0.07,0.05l1.69 0.97 -0 0c0,0 0,0 0,0 0,0 0.01,-0 0.02,-0.01 0.01,-0.01 0.02,-0.02 0.03,-0.03 0.01,-0.02 0.02,-0.05 0.02,-0.07l0 -3.8c0,-0.04 -0.04,-0.06 -0.09,-0.09 -0.01,-0.01 -0.03,-0.01 -0.04,-0.02z"/>
   <rect class="fil1" x="1.5" y="2.48" width="0.12" height="0.65" rx="0.06" ry="0.06"/>
   <path class="fil0" d="M0.2 0l2.8 0c0.06,0 0.12,0.03 0.16,0.07l0 0c0.04,0.04 0.07,0.1 0.07,0.16l0 3.8c0,0.06 -0.03,0.12 -0.07,0.16 -0.04,0.04 -0.1,0.07 -0.16,0.07l-0.98 0 0 -0.12 0.98 0c0.03,0 0.05,-0.01 0.07,-0.03 0.02,-0.02 0.03,-0.04 0.03,-0.07l0 -3.8c0,-0.03 -0.01,-0.05 -0.03,-0.07 -0.02,-0.02 -0.04,-0.03 -0.07,-0.03l-2.8 0 0 -0.12z"/>
  </g>
 </g>
</svg>
