<?xml version="1.0" encoding="UTF-8"?>
<!DOCTYPE svg PUBLIC "-//W3C//DTD SVG 1.1//EN" "http://www.w3.org/Graphics/SVG/1.1/DTD/svg11.dtd">
<!-- Creator: CorelDRAW 2018 (64-Bit) -->
<svg xmlns="http://www.w3.org/2000/svg" xml:space="preserve" width="45.7206mm" height="35.8984mm" version="1.1" style="shape-rendering:geometricPrecision; text-rendering:geometricPrecision; image-rendering:optimizeQuality; fill-rule:evenodd; clip-rule:evenodd"
viewBox="0 0 10.62 8.34"
 xmlns:xlink="http://www.w3.org/1999/xlink">
 <defs>
  <style type="text/css">
   <![CDATA[
    .fil1 {fill:#59656C}
    .fil3 {fill:#B5BABE}
    .fil2 {fill:#FEFEFE}
    .fil0 {fill:white}
   ]]>
  </style>
 </defs>
 <g id="Слой_x0020_1">
  <metadata id="CorelCorpID_0Corel-Layer"/>
  <path class="fil0" d="M0.6 1.38c0.01,0.11 -0,0.3 -0,0.42l-0.01 6.27 2.21 0 0 -5.31c-0.16,0 -1.26,0.02 -1.31,-0.01 -0.12,-0.01 -0.2,-0.09 -0.24,-0.18 -0.04,-0.09 -0.02,-0.27 -0.02,-0.38 0,-0.2 -0.04,-0.61 0.07,-0.74 0.07,-0.09 0.15,-0.11 0.3,-0.11l1.21 0c0.03,-0.93 -0.97,-1.3 -1.58,-1 -0.13,0.06 -0.25,0.15 -0.33,0.23 -0.14,0.15 -0.34,0.49 -0.3,0.81z"/>
  <path class="fil1" d="M9.55 2.52c0.03,-0.04 0.07,-0.07 0.11,-0.1l0.21 -0.2c0.08,-0.07 0.47,-0.47 0.53,-0.49l0 0.68c-0,0.09 -0.01,0.11 -0.1,0.11l-0.74 -0zm-3.81 -0c0.03,-0.03 0.05,-0.06 0.09,-0.09l0.55 -0.51c0.03,-0.03 0.05,-0.06 0.09,-0.09 0.31,-0.29 0.22,-0.25 0.47,-0.25 0.24,0 0.48,0 0.72,0 -0.08,0.11 -0.18,0.16 -0.26,0.25l-0.64 0.6c-0.03,0.04 -0.07,0.09 -0.14,0.09 -0.22,0 -0.68,0.01 -0.88,-0zm-2.54 0c0.04,-0.03 0.05,-0.05 0.09,-0.09l0.27 -0.26c0.03,-0.03 0.06,-0.05 0.09,-0.08 0.03,-0.03 0.05,-0.06 0.09,-0.09l0.37 -0.35c0.09,-0.1 0.11,-0.08 0.28,-0.08 0.24,0 0.48,0 0.72,0 -0.08,0.11 -0.17,0.16 -0.26,0.25l-0.45 0.43c-0.06,0.06 -0.13,0.11 -0.19,0.18 -0.03,0.04 -0.07,0.09 -0.14,0.09 -0.23,0 -0.67,0.01 -0.88,-0zm-1.74 -0.84c0,-0.13 0.1,-0.1 0.22,-0.1l0.9 0c-0.05,0.07 -0.08,0.09 -0.13,0.14 -0.03,0.02 -0.04,0.04 -0.07,0.06l-0.6 0.57c-0.05,0.04 -0.08,0.09 -0.13,0.13 -0.05,0.05 -0.08,0.07 -0.17,0.03 -0.03,-0.08 -0.01,-0.69 -0.01,-0.83zm7.71 0c0.04,-0.05 0.07,-0.1 0.15,-0.1 0.16,-0 0.75,-0.01 0.87,0 -0.08,0.09 -0.17,0.16 -0.25,0.24l-0.19 0.18c-0.02,0.02 -0.03,0.04 -0.06,0.06l-0.39 0.36c-0.04,0.05 -0.07,0.1 -0.15,0.1 -0.22,0 -0.69,0.01 -0.88,-0l0.89 -0.84zm-1.91 0.6c0.09,-0.08 0.17,-0.16 0.26,-0.24l0.12 -0.12c0.05,-0.04 0.09,-0.07 0.13,-0.12 0.06,-0.05 0.2,-0.22 0.28,-0.22l0.88 0c-0.02,0.04 -0.02,0.03 -0.07,0.07 -0.02,0.02 -0.04,0.03 -0.06,0.06l-0.12 0.12c-0.09,0.08 -0.16,0.16 -0.25,0.23 -0.08,0.08 -0.46,0.46 -0.51,0.46l-0.9 -0 0.25 -0.24zm-2.02 -0.48c0.06,-0.05 0.2,-0.22 0.28,-0.22l0.88 0c-0.02,0.04 -0.05,0.06 -0.1,0.1 -0.03,0.03 -0.05,0.06 -0.09,0.09l-0.74 0.69c-0.03,0.03 -0.05,0.06 -0.11,0.07l-0.88 -0 0.76 -0.72zm-2.54 -0c0.06,-0.05 0.19,-0.22 0.27,-0.22l0.88 0 -0.55 0.53c-0.07,0.07 -0.11,0.11 -0.18,0.17 -0.06,0.06 -0.22,0.24 -0.29,0.25l-0.89 -0 0.76 -0.72zm-1.21 0.95l1.32 0.01 -0 5.33 -2.22 -0c-0.02,-0.09 -0.01,-0.32 -0.01,-0.42 0,-1.01 -0.02,-6.21 0.02,-6.28 -0.04,-0.32 0.16,-0.66 0.3,-0.81 0.07,-0.08 0.2,-0.17 0.33,-0.23 0.61,-0.3 1.61,0.07 1.58,1l-1.21 -0c-0.15,-0 -0.23,0.03 -0.3,0.11 -0.11,0.13 -0.07,0.53 -0.07,0.74 0,0.11 -0.01,0.29 0.02,0.38 0.03,0.08 0.12,0.17 0.24,0.18zm9.13 -0.23l0 -0.94c-0.05,-0.08 -0.02,-0.08 -0.1,-0.16 -0.04,-0.04 -0.09,-0.07 -0.17,-0.08 -0.14,-0.02 -5.66,-0 -6.33,-0 -0.32,0 -0.65,0.01 -0.96,-0 -0.01,-0.24 -0.05,-0.42 -0.16,-0.61 -0.11,-0.2 -0.2,-0.28 -0.34,-0.41 -0.25,-0.22 -0.71,-0.39 -1.16,-0.29 -0.41,0.09 -0.71,0.37 -0.87,0.65 -0.25,0.43 -0.18,0.79 -0.18,1.33 0,1.01 0,2.02 0,3.03 0,0.22 0.01,2.89 -0,3.02 -0.08,0.01 -0.2,-0.01 -0.28,0.02 -0.07,0.03 -0.1,0.14 -0.05,0.2 0.06,0.07 0.42,0.04 0.54,0.04l2.61 0c0.1,0 0.18,0.01 0.23,-0.06 0.05,-0.08 0,-0.15 -0.06,-0.18 -0.07,-0.03 -0.18,-0.02 -0.27,-0.02l0 -5.32c0.63,-0.02 1.3,-0 1.94,-0 0.42,0 5.23,0.01 5.35,-0 0.19,-0.03 0.22,-0.16 0.26,-0.23z"/>
  <path class="fil2" d="M3.21 2.52c0.21,0.01 0.64,0 0.88,0 0.07,0 0.11,-0.05 0.14,-0.09 0.06,-0.07 0.13,-0.12 0.19,-0.18l0.45 -0.43c0.08,-0.09 0.17,-0.14 0.26,-0.25 -0.24,0 -0.48,0 -0.72,0 -0.17,0 -0.19,-0.03 -0.28,0.08l-0.37 0.35c-0.03,0.03 -0.05,0.06 -0.09,0.09 -0.03,0.03 -0.06,0.05 -0.09,0.08l-0.27 0.26c-0.04,0.04 -0.05,0.06 -0.09,0.09z"/>
  <path class="fil2" d="M5.74 2.52c0.2,0.01 0.65,0 0.88,0 0.07,0 0.11,-0.05 0.14,-0.09l0.64 -0.6c0.08,-0.09 0.18,-0.14 0.26,-0.25 -0.24,0 -0.48,0 -0.72,0 -0.26,-0 -0.16,-0.04 -0.47,0.25 -0.03,0.03 -0.05,0.06 -0.09,0.09l-0.55 0.51c-0.03,0.03 -0.05,0.06 -0.09,0.09z"/>
  <path class="fil2" d="M8.28 2.52c0.19,0.01 0.66,0 0.88,0 0.08,0 0.1,-0.05 0.15,-0.1l0.39 -0.36c0.02,-0.02 0.03,-0.04 0.06,-0.06l0.19 -0.18c0.08,-0.09 0.18,-0.15 0.25,-0.24 -0.12,-0.01 -0.71,-0 -0.87,-0 -0.08,0 -0.11,0.05 -0.15,0.1l-0.89 0.84z"/>
  <path class="fil2" d="M7.01 2.52l0.9 0c0.05,0 0.43,-0.39 0.51,-0.46 0.09,-0.08 0.16,-0.16 0.25,-0.23l0.12 -0.12c0.02,-0.02 0.04,-0.04 0.06,-0.06 0.04,-0.04 0.04,-0.03 0.07,-0.07l-0.88 -0c-0.08,0 -0.22,0.17 -0.28,0.22 -0.05,0.04 -0.08,0.07 -0.13,0.12l-0.12 0.12c-0.09,0.08 -0.17,0.16 -0.26,0.24l-0.25 0.24z"/>
  <path class="fil2" d="M4.47 2.52l0.88 0c0.06,-0 0.07,-0.04 0.11,-0.07l0.74 -0.69c0.03,-0.03 0.05,-0.06 0.09,-0.09 0.04,-0.04 0.07,-0.06 0.1,-0.1l-0.88 -0c-0.08,0 -0.22,0.17 -0.28,0.22l-0.76 0.72z"/>
  <path class="fil2" d="M1.94 2.52l0.89 0c0.08,-0 0.23,-0.19 0.29,-0.25 0.07,-0.06 0.11,-0.1 0.18,-0.17l0.55 -0.53 -0.88 -0c-0.08,0 -0.21,0.17 -0.27,0.22l-0.76 0.72z"/>
  <path class="fil2" d="M1.46 1.67c0,0.13 -0.01,0.74 0.01,0.83 0.09,0.04 0.12,0.02 0.17,-0.03 0.05,-0.04 0.08,-0.09 0.13,-0.13l0.6 -0.57c0.03,-0.02 0.04,-0.04 0.07,-0.06 0.05,-0.05 0.09,-0.07 0.13,-0.14l-0.9 0c-0.12,-0 -0.22,-0.03 -0.22,0.1z"/>
  <path class="fil2" d="M9.55 2.52l0.74 0c0.09,0 0.1,-0.03 0.1,-0.11l-0 -0.68c-0.06,0.02 -0.45,0.42 -0.53,0.49l-0.21 0.2c-0.04,0.03 -0.08,0.06 -0.11,0.1z"/>
  <path class="fil3" d="M1.49 2.75c0.05,0.03 1.15,0.01 1.31,0.01l0 5.31 -2.21 0 0.01 -6.27c0,-0.12 0.01,-0.32 0,-0.42 -0.03,0.06 -0.02,5.26 -0.02,6.28 0,0.1 -0.01,0.33 0.01,0.42l2.22 0 0 -5.33 -1.32 -0.01z"/>
 </g>
</svg>
