<?xml version="1.0" encoding="UTF-8"?>
<!DOCTYPE svg PUBLIC "-//W3C//DTD SVG 1.1//EN" "http://www.w3.org/Graphics/SVG/1.1/DTD/svg11.dtd">
<!-- Creator: CorelDRAW 2018 (64-Bit) -->
<svg xmlns="http://www.w3.org/2000/svg" xml:space="preserve" width="48.9363mm" height="28.8105mm" version="1.1" style="shape-rendering:geometricPrecision; text-rendering:geometricPrecision; image-rendering:optimizeQuality; fill-rule:evenodd; clip-rule:evenodd"
viewBox="0 0 12.51 7.37"
 xmlns:xlink="http://www.w3.org/1999/xlink">
 <defs>
  <style type="text/css">
   <![CDATA[
    .fil1 {fill:#59656C}
    .fil0 {fill:#FEFEFE}
   ]]>
  </style>
 </defs>
 <g id="Слой_x0020_1">
  <metadata id="CorelCorpID_0Corel-Layer"/>
  <path class="fil0" d="M5.99 1.32c0.36,-0.04 0.73,-0 1.05,0.11 0.41,0.14 0.62,0.32 0.91,0.59 0.05,0.04 0.1,0.1 0.15,0.15 0.09,0.11 0.16,0.23 0.24,0.36 0.35,0.61 0.39,1.26 0.17,1.93 -0.11,0.32 -0.22,0.52 -0.43,0.76 -0.39,0.47 -0.93,0.76 -1.56,0.83 -0.8,0.09 -1.53,-0.25 -1.96,-0.7 -0.15,-0.16 -0.28,-0.31 -0.39,-0.51 -0.14,-0.27 -0.25,-0.55 -0.29,-0.9 -0.1,-0.78 0.25,-1.53 0.69,-1.95 0.41,-0.4 0.8,-0.61 1.42,-0.68zm0.03 -1.04c-1.63,0.07 -3.09,0.79 -4.18,1.7 -0.32,0.27 -0.64,0.54 -0.92,0.85l-0.14 0.15c-0.04,0.05 -0.09,0.11 -0.14,0.16 -0.11,0.12 -0.31,0.36 -0.38,0.5 -0.06,0.12 0.22,0.4 0.32,0.53 0.04,0.05 0.09,0.11 0.13,0.16 0.03,0.03 0.04,0.05 0.07,0.08 0.11,0.13 0.53,0.55 0.67,0.66 0.03,0.03 0.04,0.04 0.07,0.07 0.03,0.03 0.05,0.04 0.08,0.06l0.49 0.4c1.18,0.9 2.69,1.56 4.39,1.5 1.36,-0.05 2.62,-0.59 3.5,-1.2 0.12,-0.08 0.23,-0.16 0.34,-0.24 0.32,-0.23 0.66,-0.54 0.96,-0.81 0.11,-0.1 0.19,-0.19 0.29,-0.29l0.41 -0.47c0.05,-0.06 0.09,-0.1 0.14,-0.16 0.16,-0.21 0.15,-0.24 0.05,-0.39 -0.08,-0.11 -0.17,-0.22 -0.26,-0.32 -0.29,-0.32 -0.28,-0.34 -0.63,-0.68l-0.15 -0.14c-0.19,-0.19 -0.52,-0.44 -0.73,-0.61 -1.14,-0.9 -2.73,-1.56 -4.39,-1.5z"/>
  <path class="fil0" d="M4.13 3.83c0.07,1.13 1.05,2.06 2.27,1.98 1.12,-0.07 2.06,-1.06 1.97,-2.28 -0.08,-1.1 -1.04,-2.06 -2.26,-1.96 -1.14,0.09 -2.06,1.02 -1.98,2.26z"/>
  <path class="fil1" d="M6.02 0.27c1.65,-0.07 3.24,0.6 4.39,1.5 0.21,0.17 0.54,0.42 0.73,0.61l0.15 0.14c0.35,0.34 0.34,0.36 0.63,0.68 0.09,0.1 0.18,0.21 0.26,0.32 0.1,0.15 0.11,0.18 -0.05,0.39 -0.05,0.06 -0.09,0.11 -0.14,0.16l-0.41 0.47c-0.1,0.11 -0.18,0.2 -0.29,0.29 -0.29,0.27 -0.64,0.58 -0.96,0.81 -0.11,0.08 -0.22,0.16 -0.34,0.24 -0.89,0.61 -2.15,1.14 -3.5,1.2 -1.7,0.07 -3.21,-0.59 -4.39,-1.5l-0.49 -0.4c-0.03,-0.03 -0.05,-0.04 -0.08,-0.06 -0.03,-0.03 -0.04,-0.04 -0.07,-0.07 -0.14,-0.11 -0.56,-0.54 -0.67,-0.66 -0.03,-0.03 -0.04,-0.05 -0.07,-0.08 -0.04,-0.04 -0.09,-0.11 -0.13,-0.16 -0.1,-0.12 -0.38,-0.4 -0.32,-0.53 0.07,-0.15 0.27,-0.38 0.38,-0.5 0.04,-0.05 0.1,-0.11 0.14,-0.16l0.14 -0.15c0.28,-0.31 0.6,-0.58 0.92,-0.85 1.09,-0.91 2.55,-1.63 4.18,-1.7zm6.48 3.5c0.05,-0.18 -0.07,-0.35 -0.15,-0.46 -0.08,-0.12 -0.25,-0.34 -0.35,-0.43l-0.22 -0.24c-0.41,-0.45 -1.15,-1.07 -1.69,-1.42 -1.01,-0.65 -2.23,-1.2 -3.75,-1.22 -1.84,-0.03 -3.29,0.71 -4.55,1.66 -0.22,0.16 -0.34,0.29 -0.51,0.43 -0.18,0.15 -0.36,0.36 -0.47,0.46 -0.09,0.08 -0.43,0.47 -0.51,0.58 -0.03,0.03 -0.05,0.05 -0.07,0.08 -0.37,0.45 -0.27,0.63 0.05,1.02l0.44 0.5c0.06,0.05 0.09,0.11 0.15,0.16 0.18,0.18 0.63,0.58 0.82,0.74 1.21,0.96 2.66,1.71 4.46,1.74 0.76,0.01 1.49,-0.12 2.15,-0.34 0.53,-0.18 1.23,-0.51 1.67,-0.81 0.37,-0.25 0.75,-0.51 1.08,-0.79 0.06,-0.05 0.11,-0.1 0.17,-0.14 0.1,-0.08 0.66,-0.66 0.76,-0.79 0.14,-0.18 0.45,-0.43 0.52,-0.72z"/>
  <path class="fil1" d="M4.13 3.83c-0.08,-1.24 0.85,-2.17 1.98,-2.26 1.21,-0.1 2.17,0.86 2.26,1.96 0.09,1.22 -0.85,2.2 -1.97,2.28 -1.22,0.08 -2.2,-0.85 -2.27,-1.98zm1.86 -2.51c-0.62,0.07 -1.01,0.28 -1.42,0.68 -0.44,0.43 -0.79,1.17 -0.69,1.95 0.04,0.35 0.15,0.63 0.29,0.9 0.11,0.2 0.23,0.35 0.39,0.51 0.43,0.45 1.16,0.79 1.96,0.7 0.63,-0.07 1.17,-0.37 1.56,-0.83 0.21,-0.25 0.32,-0.44 0.43,-0.76 0.22,-0.67 0.19,-1.32 -0.17,-1.93 -0.08,-0.13 -0.15,-0.25 -0.24,-0.36 -0.04,-0.05 -0.1,-0.11 -0.15,-0.15 -0.29,-0.27 -0.5,-0.44 -0.91,-0.59 -0.32,-0.11 -0.69,-0.15 -1.05,-0.11z"/>
 </g>
</svg>
