<?xml version="1.0" encoding="UTF-8"?>
<!DOCTYPE svg PUBLIC "-//W3C//DTD SVG 1.1//EN" "http://www.w3.org/Graphics/SVG/1.1/DTD/svg11.dtd">
<!-- Creator: CorelDRAW 2018 (64-Bit) -->
<svg xmlns="http://www.w3.org/2000/svg" xml:space="preserve" width="41.0809mm" height="33.2879mm" version="1.1" style="shape-rendering:geometricPrecision; text-rendering:geometricPrecision; image-rendering:optimizeQuality; fill-rule:evenodd; clip-rule:evenodd"
viewBox="0 0 8.7 7.05"
 xmlns:xlink="http://www.w3.org/1999/xlink">
 <defs>
  <style type="text/css">
   <![CDATA[
    .fil0 {fill:#59656B}
   ]]>
  </style>
 </defs>
 <g id="Слой_x0020_1">
  <metadata id="CorelCorpID_0Corel-Layer"/>
  <path class="fil0" d="M0.97 3.63c-0,-0.03 -0.01,-0.08 -0.01,-0.14 0.03,-0.89 0.4,-1.7 0.99,-2.29 0.61,-0.61 1.46,-0.99 2.39,-0.99 0.93,0 1.78,0.38 2.39,0.99 0.27,0.27 0.5,0.59 0.66,0.94 0.02,0.03 0.03,0.07 0.05,0.11 0.04,0.08 0.05,0.23 0.16,0.2 0.08,-0.02 0.09,-0.08 0.07,-0.15 -0.02,-0.11 -0.1,-0.28 -0.15,-0.37 -0.17,-0.33 -0.39,-0.63 -0.65,-0.89 -0.65,-0.65 -1.55,-1.05 -2.54,-1.05 -0.99,0 -1.89,0.4 -2.54,1.05 -0.65,0.65 -1.05,1.55 -1.05,2.54l0 0.02 -0.54 -0.52c-0.15,-0.15 -0.29,-0 -0.15,0.14l0.76 0.75c0.02,0.02 0.04,0.03 0.05,0.03 0.01,0 0.03,-0.01 0.05,-0.03l0.77 -0.76c0.1,-0.11 0.01,-0.24 -0.11,-0.17l-0.61 0.58z"/>
  <path class="fil0" d="M7.73 3.42c0,0.03 0.01,0.08 0.01,0.14 -0.03,0.89 -0.4,1.7 -0.99,2.29 -0.61,0.61 -1.46,0.99 -2.39,0.99 -0.93,0 -1.78,-0.38 -2.39,-0.99 -0.27,-0.27 -0.5,-0.59 -0.66,-0.94 -0.02,-0.03 -0.03,-0.07 -0.05,-0.11 -0.04,-0.08 -0.05,-0.23 -0.16,-0.2 -0.08,0.02 -0.09,0.08 -0.07,0.15 0.02,0.11 0.1,0.28 0.15,0.37 0.17,0.33 0.39,0.63 0.65,0.89 0.65,0.65 1.55,1.05 2.54,1.05 0.99,0 1.89,-0.4 2.54,-1.05 0.65,-0.65 1.05,-1.55 1.05,-2.54l-0 -0.02 0.54 0.52c0.15,0.15 0.29,0 0.15,-0.14l-0.76 -0.75c-0.02,-0.02 -0.04,-0.03 -0.05,-0.03 -0.01,-0 -0.03,0.01 -0.05,0.03l-0.77 0.76c-0.1,0.11 -0.01,0.24 0.11,0.17l0.61 -0.58z"/>
  <path class="fil0" d="M4.48 3.33c0.01,-0.44 0.01,-0.9 0,-1.34l-0.01 -1c-0,-0.05 -0,-0.12 -0.01,-0.16 -0.01,-0.05 -0.03,-0.07 -0.09,-0.07 -0.13,-0.01 -0.11,0.11 -0.12,0.22 -0,0.11 -0,0.22 -0,0.33l-0 2.01c0,0.27 0.01,0.23 0.1,0.33l0.12 0.13c0.14,0.12 0.51,0.51 0.68,0.68 0.05,0.05 0.28,0.3 0.36,0.31 0.05,0 0.17,-0.07 0.06,-0.19 -0.06,-0.06 -0.1,-0.12 -0.16,-0.17l-0.16 -0.17c-0.09,-0.09 -0.11,-0.11 -0.17,-0.16 -0.11,-0.11 -0.22,-0.23 -0.34,-0.34 -0.17,-0.17 -0.27,-0.2 -0.27,-0.4z"/>
 </g>
</svg>
