<?xml version="1.0" encoding="UTF-8"?>
<!DOCTYPE svg PUBLIC "-//W3C//DTD SVG 1.1//EN" "http://www.w3.org/Graphics/SVG/1.1/DTD/svg11.dtd">
<!-- Creator: CorelDRAW 2018 (64-Bit) -->
<svg xmlns="http://www.w3.org/2000/svg" xml:space="preserve" width="35.5494mm" height="34.6992mm" version="1.1" style="shape-rendering:geometricPrecision; text-rendering:geometricPrecision; image-rendering:optimizeQuality; fill-rule:evenodd; clip-rule:evenodd"
viewBox="0 0 7.04 6.87"
 xmlns:xlink="http://www.w3.org/1999/xlink">
 <defs>
  <style type="text/css">
   <![CDATA[
    .fil1 {fill:#59656C}
    .fil0 {fill:#59656C;fill-rule:nonzero}
   ]]>
  </style>
 </defs>
 <g id="Слой_x0020_1">
  <metadata id="CorelCorpID_0Corel-Layer"/>
  <g id="_1842335072">
   <path class="fil0" d="M1.4 0.79c0.18,0 0.34,0.07 0.45,0.19 0.12,0.12 0.19,0.28 0.19,0.45 0,0.18 -0.07,0.34 -0.19,0.45 -0.12,0.12 -0.28,0.19 -0.45,0.19 -0.18,0 -0.34,-0.07 -0.45,-0.19 -0.12,-0.12 -0.19,-0.28 -0.19,-0.45 0,-0.18 0.07,-0.34 0.19,-0.45 0.12,-0.12 0.28,-0.19 0.45,-0.19zm0.31 0.33c-0.08,-0.08 -0.19,-0.13 -0.31,-0.13 -0.12,0 -0.23,0.05 -0.31,0.13 -0.08,0.08 -0.13,0.19 -0.13,0.31 0,0.12 0.05,0.23 0.13,0.31 0.08,0.08 0.19,0.13 0.31,0.13 0.12,0 0.23,-0.05 0.31,-0.13 0.08,-0.08 0.13,-0.19 0.13,-0.31 0,-0.12 -0.05,-0.23 -0.13,-0.31z"/>
   <path class="fil0" d="M3.79 2.82l2.97 2.87c0.14,0.16 0.22,0.34 0.26,0.53 0.04,0.18 0.03,0.37 0.02,0.56l-0.01 0.1 -1.74 -0.09 -0.18 -0.58 -0.47 -0.08 -0.23 -0.67 -0.52 -0.05 -0.16 -0.6 -0.46 -0 -0.76 -0.9c-0.07,0.02 -0.15,0.04 -0.22,0.05 -0.1,0.01 -0.19,0.02 -0.29,0.02 -0.55,0 -1.05,-0.22 -1.4,-0.58 -0.36,-0.36 -0.58,-0.86 -0.58,-1.4 0,-0.55 0.22,-1.05 0.58,-1.4 0.36,-0.36 0.86,-0.58 1.4,-0.58 0.55,0 1.05,0.22 1.4,0.58 0.36,0.36 0.58,0.86 0.58,1.4 0,0.16 -0.02,0.31 -0.05,0.46 -0.03,0.13 -0.07,0.25 -0.13,0.37zm2.82 3l-2.99 -2.89 -0.09 -0.03 0.05 -0.1c0.06,-0.12 0.11,-0.25 0.14,-0.39 0.03,-0.13 0.05,-0.27 0.05,-0.42 0,-0.49 -0.2,-0.94 -0.52,-1.26 -0.32,-0.32 -0.77,-0.52 -1.26,-0.52 -0.49,0 -0.94,0.2 -1.26,0.52 -0.32,0.32 -0.52,0.77 -0.52,1.26 0,0.49 0.2,0.94 0.52,1.26 0.32,0.32 0.77,0.52 1.26,0.52 0.09,0 0.18,-0.01 0.26,-0.02 0.09,-0.01 0.17,-0.03 0.26,-0.06l0.06 -0.02 0.78 0.92 0.52 0 0.16 0.61 0.51 0.05 0.23 0.68 0.47 0.08 0.18 0.56 1.41 0.08c0.01,-0.14 0,-0.28 -0.02,-0.41 -0.03,-0.16 -0.09,-0.3 -0.21,-0.44z"/>
   <rect class="fil1" transform="matrix(0.632012 0.632931 -0.502247 0.501517 3.25362 3.19765)" width="4.79" height="0.25" rx="0.12" ry="0.12"/>
  </g>
 </g>
</svg>
