<?xml version="1.0" encoding="UTF-8"?>
<!DOCTYPE svg PUBLIC "-//W3C//DTD SVG 1.1//EN" "http://www.w3.org/Graphics/SVG/1.1/DTD/svg11.dtd">
<!-- Creator: CorelDRAW 2018 (64-Bit) -->
<svg xmlns="http://www.w3.org/2000/svg" xml:space="preserve" width="36.6069mm" height="36.6069mm" version="1.1" style="shape-rendering:geometricPrecision; text-rendering:geometricPrecision; image-rendering:optimizeQuality; fill-rule:evenodd; clip-rule:evenodd"
viewBox="0 0 21.34 21.34"
 xmlns:xlink="http://www.w3.org/1999/xlink">
 <defs>
  <style type="text/css">
   <![CDATA[
    .fil2 {fill:#55ADAD}
    .fil0 {fill:white}
    .fil1 {fill:#59656C;fill-rule:nonzero}
   ]]>
  </style>
 </defs>
 <g id="Слой_x0020_1">
  <metadata id="CorelCorpID_0Corel-Layer"/>
  <g id="_2023679504">
   <rect class="fil0" x="0.29" y="0.29" width="20.76" height="20.76" rx="2.08" ry="2.08"/>
   <g>
    <path class="fil1" d="M2.37 0l16.6 0c0.65,0 1.25,0.27 1.68,0.7 0.43,0.43 0.7,1.02 0.7,1.68l0 16.6c0,0.65 -0.27,1.25 -0.7,1.68 -0.43,0.43 -1.02,0.7 -1.68,0.7l-16.6 0c-0.65,0 -1.25,-0.27 -1.68,-0.7 -0.43,-0.43 -0.7,-1.02 -0.7,-1.68l0 -16.6c0,-0.65 0.27,-1.25 0.7,-1.68 0.43,-0.43 1.02,-0.7 1.68,-0.7zm16.6 0.58l-16.6 0c-0.49,0 -0.94,0.2 -1.26,0.53 -0.32,0.32 -0.53,0.77 -0.53,1.26l0 16.6c0,0.49 0.2,0.94 0.53,1.26 0.32,0.32 0.77,0.53 1.26,0.53l16.6 0c0.49,0 0.94,-0.2 1.26,-0.53 0.32,-0.32 0.53,-0.77 0.53,-1.26l0 -16.6c0,-0.49 -0.2,-0.94 -0.53,-1.26 -0.32,-0.32 -0.77,-0.53 -1.26,-0.53z"/>
    <path class="fil1" d="M15.77 16.04c0,-0.17 0,-0.48 0.01,-0.76 0.01,-0.99 0.02,-1.5 -0.2,-1.83 -0.24,-0.36 -0.84,-0.61 -2.1,-1.13l-0.28 -0.12c-0.08,-0.03 -0.17,-0.08 -0.27,-0.13 -0.3,-0.15 -0.72,-0.36 -0.82,-0.29l-0.03 0.02c-0.71,0.5 -1.3,0.9 -2.49,0.22 -0.14,-0.08 -0.22,-0.15 -0.29,-0.21 -0.12,-0.1 -0.13,-0.11 -1.44,0.5 -0.35,0.17 -0.66,0.3 -0.92,0.41 -1.33,0.57 -1.36,0.59 -1.36,2.76 -0,0.07 -0,0.14 -0,0.2 -0,0.1 -0,0.2 -0,0.29 0,0.07 0.04,0.07 0.37,0.06 0.16,-0 0.36,-0.01 0.51,-0.01l0 0 8.88 0c0.07,0 0.13,0 0.18,0.01 0.05,0 0.1,0.01 0.16,0.01 0.05,0 0.09,-0 0.09,-0.01zm0.59 -0.76c-0,0.17 -0,0.37 -0,0.76 0,0.51 -0.3,0.59 -0.68,0.59 -0.05,0 -0.12,-0 -0.19,-0.01 -0.06,-0 -0.12,-0.01 -0.16,-0.01l-8.88 -0 0 0c-0.25,0 -0.39,0 -0.5,0.01 -0.85,0.02 -0.94,0.02 -0.96,-0.62 -0,-0.1 -0,-0.21 0,-0.32 0,-0.07 0,-0.13 0,-0.19 0,-2.56 0.04,-2.57 1.71,-3.29 0.26,-0.11 0.55,-0.24 0.91,-0.4 1.63,-0.76 1.66,-0.74 2.05,-0.43 0.05,0.04 0.12,0.1 0.22,0.15 0.87,0.5 1.32,0.19 1.87,-0.19l0.03 -0.02c0.38,-0.27 0.98,0.03 1.41,0.24 0.09,0.05 0.17,0.09 0.24,0.11l0.28 0.12c1.36,0.57 2.02,0.84 2.36,1.35 0.32,0.47 0.31,1.05 0.3,2.15z"/>
    <path class="fil1" d="M10.67 4.31c0.82,0 1.56,0.38 2.09,1 0.52,0.6 0.85,1.44 0.85,2.35 0,0.92 -0.32,1.75 -0.85,2.35 -0.53,0.62 -1.27,1 -2.09,1 -0.82,0 -1.56,-0.38 -2.09,-1 -0.52,-0.6 -0.85,-1.44 -0.85,-2.35 0,-0.92 0.32,-1.75 0.85,-2.35 0.53,-0.62 1.27,-1 2.09,-1zm1.65 1.38c-0.42,-0.49 -1.01,-0.8 -1.65,-0.8 -0.64,0 -1.23,0.3 -1.65,0.8 -0.43,0.5 -0.7,1.2 -0.7,1.97 0,0.77 0.27,1.47 0.7,1.97 0.42,0.49 1.01,0.8 1.65,0.8 0.64,0 1.23,-0.3 1.65,-0.8 0.43,-0.5 0.7,-1.2 0.7,-1.97 0,-0.77 -0.27,-1.47 -0.7,-1.97z"/>
   </g>
   <g>
    <path class="fil2" d="M13.24 10.82l2.05 0 0 -2.05c0,-0.11 0.09,-0.21 0.21,-0.21l0 0c0.11,0 0.21,0.09 0.21,0.21l0 2.26 0 0 -0 0.01 -0 0.01 -0 0.01 -0 0.01 -0 0.01 -0 0.01 -0 0.01 -0 0.01 -0 0.01c-0,0 -0,0.01 -0,0.01l-0 0c-0,0 -0,0.01 -0.01,0.01l-0 0c-0,0 -0,0.01 -0,0.01 -0,0.01 -0.01,0.01 -0.01,0.02 -0.03,0.05 -0.09,0.09 -0.15,0.1l-0.01 0c-0,0 -0.01,0 -0.01,0l-0.01 0 -0.01 0 -2.26 0c-0.11,0 -0.21,-0.09 -0.21,-0.21l0 0c0,-0.11 0.09,-0.21 0.21,-0.21z"/>
    <path class="fil2" d="M13.24 3.91l2.05 0 0 2.05c0,0.11 0.09,0.21 0.21,0.21l0 0c0.11,0 0.21,-0.09 0.21,-0.21l0 -2.26 0 0 -0 -0.01 -0 -0.01 -0 -0.01 -0 -0.01 -0 -0.01 -0 -0.01 -0 -0.01 -0 -0.01 -0 -0.01c-0,-0 -0,-0.01 -0,-0.01l-0 -0c-0,-0 -0,-0.01 -0.01,-0.01l-0 -0c-0,-0 -0,-0.01 -0,-0.01 -0,-0.01 -0.01,-0.01 -0.01,-0.02 -0.03,-0.05 -0.09,-0.09 -0.15,-0.1l-0.01 -0c-0,-0 -0.01,-0 -0.01,-0l-0.01 -0 -0.01 -0 -2.26 0c-0.11,0 -0.21,0.09 -0.21,0.21l0 0c0,0.11 0.09,0.21 0.21,0.21z"/>
    <g>
     <path class="fil2" d="M8.1 10.82l-2.05 0 0 -2.05c0,-0.11 -0.09,-0.21 -0.21,-0.21l0 0c-0.11,0 -0.21,0.09 -0.21,0.21l0 2.26 0 0 0 0.01 0 0.01 0 0.01 0 0.01 0 0.01 0 0.01 0 0.01 0 0.01 0 0.01c0,0 0,0.01 0,0.01l0 0c0,0 0,0.01 0.01,0.01l0 0c0,0 0,0.01 0,0.01 0,0.01 0.01,0.01 0.01,0.02 0.03,0.05 0.09,0.09 0.15,0.1l0.01 0c0,0 0.01,0 0.01,0l0.01 0 0.01 0 2.26 0c0.11,0 0.21,-0.09 0.21,-0.21l0 0c0,-0.11 -0.09,-0.21 -0.21,-0.21z"/>
     <path class="fil2" d="M8.1 3.91l-2.05 0 0 2.05c0,0.11 -0.09,0.21 -0.21,0.21l0 0c-0.11,0 -0.21,-0.09 -0.21,-0.21l0 -2.26 0 0 0 -0.01 0 -0.01 0 -0.01 0 -0.01 0 -0.01 0 -0.01 0 -0.01 0 -0.01 0 -0.01c0,-0 0,-0.01 0,-0.01l0 -0c0,-0 0,-0.01 0.01,-0.01l0 -0c0,-0 0,-0.01 0,-0.01 0,-0.01 0.01,-0.01 0.01,-0.02 0.03,-0.05 0.09,-0.09 0.15,-0.1l0.01 -0c0,-0 0.01,-0 0.01,-0l0.01 -0 0.01 -0 2.26 0c0.11,0 0.21,0.09 0.21,0.21l0 0c0,0.11 -0.09,0.21 -0.21,0.21z"/>
    </g>
   </g>
  </g>
 </g>
</svg>
