<?xml version="1.0" encoding="UTF-8"?>
<!DOCTYPE svg PUBLIC "-//W3C//DTD SVG 1.1//EN" "http://www.w3.org/Graphics/SVG/1.1/DTD/svg11.dtd">
<!-- Creator: CorelDRAW 2018 (64-Bit) -->
<svg xmlns="http://www.w3.org/2000/svg" xml:space="preserve" width="42.0743mm" height="30.5994mm" version="1.1" style="shape-rendering:geometricPrecision; text-rendering:geometricPrecision; image-rendering:optimizeQuality; fill-rule:evenodd; clip-rule:evenodd"
viewBox="0 0 28.17 20.49"
 xmlns:xlink="http://www.w3.org/1999/xlink">
 <defs>
  <style type="text/css">
   <![CDATA[
    .fil0 {fill:#55ADAD}
    .fil1 {fill:#59656C}
    .fil2 {fill:white;fill-rule:nonzero}
   ]]>
  </style>
 </defs>
 <g id="Слой_x0020_1">
  <metadata id="CorelCorpID_0Corel-Layer"/>
  <g id="_1280500048">
   <path class="fil0" d="M20 20.01l2.36 0 0 -2.36c0,-0.13 0.11,-0.24 0.24,-0.24l0 0c0.13,0 0.24,0.11 0.24,0.24l0 2.59 0 0 -0 0.01 -0 0.01 -0 0.01 -0 0.01 -0 0.01 -0 0.01 -0 0.01 -0 0.01 -0 0.01c-0,0 -0,0.01 -0,0.01l-0 0.01c-0,0.01 -0,0.01 -0.01,0.02l-0 0.01c-0,0 -0,0.01 -0,0.01 -0,0.01 -0.01,0.01 -0.01,0.02 -0.04,0.06 -0.1,0.1 -0.17,0.11l-0.01 0c-0,0 -0.01,0 -0.01,0l-0.01 0 -0.01 0 -2.59 0c-0.13,0 -0.24,-0.11 -0.24,-0.24l0 0c0,-0.13 0.11,-0.24 0.24,-0.24z"/>
   <path class="fil0" d="M20 0.47l2.36 0 0 2.36c0,0.13 0.11,0.24 0.24,0.24l0 0c0.13,0 0.24,-0.11 0.24,-0.24l0 -2.59 0 0 -0 -0.01 -0 -0.01 -0 -0.01 -0 -0.01 -0 -0.01 -0 -0.01 -0 -0.01 -0 -0.01 -0 -0.01c-0,-0 -0,-0.01 -0,-0.01l-0 -0.01c-0,-0.01 -0,-0.01 -0.01,-0.02l-0 -0.01c-0,-0 -0,-0.01 -0,-0.01 -0,-0.01 -0.01,-0.01 -0.01,-0.02 -0.04,-0.06 -0.1,-0.1 -0.17,-0.11l-0.01 -0c-0,-0 -0.01,-0 -0.01,-0l-0.01 -0 -0.01 -0 -2.59 0c-0.13,0 -0.24,0.11 -0.24,0.24l0 0c0,0.13 0.11,0.24 0.24,0.24z"/>
   <path class="fil0" d="M8.17 20.01l-2.36 0 0 -2.36c0,-0.13 -0.11,-0.24 -0.24,-0.24l0 0c-0.13,0 -0.24,0.11 -0.24,0.24l0 2.59 0 0 0 0.01 0 0.01 0 0.01 0 0.01 0 0.01 0 0.01 0 0.01 0 0.01 0 0.01c0,0 0,0.01 0,0.01l0 0.01c0,0.01 0,0.01 0.01,0.02l0 0.01c0,0 0,0.01 0,0.01 0,0.01 0.01,0.01 0.01,0.02 0.04,0.06 0.1,0.1 0.17,0.11l0.01 0c0,0 0.01,0 0.01,0l0.01 0 0.01 0 2.59 0c0.13,0 0.24,-0.11 0.24,-0.24l0 0c0,-0.13 -0.11,-0.24 -0.24,-0.24z"/>
   <path class="fil0" d="M8.17 0.47l-2.36 0 0 2.36c0,0.13 -0.11,0.24 -0.24,0.24l0 0c-0.13,0 -0.24,-0.11 -0.24,-0.24l0 -2.59 0 0 0 -0.01 0 -0.01 0 -0.01 0 -0.01 0 -0.01 0 -0.01 0 -0.01 0 -0.01 0 -0.01c0,-0 0,-0.01 0,-0.01l0 -0.01c0,-0.01 0,-0.01 0.01,-0.02l0 -0.01c0,-0 0,-0.01 0,-0.01 0,-0.01 0.01,-0.01 0.01,-0.02 0.04,-0.06 0.1,-0.1 0.17,-0.11l0.01 -0c0,-0 0.01,-0 0.01,-0l0.01 -0 0.01 -0 2.59 0c0.13,0 0.24,0.11 0.24,0.24l0 0c0,0.13 -0.11,0.24 -0.24,0.24z"/>
   <path class="fil1" d="M1.73 10.24c0.12,-0.23 0.37,-0.5 0.53,-0.69 1.15,-1.42 2.94,-2.99 4.46,-3.93 4.79,-3 9.95,-3 14.75,0 1.1,0.69 3.05,2.27 3.91,3.3 0.23,0.27 0.93,1.05 1.07,1.32 -0.12,0.23 -0.37,0.5 -0.53,0.69 -1.15,1.42 -2.94,2.99 -4.46,3.93 -4.79,3 -9.95,3 -14.75,0 -1.46,-0.92 -3.37,-2.56 -4.48,-3.96 -0.16,-0.21 -0.39,-0.42 -0.51,-0.67zm-1.38 0.18c0.09,0.69 1.26,1.85 1.74,2.4 0.2,0.23 0.44,0.47 0.67,0.68 6.42,6.08 14.34,6.81 21.39,1.12 1.33,-1.08 1.73,-1.57 2.76,-2.74 0.34,-0.38 1.01,-1.05 0.92,-1.81 -0.1,-0.76 -1.77,-2.48 -2.41,-3.09 -6.42,-6.08 -14.34,-6.81 -21.39,-1.12 -0.53,0.42 -1,0.84 -1.45,1.3 -0.24,0.24 -0.45,0.49 -0.69,0.71 -0.24,0.23 -0.41,0.49 -0.63,0.73 -0.34,0.38 -1.02,1.06 -0.92,1.82z"/>
   <path class="fil2" d="M1.43 10.09c0.1,-0.21 0.28,-0.41 0.43,-0.59 0.05,-0.06 0.09,-0.11 0.13,-0.16 0.58,-0.72 1.31,-1.46 2.09,-2.15 0.81,-0.71 1.66,-1.36 2.45,-1.85 2.45,-1.53 5,-2.3 7.55,-2.3 2.55,0 5.1,0.77 7.55,2.3 0.6,0.37 1.43,1 2.21,1.66 0.7,0.59 1.36,1.21 1.78,1.71 0.04,0.05 0.13,0.15 0.22,0.26 0.31,0.36 0.76,0.87 0.89,1.13l0.07 0.15 -0.07 0.15c-0.1,0.21 -0.28,0.41 -0.43,0.59 -0.05,0.06 -0.09,0.11 -0.13,0.16 -0.58,0.72 -1.31,1.46 -2.09,2.15 -0.81,0.71 -1.66,1.36 -2.45,1.85 -2.45,1.53 -5,2.3 -7.55,2.3 -2.55,0 -5.1,-0.77 -7.55,-2.3 -0.77,-0.48 -1.66,-1.16 -2.49,-1.89 -0.79,-0.7 -1.53,-1.45 -2.07,-2.14 -0.05,-0.07 -0.1,-0.12 -0.15,-0.18 -0.14,-0.16 -0.29,-0.33 -0.39,-0.54l-0.07 -0.15 0.07 -0.15zm0.94 -0.16c-0.09,0.1 -0.18,0.21 -0.25,0.31 0.06,0.09 0.14,0.17 0.21,0.26 0.06,0.07 0.12,0.14 0.17,0.2 0.52,0.67 1.23,1.39 1.99,2.06 0.8,0.71 1.66,1.36 2.4,1.83 2.34,1.47 4.77,2.2 7.2,2.2 2.43,0 4.85,-0.73 7.2,-2.2 0.76,-0.47 1.58,-1.1 2.36,-1.78 0.75,-0.67 1.46,-1.39 2.02,-2.07 0.04,-0.05 0.09,-0.11 0.15,-0.17 0.08,-0.1 0.18,-0.21 0.25,-0.31 -0.16,-0.22 -0.47,-0.58 -0.7,-0.84 -0.09,-0.1 -0.16,-0.19 -0.23,-0.27 -0.39,-0.47 -1.03,-1.06 -1.7,-1.63 -0.76,-0.64 -1.56,-1.24 -2.14,-1.6 -2.34,-1.47 -4.77,-2.2 -7.2,-2.2 -2.43,0 -4.86,0.73 -7.2,2.2 -0.76,0.47 -1.58,1.1 -2.36,1.78 -0.75,0.67 -1.46,1.39 -2.02,2.07 -0.04,0.05 -0.09,0.11 -0.15,0.17zm-1.69 0.45c0.06,0.47 0.85,1.33 1.37,1.9 0.12,0.13 0.22,0.24 0.29,0.32 0.1,0.11 0.2,0.22 0.31,0.33 0.11,0.11 0.22,0.22 0.34,0.33 3.19,3.03 6.76,4.7 10.39,4.89 3.54,0.18 7.15,-1.04 10.56,-3.79 1.17,-0.94 1.6,-1.43 2.41,-2.34l0.31 -0.35c0.07,-0.08 0.01,-0.01 0.09,-0.1 0.31,-0.35 0.82,-0.9 0.75,-1.45 -0.03,-0.23 -0.28,-0.62 -0.62,-1.05 -0.55,-0.71 -1.31,-1.47 -1.69,-1.84 -3.19,-3.03 -6.76,-4.7 -10.39,-4.89 -3.54,-0.18 -7.15,1.04 -10.56,3.79 -0.25,0.21 -0.5,0.41 -0.74,0.63 -0.24,0.21 -0.47,0.43 -0.69,0.65 -0.1,0.1 -0.2,0.21 -0.3,0.31 -0.13,0.14 -0.25,0.27 -0.39,0.4 -0.14,0.13 -0.25,0.27 -0.37,0.42 -0.08,0.1 -0.16,0.2 -0.24,0.29l-0.09 0.1 -0 -0c-0.31,0.35 -0.82,0.91 -0.75,1.46zm0.87 2.35c-0.58,-0.63 -1.45,-1.58 -1.54,-2.26 -0.11,-0.86 0.52,-1.56 0.92,-1.99l0 -0 0.08 -0.09c0.08,-0.09 0.15,-0.18 0.22,-0.26 0.13,-0.16 0.26,-0.32 0.42,-0.48 0.12,-0.12 0.24,-0.25 0.36,-0.38 0.1,-0.11 0.2,-0.22 0.32,-0.33 0.24,-0.24 0.47,-0.46 0.71,-0.67 0.24,-0.21 0.5,-0.43 0.77,-0.65 3.55,-2.86 7.31,-4.13 11.01,-3.94 3.79,0.2 7.5,1.94 10.82,5.07 0.4,0.38 1.18,1.17 1.76,1.91 0.4,0.51 0.71,1.01 0.75,1.38 0.11,0.85 -0.52,1.55 -0.92,1.98 -0.02,0.02 0.04,-0.05 -0.08,0.09l-0.31 0.35c-0.83,0.94 -1.28,1.45 -2.49,2.42 -3.55,2.86 -7.31,4.13 -11.01,3.94 -3.79,-0.2 -7.5,-1.94 -10.82,-5.07 -0.11,-0.11 -0.23,-0.22 -0.35,-0.34 -0.12,-0.12 -0.23,-0.24 -0.34,-0.36 -0.09,-0.1 -0.18,-0.2 -0.28,-0.31z"/>
   <path class="fil1" d="M13.61 6.15c2.4,-0.31 4.32,1.51 4.57,3.62 0.28,2.41 -1.54,4.33 -3.6,4.56 -2.43,0.27 -4.34,-1.49 -4.59,-3.62 -0.14,-1.25 0.33,-2.44 0.94,-3.13 0.62,-0.7 1.41,-1.27 2.68,-1.43zm5.93 4.77c0.29,-1.61 -0.48,-3.29 -1.22,-4.19 -0.22,-0.27 -0.45,-0.47 -0.7,-0.7 -0.22,-0.21 -0.5,-0.38 -0.8,-0.56 -1.96,-1.19 -4.72,-0.84 -6.25,0.54 -0.96,0.86 -1.67,1.8 -1.95,3.55 -0.25,1.59 0.45,3.33 1.22,4.19 0.84,0.94 1.82,1.69 3.54,1.94 1.62,0.24 3.33,-0.44 4.2,-1.22 1.01,-0.91 1.62,-1.75 1.94,-3.56z"/>
   <path class="fil2" d="M13.57 5.82l0.06 -0.01c1.27,-0.15 2.42,0.26 3.28,0.98 0.86,0.72 1.44,1.76 1.59,2.88l0 0c0,0.02 0.01,0.06 0.01,0.08 0.14,1.29 -0.27,2.46 -1,3.33 -0.73,0.87 -1.77,1.45 -2.88,1.58l-0.02 0c-1.27,0.14 -2.41,-0.23 -3.28,-0.92 -0.92,-0.73 -1.54,-1.81 -1.68,-3 -0.07,-0.63 0,-1.25 0.17,-1.81 0.19,-0.63 0.5,-1.18 0.86,-1.58 0.33,-0.37 0.71,-0.71 1.18,-0.98 0.47,-0.27 1.03,-0.47 1.71,-0.56l0 -0zm0.14 0.66l-0.06 0.01 -0 -0c-0.59,0.08 -1.06,0.25 -1.46,0.47 -0.4,0.23 -0.72,0.52 -1.01,0.85 -0.29,0.33 -0.55,0.79 -0.72,1.33 -0.14,0.47 -0.21,1 -0.14,1.54 0.12,1.01 0.64,1.93 1.43,2.55 0.74,0.58 1.71,0.9 2.8,0.78l0.02 -0c0.94,-0.11 1.82,-0.6 2.44,-1.34 0.62,-0.74 0.97,-1.73 0.85,-2.83l-0.01 -0.07 0 -0c-0.12,-0.95 -0.62,-1.83 -1.35,-2.45 -0.73,-0.61 -1.7,-0.96 -2.77,-0.83zm5.5 4.38c0.12,-0.66 0.04,-1.34 -0.14,-1.97 -0.23,-0.79 -0.62,-1.48 -1.01,-1.95 -0.17,-0.2 -0.34,-0.36 -0.53,-0.54l-0.14 -0.13c-0.1,-0.09 -0.21,-0.18 -0.33,-0.26 -0.11,-0.08 -0.26,-0.17 -0.41,-0.26 -0.9,-0.54 -1.98,-0.74 -3.01,-0.65 -1.08,0.09 -2.11,0.5 -2.84,1.15 -0.45,0.41 -0.85,0.83 -1.16,1.36 -0.31,0.53 -0.55,1.16 -0.67,1.99 -0.11,0.68 -0.02,1.4 0.17,2.05 0.22,0.76 0.59,1.44 0.98,1.87 0.4,0.45 0.83,0.85 1.36,1.16 0.53,0.32 1.16,0.55 1.98,0.67 0.7,0.1 1.42,0.02 2.08,-0.17 0.76,-0.22 1.42,-0.58 1.85,-0.97 0.48,-0.43 0.87,-0.85 1.16,-1.36 0.3,-0.52 0.52,-1.15 0.67,-2l-0 -0zm0.5 -2.15c0.21,0.72 0.3,1.5 0.16,2.27l-0 0c-0.17,0.94 -0.41,1.64 -0.75,2.22 -0.34,0.58 -0.77,1.05 -1.3,1.52 -0.5,0.45 -1.26,0.87 -2.11,1.12 -0.74,0.22 -1.56,0.31 -2.36,0.19 -0.91,-0.13 -1.62,-0.4 -2.22,-0.76 -0.6,-0.36 -1.08,-0.8 -1.52,-1.29 -0.45,-0.5 -0.87,-1.26 -1.12,-2.13 -0.22,-0.74 -0.31,-1.56 -0.19,-2.34 0.14,-0.92 0.41,-1.63 0.76,-2.23 0.35,-0.59 0.79,-1.07 1.29,-1.52 0.84,-0.75 2.01,-1.22 3.23,-1.32 1.17,-0.1 2.39,0.13 3.41,0.75 0.14,0.09 0.28,0.17 0.44,0.28 0.15,0.1 0.29,0.21 0.41,0.32l0.14 0.13c0.2,0.19 0.4,0.37 0.59,0.6 0.43,0.53 0.88,1.31 1.13,2.19z"/>
  </g>
 </g>
</svg>
