<?xml version="1.0" encoding="UTF-8"?>
<!DOCTYPE svg PUBLIC "-//W3C//DTD SVG 1.1//EN" "http://www.w3.org/Graphics/SVG/1.1/DTD/svg11.dtd">
<!-- Creator: CorelDRAW 2018 (64-Bit) -->
<svg xmlns="http://www.w3.org/2000/svg" xml:space="preserve" width="40.2009mm" height="40.0169mm" version="1.1" style="shape-rendering:geometricPrecision; text-rendering:geometricPrecision; image-rendering:optimizeQuality; fill-rule:evenodd; clip-rule:evenodd"
viewBox="0 0 26.93 26.81"
 xmlns:xlink="http://www.w3.org/1999/xlink">
 <defs>
  <style type="text/css">
   <![CDATA[
    .fil1 {fill:#55ADAD}
    .fil0 {fill:#59656C;fill-rule:nonzero}
   ]]>
  </style>
 </defs>
 <g id="Слой_x0020_1">
  <metadata id="CorelCorpID_0Corel-Layer"/>
  <path class="fil0" d="M11.45 25.74c0.05,0.18 0.15,0.3 0.27,0.35l0 0c0.05,0.02 0.09,0.04 0.14,0.04 0.05,0 0.1,-0 0.14,-0.01 0.09,-0.03 0.17,-0.09 0.23,-0.19 0.21,-1.09 0.3,-2.38 0.25,-3.54 -0.04,-1.06 -0.2,-2.01 -0.49,-2.57l-0 -0c-0.11,-0.22 -0.35,-0.64 -0.63,-1.11 -0.6,-1.03 -1.35,-2.31 -1.39,-2.76 -0.03,-0.38 0.06,-1.69 0.18,-2.91 0.11,-1.14 0.26,-2.22 0.37,-2.45l0.16 -0.33 0.31 0.19c0.47,0.29 0.87,0.69 1.27,1.08 0.4,0.39 0.8,0.78 1.22,1.01 0.14,0.08 1.08,0.28 2.05,0.36 0.47,0.04 0.94,0.04 1.3,-0.02 0.27,-0.05 0.46,-0.12 0.5,-0.23 0.01,-0.02 0.01,-0.04 0.01,-0.07 -0.02,-0.24 -0.68,-0.39 -1.52,-0.59 -0.75,-0.18 -1.63,-0.39 -2.43,-0.8l-0.07 -0.04 -0.05 -0.07c-0.52,-0.74 -0.99,-1.36 -1.39,-1.83 -0.37,-0.45 -0.66,-0.76 -0.85,-0.89l-0 0c-0.31,-0.22 -1.27,-0.46 -2.26,-0.6 -0.91,-0.13 -1.82,-0.18 -2.21,-0.05 -0.53,0.17 -1.04,0.29 -1.53,0.39 -1.03,0.23 -1.92,0.43 -2.46,1.16 -0.18,0.25 -0.31,0.41 -0.43,0.57 -0.27,0.36 -0.54,0.72 -0.81,1.1 -0.24,0.33 -0.48,0.68 -0.59,0.99 -0.08,0.22 -0.1,0.42 0.04,0.55 0.13,0.13 0.41,-0.08 0.72,-0.41 0.29,-0.3 0.58,-0.68 0.86,-1.05l-0 -0c0.49,-0.64 0.95,-1.24 1.36,-1.4 0.13,-0.05 1.24,-0.29 2.16,-0.39 0.57,-0.06 1.08,-0.08 1.32,0.03l0.14 0.07 0.04 0.16c0.15,0.58 -0.02,1.79 -0.16,2.81 -0.06,0.41 -0.11,0.79 -0.13,1.08 -0.02,0.22 -0.04,0.45 -0.06,0.68 -0.11,1.02 -0.18,1.73 0.45,2.6 0.39,0.55 0.93,1.13 1.42,1.67 0.15,0.16 0.3,0.32 0.48,0.53 1.66,1.87 1.68,2.98 1.71,4.33 0.02,0.72 0.03,1.52 0.35,2.57l0 0zm-0.03 0.95c-0.27,-0.13 -0.5,-0.39 -0.61,-0.76 -0.34,-1.13 -0.36,-1.98 -0.38,-2.75 -0.03,-1.21 -0.05,-2.21 -1.54,-3.9 -0.12,-0.13 -0.29,-0.32 -0.47,-0.52 -0.5,-0.55 -1.04,-1.15 -1.47,-1.73 -0.78,-1.09 -0.7,-1.89 -0.58,-3.06 0.02,-0.2 0.04,-0.4 0.06,-0.66 0.02,-0.28 0.08,-0.68 0.14,-1.12 0.12,-0.84 0.25,-1.83 0.2,-2.36 -0.18,-0.01 -0.48,0.01 -0.82,0.05 -0.87,0.1 -1.88,0.31 -1.98,0.35 -0.24,0.1 -0.65,0.63 -1.08,1.19l-0 0c-0.3,0.39 -0.61,0.8 -0.91,1.11 -0.58,0.6 -1.15,0.92 -1.66,0.43 -0.37,-0.35 -0.37,-0.79 -0.2,-1.26 0.14,-0.38 0.41,-0.78 0.67,-1.15 0.29,-0.41 0.56,-0.76 0.82,-1.11 0.16,-0.21 0.32,-0.42 0.42,-0.56 0.69,-0.93 1.69,-1.15 2.86,-1.41 0.46,-0.1 0.95,-0.21 1.46,-0.38 0.5,-0.16 1.52,-0.12 2.52,0.03 1.08,0.16 2.16,0.44 2.55,0.72l-0 0c0.24,0.17 0.58,0.52 0.98,1.01 0.39,0.47 0.85,1.08 1.37,1.8 0.7,0.34 1.51,0.54 2.21,0.7 1.1,0.26 1.96,0.47 2.03,1.19l0 0c0.01,0.12 -0,0.24 -0.04,0.34 -0.13,0.38 -0.51,0.59 -1.02,0.68 -0.42,0.07 -0.94,0.07 -1.46,0.03 -1.05,-0.09 -2.13,-0.34 -2.31,-0.44 -0.5,-0.27 -0.93,-0.7 -1.37,-1.13 -0.25,-0.25 -0.51,-0.5 -0.77,-0.71 -0.07,0.42 -0.15,1.1 -0.22,1.81 -0.12,1.19 -0.21,2.46 -0.18,2.79 0.03,0.3 0.74,1.51 1.3,2.48 0.27,0.47 0.52,0.88 0.65,1.14 0.34,0.66 0.52,1.7 0.57,2.85 0.05,1.23 -0.05,2.6 -0.27,3.75l-0.01 0.04 -0.02 0.04c-0.15,0.29 -0.39,0.48 -0.66,0.56 -0.13,0.04 -0.26,0.05 -0.39,0.04 -0.13,-0.01 -0.26,-0.05 -0.38,-0.11z"/>
  <path class="fil0" d="M8.42 20.8c-0.15,-0.26 -0.42,-0.64 -0.7,-0.99 -0.17,-0.21 -0.33,-0.4 -0.47,-0.55 -0.31,0.36 -0.59,0.83 -0.86,1.28 -0.1,0.17 -0.2,0.34 -0.3,0.5 -0.77,1.22 -1.31,1.7 -2.51,2.75l-0.06 0.06 -0 -0c-0.11,0.09 -0.23,0.18 -0.36,0.28 -0.47,0.34 -1.11,0.81 -0.85,1.34 0.18,0.37 0.45,0.38 0.79,0.22 0.36,-0.17 0.8,-0.52 1.29,-0.89 0.33,-0.26 0.69,-0.53 1.07,-0.79 0.81,-0.55 1.31,-0.91 1.72,-1.32 0.4,-0.41 0.72,-0.9 1.18,-1.72l0.05 -0.09 0 0c0.01,-0.02 0.02,-0.04 0.03,-0.07zm-0.18 -1.41c0.36,0.46 0.71,0.97 0.85,1.24l0.08 0.15 -0.07 0.15c-0.04,0.08 -0.06,0.13 -0.07,0.16l-0.02 0.05 -0.04 0.07 0 0 -0.05 0.09c-0.49,0.87 -0.84,1.4 -1.29,1.86 -0.45,0.46 -0.97,0.83 -1.82,1.41 -0.35,0.24 -0.7,0.51 -1.03,0.77 -0.51,0.39 -0.98,0.75 -1.41,0.96 -0.7,0.34 -1.28,0.3 -1.67,-0.53 -0.49,-1.03 0.41,-1.69 1.06,-2.17 0.13,-0.09 0.24,-0.18 0.32,-0.24l0 -0 0.06 -0.06c1.15,-1.01 1.67,-1.47 2.38,-2.61 0.1,-0.16 0.19,-0.32 0.29,-0.48 0.35,-0.58 0.72,-1.21 1.18,-1.64l0.2 -0.18 0.22 0.15c0.22,0.15 0.53,0.49 0.83,0.87z"/>
  <path class="fil0" d="M8.26 4.05c0,0.27 0.05,0.52 0.14,0.75 0.1,0.25 0.24,0.47 0.39,0.64 0.34,0.38 0.84,0.56 1.35,0.56 0.24,0 0.48,-0.04 0.7,-0.12 0.22,-0.08 0.43,-0.2 0.6,-0.36 0.36,-0.32 0.6,-0.81 0.6,-1.47 0,-0.26 -0.06,-0.51 -0.16,-0.73 -0.15,-0.32 -0.39,-0.59 -0.69,-0.78 -0.3,-0.19 -0.65,-0.3 -1.02,-0.3 -0.27,0 -0.56,0.06 -0.84,0.19 -0.05,0.03 -0.16,0.09 -0.26,0.17 -0.1,0.07 -0.2,0.15 -0.25,0.2 -0.13,0.13 -0.28,0.36 -0.39,0.62 -0.09,0.21 -0.15,0.44 -0.15,0.64zm-0.49 0.98c-0.11,-0.29 -0.18,-0.62 -0.18,-0.98 0,-0.3 0.09,-0.62 0.21,-0.91 0.15,-0.34 0.35,-0.65 0.54,-0.83 0.07,-0.07 0.2,-0.18 0.34,-0.27 0.13,-0.09 0.27,-0.18 0.37,-0.22 0.38,-0.18 0.76,-0.26 1.12,-0.26 0.51,0 0.98,0.15 1.38,0.41 0.4,0.26 0.72,0.63 0.93,1.06 0.15,0.31 0.23,0.66 0.23,1.02 0,0.87 -0.33,1.53 -0.82,1.97 -0.24,0.22 -0.52,0.38 -0.82,0.49 -0.3,0.11 -0.61,0.16 -0.92,0.16 -0.69,0 -1.38,-0.26 -1.85,-0.79 -0.2,-0.23 -0.39,-0.52 -0.52,-0.85z"/>
  <path class="fil1" d="M15.21 5.16l-0.6 -0.55c-0.37,-0.36 -0.75,0.05 -0.39,0.4l1.07 1.06c0.17,0.17 0.28,0.11 0.43,-0.05l1.05 -1.05c0.27,-0.27 -0.06,-0.71 -0.41,-0.38l-0.6 0.58c0.18,-2.57 2.12,-4.59 4.72,-4.59 1.89,0 3.48,1.04 4.31,2.72 0.06,0.12 0.19,0.45 0.26,0.51 0.21,0.17 0.47,-0.01 0.47,-0.19 0,-0.18 -0.22,-0.62 -0.3,-0.76 -0.85,-1.71 -2.7,-2.79 -4.58,-2.85l-0.38 0c-2.88,0.1 -4.85,2.41 -5.05,5.16z"/>
  <path class="fil1" d="M25.8 5.46l0.6 0.55c0.37,0.36 0.75,-0.05 0.39,-0.4l-1.07 -1.06c-0.17,-0.17 -0.28,-0.11 -0.43,0.05l-1.05 1.05c-0.27,0.27 0.06,0.71 0.41,0.38l0.6 -0.58c-0.18,2.57 -2.12,4.59 -4.72,4.59 -1.89,0 -3.48,-1.04 -4.31,-2.72 -0.06,-0.12 -0.19,-0.45 -0.26,-0.51 -0.21,-0.17 -0.47,0.01 -0.47,0.19 0,0.18 0.22,0.62 0.3,0.76 0.85,1.71 2.7,2.79 4.58,2.85l0.38 0c2.88,-0.1 4.85,-2.41 5.05,-5.16z"/>
  <path class="fil1" d="M20.22 1.74l0 3.3c0,0.1 0.01,0.16 0.01,0.24 0.01,0.23 0.11,0.23 0.25,0.4 0.1,0.13 1.01,1.02 1.23,1.24 0.02,0.02 0.04,0.04 0.07,0.07 0.15,0.13 0.28,0.29 0.41,0.29 0.15,0 0.29,-0.13 0.29,-0.31 0,-0.09 -0.25,-0.34 -0.32,-0.4 -0.02,-0.02 -0.04,-0.04 -0.06,-0.06 -0.34,-0.36 -0.68,-0.7 -1.04,-1.05 -0.07,-0.07 -0.19,-0.17 -0.24,-0.24 -0.04,-0.05 -0.02,-0.12 -0.02,-0.23 0,-0.43 0.02,-3.36 -0.02,-3.63 -0.01,-0.08 -0.02,-0.13 -0.08,-0.17 -0.2,-0.14 -0.41,-0.03 -0.45,0.13 -0.02,0.06 -0.02,0.36 -0.02,0.44z"/>
 </g>
</svg>
