<?xml version="1.0" encoding="UTF-8"?>
<!DOCTYPE svg PUBLIC "-//W3C//DTD SVG 1.1//EN" "http://www.w3.org/Graphics/SVG/1.1/DTD/svg11.dtd">
<!-- Creator: CorelDRAW 2018 (64-Bit) -->
<svg xmlns="http://www.w3.org/2000/svg" xml:space="preserve" width="36.0142mm" height="34.4187mm" version="1.1" style="shape-rendering:geometricPrecision; text-rendering:geometricPrecision; image-rendering:optimizeQuality; fill-rule:evenodd; clip-rule:evenodd"
viewBox="0 0 22.69 21.69"
 xmlns:xlink="http://www.w3.org/1999/xlink">
 <defs>
  <style type="text/css">
   <![CDATA[
    .fil2 {fill:#55ADAD}
    .fil1 {fill:#55ADAD;fill-rule:nonzero}
    .fil0 {fill:#59656C;fill-rule:nonzero}
   ]]>
  </style>
 </defs>
 <g id="Слой_x0020_1">
  <metadata id="CorelCorpID_0Corel-Layer"/>
  <g id="_1304297008">
   <path class="fil0" d="M16.91 20.9c0,-0.32 0,-0.78 0.01,-1.2 0.02,-1.57 0.02,-2.4 -0.34,-2.94 -0.41,-0.61 -1.36,-1 -3.35,-1.83l-0.44 -0.18c-0.12,-0.05 -0.26,-0.12 -0.42,-0.2 -0.5,-0.25 -1.2,-0.6 -1.43,-0.44l-0.04 0.03c-1.08,0.75 -1.96,1.36 -3.75,0.34 -0.21,-0.12 -0.34,-0.22 -0.44,-0.31 -0.26,-0.21 -0.27,-0.22 -2.4,0.77 -0.56,0.26 -1.03,0.47 -1.44,0.64 -2.16,0.93 -2.21,0.95 -2.22,4.46 -0,0.11 -0,0.21 -0.01,0.32 -0,0.16 -0.01,0.32 -0,0.46 0.01,0.25 0.08,0.25 0.73,0.23 0.24,-0.01 0.54,-0.01 0.8,-0.01l0 0 13.92 0c0.1,0 0.19,0.01 0.28,0.01 0.08,0 0.16,0.01 0.26,0.01 0.16,0 0.29,-0.02 0.29,-0.16zm0.64 -1.19c-0,0.3 -0.01,0.63 -0.01,1.19 0,0.67 -0.41,0.79 -0.92,0.79 -0.08,0 -0.19,-0.01 -0.29,-0.01 -0.09,-0 -0.18,-0.01 -0.25,-0.01l-13.92 -0 0 0c-0.37,0 -0.6,0.01 -0.79,0.01 -1.2,0.03 -1.34,0.03 -1.37,-0.84 -0.01,-0.15 -0,-0.32 0,-0.49 0,-0.11 0.01,-0.21 0.01,-0.3 0,-3.92 0.06,-3.94 2.59,-5.04 0.4,-0.17 0.87,-0.38 1.43,-0.64 2.48,-1.16 2.52,-1.13 3.06,-0.69 0.09,0.07 0.2,0.16 0.36,0.25 1.45,0.83 2.18,0.32 3.08,-0.31l0.04 -0.03c0.53,-0.37 1.42,0.08 2.07,0.39 0.15,0.07 0.28,0.14 0.38,0.18l0.44 0.18c2.11,0.88 3.12,1.3 3.64,2.06 0.47,0.71 0.46,1.6 0.45,3.3z"/>
   <path class="fil0" d="M8.78 2.63c1.24,0 2.36,0.58 3.17,1.52 0.8,0.92 1.29,2.2 1.29,3.6 0,1.4 -0.49,2.68 -1.29,3.6 -0.81,0.94 -1.93,1.52 -3.17,1.52 -1.24,0 -2.36,-0.58 -3.17,-1.52 -0.8,-0.92 -1.29,-2.2 -1.29,-3.6 0,-1.4 0.49,-2.68 1.29,-3.6 0.81,-0.94 1.93,-1.52 3.17,-1.52zm2.69 1.93c-0.69,-0.8 -1.64,-1.3 -2.69,-1.3 -1.05,0 -2,0.5 -2.69,1.3 -0.7,0.81 -1.14,1.94 -1.14,3.19 0,1.25 0.43,2.37 1.14,3.19 0.69,0.8 1.64,1.3 2.69,1.3 1.05,0 2,-0.5 2.69,-1.3 0.7,-0.81 1.14,-1.94 1.14,-3.19 0,-1.25 -0.43,-2.37 -1.14,-3.19z"/>
   <path class="fil1" d="M7.43 0.12c2.25,-0.38 4.44,0.19 6.16,1.42 1.72,1.23 2.98,3.11 3.36,5.36 0.38,2.25 -0.19,4.44 -1.42,6.16 -1.23,1.72 -3.11,2.98 -5.36,3.36 -2.25,0.38 -4.44,-0.19 -6.16,-1.42 -1.72,-1.23 -2.98,-3.11 -3.36,-5.36 -0.38,-2.25 0.19,-4.44 1.42,-6.16 1.23,-1.72 3.11,-2.98 5.36,-3.36zm5.8 1.93c-1.59,-1.13 -3.62,-1.66 -5.7,-1.31 -2.08,0.35 -3.82,1.51 -4.95,3.1 -1.13,1.59 -1.66,3.62 -1.31,5.7 0.35,2.08 1.51,3.82 3.1,4.95 1.59,1.13 3.62,1.66 5.7,1.31 2.08,-0.35 3.82,-1.51 4.95,-3.1 1.13,-1.59 1.66,-3.62 1.31,-5.7 -0.35,-2.08 -1.51,-3.82 -3.1,-4.95z"/>
   <path class="fil2" d="M22.62 17.55l-7.1 -5.05c-0.16,0.23 -0.32,0.45 -0.48,0.68l7.1 5.05c0.11,0.08 0.32,-0.01 0.45,-0.19l0 0c0.13,-0.19 0.15,-0.41 0.03,-0.49z"/>
  </g>
 </g>
</svg>
