<?xml version="1.0" encoding="UTF-8"?>
<!DOCTYPE svg PUBLIC "-//W3C//DTD SVG 1.1//EN" "http://www.w3.org/Graphics/SVG/1.1/DTD/svg11.dtd">
<!-- Creator: CorelDRAW 2018 (64-Bit) -->
<svg xmlns="http://www.w3.org/2000/svg" xml:space="preserve" width="38.8011mm" height="32.6485mm" version="1.1" style="shape-rendering:geometricPrecision; text-rendering:geometricPrecision; image-rendering:optimizeQuality; fill-rule:evenodd; clip-rule:evenodd"
viewBox="0 0 25.09 21.12"
 xmlns:xlink="http://www.w3.org/1999/xlink">
 <defs>
  <style type="text/css">
   <![CDATA[
    .fil0 {fill:#55ADAD;fill-rule:nonzero}
    .fil1 {fill:#59656C;fill-rule:nonzero}
   ]]>
  </style>
 </defs>
 <g id="Слой_x0020_1">
  <metadata id="CorelCorpID_0Corel-Layer"/>
  <g id="_2067555312">
   <path class="fil0" d="M19.39 18.4c-0.76,-0 -1.35,-0.03 -1.92,-0.11 -0.66,-0.1 -1.28,-0.28 -2.07,-0.6 -0.42,-0.18 -0.94,-0.46 -1.42,-0.78 -0.48,-0.32 -0.94,-0.67 -1.26,-0.98 -0.02,-0.01 -0.02,-0.02 -0.03,-0.03 -0.01,-0.01 -0.05,-0.04 -0.07,-0.05l-0.69 -0.71 2.56 -3.2 0.25 0.26c0.16,0.17 0.35,0.35 0.53,0.51 0.17,0.16 0.32,0.29 0.4,0.36 0.37,0.29 0.68,0.51 1.02,0.69 0.33,0.18 0.69,0.31 1.14,0.43l0 0c0.46,0.12 1.02,0.13 1.56,0.13l0 -1.02 0 0 -0 -0.15c-0,-0.46 -0,-0.74 0.15,-0.92 0.28,-0.33 0.61,-0.13 1.35,0.5 0.37,0.39 1.02,0.86 1.45,1.25 0.03,0.02 0.04,0.04 0.06,0.05l0 0c0.03,0.02 0.05,0.04 0.09,0.08 0.76,0.65 1.52,1.31 2.28,1.96 0.2,0.18 0.31,0.3 0.32,0.5 0.01,0.2 -0.09,0.33 -0.3,0.53l-0.01 0.01 -0.96 0.82c-0.05,0.04 -0.07,0.06 -0.1,0.09l-0 0c-0.02,0.01 -0.03,0.02 -0.06,0.05 -1.02,0.89 -2.08,1.75 -3.09,2.65 -0.54,0.42 -0.8,0.56 -1.05,0.23 -0.13,-0.17 -0.13,-0.44 -0.13,-0.92l0 -0.08 -0 0 0 -1.53zm-1.83 -0.75c0.61,0.09 1.26,0.1 2.15,0.1l0.32 0 0 2.18 -0 0 -0 0.08c-0,0.33 -0,0.52 -0,0.52 0.1,0.13 -0.03,-0.21 0.15,-0.35l3.05 -2.62c0.03,-0.03 0.06,-0.06 0.09,-0.08l-0 -0c0.02,-0.02 0.04,-0.03 0.06,-0.05l0.98 -0.84 0 0c0.05,-0.04 0.08,0.02 0.08,-0.02 -0,-0.04 -0.03,0.02 -0.1,-0.04l-0.68 -0.59 -1.61 -1.38c-0.02,-0.02 -0.04,-0.03 -0.06,-0.05l0 -0c-0.03,-0.02 -0.06,-0.05 -0.1,-0.09l-1.43 -1.23c-0.39,-0.33 -0.36,-0.67 -0.44,-0.57 -0,0.01 0,0.19 0.01,0.5l0 0.15 0 0 0 1.66 -0.42 0c-0.65,0 -1.35,0 -1.94,-0.15 -0.5,-0.13 -0.91,-0.28 -1.28,-0.48 -0.37,-0.2 -0.72,-0.44 -1.11,-0.75 -0.11,-0.09 -0.27,-0.23 -0.45,-0.39 -0.09,-0.09 -0.19,-0.18 -0.29,-0.28l-1.76 2.2 0.26 0.27 0.02 0.01c0.03,0.02 0.05,0.04 0.11,0.09 0.29,0.28 0.71,0.61 1.17,0.9 0.46,0.3 0.93,0.56 1.32,0.72 0.74,0.31 1.31,0.47 1.91,0.56zm-10.83 -8.73l-0.06 -0.06 -0 0c-0.17,-0.14 -0.33,-0.3 -0.49,-0.44l-0.24 -0.19 0 -0c-0.39,-0.31 -0.88,-0.59 -1.43,-0.79 -0.48,-0.18 -1.01,-0.28 -1.53,-0.28l-1.93 0c-0.16,0 -0.23,0 -0.29,0 -0.32,0.01 -0.48,0.01 -0.62,-0.15 -0.15,-0.16 -0.14,-0.31 -0.12,-0.61 0.01,-0.09 0.01,-0.2 0.02,-0.31l-0 0 0 -1.98c0,-0.16 -0.01,-0.27 -0.01,-0.36 -0.01,-0.23 -0.02,-0.37 0.08,-0.51 0.15,-0.21 0.32,-0.21 0.74,-0.21l0 -0 2.34 0c0.49,0 0.99,0.06 1.46,0.16 0.56,0.11 1.07,0.28 1.5,0.45 0.52,0.21 0.94,0.43 1.33,0.67 0.39,0.24 0.75,0.51 1.15,0.82 0.31,0.26 0.61,0.53 0.92,0.8l-2.31 2.94c-0.09,0.1 -0.18,0.19 -0.27,0.29l-0.24 -0.23zm-0.14 -1l0.33 0.3 1.74 -2.22 -0.43 -0.37c-0.38,-0.29 -0.73,-0.55 -1.1,-0.78 -0.37,-0.23 -0.75,-0.43 -1.23,-0.62 -0.4,-0.16 -0.87,-0.31 -1.39,-0.42 -0.43,-0.09 -0.88,-0.14 -1.33,-0.14l-2.34 0 0 -0c-0.18,-0 -0.16,-0.13 -0.21,-0.07 -0.03,0.04 0.03,0.01 0.04,0.11 0.01,0.11 0.01,0.25 0.01,0.4l0 1.98 -0 0.01c-0.01,0.15 -0.01,0.25 -0.02,0.33 -0.01,0.12 -0.11,0.08 -0.06,0.13 0.05,0.05 0.01,-0.05 0.14,-0.06 0.11,-0 0.23,-0.01 0.31,-0.01l1.93 0c0.6,0 1.19,0.12 1.75,0.32 0.61,0.22 1.16,0.54 1.61,0.89l0 0 0.23 0.19 0.02 0.02z"/>
   <path class="fil1" d="M19.71 3.36c-0.89,0 -1.54,0.01 -2.15,0.1 -0.6,0.09 -1.18,0.26 -1.91,0.56 -0.38,0.16 -0.86,0.43 -1.32,0.72 -0.45,0.3 -0.88,0.62 -1.17,0.9 -0.05,0.05 -0.07,0.07 -0.1,0.09l-0.02 0.01 -1.45 1.5c-0.01,0.01 -0.02,0.03 -0.03,0.04l-0 0c-0.02,0.02 -0.04,0.05 -0.07,0.08l0 0c-0.45,0.51 -0.89,1.08 -1.32,1.65 -0.24,0.31 -0.47,0.63 -0.75,0.97 -0.1,0.13 -0.26,0.34 -0.43,0.55 -0.3,0.39 -0.63,0.82 -0.9,1.12l-0.08 0.09c-0.28,0.31 -0.77,0.87 -1,1.05l-0.45 0.41 -0.23 0.19 -0 0c-0.45,0.36 -1,0.67 -1.61,0.89 -0.55,0.2 -1.15,0.32 -1.75,0.32l-1.93 0c-0.08,0 -0.2,-0 -0.31,-0.01 -0.12,-0 -0.09,-0.11 -0.14,-0.06 -0.05,0.05 0.05,0.01 0.06,0.13 0.01,0.08 0.01,0.19 0.02,0.33l0 0.01 0 1.98c0,0.15 -0.01,0.29 -0.01,0.4 -0.01,0.09 -0.06,0.07 -0.04,0.11 0.05,0.07 0.03,-0.07 0.21,-0.07l0 -0 2.34 0c0.46,0 0.91,-0.06 1.33,-0.14 0.51,-0.11 0.99,-0.26 1.39,-0.42 0.48,-0.19 0.87,-0.39 1.23,-0.62 0.37,-0.23 0.71,-0.48 1.1,-0.78l0.66 -0.57 0.2 -0.2 -0 -0c0.34,-0.34 0.85,-0.85 1.03,-1.08l0.2 -0.24 0 -0c0.2,-0.24 0.4,-0.47 0.58,-0.7 0.18,-0.23 0.37,-0.46 0.56,-0.71l0.01 -0.01 2.45 -3.1 0.01 -0.01c0.14,-0.17 0.39,-0.42 0.65,-0.67 0.27,-0.26 0.55,-0.52 0.71,-0.64 0.39,-0.31 0.74,-0.55 1.11,-0.75 0.38,-0.2 0.78,-0.36 1.28,-0.48 0.59,-0.15 1.29,-0.15 1.94,-0.15l0.42 0 0 1.66 -0 0 -0 0.15c-0,0.31 -0.01,0.5 -0.01,0.5 0.09,0.1 0.06,-0.24 0.44,-0.57l1.43 -1.23c0.04,-0.04 0.07,-0.06 0.1,-0.09l-0 -0c0.02,-0.02 0.04,-0.03 0.06,-0.05l1.61 -1.38 0.68 -0.59c0.07,-0.06 0.1,0.01 0.1,-0.04 0,-0.04 -0.03,0.02 -0.08,-0.02l-0 0 -0.98 -0.84c-0.02,-0.02 -0.04,-0.04 -0.06,-0.05l0 -0c-0.03,-0.02 -0.06,-0.05 -0.09,-0.08l-3.05 -2.62c-0.18,-0.14 -0.05,-0.48 -0.15,-0.35 -0,0 0,0.19 0,0.52l0 0.08 0 0 0 2.18 -0.32 0zm-2.25 -0.54c0.57,-0.08 1.17,-0.11 1.92,-0.11l0 -1.53 0 0 -0 -0.08c-0,-0.48 -0,-0.75 0.13,-0.92 0.25,-0.32 0.52,-0.18 1.05,0.23 1.01,0.9 2.07,1.76 3.09,2.65 0.02,0.02 0.04,0.03 0.06,0.05l0 0c0.03,0.02 0.06,0.05 0.1,0.09l0.96 0.82 0.01 0.01c0.21,0.19 0.31,0.33 0.3,0.53 -0.01,0.19 -0.12,0.32 -0.32,0.5 -0.76,0.66 -1.52,1.31 -2.28,1.96 -0.04,0.04 -0.07,0.06 -0.09,0.08l-0 0c-0.02,0.01 -0.04,0.03 -0.06,0.05 -0.43,0.39 -1.08,0.86 -1.45,1.25 -0.74,0.63 -1.07,0.83 -1.35,0.5 -0.15,-0.17 -0.15,-0.46 -0.15,-0.92l0 -0.15 -0 0 0 -1.02c-0.54,0 -1.1,0.02 -1.56,0.13l-0 0c-0.45,0.12 -0.81,0.25 -1.14,0.43 -0.34,0.18 -0.65,0.4 -1.02,0.69 -0.14,0.11 -0.4,0.35 -0.66,0.6 -0.24,0.23 -0.47,0.47 -0.6,0.62l-0 -0 -2.44 3.09 0 0c-0.18,0.24 -0.37,0.48 -0.57,0.73 -0.2,0.25 -0.4,0.48 -0.59,0.71l-0 -0 -0.18 0.22c-0.22,0.28 -0.73,0.8 -1.08,1.15l-0 0 -0.2 0.2 -0.02 0.02 -0.7 0.61c-0.4,0.31 -0.76,0.57 -1.15,0.82 -0.39,0.25 -0.82,0.46 -1.33,0.67 -0.43,0.17 -0.94,0.33 -1.5,0.45 -0.47,0.1 -0.97,0.16 -1.46,0.16l-2.34 0 0 -0c-0.41,0 -0.59,0 -0.74,-0.21 -0.1,-0.15 -0.09,-0.28 -0.08,-0.51 0.01,-0.09 0.01,-0.2 0.01,-0.36l0 -1.98 0 0c-0,-0.11 -0.01,-0.22 -0.02,-0.31 -0.02,-0.3 -0.03,-0.46 0.12,-0.61 0.15,-0.16 0.31,-0.15 0.62,-0.15 0.06,0 0.13,0 0.29,0l1.93 0c0.52,0 1.04,-0.11 1.53,-0.28 0.54,-0.2 1.04,-0.48 1.43,-0.79l-0 -0 0.24 -0.19 0.45 -0.41c0.18,-0.14 0.65,-0.67 0.92,-0.97l0.08 -0.09c0.26,-0.29 0.58,-0.7 0.87,-1.08 0.14,-0.19 0.28,-0.36 0.44,-0.56 0.22,-0.27 0.47,-0.61 0.74,-0.96 0.44,-0.58 0.88,-1.17 1.35,-1.69l0 0c0.02,-0.02 0.03,-0.03 0.03,-0.04l-0 -0c0.02,-0.02 0.03,-0.04 0.07,-0.08 0.51,-0.51 1,-1.03 1.5,-1.55 0.02,-0.01 0.05,-0.04 0.07,-0.05 0.01,-0.01 0.02,-0.01 0.03,-0.03 0.32,-0.31 0.78,-0.67 1.26,-0.98 0.48,-0.32 1,-0.6 1.42,-0.78 0.79,-0.33 1.41,-0.51 2.07,-0.6z"/>
  </g>
 </g>
</svg>
