<?xml version="1.0" encoding="UTF-8"?>
<!DOCTYPE svg PUBLIC "-//W3C//DTD SVG 1.1//EN" "http://www.w3.org/Graphics/SVG/1.1/DTD/svg11.dtd">
<!-- Creator: CorelDRAW 2018 (64-Bit) -->
<svg xmlns="http://www.w3.org/2000/svg" xml:space="preserve" width="52.6953mm" height="38.9111mm" version="1.1" style="shape-rendering:geometricPrecision; text-rendering:geometricPrecision; image-rendering:optimizeQuality; fill-rule:evenodd; clip-rule:evenodd"
viewBox="0 0 46.17 34.1"
 xmlns:xlink="http://www.w3.org/1999/xlink">
 <defs>
  <style type="text/css">
   <![CDATA[
    .fil0 {fill:#55ADAD}
    .fil1 {fill:#59656C;fill-rule:nonzero}
   ]]>
  </style>
 </defs>
 <g id="Слой_x0020_1">
  <metadata id="CorelCorpID_0Corel-Layer"/>
  <path class="fil0" d="M42.47 26.19l3.09 0 0 -3.09c0,-0.17 0.14,-0.31 0.31,-0.31l0 0c0.17,0 0.31,0.14 0.31,0.31l0 3.4 0 0 -0 0.01 -0 0.01 -0 0.01 -0 0.01 -0 0.01 -0 0.01 -0 0.01 -0 0.01 -0 0.01c-0,0 -0,0.01 -0,0.01l-0 0.01c-0,0.01 -0,0.01 -0.01,0.02l-0 0.01c-0,0 -0,0.01 -0.01,0.01 -0,0.01 -0.01,0.02 -0.01,0.03 -0.05,0.08 -0.13,0.13 -0.23,0.15l-0.01 0c-0.01,0 -0.01,0 -0.02,0l-0.01 0 -0.01 0 -3.4 0c-0.17,0 -0.31,-0.14 -0.31,-0.31l0 0c0,-0.17 0.14,-0.31 0.31,-0.31z"/>
  <path class="fil0" d="M42.47 0.62l3.09 0 0 3.09c0,0.17 0.14,0.31 0.31,0.31l0 0c0.17,0 0.31,-0.14 0.31,-0.31l0 -3.4 0 0 -0 -0.01 -0 -0.01 -0 -0.01 -0 -0.01 -0 -0.01 -0 -0.01 -0 -0.01 -0 -0.01 -0 -0.01c-0,-0 -0,-0.01 -0,-0.01l-0 -0.01c-0,-0.01 -0,-0.01 -0.01,-0.02l-0 -0.01c-0,-0 -0,-0.01 -0.01,-0.01 -0,-0.01 -0.01,-0.02 -0.01,-0.03 -0.05,-0.08 -0.13,-0.13 -0.23,-0.15l-0.01 -0c-0.01,-0 -0.01,-0 -0.02,-0l-0.01 -0 -0.01 -0 -3.4 0c-0.17,0 -0.31,0.14 -0.31,0.31l0 0c0,0.17 0.14,0.31 0.31,0.31z"/>
  <path class="fil0" d="M26.99 26.19l-3.09 0 0 -3.09c0,-0.17 -0.14,-0.31 -0.31,-0.31l0 0c-0.17,0 -0.31,0.14 -0.31,0.31l0 3.4 0 0 0 0.01 0 0.01 0 0.01 0 0.01 0 0.01 0 0.01 0 0.01 0 0.01 0 0.01c0,0 0,0.01 0,0.01l0 0.01c0,0.01 0,0.01 0.01,0.02l0 0.01c0,0 0,0.01 0.01,0.01 0,0.01 0.01,0.02 0.01,0.03 0.05,0.08 0.13,0.13 0.23,0.15l0.01 0c0.01,0 0.01,0 0.02,0l0.01 0 0.01 0 3.4 0c0.17,0 0.31,-0.14 0.31,-0.31l0 0c0,-0.17 -0.14,-0.31 -0.31,-0.31z"/>
  <path class="fil0" d="M26.99 0.62l-3.09 0 0 3.09c0,0.17 -0.14,0.31 -0.31,0.31l0 0c-0.17,0 -0.31,-0.14 -0.31,-0.31l0 -3.4 0 0 0 -0.01 0 -0.01 0 -0.01 0 -0.01 0 -0.01 0 -0.01 0 -0.01 0 -0.01 0 -0.01c0,-0 0,-0.01 0,-0.01l0 -0.01c0,-0.01 0,-0.01 0.01,-0.02l0 -0.01c0,-0 0,-0.01 0.01,-0.01 0,-0.01 0.01,-0.02 0.01,-0.03 0.05,-0.08 0.13,-0.13 0.23,-0.15l0.01 -0c0.01,-0 0.01,-0 0.02,-0l0.01 -0 0.01 -0 3.4 0c0.17,0 0.31,0.14 0.31,0.31l0 0c0,0.17 -0.14,0.31 -0.31,0.31z"/>
  <path class="fil1" d="M36.95 32.7c0.07,0.24 0.2,0.39 0.35,0.46l0 0c0.06,0.03 0.12,0.05 0.18,0.05 0.06,0.01 0.13,-0 0.19,-0.02 0.12,-0.03 0.22,-0.12 0.3,-0.24 0.27,-1.43 0.39,-3.12 0.33,-4.63 -0.06,-1.39 -0.26,-2.63 -0.64,-3.37l-0 -0.01c-0.15,-0.29 -0.46,-0.84 -0.82,-1.45 -0.78,-1.34 -1.76,-3.02 -1.82,-3.61 -0.04,-0.49 0.07,-2.21 0.23,-3.81 0.15,-1.49 0.34,-2.91 0.49,-3.2l0.21 -0.43 0.41 0.25c0.62,0.38 1.14,0.9 1.67,1.41 0.52,0.52 1.04,1.02 1.6,1.33 0.18,0.1 1.41,0.37 2.68,0.47 0.62,0.05 1.23,0.06 1.7,-0.02 0.36,-0.06 0.61,-0.16 0.66,-0.3 0.01,-0.02 0.01,-0.06 0.01,-0.09 -0.03,-0.31 -0.89,-0.52 -1.99,-0.78 -0.99,-0.23 -2.13,-0.51 -3.18,-1.04l-0.1 -0.05 -0.06 -0.09c-0.69,-0.97 -1.3,-1.78 -1.81,-2.4 -0.49,-0.59 -0.87,-0.99 -1.12,-1.16l-0 0c-0.4,-0.28 -1.66,-0.6 -2.96,-0.79 -1.19,-0.18 -2.38,-0.24 -2.9,-0.07 -0.69,0.23 -1.36,0.38 -2,0.52 -1.35,0.3 -2.51,0.56 -3.22,1.52 -0.24,0.32 -0.4,0.53 -0.56,0.75 -0.36,0.47 -0.71,0.94 -1.06,1.44 -0.31,0.43 -0.62,0.9 -0.77,1.3 -0.11,0.29 -0.13,0.55 0.05,0.71 0.18,0.17 0.53,-0.1 0.94,-0.53 0.37,-0.39 0.76,-0.89 1.13,-1.38l-0 -0c0.64,-0.83 1.24,-1.62 1.78,-1.83 0.17,-0.07 1.63,-0.38 2.82,-0.51 0.74,-0.08 1.41,-0.1 1.73,0.04l0.19 0.09 0.05 0.2c0.2,0.75 -0.02,2.35 -0.2,3.68 -0.07,0.54 -0.14,1.04 -0.17,1.41 -0.02,0.29 -0.05,0.59 -0.08,0.89 -0.14,1.34 -0.23,2.26 0.59,3.41 0.51,0.72 1.21,1.48 1.86,2.19 0.2,0.22 0.39,0.42 0.63,0.7 2.17,2.44 2.2,3.9 2.24,5.66 0.02,0.95 0.04,1.99 0.46,3.36l0 0zm-0.04 1.25c-0.35,-0.18 -0.65,-0.51 -0.8,-1 -0.45,-1.47 -0.47,-2.59 -0.49,-3.59 -0.04,-1.59 -0.06,-2.9 -2.02,-5.1 -0.15,-0.17 -0.38,-0.43 -0.62,-0.69 -0.65,-0.72 -1.37,-1.5 -1.92,-2.27 -1.02,-1.42 -0.91,-2.47 -0.75,-4 0.03,-0.26 0.05,-0.53 0.08,-0.86 0.03,-0.37 0.1,-0.89 0.18,-1.46 0.15,-1.1 0.33,-2.39 0.27,-3.09 -0.24,-0.01 -0.63,0.02 -1.07,0.07 -1.13,0.13 -2.46,0.4 -2.6,0.46 -0.31,0.12 -0.84,0.82 -1.41,1.55l-0 0c-0.39,0.51 -0.8,1.04 -1.19,1.45 -0.76,0.79 -1.51,1.2 -2.18,0.56 -0.48,-0.46 -0.49,-1.04 -0.26,-1.65 0.19,-0.5 0.54,-1.02 0.88,-1.5 0.38,-0.53 0.73,-0.99 1.08,-1.46 0.21,-0.28 0.42,-0.56 0.56,-0.74 0.91,-1.22 2.21,-1.51 3.73,-1.85 0.6,-0.13 1.25,-0.28 1.91,-0.5 0.65,-0.21 1.99,-0.16 3.29,0.04 1.41,0.21 2.83,0.58 3.34,0.94l-0 0c0.32,0.23 0.76,0.68 1.29,1.32 0.5,0.61 1.11,1.41 1.79,2.36 0.92,0.45 1.97,0.7 2.89,0.92 1.44,0.34 2.57,0.61 2.65,1.55l0 0c0.01,0.16 -0,0.31 -0.05,0.45 -0.17,0.5 -0.67,0.77 -1.34,0.88 -0.55,0.09 -1.24,0.09 -1.91,0.03 -1.37,-0.11 -2.79,-0.45 -3.02,-0.58 -0.66,-0.36 -1.22,-0.91 -1.79,-1.47 -0.33,-0.32 -0.66,-0.65 -1.01,-0.93 -0.09,0.55 -0.19,1.43 -0.28,2.36 -0.16,1.56 -0.27,3.21 -0.23,3.65 0.03,0.39 0.96,1.98 1.7,3.25 0.36,0.61 0.67,1.16 0.84,1.5 0.44,0.86 0.68,2.22 0.74,3.73 0.07,1.61 -0.07,3.4 -0.36,4.9l-0.01 0.06 -0.03 0.05c-0.19,0.38 -0.51,0.63 -0.86,0.74 -0.16,0.05 -0.34,0.07 -0.51,0.05 -0.17,-0.01 -0.34,-0.06 -0.5,-0.14z"/>
  <path class="fil1" d="M32.99 26.24c-0.2,-0.34 -0.55,-0.84 -0.92,-1.3 -0.22,-0.27 -0.43,-0.53 -0.62,-0.71 -0.41,0.47 -0.78,1.08 -1.13,1.67 -0.13,0.22 -0.27,0.44 -0.39,0.65 -1.01,1.6 -1.71,2.22 -3.28,3.6l-0.08 0.07 -0 -0c-0.14,0.12 -0.3,0.24 -0.48,0.37 -0.61,0.45 -1.45,1.06 -1.12,1.75 0.23,0.48 0.58,0.49 1.03,0.28 0.47,-0.23 1.05,-0.67 1.68,-1.16 0.44,-0.34 0.9,-0.69 1.4,-1.03 1.06,-0.72 1.72,-1.19 2.25,-1.73 0.53,-0.54 0.95,-1.18 1.55,-2.25l0.07 -0.12 0 0c0.02,-0.03 0.03,-0.06 0.04,-0.09zm-0.23 -1.84c0.47,0.6 0.93,1.27 1.11,1.62l0.1 0.19 -0.09 0.2c-0.05,0.11 -0.08,0.17 -0.09,0.2l-0.03 0.06 -0.05 0.09 0 0 -0.07 0.12c-0.64,1.14 -1.1,1.83 -1.68,2.43 -0.58,0.6 -1.27,1.09 -2.39,1.84 -0.46,0.31 -0.92,0.67 -1.35,1 -0.67,0.52 -1.28,0.99 -1.84,1.26 -0.92,0.44 -1.67,0.39 -2.19,-0.69 -0.65,-1.34 0.53,-2.21 1.39,-2.83 0.17,-0.12 0.32,-0.23 0.42,-0.32l0 -0 0.08 -0.07c1.5,-1.33 2.18,-1.92 3.12,-3.41 0.13,-0.2 0.25,-0.41 0.38,-0.63 0.46,-0.76 0.94,-1.58 1.55,-2.14l0.26 -0.24 0.29 0.2c0.29,0.2 0.7,0.65 1.08,1.14z"/>
  <path class="fil1" d="M32.79 4.33c0,0.36 0.07,0.69 0.18,0.97 0.13,0.33 0.31,0.62 0.51,0.84 0.44,0.49 1.1,0.74 1.76,0.74 0.31,0 0.62,-0.05 0.91,-0.16 0.29,-0.1 0.56,-0.26 0.79,-0.47 0.47,-0.42 0.78,-1.06 0.78,-1.93 0,-0.34 -0.08,-0.67 -0.21,-0.96 -0.19,-0.41 -0.51,-0.77 -0.9,-1.02 -0.39,-0.25 -0.85,-0.4 -1.34,-0.4 -0.36,0 -0.73,0.08 -1.09,0.25 -0.07,0.03 -0.21,0.12 -0.35,0.22 -0.13,0.09 -0.26,0.19 -0.32,0.26 -0.17,0.17 -0.37,0.47 -0.52,0.81 -0.12,0.28 -0.2,0.58 -0.2,0.84zm-0.64 1.28c-0.15,-0.38 -0.24,-0.82 -0.24,-1.28 0,-0.39 0.11,-0.81 0.27,-1.19 0.19,-0.44 0.46,-0.85 0.7,-1.09 0.09,-0.09 0.27,-0.23 0.44,-0.35 0.17,-0.12 0.36,-0.24 0.48,-0.29 0.49,-0.23 0.99,-0.34 1.46,-0.34 0.66,0 1.29,0.2 1.81,0.54 0.52,0.34 0.95,0.82 1.21,1.38 0.19,0.41 0.3,0.86 0.3,1.33 0,1.14 -0.43,2 -1.07,2.58 -0.32,0.28 -0.68,0.5 -1.08,0.64 -0.39,0.14 -0.8,0.21 -1.21,0.21 -0.9,0 -1.8,-0.34 -2.41,-1.03 -0.27,-0.3 -0.51,-0.67 -0.68,-1.12z"/>
  <path class="fil1" d="M4.79 28.14c0.23,0.34 0.64,1.06 1.03,1.77 0.31,0.55 0.61,1.09 0.81,1.41 0.07,0.12 0.18,0.23 0.31,0.29 0.09,0.04 0.2,0.06 0.32,0.02 0.11,-0.03 0.22,-0.09 0.29,-0.19 0.06,-0.08 0.1,-0.19 0.1,-0.32 -0,-0.23 -0.6,-1.21 -0.92,-1.75 -0.04,-0.07 -0.08,-0.13 -0.15,-0.26l-0.09 -0.16c-0.19,-0.31 -0.51,-0.84 -0.55,-1.03l-0.14 -0.54 6.95 -0 0.05 0.38c0.05,0.38 0.03,1.07 0.02,1.76 -0.02,0.65 -0.04,1.3 0.01,1.66 0.02,0.19 0.11,0.32 0.23,0.39 0.08,0.05 0.17,0.07 0.26,0.08 0.1,0 0.19,-0.01 0.27,-0.05 0.13,-0.06 0.23,-0.17 0.27,-0.34 0.04,-0.17 0.03,-1.87 0.02,-2.79 -0,-0.36 -0,-0.42 -0,-0.53l0 0c0,-0.41 0.08,-0.99 0.33,-1.45 0.21,-0.39 0.53,-0.69 0.99,-0.79l0.17 -0.04c0.68,-0.15 0.69,-0.15 1.91,0.69 0.37,0.25 0.68,0.43 0.94,0.45 0.22,0.02 0.45,-0.08 0.73,-0.37l-0 -0c0.47,-0.48 0.18,-0.94 -0.15,-1.45 -0.28,-0.44 -0.58,-0.9 -0.67,-1.49 -0.03,-0.18 -0.05,-0.39 -0.06,-0.59 -0.03,-0.37 -0.07,-0.73 -0.18,-1.04 -0.07,-0.2 -0.14,-0.33 -0.19,-0.43 -0.27,-0.52 -0.29,-0.55 0.27,-1.3l0.04 -0.05 0 -0c0.21,-0.28 0.48,-0.63 0.44,-1.07 -0.01,-0.18 -0.07,-0.31 -0.14,-0.4 -0.03,-0.04 -0.07,-0.07 -0.12,-0.09 -0.04,-0.02 -0.1,-0.02 -0.16,-0.02 -0.14,0.01 -0.32,0.09 -0.51,0.26 -0.19,0.16 -0.3,0.26 -0.39,0.35 -0.42,0.37 -0.47,0.42 -1.39,0.94 -0.31,0.17 -0.47,0.27 -0.63,0.36 -1.74,1 -3.12,1.8 -5.01,1.8l-6.02 0c-0.57,0 -1.06,-0.46 -1.57,-0.93 -0.4,-0.37 -0.8,-0.75 -1.1,-0.76 -0.14,-0.01 -0.26,0.03 -0.35,0.09 -0.1,0.07 -0.17,0.18 -0.2,0.29 -0.11,0.45 0.73,1.07 1.36,1.53 0.17,0.13 0.33,0.24 0.45,0.33l0 0 0 -0c0.19,0.14 0.28,0.21 0.35,0.39 0.05,0.14 0.05,0.24 0.05,0.43l-0 0.73c-0,0.96 -0,1.91 0,2.87 0,0.42 -0.58,1.52 -0.93,2.17 -0.09,0.18 -0.17,0.32 -0.2,0.37 -0.07,0.13 -0.15,0.28 -0.23,0.43 -0.3,0.54 -0.59,1.08 -0.18,1.39 0.1,0.07 0.22,0.1 0.33,0.08 0.15,-0.02 0.28,-0.08 0.37,-0.17 0.11,-0.12 0.56,-0.99 0.97,-1.79 0.4,-0.79 0.78,-1.52 0.95,-1.64l0.36 -0.24 0.24 0.35zm0.27 2.19c-0.22,-0.39 -0.44,-0.78 -0.63,-1.11 -0.11,0.23 -0.26,0.52 -0.42,0.83 -0.44,0.86 -0.92,1.8 -1.12,2 -0.22,0.23 -0.55,0.4 -0.9,0.44 -0.32,0.03 -0.65,-0.03 -0.95,-0.25 -1.02,-0.76 -0.54,-1.63 -0.06,-2.51 0.07,-0.13 0.14,-0.26 0.21,-0.39 0.06,-0.12 0.12,-0.24 0.21,-0.4 0.31,-0.58 0.83,-1.56 0.83,-1.76 -0.01,-0.96 -0,-1.91 -0,-2.87l0 -0.74c0,-0.08 0.02,-0.07 0.01,-0.09 -0.02,-0.05 -0.01,0.03 -0.06,-0.01l0 -0 -0.03 -0.02c-0.13,-0.1 -0.27,-0.2 -0.41,-0.31 -0.83,-0.61 -1.96,-1.43 -1.7,-2.45 0.08,-0.31 0.27,-0.59 0.53,-0.79 0.24,-0.18 0.55,-0.28 0.9,-0.26 0.61,0.03 1.14,0.52 1.65,1 0.38,0.35 0.75,0.7 0.97,0.7l6.02 -0c1.65,-0.01 2.94,-0.75 4.57,-1.69l0.63 -0.36c0.84,-0.48 0.88,-0.52 1.23,-0.83 0.11,-0.1 0.25,-0.23 0.4,-0.36 0.34,-0.3 0.69,-0.44 1.01,-0.47 0.2,-0.02 0.38,0.01 0.56,0.08 0.17,0.07 0.32,0.18 0.45,0.32 0.2,0.23 0.32,0.54 0.35,0.91 0.06,0.77 -0.32,1.27 -0.62,1.67l-0 -0 -0.04 0.05c-0.23,0.3 -0.23,0.31 -0.19,0.37 0.06,0.12 0.15,0.28 0.24,0.53 0.15,0.41 0.19,0.83 0.23,1.26 0.02,0.17 0.03,0.35 0.06,0.54 0.06,0.4 0.31,0.79 0.54,1.15 0.53,0.83 1.01,1.56 0.04,2.54l-0 0c-0.49,0.49 -0.94,0.67 -1.43,0.63 -0.45,-0.04 -0.87,-0.27 -1.36,-0.6 -0.91,-0.62 -0.91,-0.62 -1.23,-0.55 -0.05,0.01 -0.11,0.02 -0.19,0.04 -0.17,0.03 -0.3,0.17 -0.39,0.34 -0.17,0.32 -0.23,0.74 -0.23,1.04l0 0c0,0.31 0,0.41 0,0.52 0.01,0.96 0.02,2.72 -0.04,2.98 -0.11,0.46 -0.4,0.78 -0.76,0.95 -0.21,0.1 -0.45,0.14 -0.68,0.13 -0.23,-0.01 -0.47,-0.08 -0.67,-0.2 -0.34,-0.2 -0.6,-0.55 -0.65,-1.04 -0.05,-0.4 -0.03,-1.1 -0.01,-1.78 0.01,-0.46 0.02,-0.91 0.02,-1.25l-4.87 0 0.4 0.67c0.37,0.61 1.04,1.73 1.05,2.2 0,0.33 -0.11,0.63 -0.28,0.86 -0.19,0.25 -0.46,0.42 -0.76,0.5 -0.34,0.09 -0.65,0.04 -0.9,-0.07 -0.31,-0.14 -0.55,-0.39 -0.69,-0.63 -0.21,-0.33 -0.52,-0.88 -0.83,-1.44z"/>
 </g>
</svg>
