<?xml version="1.0" encoding="UTF-8"?>
<!DOCTYPE svg PUBLIC "-//W3C//DTD SVG 1.1//EN" "http://www.w3.org/Graphics/SVG/1.1/DTD/svg11.dtd">
<!-- Creator: CorelDRAW 2018 (64-Bit) -->
<svg xmlns="http://www.w3.org/2000/svg" xml:space="preserve" width="36.1515mm" height="40.4257mm" version="1.1" style="shape-rendering:geometricPrecision; text-rendering:geometricPrecision; image-rendering:optimizeQuality; fill-rule:evenodd; clip-rule:evenodd"
viewBox="0 0 22.84 25.54"
 xmlns:xlink="http://www.w3.org/1999/xlink">
 <defs>
  <style type="text/css">
   <![CDATA[
    .fil0 {fill:#55ADAD;fill-rule:nonzero}
    .fil1 {fill:#59656C;fill-rule:nonzero}
   ]]>
  </style>
 </defs>
 <g id="Слой_x0020_1">
  <metadata id="CorelCorpID_0Corel-Layer"/>
  <g id="_1264025120">
   <path class="fil0" d="M9.81 20.39l0.58 0 0.01 0.23c0.01,0.31 0.02,0.65 0.07,1.01 0.05,0.36 0.12,0.75 0.26,1.2l0 0c0.06,0.19 0.17,0.32 0.29,0.38l0 0c0.05,0.03 0.11,0.04 0.16,0.05 0.05,0 0.11,-0 0.16,-0.02 0.11,-0.03 0.2,-0.11 0.27,-0.22 0.07,-0.36 0.13,-0.75 0.17,-1.14 0.04,-0.41 0.07,-0.84 0.08,-1.25l0.01 -0.23 7.5 0 3.48 5.15 -16.63 0 3.48 -5.15 0.13 0zm0.18 1.3c-0.04,-0.29 -0.06,-0.56 -0.07,-0.82l-2.83 4.19 14.85 0 -2.84 -4.2 -6.79 0c-0.01,0.36 -0.04,0.71 -0.08,1.06 -0.04,0.42 -0.11,0.84 -0.18,1.22l-0.01 0.03 -0.01 0.03c-0.13,0.26 -0.34,0.42 -0.57,0.49 -0.11,0.03 -0.22,0.04 -0.34,0.04 -0.11,-0.01 -0.23,-0.04 -0.33,-0.09 -0.24,-0.12 -0.44,-0.34 -0.54,-0.67 -0.14,-0.47 -0.22,-0.89 -0.27,-1.27z"/>
   <path class="fil1" d="M10.79 22.8c0.05,0.17 0.15,0.28 0.25,0.33l0 0c0.04,0.02 0.09,0.03 0.13,0.04 0.05,0 0.09,-0 0.13,-0.01 0.08,-0.03 0.16,-0.08 0.22,-0.18 0.2,-1.03 0.28,-2.25 0.24,-3.34 -0.04,-1 -0.19,-1.89 -0.46,-2.43l-0 -0c-0.11,-0.21 -0.33,-0.6 -0.59,-1.05 -0.56,-0.97 -1.27,-2.18 -1.31,-2.6 -0.03,-0.35 0.05,-1.59 0.17,-2.75 0.11,-1.08 0.25,-2.1 0.35,-2.31l0.15 -0.31 0.3 0.18c0.44,0.28 0.82,0.65 1.2,1.02 0.38,0.37 0.75,0.74 1.15,0.96 0.13,0.07 1.02,0.27 1.93,0.34 0.44,0.04 0.88,0.04 1.22,-0.02 0.26,-0.04 0.44,-0.11 0.47,-0.21 0.01,-0.02 0.01,-0.04 0.01,-0.07 -0.02,-0.22 -0.64,-0.37 -1.43,-0.56 -0.71,-0.17 -1.54,-0.37 -2.29,-0.75l-0.07 -0.04 -0.04 -0.06c-0.49,-0.7 -0.94,-1.28 -1.31,-1.73 -0.35,-0.42 -0.63,-0.71 -0.8,-0.84l-0 0c-0.29,-0.21 -1.2,-0.43 -2.13,-0.57 -0.86,-0.13 -1.72,-0.17 -2.09,-0.05 -0.5,0.16 -0.98,0.27 -1.44,0.37 -0.98,0.22 -1.81,0.4 -2.32,1.09 -0.17,0.23 -0.29,0.39 -0.4,0.54 -0.26,0.34 -0.51,0.68 -0.77,1.04 -0.22,0.31 -0.45,0.65 -0.56,0.94 -0.08,0.21 -0.09,0.4 0.03,0.52 0.13,0.12 0.38,-0.08 0.68,-0.38 0.27,-0.28 0.55,-0.64 0.82,-0.99l-0 -0c0.46,-0.6 0.9,-1.17 1.29,-1.32 0.12,-0.05 1.17,-0.27 2.03,-0.37 0.53,-0.06 1.02,-0.07 1.25,0.03l0.14 0.06 0.04 0.15c0.14,0.54 -0.02,1.69 -0.15,2.65 -0.05,0.39 -0.1,0.75 -0.12,1.02 -0.02,0.21 -0.04,0.43 -0.06,0.64 -0.1,0.97 -0.17,1.63 0.43,2.46 0.37,0.52 0.88,1.07 1.34,1.58 0.14,0.16 0.28,0.31 0.45,0.5 1.56,1.76 1.59,2.81 1.61,4.08 0.02,0.68 0.03,1.43 0.33,2.42l0 0zm-0.03 0.9c-0.25,-0.13 -0.47,-0.37 -0.58,-0.72 -0.32,-1.06 -0.34,-1.86 -0.36,-2.59 -0.03,-1.14 -0.05,-2.09 -1.46,-3.68 -0.11,-0.12 -0.28,-0.31 -0.45,-0.49 -0.47,-0.52 -0.98,-1.08 -1.38,-1.64 -0.74,-1.02 -0.66,-1.78 -0.54,-2.89 0.02,-0.18 0.04,-0.38 0.06,-0.62 0.02,-0.27 0.07,-0.64 0.13,-1.05 0.11,-0.79 0.24,-1.72 0.19,-2.23 -0.17,-0.01 -0.46,0.01 -0.77,0.05 -0.82,0.09 -1.77,0.29 -1.87,0.33 -0.22,0.09 -0.61,0.59 -1.02,1.12l-0 0c-0.28,0.37 -0.58,0.75 -0.86,1.05 -0.55,0.57 -1.09,0.86 -1.57,0.4 -0.35,-0.33 -0.35,-0.75 -0.19,-1.19 0.14,-0.36 0.39,-0.73 0.63,-1.08 0.27,-0.38 0.52,-0.72 0.78,-1.05 0.15,-0.2 0.3,-0.4 0.4,-0.53 0.65,-0.88 1.59,-1.09 2.69,-1.33 0.44,-0.1 0.9,-0.2 1.38,-0.36 0.47,-0.15 1.43,-0.11 2.37,0.03 1.02,0.15 2.04,0.42 2.41,0.68l-0 0c0.23,0.16 0.54,0.49 0.93,0.95 0.36,0.44 0.8,1.01 1.29,1.7 0.66,0.32 1.42,0.51 2.08,0.66 1.04,0.25 1.85,0.44 1.91,1.12l0 0c0.01,0.12 -0,0.22 -0.04,0.32 -0.12,0.36 -0.48,0.55 -0.96,0.64 -0.4,0.07 -0.89,0.07 -1.38,0.03 -0.99,-0.08 -2.01,-0.32 -2.18,-0.42 -0.48,-0.26 -0.88,-0.66 -1.29,-1.06 -0.24,-0.23 -0.48,-0.47 -0.73,-0.67 -0.06,0.4 -0.14,1.03 -0.2,1.7 -0.11,1.13 -0.2,2.32 -0.17,2.63 0.02,0.28 0.69,1.43 1.23,2.34 0.26,0.44 0.49,0.83 0.61,1.08 0.32,0.62 0.49,1.6 0.53,2.69 0.05,1.16 -0.05,2.45 -0.26,3.53l-0.01 0.04 -0.02 0.04c-0.14,0.28 -0.36,0.46 -0.62,0.53 -0.12,0.04 -0.24,0.05 -0.37,0.04 -0.12,-0.01 -0.25,-0.04 -0.36,-0.1z"/>
   <path class="fil1" d="M7.94 18.14c-0.15,-0.24 -0.4,-0.61 -0.66,-0.94 -0.16,-0.2 -0.31,-0.38 -0.45,-0.51 -0.29,0.34 -0.56,0.78 -0.81,1.2 -0.1,0.16 -0.19,0.32 -0.28,0.47 -0.73,1.15 -1.23,1.6 -2.36,2.6l-0.06 0.05 -0 -0c-0.1,0.09 -0.22,0.17 -0.34,0.27 -0.44,0.32 -1.05,0.77 -0.81,1.26 0.17,0.35 0.42,0.36 0.74,0.2 0.34,-0.16 0.76,-0.49 1.21,-0.84 0.31,-0.24 0.65,-0.5 1.01,-0.74 0.77,-0.52 1.24,-0.86 1.62,-1.25 0.38,-0.39 0.68,-0.85 1.11,-1.62l0.05 -0.09 0 0c0.01,-0.02 0.02,-0.04 0.03,-0.06zm-0.17 -1.33c0.34,0.43 0.67,0.92 0.8,1.17l0.07 0.14 -0.07 0.14c-0.04,0.08 -0.06,0.12 -0.07,0.15l-0.02 0.04 -0.03 0.06 0 0 -0.05 0.08c-0.46,0.82 -0.79,1.32 -1.21,1.75 -0.42,0.43 -0.92,0.79 -1.72,1.33 -0.33,0.22 -0.66,0.48 -0.97,0.72 -0.48,0.37 -0.92,0.71 -1.33,0.91 -0.66,0.32 -1.2,0.28 -1.58,-0.5 -0.47,-0.97 0.38,-1.59 1,-2.04 0.12,-0.09 0.23,-0.17 0.3,-0.23l0 -0 0.06 -0.05c1.08,-0.96 1.57,-1.39 2.25,-2.46 0.09,-0.15 0.18,-0.3 0.28,-0.46 0.33,-0.55 0.68,-1.14 1.12,-1.54l0.18 -0.17 0.21 0.14c0.21,0.14 0.5,0.47 0.78,0.82z"/>
   <path class="fil1" d="M7.79 2.35c0,0.26 0.05,0.49 0.13,0.7 0.09,0.24 0.22,0.45 0.37,0.61 0.32,0.35 0.79,0.53 1.27,0.53 0.22,0 0.45,-0.04 0.66,-0.11 0.21,-0.08 0.4,-0.19 0.57,-0.34 0.34,-0.3 0.56,-0.77 0.56,-1.39 0,-0.25 -0.06,-0.48 -0.15,-0.69 -0.14,-0.3 -0.37,-0.56 -0.65,-0.74 -0.28,-0.18 -0.61,-0.29 -0.96,-0.29 -0.26,0 -0.52,0.06 -0.79,0.18 -0.05,0.02 -0.15,0.09 -0.25,0.16 -0.1,0.07 -0.19,0.14 -0.23,0.19 -0.12,0.12 -0.27,0.34 -0.37,0.59 -0.09,0.2 -0.15,0.42 -0.15,0.61zm-0.46 0.92c-0.11,-0.28 -0.17,-0.59 -0.17,-0.92 0,-0.28 0.08,-0.58 0.2,-0.86 0.14,-0.32 0.33,-0.61 0.51,-0.78 0.07,-0.07 0.19,-0.17 0.32,-0.25 0.12,-0.09 0.26,-0.17 0.35,-0.21 0.36,-0.17 0.71,-0.24 1.06,-0.24 0.48,0 0.93,0.14 1.31,0.39 0.38,0.24 0.68,0.59 0.87,1 0.14,0.3 0.22,0.62 0.22,0.96 0,0.82 -0.31,1.44 -0.77,1.86 -0.23,0.2 -0.49,0.36 -0.78,0.46 -0.28,0.1 -0.58,0.15 -0.87,0.15 -0.65,0 -1.3,-0.25 -1.74,-0.74 -0.19,-0.21 -0.37,-0.49 -0.49,-0.81z"/>
  </g>
 </g>
</svg>
