<?xml version="1.0" encoding="UTF-8"?>
<!DOCTYPE svg PUBLIC "-//W3C//DTD SVG 1.1//EN" "http://www.w3.org/Graphics/SVG/1.1/DTD/svg11.dtd">
<!-- Creator: CorelDRAW 2018 (64-Bit) -->
<svg xmlns="http://www.w3.org/2000/svg" xml:space="preserve" width="28.321mm" height="37.6878mm" version="1.1" style="shape-rendering:geometricPrecision; text-rendering:geometricPrecision; image-rendering:optimizeQuality; fill-rule:evenodd; clip-rule:evenodd"
viewBox="0 0 3.23 4.3"
 xmlns:xlink="http://www.w3.org/1999/xlink">
 <defs>
  <style type="text/css">
   <![CDATA[
    .fil0 {fill:#59656C;fill-rule:nonzero}
   ]]>
  </style>
 </defs>
 <g id="Слой_x0020_1">
  <metadata id="CorelCorpID_0Corel-Layer"/>
  <path class="fil0" d="M0.56 1.01l2.12 0c0.15,0 0.29,0.06 0.39,0.16 0.1,0.1 0.16,0.24 0.16,0.39l0 2.18c0,0.15 -0.06,0.29 -0.16,0.39 -0.1,0.1 -0.24,0.16 -0.39,0.16l-2.12 0c-0.15,0 -0.29,-0.06 -0.39,-0.16 -0.1,-0.1 -0.16,-0.24 -0.16,-0.39l0 -2.18c0,-0.15 0.06,-0.29 0.16,-0.39 0.1,-0.1 0.24,-0.16 0.39,-0.16zm2.12 0.11l-2.12 0c-0.12,0 -0.23,0.05 -0.31,0.13 -0.08,0.08 -0.13,0.19 -0.13,0.31l0 2.18c0,0.12 0.05,0.23 0.13,0.31 0.08,0.08 0.19,0.13 0.31,0.13l2.12 0c0.12,0 0.23,-0.05 0.31,-0.13 0.08,-0.08 0.13,-0.19 0.13,-0.31l0 -2.18c0,-0.12 -0.05,-0.23 -0.13,-0.31 -0.08,-0.08 -0.19,-0.13 -0.31,-0.13z"/>
  <path class="fil0" d="M1.62 0c0.26,0 0.5,0.12 0.67,0.31 0.17,0.19 0.27,0.46 0.27,0.75l0 0.06 -1.88 0 0 -0.06c0,-0.29 0.1,-0.56 0.27,-0.75 0.17,-0.19 0.41,-0.31 0.67,-0.31zm0.58 0.39c-0.15,-0.17 -0.35,-0.28 -0.58,-0.28 -0.23,0 -0.43,0.11 -0.58,0.28 -0.14,0.16 -0.23,0.38 -0.24,0.62l1.65 0c-0.01,-0.24 -0.1,-0.46 -0.24,-0.62z"/>
 </g>
</svg>
