<?xml version="1.0" encoding="UTF-8"?>
<!DOCTYPE svg PUBLIC "-//W3C//DTD SVG 1.1//EN" "http://www.w3.org/Graphics/SVG/1.1/DTD/svg11.dtd">
<!-- Creator: CorelDRAW 2018 (64-Bit) -->
<svg xmlns="http://www.w3.org/2000/svg" xml:space="preserve" width="36.8062mm" height="35.5302mm" version="1.1" style="shape-rendering:geometricPrecision; text-rendering:geometricPrecision; image-rendering:optimizeQuality; fill-rule:evenodd; clip-rule:evenodd"
viewBox="0 0 5.01 4.83"
 xmlns:xlink="http://www.w3.org/1999/xlink">
 <defs>
  <style type="text/css">
   <![CDATA[
    .fil0 {fill:#59656C}
    .fil1 {fill:white;fill-rule:nonzero}
   ]]>
  </style>
 </defs>
 <g id="Слой_x0020_1">
  <metadata id="CorelCorpID_0Corel-Layer"/>
  <g id="_1931066976">
   <path class="fil0" d="M4.67 1.58l-0 0.01c-0.15,-0.4 -0.43,-0.77 -0.74,-1.03 -0.96,-0.78 -2.33,-0.72 -3.21,0.16 -0.12,0.12 -0.25,0.27 -0.33,0.41 -0.02,0.04 -0.04,0.06 -0.06,0.09 -0.17,0.27 -0.25,0.58 -0.29,0.9 -0.03,0.31 -0.03,0.51 0.04,0.82 0.06,0.3 0.2,0.59 0.36,0.83 0.44,0.63 1.18,1.04 1.97,1.04 0.56,0 1.24,-0.26 1.61,-0.62 0.1,-0.1 0.28,-0.27 0.35,-0.4 -0.04,-0.03 -0.1,-0.08 -0.15,-0.1 -0.01,0.05 -0.17,0.22 -0.21,0.28 -0.07,0.08 -0.37,0.31 -0.49,0.37 -0.19,0.1 -0.23,0.13 -0.47,0.2 -0.53,0.16 -1.08,0.1 -1.57,-0.11 -0.24,-0.11 -0.46,-0.27 -0.64,-0.46 -0.87,-0.87 -0.86,-2.27 -0.01,-3.12 0.18,-0.18 0.4,-0.36 0.64,-0.46 0.73,-0.3 1.36,-0.29 2.07,0.09 0.09,0.05 0.21,0.13 0.28,0.2 0.16,0.14 0.21,0.18 0.35,0.35 0.12,0.14 0.28,0.42 0.34,0.59 0.01,0.02 0.01,0.03 0.02,0.05l-0.02 -0.01 -0.39 -0.13c-0.05,-0.02 -0.11,0.01 -0.13,0.06l-0 0c-0.02,0.05 0.01,0.11 0.06,0.13l0.61 0.2c0,0 0.01,0 0.01,0l0 0c0.03,0.01 0.05,0.01 0.08,-0.01l0 -0 0 -0 0 0c0.03,-0.02 0.05,-0.04 0.05,-0.08l0.2 -0.6c0.02,-0.05 -0.01,-0.11 -0.06,-0.13l0 0c-0.05,-0.02 -0.11,0.01 -0.13,0.06l-0.13 0.38z"/>
   <path class="fil0" d="M1.66 3.42l0 -1.07 1.51 0 0 1.06 -1.03 0c-0.18,0 -0.3,0.01 -0.48,0.01zm0.27 -1.58c0,-0.21 0.2,-0.42 0.5,-0.42 0.25,0 0.45,0.22 0.45,0.48l0 0.27 -0.95 0 0 -0.33zm-0.18 0.04l0 0.29c-0.1,0 -0.27,-0.02 -0.27,0.12l0 1.14c0,0.08 0.04,0.15 0.12,0.15l1.58 0c0.22,0 0.16,-0.23 0.16,-0.5l-0.02 -0.83c-0.03,-0.11 -0.15,-0.08 -0.27,-0.08 0,-0.27 0.02,-0.51 -0.18,-0.72 -0.45,-0.45 -1.12,-0.1 -1.12,0.43z"/>
   <path class="fil1" d="M1.65 3.42l0 -1.09 1.53 0 0 1.09 -1.05 0c-0.09,0 -0.16,0 -0.24,0.01 -0.08,0 -0.15,0.01 -0.24,0.01l-0.01 0 0 -0.01zm0.03 -1.06l0 1.05c0.08,-0 0.15,-0 0.22,-0.01 0.08,-0 0.15,-0.01 0.24,-0.01l1.02 0 0 -1.03 -1.48 0zm0.24 -0.52c0,-0.11 0.06,-0.23 0.16,-0.31 0.09,-0.08 0.21,-0.12 0.36,-0.12 0.13,0 0.24,0.06 0.32,0.14 0.08,0.09 0.14,0.21 0.14,0.34l0 0.29 -0.98 0 0 -0.34zm0.17 -0.29c-0.09,0.08 -0.15,0.18 -0.15,0.29l0 0.31 0.92 0 0 -0.26c0,-0.12 -0.05,-0.24 -0.13,-0.33 -0.08,-0.08 -0.19,-0.14 -0.3,-0.14 -0.14,0 -0.26,0.05 -0.34,0.12zm-0.32 0.33l0 0.3 -0.04 -0c-0.01,-0 -0.02,-0 -0.04,-0 -0.09,0 -0.19,0.01 -0.19,0.11l0 1.14c0,0.04 0.01,0.08 0.03,0.1 0.02,0.02 0.04,0.03 0.08,0.03l1.58 0c0.13,0 0.16,-0.1 0.16,-0.23 0,-0.04 -0,-0.08 -0,-0.11 -0,-0.05 -0,-0.09 -0,-0.14l-0.02 -0.82c-0.02,-0.08 -0.11,-0.08 -0.2,-0.07 -0.02,0 -0.04,0 -0.06,0l-0.01 0 0 -0.09c0,-0.24 0,-0.45 -0.18,-0.63 -0.14,-0.14 -0.3,-0.2 -0.46,-0.2 -0.09,0 -0.17,0.02 -0.25,0.05 -0.08,0.03 -0.15,0.08 -0.21,0.14 -0.11,0.11 -0.19,0.26 -0.19,0.44zm-0.03 0.27l0 -0.27c0,-0.18 0.08,-0.34 0.19,-0.46 0.06,-0.06 0.14,-0.11 0.22,-0.14 0.08,-0.03 0.17,-0.05 0.26,-0.05 0.16,0 0.33,0.06 0.48,0.21 0.19,0.19 0.19,0.41 0.18,0.65l-0 0.06c0.01,-0 0.03,-0 0.04,-0 0.1,-0 0.2,-0.01 0.23,0.1l0 0c0,0.17 -0.01,0.69 0.02,0.83 0,0.05 0,0.1 0,0.14 0,0.04 0,0.08 0,0.12 0,0.15 -0.03,0.26 -0.18,0.26l-1.58 0c-0.04,0 -0.08,-0.02 -0.1,-0.04 -0.02,-0.03 -0.04,-0.07 -0.04,-0.12l0 -1.14c0,-0.12 0.12,-0.14 0.22,-0.14l0.05 0z"/>
   <g>
    <path class="fil1" d="M4.68 1.58l-0.01 0.05 -0.01 -0.04c-0.07,-0.19 -0.17,-0.38 -0.3,-0.55 -0.13,-0.18 -0.28,-0.34 -0.44,-0.47 -0.48,-0.39 -1.06,-0.57 -1.63,-0.54 -0.57,0.03 -1.13,0.26 -1.57,0.7 -0.06,0.06 -0.13,0.14 -0.19,0.21 -0.05,0.06 -0.1,0.13 -0.14,0.2 -0.01,0.02 -0.02,0.04 -0.03,0.05 -0.01,0.01 -0.02,0.03 -0.03,0.04 -0.08,0.14 -0.14,0.28 -0.19,0.43 -0.05,0.15 -0.08,0.31 -0.1,0.46 -0.01,0.15 -0.02,0.28 -0.01,0.41 0.01,0.13 0.02,0.26 0.05,0.41 0.03,0.15 0.08,0.29 0.14,0.42 0.06,0.14 0.14,0.28 0.22,0.4 0.22,0.32 0.52,0.58 0.86,0.76 0.34,0.18 0.71,0.28 1.1,0.28 0.28,0 0.59,-0.07 0.88,-0.18 0.28,-0.11 0.54,-0.26 0.72,-0.44l0.05 -0.05c0.1,-0.1 0.23,-0.23 0.29,-0.34 -0.01,-0.01 -0.02,-0.01 -0.03,-0.02 -0.03,-0.02 -0.07,-0.05 -0.1,-0.06 -0.01,0.02 -0.03,0.05 -0.06,0.09 -0.05,0.07 -0.12,0.15 -0.15,0.18 -0.04,0.04 -0.14,0.12 -0.24,0.2 -0.09,0.07 -0.19,0.14 -0.25,0.17 -0.04,0.02 -0.07,0.04 -0.1,0.05 -0.11,0.06 -0.18,0.09 -0.37,0.15 -0.26,0.08 -0.53,0.1 -0.79,0.09 -0.27,-0.02 -0.54,-0.09 -0.79,-0.2 -0.12,-0.05 -0.24,-0.12 -0.34,-0.2 -0.11,-0.08 -0.21,-0.17 -0.3,-0.26l-0 -0c-0.44,-0.44 -0.65,-1.01 -0.65,-1.58 0,-0.57 0.22,-1.14 0.65,-1.56l0 -0c0.09,-0.09 0.19,-0.18 0.3,-0.26 0.11,-0.08 0.22,-0.15 0.35,-0.2 0.37,-0.15 0.71,-0.22 1.05,-0.21 0.34,0.01 0.68,0.11 1.03,0.31 0.04,0.02 0.1,0.06 0.15,0.09 0.05,0.04 0.1,0.07 0.14,0.1l0.01 0.01c0.15,0.13 0.2,0.18 0.34,0.34 0.06,0.07 0.13,0.17 0.19,0.28 0.06,0.11 0.12,0.22 0.15,0.31l0.01 0.03 0.02 0.05c-0.14,-0.04 -0.29,-0.09 -0.43,-0.14 -0.02,-0.01 -0.05,-0.01 -0.07,0.01 -0.02,0.01 -0.04,0.03 -0.04,0.05l0.7 -0.03zm-0.3 -0.56c0.12,0.16 0.22,0.34 0.29,0.52l0.12 -0.36c0.01,-0.03 0.03,-0.05 0.06,-0.07 0.03,-0.01 0.06,-0.02 0.09,-0.01l0 0c0.03,0.01 0.05,0.03 0.07,0.06 0.01,0.03 0.02,0.06 0.01,0.09l-0.2 0.6c-0,0.02 -0.01,0.03 -0.02,0.05 -0.01,0.01 -0.02,0.03 -0.04,0.04l-0 0c-0.01,0.01 -0.03,0.01 -0.04,0.01 -0.01,0 -0.03,-0 -0.04,-0.01l-0.01 -0 -0.01 -0 -0.61 -0.2c-0.03,-0.01 -0.05,-0.03 -0.07,-0.06 -0.01,-0.03 -0.02,-0.06 -0.01,-0.09l0 -0c0.01,-0.03 0.03,-0.05 0.06,-0.06 0.03,-0.01 0.06,-0.02 0.09,-0.01l0.38 0.13 -0.01 -0.03c-0.03,-0.09 -0.08,-0.2 -0.14,-0.3 -0.06,-0.11 -0.13,-0.21 -0.19,-0.28 -0.14,-0.16 -0.19,-0.21 -0.34,-0.34l-0.01 -0.01c-0.04,-0.03 -0.08,-0.07 -0.13,-0.1 -0.05,-0.03 -0.1,-0.07 -0.14,-0.09 -0.35,-0.19 -0.68,-0.29 -1.02,-0.3 -0.34,-0.01 -0.67,0.06 -1.04,0.21 -0.12,0.05 -0.23,0.12 -0.34,0.2 -0.11,0.08 -0.21,0.17 -0.3,0.26l-0 0c-0.42,0.42 -0.64,0.98 -0.64,1.54 -0,0.56 0.21,1.13 0.64,1.56l0 0c0.09,0.09 0.19,0.18 0.3,0.26 0.11,0.08 0.22,0.15 0.34,0.2 0.25,0.11 0.51,0.18 0.78,0.2 0.26,0.02 0.52,-0.01 0.78,-0.08 0.19,-0.06 0.26,-0.09 0.37,-0.15 0.03,-0.02 0.06,-0.03 0.1,-0.05 0.06,-0.03 0.15,-0.09 0.25,-0.17 0.1,-0.08 0.2,-0.16 0.24,-0.2 0.03,-0.03 0.1,-0.11 0.15,-0.18 0.03,-0.04 0.06,-0.08 0.06,-0.09l0 -0.01 0.01 0c0.04,0.01 0.08,0.04 0.12,0.07 0.01,0.01 0.03,0.02 0.04,0.03l0.01 0.01 -0.01 0.01c-0.06,0.11 -0.2,0.25 -0.3,0.35l-0.05 0.05c-0.18,0.18 -0.44,0.34 -0.73,0.45 -0.29,0.11 -0.61,0.18 -0.89,0.18 -0.4,0 -0.78,-0.1 -1.12,-0.28 -0.35,-0.18 -0.65,-0.45 -0.87,-0.77 -0.09,-0.13 -0.16,-0.26 -0.23,-0.41 -0.06,-0.14 -0.11,-0.28 -0.14,-0.43 -0.03,-0.16 -0.05,-0.29 -0.06,-0.42 -0.01,-0.13 0,-0.26 0.01,-0.41l0 -0c0.02,-0.16 0.06,-0.32 0.1,-0.47 0.05,-0.15 0.11,-0.3 0.19,-0.44 0.01,-0.02 0.02,-0.03 0.03,-0.04 0.01,-0.01 0.02,-0.03 0.03,-0.05 0.04,-0.07 0.09,-0.14 0.14,-0.2 0.06,-0.08 0.13,-0.15 0.19,-0.21 0.44,-0.44 1.01,-0.68 1.58,-0.71 0.58,-0.03 1.16,0.15 1.65,0.54 0.16,0.13 0.31,0.29 0.44,0.47zm-0.39 0.59c-0.01,0.02 -0.01,0.05 0.01,0.07 0.01,0.02 0.03,0.04 0.05,0.04 0.21,0.07 0.41,0.14 0.62,0.2 0.01,0 0.02,0.01 0.03,0 0.01,-0 0.02,-0 0.03,-0.01l0 -0c0.01,-0.01 0.02,-0.02 0.03,-0.03 0.01,-0.01 0.01,-0.02 0.02,-0.04 0.02,-0.12 0.15,-0.46 0.2,-0.6 0.01,-0.02 0,-0.05 -0.01,-0.07 -0.01,-0.02 -0.03,-0.04 -0.05,-0.04l-0 -0c-0.02,-0.01 -0.05,-0 -0.07,0.01 -0.02,0.01 -0.04,0.03 -0.04,0.05l-0.13 0.38 -0.7 0.03z"/>
    <path class="fil1" d="M1.65 3.42l0 -1.09 1.53 0 0 1.09 -1.05 0c-0.09,0 -0.16,0 -0.24,0.01 -0.08,0 -0.15,0.01 -0.24,0.01l-0.01 0 0 -0.01zm0.03 -1.06l0 1.05c0.08,-0 0.15,-0 0.22,-0.01 0.08,-0 0.15,-0.01 0.24,-0.01l1.02 0 0 -1.03 -1.48 0zm0.24 -0.52c0,-0.11 0.06,-0.23 0.16,-0.31 0.09,-0.08 0.21,-0.12 0.36,-0.12 0.13,0 0.24,0.06 0.32,0.14 0.08,0.09 0.14,0.21 0.14,0.34l0 0.29 -0.98 0 0 -0.34zm0.17 -0.29c-0.09,0.08 -0.15,0.18 -0.15,0.29l0 0.31 0.92 0 0 -0.26c0,-0.12 -0.05,-0.24 -0.13,-0.33 -0.08,-0.08 -0.19,-0.14 -0.3,-0.14 -0.14,0 -0.26,0.05 -0.34,0.12zm-0.32 0.33l0 0.3 -0.04 -0c-0.01,-0 -0.02,-0 -0.04,-0 -0.09,0 -0.19,0.01 -0.19,0.11l0 1.14c0,0.04 0.01,0.08 0.03,0.1 0.02,0.02 0.04,0.03 0.08,0.03l1.58 0c0.13,0 0.16,-0.1 0.16,-0.23 0,-0.04 -0,-0.08 -0,-0.11 -0,-0.05 -0,-0.09 -0,-0.14l-0.02 -0.82c-0.02,-0.08 -0.11,-0.08 -0.2,-0.07 -0.02,0 -0.04,0 -0.06,0l-0.01 0 0 -0.09c0,-0.24 0,-0.45 -0.18,-0.63 -0.14,-0.14 -0.3,-0.2 -0.46,-0.2 -0.09,0 -0.17,0.02 -0.25,0.05 -0.08,0.03 -0.15,0.08 -0.21,0.14 -0.11,0.11 -0.19,0.26 -0.19,0.44zm-0.03 0.27l0 -0.27c0,-0.18 0.08,-0.34 0.19,-0.46 0.06,-0.06 0.14,-0.11 0.22,-0.14 0.08,-0.03 0.17,-0.05 0.26,-0.05 0.16,0 0.33,0.06 0.48,0.21 0.19,0.19 0.19,0.41 0.18,0.65l-0 0.06c0.01,-0 0.03,-0 0.04,-0 0.1,-0 0.2,-0.01 0.23,0.1l0 0c0,0.17 -0.01,0.69 0.02,0.83 0,0.05 0,0.1 0,0.14 0,0.04 0,0.08 0,0.12 0,0.15 -0.03,0.26 -0.18,0.26l-1.58 0c-0.04,0 -0.08,-0.02 -0.1,-0.04 -0.02,-0.03 -0.04,-0.07 -0.04,-0.12l0 -1.14c0,-0.12 0.12,-0.14 0.22,-0.14l0.05 0z"/>
    <path class="fil1" d="M1.64 3.42l0 -1.1 1.56 0 0 1.11 -1.06 0c-0.09,0 -0.16,0 -0.24,0.01l-0 0c-0.08,0 -0.15,0.01 -0.24,0.01l-0.03 0 0 -0.03zm0.03 -0c0.07,0 0.12,-0 0.18,-0 -0.05,0 -0.11,0 -0.17,0l-0.01 0zm0.24 -0.01l0.02 -0 -0.03 0 0 -0zm-0.21 -1.04l0 1.02c0.07,-0 0.14,-0 0.21,-0.01l0 -0c0.08,-0 0.15,-0.01 0.24,-0.01l1 0 0 -1 -1.45 0zm0.22 -0.53c0,-0.06 0.01,-0.12 0.04,-0.17 0.03,-0.05 0.07,-0.11 0.12,-0.15 0.05,-0.04 0.1,-0.07 0.17,-0.09 0.06,-0.02 0.13,-0.03 0.2,-0.03 0.06,0 0.12,0.01 0.18,0.04 0.06,0.03 0.11,0.06 0.15,0.11 0.04,0.05 0.08,0.1 0.1,0.16 0.02,0.06 0.04,0.12 0.04,0.19l0 0.3 -1 0 0 -0.35zm0.07 -0.16c-0.02,0.04 -0.03,0.08 -0.04,0.12 0.01,-0.04 0.02,-0.08 0.04,-0.12 0.02,-0.05 0.06,-0.09 0.11,-0.13 -0.05,0.04 -0.08,0.09 -0.11,0.13zm0.27 -0.23c-0.05,0.02 -0.1,0.05 -0.14,0.08 0.04,-0.03 0.09,-0.06 0.15,-0.08 0.04,-0.02 0.09,-0.03 0.15,-0.03l-0.15 0.03zm0.19 -0.03c-0.01,0 -0.03,0 -0.04,0 0.01,-0 0.03,-0 0.04,-0zm0.17 0.04c-0.04,-0.02 -0.09,-0.03 -0.14,-0.04 0.05,0 0.1,0.02 0.14,0.04 0.05,0.02 0.1,0.06 0.14,0.1 -0.04,-0.04 -0.09,-0.07 -0.14,-0.1zm-0.14 -0.04c-0.01,-0 -0.01,-0 -0.02,-0 0.01,0 0.01,0 0.02,0zm0.39 0.29c-0.02,-0.06 -0.06,-0.11 -0.1,-0.15 0.04,0.04 0.07,0.1 0.1,0.15 0.02,0.06 0.03,0.12 0.03,0.18 -0,-0.06 -0.01,-0.12 -0.03,-0.18zm-0.75 -0.15c-0.04,0.04 -0.08,0.08 -0.1,0.13 -0.02,0.05 -0.04,0.1 -0.04,0.15l0 0.3 0.9 0 0 -0.24c0,-0.06 -0.01,-0.12 -0.03,-0.17 -0.02,-0.05 -0.05,-0.1 -0.09,-0.15 -0.04,-0.04 -0.09,-0.07 -0.14,-0.1 -0.05,-0.02 -0.1,-0.03 -0.16,-0.03 -0.07,0 -0.13,0.01 -0.18,0.03 -0.06,0.02 -0.11,0.05 -0.15,0.09zm-0.32 0.32l0 0.31 -0.09 -0c-0.04,0 -0.09,0 -0.12,0.02 -0.03,0.01 -0.05,0.04 -0.05,0.08l0 1.14c0,0.02 0,0.04 0.01,0.05 0,0.01 0.01,0.03 0.02,0.04 0.01,0.01 0.02,0.02 0.03,0.02 0.01,0 0.02,0.01 0.04,0.01l1.58 0c0.06,0 0.1,-0.02 0.12,-0.06 0.02,-0.04 0.03,-0.09 0.03,-0.16 0,-0.04 -0,-0.07 -0,-0.11l-0 -0c-0,-0.05 -0,-0.09 -0,-0.14l-0.02 -0.82c-0.01,-0.03 -0.03,-0.05 -0.06,-0.06 -0.03,-0.01 -0.08,-0.01 -0.12,-0.01l-0 0c-0.02,0 -0.04,0 -0.05,0l-0.03 0 0 -0.1c0,-0.12 0,-0.23 -0.02,-0.34 -0.02,-0.1 -0.06,-0.2 -0.15,-0.29 -0.07,-0.07 -0.14,-0.12 -0.21,-0.15 -0.08,-0.03 -0.16,-0.05 -0.24,-0.05 -0.04,0 -0.08,0 -0.12,0.01 -0.04,0.01 -0.08,0.02 -0.12,0.04 -0.04,0.02 -0.07,0.04 -0.11,0.06 -0.03,0.02 -0.07,0.05 -0.1,0.08 -0.06,0.06 -0.1,0.12 -0.13,0.2 -0.03,0.07 -0.05,0.15 -0.05,0.23zm-0.09 0.28l0.01 0 -0.01 -0zm-0.13 0.02c0.04,-0.01 0.08,-0.02 0.12,-0.02 -0.05,0 -0.09,0 -0.13,0.02 -0.04,0.02 -0.06,0.04 -0.06,0.1 0,-0.05 0.03,-0.08 0.07,-0.1zm-0.06 1.31c-0,-0.01 -0.01,-0.03 -0.01,-0.05 0,0.02 0,0.03 0.01,0.05 0,0.01 0.01,0.03 0.02,0.04 -0.01,-0.01 -0.01,-0.02 -0.02,-0.04zm0.06 0.08c-0.01,-0.01 -0.03,-0.02 -0.04,-0.03 0.01,0.01 0.02,0.02 0.04,0.03 0.01,0.01 0.03,0.01 0.05,0.01 -0.02,-0 -0.04,-0 -0.05,-0.01zm1.77 -0.06c-0.02,0.04 -0.07,0.07 -0.14,0.07 0.07,-0 0.11,-0.02 0.14,-0.07 0.02,-0.04 0.03,-0.1 0.03,-0.17 -0,0.06 -0.01,0.12 -0.03,0.16zm0.03 -0.27c0,0.03 0,0.06 0,0.08 -0,-0.02 -0,-0.03 -0,-0.05l-0 -0.04zm-0 -0.03l0 0 -0 -0.03 0 0.03zm-0.02 -0.96l0 0c-0.02,-0.08 -0.1,-0.09 -0.19,-0.09 0.04,-0 0.07,-0 0.1,0.01 0.04,0.01 0.07,0.03 0.08,0.08zm-0.22 -0.08l0 -0 -0.02 0 0.02 -0zm-0.05 0l0.03 -0 -0.03 0zm-0.02 -0.42c0.02,0.08 0.02,0.16 0.02,0.24 -0,-0.19 -0.02,-0.35 -0.14,-0.51 0.07,0.08 0.1,0.17 0.12,0.26zm-0.38 -0.46c0.03,0.01 0.06,0.03 0.1,0.05 -0.03,-0.02 -0.06,-0.04 -0.1,-0.05 -0.06,-0.03 -0.13,-0.04 -0.19,-0.05 0.07,0.01 0.13,0.02 0.19,0.05zm0.1 0.06l0.02 0.01 -0.02 -0.01zm0.02 0.01l0.01 0.01 -0.01 -0.01zm-0.33 -0.12l0.01 0 -0.01 -0zm-0.17 0.01c0.04,-0.01 0.08,-0.01 0.13,-0.01 -0.04,0 -0.08,0 -0.13,0.01 -0.01,0 -0.03,0.01 -0.04,0.01 0.01,-0 0.02,-0.01 0.04,-0.01zm-0.48 0.39c0.02,-0.04 0.04,-0.08 0.06,-0.11 -0.02,0.04 -0.05,0.07 -0.06,0.11 -0.03,0.06 -0.04,0.13 -0.05,0.2 0,-0.07 0.02,-0.14 0.05,-0.2zm0.12 -0.18l0.01 -0.01 -0.01 0.01zm-0.17 0.41l0 -0.02 -0 0.02zm-0.03 0.27l0 -0.26c0,-0.09 0.02,-0.17 0.05,-0.25 0.03,-0.08 0.09,-0.15 0.15,-0.21 0.03,-0.03 0.07,-0.06 0.1,-0.08 0.04,-0.02 0.08,-0.05 0.12,-0.06 0.04,-0.02 0.08,-0.03 0.13,-0.04 0.04,-0.01 0.09,-0.01 0.13,-0.01 0.09,0 0.18,0.02 0.26,0.06 0.08,0.04 0.16,0.09 0.23,0.16 0.19,0.19 0.19,0.41 0.19,0.66l-0 0.05c0.01,-0 0.02,0 0.03,-0 0.11,-0 0.21,-0.01 0.24,0.11l0 0 0 0c0,0.05 0,0.12 0,0.21 -0,0.22 -0,0.52 0.02,0.62l0 0c0,0.05 0,0.1 0,0.14l0 0.06c0,0.02 0,0.04 0,0.06 0,0.08 -0.01,0.15 -0.03,0.19 -0.03,0.05 -0.08,0.08 -0.16,0.08l-1.58 0c-0.02,0 -0.04,-0 -0.06,-0.01 -0.02,-0.01 -0.04,-0.02 -0.05,-0.04 -0.01,-0.02 -0.02,-0.04 -0.03,-0.06 -0.01,-0.02 -0.01,-0.05 -0.01,-0.07l0 -1.14c0,-0.07 0.03,-0.11 0.08,-0.13 0.04,-0.02 0.1,-0.02 0.15,-0.02l0.04 0z"/>
   </g>
  </g>
 </g>
</svg>
