<?xml version="1.0" encoding="UTF-8"?>
<!DOCTYPE svg PUBLIC "-//W3C//DTD SVG 1.1//EN" "http://www.w3.org/Graphics/SVG/1.1/DTD/svg11.dtd">
<!-- Creator: CorelDRAW 2018 (64-Bit) -->
<svg xmlns="http://www.w3.org/2000/svg" xml:space="preserve" width="47.6992mm" height="39.4216mm" version="1.1" style="shape-rendering:geometricPrecision; text-rendering:geometricPrecision; image-rendering:optimizeQuality; fill-rule:evenodd; clip-rule:evenodd"
viewBox="0 0 9.06 7.49"
 xmlns:xlink="http://www.w3.org/1999/xlink">
 <defs>
  <style type="text/css">
   <![CDATA[
    .fil0 {fill:white}
    .fil1 {fill:#59656C;fill-rule:nonzero}
   ]]>
  </style>
 </defs>
 <g id="Слой_x0020_1">
  <metadata id="CorelCorpID_0Corel-Layer"/>
  <g id="_1756770400">
   <path class="fil0" d="M0.89 1.37c-0.07,-0.12 -0.13,-0.18 -0.31,-0.18 -0.13,0 -0.3,0.02 -0.38,0.09 -0.09,0.08 -0.1,0.25 -0.01,0.33 0.05,0.04 0.24,0.13 0.33,0.15 -0.03,0.04 -0.04,0.03 -0.09,0.09 -0.39,0.42 -0.39,0.81 -0.25,1.4 0.05,0.2 0.12,0.32 0.12,0.53 -0,0.48 -0.06,0.78 0.54,0.77 0.18,-0 0.47,0.03 0.61,-0.06 0.21,-0.15 0.16,-0.36 0.18,-0.47 0.22,-0.01 0.58,0.01 0.81,0.02l1.23 0 0.01 -0.48 0.59 -0.37 0.7 -0.12 0 0c-0.08,-0 -0.15,-0.02 -0.2,-0.07 -0.07,-0.07 -0.11,-0.26 -0.03,-0.36 0.06,-0.08 0.88,-0.4 1.05,-0.22 0.08,0.09 0.11,0.22 0.07,0.37 -0.09,0.33 -0.34,0.28 -0.68,0.28 -0.05,0 -0.11,0 -0.17,0l1.38 0.03c0.19,-1.02 -0.26,-1.17 -0.37,-1.34 0.09,-0.02 0.29,-0.11 0.34,-0.16 0.09,-0.1 0.07,-0.26 -0.03,-0.33 -0.08,-0.06 -0.28,-0.09 -0.39,-0.08 -0.17,0 -0.23,0.07 -0.29,0.18 -0.09,-0.15 -0.19,-0.44 -0.28,-0.63 -0.09,-0.2 -0.26,-0.4 -0.44,-0.48 -0.5,-0.23 -2.92,-0.22 -3.34,0 -0.19,0.1 -0.34,0.26 -0.44,0.48 -0.09,0.19 -0.18,0.47 -0.28,0.63zm-0.21 1.39c0.09,0.35 0.28,0.31 0.63,0.31 0.13,0 0.34,0.03 0.44,-0.05 0.08,-0.06 0.14,-0.22 0.08,-0.35 -0.07,-0.14 -0.88,-0.4 -1.05,-0.28 -0.09,0.06 -0.15,0.21 -0.11,0.36zm0.55 -1.12c0.75,-0.02 1.48,-0.08 2.24,-0.07 0.63,0 1.24,0.06 1.86,0.07 -0.11,-0.38 -0.24,-0.87 -0.6,-1.07 -0.36,-0.2 -2.47,-0.2 -2.85,-0 -0.31,0.16 -0.54,0.75 -0.64,1.08z"/>
   <path class="fil1" d="M0.81 1.42c-0.03,-0.05 -0.05,-0.08 -0.08,-0.1 -0.03,-0.02 -0.07,-0.03 -0.14,-0.03 -0.06,0 -0.13,0.01 -0.19,0.02 -0.05,0.01 -0.1,0.03 -0.13,0.05l-0 0c-0.02,0.02 -0.03,0.06 -0.03,0.09 -0,0.03 0.01,0.07 0.03,0.09l0 0.01c0.01,0.01 0.06,0.04 0.11,0.06 0.06,0.03 0.13,0.06 0.17,0.06l0.14 0.03 -0.08 0.12c-0.02,0.03 -0.04,0.05 -0.06,0.06 -0.01,0.01 -0.02,0.02 -0.04,0.03 -0.18,0.19 -0.27,0.38 -0.3,0.58 -0.03,0.21 0,0.44 0.07,0.73 0.02,0.06 0.03,0.12 0.05,0.18 0.04,0.12 0.07,0.22 0.07,0.37 -0,0.04 -0,0.08 -0,0.12 -0,0.05 -0,0.09 -0,0.13 0,0.27 0.04,0.43 0.45,0.43 0.04,-0 0.08,0 0.12,0 0.16,0.01 0.35,0.01 0.44,-0.05 0.12,-0.08 0.13,-0.21 0.13,-0.3 0,-0.04 0,-0.08 0.01,-0.11l0.02 -0.07 0.07 -0c0.17,-0.01 0.43,0 0.64,0.01 0.07,0 0.13,0.01 0.17,0.01l0 -0 1.14 0 0.01 -0.43 0.65 -0.41 0.44 -0.08c-0.03,-0.05 -0.06,-0.13 -0.07,-0.2 -0.01,-0.09 0.01,-0.17 0.06,-0.24 0,-0 0.01,-0.01 0.01,-0.01 0.05,-0.05 0.28,-0.16 0.52,-0.23 0.25,-0.07 0.52,-0.11 0.65,-0.01 0.01,0 0.01,0.01 0.02,0.02l0 -0c0.05,0.06 0.09,0.13 0.11,0.21 0.02,0.08 0.01,0.16 -0.01,0.25 -0.02,0.08 -0.05,0.13 -0.08,0.18l0.44 0.01c0.12,-0.71 -0.12,-0.94 -0.26,-1.08 -0.04,-0.04 -0.08,-0.08 -0.11,-0.12l-0.07 -0.11 0.13 -0.03c0.04,-0.01 0.12,-0.04 0.18,-0.07 0.05,-0.02 0.09,-0.05 0.11,-0.06l0.01 -0.01c0.02,-0.03 0.03,-0.06 0.02,-0.09 -0,-0.03 -0.02,-0.06 -0.04,-0.08l-0 0 -0.01 -0.01c-0.02,-0.02 -0.07,-0.03 -0.12,-0.04 -0.08,-0.02 -0.16,-0.02 -0.21,-0.02 -0.07,0 -0.11,0.01 -0.13,0.03 -0.03,0.02 -0.05,0.06 -0.08,0.1l-0.08 0.14 -0.08 -0.14c-0.07,-0.11 -0.13,-0.27 -0.2,-0.43 -0.03,-0.08 -0.06,-0.15 -0.09,-0.21 -0.04,-0.09 -0.1,-0.19 -0.18,-0.27 -0.07,-0.07 -0.14,-0.13 -0.21,-0.17 -0.23,-0.11 -0.94,-0.16 -1.64,-0.16 -0.71,0 -1.42,0.05 -1.62,0.16l-0 -0c-0.09,0.05 -0.16,0.1 -0.23,0.18 -0.07,0.07 -0.12,0.16 -0.17,0.26 -0.03,0.06 -0.06,0.13 -0.09,0.21 -0.06,0.15 -0.13,0.32 -0.2,0.43l-0.08 0.14 -0.08 -0.14zm0.02 -0.26c0.02,0.01 0.03,0.02 0.05,0.04 0.04,-0.08 0.08,-0.18 0.11,-0.27 0.03,-0.07 0.06,-0.15 0.09,-0.22 0.05,-0.12 0.12,-0.22 0.2,-0.31 0.08,-0.09 0.17,-0.16 0.28,-0.22l0 -0c0.23,-0.12 0.96,-0.18 1.7,-0.18 0.73,-0 1.46,0.06 1.72,0.18 0.1,0.05 0.19,0.12 0.27,0.21 0.09,0.09 0.16,0.2 0.21,0.32 0.03,0.06 0.06,0.14 0.09,0.21 0.04,0.09 0.08,0.19 0.11,0.27 0.01,-0.01 0.02,-0.02 0.04,-0.03 0.06,-0.04 0.13,-0.06 0.24,-0.06 0.07,-0 0.17,0.01 0.25,0.03 0.08,0.02 0.15,0.04 0.19,0.07 0.01,0.01 0.02,0.01 0.02,0.02l0 0c0.06,0.05 0.09,0.13 0.1,0.21 0.01,0.08 -0.01,0.16 -0.06,0.22 -0.01,0.01 -0.01,0.02 -0.02,0.02 -0.03,0.03 -0.1,0.07 -0.17,0.11 -0.02,0.01 -0.05,0.02 -0.07,0.03 0.18,0.17 0.46,0.46 0.29,1.32l-0.02 0.08 -1.46 -0.03 0 -0.19 0 0c0.02,-0 0.05,-0 0.08,-0 0.03,-0 0.06,-0 0.09,-0l0 -0c0.03,0 0.08,0 0.13,0 0.23,0.01 0.4,0.01 0.46,-0.21 0.02,-0.06 0.02,-0.11 0.01,-0.16 -0.01,-0.05 -0.03,-0.09 -0.06,-0.12l0 -0 -0 -0c-0.07,-0.05 -0.27,-0.02 -0.47,0.04 -0.21,0.06 -0.4,0.14 -0.44,0.18 -0.02,0.02 -0.02,0.06 -0.02,0.1 0.01,0.05 0.02,0.11 0.05,0.13 0.01,0.01 0.03,0.02 0.05,0.03 0.02,0.01 0.05,0.01 0.08,0.01l0.01 0 -0 0.11 0.01 0.08 -0.68 0.12 -0.53 0.34 -0.01 0.52 -1.32 0 -0 -0c-0.06,-0 -0.12,-0.01 -0.18,-0.01 -0.18,-0.01 -0.39,-0.02 -0.54,-0.02l-0 0.01c-0.01,0.13 -0.01,0.31 -0.22,0.45 -0.14,0.09 -0.36,0.09 -0.55,0.08 -0.04,-0 -0.08,-0 -0.12,-0 -0.57,0 -0.63,-0.23 -0.64,-0.62 -0,-0.04 0,-0.09 0,-0.13 0,-0.04 0,-0.08 0,-0.12 0,-0.12 -0.03,-0.21 -0.06,-0.31 -0.02,-0.06 -0.04,-0.12 -0.06,-0.19 -0.07,-0.3 -0.11,-0.56 -0.07,-0.8 0.03,-0.24 0.13,-0.45 0.33,-0.67 -0.02,-0.01 -0.04,-0.02 -0.05,-0.02 -0.07,-0.03 -0.14,-0.07 -0.17,-0.1 -0.01,-0.01 -0.01,-0.01 -0.02,-0.02 -0.06,-0.06 -0.08,-0.15 -0.07,-0.23 0,-0.08 0.03,-0.16 0.09,-0.21 0.01,-0.01 0.01,-0.01 0.02,-0.02 0.06,-0.05 0.14,-0.08 0.22,-0.1 0.07,-0.01 0.15,-0.02 0.22,-0.02 0.11,-0 0.19,0.02 0.25,0.06zm-0.06 1.59c0.06,0.25 0.2,0.25 0.45,0.24l0.1 -0c0.02,0 0.06,0 0.09,0 0.11,0 0.24,0.01 0.29,-0.03 0.03,-0.02 0.05,-0.06 0.06,-0.11 0.01,-0.04 0.01,-0.08 -0.01,-0.12 -0.04,-0.05 -0.23,-0.13 -0.43,-0.19 -0.2,-0.06 -0.4,-0.09 -0.47,-0.06l-0 0c-0.03,0.02 -0.05,0.06 -0.07,0.11l0 0c-0.01,0.05 -0.02,0.1 -0,0.15zm0.45 0.43c-0.34,0 -0.53,0.01 -0.63,-0.38 -0.02,-0.09 -0.02,-0.18 0,-0.25 0.03,-0.09 0.08,-0.16 0.14,-0.21 0.01,-0.01 0.02,-0.01 0.03,-0.02 0.12,-0.06 0.37,-0.02 0.61,0.04 0.24,0.07 0.47,0.17 0.53,0.26l0 0c0.01,0.01 0.01,0.02 0.02,0.02 0.04,0.08 0.04,0.17 0.02,0.25 -0.02,0.09 -0.07,0.17 -0.13,0.22 -0.1,0.08 -0.27,0.07 -0.41,0.07 -0.03,-0 -0.05,-0 -0.09,-0 -0.07,0 -0.08,0 -0.1,0zm0.14 -1.63c0.26,-0.01 0.51,-0.02 0.77,-0.03 0.44,-0.02 0.88,-0.04 1.34,-0.04 0.38,0 0.74,0.02 1.11,0.04 0.21,0.01 0.42,0.02 0.62,0.03 -0.1,-0.34 -0.23,-0.73 -0.52,-0.89 -0.17,-0.09 -0.77,-0.14 -1.37,-0.14 -0.61,-0 -1.21,0.05 -1.39,0.14 -0.11,0.06 -0.21,0.18 -0.3,0.33 -0.11,0.18 -0.19,0.39 -0.25,0.56zm0.78 0.16c-0.3,0.01 -0.6,0.03 -0.91,0.03l-0.13 0 0.04 -0.13c0.06,-0.2 0.17,-0.49 0.31,-0.73 0.11,-0.18 0.23,-0.33 0.38,-0.4 0.21,-0.11 0.84,-0.16 1.47,-0.16 0.63,0 1.27,0.05 1.46,0.16 0.39,0.21 0.53,0.71 0.64,1.1l0.05 0.16 -0.13 -0c-0.26,-0.01 -0.51,-0.02 -0.75,-0.03 -0.36,-0.02 -0.73,-0.04 -1.1,-0.04 -0.45,-0 -0.89,0.02 -1.33,0.04z"/>
   <path class="fil0" d="M3.4 4.2c-0.07,-0.12 -0.13,-0.18 -0.31,-0.18 -0.13,0 -0.3,0.02 -0.38,0.09 -0.09,0.08 -0.1,0.25 -0.01,0.33 0.05,0.04 0.24,0.13 0.33,0.15 -0.03,0.04 -0.04,0.03 -0.09,0.09 -0.39,0.42 -0.39,0.81 -0.25,1.4 0.05,0.2 0.12,0.32 0.12,0.53 -0,0.48 -0.06,0.78 0.54,0.77 0.18,-0 0.47,0.03 0.61,-0.06 0.21,-0.15 0.16,-0.36 0.18,-0.47 0.22,-0.01 0.58,0.01 0.81,0.02l1.66 0c0.23,-0.01 0.59,-0.04 0.81,-0.02 0.03,0.12 -0.03,0.33 0.19,0.47 0.14,0.09 0.8,0.07 0.92,0.02 0.28,-0.13 0.22,-0.48 0.22,-0.74 -0,-0.22 0.08,-0.33 0.13,-0.54 0.26,-1.13 -0.23,-1.29 -0.34,-1.47 0.09,-0.02 0.29,-0.11 0.34,-0.16 0.09,-0.1 0.07,-0.26 -0.03,-0.33 -0.08,-0.06 -0.28,-0.09 -0.39,-0.08 -0.17,0 -0.23,0.07 -0.29,0.18 -0.09,-0.15 -0.19,-0.44 -0.28,-0.63 -0.09,-0.2 -0.26,-0.4 -0.44,-0.48 -0.5,-0.23 -2.92,-0.22 -3.34,0 -0.48,0.25 -0.47,0.7 -0.72,1.11zm4.98 1.43c0.04,-0.14 0.01,-0.28 -0.07,-0.37 -0.17,-0.18 -0.99,0.15 -1.05,0.22 -0.08,0.09 -0.03,0.29 0.03,0.36 0.09,0.09 0.26,0.07 0.42,0.07 0.34,-0 0.59,0.06 0.68,-0.28zm-5.19 -0.03c0.09,0.35 0.28,0.31 0.63,0.31 0.13,0 0.34,0.03 0.44,-0.05 0.08,-0.06 0.14,-0.22 0.08,-0.35 -0.07,-0.14 -0.88,-0.4 -1.05,-0.28 -0.09,0.06 -0.15,0.21 -0.11,0.36zm0.59 -1.12c0.37,-0.01 0.73,-0.05 1.1,-0.06 0.63,-0.02 1.19,-0 1.81,0 0.37,0 0.73,0.04 1.1,0.05 -0.12,-0.41 -0.27,-0.79 -0.64,-1 -0.36,-0.2 -2.35,-0.2 -2.74,-0 -0.37,0.19 -0.52,0.61 -0.64,1z"/>
   <path class="fil1" d="M3.32 4.25c-0.03,-0.05 -0.05,-0.08 -0.08,-0.1 -0.03,-0.02 -0.07,-0.03 -0.14,-0.03 -0.06,0 -0.13,0.01 -0.19,0.02 -0.05,0.01 -0.1,0.03 -0.13,0.05l-0 0c-0.02,0.02 -0.03,0.06 -0.03,0.09 -0,0.03 0.01,0.07 0.03,0.09l0 0.01c0.01,0.01 0.06,0.04 0.11,0.06 0.06,0.03 0.13,0.06 0.17,0.06l0.14 0.03 -0.08 0.12c-0.02,0.03 -0.04,0.05 -0.06,0.06 -0.01,0.01 -0.02,0.02 -0.04,0.03 -0.18,0.19 -0.27,0.38 -0.3,0.58 -0.03,0.21 0,0.44 0.07,0.73 0.02,0.06 0.03,0.12 0.05,0.18 0.04,0.12 0.07,0.22 0.07,0.37 -0,0.04 -0,0.08 -0,0.12 -0,0.05 -0,0.09 -0,0.13 0,0.27 0.04,0.43 0.45,0.43 0.04,-0 0.08,0 0.12,0 0.16,0.01 0.35,0.01 0.44,-0.05 0.12,-0.08 0.13,-0.21 0.13,-0.3 0,-0.04 0,-0.08 0.01,-0.11l0.02 -0.07 0.07 -0c0.17,-0.01 0.43,0 0.64,0.01 0.07,0 0.13,0.01 0.17,0.01l0 -0 1.66 0 0 0c0.04,-0 0.09,-0 0.15,-0.01 0.22,-0.01 0.49,-0.03 0.67,-0.01l0.07 0 0.02 0.07c0.01,0.04 0.01,0.07 0.01,0.11 0.01,0.1 0.01,0.22 0.14,0.3 0.05,0.03 0.19,0.04 0.35,0.05 0.21,0 0.42,-0.01 0.47,-0.04 0.18,-0.08 0.18,-0.32 0.17,-0.54 -0,-0.04 -0,-0.08 -0,-0.12 -0,-0.16 0.03,-0.26 0.07,-0.38 0.02,-0.06 0.04,-0.12 0.06,-0.19 0.2,-0.87 -0.06,-1.13 -0.22,-1.28 -0.04,-0.04 -0.08,-0.08 -0.11,-0.12l-0.07 -0.11 0.13 -0.03c0.04,-0.01 0.12,-0.04 0.18,-0.07 0.05,-0.02 0.09,-0.05 0.11,-0.06 0,-0 0,-0.01 0.01,-0.01 0.02,-0.03 0.03,-0.06 0.02,-0.09 -0,-0.03 -0.02,-0.06 -0.04,-0.08l-0 0 -0.01 -0.01c-0.02,-0.02 -0.07,-0.03 -0.12,-0.04 -0.08,-0.02 -0.16,-0.02 -0.21,-0.02 -0.07,0 -0.11,0.01 -0.13,0.03 -0.03,0.02 -0.05,0.06 -0.08,0.1l-0.08 0.14 -0.08 -0.14c-0.07,-0.11 -0.13,-0.27 -0.2,-0.43 -0.03,-0.08 -0.06,-0.15 -0.09,-0.21 -0.04,-0.09 -0.1,-0.19 -0.18,-0.27 -0.07,-0.07 -0.14,-0.13 -0.21,-0.17 -0.23,-0.11 -0.94,-0.16 -1.64,-0.16 -0.71,0 -1.42,0.05 -1.62,0.16l-0 -0c-0.29,0.15 -0.39,0.4 -0.49,0.66 -0.05,0.14 -0.11,0.28 -0.19,0.41l-0.08 0.14 -0.08 -0.14zm0.02 -0.26c0.02,0.01 0.03,0.02 0.05,0.04 0.04,-0.08 0.07,-0.17 0.11,-0.26 0.11,-0.29 0.22,-0.57 0.57,-0.76l0 -0c0.23,-0.12 0.96,-0.18 1.7,-0.18 0.73,-0 1.46,0.06 1.72,0.18 0.1,0.05 0.19,0.12 0.27,0.21 0.08,0.09 0.16,0.2 0.21,0.32 0.03,0.06 0.06,0.14 0.09,0.21 0.04,0.09 0.08,0.19 0.11,0.27 0.01,-0.01 0.02,-0.02 0.04,-0.03 0.06,-0.04 0.13,-0.06 0.24,-0.06 0.07,-0 0.17,0.01 0.25,0.03 0.08,0.02 0.15,0.04 0.19,0.07 0.01,0.01 0.02,0.01 0.02,0.02l0 0c0.06,0.05 0.09,0.13 0.1,0.21 0.01,0.08 -0.01,0.16 -0.06,0.22 -0.01,0.01 -0.01,0.02 -0.02,0.02 -0.03,0.03 -0.1,0.07 -0.17,0.11 -0.02,0.01 -0.05,0.02 -0.07,0.03 0.19,0.18 0.49,0.49 0.27,1.45 -0.02,0.08 -0.04,0.15 -0.06,0.21 -0.03,0.1 -0.06,0.19 -0.06,0.32 0,0.03 0,0.07 0,0.11 0.01,0.27 0.02,0.58 -0.28,0.71 -0.08,0.03 -0.33,0.06 -0.55,0.05 -0.19,-0 -0.38,-0.03 -0.45,-0.08 -0.21,-0.14 -0.22,-0.31 -0.23,-0.45l-0 -0.01c-0.17,-0 -0.39,0.01 -0.57,0.02 -0.05,0 -0.1,0.01 -0.15,0.01l-0 0 -1.66 0 -0 -0c-0.06,-0 -0.12,-0.01 -0.18,-0.01 -0.18,-0.01 -0.39,-0.02 -0.54,-0.02l-0 0.01c-0.01,0.13 -0.01,0.31 -0.22,0.45 -0.14,0.09 -0.36,0.09 -0.55,0.08 -0.04,-0 -0.08,-0 -0.12,-0 -0.57,0 -0.63,-0.23 -0.64,-0.62 -0,-0.04 0,-0.09 0,-0.13 0,-0.04 0,-0.08 0,-0.12 0,-0.12 -0.03,-0.21 -0.06,-0.31 -0.02,-0.06 -0.04,-0.12 -0.06,-0.19 -0.07,-0.3 -0.11,-0.56 -0.07,-0.8 0.03,-0.24 0.13,-0.45 0.33,-0.67 -0.02,-0.01 -0.04,-0.02 -0.05,-0.02 -0.07,-0.03 -0.14,-0.07 -0.17,-0.1 -0.01,-0.01 -0.01,-0.01 -0.02,-0.02 -0.06,-0.06 -0.08,-0.15 -0.07,-0.23 0,-0.08 0.03,-0.16 0.09,-0.21 0.01,-0.01 0.01,-0.01 0.02,-0.02 0.06,-0.05 0.14,-0.08 0.22,-0.1 0.07,-0.01 0.15,-0.02 0.22,-0.02 0.11,-0 0.19,0.02 0.25,0.06zm4.94 1.62c0.02,-0.06 0.02,-0.11 0.01,-0.16l0 -0c-0.01,-0.05 -0.03,-0.09 -0.06,-0.12l-0 -0c-0.07,-0.05 -0.27,-0.02 -0.47,0.04 -0.21,0.06 -0.4,0.14 -0.44,0.18 -0.02,0.02 -0.02,0.06 -0.02,0.1 0.01,0.05 0.02,0.11 0.05,0.13 0.04,0.05 0.15,0.04 0.26,0.04 0.03,-0 0.07,-0 0.09,-0 0.03,0 0.08,0 0.13,0 0.23,0.01 0.4,0.01 0.46,-0.21zm0.19 -0.2c0.02,0.08 0.01,0.16 -0.01,0.25 -0.1,0.36 -0.33,0.36 -0.64,0.35 -0.03,-0 -0.07,-0 -0.12,-0 -0.04,0 -0.06,0 -0.08,0 -0.15,0 -0.3,0.01 -0.4,-0.1 -0.05,-0.05 -0.09,-0.15 -0.1,-0.24 -0.01,-0.09 0.01,-0.17 0.06,-0.24 0,-0 0.01,-0.01 0.01,-0.01 0.05,-0.05 0.28,-0.16 0.52,-0.23 0.25,-0.07 0.52,-0.11 0.65,-0.01 0.01,0.01 0.01,0.01 0.02,0.02 0.05,0.06 0.09,0.13 0.11,0.21zm-5.2 0.17c0.06,0.25 0.2,0.25 0.45,0.24l0.1 -0c0.02,0 0.06,0 0.09,0 0.11,0 0.24,0.01 0.29,-0.03 0.03,-0.02 0.05,-0.06 0.06,-0.11 0.01,-0.04 0.01,-0.08 -0.01,-0.12 -0.04,-0.05 -0.23,-0.13 -0.43,-0.19 -0.2,-0.06 -0.4,-0.09 -0.47,-0.06l-0 0c-0.03,0.02 -0.05,0.06 -0.07,0.11l0 0c-0.01,0.05 -0.02,0.1 -0,0.15zm0.45 0.43c-0.34,0 -0.53,0.01 -0.63,-0.38 -0.02,-0.09 -0.02,-0.18 0,-0.25 0.03,-0.09 0.08,-0.16 0.14,-0.21 0.01,-0.01 0.02,-0.01 0.03,-0.02 0.12,-0.06 0.37,-0.02 0.61,0.04 0.24,0.07 0.47,0.17 0.53,0.26 0.01,0.01 0.01,0.02 0.02,0.02 0.04,0.08 0.04,0.17 0.02,0.25 -0.02,0.09 -0.07,0.17 -0.13,0.22 -0.1,0.08 -0.27,0.07 -0.41,0.07 -0.03,-0 -0.05,-0 -0.09,-0 -0.07,0 -0.08,0 -0.1,0zm0.18 -1.63c0.14,-0.01 0.28,-0.01 0.43,-0.02 0.18,-0.01 0.36,-0.02 0.54,-0.03 0.46,-0.01 0.88,-0.01 1.32,-0 0.16,0 0.33,0 0.5,0.01 0.21,0 0.42,0.01 0.62,0.03 0.12,0.01 0.23,0.01 0.35,0.02 -0.05,-0.15 -0.1,-0.3 -0.18,-0.43 -0.09,-0.16 -0.21,-0.29 -0.38,-0.39 -0.17,-0.09 -0.74,-0.14 -1.32,-0.14 -0.58,-0 -1.15,0.05 -1.33,0.14 -0.17,0.09 -0.29,0.22 -0.38,0.39 -0.07,0.13 -0.13,0.28 -0.18,0.43zm0.44 0.16c-0.19,0.01 -0.37,0.02 -0.57,0.03l-0.13 0 0.04 -0.13c0.06,-0.2 0.13,-0.41 0.23,-0.59 0.11,-0.19 0.25,-0.36 0.45,-0.46 0.21,-0.11 0.81,-0.16 1.42,-0.16 0.61,0 1.21,0.05 1.41,0.16 0.2,0.11 0.35,0.27 0.45,0.46 0.1,0.18 0.17,0.39 0.23,0.6l0.04 0.12 -0.13 -0c-0.17,-0 -0.33,-0.01 -0.49,-0.02 -0.21,-0.01 -0.41,-0.03 -0.61,-0.03 -0.17,-0 -0.34,-0 -0.5,-0.01 -0.44,-0.01 -0.85,-0.01 -1.31,0 -0.17,0 -0.36,0.02 -0.54,0.03z"/>
  </g>
 </g>
</svg>
