<?xml version="1.0" encoding="UTF-8"?>
<!DOCTYPE svg PUBLIC "-//W3C//DTD SVG 1.1//EN" "http://www.w3.org/Graphics/SVG/1.1/DTD/svg11.dtd">
<!-- Creator: CorelDRAW 2018 (64-Bit) -->
<svg xmlns="http://www.w3.org/2000/svg" xml:space="preserve" width="50.1044mm" height="28.6222mm" version="1.1" style="shape-rendering:geometricPrecision; text-rendering:geometricPrecision; image-rendering:optimizeQuality; fill-rule:evenodd; clip-rule:evenodd"
viewBox="0 0 14.94 8.54"
 xmlns:xlink="http://www.w3.org/1999/xlink">
 <defs>
  <style type="text/css">
   <![CDATA[
    .fil1 {fill:#59656C}
    .fil0 {fill:#FEFEFE}
    .fil2 {fill:white}
    .fil3 {fill:#59656C;fill-rule:nonzero}
   ]]>
  </style>
 </defs>
 <g id="Слой_x0020_1">
  <metadata id="CorelCorpID_0Corel-Layer"/>
  <g id="_1839487872">
   <path class="fil0" d="M14.07 3.64c0.04,-0.07 0.09,-0.12 0.14,-0.21 0.29,-0.5 0.48,-1.56 0.39,-2.09 -0.12,-0.7 -0.92,-1.28 -1.71,-0.88 -0.72,0.36 -0.76,1.16 -0.56,2.09 0.06,0.27 0.23,0.9 0.39,1.03 0.12,0.11 0.44,0.06 0.62,0.06 0.24,-0 0.49,0 0.73,-0z"/>
   <path class="fil1" d="M14.07 3.64c-0.24,0 -0.49,-0 -0.73,0 -0.18,0 -0.5,0.05 -0.62,-0.06 -0.16,-0.13 -0.33,-0.76 -0.39,-1.03 -0.21,-0.93 -0.17,-1.73 0.56,-2.09 0.8,-0.4 1.6,0.18 1.71,0.88 0.09,0.54 -0.1,1.59 -0.39,2.09 -0.05,0.08 -0.1,0.14 -0.14,0.21zm-0.83 4.55c-0.2,0.02 -0.74,-0.02 -0.83,0.04 -0.07,0.04 -0.11,0.13 -0.07,0.21 0.06,0.13 0.34,0.09 0.49,0.09l1.17 -0c0.17,-0 0.43,0.04 0.49,-0.1 0.03,-0.08 -0,-0.16 -0.06,-0.2 -0.09,-0.06 -0.72,-0.03 -0.85,-0.03 -0.01,-0.51 -0.05,-4.03 0.03,-4.22 0.43,0 0.64,0.04 0.83,-0.28 0.38,-0.65 0.67,-2.07 0.39,-2.75 -0.48,-1.17 -2.16,-1.29 -2.75,-0.16 -0.38,0.72 -0.12,2.04 0.22,2.75 0.23,0.47 0.37,0.44 0.83,0.44 0.06,-0 0.08,-0.01 0.1,0.03 0.02,0.05 0.02,0.74 0.02,0.83 0.01,1.07 0.02,2.32 -0.01,3.36z"/>
   <path class="fil2" d="M1.47 2.82c-0.11,-0.2 -0.21,-0.3 -0.51,-0.3 -0.21,0 -0.49,0.03 -0.63,0.15 -0.14,0.13 -0.17,0.41 -0.02,0.55 0.08,0.07 0.4,0.22 0.54,0.25 -0.05,0.07 -0.06,0.06 -0.14,0.14 -0.65,0.69 -0.65,1.34 -0.42,2.31 0.08,0.33 0.2,0.53 0.2,0.88 -0.01,0.79 -0.1,1.28 0.89,1.28 0.3,-0 0.78,0.06 1.01,-0.1 0.36,-0.24 0.26,-0.59 0.31,-0.77 0.36,-0.02 0.96,0.02 1.34,0.04l2.75 0c0.38,-0.02 0.98,-0.06 1.34,-0.04 0.05,0.19 -0.04,0.54 0.32,0.78 0.23,0.15 1.32,0.12 1.52,0.03 0.47,-0.21 0.37,-0.79 0.37,-1.22 -0,-0.36 0.13,-0.55 0.21,-0.9 0.42,-1.87 -0.38,-2.13 -0.57,-2.43 0.15,-0.03 0.48,-0.17 0.55,-0.26 0.14,-0.16 0.12,-0.43 -0.05,-0.55 -0.13,-0.09 -0.46,-0.14 -0.64,-0.14 -0.29,0 -0.38,0.11 -0.48,0.3 -0.16,-0.25 -0.32,-0.73 -0.46,-1.04 -0.15,-0.33 -0.43,-0.66 -0.72,-0.79 -0.82,-0.38 -4.83,-0.37 -5.52,0 -0.79,0.42 -0.78,1.16 -1.18,1.83zm8.23 2.36c0.06,-0.24 0.02,-0.47 -0.12,-0.61 -0.29,-0.3 -1.64,0.24 -1.74,0.37 -0.13,0.16 -0.05,0.47 0.06,0.59 0.15,0.15 0.44,0.11 0.69,0.11 0.56,-0 0.97,0.09 1.12,-0.46zm-8.58 -0.06c0.15,0.58 0.46,0.52 1.05,0.52 0.22,0 0.56,0.05 0.72,-0.08 0.13,-0.1 0.24,-0.37 0.13,-0.57 -0.12,-0.23 -1.46,-0.66 -1.73,-0.46 -0.14,0.1 -0.24,0.35 -0.18,0.59zm0.98 -1.86c0.6,-0.01 1.21,-0.08 1.82,-0.09 1.04,-0.03 1.96,-0 3,0.01 0.61,0 1.21,0.07 1.82,0.09 -0.19,-0.67 -0.44,-1.31 -1.06,-1.65 -0.59,-0.33 -3.89,-0.33 -4.52,-0 -0.61,0.32 -0.86,1 -1.06,1.65z"/>
   <path class="fil3" d="M1.34 2.9c-0.05,-0.08 -0.09,-0.14 -0.14,-0.18 -0.05,-0.03 -0.12,-0.05 -0.24,-0.05 -0.1,0 -0.21,0.01 -0.32,0.03 -0.09,0.02 -0.17,0.05 -0.22,0.09l-0.01 0.01c-0.04,0.04 -0.06,0.1 -0.06,0.16 -0,0.06 0.01,0.12 0.05,0.16l0.01 0.01c0.02,0.02 0.1,0.06 0.19,0.1 0.1,0.05 0.22,0.09 0.28,0.11l0.22 0.05 -0.13 0.18c-0.04,0.06 -0.06,0.07 -0.09,0.1 -0.02,0.01 -0.03,0.03 -0.06,0.06 -0.3,0.32 -0.45,0.63 -0.5,0.97 -0.05,0.35 0.01,0.74 0.12,1.21 0.02,0.11 0.06,0.2 0.09,0.29 0.06,0.19 0.12,0.36 0.12,0.62 -0,0.07 -0,0.13 -0,0.19 -0,0.08 -0,0.15 -0,0.21 0,0.46 0.07,0.72 0.75,0.72 0.06,-0 0.13,0 0.2,0 0.26,0.01 0.58,0.02 0.72,-0.08 0.21,-0.14 0.22,-0.35 0.23,-0.5 0,-0.07 0.01,-0.13 0.02,-0.18l0.03 -0.11 0.11 -0.01c0.28,-0.02 0.71,0 1.06,0.02 0.11,0.01 0.21,0.01 0.29,0.01l0 -0 2.75 0c0.07,-0 0.15,-0.01 0.24,-0.01 0.36,-0.02 0.81,-0.04 1.11,-0.02l0.11 0.01 0.03 0.11c0.01,0.06 0.02,0.12 0.02,0.19 0.01,0.16 0.02,0.36 0.24,0.5 0.08,0.05 0.32,0.07 0.59,0.08 0.34,0.01 0.69,-0.02 0.79,-0.06 0.31,-0.14 0.3,-0.54 0.28,-0.89 -0,-0.06 -0,-0.13 -0,-0.19 -0,-0.26 0.06,-0.43 0.12,-0.62 0.03,-0.1 0.07,-0.2 0.09,-0.31 0.33,-1.45 -0.11,-1.87 -0.37,-2.12 -0.07,-0.07 -0.13,-0.13 -0.17,-0.19l-0.12 -0.18 0.21 -0.05c0.07,-0.02 0.19,-0.06 0.3,-0.11 0.08,-0.04 0.16,-0.08 0.18,-0.1l0 -0c0.01,-0.01 0.01,-0.01 0.01,-0.02 0.03,-0.05 0.05,-0.1 0.04,-0.16 -0,-0.06 -0.03,-0.11 -0.07,-0.14l-0.01 -0.01c-0.04,-0.03 -0.11,-0.05 -0.2,-0.07 -0.13,-0.03 -0.26,-0.04 -0.35,-0.04 -0.11,0 -0.18,0.02 -0.22,0.05 -0.05,0.03 -0.09,0.09 -0.13,0.17l-0.12 0.22 -0.13 -0.21c-0.11,-0.18 -0.22,-0.45 -0.33,-0.71 -0.05,-0.12 -0.1,-0.25 -0.14,-0.34 -0.07,-0.15 -0.17,-0.31 -0.29,-0.44 -0.11,-0.12 -0.23,-0.22 -0.36,-0.28 -0.39,-0.18 -1.55,-0.27 -2.72,-0.27 -1.18,0 -2.34,0.09 -2.67,0.27 -0.48,0.26 -0.64,0.66 -0.81,1.09 -0.09,0.22 -0.18,0.45 -0.32,0.68l-0.13 0.22 -0.13 -0.22zm0.03 -0.42c0.03,0.02 0.06,0.04 0.08,0.07 0.07,-0.14 0.13,-0.29 0.18,-0.43 0.19,-0.48 0.37,-0.94 0.95,-1.25 0.37,-0.2 1.59,-0.3 2.81,-0.3 1.2,-0 2.41,0.1 2.84,0.29 0.16,0.07 0.32,0.2 0.45,0.35 0.14,0.15 0.26,0.34 0.34,0.52 0.05,0.11 0.1,0.23 0.15,0.35 0.06,0.16 0.13,0.32 0.19,0.46 0.02,-0.02 0.04,-0.04 0.07,-0.06 0.1,-0.07 0.22,-0.1 0.39,-0.11 0.11,-0 0.27,0.01 0.42,0.05 0.12,0.03 0.24,0.07 0.32,0.12 0.01,0.01 0.02,0.02 0.04,0.03 0.1,0.09 0.15,0.21 0.16,0.34 0.01,0.13 -0.02,0.26 -0.1,0.36 -0.01,0.01 -0.02,0.03 -0.03,0.04l-0 -0c-0.05,0.06 -0.16,0.12 -0.27,0.17 -0.04,0.02 -0.09,0.04 -0.13,0.06 0.31,0.3 0.81,0.8 0.45,2.4 -0.03,0.13 -0.07,0.24 -0.1,0.34 -0.06,0.17 -0.11,0.32 -0.1,0.53 0,0.06 0,0.12 0,0.19 0.02,0.45 0.03,0.95 -0.46,1.17 -0.13,0.06 -0.54,0.09 -0.91,0.08 -0.31,-0.01 -0.62,-0.04 -0.75,-0.13 -0.34,-0.22 -0.36,-0.51 -0.37,-0.74l-0 -0.03c-0.28,-0.01 -0.64,0.01 -0.95,0.03 -0.09,0 -0.17,0.01 -0.25,0.01l-0.01 0 -2.75 0 -0.01 -0c-0.1,-0 -0.19,-0.01 -0.3,-0.01 -0.3,-0.02 -0.64,-0.03 -0.91,-0.03l-0 0.02c-0.01,0.22 -0.02,0.5 -0.35,0.73 -0.23,0.15 -0.6,0.14 -0.9,0.13 -0.07,-0 -0.14,-0 -0.19,-0 -0.94,0 -1.04,-0.38 -1.04,-1.02 -0,-0.07 0,-0.14 0,-0.22 0,-0.06 0,-0.13 0,-0.19 0,-0.2 -0.05,-0.35 -0.1,-0.52 -0.03,-0.1 -0.07,-0.2 -0.09,-0.32 -0.12,-0.5 -0.18,-0.92 -0.12,-1.32 0.06,-0.39 0.22,-0.75 0.56,-1.11 -0.03,-0.01 -0.07,-0.03 -0.1,-0.04 -0.11,-0.05 -0.22,-0.11 -0.27,-0.16 -0.01,-0.01 -0.02,-0.02 -0.03,-0.03 -0.09,-0.1 -0.13,-0.24 -0.12,-0.37 0.01,-0.13 0.06,-0.26 0.14,-0.35 0.01,-0.01 0.02,-0.02 0.03,-0.03 0.09,-0.08 0.22,-0.13 0.36,-0.16 0.12,-0.02 0.26,-0.03 0.37,-0.04 0.18,-0 0.31,0.03 0.41,0.1zm8.19 2.67c0.03,-0.1 0.03,-0.19 0.01,-0.27 -0.02,-0.08 -0.05,-0.15 -0.1,-0.19l-0.01 -0c-0.11,-0.09 -0.46,-0.03 -0.79,0.07 -0.35,0.1 -0.66,0.24 -0.73,0.3 -0.03,0.04 -0.04,0.1 -0.03,0.17 0.01,0.09 0.04,0.18 0.08,0.22 0.08,0.08 0.26,0.07 0.44,0.07 0.06,-0 0.11,-0 0.14,-0 0.05,0 0.13,0 0.21,0 0.38,0.01 0.67,0.01 0.76,-0.35zm0.31 -0.33c0.03,0.13 0.02,0.27 -0.02,0.41 -0.16,0.59 -0.54,0.59 -1.06,0.57 -0.05,-0 -0.11,-0 -0.21,-0 -0.06,0 -0.1,0 -0.13,0 -0.24,0.01 -0.5,0.01 -0.66,-0.16 -0.08,-0.08 -0.15,-0.24 -0.16,-0.4 -0.01,-0.14 0.01,-0.28 0.1,-0.39 0.01,-0.01 0.01,-0.01 0.02,-0.02 0.08,-0.08 0.46,-0.26 0.85,-0.37 0.41,-0.12 0.85,-0.18 1.06,-0.01 0.01,0.01 0.02,0.02 0.03,0.03 0.09,0.09 0.15,0.21 0.18,0.34zm-8.6 0.27c0.11,0.41 0.33,0.41 0.74,0.41l0.16 -0c0.04,0 0.09,0 0.15,0 0.18,0.01 0.39,0.02 0.48,-0.05 0.05,-0.03 0.09,-0.11 0.11,-0.19 0.02,-0.07 0.01,-0.14 -0.01,-0.2 -0.07,-0.09 -0.38,-0.22 -0.72,-0.32 -0.33,-0.1 -0.67,-0.15 -0.79,-0.09l-0 0c-0.05,0.04 -0.09,0.1 -0.12,0.18l0 0c-0.02,0.08 -0.03,0.16 -0,0.25zm0.75 0.7c-0.56,0.01 -0.87,0.01 -1.03,-0.63 -0.04,-0.14 -0.03,-0.29 0.01,-0.41 0.04,-0.14 0.13,-0.26 0.22,-0.34 0.01,-0.01 0.03,-0.02 0.05,-0.03 0.19,-0.1 0.61,-0.04 1.01,0.07 0.39,0.11 0.77,0.29 0.87,0.43l-0 0c0.01,0.01 0.02,0.03 0.02,0.04 0.07,0.13 0.07,0.27 0.04,0.4 -0.03,0.15 -0.12,0.28 -0.22,0.36 -0.17,0.13 -0.44,0.12 -0.67,0.11 -0.05,-0 -0.09,-0 -0.14,-0 -0.11,0 -0.13,0 -0.16,0zm0.29 -2.68c0.24,-0.01 0.48,-0.02 0.72,-0.04 0.29,-0.02 0.59,-0.04 0.9,-0.05 0.76,-0.02 1.46,-0.01 2.18,-0 0.27,0 0.54,0.01 0.82,0.01 0.35,0 0.69,0.02 1.03,0.04 0.2,0.01 0.39,0.02 0.59,0.03 -0.08,-0.26 -0.17,-0.5 -0.3,-0.72 -0.15,-0.26 -0.35,-0.49 -0.63,-0.64 -0.27,-0.15 -1.22,-0.23 -2.18,-0.23 -0.96,-0 -1.91,0.08 -2.2,0.23 -0.28,0.14 -0.47,0.37 -0.62,0.64 -0.12,0.22 -0.22,0.47 -0.3,0.72zm0.74 0.26c-0.31,0.02 -0.62,0.04 -0.94,0.05l-0.21 0 0.06 -0.2c0.1,-0.33 0.22,-0.68 0.39,-0.98 0.18,-0.32 0.41,-0.59 0.75,-0.76 0.34,-0.18 1.34,-0.26 2.34,-0.26 1,0 2.01,0.09 2.32,0.26 0.33,0.19 0.57,0.45 0.74,0.76 0.17,0.3 0.29,0.64 0.38,0.98l0.06 0.2 -0.2 -0.01c-0.27,-0.01 -0.54,-0.02 -0.8,-0.04 -0.34,-0.02 -0.68,-0.04 -1.01,-0.04 -0.28,-0 -0.56,-0.01 -0.82,-0.01 -0.72,-0.01 -1.41,-0.02 -2.17,0 -0.29,0.01 -0.59,0.03 -0.89,0.05z"/>
  </g>
 </g>
</svg>
