<?xml version="1.0" encoding="UTF-8"?>
<!DOCTYPE svg PUBLIC "-//W3C//DTD SVG 1.1//EN" "http://www.w3.org/Graphics/SVG/1.1/DTD/svg11.dtd">
<!-- Creator: CorelDRAW 2018 (64-Bit) -->
<svg xmlns="http://www.w3.org/2000/svg" xml:space="preserve" width="36.2479mm" height="35.196mm" version="1.1" style="shape-rendering:geometricPrecision; text-rendering:geometricPrecision; image-rendering:optimizeQuality; fill-rule:evenodd; clip-rule:evenodd"
viewBox="0 0 7.96 7.73"
 xmlns:xlink="http://www.w3.org/1999/xlink">
 <defs>
  <style type="text/css">
   <![CDATA[
    .fil2 {fill:#59656C}
    .fil0 {fill:white}
    .fil1 {fill:#59656C;fill-rule:nonzero}
   ]]>
  </style>
 </defs>
 <g id="Слой_x0020_1">
  <metadata id="CorelCorpID_0Corel-Layer"/>
  <g id="_1844887648">
   <path class="fil0" d="M1.08 1.66c-0.08,-0.15 -0.15,-0.22 -0.38,-0.22 -0.15,0 -0.36,0.02 -0.46,0.11 -0.1,0.09 -0.12,0.3 -0.01,0.4 0.06,0.05 0.3,0.16 0.4,0.18 -0.04,0.05 -0.05,0.04 -0.11,0.1 -0.48,0.51 -0.48,0.99 -0.31,1.7 0.06,0.24 0.15,0.39 0.15,0.64 -0,0.59 -0.08,0.94 0.65,0.94 0.22,-0 0.57,0.04 0.74,-0.07 0.26,-0.18 0.19,-0.44 0.23,-0.57 0.26,-0.02 0.71,0.02 0.99,0.03l2.02 0c0.28,-0.01 0.72,-0.04 0.99,-0.03 0.03,0.14 -0.03,0.4 0.24,0.58 0.17,0.11 0.97,0.09 1.12,0.02 0.34,-0.15 0.27,-0.58 0.27,-0.9 -0,-0.26 0.09,-0.41 0.15,-0.66 0.31,-1.37 -0.28,-1.57 -0.42,-1.79 0.11,-0.03 0.35,-0.13 0.41,-0.19 0.11,-0.12 0.09,-0.31 -0.03,-0.41 -0.09,-0.07 -0.34,-0.1 -0.47,-0.1 -0.21,0 -0.28,0.08 -0.36,0.22 -0.12,-0.19 -0.24,-0.54 -0.34,-0.76 -0.11,-0.24 -0.32,-0.48 -0.53,-0.58 -0.61,-0.28 -3.55,-0.27 -4.07,0 -0.58,0.31 -0.57,0.85 -0.87,1.35zm6.06 1.74c0.05,-0.17 0.01,-0.34 -0.09,-0.45 -0.21,-0.22 -1.21,0.18 -1.28,0.27 -0.09,0.12 -0.04,0.35 0.04,0.43 0.11,0.11 0.32,0.08 0.51,0.08 0.41,-0 0.72,0.07 0.82,-0.34zm-6.32 -0.04c0.11,0.43 0.34,0.38 0.77,0.38 0.16,0 0.41,0.03 0.53,-0.06 0.1,-0.07 0.18,-0.27 0.1,-0.42 -0.09,-0.17 -1.08,-0.48 -1.27,-0.34 -0.1,0.08 -0.18,0.26 -0.13,0.44zm0.72 -1.37c0.44,-0.01 0.89,-0.06 1.34,-0.07 0.77,-0.02 1.45,-0 2.21,0 0.45,0 0.89,0.05 1.34,0.06 -0.14,-0.5 -0.33,-0.96 -0.78,-1.21 -0.43,-0.24 -2.86,-0.24 -3.33,-0 -0.45,0.23 -0.63,0.74 -0.78,1.22z"/>
   <path class="fil1" d="M0.99 1.72c-0.03,-0.06 -0.06,-0.1 -0.1,-0.13 -0.04,-0.02 -0.09,-0.04 -0.18,-0.03 -0.07,0 -0.15,0.01 -0.23,0.02 -0.07,0.01 -0.13,0.03 -0.16,0.06l-0.01 0.01c-0.03,0.03 -0.04,0.07 -0.04,0.12 -0,0.04 0.01,0.09 0.03,0.11l0.01 0.01c0.02,0.02 0.07,0.05 0.14,0.08 0.08,0.04 0.16,0.07 0.21,0.08l0.16 0.04 -0.1 0.13c-0.03,0.04 -0.05,0.05 -0.07,0.07 -0.01,0.01 -0.02,0.02 -0.05,0.04 -0.22,0.24 -0.33,0.46 -0.37,0.71 -0.04,0.26 0,0.54 0.09,0.89 0.02,0.08 0.04,0.15 0.06,0.22 0.05,0.14 0.09,0.27 0.09,0.45 -0,0.05 -0,0.1 -0,0.14 -0,0.06 -0,0.11 -0,0.16 0,0.34 0.05,0.53 0.55,0.53 0.05,-0 0.1,0 0.15,0 0.19,0.01 0.43,0.01 0.53,-0.06 0.15,-0.1 0.16,-0.25 0.17,-0.37 0,-0.05 0,-0.09 0.01,-0.13l0.02 -0.08 0.08 -0.01c0.21,-0.01 0.52,0 0.78,0.02 0.08,0 0.15,0.01 0.21,0.01l0 -0 2.02 0c0.05,-0 0.11,-0.01 0.18,-0.01 0.27,-0.01 0.6,-0.03 0.82,-0.02l0.08 0.01 0.02 0.08c0.01,0.04 0.01,0.09 0.02,0.14 0.01,0.12 0.02,0.27 0.17,0.37 0.06,0.04 0.24,0.05 0.43,0.06 0.25,0.01 0.51,-0.01 0.58,-0.04 0.23,-0.1 0.22,-0.4 0.21,-0.66 -0,-0.05 -0,-0.09 -0,-0.14 -0,-0.19 0.04,-0.32 0.09,-0.46 0.02,-0.07 0.05,-0.15 0.07,-0.23 0.24,-1.07 -0.08,-1.37 -0.27,-1.56 -0.05,-0.05 -0.1,-0.09 -0.13,-0.14l-0.09 -0.13 0.15 -0.04c0.05,-0.01 0.14,-0.05 0.22,-0.08 0.06,-0.03 0.11,-0.06 0.13,-0.08l0 -0c0,-0 0.01,-0.01 0.01,-0.01 0.02,-0.03 0.03,-0.08 0.03,-0.12 -0,-0.04 -0.02,-0.08 -0.05,-0.11l-0.01 -0.01c-0.03,-0.02 -0.08,-0.04 -0.15,-0.05 -0.09,-0.02 -0.19,-0.03 -0.26,-0.03 -0.08,0 -0.13,0.01 -0.16,0.04 -0.04,0.03 -0.06,0.07 -0.1,0.13l-0.09 0.16 -0.1 -0.16c-0.08,-0.13 -0.16,-0.33 -0.24,-0.52 -0.04,-0.09 -0.07,-0.18 -0.11,-0.25 -0.05,-0.11 -0.13,-0.23 -0.21,-0.33 -0.08,-0.09 -0.17,-0.16 -0.26,-0.2 -0.29,-0.13 -1.14,-0.2 -2,-0.2 -0.87,0 -1.73,0.07 -1.97,0.2 -0.36,0.19 -0.47,0.49 -0.6,0.8 -0.06,0.16 -0.13,0.33 -0.23,0.5l-0.1 0.16 -0.09 -0.16zm0.02 -0.31c0.02,0.02 0.04,0.03 0.06,0.05 0.05,-0.11 0.09,-0.21 0.13,-0.32 0.14,-0.36 0.27,-0.69 0.7,-0.92 0.27,-0.15 1.17,-0.22 2.07,-0.22 0.88,-0 1.78,0.07 2.09,0.22 0.12,0.05 0.23,0.15 0.33,0.26 0.1,0.11 0.19,0.25 0.25,0.38 0.04,0.08 0.07,0.17 0.11,0.26 0.05,0.12 0.1,0.24 0.14,0.34 0.02,-0.02 0.03,-0.03 0.05,-0.04 0.07,-0.05 0.16,-0.08 0.29,-0.08 0.08,-0 0.2,0.01 0.31,0.03 0.09,0.02 0.18,0.05 0.23,0.09 0.01,0.01 0.02,0.01 0.03,0.02 0.07,0.06 0.11,0.16 0.12,0.25 0.01,0.09 -0.02,0.19 -0.07,0.27 -0.01,0.01 -0.02,0.02 -0.02,0.03l-0 -0c-0.04,0.04 -0.11,0.09 -0.2,0.13 -0.03,0.01 -0.06,0.03 -0.1,0.04 0.23,0.22 0.6,0.59 0.33,1.76 -0.02,0.1 -0.05,0.18 -0.07,0.25 -0.04,0.12 -0.08,0.24 -0.08,0.39 0,0.04 0,0.09 0,0.14 0.01,0.33 0.02,0.7 -0.34,0.86 -0.09,0.04 -0.4,0.07 -0.67,0.06 -0.23,-0 -0.46,-0.03 -0.55,-0.09 -0.25,-0.16 -0.26,-0.38 -0.27,-0.54l-0 -0.02c-0.2,-0 -0.47,0.01 -0.7,0.02 -0.06,0 -0.12,0.01 -0.19,0.01l-0 0 -2.02 0 -0 -0c-0.07,-0 -0.14,-0.01 -0.22,-0.01 -0.22,-0.01 -0.47,-0.02 -0.67,-0.02l-0 0.01c-0.01,0.16 -0.02,0.37 -0.26,0.54 -0.17,0.11 -0.44,0.1 -0.66,0.1 -0.05,-0 -0.1,-0 -0.14,-0 -0.69,0 -0.77,-0.28 -0.77,-0.75 -0,-0.05 0,-0.11 0,-0.16 0,-0.05 0,-0.09 0,-0.14 0,-0.15 -0.04,-0.26 -0.08,-0.38 -0.02,-0.07 -0.05,-0.15 -0.07,-0.24 -0.09,-0.37 -0.13,-0.68 -0.09,-0.97 0.04,-0.29 0.16,-0.55 0.41,-0.82 -0.02,-0.01 -0.05,-0.02 -0.07,-0.03 -0.08,-0.04 -0.16,-0.08 -0.2,-0.12 -0.01,-0.01 -0.01,-0.01 -0.02,-0.02 -0.07,-0.07 -0.09,-0.17 -0.09,-0.27 0,-0.1 0.04,-0.19 0.1,-0.26 0.01,-0.01 0.01,-0.01 0.02,-0.02 0.07,-0.06 0.16,-0.09 0.26,-0.11 0.09,-0.02 0.19,-0.02 0.27,-0.03 0.14,-0 0.23,0.02 0.3,0.07zm6.03 1.97c0.02,-0.07 0.02,-0.14 0.01,-0.2 -0.01,-0.06 -0.04,-0.11 -0.07,-0.14l-0 -0c-0.08,-0.07 -0.34,-0.02 -0.58,0.05 -0.26,0.08 -0.49,0.18 -0.54,0.22 -0.02,0.03 -0.03,0.08 -0.02,0.12 0.01,0.07 0.03,0.13 0.06,0.16 0.06,0.06 0.19,0.05 0.32,0.05 0.04,-0 0.08,-0 0.1,-0 0.03,0 0.1,0 0.16,0 0.28,0.01 0.49,0.01 0.56,-0.26zm0.22 -0.24c0.02,0.09 0.01,0.2 -0.01,0.3 -0.12,0.44 -0.4,0.43 -0.78,0.42 -0.04,-0 -0.08,-0 -0.15,-0 -0.04,0 -0.07,0 -0.1,0 -0.18,0.01 -0.36,0.01 -0.49,-0.12 -0.06,-0.06 -0.11,-0.18 -0.12,-0.29 -0.01,-0.1 0.01,-0.21 0.07,-0.29 0,-0.01 0.01,-0.01 0.01,-0.02 0.06,-0.06 0.34,-0.19 0.63,-0.27 0.3,-0.09 0.63,-0.13 0.78,-0.01 0.01,0.01 0.02,0.01 0.02,0.02 0.07,0.07 0.11,0.16 0.13,0.25zm-6.33 0.2c0.08,0.3 0.25,0.3 0.55,0.3l0.12 -0c0.03,0 0.07,0 0.11,0 0.13,0.01 0.29,0.01 0.35,-0.04 0.03,-0.03 0.06,-0.08 0.08,-0.14 0.01,-0.05 0.01,-0.1 -0.01,-0.14 -0.05,-0.07 -0.28,-0.16 -0.53,-0.23 -0.25,-0.07 -0.5,-0.11 -0.58,-0.07l-0 0c-0.04,0.03 -0.07,0.07 -0.08,0.13l0 0c-0.02,0.06 -0.02,0.12 -0,0.19zm0.55 0.52c-0.41,0 -0.64,0.01 -0.76,-0.46 -0.03,-0.11 -0.02,-0.21 0.01,-0.3 0.03,-0.11 0.09,-0.19 0.17,-0.25 0.01,-0.01 0.02,-0.01 0.03,-0.02 0.14,-0.07 0.45,-0.03 0.74,0.05 0.29,0.08 0.57,0.21 0.64,0.31l-0 0c0.01,0.01 0.01,0.02 0.02,0.03 0.05,0.1 0.05,0.2 0.03,0.3 -0.03,0.11 -0.09,0.21 -0.16,0.26 -0.13,0.1 -0.33,0.09 -0.49,0.08 -0.03,-0 -0.06,-0 -0.1,-0 -0.08,0 -0.1,0 -0.12,0zm0.21 -1.97c0.17,-0.01 0.35,-0.02 0.53,-0.03 0.22,-0.01 0.43,-0.03 0.66,-0.03 0.56,-0.02 1.07,-0.01 1.61,-0 0.2,0 0.4,0.01 0.61,0.01 0.26,0 0.51,0.02 0.76,0.03 0.14,0.01 0.29,0.02 0.43,0.02 -0.06,-0.19 -0.13,-0.37 -0.22,-0.53 -0.11,-0.19 -0.26,-0.36 -0.46,-0.47 -0.2,-0.11 -0.9,-0.17 -1.6,-0.17 -0.7,-0 -1.4,0.06 -1.62,0.17 -0.2,0.11 -0.35,0.28 -0.46,0.47 -0.09,0.16 -0.16,0.35 -0.22,0.53zm0.54 0.19c-0.23,0.01 -0.45,0.03 -0.69,0.03l-0.15 0 0.04 -0.14c0.07,-0.24 0.16,-0.5 0.28,-0.72 0.13,-0.23 0.3,-0.43 0.55,-0.56 0.25,-0.13 0.99,-0.19 1.72,-0.19 0.74,0 1.48,0.07 1.71,0.19 0.25,0.14 0.42,0.33 0.55,0.56 0.13,0.22 0.21,0.47 0.28,0.72l0.04 0.14 -0.15 -0c-0.2,-0.01 -0.4,-0.02 -0.59,-0.03 -0.25,-0.02 -0.5,-0.03 -0.75,-0.03 -0.21,-0 -0.41,-0 -0.61,-0.01 -0.53,-0.01 -1.04,-0.01 -1.6,0 -0.21,0.01 -0.43,0.02 -0.65,0.03z"/>
   <circle class="fil0" cx="4.5" cy="4.54" r="2.1"/>
   <path class="fil1" d="M4.5 2.34c0.61,0 1.16,0.25 1.56,0.65 0.4,0.4 0.65,0.95 0.65,1.56 0,0.61 -0.25,1.16 -0.65,1.56 -0.4,0.4 -0.95,0.65 -1.56,0.65 -0.61,0 -1.16,-0.25 -1.56,-0.65 -0.4,-0.4 -0.65,-0.95 -0.65,-1.56 0,-0.61 0.25,-1.16 0.65,-1.56 0.4,-0.4 0.95,-0.65 1.56,-0.65zm1.4 0.8c-0.36,-0.36 -0.86,-0.58 -1.4,-0.58 -0.55,0 -1.05,0.22 -1.4,0.58 -0.36,0.36 -0.58,0.86 -0.58,1.4 0,0.55 0.22,1.05 0.58,1.4 0.36,0.36 0.86,0.58 1.4,0.58 0.55,0 1.05,-0.22 1.4,-0.58 0.36,-0.36 0.58,-0.86 0.58,-1.4 0,-0.55 -0.22,-1.05 -0.58,-1.4z"/>
   <path class="fil2" d="M7.69 7.56l-1.62 -1.62c-0.05,0.05 -0.1,0.1 -0.16,0.15l1.62 1.62c0.03,0.03 0.08,0.01 0.12,-0.03l0 0c0.04,-0.04 0.06,-0.1 0.03,-0.12z"/>
  </g>
 </g>
</svg>
