<?xml version="1.0" encoding="UTF-8"?>
<!DOCTYPE svg PUBLIC "-//W3C//DTD SVG 1.1//EN" "http://www.w3.org/Graphics/SVG/1.1/DTD/svg11.dtd">
<!-- Creator: CorelDRAW 2018 (64-Bit) -->
<svg xmlns="http://www.w3.org/2000/svg" xml:space="preserve" width="26.0701mm" height="47.57mm" version="1.1" style="shape-rendering:geometricPrecision; text-rendering:geometricPrecision; image-rendering:optimizeQuality; fill-rule:evenodd; clip-rule:evenodd"
viewBox="0 0 4.05 7.39"
 xmlns:xlink="http://www.w3.org/1999/xlink">
 <defs>
  <style type="text/css">
   <![CDATA[
    .fil1 {fill:#59656C}
    .fil0 {fill:#59656C;fill-rule:nonzero}
   ]]>
  </style>
 </defs>
 <g id="Слой_x0020_1">
  <metadata id="CorelCorpID_0Corel-Layer"/>
  <g id="_1773688976">
   <path class="fil0" d="M0.8 2.07l0.01 0.01c0.03,-0.04 0.08,-0.1 0.14,-0.18 0.19,-0.24 0.45,-0.59 0.48,-0.64 0.01,-0.01 0.02,-0.03 0.03,-0.04 0.02,-0.03 0.04,-0.06 0.06,-0.08 0.05,-0.06 0.11,-0.14 0.16,-0.22 0.04,-0.06 0.08,-0.11 0.11,-0.16l0.27 -0.39c0.01,-0.01 0.01,-0.02 0.02,-0.03 0.02,-0.02 0.03,-0.04 0.04,-0.07 0,-0.02 -0,-0.04 -0.01,-0.05 -0.01,-0.02 -0.02,-0.03 -0.03,-0.04 -0.04,-0.03 -0.07,-0.02 -0.09,-0.01 -0.03,0.02 -0.06,0.06 -0.08,0.09l-0.51 0.79c-0.02,0.03 -0.05,0.08 -0.07,0.13l-0 0c-0.03,0.05 -0.05,0.1 -0.08,0.14l-0.16 0.27c-0.01,0.03 -0.03,0.05 -0.04,0.07 -0.01,0.02 -0.03,0.04 -0.04,0.06 -0.02,0.03 -0.05,0.08 -0.08,0.14 -0.04,0.07 -0.1,0.16 -0.12,0.21zm-0.02 0.17l-0.17 -0.11 0.02 -0.05c0.02,-0.06 0.1,-0.19 0.16,-0.3 0.03,-0.06 0.07,-0.11 0.08,-0.13 0.01,-0.03 0.03,-0.05 0.04,-0.07 0.01,-0.02 0.03,-0.04 0.04,-0.06l0.16 -0.27 0 -0c0.02,-0.04 0.05,-0.08 0.08,-0.13l-0 -0c0.03,-0.05 0.05,-0.09 0.08,-0.14l0.51 -0.79c0.03,-0.05 0.07,-0.1 0.13,-0.14 0.07,-0.04 0.15,-0.05 0.26,0.01 0.04,0.02 0.07,0.06 0.09,0.1 0.02,0.04 0.03,0.08 0.02,0.13 -0.01,0.08 -0.04,0.11 -0.07,0.15 -0.01,0.01 -0.01,0.01 -0.02,0.02l-0.27 0.39 -0 0c-0.03,0.04 -0.07,0.1 -0.11,0.16 -0.05,0.08 -0.11,0.16 -0.17,0.23 -0.02,0.03 -0.04,0.05 -0.06,0.08 -0.01,0.01 -0.02,0.03 -0.03,0.05 -0.03,0.05 -0.29,0.39 -0.48,0.64 -0.11,0.14 -0.19,0.24 -0.22,0.26l-0.04 0.02 -0.04 -0.02z"/>
   <path class="fil1" d="M0.04 2.77c-0.02,0.02 -0.07,0.07 -0.02,0.13 0.02,0.02 0.09,0.06 0.12,0.08 0.06,0.04 0.19,0.17 0.27,0.09 0.11,-0.1 -0.05,-0.19 -0.11,-0.22 -0.05,-0.04 -0.19,-0.17 -0.27,-0.08z"/>
   <path class="fil0" d="M2.28 1.27c0,0.08 0.01,0.15 0.04,0.21 0.03,0.07 0.07,0.13 0.11,0.18 0.1,0.11 0.24,0.16 0.38,0.16 0.07,0 0.13,-0.01 0.2,-0.03 0.06,-0.02 0.12,-0.06 0.17,-0.1 0.1,-0.09 0.17,-0.23 0.17,-0.42 0,-0.07 -0.02,-0.14 -0.05,-0.21 -0.04,-0.09 -0.11,-0.17 -0.19,-0.22 -0.08,-0.05 -0.18,-0.09 -0.29,-0.09 -0.08,0 -0.16,0.02 -0.24,0.05 -0.02,0.01 -0.05,0.03 -0.07,0.05 -0.03,0.02 -0.06,0.04 -0.07,0.06l0 0c-0.04,0.04 -0.08,0.1 -0.11,0.18 -0.03,0.06 -0.04,0.12 -0.04,0.18zm-0.11 0.26c-0.03,-0.08 -0.05,-0.17 -0.05,-0.26 0,-0.08 0.02,-0.17 0.06,-0.24 0.04,-0.09 0.1,-0.17 0.14,-0.22l0 0c0.02,-0.02 0.06,-0.05 0.09,-0.07 0.04,-0.02 0.07,-0.05 0.1,-0.06 0.1,-0.05 0.2,-0.07 0.3,-0.07 0.14,0 0.26,0.04 0.37,0.11 0.11,0.07 0.2,0.17 0.25,0.28 0.04,0.08 0.06,0.18 0.06,0.27 0,0.23 -0.09,0.41 -0.22,0.53 -0.07,0.06 -0.14,0.1 -0.22,0.13 -0.08,0.03 -0.16,0.04 -0.25,0.04 -0.19,0 -0.37,-0.07 -0.5,-0.21 -0.05,-0.06 -0.1,-0.14 -0.14,-0.23zm1.36 2.39c-0.01,-0.08 0,-0.31 0.02,-0.58 0.03,-0.43 0.06,-0.96 0.03,-0.99 -0.05,-0.04 -0.11,-0.07 -0.17,-0.1 -0.05,-0.02 -0.11,-0.03 -0.17,-0.05 -0.01,0 -0.01,0.01 -0.02,0.01 -0.11,0.09 -0.27,0.13 -0.42,0.12 -0.16,-0 -0.31,-0.05 -0.41,-0.13l-0.01 -0.01c-0.21,0.06 -0.34,0.14 -0.48,0.24 -0.07,0.05 -0.15,0.1 -0.24,0.15 -0.01,0.01 -0.03,0.02 -0.05,0.03 -0.07,0.04 -0.17,0.1 -0.22,0.11l-0.04 0.01c-0.21,-0.17 -0.56,-0.42 -0.74,-0.59 -0.08,-0.07 -0.16,-0.09 -0.22,-0.07 -0.02,0.01 -0.04,0.02 -0.05,0.03 -0.01,0.01 -0.02,0.03 -0.02,0.05 -0.01,0.07 0.02,0.16 0.12,0.25 0.06,0.06 0.12,0.12 0.19,0.19 0.18,0.18 0.38,0.38 0.55,0.54 0.02,0.02 0.05,0.04 0.08,0.06 0.03,0.01 0.06,0.02 0.1,0.02 0.07,-0.01 0.4,-0.2 0.55,-0.28l0.13 -0.08 0.02 0.11c0.01,0.1 0.03,0.21 0.05,0.31 0.04,0.21 0.07,0.42 0.07,0.58l-0 0.01 -0.51 3.18c0,0.03 0.01,0.06 0.03,0.08 0.02,0.03 0.05,0.05 0.09,0.06 0.03,0.01 0.07,0.02 0.11,0.01 0.04,-0.01 0.08,-0.03 0.11,-0.08l0.81 -2.41 0.74 2.42c0.04,0.04 0.08,0.06 0.13,0.07 0.02,0 0.05,0 0.07,-0.01 0.02,-0.01 0.05,-0.02 0.07,-0.03 0.04,-0.03 0.07,-0.08 0.08,-0.15l-0.37 -3.13zm0.17 -0.57c-0.02,0.27 -0.03,0.49 -0.02,0.54l0 0.01 0.37 3.15 -0 0.01c-0.01,0.11 -0.07,0.2 -0.14,0.26 -0.04,0.03 -0.08,0.05 -0.12,0.06 -0.04,0.01 -0.09,0.02 -0.13,0.01 -0.09,-0.01 -0.18,-0.06 -0.24,-0.14l-0.01 -0.01 -0.61 -1.99 -0.67 1.98 -0.01 0.01c-0.06,0.08 -0.13,0.12 -0.2,0.14 -0.07,0.02 -0.14,0.01 -0.2,-0.01 -0.06,-0.02 -0.11,-0.06 -0.15,-0.11 -0.04,-0.05 -0.07,-0.12 -0.07,-0.18l0 -0 0.51 -3.19c0,-0.15 -0.03,-0.35 -0.07,-0.55 -0.01,-0.07 -0.02,-0.14 -0.03,-0.2 -0.17,0.1 -0.45,0.25 -0.54,0.26 -0.07,0.01 -0.13,-0.01 -0.18,-0.03 -0.05,-0.02 -0.09,-0.05 -0.12,-0.09 -0.17,-0.16 -0.37,-0.36 -0.55,-0.55 -0.07,-0.07 -0.13,-0.13 -0.19,-0.19 -0.14,-0.14 -0.18,-0.28 -0.16,-0.39 0.01,-0.05 0.03,-0.1 0.06,-0.13 0.03,-0.04 0.07,-0.06 0.12,-0.08 0.1,-0.03 0.23,-0.01 0.36,0.1l0.67 0.54c0.04,-0.02 0.1,-0.05 0.14,-0.08 0.02,-0.01 0.04,-0.03 0.06,-0.03 0.09,-0.05 0.16,-0.1 0.23,-0.14 0.17,-0.11 0.31,-0.21 0.58,-0.27l0.05 -0.01 0.03 0.04c0.01,0.01 0.01,0.02 0.02,0.02 0.07,0.06 0.19,0.09 0.31,0.09 0.12,0 0.24,-0.03 0.32,-0.09 0.01,-0.01 0.02,-0.02 0.03,-0.03l0.03 -0.04 0.05 0.01c0.08,0.02 0.16,0.04 0.23,0.07 0.08,0.03 0.14,0.07 0.21,0.12 0.1,0.08 0.06,0.66 0.03,1.12z"/>
  </g>
 </g>
</svg>
