<?xml version="1.0" encoding="UTF-8"?>
<!DOCTYPE svg PUBLIC "-//W3C//DTD SVG 1.1//EN" "http://www.w3.org/Graphics/SVG/1.1/DTD/svg11.dtd">
<!-- Creator: CorelDRAW 2018 (64-Bit) -->
<svg xmlns="http://www.w3.org/2000/svg" xml:space="preserve" width="39.0836mm" height="31.5902mm" version="1.1" style="shape-rendering:geometricPrecision; text-rendering:geometricPrecision; image-rendering:optimizeQuality; fill-rule:evenodd; clip-rule:evenodd"
viewBox="0 0 8.64 6.98"
 xmlns:xlink="http://www.w3.org/1999/xlink">
 <defs>
  <style type="text/css">
   <![CDATA[
    .fil1 {fill:#59656C}
    .fil0 {fill:#59656C;fill-rule:nonzero}
   ]]>
  </style>
 </defs>
 <g id="Слой_x0020_1">
  <metadata id="CorelCorpID_0Corel-Layer"/>
  <g id="_1773721104">
   <path class="fil0" d="M0.53 0l7.59 0c0.14,0 0.28,0.06 0.37,0.15 0.1,0.1 0.15,0.23 0.15,0.37l0 1.71c0,0.14 -0.06,0.28 -0.15,0.37l-0 -0c-0.1,0.1 -0.23,0.15 -0.37,0.15l-7.59 0c-0.14,0 -0.28,-0.06 -0.37,-0.15l-0 -0c-0.1,-0.1 -0.15,-0.23 -0.15,-0.37l0 -1.71c0,-0.14 0.06,-0.28 0.15,-0.37l-0 -0c0.1,-0.1 0.23,-0.15 0.37,-0.15zm7.59 0.22l-7.59 0c-0.08,0 -0.16,0.03 -0.22,0.09l-0 0c-0.06,0.06 -0.09,0.13 -0.09,0.22l0 1.71c0,0.08 0.03,0.16 0.09,0.22l0 0c0.06,0.06 0.13,0.09 0.22,0.09l7.59 0c0.08,0 0.16,-0.03 0.22,-0.09l0 -0c0.06,-0.06 0.09,-0.13 0.09,-0.22l0 -1.71c0,-0.08 -0.03,-0.16 -0.09,-0.22 -0.06,-0.06 -0.13,-0.09 -0.22,-0.09z"/>
   <path class="fil0" d="M4.32 3.13c0.51,0 0.97,0.21 1.3,0.54 0.33,0.33 0.54,0.79 0.54,1.3l0 1.46 -0.05 0.03c-0.27,0.17 -0.56,0.3 -0.86,0.39 -0.3,0.09 -0.61,0.13 -0.93,0.13 -0.32,0 -0.63,-0.05 -0.93,-0.13 -0.31,-0.09 -0.6,-0.22 -0.86,-0.39l-0.05 -0.03 0 -1.46c0,-0.51 0.21,-0.97 0.54,-1.3 0.33,-0.33 0.79,-0.54 1.3,-0.54zm1.14 0.7c-0.29,-0.29 -0.7,-0.48 -1.14,-0.48 -0.45,0 -0.85,0.18 -1.14,0.48 -0.29,0.29 -0.48,0.7 -0.48,1.14l0 1.33c0.24,0.14 0.49,0.26 0.75,0.34 0.28,0.08 0.57,0.12 0.87,0.12 0.3,0 0.59,-0.04 0.87,-0.12 0.27,-0.08 0.52,-0.19 0.75,-0.34l0 -1.33c0,-0.45 -0.18,-0.85 -0.48,-1.14z"/>
   <path class="fil0" d="M7.83 2.63c0.01,0.08 0.02,0.17 0.02,0.26 0.01,0.09 0.01,0.18 0.01,0.26 0,1.06 -0.4,2.01 -1.03,2.71 -0.64,0.7 -1.53,1.13 -2.51,1.13 -0.98,0 -1.87,-0.43 -2.51,-1.13 -0.64,-0.69 -1.03,-1.65 -1.03,-2.71 0,-0.08 0,-0.17 0.01,-0.26 0.01,-0.09 0.01,-0.18 0.02,-0.26l0.01 -0.1 6.99 0 0.01 0.1zm-0.2 0.27c-0,-0.05 -0.01,-0.1 -0.01,-0.15l-6.6 0c-0.01,0.05 -0.01,0.1 -0.01,0.15 -0,0.08 -0.01,0.16 -0.01,0.25 0,1 0.37,1.9 0.98,2.56 0.6,0.65 1.43,1.05 2.34,1.05 0.92,0 1.74,-0.4 2.34,-1.05 0.6,-0.65 0.98,-1.56 0.98,-2.56 0,-0.09 -0,-0.17 -0.01,-0.25z"/>
   <path class="fil0" d="M4.32 3.96c0.27,0 0.52,0.11 0.7,0.29 0.18,0.18 0.29,0.43 0.29,0.7 0,0.27 -0.11,0.52 -0.29,0.7 -0.18,0.18 -0.43,0.29 -0.7,0.29 -0.27,0 -0.52,-0.11 -0.7,-0.29 -0.18,-0.18 -0.29,-0.43 -0.29,-0.7 0,-0.27 0.11,-0.52 0.29,-0.7 0.18,-0.18 0.43,-0.29 0.7,-0.29zm0.54 0.45c-0.14,-0.14 -0.33,-0.22 -0.54,-0.22 -0.21,0 -0.4,0.09 -0.54,0.22 -0.14,0.14 -0.22,0.33 -0.22,0.54 0,0.21 0.09,0.4 0.22,0.54 0.14,0.14 0.33,0.22 0.54,0.22 0.21,0 0.4,-0.09 0.54,-0.22 0.14,-0.14 0.22,-0.33 0.22,-0.54 0,-0.21 -0.09,-0.4 -0.22,-0.54z"/>
   <circle class="fil1" cx="7.44" cy="1.53" r="0.23"/>
  </g>
 </g>
</svg>
