<?xml version="1.0" encoding="UTF-8"?>
<!DOCTYPE svg PUBLIC "-//W3C//DTD SVG 1.1//EN" "http://www.w3.org/Graphics/SVG/1.1/DTD/svg11.dtd">
<!-- Creator: CorelDRAW 2018 (64-Bit) -->
<svg xmlns="http://www.w3.org/2000/svg" xml:space="preserve" width="36.9115mm" height="39.9098mm" version="1.1" style="shape-rendering:geometricPrecision; text-rendering:geometricPrecision; image-rendering:optimizeQuality; fill-rule:evenodd; clip-rule:evenodd"
viewBox="0 0 6.05 6.54"
 xmlns:xlink="http://www.w3.org/1999/xlink">
 <defs>
  <style type="text/css">
   <![CDATA[
    .fil1 {fill:#59656C}
    .fil0 {fill:#59656C;fill-rule:nonzero}
   ]]>
  </style>
 </defs>
 <g id="Слой_x0020_1">
  <metadata id="CorelCorpID_0Corel-Layer"/>
  <g id="_2109663232">
   <path class="fil0" d="M2.7 0c0.38,0 0.72,0.18 0.97,0.46 0.24,0.28 0.4,0.67 0.4,1.1 0,0.43 -0.15,0.82 -0.4,1.1 -0.25,0.29 -0.59,0.46 -0.97,0.46 -0.38,0 -0.72,-0.18 -0.97,-0.46 -0.24,-0.28 -0.4,-0.67 -0.4,-1.1 0,-0.43 0.15,-0.82 0.4,-1.1 0.25,-0.29 0.59,-0.46 0.97,-0.46zm0.85 0.57c-0.22,-0.25 -0.52,-0.41 -0.85,-0.41 -0.33,0 -0.63,0.16 -0.85,0.41 -0.22,0.25 -0.36,0.61 -0.36,1 0,0.39 0.14,0.74 0.36,1 0.22,0.25 0.52,0.41 0.85,0.41 0.33,0 0.63,-0.16 0.85,-0.41 0.22,-0.25 0.36,-0.61 0.36,-1 0,-0.39 -0.14,-0.74 -0.36,-1z"/>
   <path class="fil1" d="M4.31 5.32l0.53 0 0 -0.53c0,-0.05 0.04,-0.08 0.08,-0.08l0 0c0.05,0 0.08,0.04 0.08,0.08l0 0.53 0.53 0c0.05,0 0.08,0.04 0.08,0.08l0 0c0,0.05 -0.04,0.08 -0.08,0.08l-0.53 0 0 0.53c0,0.05 -0.04,0.08 -0.08,0.08l0 0c-0.05,0 -0.08,-0.04 -0.08,-0.08l0 -0.53 -0.53 0c-0.05,0 -0.08,-0.04 -0.08,-0.08l0 0c0,-0.05 0.04,-0.08 0.08,-0.08z"/>
   <path class="fil0" d="M4.91 4.27c0.31,0 0.6,0.13 0.8,0.33 0.2,0.2 0.33,0.49 0.33,0.8 0,0.31 -0.13,0.6 -0.33,0.8 -0.2,0.2 -0.49,0.33 -0.8,0.33 -0.31,0 -0.6,-0.13 -0.8,-0.33 -0.2,-0.2 -0.33,-0.49 -0.33,-0.8 0,-0.31 0.13,-0.6 0.33,-0.8 0.2,-0.2 0.49,-0.33 0.8,-0.33zm0.68 0.45c-0.18,-0.18 -0.42,-0.28 -0.68,-0.28 -0.27,0 -0.51,0.11 -0.68,0.28 -0.18,0.18 -0.28,0.42 -0.28,0.68 0,0.27 0.11,0.51 0.28,0.68 0.18,0.18 0.42,0.28 0.68,0.28 0.27,0 0.51,-0.11 0.68,-0.28 0.18,-0.18 0.28,-0.42 0.28,-0.68 0,-0.27 -0.11,-0.51 -0.28,-0.68z"/>
   <path class="fil0" d="M5.08 4.29c-0.15,-0.16 -0.44,-0.28 -1,-0.51l-0.14 -0.06c-0.04,-0.01 -0.08,-0.04 -0.13,-0.06 -0.16,-0.08 -0.38,-0.19 -0.46,-0.13l-0.01 0.01c-0.33,0.23 -0.6,0.42 -1.14,0.1 -0.06,-0.04 -0.1,-0.07 -0.14,-0.09 -0.09,-0.07 -0.09,-0.07 -0.76,0.24 -0.17,0.08 -0.32,0.14 -0.45,0.2 -0.68,0.29 -0.69,0.3 -0.69,1.39 -0,0.03 -0,0.06 -0,0.1 -0,0.05 -0,0.1 -0,0.14 0,0.09 0.03,0.09 0.24,0.09 0.07,-0 0.16,-0 0.25,-0l0 0 3.17 0c-0.01,-0.03 -0.01,-0.06 -0.02,-0.08 -0.01,-0.07 -0.02,-0.13 -0.02,-0.2 0,-0.31 0.13,-0.6 0.33,-0.8 0.2,-0.2 0.49,-0.33 0.8,-0.33 0.05,0 0.11,0 0.16,0.01zm-0.94 -0.67c0.76,0.32 1.06,0.44 1.18,0.76l0.06 0.16 -0.16 -0.06c-0.05,-0.02 -0.1,-0.03 -0.15,-0.04 -0.05,-0.01 -0.1,-0.01 -0.16,-0.01 -0.27,0 -0.51,0.11 -0.68,0.28 -0.18,0.18 -0.28,0.42 -0.28,0.68 0,0.06 0.01,0.12 0.02,0.17 0.01,0.06 0.03,0.11 0.05,0.17l0.04 0.11 -3.4 -0 0 0c-0.11,0 -0.18,0 -0.25,0 -0.36,0.01 -0.4,0.01 -0.41,-0.25 -0,-0.05 -0,-0.1 0,-0.15 0,-0.03 0,-0.07 0,-0.09 0,-1.2 0.02,-1.21 0.79,-1.54 0.12,-0.05 0.27,-0.12 0.44,-0.2 0.76,-0.35 0.77,-0.35 0.93,-0.22 0.03,0.02 0.06,0.05 0.11,0.08 0.46,0.26 0.69,0.1 0.97,-0.1l0.01 -0.01c0.16,-0.11 0.43,0.03 0.62,0.12 0.05,0.02 0.09,0.04 0.12,0.06l0.14 0.06z"/>
  </g>
 </g>
</svg>
