<?xml version="1.0" encoding="UTF-8"?>
<!DOCTYPE svg PUBLIC "-//W3C//DTD SVG 1.1//EN" "http://www.w3.org/Graphics/SVG/1.1/DTD/svg11.dtd">
<!-- Creator: CorelDRAW 2018 (64-Bit) -->
<svg xmlns="http://www.w3.org/2000/svg" xml:space="preserve" width="37.5246mm" height="40.8044mm" version="1.1" style="shape-rendering:geometricPrecision; text-rendering:geometricPrecision; image-rendering:optimizeQuality; fill-rule:evenodd; clip-rule:evenodd"
viewBox="0 0 6.41 6.97"
 xmlns:xlink="http://www.w3.org/1999/xlink">
 <defs>
  <style type="text/css">
   <![CDATA[
    .fil0 {fill:#59656C;fill-rule:nonzero}
    .fil1 {fill:white;fill-rule:nonzero}
   ]]>
  </style>
 </defs>
 <g id="Слой_x0020_1">
  <metadata id="CorelCorpID_0Corel-Layer"/>
  <g id="_1764801376">
   <path class="fil0" d="M2.64 2.7l0.39 -1.15 -0.28 0 -0.15 0.49c-0.04,0.13 -0.07,0.27 -0.1,0.4l-0.01 0c-0.03,-0.14 -0.06,-0.27 -0.1,-0.41l-0.14 -0.48 -0.28 0 0.37 1.15 0.3 0zm0.51 -1.15l0 1.15 0.26 0 0 -1.15 -0.26 0zm0.48 1.15l0.26 0 0 -0.41c0.02,0 0.05,0.01 0.09,0.01 0.15,0 0.28,-0.04 0.37,-0.12 0.07,-0.06 0.11,-0.16 0.11,-0.27 0,-0.11 -0.05,-0.21 -0.12,-0.27 -0.08,-0.06 -0.19,-0.09 -0.35,-0.09 -0.16,0 -0.27,0.01 -0.35,0.02l0 1.13zm0.26 -0.95c0.02,-0.01 0.05,-0.01 0.11,-0.01 0.13,0 0.2,0.06 0.2,0.17 0,0.12 -0.09,0.19 -0.22,0.19 -0.04,0 -0.06,-0 -0.09,-0.01l0 -0.34z"/>
   <g>
    <path class="fil0" d="M3.2 0c0.58,0 1.11,0.24 1.49,0.62 0.38,0.38 0.62,0.91 0.62,1.49 0,0.58 -0.24,1.11 -0.62,1.49 -0.38,0.38 -0.91,0.62 -1.49,0.62 -0.58,0 -1.11,-0.24 -1.49,-0.62 -0.38,-0.38 -0.62,-0.91 -0.62,-1.49 0,-0.58 0.24,-1.11 0.62,-1.49 0.38,-0.38 0.91,-0.62 1.49,-0.62zm1.37 0.74c-0.35,-0.35 -0.83,-0.57 -1.37,-0.57 -0.53,0 -1.02,0.22 -1.37,0.57 -0.35,0.35 -0.57,0.83 -0.57,1.37 0,0.53 0.22,1.02 0.57,1.37 0.35,0.35 0.83,0.57 1.37,0.57 0.53,0 1.02,-0.22 1.37,-0.57 0.35,-0.35 0.57,-0.83 0.57,-1.37 0,-0.53 -0.22,-1.02 -0.57,-1.37z"/>
    <path class="fil0" d="M1.49 3.07l-1.22 2.78c-0.03,0.06 -0.05,0.1 -0.06,0.14 0,-0 0.01,-0 0.01,-0 0.02,-0 0.04,-0.01 0.11,-0.02l0.98 -0.22 0.38 0.84c0.03,0.06 0.04,0.09 0.05,0.12 0.01,-0.03 0.03,-0.07 0.05,-0.12l1.05 -2.52 0.16 0.07 -1.05 2.52c-0.02,0.04 -0.04,0.09 -0.05,0.12 -0.05,0.13 -0.08,0.19 -0.15,0.19 -0.07,-0 -0.1,-0.06 -0.15,-0.18 -0.02,-0.04 -0.04,-0.09 -0.06,-0.13l-0.32 -0.71 -0.85 0.19c-0.02,0 -0.06,0.01 -0.1,0.02 -0.14,0.03 -0.2,0.05 -0.25,-0.02 -0.04,-0.06 -0.01,-0.11 0.04,-0.21 0.02,-0.04 0.04,-0.09 0.06,-0.14l1.22 -2.78 0.16 0.07zm-1.31 2.95c-0.02,0.01 -0.03,0 -0.02,0.02 0.01,0.02 0.01,0 0.02,-0.02zm1.57 0.75c-0.01,0.02 -0.02,0.03 0,0.03 0.02,0 0.01,-0.01 -0,-0.03z"/>
    <path class="fil0" d="M5.07 3l1.22 2.78c0.02,0.05 0.04,0.1 0.06,0.14 0.05,0.1 0.08,0.16 0.04,0.21 -0.04,0.07 -0.11,0.05 -0.25,0.02 -0.04,-0.01 -0.08,-0.02 -0.1,-0.02l-0.85 -0.19 -0.32 0.71c-0.02,0.04 -0.04,0.09 -0.06,0.13 -0.05,0.12 -0.08,0.18 -0.15,0.18 -0.08,0 -0.1,-0.06 -0.15,-0.19 -0.01,-0.04 -0.03,-0.08 -0.05,-0.12l-1.05 -2.52 0.16 -0.07 1.05 2.52c0.02,0.05 0.04,0.09 0.05,0.12 0.01,-0.03 0.03,-0.07 0.05,-0.12l0.38 -0.84 0.98 0.22c0.06,0.01 0.09,0.02 0.11,0.02 0.01,0 0.01,0 0.01,0 -0.02,-0.03 -0.04,-0.08 -0.06,-0.14l-1.22 -2.78 0.16 -0.07zm1.18 3.04c0.01,-0.02 -0,-0.01 -0.02,-0.02 0.01,0.02 0.01,0.04 0.02,0.02zm-1.59 0.76c0.02,-0 0.01,-0.01 0,-0.03 -0.01,0.02 -0.02,0.03 -0,0.03z"/>
    <path class="fil1" d="M2.63 2.69l0.37 -1.11 -0.24 0 -0.14 0.48c-0.02,0.07 -0.04,0.13 -0.06,0.2 -0.02,0.07 -0.03,0.14 -0.05,0.2l-0 0.01 -0.03 0 -0 -0.01c-0.01,-0.07 -0.03,-0.14 -0.05,-0.21 -0.02,-0.07 -0.04,-0.13 -0.06,-0.2l-0.14 -0.47 -0.25 0 0.36 1.11 0.28 0zm0.41 -1.12l-0.39 1.16 -0.33 0 -0.38 -1.18 0.32 0 0.14 0.5c0.02,0.07 0.04,0.14 0.06,0.2 0.01,0.05 0.02,0.09 0.03,0.14 0.01,-0.05 0.02,-0.09 0.03,-0.14 0.02,-0.07 0.04,-0.14 0.06,-0.2l0.15 -0.5 0.31 0 -0.01 0.02zm0.12 0.01l0 1.11 0.23 0 0 -1.11 -0.23 0zm-0.03 1.13l0 -1.16 0.29 0 0 1.18 -0.29 0 0 -0.02zm0.52 -0.02l0.22 0 0 -0.41 0.02 0c0.01,0 0.02,0 0.04,0 0.01,0 0.03,0 0.05,0 0.08,0 0.15,-0.01 0.21,-0.03 0.06,-0.02 0.11,-0.05 0.15,-0.09 0.03,-0.03 0.06,-0.07 0.07,-0.11 0.02,-0.04 0.03,-0.09 0.03,-0.15 0,-0.05 -0.01,-0.1 -0.03,-0.14 -0.02,-0.04 -0.05,-0.08 -0.09,-0.11 -0.04,-0.03 -0.08,-0.05 -0.14,-0.07 -0.06,-0.01 -0.12,-0.02 -0.2,-0.02 -0.08,0 -0.15,0 -0.2,0.01 -0.05,0 -0.09,0.01 -0.13,0.01l0 1.1zm0.24 0.03l-0.27 0 0 -1.16 0.01 -0c0.04,-0.01 0.09,-0.01 0.15,-0.02 0.06,-0 0.13,-0.01 0.21,-0.01 0.08,0 0.15,0.01 0.21,0.02 0.06,0.02 0.11,0.04 0.15,0.07 0.04,0.03 0.07,0.07 0.1,0.12 0.02,0.05 0.03,0.1 0.03,0.16 0,0.06 -0.01,0.11 -0.03,0.16 -0.02,0.05 -0.05,0.09 -0.08,0.12 -0.05,0.04 -0.1,0.07 -0.16,0.09 -0.07,0.02 -0.14,0.03 -0.22,0.03 -0.02,0 -0.03,-0 -0.05,-0l-0.02 -0 0 0.41 -0.02 0zm-0 -0.98c0.01,-0 0.03,-0.01 0.05,-0.01 0.02,-0 0.04,-0 0.06,-0 0.07,0 0.12,0.02 0.16,0.05 0.04,0.03 0.06,0.08 0.06,0.14 0,0.06 -0.02,0.11 -0.07,0.15 -0.04,0.03 -0.1,0.05 -0.17,0.05 -0.02,0 -0.04,-0 -0.05,-0 -0.02,-0 -0.03,-0 -0.04,-0.01l-0.01 -0 0 -0.37 0.01 -0zm0.05 0.03c-0.01,0 -0.02,0 -0.03,0l0 0.31c0.01,0 0.01,0 0.02,0 0.01,0 0.03,0 0.05,0 0.07,0 0.12,-0.02 0.15,-0.05 0.03,-0.03 0.05,-0.07 0.05,-0.12 0,-0.05 -0.02,-0.09 -0.05,-0.11 -0.03,-0.03 -0.08,-0.04 -0.14,-0.04 -0.02,0 -0.04,0 -0.06,0z"/>
   </g>
  </g>
 </g>
</svg>
