<?xml version="1.0" encoding="UTF-8"?>
<!DOCTYPE svg PUBLIC "-//W3C//DTD SVG 1.1//EN" "http://www.w3.org/Graphics/SVG/1.1/DTD/svg11.dtd">
<!-- Creator: CorelDRAW 2018 (64-Bit) -->
<svg xmlns="http://www.w3.org/2000/svg" xml:space="preserve" width="60.0001mm" height="60mm" version="1.1" style="shape-rendering:geometricPrecision; text-rendering:geometricPrecision; image-rendering:optimizeQuality; fill-rule:evenodd; clip-rule:evenodd"
viewBox="0 0 23.38 23.38"
 xmlns:xlink="http://www.w3.org/1999/xlink">
 <defs>
  <style type="text/css">
   <![CDATA[
    .str0 {stroke:#59656C;stroke-width:0.39;stroke-miterlimit:22.9256}
    .fil0 {fill:none}
   ]]>
  </style>
 </defs>
 <g id="Слой_x0020_1">
  <metadata id="CorelCorpID_0Corel-Layer"/>
  <g id="_5110117280">
   <g>
    <path class="fil0 str0" d="M8.11 13.65c0,0.5 0.93,0.89 1.19,0.04l0.55 -2.24c0.12,-0.48 0.11,-0.57 0.11,-0.01 -0.03,2.59 -0.3,5.21 -0.3,7.8 0,0.45 0.7,0.89 1.18,0.29 0.2,-0.25 0.71,-4.4 0.86,-5.38l0.89 5.4c0.37,0.5 1.13,0.28 1.2,-0.37l-0.33 -7.68c-0.03,-0.44 0.03,-0.35 0.11,0l0.73 2.53c0.51,0.4 0.98,-0.05 0.98,-0.43 0,-0.35 -0.69,-4.6 -0.78,-5.1 -0.07,-0.39 -0.17,-0.57 -0.43,-0.77 -0.3,-0.24 -0.99,-0.52 -1.39,-0.61 -0.43,0.51 -1.61,0.45 -1.97,0 -0.44,0.1 -0.89,0.33 -1.27,0.55 -0.55,0.31 -0.52,0.73 -0.7,1.83 -0.07,0.41 -0.63,3.81 -0.63,4.16z"/>
    <path class="fil0 str0" d="M10.2 5.01c0,0.46 0.19,0.84 0.41,1.08 0.77,0.86 2.58,0.5 2.58,-1.08 0,-1 -1.09,-1.79 -2.14,-1.3 -0.1,0.05 -0.33,0.21 -0.41,0.29 -0.19,0.19 -0.44,0.64 -0.44,1.01z"/>
   </g>
   <rect class="fil0 str0" x="5.51" y="9.2" width="1.17" height="10.62" rx="0.58" ry="0.53"/>
   <rect class="fil0 str0" x="16.71" y="9.2" width="1.17" height="10.62" rx="0.58" ry="0.53"/>
  </g>
  <rect class="fil0" y="-0" width="23.38" height="23.38"/>
 </g>
</svg>
