<?xml version="1.0" encoding="UTF-8"?>
<!DOCTYPE svg PUBLIC "-//W3C//DTD SVG 1.1//EN" "http://www.w3.org/Graphics/SVG/1.1/DTD/svg11.dtd">
<!-- Creator: CorelDRAW 2018 (64-Bit) -->
<svg xmlns="http://www.w3.org/2000/svg" xml:space="preserve" width="60.0632mm" height="47mm" version="1.1" style="shape-rendering:geometricPrecision; text-rendering:geometricPrecision; image-rendering:optimizeQuality; fill-rule:evenodd; clip-rule:evenodd"
viewBox="0 0 57.24 44.79"
 xmlns:xlink="http://www.w3.org/1999/xlink">
 <defs>
  <style type="text/css">
   <![CDATA[
    .str0 {stroke:white;stroke-width:0.95;stroke-miterlimit:22.9256}
    .fil2 {fill:none}
    .fil0 {fill:#55ADAD}
    .fil1 {fill:#59656C}
   ]]>
  </style>
 </defs>
 <g id="Слой_x0020_1">
  <metadata id="CorelCorpID_0Corel-Layer"/>
  <g id="_1632695264">
   <g>
    <path class="fil0" d="M37.04 36.3l3.36 0 0 -3.36c0,-0.19 0.15,-0.34 0.34,-0.34l0 0c0.19,0 0.34,0.15 0.34,0.34l0 3.69 0 0 -0 0.01 -0 0.01 -0 0.01 -0 0.01 -0 0.01 -0 0.01 -0 0.01 -0 0.01 -0 0.01c-0,0.01 -0,0.01 -0,0.02l-0 0.01c-0,0.01 -0.01,0.02 -0.01,0.02l-0 0.01c-0,0.01 -0,0.01 -0.01,0.01 -0,0.01 -0.01,0.02 -0.02,0.03 -0.05,0.09 -0.14,0.15 -0.25,0.16l-0.01 0c-0.01,0 -0.01,0 -0.02,0l-0.01 0 -0.01 0 -3.69 0c-0.18,0 -0.34,-0.15 -0.34,-0.34l0 0c0,-0.19 0.15,-0.34 0.34,-0.34z"/>
    <path class="fil0" d="M37.04 8.49l3.36 0 0 3.36c0,0.19 0.15,0.34 0.34,0.34l0 0c0.19,0 0.34,-0.15 0.34,-0.34l0 -3.69 0 0 -0 -0.01 -0 -0.01 -0 -0.01 -0 -0.01 -0 -0.01 -0 -0.01 -0 -0.01 -0 -0.01 -0 -0.01c-0,-0.01 -0,-0.01 -0,-0.02l-0 -0.01c-0,-0.01 -0.01,-0.02 -0.01,-0.02l-0 -0.01c-0,-0.01 -0,-0.01 -0.01,-0.01 -0,-0.01 -0.01,-0.02 -0.02,-0.03 -0.05,-0.09 -0.14,-0.15 -0.25,-0.16l-0.01 -0c-0.01,-0 -0.01,-0 -0.02,-0l-0.01 -0 -0.01 -0 -3.69 0c-0.18,0 -0.34,0.15 -0.34,0.34l0 0c0,0.19 0.15,0.34 0.34,0.34z"/>
    <path class="fil0" d="M20.21 36.3l-3.36 0 0 -3.36c0,-0.19 -0.15,-0.34 -0.34,-0.34l0 0c-0.19,0 -0.34,0.15 -0.34,0.34l0 3.69 0 0 0 0.01 0 0.01 0 0.01 0 0.01 0 0.01 0 0.01 0 0.01 0 0.01 0 0.01c0,0.01 0,0.01 0,0.02l0 0.01c0,0.01 0.01,0.02 0.01,0.02l0 0.01c0,0.01 0,0.01 0.01,0.01 0,0.01 0.01,0.02 0.02,0.03 0.05,0.09 0.14,0.15 0.25,0.16l0.01 0c0.01,0 0.01,0 0.02,0l0.01 0 0.01 0 3.69 0c0.18,0 0.34,-0.15 0.34,-0.34l0 0c0,-0.19 -0.15,-0.34 -0.34,-0.34z"/>
    <path class="fil0" d="M20.21 8.49l-3.36 0 0 3.36c0,0.19 -0.15,0.34 -0.34,0.34l0 0c-0.19,0 -0.34,-0.15 -0.34,-0.34l0 -3.69 0 0 0 -0.01 0 -0.01 0 -0.01 0 -0.01 0 -0.01 0 -0.01 0 -0.01 0 -0.01 0 -0.01c0,-0.01 0,-0.01 0,-0.02l0 -0.01c0,-0.01 0.01,-0.02 0.01,-0.02l0 -0.01c0,-0.01 0,-0.01 0.01,-0.01 0,-0.01 0.01,-0.02 0.02,-0.03 0.05,-0.09 0.14,-0.15 0.25,-0.16l0.01 -0c0.01,-0 0.01,-0 0.02,-0l0.01 -0 0.01 -0 3.69 0c0.18,0 0.34,0.15 0.34,0.34l0 0c0,0.19 -0.15,0.34 -0.34,0.34z"/>
   </g>
   <g>
    <path class="fil1 str0" d="M11.03 22.4c0.16,-0.33 0.53,-0.71 0.75,-0.99 1.63,-2.03 4.19,-4.25 6.34,-5.6 6.82,-4.26 14.17,-4.27 20.99,0 1.57,0.98 4.34,3.23 5.57,4.7 0.33,0.39 1.33,1.49 1.53,1.88 -0.16,0.33 -0.53,0.71 -0.75,0.99 -1.63,2.03 -4.19,4.25 -6.34,5.6 -6.83,4.27 -14.17,4.27 -20.99,0 -2.08,-1.3 -4.8,-3.64 -6.37,-5.63 -0.23,-0.3 -0.55,-0.6 -0.73,-0.95zm-1.97 0.26c0.13,0.99 1.8,2.64 2.48,3.41 0.29,0.33 0.63,0.66 0.96,0.97 9.14,8.66 20.41,9.69 30.45,1.59 1.9,-1.53 2.46,-2.23 3.94,-3.89 0.48,-0.54 1.44,-1.5 1.31,-2.58 -0.14,-1.08 -2.52,-3.53 -3.43,-4.39 -9.14,-8.66 -20.41,-9.69 -30.45,-1.59 -0.75,0.6 -1.42,1.2 -2.07,1.85 -0.34,0.34 -0.64,0.7 -0.98,1.02 -0.35,0.33 -0.59,0.69 -0.89,1.03 -0.48,0.54 -1.45,1.5 -1.31,2.59z"/>
    <path class="fil1 str0" d="M27.95 16.57c3.41,-0.44 6.15,2.15 6.5,5.15 0.4,3.43 -2.19,6.17 -5.12,6.5 -3.46,0.39 -6.18,-2.12 -6.54,-5.16 -0.21,-1.78 0.47,-3.47 1.34,-4.45 0.88,-0.99 2.01,-1.8 3.82,-2.04zm8.44 6.78c0.41,-2.29 -0.69,-4.69 -1.74,-5.96 -0.31,-0.38 -0.64,-0.66 -1,-0.99 -0.31,-0.3 -0.72,-0.54 -1.13,-0.79 -2.8,-1.69 -6.71,-1.2 -8.9,0.76 -1.36,1.22 -2.38,2.57 -2.77,5.05 -0.35,2.27 0.64,4.74 1.74,5.97 1.19,1.34 2.59,2.4 5.04,2.77 2.3,0.34 4.74,-0.63 5.98,-1.74 1.44,-1.29 2.31,-2.5 2.77,-5.06z"/>
   </g>
  </g>
  <rect class="fil2" width="57.24" height="44.79"/>
 </g>
</svg>
