<?xml version="1.0" encoding="UTF-8"?>
<!DOCTYPE svg PUBLIC "-//W3C//DTD SVG 1.1//EN" "http://www.w3.org/Graphics/SVG/1.1/DTD/svg11.dtd">
<!-- Creator: CorelDRAW 2018 (64-Bit) -->
<svg xmlns="http://www.w3.org/2000/svg" xml:space="preserve" width="60.0632mm" height="47mm" version="1.1" style="shape-rendering:geometricPrecision; text-rendering:geometricPrecision; image-rendering:optimizeQuality; fill-rule:evenodd; clip-rule:evenodd"
viewBox="0 0 59.88 46.86"
 xmlns:xlink="http://www.w3.org/1999/xlink">
 <defs>
  <style type="text/css">
   <![CDATA[
    .str0 {stroke:#59656C;stroke-width:1;stroke-miterlimit:22.9256}
    .fil0 {fill:none}
    .fil1 {fill:#55ADAD}
   ]]>
  </style>
 </defs>
 <g id="Слой_x0020_1">
  <metadata id="CorelCorpID_0Corel-Layer"/>
  <g id="_1629898736">
   <g>
    <path class="fil0 str0" d="M28.2 42.18c0.35,1.16 1.65,1.23 2.11,0.31 0.63,-3.22 0.59,-7.6 -0.39,-9.5 -0.56,-1.12 -2.88,-4.76 -2.95,-5.58 -0.09,-1.01 0.49,-7.14 0.77,-7.72 1.37,0.85 2.41,2.41 3.74,3.13 0.5,0.27 6.64,1.5 6.46,-0.42 -0.11,-1.26 -3.54,-1.13 -6.14,-2.47 -1.57,-2.21 -2.8,-3.71 -3.45,-4.17 -1,-0.71 -5.72,-1.5 -7.1,-1.05 -2.57,0.84 -4.87,0.72 -6.18,2.49 -0.63,0.84 -1.22,1.6 -1.85,2.49 -0.74,1.04 -1.51,2.22 -0.77,2.94 1.29,1.24 3.65,-3.65 4.91,-4.16 0.27,-0.11 4.07,-0.87 4.79,-0.55 0.29,1.09 -0.33,4.23 -0.44,5.63 -0.18,2.22 -0.58,3.47 0.67,5.21 0.81,1.13 1.97,2.32 2.86,3.32 3.71,4.19 1.64,5.68 2.96,10.08z"/>
    <path class="fil0 str0" d="M24.74 34.67c-0.35,-0.68 -1.69,-2.51 -2.34,-2.96 -0.83,0.77 -1.48,2.05 -2.12,3.06 -1.13,1.79 -1.92,2.47 -3.73,4.07 -0.71,0.63 -2.62,1.57 -1.93,3 0.97,2.01 2.97,-0.33 5.4,-1.98 2.48,-1.68 3.07,-2.18 4.47,-4.7 0.18,-0.33 0.06,-0.09 0.25,-0.5z"/>
    <path class="fil0 str0" d="M23.45 9.76c0,1.01 0.41,1.85 0.91,2.4 1.71,1.9 5.7,1.1 5.7,-2.4 0,-2.21 -2.41,-3.96 -4.74,-2.87 -0.22,0.1 -0.73,0.46 -0.91,0.64 -0.43,0.43 -0.96,1.41 -0.96,2.23z"/>
   </g>
   <g>
    <path class="fil1" d="M34.27 11.41l-0.89 -0.82c-0.55,-0.54 -1.11,0.07 -0.59,0.59l1.59 1.57c0.25,0.25 0.41,0.16 0.64,-0.07l1.57 -1.57c0.41,-0.41 -0.08,-1.06 -0.61,-0.56l-0.9 0.86c0.27,-3.83 3.15,-6.83 7.02,-6.83 2.82,0 5.18,1.54 6.41,4.05 0.09,0.18 0.28,0.68 0.38,0.76 0.31,0.25 0.69,-0.02 0.69,-0.29 0,-0.27 -0.33,-0.92 -0.44,-1.14 -1.26,-2.55 -4.01,-4.16 -6.81,-4.25l-0.56 0c-4.28,0.14 -7.22,3.58 -7.52,7.68z"/>
    <path class="fil1" d="M50.04 11.86l0.89 0.82c0.55,0.54 1.11,-0.07 0.59,-0.59l-1.59 -1.57c-0.25,-0.25 -0.41,-0.16 -0.64,0.07l-1.57 1.57c-0.41,0.41 0.08,1.06 0.61,0.56l0.9 -0.86c-0.27,3.83 -3.15,6.83 -7.02,6.83 -2.82,0 -5.18,-1.54 -6.41,-4.05 -0.09,-0.18 -0.28,-0.68 -0.38,-0.76 -0.31,-0.25 -0.69,0.02 -0.69,0.29 0,0.27 0.33,0.92 0.44,1.14 1.26,2.55 4.01,4.16 6.81,4.25l0.56 0c4.28,-0.14 7.22,-3.58 7.52,-7.68z"/>
    <path class="fil1" d="M41.73 6.32l0 4.92c0,0.14 0.02,0.23 0.02,0.35 0.01,0.35 0.17,0.35 0.37,0.6 0.15,0.19 1.51,1.52 1.83,1.84 0.04,0.04 0.06,0.06 0.1,0.1 0.22,0.2 0.41,0.42 0.61,0.42 0.23,0 0.43,-0.2 0.43,-0.47 0,-0.13 -0.37,-0.5 -0.47,-0.6 -0.03,-0.03 -0.06,-0.05 -0.09,-0.09 -0.5,-0.54 -1.02,-1.04 -1.54,-1.56 -0.1,-0.1 -0.28,-0.25 -0.36,-0.36 -0.06,-0.07 -0.03,-0.18 -0.03,-0.34 0,-0.64 0.03,-5 -0.04,-5.41 -0.02,-0.13 -0.03,-0.19 -0.12,-0.25 -0.3,-0.21 -0.61,-0.04 -0.67,0.19 -0.02,0.08 -0.03,0.53 -0.03,0.65z"/>
   </g>
  </g>
  <rect class="fil0" width="59.88" height="46.86"/>
 </g>
</svg>
