<?xml version="1.0" encoding="UTF-8"?>
<!DOCTYPE svg PUBLIC "-//W3C//DTD SVG 1.1//EN" "http://www.w3.org/Graphics/SVG/1.1/DTD/svg11.dtd">
<!-- Creator: CorelDRAW 2018 (64-Bit) -->
<svg xmlns="http://www.w3.org/2000/svg" xml:space="preserve" width="60.0632mm" height="47mm" version="1.1" style="shape-rendering:geometricPrecision; text-rendering:geometricPrecision; image-rendering:optimizeQuality; fill-rule:evenodd; clip-rule:evenodd"
viewBox="0 0 62.82 49.15"
 xmlns:xlink="http://www.w3.org/1999/xlink">
 <defs>
  <style type="text/css">
   <![CDATA[
    .str1 {stroke:#55ADAD;stroke-width:1.05;stroke-miterlimit:22.9256}
    .str0 {stroke:#59656C;stroke-width:1.05;stroke-miterlimit:22.9256}
    .fil0 {fill:none}
    .fil1 {fill:#55ADAD}
   ]]>
  </style>
 </defs>
 <g id="Слой_x0020_1">
  <metadata id="CorelCorpID_0Corel-Layer"/>
  <g id="_1633526320">
   <path class="fil0 str0" d="M43 41.27c0,-7.98 0.8,-7.38 -7.18,-10.7 -0.85,-0.35 -2.77,-1.56 -3.56,-1 -1.68,1.17 -3.01,2.15 -5.74,0.59 -1.54,-0.88 -0.43,-1.48 -5.2,0.75 -6.24,2.91 -6.37,1.72 -6.38,8.94 -0,0.41 -0.03,0.9 -0.01,1.3 0.04,1.15 0.29,0.88 3.06,0.88l23.1 0c0.87,0.01 1.9,0.27 1.9,-0.75z"/>
   <ellipse class="fil0 str0" cx="28.98" cy="19.44" rx="6.88" ry="7.97"/>
   <g>
    <circle class="fil0 str1" transform="matrix(0.794354 -0.13398 0.13398 0.794354 29.0117 20.2997)" r="16.38"/>
    <path class="fil1" d="M51.95 35.7l-11.78 -8.38c-0.26,0.38 -0.53,0.76 -0.8,1.12l11.79 8.38c0.19,0.13 0.52,-0.01 0.74,-0.32l0 0c0.22,-0.31 0.25,-0.67 0.06,-0.81z"/>
   </g>
  </g>
  <rect class="fil0" width="62.82" height="49.15"/>
 </g>
</svg>
