<?xml version="1.0" encoding="UTF-8"?>
<!DOCTYPE svg PUBLIC "-//W3C//DTD SVG 1.1//EN" "http://www.w3.org/Graphics/SVG/1.1/DTD/svg11.dtd">
<!-- Creator: CorelDRAW 2018 (64-Bit) -->
<svg xmlns="http://www.w3.org/2000/svg" xml:space="preserve" width="53.3875mm" height="27.0122mm" version="1.1" style="shape-rendering:geometricPrecision; text-rendering:geometricPrecision; image-rendering:optimizeQuality; fill-rule:evenodd; clip-rule:evenodd"
viewBox="0 0 45.27 22.91"
 xmlns:xlink="http://www.w3.org/1999/xlink">
 <defs>
  <style type="text/css">
   <![CDATA[
    .fil0 {fill:#59656C;fill-rule:nonzero}
   ]]>
  </style>
 </defs>
 <g id="Слой_x0020_1">
  <metadata id="CorelCorpID_0Corel-Layer"/>
  <path class="fil0" d="M1.13 17.8l43.02 0c0.31,0 0.59,0.13 0.8,0.33 0.2,0.2 0.33,0.49 0.33,0.8l0 2.86c0,0.31 -0.13,0.59 -0.33,0.8 -0.2,0.2 -0.49,0.33 -0.8,0.33l-43.02 0c-0.31,0 -0.59,-0.13 -0.8,-0.33 -0.2,-0.2 -0.33,-0.49 -0.33,-0.8l0 -2.86c0,-0.31 0.13,-0.59 0.33,-0.8 0.2,-0.2 0.49,-0.33 0.8,-0.33zm43.02 0.85l-43.02 0c-0.08,0 -0.15,0.03 -0.2,0.08 -0.05,0.05 -0.08,0.12 -0.08,0.2l0 2.86c0,0.08 0.03,0.15 0.08,0.2 0.05,0.05 0.12,0.08 0.2,0.08l43.02 0c0.08,0 0.15,-0.03 0.2,-0.08 0.05,-0.05 0.08,-0.12 0.08,-0.2l0 -2.86c0,-0.08 -0.03,-0.15 -0.08,-0.2 -0.05,-0.05 -0.12,-0.08 -0.2,-0.08z"/>
  <path class="fil0" d="M3.62 0l1.18 0c0.28,0 0.53,0.11 0.72,0.3 0.18,0.18 0.3,0.44 0.3,0.72l0 14.71c0,0.28 -0.11,0.53 -0.3,0.72l0 0c-0.18,0.18 -0.44,0.3 -0.72,0.3l-1.18 0c-0.28,0 -0.53,-0.11 -0.72,-0.3l-0 -0c-0.18,-0.18 -0.3,-0.44 -0.3,-0.72l0 -14.71c0,-0.28 0.11,-0.53 0.3,-0.72l0 0c0.18,-0.18 0.44,-0.3 0.72,-0.3zm1.18 0.85l-1.18 0c-0.05,0 -0.09,0.02 -0.12,0.05l0 0c-0.03,0.03 -0.05,0.07 -0.05,0.12l0 14.71c0,0.05 0.02,0.09 0.05,0.12l0 0c0.03,0.03 0.07,0.05 0.12,0.05l1.18 0c0.05,0 0.09,-0.02 0.12,-0.05l0 0c0.03,-0.03 0.05,-0.07 0.05,-0.12l0 -14.71c0,-0.05 -0.02,-0.09 -0.05,-0.12 -0.03,-0.03 -0.07,-0.05 -0.12,-0.05z"/>
  <path class="fil0" d="M8.65 0l1.18 0c0.28,0 0.53,0.11 0.72,0.3 0.18,0.18 0.3,0.44 0.3,0.72l0 14.71c0,0.28 -0.11,0.53 -0.3,0.72l0 0c-0.18,0.18 -0.44,0.3 -0.72,0.3l-1.18 0c-0.28,0 -0.53,-0.11 -0.72,-0.3l-0 -0c-0.18,-0.18 -0.3,-0.44 -0.3,-0.72l0 -14.71c0,-0.28 0.11,-0.53 0.3,-0.72l0 0c0.18,-0.18 0.44,-0.3 0.72,-0.3zm1.18 0.85l-1.18 0c-0.05,0 -0.09,0.02 -0.12,0.05l0 0c-0.03,0.03 -0.05,0.07 -0.05,0.12l0 14.71c0,0.05 0.02,0.09 0.05,0.12l0 0c0.03,0.03 0.07,0.05 0.12,0.05l1.18 0c0.05,0 0.09,-0.02 0.12,-0.05l0 0c0.03,-0.03 0.05,-0.07 0.05,-0.12l0 -14.71c0,-0.05 -0.02,-0.09 -0.05,-0.12 -0.03,-0.03 -0.07,-0.05 -0.12,-0.05z"/>
  <path class="fil0" d="M35.44 0l1.18 0c0.28,0 0.53,0.11 0.72,0.3 0.18,0.18 0.3,0.44 0.3,0.72l0 14.71c0,0.28 -0.11,0.53 -0.3,0.72l0 0c-0.18,0.18 -0.44,0.3 -0.72,0.3l-1.18 0c-0.28,0 -0.53,-0.11 -0.72,-0.3l-0 -0c-0.18,-0.18 -0.3,-0.44 -0.3,-0.72l0 -14.71c0,-0.28 0.11,-0.53 0.3,-0.72l0 0c0.18,-0.18 0.44,-0.3 0.72,-0.3zm1.18 0.85l-1.18 0c-0.05,0 -0.09,0.02 -0.12,0.05l0 0c-0.03,0.03 -0.05,0.07 -0.05,0.12l0 14.71c0,0.05 0.02,0.09 0.05,0.12l0 0c0.03,0.03 0.07,0.05 0.12,0.05l1.18 0c0.05,0 0.09,-0.02 0.12,-0.05l0 0c0.03,-0.03 0.05,-0.07 0.05,-0.12l0 -14.71c0,-0.05 -0.02,-0.09 -0.05,-0.12 -0.03,-0.03 -0.07,-0.05 -0.12,-0.05z"/>
  <path class="fil0" d="M13.68 0l1.18 0c0.28,0 0.53,0.11 0.72,0.3 0.18,0.18 0.3,0.44 0.3,0.72l0 14.71c0,0.28 -0.11,0.53 -0.3,0.72l0 0c-0.18,0.18 -0.44,0.3 -0.72,0.3l-1.18 0c-0.28,0 -0.53,-0.11 -0.72,-0.3l-0 -0c-0.18,-0.18 -0.3,-0.44 -0.3,-0.72l0 -14.71c0,-0.28 0.11,-0.53 0.3,-0.72l0 0c0.18,-0.18 0.44,-0.3 0.72,-0.3zm1.18 0.85l-1.18 0c-0.05,0 -0.09,0.02 -0.12,0.05l0 0c-0.03,0.03 -0.05,0.07 -0.05,0.12l0 14.71c0,0.05 0.02,0.09 0.05,0.12l0 0c0.03,0.03 0.07,0.05 0.12,0.05l1.18 0c0.05,0 0.09,-0.02 0.12,-0.05l0 0c0.03,-0.03 0.05,-0.07 0.05,-0.12l0 -14.71c0,-0.05 -0.02,-0.09 -0.05,-0.12 -0.03,-0.03 -0.07,-0.05 -0.12,-0.05z"/>
  <path class="fil0" d="M40.48 0l1.18 0c0.28,0 0.53,0.11 0.72,0.3 0.18,0.18 0.3,0.44 0.3,0.72l0 14.71c0,0.28 -0.11,0.53 -0.3,0.72l0 0c-0.18,0.18 -0.44,0.3 -0.72,0.3l-1.18 0c-0.28,0 -0.53,-0.11 -0.72,-0.3l-0 -0c-0.18,-0.18 -0.3,-0.44 -0.3,-0.72l0 -14.71c0,-0.28 0.11,-0.53 0.3,-0.72l0 0c0.18,-0.18 0.44,-0.3 0.72,-0.3zm1.18 0.85l-1.18 0c-0.05,0 -0.09,0.02 -0.12,0.05l0 0c-0.03,0.03 -0.05,0.07 -0.05,0.12l0 14.71c0,0.05 0.02,0.09 0.05,0.12l0 0c0.03,0.03 0.07,0.05 0.12,0.05l1.18 0c0.05,0 0.09,-0.02 0.12,-0.05l0 0c0.03,-0.03 0.05,-0.07 0.05,-0.12l0 -14.71c0,-0.05 -0.02,-0.09 -0.05,-0.12 -0.03,-0.03 -0.07,-0.05 -0.12,-0.05z"/>
 </g>
</svg>
