<?xml version="1.0" encoding="UTF-8"?>
<!DOCTYPE svg PUBLIC "-//W3C//DTD SVG 1.1//EN" "http://www.w3.org/Graphics/SVG/1.1/DTD/svg11.dtd">
<!-- Creator: CorelDRAW 2018 (64-Bit) -->
<svg xmlns="http://www.w3.org/2000/svg" xml:space="preserve" width="60.0632mm" height="47mm" version="1.1" style="shape-rendering:geometricPrecision; text-rendering:geometricPrecision; image-rendering:optimizeQuality; fill-rule:evenodd; clip-rule:evenodd"
viewBox="0 0 59.92 46.89"
 xmlns:xlink="http://www.w3.org/1999/xlink">
 <defs>
  <style type="text/css">
   <![CDATA[
    .str0 {stroke:#55ADAD;stroke-width:1;stroke-miterlimit:22.9256}
    .str1 {stroke:#59656C;stroke-width:1;stroke-miterlimit:22.9256}
    .fil0 {fill:none}
   ]]>
  </style>
 </defs>
 <g id="Слой_x0020_1">
  <metadata id="CorelCorpID_0Corel-Layer"/>
  <g id="_1632612736">
   <path class="fil0 str0" d="M41.01 35.05c-2.78,0 -4.11,-0.08 -6.46,-1.06 -1.24,-0.52 -3.04,-1.69 -3.99,-2.61 -0.08,-0.08 -0.09,-0.08 -0.17,-0.14l-0.74 -0.76 3.33 -4.16c0.51,0.52 1.18,1.14 1.49,1.39 1.17,0.92 2.03,1.44 3.51,1.81 0.9,0.23 2.01,0.22 3.02,0.22 0,-0.69 0,-1.38 0,-2.07 0,-1.64 -0.08,-1.84 1.49,-0.5l2.22 1.91c0.1,0.1 0.15,0.12 0.25,0.21l2.47 2.12 1.05 0.91c0.42,0.36 0.44,0.46 0.02,0.84l-1.5 1.28c-0.1,0.1 -0.15,0.12 -0.25,0.21 -1.58,1.35 -3.16,2.71 -4.73,4.06 -1.06,0.82 -1.03,0.69 -1.03,-0.79l0 -2.86zm-19.68 -14.49c-0.08,-0.08 -0.15,-0.14 -0.21,-0.19l-0.69 -0.62c-0.14,-0.11 -0.24,-0.19 -0.36,-0.29 -1.23,-0.98 -3.05,-1.77 -4.87,-1.77l-2.98 0c-1.34,0 -1.12,0.21 -1.07,-1.14 0,-1.02 0,-2.03 0,-3.05 0,-1.21 -0.27,-1.17 0.83,-1.17l3.53 0c1.61,0 3.22,0.43 4.39,0.9 1.53,0.61 2.5,1.3 3.72,2.23l1.03 0.9 -3.27 4.16 -0.04 0.04z"/>
   <path class="fil0 str1" d="M41.01 11.84c-2.78,0 -4.11,0.08 -6.46,1.06 -1.24,0.52 -3.04,1.69 -3.99,2.61 -0.08,0.08 -0.09,0.08 -0.17,0.14l-2.28 2.35c-0.07,0.08 -0.08,0.11 -0.15,0.19 -1.11,1.25 -2.16,2.76 -3.2,4.06 -0.59,0.74 -1.41,1.86 -2.03,2.56 -0.38,0.43 -1.26,1.44 -1.61,1.7l-0.69 0.62c-0.14,0.11 -0.24,0.19 -0.36,0.29 -1.23,0.98 -3.05,1.77 -4.87,1.77l-2.98 0c-1.34,0 -1.12,-0.21 -1.07,1.14 0,1.02 0,2.03 0,3.05 0,1.21 -0.27,1.17 0.83,1.17l3.53 0c1.61,0 3.22,-0.43 4.39,-0.9 1.53,-0.61 2.5,-1.3 3.72,-2.23l1.05 -0.92c0.47,-0.48 1.56,-1.54 1.94,-2.03l0.3 -0.36c0.61,-0.72 1.21,-1.45 1.77,-2.2l3.78 -4.78c0.42,-0.51 1.58,-1.61 2.02,-1.96 1.17,-0.92 2.03,-1.44 3.51,-1.81 0.9,-0.23 2.01,-0.22 3.02,-0.22 0,0.69 0,1.38 0,2.07 0,1.64 -0.08,1.84 1.49,0.5l2.22 -1.91c0.1,-0.1 0.15,-0.12 0.25,-0.21l2.47 -2.12 1.05 -0.91c0.42,-0.36 0.44,-0.46 0.02,-0.84l-1.5 -1.28c-0.1,-0.1 -0.15,-0.12 -0.25,-0.21 -1.58,-1.35 -3.16,-2.71 -4.73,-4.06 -1.06,-0.82 -1.03,-0.69 -1.03,0.79l0 2.86z"/>
  </g>
  <rect class="fil0" width="59.92" height="46.89"/>
 </g>
</svg>
