<?xml version="1.0" encoding="UTF-8"?>
<!DOCTYPE svg PUBLIC "-//W3C//DTD SVG 1.1//EN" "http://www.w3.org/Graphics/SVG/1.1/DTD/svg11.dtd">
<!-- Creator: CorelDRAW 2018 (64-Bit) -->
<svg xmlns="http://www.w3.org/2000/svg" xml:space="preserve" width="60.0632mm" height="47mm" version="1.1" style="shape-rendering:geometricPrecision; text-rendering:geometricPrecision; image-rendering:optimizeQuality; fill-rule:evenodd; clip-rule:evenodd"
viewBox="0 0 62.77 49.12"
 xmlns:xlink="http://www.w3.org/1999/xlink">
 <defs>
  <style type="text/css">
   <![CDATA[
    .fil2 {fill:none}
    .fil0 {fill:#55ADAD}
    .fil1 {fill:#59656C}
   ]]>
  </style>
 </defs>
 <g id="Слой_x0020_1">
  <metadata id="CorelCorpID_0Corel-Layer"/>
  <g id="_1635691248">
   <g>
    <path class="fil0" d="M50.29 12.72l0 -3.68 -3.68 0c-0.2,0 -0.37,-0.17 -0.37,-0.37l0 0c0,-0.2 0.17,-0.37 0.37,-0.37l4.05 0 0 0 0.01 0 0.01 0 0.01 0 0.01 0 0.01 0 0.01 0 0.01 0 0.01 0 0.01 0c0.01,0 0.01,0 0.02,0l0.01 0c0.01,0 0.02,0.01 0.03,0.01l0.01 0c0.01,0 0.01,0 0.02,0.01 0.01,0.01 0.02,0.01 0.03,0.02 0.09,0.06 0.16,0.16 0.18,0.27l0 0.01c0,0.01 0,0.01 0,0.02l0 0.01 0 0.01 0 4.05c0,0.2 -0.17,0.37 -0.37,0.37l0 0c-0.2,0 -0.37,-0.17 -0.37,-0.37z"/>
    <path class="fil0" d="M12.48 12.72l0 -3.68 3.68 0c0.2,0 0.37,-0.17 0.37,-0.37l0 0c0,-0.2 -0.17,-0.37 -0.37,-0.37l-4.05 0 0 0 -0.01 0 -0.01 0 -0.01 0 -0.01 0 -0.01 0 -0.01 0 -0.01 0 -0.01 0 -0.01 0c-0.01,0 -0.01,0 -0.02,0l-0.01 0c-0.01,0 -0.02,0.01 -0.03,0.01l-0.01 0c-0.01,0 -0.01,0 -0.02,0.01 -0.01,0.01 -0.02,0.01 -0.03,0.02 -0.09,0.06 -0.16,0.16 -0.18,0.27l-0 0.01c-0,0.01 -0,0.01 -0,0.02l-0 0.01 -0 0.01 0 4.05c0,0.2 0.17,0.37 0.37,0.37l0 0c0.2,0 0.37,-0.17 0.37,-0.37z"/>
    <path class="fil0" d="M50.29 36.4l0 3.68 -3.68 0c-0.2,0 -0.37,0.17 -0.37,0.37l0 0c0,0.2 0.17,0.37 0.37,0.37l4.05 0 0 0 0.01 -0 0.01 -0 0.01 -0 0.01 -0 0.01 -0 0.01 -0 0.01 -0 0.01 -0 0.01 -0c0.01,-0 0.01,-0 0.02,-0l0.01 -0c0.01,-0 0.02,-0.01 0.03,-0.01l0.01 -0c0.01,-0 0.01,-0 0.02,-0.01 0.01,-0.01 0.02,-0.01 0.03,-0.02 0.09,-0.06 0.16,-0.16 0.18,-0.27l0 -0.01c0,-0.01 0,-0.01 0,-0.02l0 -0.01 0 -0.01 0 -4.05c0,-0.2 -0.17,-0.37 -0.37,-0.37l0 0c-0.2,0 -0.37,0.17 -0.37,0.37z"/>
    <path class="fil0" d="M12.48 36.4l0 3.68 3.68 0c0.2,0 0.37,0.17 0.37,0.37l0 0c0,0.2 -0.17,0.37 -0.37,0.37l-4.05 0 0 0 -0.01 -0 -0.01 -0 -0.01 -0 -0.01 -0 -0.01 -0 -0.01 -0 -0.01 -0 -0.01 -0 -0.01 -0c-0.01,-0 -0.01,-0 -0.02,-0l-0.01 -0c-0.01,-0 -0.02,-0.01 -0.03,-0.01l-0.01 -0c-0.01,-0 -0.01,-0 -0.02,-0.01 -0.01,-0.01 -0.02,-0.01 -0.03,-0.02 -0.09,-0.06 -0.16,-0.16 -0.18,-0.27l-0 -0.01c-0,-0.01 -0,-0.01 -0,-0.02l-0 -0.01 -0 -0.01 0 -4.05c0,-0.2 0.17,-0.37 0.37,-0.37l0 0c0.2,0 0.37,0.17 0.37,0.37z"/>
   </g>
   <g>
    <path class="fil1" d="M31.03 41.81c1.42,0 2.37,-0.07 3.7,-0.5l0.52 -0.17c0.17,-0.06 0.34,-0.13 0.5,-0.2 0.97,-0.38 1.8,-0.92 2.63,-1.54 0.14,-0.11 0.25,-0.2 0.38,-0.31 0.09,-0.07 0.1,-0.08 0.18,-0.16 0.24,-0.25 0.55,-0.46 0.87,-0.86 0.06,-0.07 0.1,-0.1 0.16,-0.17 0.07,-0.07 0.09,-0.12 0.17,-0.2 0.62,-0.7 0.94,-1.35 1.39,-2.1 0.36,-0.59 0.76,-1.83 0.93,-2.53 0.37,-1.48 0.43,-3.44 0.09,-4.96 -0.22,-0.98 -0.34,-1.34 -0.7,-2.23 -0.33,-0.81 -0.99,-1.9 -1.55,-2.58l-0.54 -0.63c-0.15,-0.19 -0.4,-0.41 -0.58,-0.59 -0.37,-0.38 -0.5,-0.37 -0.89,-0.87 -0.74,-0.93 -1.24,-2.03 -1.48,-3.21 -0.03,-0.15 -0.08,-0.34 -0.1,-0.5l-10.72 0c0,0.44 -0.4,1.63 -0.56,2.01 -0.27,0.63 -0.56,1.14 -0.96,1.64 -0.4,0.51 -0.87,0.84 -1.31,1.29 -0.07,0.07 -0.08,0.09 -0.14,0.16l-0.75 0.88c-0.1,0.14 -0.18,0.25 -0.28,0.39 -0.18,0.25 -0.33,0.5 -0.49,0.77 -0.26,0.43 -0.46,0.82 -0.65,1.28 -0.51,1.24 -0.78,2.3 -0.89,3.67 -0.16,1.93 0.29,4.15 1.15,5.87 0.08,0.17 0.15,0.27 0.23,0.43 0.41,0.8 1.29,1.95 1.93,2.6l1.05 0.91c0.79,0.59 1.47,1.05 2.44,1.46 1.34,0.56 2.72,0.95 4.24,0.95zm-12.22 -10.99c0,-1.3 -0,-1.78 0.27,-3.09 0.4,-1.91 1.3,-3.7 2.46,-5.17 0.09,-0.11 0.19,-0.24 0.29,-0.35l0.93 -0.97c0.22,-0.22 0.43,-0.39 0.65,-0.62 0.1,-0.1 0.2,-0.24 0.28,-0.35 0.51,-0.69 0.77,-1.36 1.01,-2.18 0.09,-0.32 0.16,-0.67 0.21,-1.06 0.04,-0.3 0.12,-0.71 0.59,-0.71l11.72 0c0.7,0 0.56,0.9 0.81,1.79 0.24,0.86 0.71,1.94 1.33,2.56l0.68 0.62c0.11,0.11 0.2,0.2 0.32,0.32 0.67,0.67 1.55,1.82 1.96,2.61 0.07,0.14 0.14,0.25 0.22,0.41 1.73,3.47 1.92,7.31 0.31,10.88 -0.09,0.19 -0.15,0.33 -0.24,0.52 -0.54,1.09 -1.42,2.33 -2.29,3.2 -0.07,0.07 -0.11,0.11 -0.18,0.18 -0.32,0.32 -1.16,1.01 -1.51,1.25l-0.95 0.61c-0.33,0.2 -0.67,0.37 -1.03,0.54l-1.11 0.45c-3.66,1.22 -7.6,0.86 -10.83,-1.22 -1.26,-0.81 -1.53,-1.1 -2.52,-2.08 -0.32,-0.32 -0.78,-0.92 -1.04,-1.26l-1.14 -1.93c-0.31,-0.62 -0.64,-1.55 -0.81,-2.25 -0.2,-0.79 -0.39,-1.75 -0.39,-2.71z"/>
    <path class="fil1" d="M24.94 13.54c0,-0.32 0.24,-0.6 0.57,-0.6l11.72 0c0.71,0 0.84,1.17 -0.13,1.17l-11.46 0c-0.21,0 -0.36,-0.05 -0.48,-0.15 -0.11,-0.09 -0.22,-0.24 -0.22,-0.42z"/>
    <path class="fil1" d="M24.94 10.14c0,-0.33 0.24,-0.6 0.57,-0.6l11.79 0c0.41,0 0.69,0.62 0.34,0.97 -0.08,0.09 -0.21,0.16 -0.38,0.16l-11.82 0c-0.24,0 -0.5,-0.29 -0.5,-0.53z"/>
    <path class="fil1" d="M28.34 6.71c0,-0.26 0.25,-0.57 0.5,-0.57l5.03 0c0.73,0 0.64,1.13 0.03,1.13l-5 0c-0.3,0 -0.57,-0.28 -0.57,-0.57z"/>
   </g>
  </g>
  <rect class="fil2" width="62.77" height="49.12"/>
 </g>
</svg>
