<?xml version="1.0" encoding="UTF-8"?>
<!DOCTYPE svg PUBLIC "-//W3C//DTD SVG 1.1//EN" "http://www.w3.org/Graphics/SVG/1.1/DTD/svg11.dtd">
<!-- Creator: CorelDRAW 2018 (64-Bit) -->
<svg xmlns="http://www.w3.org/2000/svg" xml:space="preserve" width="37.5994mm" height="36.2885mm" version="1.1" style="shape-rendering:geometricPrecision; text-rendering:geometricPrecision; image-rendering:optimizeQuality; fill-rule:evenodd; clip-rule:evenodd"
viewBox="0 0 22.51 21.73"
 xmlns:xlink="http://www.w3.org/1999/xlink">
 <defs>
  <style type="text/css">
   <![CDATA[
    .fil1 {fill:#55ADAD}
    .fil0 {fill:#59656C;fill-rule:nonzero}
   ]]>
  </style>
 </defs>
 <g id="Слой_x0020_1">
  <metadata id="CorelCorpID_0Corel-Layer"/>
  <g id="_1999839184">
   <path class="fil0" d="M6.34 4.68l9.84 0c0.72,0 1.37,0.29 1.85,0.77 0.47,0.47 0.77,1.13 0.77,1.85l0 10.12c0,0.72 -0.29,1.37 -0.77,1.85 -0.47,0.47 -1.13,0.77 -1.85,0.77l-9.84 0c-0.72,0 -1.37,-0.29 -1.85,-0.77 -0.47,-0.47 -0.77,-1.13 -0.77,-1.85l0 -10.12c0,-0.72 0.29,-1.37 0.77,-1.85 0.47,-0.47 1.13,-0.77 1.85,-0.77zm9.84 0.6l-9.84 0c-0.55,0 -1.06,0.23 -1.43,0.59 -0.37,0.37 -0.59,0.87 -0.59,1.43l0 10.12c0,0.55 0.23,1.06 0.59,1.43 0.37,0.37 0.87,0.59 1.43,0.59l9.84 0c0.55,0 1.06,-0.23 1.43,-0.59 0.37,-0.37 0.59,-0.87 0.59,-1.43l0 -10.12c0,-0.55 -0.23,-1.06 -0.59,-1.43 -0.37,-0.37 -0.87,-0.59 -1.43,-0.59z"/>
   <path class="fil0" d="M11.26 0c1.22,0 2.33,0.56 3.12,1.47 0.79,0.9 1.28,2.14 1.28,3.51l0 0.3 -8.8 0 -0 -0.3c0,-1.37 0.49,-2.61 1.28,-3.51 0.8,-0.91 1.9,-1.47 3.12,-1.47zm2.67 1.87c-0.69,-0.78 -1.63,-1.27 -2.67,-1.27 -1.04,0 -1.99,0.48 -2.67,1.27 -0.64,0.73 -1.05,1.71 -1.12,2.81l7.58 0c-0.06,-1.1 -0.48,-2.08 -1.12,-2.81z"/>
   <path class="fil1" d="M22.09 5.63l0 -2.11 -2.11 0c-0.12,0 -0.21,-0.1 -0.21,-0.21l0 0c0,-0.12 0.1,-0.21 0.21,-0.21l2.32 0 0 0 0.01 0 0.01 0 0.01 0 0.01 0 0.01 0 0.01 0 0.01 0 0.01 0 0.01 0c0,0 0.01,0 0.01,0l0 0c0,0 0.01,0 0.01,0.01l0 0c0,0 0.01,0 0.01,0 0.01,0 0.01,0.01 0.02,0.01 0.05,0.03 0.09,0.09 0.1,0.15l0 0.01c0,0 0,0.01 0,0.01l0 0.01 0 0.01 0 2.32c0,0.12 -0.1,0.21 -0.21,0.21l0 0c-0.12,0 -0.21,-0.1 -0.21,-0.21z"/>
   <path class="fil1" d="M0.42 5.63l0 -2.11 2.11 0c0.12,0 0.21,-0.1 0.21,-0.21l0 0c0,-0.12 -0.1,-0.21 -0.21,-0.21l-2.32 0 0 0 -0.01 0 -0.01 0 -0.01 0 -0.01 0 -0.01 0 -0.01 0 -0.01 0 -0.01 0 -0.01 0c-0,0 -0.01,0 -0.01,0l-0 0c-0,0 -0.01,0 -0.01,0.01l-0 0c-0,0 -0.01,0 -0.01,0 -0.01,0 -0.01,0.01 -0.02,0.01 -0.05,0.03 -0.09,0.09 -0.1,0.15l-0 0.01c-0,0 -0,0.01 -0,0.01l-0 0.01 -0 0.01 0 2.32c0,0.12 0.1,0.21 0.21,0.21l0 0c0.12,0 0.21,-0.1 0.21,-0.21z"/>
   <path class="fil1" d="M22.09 19.19l0 2.11 -2.11 0c-0.12,0 -0.21,0.1 -0.21,0.21l0 0c0,0.12 0.1,0.21 0.21,0.21l2.32 0 0 0 0.01 -0 0.01 -0 0.01 -0 0.01 -0 0.01 -0 0.01 -0 0.01 -0 0.01 -0 0.01 -0c0,-0 0.01,-0 0.01,-0l0 -0c0,-0 0.01,-0 0.01,-0.01l0 -0c0,-0 0.01,-0 0.01,-0 0.01,-0 0.01,-0.01 0.02,-0.01 0.05,-0.03 0.09,-0.09 0.1,-0.15l0 -0.01c0,-0 0,-0.01 0,-0.01l0 -0.01 0 -0.01 0 -2.32c0,-0.12 -0.1,-0.21 -0.21,-0.21l0 0c-0.12,0 -0.21,0.1 -0.21,0.21z"/>
   <path class="fil1" d="M0.42 19.19l0 2.11 2.11 0c0.12,0 0.21,0.1 0.21,0.21l0 0c0,0.12 -0.1,0.21 -0.21,0.21l-2.32 0 0 0 -0.01 -0 -0.01 -0 -0.01 -0 -0.01 -0 -0.01 -0 -0.01 -0 -0.01 -0 -0.01 -0 -0.01 -0c-0,-0 -0.01,-0 -0.01,-0l-0 -0c-0,-0 -0.01,-0 -0.01,-0.01l-0 -0c-0,-0 -0.01,-0 -0.01,-0 -0.01,-0 -0.01,-0.01 -0.02,-0.01 -0.05,-0.03 -0.09,-0.09 -0.1,-0.15l-0 -0.01c-0,-0 -0,-0.01 -0,-0.01l-0 -0.01 -0 -0.01 0 -2.32c0,-0.12 0.1,-0.21 0.21,-0.21l0 0c0.12,0 0.21,0.1 0.21,0.21z"/>
  </g>
 </g>
</svg>
