<?xml version="1.0" encoding="UTF-8"?>
<!DOCTYPE svg PUBLIC "-//W3C//DTD SVG 1.1//EN" "http://www.w3.org/Graphics/SVG/1.1/DTD/svg11.dtd">
<!-- Creator: CorelDRAW 2018 (64-Bit) -->
<svg xmlns="http://www.w3.org/2000/svg" xml:space="preserve" width="60.0632mm" height="47mm" version="1.1" style="shape-rendering:geometricPrecision; text-rendering:geometricPrecision; image-rendering:optimizeQuality; fill-rule:evenodd; clip-rule:evenodd"
viewBox="0 0 57.24 44.79"
 xmlns:xlink="http://www.w3.org/1999/xlink">
 <defs>
  <style type="text/css">
   <![CDATA[
    .str0 {stroke:#59656C;stroke-width:0.95;stroke-miterlimit:22.9256}
    .fil0 {fill:none}
    .fil1 {fill:#55ADAD}
   ]]>
  </style>
 </defs>
 <g id="Слой_x0020_1">
  <metadata id="CorelCorpID_0Corel-Layer"/>
  <g id="_1637061408">
   <g>
    <rect class="fil0 str0" x="17.1" y="12.79" width="23.04" height="23.48" rx="3.69" ry="3.69"/>
    <path class="fil0 str0" d="M28.62 5.34c3.6,0 6.53,3.33 6.53,7.45l-13.05 0c0,-4.11 2.92,-7.45 6.53,-7.45z"/>
   </g>
   <g>
    <path class="fil1" d="M45.86 13.82l0 -3.36 -3.36 0c-0.19,0 -0.34,-0.15 -0.34,-0.34l0 0c0,-0.19 0.15,-0.34 0.34,-0.34l3.69 0 0 0 0.01 0 0.01 0 0.01 0 0.01 0 0.01 0 0.01 0 0.01 0 0.01 0 0.01 0c0.01,0 0.01,0 0.02,0l0.01 0c0.01,0 0.02,0.01 0.02,0.01l0.01 0c0.01,0 0.01,0 0.01,0.01 0.01,0 0.02,0.01 0.03,0.02 0.09,0.05 0.15,0.14 0.16,0.25l0 0.01c0,0.01 0,0.01 0,0.02l0 0.01 0 0.01 0 3.69c0,0.18 -0.15,0.34 -0.34,0.34l0 0c-0.19,0 -0.34,-0.15 -0.34,-0.34z"/>
    <path class="fil1" d="M11.38 13.82l0 -3.36 3.36 0c0.19,0 0.34,-0.15 0.34,-0.34l0 0c0,-0.19 -0.15,-0.34 -0.34,-0.34l-3.69 0 0 0 -0.01 0 -0.01 0 -0.01 0 -0.01 0 -0.01 0 -0.01 0 -0.01 0 -0.01 0 -0.01 0c-0.01,0 -0.01,0 -0.02,0l-0.01 0c-0.01,0 -0.02,0.01 -0.02,0.01l-0.01 0c-0.01,0 -0.01,0 -0.01,0.01 -0.01,0 -0.02,0.01 -0.03,0.02 -0.09,0.05 -0.15,0.14 -0.16,0.25l-0 0.01c-0,0.01 -0,0.01 -0,0.02l-0 0.01 -0 0.01 0 3.69c0,0.18 0.15,0.34 0.34,0.34l0 0c0.19,0 0.34,-0.15 0.34,-0.34z"/>
    <path class="fil1" d="M45.86 35.42l0 3.36 -3.36 0c-0.19,0 -0.34,0.15 -0.34,0.34l0 0c0,0.19 0.15,0.34 0.34,0.34l3.69 0 0 0 0.01 -0 0.01 -0 0.01 -0 0.01 -0 0.01 -0 0.01 -0 0.01 -0 0.01 -0 0.01 -0c0.01,-0 0.01,-0 0.02,-0l0.01 -0c0.01,-0 0.02,-0.01 0.02,-0.01l0.01 -0c0.01,-0 0.01,-0 0.01,-0.01 0.01,-0 0.02,-0.01 0.03,-0.02 0.09,-0.05 0.15,-0.14 0.16,-0.25l0 -0.01c0,-0.01 0,-0.01 0,-0.02l0 -0.01 0 -0.01 0 -3.69c0,-0.18 -0.15,-0.34 -0.34,-0.34l0 0c-0.19,0 -0.34,0.15 -0.34,0.34z"/>
    <path class="fil1" d="M11.38 35.42l0 3.36 3.36 0c0.19,0 0.34,0.15 0.34,0.34l0 0c0,0.19 -0.15,0.34 -0.34,0.34l-3.69 0 0 0 -0.01 -0 -0.01 -0 -0.01 -0 -0.01 -0 -0.01 -0 -0.01 -0 -0.01 -0 -0.01 -0 -0.01 -0c-0.01,-0 -0.01,-0 -0.02,-0l-0.01 -0c-0.01,-0 -0.02,-0.01 -0.02,-0.01l-0.01 -0c-0.01,-0 -0.01,-0 -0.01,-0.01 -0.01,-0 -0.02,-0.01 -0.03,-0.02 -0.09,-0.05 -0.15,-0.14 -0.16,-0.25l-0 -0.01c-0,-0.01 -0,-0.01 -0,-0.02l-0 -0.01 -0 -0.01 0 -3.69c0,-0.18 0.15,-0.34 0.34,-0.34l0 0c0.19,0 0.34,0.15 0.34,0.34z"/>
   </g>
  </g>
  <rect class="fil0" width="57.24" height="44.79"/>
 </g>
</svg>
