<?xml version="1.0" encoding="UTF-8"?>
<!DOCTYPE svg PUBLIC "-//W3C//DTD SVG 1.1//EN" "http://www.w3.org/Graphics/SVG/1.1/DTD/svg11.dtd">
<!-- Creator: CorelDRAW 2018 (64-Bit) -->
<svg xmlns="http://www.w3.org/2000/svg" xml:space="preserve" width="56.5591mm" height="31.118mm" version="1.1" style="shape-rendering:geometricPrecision; text-rendering:geometricPrecision; image-rendering:optimizeQuality; fill-rule:evenodd; clip-rule:evenodd"
viewBox="0 0 53.16 29.25"
 xmlns:xlink="http://www.w3.org/1999/xlink">
 <defs>
  <style type="text/css">
   <![CDATA[
    .fil0 {fill:#55ADAD}
    .fil1 {fill:#59656C}
    .fil2 {fill:white;fill-rule:nonzero}
   ]]>
  </style>
 </defs>
 <g id="Слой_x0020_1">
  <metadata id="CorelCorpID_0Corel-Layer"/>
  <g id="_1812483728">
   <path class="fil0" d="M52.5 3.98l0 -3.31 -3.31 0c-0.18,0 -0.33,-0.15 -0.33,-0.33l0 0c0,-0.18 0.15,-0.33 0.33,-0.33l3.64 0 0 0 0.01 0 0.01 0 0.01 0 0.01 0 0.01 0 0.01 0 0.01 0 0.01 0 0.01 0c0.01,0 0.01,0 0.02,0l0.01 0c0.01,0 0.02,0.01 0.02,0.01l0.01 0c0,0 0.01,0 0.01,0.01 0.01,0 0.02,0.01 0.03,0.02 0.08,0.05 0.14,0.14 0.16,0.24l0 0.01c0,0.01 0,0.01 0,0.02l0 0.01 0 0.01 0 3.64c0,0.18 -0.15,0.33 -0.33,0.33l0 0c-0.18,0 -0.33,-0.15 -0.33,-0.33z"/>
   <path class="fil0" d="M25.07 3.98l0 -3.31 3.31 0c0.18,0 0.33,-0.15 0.33,-0.33l0 0c0,-0.18 -0.15,-0.33 -0.33,-0.33l-3.64 0 0 0 -0.01 0 -0.01 0 -0.01 0 -0.01 0 -0.01 0 -0.01 0 -0.01 0 -0.01 0 -0.01 0c-0.01,0 -0.01,0 -0.02,0l-0.01 0c-0.01,0 -0.02,0.01 -0.02,0.01l-0.01 0c-0,0 -0.01,0 -0.01,0.01 -0.01,0 -0.02,0.01 -0.03,0.02 -0.08,0.05 -0.14,0.14 -0.16,0.24l-0 0.01c-0,0.01 -0,0.01 -0,0.02l-0 0.01 -0 0.01 0 3.64c0,0.18 0.15,0.33 0.33,0.33l0 0c0.18,0 0.33,-0.15 0.33,-0.33z"/>
   <path class="fil0" d="M52.5 25.27l0 3.31 -3.31 0c-0.18,0 -0.33,0.15 -0.33,0.33l0 0c0,0.18 0.15,0.33 0.33,0.33l3.64 0 0 0 0.01 -0 0.01 -0 0.01 -0 0.01 -0 0.01 -0 0.01 -0 0.01 -0 0.01 -0 0.01 -0c0.01,-0 0.01,-0 0.02,-0l0.01 -0c0.01,-0 0.02,-0.01 0.02,-0.01l0.01 -0c0,-0 0.01,-0 0.01,-0.01 0.01,-0 0.02,-0.01 0.03,-0.02 0.08,-0.05 0.14,-0.14 0.16,-0.24l0 -0.01c0,-0.01 0,-0.01 0,-0.02l0 -0.01 0 -0.01 0 -3.64c0,-0.18 -0.15,-0.33 -0.33,-0.33l0 0c-0.18,0 -0.33,0.15 -0.33,0.33z"/>
   <path class="fil0" d="M25.07 25.27l0 3.31 3.31 0c0.18,0 0.33,0.15 0.33,0.33l0 0c0,0.18 -0.15,0.33 -0.33,0.33l-3.64 0 0 0 -0.01 -0 -0.01 -0 -0.01 -0 -0.01 -0 -0.01 -0 -0.01 -0 -0.01 -0 -0.01 -0 -0.01 -0c-0.01,-0 -0.01,-0 -0.02,-0l-0.01 -0c-0.01,-0 -0.02,-0.01 -0.02,-0.01l-0.01 -0c-0,-0 -0.01,-0 -0.01,-0.01 -0.01,-0 -0.02,-0.01 -0.03,-0.02 -0.08,-0.05 -0.14,-0.14 -0.16,-0.24l-0 -0.01c-0,-0.01 -0,-0.01 -0,-0.02l-0 -0.01 -0 -0.01 0 -3.64c0,-0.18 0.15,-0.33 0.33,-0.33l0 0c0.18,0 0.33,0.15 0.33,0.33z"/>
   <path class="fil1" d="M11.48 23.82c-0.38,-1.62 -0.12,-3.98 0.57,-5.53 0.06,-0.13 0.11,-0.26 0.17,-0.38 0.06,-0.12 0.12,-0.25 0.19,-0.37 0.18,-0.36 0.65,-1.09 0.88,-1.37 0.07,-0.08 0.44,-0.56 0.52,-0.61 0.06,0.05 0.33,0.54 0.39,0.65 0.19,0.35 0.54,1.04 0.69,1.41 0.05,0.12 0.1,0.24 0.15,0.36 0.41,0.97 0.74,2.24 0.89,3.3 0.01,0.09 0.04,0.42 0.07,0.47 -0.07,0.02 -0.06,0.04 -0.12,0.09 -0.3,0.25 -0.49,0.38 -0.83,0.61 -0.92,0.62 -2.14,1.1 -3.21,1.32 -0.1,0.02 -0.25,0.06 -0.35,0.06zm-1.73 -19.3l0.65 0c0.4,0.01 0.79,0.05 1.18,0.1 0.36,0.05 0.68,0.12 1.01,0.2 0.86,0.21 1.84,0.61 2.59,1.06 0.26,0.16 0.49,0.29 0.74,0.48 0.12,0.09 0.24,0.17 0.36,0.26l0.42 0.34c0.04,0.03 0.04,0.03 0.08,0.07 0.03,0.03 0.05,0.05 0.08,0.08 0.31,0.26 0.72,0.7 0.98,1l0.53 0.69c0.18,0.23 0.32,0.48 0.47,0.74 0.64,1.07 1.08,2.37 1.26,3.61 0.05,0.37 0.09,0.75 0.1,1.14l0 0.66c-0.01,0.39 -0.04,0.77 -0.1,1.14 -0.05,0.37 -0.12,0.68 -0.2,1.02 -0.25,0.99 -0.72,2.13 -1.29,2.98 -0.24,0.35 -0.36,0.54 -0.64,0.89l-0.21 0.25c-0.03,0.03 -0.04,0.04 -0.07,0.07 -0.06,0.06 -0.08,0.1 -0.14,0.16 -0.07,0.07 -0.09,0.09 -0.15,0.16l-0.78 0.73c-0.44,0.34 -0.55,0.45 -1.05,0.78l-0.77 0.45c-0.5,0.25 -0.7,0.36 -1.25,0.56 -0.29,0.11 -0.61,0.2 -0.93,0.28 -1.11,0.28 -1.65,0.3 -2.77,0.3l-0 0c-1.56,0 -3.45,-0.56 -4.8,-1.37 -0.72,-0.43 -1.49,-1.01 -2.08,-1.61 -0.06,-0.06 -0.08,-0.1 -0.14,-0.17 -0.06,-0.06 -0.1,-0.1 -0.16,-0.15l-0.56 -0.68c-0.09,-0.13 -0.17,-0.23 -0.26,-0.36 -0.29,-0.39 -0.69,-1.11 -0.9,-1.56 -0.32,-0.68 -0.52,-1.32 -0.7,-2.08l-0.14 -0.78c-0.1,-0.65 -0.11,-0.84 -0.11,-1.28l0 -0.42c0,-0.4 0.05,-0.79 0.1,-1.14 0.1,-0.71 0.26,-1.29 0.49,-1.95 0.21,-0.61 0.67,-1.54 1.01,-2.04l1 -1.29c0.26,-0.31 0.7,-0.72 1,-0.98 0.06,-0.05 0.11,-0.09 0.17,-0.14 0.3,-0.24 0.56,-0.43 0.88,-0.64 0.44,-0.29 1.11,-0.63 1.6,-0.83 0.15,-0.06 0.29,-0.12 0.43,-0.17 0.96,-0.36 2.02,-0.55 3.07,-0.58zm4.74 10.43c0.04,-0.06 0.05,-0.06 0.11,-0.1 0.63,-0.5 0.74,-0.58 1.4,-0.99 0.69,-0.42 1.69,-0.81 2.49,-1.01 0.17,-0.04 0.59,-0.15 0.74,-0.15 0,0.1 0.14,0.67 0.14,1.34 0,1.09 0.01,1.66 -0.25,2.74 -0.26,1.06 -0.57,1.79 -1.11,2.7 -0.21,0.35 -0.66,0.99 -0.93,1.27 -0.08,0.08 -0.17,0.24 -0.28,0.27 0,-0.15 -0.04,-0.32 -0.06,-0.45 -0.18,-0.91 -0.23,-1.05 -0.46,-1.89l-0.2 -0.59c-0.05,-0.13 -0.1,-0.25 -0.15,-0.39 -0.24,-0.61 -0.52,-1.2 -0.84,-1.78l-0.59 -1zm-4 6.93c0,0.35 0.03,0.72 0.06,1.03l0.11 0.99c-0.98,0 -1,0.03 -2,-0.11 -0.87,-0.12 -1.63,-0.39 -2.42,-0.73 -0.12,-0.05 -0.23,-0.12 -0.34,-0.17 -0.54,-0.27 -1.47,-0.88 -1.88,-1.27 -0.51,-0.49 -0.84,-0.77 -1.28,-1.36 -0.66,-0.88 -1.1,-1.7 -1.45,-2.76 -0.05,-0.14 -0.22,-0.73 -0.22,-0.85 0.83,0 2.13,-0.33 2.87,-0.6 0.85,-0.3 1.56,-0.7 2.29,-1.19 0.09,-0.06 0.16,-0.12 0.25,-0.18l0.6 -0.47c0.05,-0.04 0.07,-0.07 0.12,-0.11 0.31,-0.24 1,-1.02 1.25,-1.36 0.32,-0.43 0.42,-0.59 0.69,-1.04l0.16 -0.28c0.04,-0.07 0.13,-0.23 0.14,-0.31 0.21,0.05 1.45,1.08 1.64,1.24l0.51 0.46c0.17,0.17 0.32,0.32 0.48,0.48l0.91 1.03c0.08,0.09 0.13,0.18 0.21,0.27 0.08,0.09 0.15,0.19 0.21,0.28 -0.11,0.07 -0.49,0.52 -0.59,0.64 -0.23,0.27 -0.33,0.43 -0.53,0.7 -0.3,0.41 -0.69,1.13 -0.89,1.58 -0.49,1.1 -0.89,2.49 -0.89,4.08zm-9.52 -6.06c-0.19,-0.81 -0.14,-0.55 -0.14,-1.46 0,-0.91 0.19,-1.72 0.42,-2.53 0.1,-0.35 0.27,-0.73 0.41,-1.06 0.05,-0.11 0.11,-0.22 0.16,-0.33 0.17,-0.34 0.51,-0.91 0.75,-1.23 0.08,-0.1 0.14,-0.18 0.21,-0.28 0.05,-0.06 0.2,-0.23 0.21,-0.28l0.82 0.13c0.27,0.05 0.55,0.11 0.81,0.16 0.75,0.16 2.16,0.61 2.89,0.98 0.36,0.18 0.58,0.28 0.96,0.49 0.11,0.06 0.21,0.12 0.32,0.18 -0.02,0.08 -0.21,0.43 -0.27,0.54 -0.19,0.33 -0.42,0.67 -0.65,0.98 -0.07,0.09 -0.11,0.15 -0.18,0.23l-0.58 0.64c-0.02,0.02 -0.03,0.03 -0.05,0.05l-0.02 0.02c-0.19,0.2 -0.58,0.55 -0.78,0.7 -1.32,1.04 -2.86,1.76 -4.54,1.99 -0.22,0.03 -0.49,0.08 -0.75,0.08zm8.08 -5.98l-0.58 -0.33c-0.72,-0.38 -1.13,-0.54 -1.88,-0.84l-0.68 -0.23c-0.55,-0.18 -1.23,-0.34 -1.81,-0.46 -0.12,-0.02 -0.28,-0.06 -0.41,-0.06 0.04,-0.17 0.97,-0.83 1.16,-0.96 0.21,-0.14 0.42,-0.28 0.65,-0.4 0.53,-0.27 0.83,-0.45 1.46,-0.67 0.27,-0.09 0.53,-0.18 0.82,-0.25 0.48,-0.12 1.32,-0.3 1.83,-0.3 0.19,0.81 0.05,2.25 -0.11,2.98 -0.1,0.44 -0.18,0.74 -0.32,1.15 -0.04,0.13 -0.1,0.24 -0.13,0.37zm1.38 -4.49c0.44,0 0.88,0.06 1.27,0.13 0.4,0.07 0.77,0.17 1.12,0.28 1.2,0.37 2.23,0.96 3.17,1.73 0.33,0.27 0.6,0.55 0.9,0.85 0.07,0.07 0.1,0.12 0.16,0.19 0.04,0.04 0.04,0.04 0.08,0.09l0.24 0.29c0.11,0.13 0.19,0.26 0.3,0.4 0.3,0.41 0.44,0.7 0.66,1.09 0.05,0.1 0.07,0.12 0.12,0.23l0.5 1.26c0.01,0.09 -0.04,0.06 -0.23,0.1 -0.39,0.08 -0.78,0.16 -1.12,0.28 -0.09,0.03 -0.17,0.06 -0.27,0.09 -0.1,0.03 -0.16,0.06 -0.26,0.09 -0.1,0.03 -0.16,0.06 -0.25,0.1 -0.56,0.23 -1.12,0.5 -1.63,0.83l-0.82 0.58c-0.14,0.11 -0.26,0.23 -0.4,0.32l-0.21 -0.28c-0.04,-0.05 -0.07,-0.09 -0.11,-0.14l-0.58 -0.7c-0.16,-0.18 -0.33,-0.34 -0.49,-0.52 -0.09,-0.1 -0.11,-0.15 -0.25,-0.27 -0.05,-0.05 -0.08,-0.06 -0.13,-0.11l-0.93 -0.84c-0.1,-0.08 -0.18,-0.15 -0.29,-0.23 -0.1,-0.08 -0.18,-0.14 -0.28,-0.22 -0.19,-0.14 -0.73,-0.54 -0.91,-0.64l0.28 -0.81c0.37,-1.32 0.44,-1.9 0.44,-3.34 0,-0.2 -0.03,-0.73 -0.08,-0.85z"/>
   <path class="fil1" d="M29.11 9.93l8.56 3.08 0 11.38 -8.56 -3.08 0 -11.38zm9.69 14.38l0 -11.34 8.56 -4.13 0 11.34 -8.56 4.13zm-0.56 -12.29l-8.3 -2.95 8.34 -4.39 8.25 3.34 -8.3 4zm-10.25 -2.95l0 12.64c0,0.52 1.05,0.76 1.68,0.97l7.2 2.62c1.73,0.58 1.06,0.66 2.71,-0.13l8.46 -4.1c0.22,-0.11 0.46,-0.23 0.46,-0.54l0 -12.64c0,-0.44 -0.65,-0.59 -1.07,-0.76l-9.18 -3.63c-0.09,0 -0.36,0.1 -0.67,0.26l-8.45 4.43c-0.39,0.21 -1.13,0.45 -1.13,0.87z"/>
   <path class="fil2" d="M29.15 9.82l8.64 3.11 0 11.63c-2.93,-1.05 -5.86,-2.11 -8.79,-3.17l0 -11.63 0.16 0.06zm8.4 3.28l-8.32 -3 0 11.13 8.32 3 0 -11.13zm1.13 11.21l0 -11.41c2.93,-1.41 5.86,-2.83 8.79,-4.24 -0,3.87 -0,7.73 0,11.6l-8.79 4.24 0 -0.19zm0.23 -11.26l0 11.08 8.32 -4.01 0 -11.08 -8.32 4.01zm-0.72 -0.92l-8.55 -3.04c2.87,-1.51 5.75,-3.02 8.62,-4.54 2.85,1.16 5.7,2.31 8.55,3.46 -2.86,1.38 -5.72,2.76 -8.58,4.13l-0.05 -0.02zm-7.97 -3.09l8 2.85 8.01 -3.86 -7.96 -3.22 -8.05 4.24zm-2.13 0.02l0 12.64c0,0.36 0.73,0.58 1.3,0.77 0.1,0.03 0.2,0.06 0.29,0.09l7.2 2.62c0.33,0.11 0.57,0.2 0.76,0.28 0.3,0.11 0.45,0.17 0.59,0.17 0.15,-0.01 0.31,-0.09 0.65,-0.26 0.15,-0.08 0.34,-0.17 0.61,-0.3 2.81,-1.36 5.67,-2.7 8.46,-4.1 0.19,-0.09 0.39,-0.19 0.39,-0.43l0 -12.64c0,-0.29 -0.42,-0.44 -0.77,-0.57 -0.08,-0.03 -0.15,-0.06 -0.22,-0.08l-9.16 -3.62c-0.04,0.01 -0.11,0.03 -0.2,0.06 -0.11,0.04 -0.25,0.11 -0.4,0.19l-8.45 4.43c-0.07,0.04 -0.16,0.08 -0.26,0.12 -0.36,0.17 -0.81,0.38 -0.81,0.64zm-0.23 12.64l0 -12.64c0,-0.41 0.52,-0.66 0.95,-0.85 0.09,-0.04 0.17,-0.08 0.25,-0.12l8.45 -4.43c0.16,-0.08 0.3,-0.15 0.42,-0.2 0.13,-0.05 0.24,-0.08 0.3,-0.08l0.02 0 9.2 3.64c0.07,0.03 0.14,0.05 0.21,0.08 0.43,0.16 0.93,0.34 0.93,0.79l0 12.64c0,0.38 -0.28,0.52 -0.53,0.64 -2.79,1.4 -5.65,2.74 -8.46,4.1 -0.24,0.11 -0.44,0.22 -0.6,0.3 -0.37,0.19 -0.55,0.28 -0.75,0.29 -0.19,0.01 -0.36,-0.06 -0.69,-0.18 -0.19,-0.07 -0.43,-0.17 -0.75,-0.27l-7.2 -2.62c-0.08,-0.03 -0.18,-0.06 -0.29,-0.09 -0.65,-0.2 -1.47,-0.46 -1.47,-0.99z"/>
  </g>
 </g>
</svg>
