<?xml version="1.0" encoding="UTF-8"?>
<!DOCTYPE svg PUBLIC "-//W3C//DTD SVG 1.1//EN" "http://www.w3.org/Graphics/SVG/1.1/DTD/svg11.dtd">
<!-- Creator: CorelDRAW 2018 (64-Bit) -->
<svg xmlns="http://www.w3.org/2000/svg" xml:space="preserve" width="60mm" height="60mm" version="1.1" style="shape-rendering:geometricPrecision; text-rendering:geometricPrecision; image-rendering:optimizeQuality; fill-rule:evenodd; clip-rule:evenodd"
viewBox="0 0 18.27 18.27"
 xmlns:xlink="http://www.w3.org/1999/xlink">
 <defs>
  <style type="text/css">
   <![CDATA[
    .fil4 {fill:none}
    .fil1 {fill:#59656C}
    .fil3 {fill:#B5BABE}
    .fil2 {fill:#FEFEFE}
    .fil0 {fill:white}
   ]]>
  </style>
 </defs>
 <g id="Слой_x0020_1">
  <metadata id="CorelCorpID_0Corel-Layer"/>
  <g id="_4611505632">
   <path class="fil0" d="M2.96 5.48c0.01,0.14 -0,0.4 -0,0.55l-0.01 8.22 2.9 0 0 -6.96c-0.21,0 -1.65,0.02 -1.71,-0.02 -0.15,-0.01 -0.27,-0.12 -0.31,-0.23 -0.05,-0.12 -0.03,-0.35 -0.03,-0.49 0,-0.27 -0.05,-0.8 0.09,-0.97 0.1,-0.12 0.2,-0.15 0.39,-0.15l1.58 0c0.04,-1.22 -1.27,-1.7 -2.08,-1.31 -0.17,0.08 -0.33,0.19 -0.43,0.3 -0.18,0.2 -0.44,0.65 -0.39,1.06z"/>
   <path class="fil1" d="M14.69 6.98c0.03,-0.05 0.09,-0.09 0.14,-0.13l0.27 -0.26c0.11,-0.09 0.62,-0.61 0.69,-0.65l0 0.89c-0,0.12 -0.01,0.15 -0.13,0.15l-0.97 -0zm-4.99 -0c0.05,-0.04 0.07,-0.08 0.12,-0.12l0.72 -0.67c0.05,-0.04 0.07,-0.08 0.11,-0.12 0.41,-0.38 0.28,-0.33 0.62,-0.33 0.31,0 0.63,0 0.94,0 -0.1,0.15 -0.23,0.21 -0.34,0.33l-0.84 0.79c-0.05,0.05 -0.1,0.12 -0.19,0.12 -0.29,0 -0.89,0.01 -1.15,-0zm-3.33 0c0.05,-0.04 0.07,-0.07 0.12,-0.12l0.36 -0.34c0.04,-0.04 0.08,-0.07 0.12,-0.11 0.04,-0.04 0.07,-0.08 0.11,-0.12l0.49 -0.46c0.12,-0.14 0.15,-0.1 0.37,-0.1 0.31,0 0.63,0 0.94,0 -0.11,0.15 -0.23,0.21 -0.34,0.33l-0.59 0.56c-0.07,0.08 -0.17,0.14 -0.25,0.23 -0.05,0.05 -0.1,0.12 -0.19,0.12 -0.31,0 -0.87,0.01 -1.15,-0zm-2.29 -1.11c0,-0.17 0.13,-0.13 0.28,-0.13l1.19 0c-0.06,0.09 -0.11,0.12 -0.18,0.18 -0.03,0.03 -0.06,0.05 -0.09,0.08l-0.79 0.75c-0.06,0.06 -0.11,0.11 -0.17,0.17 -0.07,0.06 -0.11,0.1 -0.23,0.04 -0.04,-0.11 -0.02,-0.91 -0.02,-1.09zm10.11 0c0.06,-0.06 0.1,-0.13 0.2,-0.13 0.21,-0 0.99,-0.01 1.14,0 -0.1,0.12 -0.23,0.21 -0.33,0.32l-0.26 0.24c-0.03,0.03 -0.04,0.05 -0.07,0.08l-0.51 0.47c-0.06,0.06 -0.09,0.13 -0.19,0.13 -0.29,0 -0.9,0.01 -1.15,-0l1.17 -1.11zm-2.5 0.79c0.12,-0.1 0.22,-0.21 0.34,-0.31l0.16 -0.16c0.06,-0.06 0.11,-0.1 0.17,-0.15 0.07,-0.07 0.26,-0.29 0.36,-0.29l1.15 0c-0.03,0.05 -0.03,0.05 -0.09,0.09 -0.03,0.03 -0.05,0.04 -0.08,0.07l-0.16 0.16c-0.11,0.1 -0.21,0.21 -0.33,0.31 -0.11,0.1 -0.61,0.61 -0.67,0.61l-1.17 -0 0.33 -0.32zm-2.65 -0.63c0.07,-0.07 0.26,-0.29 0.36,-0.29l1.15 0c-0.03,0.06 -0.07,0.08 -0.13,0.13 -0.04,0.04 -0.07,0.08 -0.11,0.12l-0.97 0.91c-0.05,0.04 -0.06,0.08 -0.14,0.09l-1.16 -0 1 -0.95zm-3.33 -0c0.08,-0.07 0.25,-0.29 0.35,-0.29l1.15 0 -0.72 0.69c-0.09,0.1 -0.15,0.14 -0.24,0.23 -0.08,0.07 -0.29,0.32 -0.39,0.32l-1.16 -0 1 -0.95zm-1.58 1.24l1.73 0.01 -0.01 6.99 -2.91 -0.01c-0.02,-0.12 -0.01,-0.42 -0.01,-0.55 0,-1.33 -0.02,-8.15 0.02,-8.23 -0.05,-0.41 0.21,-0.86 0.39,-1.06 0.1,-0.11 0.26,-0.22 0.43,-0.3 0.8,-0.39 2.11,0.09 2.08,1.31l-1.58 -0c-0.19,-0 -0.3,0.03 -0.39,0.15 -0.14,0.17 -0.09,0.7 -0.09,0.97 0,0.15 -0.02,0.37 0.03,0.49 0.05,0.11 0.16,0.22 0.31,0.23zm11.97 -0.3l0 -1.23c-0.06,-0.1 -0.03,-0.11 -0.12,-0.2 -0.06,-0.06 -0.12,-0.09 -0.22,-0.11 -0.19,-0.02 -7.43,-0 -8.3,-0 -0.41,0 -0.86,0.02 -1.27,-0 -0.01,-0.32 -0.07,-0.56 -0.21,-0.8 -0.15,-0.26 -0.26,-0.37 -0.45,-0.54 -0.33,-0.29 -0.93,-0.51 -1.52,-0.38 -0.54,0.12 -0.93,0.49 -1.14,0.86 -0.32,0.57 -0.24,1.04 -0.24,1.75 0,1.33 0,2.65 0,3.98 0,0.28 0.02,3.78 -0,3.97 -0.11,0.01 -0.26,-0.01 -0.36,0.03 -0.09,0.03 -0.13,0.18 -0.07,0.26 0.07,0.09 0.54,0.05 0.71,0.05l3.42 0c0.13,0 0.24,0.01 0.3,-0.08 0.07,-0.1 0,-0.2 -0.08,-0.23 -0.09,-0.04 -0.24,-0.02 -0.35,-0.02l0.01 -6.98c0.83,-0.03 1.71,-0 2.54,-0 0.55,0 6.86,0.02 7.02,-0 0.24,-0.03 0.29,-0.21 0.34,-0.3z"/>
   <path class="fil2" d="M6.38 6.97c0.28,0.01 0.84,0 1.15,0 0.09,0 0.14,-0.07 0.19,-0.12 0.08,-0.09 0.18,-0.16 0.25,-0.23l0.59 -0.56c0.11,-0.12 0.23,-0.18 0.34,-0.33 -0.31,0 -0.63,0 -0.94,0 -0.23,0 -0.25,-0.04 -0.37,0.1l-0.49 0.46c-0.05,0.04 -0.07,0.08 -0.11,0.12 -0.04,0.04 -0.08,0.07 -0.12,0.11l-0.36 0.34c-0.05,0.05 -0.07,0.08 -0.12,0.12z"/>
   <path class="fil2" d="M9.7 6.97c0.26,0.01 0.86,0 1.15,0 0.09,0 0.14,-0.07 0.19,-0.12l0.84 -0.79c0.11,-0.12 0.23,-0.18 0.34,-0.33 -0.31,0 -0.63,0 -0.94,0 -0.34,-0 -0.21,-0.05 -0.62,0.33 -0.04,0.04 -0.07,0.08 -0.11,0.12l-0.72 0.67c-0.05,0.04 -0.07,0.08 -0.12,0.12z"/>
   <path class="fil2" d="M13.03 6.97c0.25,0.01 0.86,0 1.15,0 0.1,0 0.13,-0.07 0.19,-0.13l0.51 -0.47c0.03,-0.03 0.04,-0.05 0.07,-0.08l0.26 -0.24c0.1,-0.11 0.23,-0.19 0.33,-0.32 -0.15,-0.01 -0.93,-0 -1.14,-0 -0.1,0 -0.14,0.07 -0.2,0.13l-1.17 1.11z"/>
   <path class="fil2" d="M11.37 6.98l1.17 0c0.07,0 0.56,-0.51 0.67,-0.61 0.11,-0.1 0.21,-0.21 0.33,-0.31l0.16 -0.16c0.03,-0.03 0.05,-0.05 0.08,-0.07 0.05,-0.05 0.06,-0.04 0.09,-0.09l-1.15 -0c-0.1,0 -0.29,0.23 -0.36,0.29 -0.06,0.06 -0.11,0.1 -0.17,0.15l-0.16 0.16c-0.12,0.1 -0.22,0.21 -0.34,0.31l-0.33 0.32z"/>
   <path class="fil2" d="M8.04 6.98l1.16 0c0.08,-0 0.09,-0.05 0.14,-0.09l0.97 -0.91c0.04,-0.04 0.07,-0.08 0.11,-0.12 0.06,-0.05 0.1,-0.07 0.13,-0.13l-1.15 -0c-0.1,0 -0.29,0.23 -0.36,0.29l-1 0.95z"/>
   <path class="fil2" d="M4.72 6.98l1.16 0c0.1,-0.01 0.3,-0.25 0.39,-0.32 0.09,-0.08 0.15,-0.13 0.24,-0.23l0.72 -0.69 -1.15 -0c-0.1,0 -0.28,0.22 -0.35,0.29l-1 0.95z"/>
   <path class="fil2" d="M4.09 5.87c0,0.18 -0.02,0.97 0.02,1.09 0.12,0.06 0.16,0.02 0.23,-0.04 0.06,-0.06 0.11,-0.11 0.17,-0.17l0.79 -0.75c0.03,-0.03 0.06,-0.05 0.09,-0.08 0.07,-0.06 0.11,-0.09 0.18,-0.18l-1.19 0c-0.15,-0 -0.28,-0.04 -0.28,0.13z"/>
   <path class="fil2" d="M14.69 6.98l0.97 0c0.12,0 0.13,-0.03 0.13,-0.15l-0 -0.89c-0.07,0.03 -0.59,0.55 -0.69,0.65l-0.27 0.26c-0.05,0.04 -0.1,0.08 -0.14,0.13z"/>
   <path class="fil3" d="M4.13 7.27c0.06,0.04 1.51,0.02 1.71,0.02l0 6.96 -2.9 0 0.01 -8.22c0,-0.16 0.02,-0.41 0,-0.55 -0.04,0.08 -0.02,6.9 -0.02,8.23 0,0.14 -0.02,0.43 0.01,0.55l2.91 0.01 0.01 -6.99 -1.73 -0.01z"/>
  </g>
  <rect class="fil4" x="-0" width="18.27" height="18.27"/>
 </g>
</svg>
