<?xml version="1.0" encoding="UTF-8"?>
<!DOCTYPE svg PUBLIC "-//W3C//DTD SVG 1.1//EN" "http://www.w3.org/Graphics/SVG/1.1/DTD/svg11.dtd">
<!-- Creator: CorelDRAW 2018 (64-Bit) -->
<svg xmlns="http://www.w3.org/2000/svg" xml:space="preserve" width="60mm" height="60mm" version="1.1" style="shape-rendering:geometricPrecision; text-rendering:geometricPrecision; image-rendering:optimizeQuality; fill-rule:evenodd; clip-rule:evenodd"
viewBox="0 0 15.96 15.96"
 xmlns:xlink="http://www.w3.org/1999/xlink">
 <defs>
  <style type="text/css">
   <![CDATA[
    .str0 {stroke:#59656C;stroke-width:0.27;stroke-miterlimit:22.9256}
    .fil0 {fill:none}
    .fil1 {fill:#59656C}
   ]]>
  </style>
 </defs>
 <g id="Слой_x0020_1">
  <metadata id="CorelCorpID_0Corel-Layer"/>
  <g id="_4611476832">
   <ellipse class="fil0 str0" cx="7.46" cy="5.22" rx="2.08" ry="2.41"/>
   <g>
    <path class="fil1" d="M10.06 11.32l0.86 0 0 -0.86c0,-0.07 0.06,-0.13 0.13,-0.13l0 0c0.07,0 0.13,0.06 0.13,0.13l0 0.86 0.86 0c0.07,0 0.13,0.06 0.13,0.13l0 0c0,0.07 -0.06,0.13 -0.13,0.13l-0.86 0 0 0.86c0,0.07 -0.06,0.13 -0.13,0.13l0 0c-0.07,0 -0.13,-0.06 -0.13,-0.13l0 -0.86 -0.86 0c-0.07,0 -0.13,-0.06 -0.13,-0.13l0 0c0,-0.07 0.06,-0.13 0.13,-0.13z"/>
    <circle class="fil0 str0" cx="11.05" cy="11.45" r="1.71"/>
   </g>
   <path class="fil0 str0" d="M11.6 9.83c-0.19,-0.49 -0.71,-0.68 -2.07,-1.25 -0.26,-0.11 -0.84,-0.47 -1.08,-0.3 -0.51,0.35 -0.91,0.65 -1.74,0.18 -0.47,-0.27 -0.13,-0.45 -1.57,0.23 -1.89,0.88 -1.93,0.52 -1.93,2.71 -0,0.13 -0.01,0.27 -0,0.39 0.01,0.35 0.09,0.26 0.93,0.26l5.32 0c-0.07,-0.19 -0.11,-0.39 -0.11,-0.6 0,-0.94 0.76,-1.71 1.71,-1.71 0.19,0 0.37,0.03 0.55,0.09z"/>
  </g>
  <rect class="fil0" x="-0" width="15.96" height="15.96"/>
 </g>
</svg>
