<?xml version="1.0" encoding="UTF-8"?>
<!DOCTYPE svg PUBLIC "-//W3C//DTD SVG 1.1//EN" "http://www.w3.org/Graphics/SVG/1.1/DTD/svg11.dtd">
<!-- Creator: CorelDRAW 2018 (64-Bit) -->
<svg xmlns="http://www.w3.org/2000/svg" xml:space="preserve" width="60mm" height="60mm" version="1.1" style="shape-rendering:geometricPrecision; text-rendering:geometricPrecision; image-rendering:optimizeQuality; fill-rule:evenodd; clip-rule:evenodd"
viewBox="0 0 39.92 39.92"
 xmlns:xlink="http://www.w3.org/1999/xlink">
 <defs>
  <style type="text/css">
   <![CDATA[
    .fil1 {fill:none}
    .fil0 {fill:#59656C}
   ]]>
  </style>
 </defs>
 <g id="Слой_x0020_1">
  <metadata id="CorelCorpID_0Corel-Layer"/>
  <path class="fil0" d="M27.54 32.95c-0.19,0.64 -1.17,0.39 -0.98,-0.28 0.19,-0.66 1.16,-0.34 0.98,0.28zm-3.24 -0.49c-0.19,-0.58 0.68,-0.75 0.81,-0.25 0.14,0.56 -0.65,0.74 -0.81,0.25zm2.34 -6.05c0.67,-0.27 0.96,0.71 0.39,0.93 -0.65,0.26 -1.01,-0.68 -0.39,-0.93zm-4.4 -0.42c0.64,-0.24 0.96,0.73 0.36,0.95 -0.67,0.24 -0.97,-0.71 -0.36,-0.95zm-3.88 -2.17c0.79,-0.27 1.07,0.9 0.4,1.13 -0.76,0.27 -1.17,-0.87 -0.4,-1.13zm15 -0.14c0.59,-0.28 0.96,0.64 0.41,0.92 -0.28,0.14 -0.61,-0.01 -0.71,-0.27 -0.14,-0.37 0.08,-0.55 0.3,-0.65zm-5.5 2.36c0.05,-0.12 0.25,-0.36 0.35,-0.47l2.18 -2.87c0.04,-0.06 0.03,-0.04 0.08,-0.11 0.07,-0.07 0.02,-0.03 0.1,-0.09 0.32,0.21 0.61,0.41 0.95,0.64 0.27,0.17 0.71,0.44 0.95,0.65l-0.03 0.54 -4.58 1.71zm-8.15 -1.23c0.01,-0.17 0.07,-0.29 0.05,-0.49 -0.02,-0.26 -0.08,-0.24 0.06,-0.41l3.1 -3.36c0.13,-0.12 0.16,-0.14 0.24,-0.24l0.46 0.05c0.09,0.39 1.17,2.48 1.14,2.63l-1.44 1.84c-0.16,0.2 -0.33,0.41 -0.45,0.61 -0.5,-0.1 -0.95,-0.1 -1.22,0.26 -0.25,-0.04 -1.61,-0.71 -1.94,-0.88zm-7.88 -2.71c0.67,-0.15 0.81,0.86 0.21,0.99 -0.67,0.14 -0.89,-0.84 -0.21,-0.99zm15 -0.82c0.98,0.24 0.93,0.1 1.57,-0.23l1.64 1.1c-0.06,0.15 -2.17,2.87 -2.44,3.23 -0.1,0.13 -0.26,0.32 -0.34,0.46 -0.25,-0.05 -0.29,-0.06 -0.58,-0.06l-1.21 -2.71 1.37 -1.79zm0.36 -2.14c0.51,-0.16 0.96,0.17 1.08,0.56 0.15,0.53 -0.2,0.96 -0.57,1.07 -1.09,0.32 -1.58,-1.29 -0.51,-1.63zm-3.74 -0.13c0.54,-0.12 0.71,0.72 0.18,0.84 -0.56,0.12 -0.75,-0.71 -0.18,-0.84zm9.31 0.57c0.13,-0.18 0.48,-0.72 0.67,-0.75l-0.14 4.21c-0.09,0.05 -0.41,0.21 -0.47,0.24l-1.89 -1.26 1.83 -2.44zm-25.29 -0.89c0.41,-0.12 3.12,-1.12 3.26,-1.11 0.16,0.01 0.37,0.32 0.6,0.51l3.38 3.2c0.35,0.39 1.02,0.94 1.41,1.33 0.1,0.1 0.15,0.18 0.26,0.27 0.17,0.15 1.06,0.97 1.06,1.05 -0.03,0.01 -0.03,0.01 -0.09,0.01 -0.07,0 -0.02,0 -0.06,-0 -0.02,-0 -0.12,-0.03 -0.15,-0.04 -0.09,-0.03 -0.17,-0.05 -0.27,-0.07 -1.15,-0.31 -2.84,-0.73 -3.85,-1.05 0.12,-1.48 -1.56,-1.56 -1.95,-0.87l-3.26 -2.33c-0.14,-0.1 -0.33,-0.26 -0.46,-0.32 0.06,-0.23 0.08,-0.31 0.11,-0.57zm-1.27 -0.41c0.68,-0.22 0.89,0.79 0.31,0.97 -0.64,0.2 -0.95,-0.76 -0.31,-0.97zm26.65 0.19l-2.42 3.19c-0.26,-0.13 -0.58,-0.38 -0.83,-0.55 -0.2,-0.14 -0.61,-0.43 -0.81,-0.52 0.04,-0.28 0.1,-0.41 0.13,-0.75l3.94 -1.37zm0.75 -1.15c0.61,-0.26 0.96,0.74 0.32,0.95 -0.31,0.1 -0.56,-0.1 -0.64,-0.32 -0.12,-0.35 0.1,-0.54 0.32,-0.64zm-22.18 0.04c0.04,-0.04 -0.04,0.01 0.07,-0.04l0.39 -0.14c0.82,-0.29 2.64,-0.95 3.27,-1.13 0.32,0.29 0.18,0.56 1.28,0.76 0.09,0.54 0.98,4.16 1.17,4.94 0.09,0.35 0.68,2.12 0.06,1.54l-0.6 -0.58c-0.27,-0.24 -0.52,-0.51 -0.8,-0.76 -0.61,-0.55 -1.43,-1.4 -2.03,-1.93l-2.01 -1.91c-0.3,-0.3 -0.48,-0.41 -0.8,-0.76zm-4.67 -3.6c0.33,0.26 0.53,0.51 0.87,0.82 0.16,0.15 0.31,0.26 0.46,0.42l0.86 0.85c0.15,0.14 1.26,1.13 1.32,1.26l-2.98 1.02c-0.13,-0.1 -0.19,-0.21 -0.36,-0.3 -0.16,-0.09 -0.3,-0.1 -0.45,-0.17l0 -3.8 0.27 -0.1zm17.43 6.37c0.7,-0.99 -0.06,-0.81 0.37,-1.31l2.56 -2.8c0.16,0.07 0.26,0.21 0.47,0.26l-0.25 2.21c-0.62,0.1 -0.99,0.38 -1.2,0.85 -0.33,0.73 -0,1.17 0.23,1.59 -0.21,0.35 -0.99,1.2 -1.14,1.5 -0.17,-0.15 -1.03,-2.21 -1.06,-2.3zm-1.75 -4.6l4.39 -0.08c-0.1,0.21 -0.88,0.96 -1.08,1.21l-0.71 0.78c-0.17,0.17 -0.99,1.02 -1.05,1.15 -0.5,-0.13 -0.81,-0.13 -1.12,0.21 -0.45,0.51 -0.18,0.85 -0.15,1.15 -0.18,0.12 -0.43,0.44 -0.66,0.67l-1.02 1.11c-0.24,0.27 -1.46,1.69 -1.69,1.77 -0.02,-0.18 0.49,-1.36 0.6,-1.64 0.79,-2.12 1.65,-4.22 2.48,-6.33zm-3.63 7.66l-0.23 -0.02c-0.08,-0.13 -1.01,-4.14 -1.18,-4.86 -0.12,-0.52 -0.28,-1.1 -0.38,-1.64 0.41,-0.14 0.74,-0.55 0.85,-1.05l3.94 -0.07 -0.83 2.15 -2.16 5.49zm-2.61 -8.65c0.51,-0.18 0.96,0.18 1.07,0.56 0.15,0.53 -0.19,0.96 -0.56,1.07 -1.08,0.31 -1.6,-1.25 -0.51,-1.63zm11.68 -0.03c0.37,-0.1 0.7,0.16 0.78,0.46 0.1,0.37 -0.15,0.7 -0.43,0.79 -0.81,0.25 -1.25,-0.99 -0.35,-1.25zm2.76 -0.54l0.21 0.22c0.32,0.29 0.48,0.3 0.93,0.31l1.25 2.49c-0.22,0.29 -0.33,0.39 -0.34,0.91 -0.22,0.14 -3.72,1.33 -3.91,1.37 -0.25,-0.29 -0.36,-0.55 -0.84,-0.69l0.25 -2.19c0.23,-0.12 0.68,-0.13 0.96,-0.71 0.27,-0.55 0.08,-0.82 -0.1,-1.28l1.59 -0.43zm-7.93 0.96c0.14,-0.42 0.35,-0.92 0.53,-1.35 0.18,-0.45 0.35,-0.88 0.53,-1.34 0.35,-0.9 0.7,-1.83 1.07,-2.69l0.28 -0.01c0.18,0.32 0.39,0.81 0.54,1.16 0.22,0.48 1.52,3.24 1.58,3.46 -0.47,0.5 -0.23,0.35 -0.44,0.69l-4.09 0.06zm8.8 -2.03c0.65,-0.14 0.85,0.85 0.22,0.99 -0.67,0.15 -0.9,-0.85 -0.22,-0.99zm-23.81 0.91c-0.13,-0.11 -0.36,-0.3 -0.44,-0.42 0.45,0.07 5,1.26 5.85,1.47 0.32,0.08 0.65,0.16 0.97,0.25 0.29,0.08 1.4,0.23 0.71,0.45l-0.76 0.26c-0.6,0.2 -2.83,1.04 -3.14,1.06l-3.2 -3.06zm-1.68 -1.46c0.65,-0.27 0.96,0.7 0.39,0.93 -0.47,0.19 -0.86,-0.29 -0.66,-0.7 0.08,-0.16 0.14,-0.17 0.27,-0.23zm9.11 2.4c-0.25,-0.02 -5.61,-1.4 -6.03,-1.51l-1.75 -0.45c-0.02,-0.02 -0.13,-0.07 -0,-0.19l6.64 -3.37c0.43,0.38 0.6,0.25 0.72,0.35 0.06,0.08 1.05,4.17 1.07,4.48 -0.14,0.12 -0.24,0.15 -0.38,0.31 -0.11,0.13 -0.16,0.22 -0.27,0.38zm2.62 -0.04c0.11,-0.16 3.1,-2.54 3.23,-2.65 0.92,-0.74 2.38,-1.99 3.25,-2.62l-2.18 5.53 -4.19 0.07 -0.12 -0.32zm-2.44 -5.28c0.12,-0.11 0.21,-0.16 0.32,-0.29 0.1,-0.12 0.14,-0.28 0.22,-0.37 0.7,-0.04 7.91,-0.03 8.02,0.02 0.08,0.12 0.02,0.15 -0.07,0.23 -0.08,0.07 -0.14,0.1 -0.22,0.17 -1.44,1.21 -3.07,2.49 -4.55,3.7l-1.67 1.34c-0.49,-0.26 -0.36,-0.24 -1.01,-0.32l-1.05 -4.47zm9.48 -1.45c0.62,-0.22 0.94,0.78 0.3,0.97 -0.62,0.19 -0.98,-0.72 -0.3,-0.97zm-10.28 0.94c-0.13,-0.07 -0.24,-0.19 -0.26,-0.34 -0.02,-0.32 0.07,-0.48 0.28,-0.57 0.23,-0.11 0.48,-0.04 0.62,0.13 0.31,0.38 -0,0.96 -0.64,0.78zm12.38 0.59c-0.2,-0.14 -0.74,-0.6 -0.92,-0.68 0.07,-0.36 0.08,-0.67 -0.11,-0.95 -0.48,-0.72 -1.61,-0.76 -2,0.29l-8.03 -0c-0.08,-0.11 -0.39,-1.01 -1.35,-0.77 -0.59,0.14 -0.87,0.6 -0.81,1.32l-6.66 3.36c-0.52,-0.56 -1.37,-0.45 -1.76,0.15 -0.43,0.65 0,1.52 0.63,1.64l-0 3.89c-0.08,0.12 -0.23,0.17 -0.33,0.29 -0.55,0.62 -0.27,1.57 0.48,1.8 0.49,0.15 0.59,-0.02 0.95,-0.1l1.48 1.06c0.49,0.34 0.98,0.69 1.46,1.05 1.12,0.84 0.85,0.47 0.95,0.99 0.09,0.45 0.48,0.83 0.98,0.87 0.48,0.04 0.66,-0.16 0.91,-0.35l4.63 1.25c0.11,0.68 0.78,1.1 1.43,0.97 0.28,-0.06 0.35,-0.17 0.55,-0.25l1.98 0.9c-0.06,0.85 0.37,1.35 1.2,1.35l1.57 4.02c-0.21,0.34 -0.53,0.67 -0.18,1.23 0.53,0.84 1.95,0.32 1.66,-0.75 -0.06,-0.23 -0.2,-0.4 -0.35,-0.49 -0.26,-0.18 -0.34,-0.11 -0.59,-0.21l-1.57 -4.04c0.49,-0.4 0.53,-0.87 0.23,-1.53l1.29 -1.66c0.14,-0.18 0.3,-0.4 0.45,-0.54 0.31,0.79 0.76,1.58 1.07,2.39 -0.19,0.34 -0.48,0.51 -0.36,1.11 0.09,0.44 0.36,0.63 0.69,0.8l0.28 3.83 -0.1 0.06c-0.03,0.02 -0.05,0.02 -0.08,0.04 -0.44,0.23 -0.67,0.65 -0.59,1.16 0.18,1.23 2.02,1.24 2.18,-0.04 0.1,-0.82 -0.49,-1.03 -0.81,-1.22l-0.28 -3.76 0.22 -0.1c0.08,-0.03 0.11,-0.06 0.17,-0.09 0.41,-0.25 0.5,-0.62 0.48,-1.1 0.19,-0.12 4.59,-1.77 4.82,-1.81 0.14,0.25 0.54,0.4 0.93,0.36 0.71,-0.07 1.15,-0.83 0.86,-1.54 -0.18,-0.44 -0.46,-0.46 -0.67,-0.62l0.14 -4.17c0.09,-0.07 0.25,-0.1 0.37,-0.19 0.63,-0.46 0.64,-1.31 0.02,-1.79 -0.25,-0.2 -0.49,-0.22 -0.87,-0.2l-1.24 -2.46c0.09,-0.14 0.14,-0.13 0.24,-0.31 0.38,-0.7 -0.08,-1.57 -0.86,-1.63 -0.44,-0.03 -0.56,0.12 -0.83,0.25l-3.97 -3.05zm3.56 3.48c0.01,0.01 0.02,0.01 0.02,0.02 0.09,0.09 0.06,0.06 0.02,0.38 -0.39,0.14 -0.9,0.25 -1.31,0.36 -1.29,0.36 -0.47,0.11 -1.41,0.16l-1.06 -2.32c-0.37,-0.75 -0.69,-1.55 -1.05,-2.28l4.79 3.67z"/>
  <rect class="fil1" x="-0" width="39.92" height="39.92"/>
 </g>
</svg>
