<?xml version="1.0" encoding="UTF-8"?>
<!DOCTYPE svg PUBLIC "-//W3C//DTD SVG 1.1//EN" "http://www.w3.org/Graphics/SVG/1.1/DTD/svg11.dtd">
<!-- Creator: CorelDRAW 2018 (64-Bit) -->
<svg xmlns="http://www.w3.org/2000/svg" xml:space="preserve" width="60mm" height="60mm" version="1.1" style="shape-rendering:geometricPrecision; text-rendering:geometricPrecision; image-rendering:optimizeQuality; fill-rule:evenodd; clip-rule:evenodd"
viewBox="0 0 13.29 13.29"
 xmlns:xlink="http://www.w3.org/1999/xlink">
 <defs>
  <style type="text/css">
   <![CDATA[
    .fil1 {fill:none}
    .fil0 {fill:#59656C}
   ]]>
  </style>
 </defs>
 <g id="Слой_x0020_1">
  <metadata id="CorelCorpID_0Corel-Layer"/>
  <g id="_4698889232">
   <path class="fil0" d="M10.02 10.58c-0.06,-0.03 -0.96,-0.01 -1.16,-0.01 -0.06,0 -0.14,0.02 -0.14,-0.03l0 -2.26c0.14,0 0.64,0.23 0.78,0.32 0.32,0.19 0.43,0.23 0.49,0.62 0.06,0.41 0.06,0.95 0.02,1.37zm-6.77 -0.51c0,-0.06 -0,-0.12 -0,-0.18l0.03 -0.53c0.03,-0.26 0.03,-0.42 0.19,-0.56 0.2,-0.18 0.48,-0.29 0.72,-0.4 0.05,-0.02 0.23,-0.09 0.29,-0.09l0 2.26 -1.23 0c0,-0.18 -0.01,-0.32 -0.01,-0.5zm5.26 -0.82l0 1.32 -3.81 0 0 -1.5 3.78 0c0.06,0 0.02,0.07 0.02,0.18zm-0.01 -0.39l-3.79 0 0 -0.65 0.21 -0.11c0.04,-0.02 0.07,-0.03 0.1,-0.05 0.11,-0.06 0.5,-0.23 0.6,-0.23 0.06,0 0.18,0.08 0.24,0.11 0.07,0.04 0.15,0.08 0.23,0.12 0.48,0.23 0.91,0.17 1.34,-0.12 0.05,-0.04 0.15,-0.1 0.22,-0.1 0.17,0 0.75,0.26 0.87,0.34 0,0.07 -0.01,0.1 -0.01,0.17l-0.01 0.53zm1.18 1.93c0.12,0 0.22,0.01 0.33,0.01 0.11,-0 0.21,-0.03 0.22,-0.12 0.01,-0.06 0.01,-0.55 0.01,-0.65 0,-1.11 0.02,-1.34 -0.93,-1.77 -0.27,-0.12 -0.55,-0.24 -0.83,-0.35 -0.07,-0.03 -0.13,-0.06 -0.2,-0.09 -0.07,-0.03 -0.13,-0.06 -0.2,-0.09 -0.12,-0.06 -0.3,-0.14 -0.47,-0.14 -0.23,0 -0.61,0.69 -1.49,0.24 -0.27,-0.14 -0.32,-0.26 -0.47,-0.26 -0.17,0 -0.91,0.36 -1.16,0.48l-0.57 0.25c-0.45,0.19 -0.75,0.33 -0.82,0.83 -0.04,0.25 -0.04,0.5 -0.04,0.79 0,0.2 -0.03,0.67 0.01,0.79 0.04,0.14 0.4,0.07 0.51,0.07 2.03,0.01 4.07,0 6.1,0z"/>
   <path class="fil0" d="M7.57 6.96c-0.33,0.22 -0.59,0.29 -1.02,0.29 -0.27,0 -0.56,-0.11 -0.73,-0.21 -0.42,-0.25 -0.64,-0.58 -0.8,-1.05 -0.04,-0.12 -0.07,-0.24 -0.09,-0.37l-0.04 -0.42 3.5 0c0,0.74 -0.25,1.25 -0.7,1.66 -0.04,0.03 -0.09,0.07 -0.14,0.1zm-1.91 -3.99c0,-0.04 0.1,-0.09 0.14,-0.11 0.24,-0.12 0.48,-0.14 0.75,-0.14l-0.01 1.08c0,0.11 0.01,0.2 0.01,0.3 -0,0.05 0.01,0.27 0.05,0.27l0.13 -0.01c0.01,-0.06 0.02,-0.09 0.02,-0.17 0.02,-0.46 0.01,-1.01 0.01,-1.48 0.29,0 0.44,0.04 0.69,0.13 0.05,0.02 0.12,0.04 0.17,0.07 0,0.09 0.01,0.15 0.01,0.25l-0.01 0.25c-0.01,0.35 0.03,0.38 0.03,0.48 0.11,0 0.2,0.01 0.2,-0.21 0,-0.22 -0.02,-0.41 -0.02,-0.59 0.04,0.02 0.08,0.03 0.13,0.05 0.22,0.13 0.36,0.37 0.46,0.6 0.09,0.18 0.17,0.45 0.23,0.65 0.03,0.1 0.04,0.19 0.06,0.29 0.03,0.14 0.18,0.05 0.18,0.17 0,0.08 -0.01,0.09 -0.01,0.15 -0.76,0 -1.48,-0.01 -2.23,-0.01 -0.75,0 -1.49,0 -2.24,0 -0.02,-0.2 -0.04,-0.17 0.1,-0.22 0.06,-0.02 0.07,-0.03 0.08,-0.09 0.08,-0.4 0.23,-0.94 0.48,-1.27 0.08,-0.11 0.25,-0.3 0.39,-0.31 0,0.08 -0.01,0.11 -0.01,0.19l0 0.29c0,0.15 0.03,0.22 0.03,0.32 0.08,0 0.14,0.01 0.17,-0.04 0.02,-0.04 0.02,-0.11 0.02,-0.18l-0.01 -0.7zm-0.97 2.24c0,0.38 0.05,0.62 0.16,0.92 0.06,0.15 0.17,0.36 0.27,0.49 0.19,0.25 0.38,0.44 0.66,0.6 0.52,0.29 1.24,0.3 1.75,-0.01 0.55,-0.33 0.96,-0.92 1.03,-1.56 0.01,-0.12 0.04,-0.36 0.08,-0.45 0.15,0 0.36,0.06 0.43,-0.11 0.06,-0.14 0.07,-0.4 -0.08,-0.51 -0.09,-0.07 -0.1,-0.09 -0.13,-0.22 -0.09,-0.36 -0.19,-0.67 -0.39,-0.97 -0.23,-0.34 -0.55,-0.61 -0.96,-0.74 -0.76,-0.25 -1.6,-0.2 -2.22,0.27 -0.39,0.29 -0.7,0.84 -0.81,1.31 -0.03,0.12 -0.05,0.3 -0.16,0.37 -0.06,0.04 -0.06,0.02 -0.09,0.09 -0.05,0.12 -0.05,0.31 0.02,0.43 0.06,0.1 0.29,0.09 0.45,0.09z"/>
  </g>
  <rect class="fil1" x="-0" width="13.29" height="13.29"/>
 </g>
</svg>
