<?xml version="1.0" encoding="UTF-8"?>
<!DOCTYPE svg PUBLIC "-//W3C//DTD SVG 1.1//EN" "http://www.w3.org/Graphics/SVG/1.1/DTD/svg11.dtd">
<!-- Creator: CorelDRAW 2018 (64-Bit) -->
<svg xmlns="http://www.w3.org/2000/svg" xml:space="preserve" width="60mm" height="60mm" version="1.1" style="shape-rendering:geometricPrecision; text-rendering:geometricPrecision; image-rendering:optimizeQuality; fill-rule:evenodd; clip-rule:evenodd"
viewBox="0 0 14.17 14.17"
 xmlns:xlink="http://www.w3.org/1999/xlink">
 <defs>
  <style type="text/css">
   <![CDATA[
    .str0 {stroke:#59656C;stroke-width:0.24;stroke-miterlimit:22.9256}
    .fil1 {fill:none}
    .fil0 {fill:white}
   ]]>
  </style>
 </defs>
 <g id="Слой_x0020_1">
  <metadata id="CorelCorpID_0Corel-Layer"/>
  <g id="_4698919568">
   <path class="fil0 str0" d="M8.78 6.31l0 2.33c0,1.65 1.84,1.34 1.84,0.28l0 -4.12c0,-0.97 -1.34,-1.36 -1.86,-0.98 -0.15,0.11 -0.15,0.25 -0.17,0.35 -0.07,0.27 -0.03,0.19 -0.05,-0.18 -0.01,-0.18 -0.01,-0.32 -0.15,-0.51 -0.34,-0.46 -1.27,-0.52 -1.65,0.06 -0.09,0.15 -0.13,0.28 -0.13,0.4 -0.05,0.67 -0.13,0.16 -0.23,0 -0.12,-0.19 -0.36,-0.37 -0.91,-0.3 -0.8,0.1 -1.1,0.82 -1.09,1.46 0,0.38 -0,0.19 -0.1,-0.08 -0.28,-0.85 -1.66,-0.56 -1.65,0.58l-0.01 2.97c0.02,0.17 -0.05,1.23 0.94,1.23 0.54,0 1.03,-0.31 1.02,-0.67l-0.05 -1.55c0.06,-0.41 0.05,-0.77 0.05,-0.3l0.01 1.89c0.25,0.89 2.09,0.87 2.09,-0.32l0 -1.94c0,-0.33 0.07,-0.34 0.07,-0.03l0 2.03c0,0.93 1.38,1.27 1.76,0.28 0.13,-0.34 0.21,-0.84 0.21,-1.27l0 -1.59c0,-0.33 0.07,-0.33 0.07,-0.03z"/>
   <path class="fil1 str0" d="M10.62 5.95c0.14,0.48 0.68,1.37 0.83,2.08 0.67,3.18 -2.15,2.41 -4.5,2.96 -0.67,0.15 -0.78,0.18 -0.78,-0.88 -0,-0.06 0.03,-0.53 0.03,-0.54"/>
  </g>
  <rect class="fil1" x="-0" width="14.17" height="14.17"/>
 </g>
</svg>
