<?xml version="1.0" encoding="UTF-8"?>
<!DOCTYPE svg PUBLIC "-//W3C//DTD SVG 1.1//EN" "http://www.w3.org/Graphics/SVG/1.1/DTD/svg11.dtd">
<!-- Creator: CorelDRAW 2018 (64-Bit) -->
<svg xmlns="http://www.w3.org/2000/svg" xml:space="preserve" width="60mm" height="60mm" version="1.1" style="shape-rendering:geometricPrecision; text-rendering:geometricPrecision; image-rendering:optimizeQuality; fill-rule:evenodd; clip-rule:evenodd"
viewBox="0 0 21.42 21.42"
 xmlns:xlink="http://www.w3.org/1999/xlink">
 <defs>
  <style type="text/css">
   <![CDATA[
    .str0 {stroke:#59656C;stroke-width:0.36;stroke-miterlimit:22.9256}
    .fil3 {fill:none}
    .fil1 {fill:#59656C}
    .fil0 {fill:#FEFEFE}
    .fil2 {fill:white}
   ]]>
  </style>
 </defs>
 <g id="Слой_x0020_1">
  <metadata id="CorelCorpID_0Corel-Layer"/>
  <g id="_5112062736">
   <g>
    <path class="fil0" d="M18.52 9.96c0.05,-0.08 0.1,-0.15 0.16,-0.25 0.34,-0.6 0.57,-1.86 0.46,-2.51 -0.14,-0.84 -1.1,-1.53 -2.05,-1.06 -0.87,0.43 -0.91,1.39 -0.67,2.51 0.07,0.33 0.28,1.08 0.47,1.24 0.15,0.13 0.53,0.07 0.75,0.07 0.29,-0 0.59,0 0.88,-0z"/>
    <path class="fil1" d="M18.52 9.96c-0.29,0 -0.59,-0 -0.88,0 -0.22,0 -0.6,0.06 -0.75,-0.07 -0.19,-0.16 -0.39,-0.91 -0.47,-1.24 -0.25,-1.11 -0.2,-2.08 0.67,-2.51 0.95,-0.47 1.91,0.21 2.05,1.06 0.11,0.64 -0.12,1.9 -0.46,2.51 -0.06,0.1 -0.11,0.17 -0.16,0.25zm-0.99 5.45c-0.25,0.02 -0.88,-0.02 -0.99,0.04 -0.08,0.05 -0.13,0.15 -0.08,0.26 0.07,0.16 0.4,0.11 0.59,0.1l1.4 -0c0.2,-0 0.52,0.05 0.58,-0.12 0.04,-0.09 -0,-0.19 -0.08,-0.24 -0.11,-0.07 -0.86,-0.04 -1.01,-0.04 -0.01,-0.61 -0.06,-4.82 0.04,-5.05 0.51,0 0.77,0.05 0.99,-0.34 0.45,-0.78 0.8,-2.48 0.47,-3.29 -0.58,-1.4 -2.58,-1.54 -3.3,-0.19 -0.46,0.86 -0.15,2.45 0.27,3.29 0.27,0.56 0.44,0.53 0.99,0.52 0.08,-0 0.09,-0.01 0.12,0.04 0.03,0.06 0.03,0.89 0.03,0.99 0.01,1.28 0.03,2.78 -0.01,4.02z"/>
   </g>
   <path class="fil2 str0" d="M3.43 8.98c-0.13,-0.24 -0.25,-0.36 -0.61,-0.36 -0.25,0.01 -0.59,0.04 -0.75,0.18 -0.17,0.15 -0.2,0.49 -0.02,0.66 0.09,0.09 0.48,0.26 0.65,0.3 -0.06,0.08 -0.08,0.07 -0.17,0.17 -0.77,0.83 -0.77,1.6 -0.5,2.77 0.09,0.4 0.24,0.63 0.24,1.05 -0.01,0.95 -0.12,1.53 1.06,1.53 0.36,-0 0.93,0.07 1.21,-0.12 0.43,-0.29 0.31,-0.71 0.37,-0.92 0.43,-0.03 1.15,0.02 1.61,0.04l3.29 0c0.46,-0.02 1.18,-0.07 1.61,-0.04 0.05,0.23 -0.05,0.65 0.39,0.94 0.27,0.18 1.58,0.14 1.82,0.04 0.56,-0.25 0.44,-0.94 0.44,-1.46 -0,-0.43 0.15,-0.66 0.25,-1.08 0.51,-2.23 -0.45,-2.55 -0.68,-2.91 0.18,-0.04 0.57,-0.21 0.66,-0.31 0.17,-0.19 0.14,-0.51 -0.06,-0.66 -0.15,-0.11 -0.55,-0.17 -0.77,-0.17 -0.35,0 -0.45,0.13 -0.58,0.36 -0.19,-0.3 -0.38,-0.87 -0.55,-1.24 -0.18,-0.39 -0.51,-0.79 -0.86,-0.95 -0.99,-0.46 -5.78,-0.44 -6.61,0 -0.94,0.5 -0.93,1.38 -1.42,2.19zm9.85 2.82c0.08,-0.28 0.02,-0.56 -0.14,-0.73 -0.35,-0.36 -1.96,0.29 -2.09,0.44 -0.15,0.19 -0.07,0.57 0.07,0.71 0.18,0.18 0.52,0.13 0.82,0.13 0.67,-0 1.16,0.11 1.34,-0.55zm-10.27 -0.07c0.18,0.7 0.55,0.62 1.25,0.62 0.26,0 0.67,0.06 0.87,-0.09 0.16,-0.12 0.29,-0.44 0.16,-0.69 -0.14,-0.28 -1.75,-0.79 -2.07,-0.55 -0.17,0.12 -0.29,0.42 -0.21,0.71zm1.17 -2.22c0.72,-0.02 1.45,-0.09 2.18,-0.11 1.25,-0.04 2.35,-0 3.59,0.01 0.73,0.01 1.45,0.08 2.18,0.1 -0.23,-0.81 -0.53,-1.57 -1.27,-1.97 -0.71,-0.39 -4.65,-0.4 -5.41,-0 -0.73,0.38 -1.03,1.2 -1.27,1.98z"/>
  </g>
  <rect class="fil3" x="-0" width="21.42" height="21.42"/>
 </g>
</svg>
