<?xml version="1.0" encoding="UTF-8"?>
<!DOCTYPE svg PUBLIC "-//W3C//DTD SVG 1.1//EN" "http://www.w3.org/Graphics/SVG/1.1/DTD/svg11.dtd">
<!-- Creator: CorelDRAW 2018 (64-Bit) -->
<svg xmlns="http://www.w3.org/2000/svg" xml:space="preserve" width="60mm" height="60mm" version="1.1" style="shape-rendering:geometricPrecision; text-rendering:geometricPrecision; image-rendering:optimizeQuality; fill-rule:evenodd; clip-rule:evenodd"
viewBox="0 0 19.73 19.73"
 xmlns:xlink="http://www.w3.org/1999/xlink">
 <defs>
  <style type="text/css">
   <![CDATA[
    .str1 {stroke:#59656C;stroke-width:0.33;stroke-miterlimit:22.9256}
    .str0 {stroke:white;stroke-width:0.3;stroke-miterlimit:22.9256}
    .fil1 {fill:none}
    .fil0 {fill:#59656C}
   ]]>
  </style>
 </defs>
 <g id="Слой_x0020_1">
  <metadata id="CorelCorpID_0Corel-Layer"/>
  <g id="_1838758624">
   <path class="fil0 str0" d="M5.24 7.46l4.62 -3.45 4.62 3.45 0 8.26 -9.25 0 0 -8.26zm-1.29 0.25c0,0.24 0.1,0.34 0.34,0.34 0.14,0 0.25,-0.12 0.34,-0.18l0 7.27c0,0.28 -0.04,0.63 0.05,0.84 0.08,0.19 0.28,0.36 0.53,0.36l9.31 0c0.69,0 0.59,-0.81 0.59,-1.17l0 -7.3c0.16,0.11 0.17,0.18 0.4,0.18 0.2,0 0.28,-0.15 0.28,-0.34 0,-0.2 -0.16,-0.24 -0.28,-0.33l-4.95 -3.72c-0.25,-0.19 -0.38,-0.26 -0.78,-0.26 -0.15,0 -0.4,0.12 -0.63,0.29l-5.07 3.8c-0.07,0.06 -0.12,0.11 -0.12,0.22z"/>
   <g>
    <circle class="fil1 str1" cx="9.86" cy="13" r="0.96"/>
    <g>
     <path class="fil1 str1" d="M7.82 12.38c0.27,-0.93 1.12,-1.61 2.14,-1.61 0.88,0 1.65,0.51 2.01,1.26"/>
     <path class="fil1 str1" d="M6.87 11.43c0.57,-1.13 1.74,-1.9 3.09,-1.9 1.22,0 2.3,0.63 2.92,1.59"/>
     <path class="fil1 str1" d="M5.89 10.45c0.85,-1.35 2.35,-2.26 4.07,-2.26 1.59,0 3,0.77 3.87,1.97"/>
    </g>
   </g>
  </g>
  <rect class="fil1" x="-0" width="19.73" height="19.73"/>
 </g>
</svg>
