<?xml version="1.0" encoding="UTF-8"?>
<!DOCTYPE svg PUBLIC "-//W3C//DTD SVG 1.1//EN" "http://www.w3.org/Graphics/SVG/1.1/DTD/svg11.dtd">
<!-- Creator: CorelDRAW 2018 (64-Bit) -->
<svg xmlns="http://www.w3.org/2000/svg" xml:space="preserve" width="36.8989mm" height="40.2582mm" version="1.1" style="shape-rendering:geometricPrecision; text-rendering:geometricPrecision; image-rendering:optimizeQuality; fill-rule:evenodd; clip-rule:evenodd"
viewBox="0 0 7.47 8.15"
 xmlns:xlink="http://www.w3.org/1999/xlink">
 <defs>
  <style type="text/css">
   <![CDATA[
    .fil0 {fill:#59656C}
    .fil2 {fill:#59656C;fill-rule:nonzero}
    .fil1 {fill:white;fill-rule:nonzero}
   ]]>
  </style>
 </defs>
 <g id="Слой_x0020_1">
  <metadata id="CorelCorpID_0Corel-Layer"/>
  <g id="_1842343264">
   <path class="fil0" d="M0.89 2.6l2.85 -2.13 2.85 2.13 0 5.08 -5.69 0 0 -5.08zm-0.8 0.15c0,0.15 0.06,0.21 0.21,0.21 0.09,0 0.15,-0.08 0.21,-0.11l0 4.48c0,0.17 -0.02,0.39 0.03,0.52 0.05,0.12 0.17,0.22 0.33,0.22l5.73 0c0.43,0 0.36,-0.5 0.36,-0.72l0 -4.5c0.1,0.07 0.11,0.11 0.25,0.11 0.12,0 0.17,-0.09 0.17,-0.21 0,-0.12 -0.1,-0.15 -0.17,-0.21l-3.05 -2.29c-0.15,-0.11 -0.23,-0.16 -0.48,-0.16 -0.09,0 -0.24,0.07 -0.39,0.18l-3.12 2.34c-0.04,0.03 -0.07,0.06 -0.07,0.14z"/>
   <path class="fil1" d="M0.83 2.52l2.9 -2.17 2.94 2.19 0 5.22 -5.88 0 0 -5.22 0.04 -0.03zm2.9 -1.94l-2.76 2.06 0 4.95 5.51 0 0 -4.95 -2.76 -2.06zm-3.55 2.16c0,0.05 0.01,0.08 0.02,0.1 0.02,0.02 0.05,0.02 0.1,0.02 0.03,0 0.07,-0.03 0.11,-0.06 0.02,-0.01 0.03,-0.03 0.05,-0.04l0.14 -0.09 0 4.65c0,0.03 -0,0.08 -0,0.13 -0,0.13 -0.01,0.28 0.03,0.36 0.02,0.05 0.06,0.09 0.1,0.12 0.04,0.03 0.09,0.04 0.14,0.04l5.73 0c0.24,0 0.27,-0.24 0.27,-0.44 0,-0.05 -0,-0.08 -0,-0.11 -0,-0.04 -0,-0.07 -0,-0.08l0 -4.67 0.14 0.09c0.03,0.02 0.05,0.04 0.07,0.05 0.03,0.03 0.05,0.04 0.12,0.04 0.03,0 0.04,-0.01 0.06,-0.02 0.02,-0.02 0.02,-0.06 0.02,-0.1 0,-0.04 -0.04,-0.07 -0.08,-0.09 -0.02,-0.01 -0.04,-0.03 -0.06,-0.04l-3.05 -2.29c-0.07,-0.05 -0.12,-0.09 -0.18,-0.11 -0.06,-0.02 -0.13,-0.03 -0.24,-0.03 -0.03,0 -0.08,0.01 -0.14,0.04 -0.06,0.03 -0.13,0.07 -0.2,0.12l-3.12 2.34c-0.01,0.01 -0.03,0.02 -0.03,0.03 -0,0.01 -0.01,0.02 -0.01,0.04zm-0.11 0.22c-0.05,-0.05 -0.08,-0.13 -0.08,-0.22 0,-0.05 0.01,-0.09 0.03,-0.13 0.02,-0.03 0.04,-0.05 0.07,-0.08l3.13 -2.34c0.08,-0.06 0.16,-0.11 0.23,-0.14 0.08,-0.04 0.15,-0.06 0.21,-0.06 0.13,0 0.23,0.01 0.31,0.04 0.08,0.03 0.14,0.07 0.23,0.14l3.05 2.29c0.01,0.01 0.03,0.02 0.05,0.03l0 0c0.08,0.05 0.16,0.1 0.16,0.25 0,0.08 -0.02,0.16 -0.07,0.21 -0.04,0.05 -0.11,0.09 -0.2,0.09 -0.07,0 -0.12,-0.01 -0.16,-0.03l0 4.32c0,0.04 0,0.06 0,0.08 0,0.04 0,0.09 0,0.11 0,0.28 -0.05,0.62 -0.46,0.62l-5.73 0c-0.09,0 -0.18,-0.03 -0.25,-0.08 -0.08,-0.05 -0.13,-0.12 -0.17,-0.2 -0.05,-0.12 -0.05,-0.28 -0.04,-0.44 0,-0.04 0,-0.07 0,-0.12l0 -4.3c-0.03,0.02 -0.07,0.03 -0.12,0.03 -0.1,0 -0.17,-0.02 -0.22,-0.08z"/>
   <path class="fil2" d="M3.74 5.31c0.19,0 0.36,0.08 0.49,0.2 0.13,0.13 0.2,0.3 0.2,0.49 0,0.19 -0.08,0.36 -0.2,0.49 -0.13,0.13 -0.3,0.2 -0.49,0.2 -0.19,0 -0.36,-0.08 -0.49,-0.2 -0.13,-0.13 -0.2,-0.3 -0.2,-0.49 0,-0.19 0.08,-0.36 0.2,-0.49 0.13,-0.13 0.3,-0.2 0.49,-0.2zm0.35 0.35c-0.09,-0.09 -0.21,-0.14 -0.35,-0.14 -0.14,0 -0.26,0.05 -0.35,0.14 -0.09,0.09 -0.14,0.21 -0.14,0.35 0,0.14 0.05,0.26 0.14,0.35 0.09,0.09 0.21,0.14 0.35,0.14 0.14,0 0.26,-0.05 0.35,-0.14 0.09,-0.09 0.14,-0.21 0.14,-0.35 0,-0.14 -0.05,-0.26 -0.14,-0.35z"/>
   <path class="fil2" d="M2.38 5.6c0.09,-0.31 0.28,-0.58 0.53,-0.77 0.25,-0.19 0.55,-0.3 0.89,-0.3 0.29,0 0.56,0.08 0.78,0.22 0.23,0.15 0.42,0.36 0.54,0.61l-0.18 0.09c-0.1,-0.22 -0.27,-0.4 -0.47,-0.53 -0.2,-0.12 -0.43,-0.19 -0.67,-0.19 -0.29,0 -0.55,0.09 -0.76,0.25 -0.22,0.16 -0.38,0.4 -0.46,0.66l-0.19 -0.06z"/>
   <path class="fil2" d="M1.8 4.99c0.19,-0.37 0.47,-0.68 0.83,-0.9 0.34,-0.21 0.74,-0.33 1.17,-0.33 0.39,0 0.75,0.1 1.07,0.27 0.33,0.18 0.61,0.44 0.81,0.75l-0.17 0.11c-0.18,-0.29 -0.44,-0.52 -0.74,-0.69 -0.29,-0.16 -0.62,-0.25 -0.97,-0.25 -0.39,0 -0.75,0.11 -1.06,0.3 -0.32,0.2 -0.58,0.48 -0.75,0.81l-0.18 -0.09z"/>
   <path class="fil2" d="M1.2 4.38c0.28,-0.44 0.66,-0.8 1.11,-1.06 0.44,-0.24 0.94,-0.38 1.48,-0.38 0.5,0 0.97,0.12 1.38,0.33 0.43,0.22 0.8,0.54 1.09,0.92l-0.16 0.12c-0.26,-0.36 -0.61,-0.66 -1.01,-0.86 -0.39,-0.2 -0.83,-0.31 -1.29,-0.31 -0.5,0 -0.97,0.13 -1.38,0.36 -0.42,0.24 -0.78,0.58 -1.04,0.99l-0.17 -0.11z"/>
  </g>
 </g>
</svg>
