<?xml version="1.0" encoding="UTF-8"?>
<!DOCTYPE svg PUBLIC "-//W3C//DTD SVG 1.1//EN" "http://www.w3.org/Graphics/SVG/1.1/DTD/svg11.dtd">
<!-- Creator: CorelDRAW 2018 (64-Bit) -->
<svg xmlns="http://www.w3.org/2000/svg" xml:space="preserve" width="33.0478mm" height="33.0478mm" version="1.1" style="shape-rendering:geometricPrecision; text-rendering:geometricPrecision; image-rendering:optimizeQuality; fill-rule:evenodd; clip-rule:evenodd"
viewBox="0 0 4.55 4.55"
 xmlns:xlink="http://www.w3.org/1999/xlink">
 <defs>
  <style type="text/css">
   <![CDATA[
    .fil1 {fill:#59656C}
    .fil0 {fill:#59656C;fill-rule:nonzero}
   ]]>
  </style>
 </defs>
 <g id="Слой_x0020_1">
  <metadata id="CorelCorpID_0Corel-Layer"/>
  <g id="_1942437440">
   <path class="fil0" d="M0.51 0l3.53 0c0.14,0 0.27,0.06 0.36,0.15 0.09,0.09 0.15,0.22 0.15,0.36l0 3.53c0,0.14 -0.06,0.27 -0.15,0.36 -0.09,0.09 -0.22,0.15 -0.36,0.15l-3.53 0c-0.14,0 -0.27,-0.06 -0.36,-0.15 -0.09,-0.09 -0.15,-0.22 -0.15,-0.36l0 -3.53c0,-0.14 0.06,-0.27 0.15,-0.36 0.09,-0.09 0.22,-0.15 0.36,-0.15zm3.53 0.14l-3.53 0c-0.1,0 -0.2,0.04 -0.26,0.11 -0.07,0.07 -0.11,0.16 -0.11,0.26l0 3.53c0,0.1 0.04,0.2 0.11,0.26 0.07,0.07 0.16,0.11 0.26,0.11l3.53 0c0.1,0 0.2,-0.04 0.26,-0.11 0.07,-0.07 0.11,-0.16 0.11,-0.26l0 -3.53c0,-0.1 -0.04,-0.2 -0.11,-0.26 -0.07,-0.07 -0.16,-0.11 -0.26,-0.11z"/>
   <path class="fil1" d="M3.21 3.44l0 -1.12c0,-0.1 -0.03,-0.18 -0.15,-0.18l-1.58 0c-0.04,0 -0.07,0.01 -0.09,0.03 -0.02,0.02 -0.05,0.05 -0.05,0.08l0 1.24c0,0.06 0.06,0.12 0.12,0.12l1.62 0c0.04,0 0.08,-0.02 0.1,-0.05 0.02,-0.03 0.03,-0.07 0.03,-0.12zm-0.27 -1.88c0,-0.09 -0.04,-0.19 -0.07,-0.25 -0.17,-0.33 -0.55,-0.46 -0.87,-0.32 -0.03,0.02 -0.07,0.04 -0.1,0.06 -0.06,0.04 -0.12,0.1 -0.16,0.16 -0.03,0.03 -0.04,0.06 -0.06,0.1 -0.03,0.06 -0.07,0.17 -0.07,0.26l0 0.44 1.33 0 0 -0.45zm0.14 0.02l0 0.42c0.15,0 0.27,0.13 0.27,0.25l0 1.23c0,0.14 -0.12,0.26 -0.28,0.26l-1.58 0c-0.16,0 -0.28,-0.13 -0.28,-0.26l0 -1.22c0,-0.1 0.06,-0.19 0.14,-0.23 0.05,-0.03 0.06,-0.03 0.12,-0.03l0 -0.41c0,-0.32 0.22,-0.61 0.47,-0.72 0.1,-0.04 0.21,-0.07 0.33,-0.07 0.28,0 0.52,0.15 0.66,0.34 0.09,0.12 0.15,0.28 0.15,0.45z"/>
   <path class="fil1" d="M2.41 2.82c0,-0.2 -0.26,-0.18 -0.26,-0.01 0,0.05 0.03,0.1 0.06,0.11 0,0.03 -0.01,0.08 0,0.11 0.02,0.07 0.11,0.07 0.13,0 0.01,-0.03 0,-0.07 0,-0.11 0.03,-0.01 0.06,-0.06 0.06,-0.1zm0.14 -0.01c0,0.11 -0.06,0.16 -0.07,0.18 -0.01,0.02 0,0.05 -0.01,0.08 -0.06,0.19 -0.32,0.19 -0.39,0 -0.02,-0.06 0.01,-0.06 -0.02,-0.1 -0.01,-0.01 -0.01,-0.02 -0.02,-0.03 -0.14,-0.21 0.11,-0.5 0.35,-0.38 0.08,0.04 0.15,0.13 0.15,0.24z"/>
  </g>
 </g>
</svg>
