<?xml version="1.0" encoding="UTF-8"?>
<!DOCTYPE svg PUBLIC "-//W3C//DTD SVG 1.1//EN" "http://www.w3.org/Graphics/SVG/1.1/DTD/svg11.dtd">
<!-- Creator: CorelDRAW 2018 (64-Bit) -->
<svg xmlns="http://www.w3.org/2000/svg" xml:space="preserve" width="60mm" height="60mm" version="1.1" style="shape-rendering:geometricPrecision; text-rendering:geometricPrecision; image-rendering:optimizeQuality; fill-rule:evenodd; clip-rule:evenodd"
viewBox="0 0 14.99 14.99"
 xmlns:xlink="http://www.w3.org/1999/xlink">
 <defs>
  <style type="text/css">
   <![CDATA[
    .str0 {stroke:#59656C;stroke-width:0.25;stroke-miterlimit:22.9256}
    .fil0 {fill:none}
    .fil1 {fill:#59656C}
   ]]>
  </style>
 </defs>
 <g id="Слой_x0020_1">
  <metadata id="CorelCorpID_0Corel-Layer"/>
  <g id="_4701192976">
   <rect class="fil0 str0" x="3.49" y="3.49" width="8.01" height="8.01" rx="0.8" ry="0.8"/>
   <g>
    <path class="fil1" d="M9.2 9.61l0 -2.03c0,-0.18 -0.06,-0.33 -0.26,-0.33l-2.87 0c-0.07,0 -0.12,0.02 -0.17,0.06 -0.03,0.03 -0.09,0.09 -0.09,0.14l0 2.25c0,0.11 0.11,0.21 0.22,0.21l2.94 0c0.07,0 0.14,-0.04 0.17,-0.09 0.04,-0.06 0.06,-0.12 0.06,-0.22zm-0.49 -3.41c0,-0.16 -0.06,-0.34 -0.12,-0.45 -0.3,-0.6 -0.99,-0.84 -1.59,-0.57 -0.06,0.03 -0.12,0.06 -0.18,0.1 -0.11,0.08 -0.21,0.17 -0.29,0.28 -0.05,0.06 -0.07,0.11 -0.11,0.18 -0.06,0.12 -0.12,0.3 -0.12,0.47l0 0.79 2.41 0 0 -0.81zm0.25 0.04l0 0.77c0.28,0 0.48,0.23 0.48,0.45l0 2.23c0,0.25 -0.22,0.47 -0.51,0.47l-2.87 0c-0.28,0 -0.51,-0.23 -0.51,-0.46l0 -2.22c0,-0.19 0.11,-0.35 0.26,-0.42 0.09,-0.05 0.11,-0.05 0.22,-0.05l0 -0.75c0,-0.58 0.39,-1.11 0.86,-1.31 0.19,-0.08 0.37,-0.13 0.59,-0.13 0.51,0 0.95,0.27 1.19,0.61 0.15,0.22 0.27,0.51 0.27,0.81z"/>
    <path class="fil1" d="M7.73 8.49c0,-0.36 -0.47,-0.32 -0.47,-0.02 0,0.09 0.05,0.18 0.12,0.2 0,0.06 -0.01,0.14 0.01,0.19 0.03,0.12 0.2,0.12 0.23,0 0.01,-0.06 0.01,-0.13 0.01,-0.19 0.06,-0.02 0.12,-0.1 0.12,-0.18zm0.25 -0.02c0,0.21 -0.11,0.29 -0.12,0.33 -0.01,0.04 0,0.09 -0.01,0.14 -0.11,0.35 -0.59,0.34 -0.7,0.01 -0.04,-0.11 0.02,-0.11 -0.04,-0.18 -0.01,-0.02 -0.02,-0.03 -0.04,-0.05 -0.25,-0.38 0.19,-0.9 0.64,-0.68 0.14,0.07 0.27,0.24 0.27,0.44z"/>
   </g>
  </g>
  <rect class="fil0" x="-0" width="14.99" height="14.99"/>
 </g>
</svg>
