<?xml version="1.0" encoding="UTF-8"?>
<!DOCTYPE svg PUBLIC "-//W3C//DTD SVG 1.1//EN" "http://www.w3.org/Graphics/SVG/1.1/DTD/svg11.dtd">
<!-- Creator: CorelDRAW 2018 (64-Bit) -->
<svg xmlns="http://www.w3.org/2000/svg" xml:space="preserve" width="36.248mm" height="37.523mm" version="1.1" style="shape-rendering:geometricPrecision; text-rendering:geometricPrecision; image-rendering:optimizeQuality; fill-rule:evenodd; clip-rule:evenodd"
viewBox="0 0 6.77 7.01"
 xmlns:xlink="http://www.w3.org/1999/xlink">
 <defs>
  <style type="text/css">
   <![CDATA[
    .fil1 {fill:#59656C}
    .fil0 {fill:#59656C;fill-rule:nonzero}
   ]]>
  </style>
 </defs>
 <g id="Слой_x0020_1">
  <metadata id="CorelCorpID_0Corel-Layer"/>
  <path class="fil0" d="M0.99 6.92l0 -6.44c0,-0.13 0.05,-0.25 0.14,-0.34 0.08,-0.09 0.2,-0.14 0.33,-0.14l3.95 0c0.13,0 0.24,0.05 0.33,0.14 0.08,0.09 0.14,0.21 0.14,0.34l0 6.44 -0.19 0 0 -6.44c0,-0.08 -0.03,-0.16 -0.08,-0.21 -0.05,-0.05 -0.12,-0.08 -0.19,-0.08l-3.95 0c-0.08,0 -0.14,0.03 -0.19,0.08 -0.05,0.05 -0.08,0.13 -0.08,0.21l0 6.44 -0.19 0z"/>
  <path class="fil1" d="M4.51 4.84l0 -1.29c0,-0.11 -0.04,-0.21 -0.17,-0.21l-1.82 0c-0.05,0 -0.08,0.01 -0.1,0.04 -0.02,0.02 -0.06,0.06 -0.06,0.09l0 1.43c0,0.07 0.07,0.13 0.14,0.13l1.86 0c0.04,0 0.09,-0.03 0.11,-0.06 0.03,-0.04 0.04,-0.08 0.04,-0.14zm-0.31 -2.16c0,-0.1 -0.04,-0.22 -0.08,-0.28 -0.19,-0.38 -0.63,-0.53 -1,-0.36 -0.04,0.02 -0.08,0.04 -0.11,0.07 -0.07,0.05 -0.14,0.11 -0.19,0.18 -0.03,0.04 -0.05,0.07 -0.07,0.12 -0.04,0.07 -0.08,0.19 -0.08,0.3l0 0.5 1.53 0 0 -0.51zm0.16 0.03l0 0.49c0.18,0 0.31,0.15 0.31,0.29l0 1.41c0,0.16 -0.14,0.3 -0.32,0.3l-1.82 0c-0.18,0 -0.32,-0.14 -0.32,-0.29l0 -1.41c0,-0.12 0.07,-0.22 0.17,-0.27 0.06,-0.03 0.07,-0.03 0.14,-0.03l0 -0.47c0,-0.37 0.25,-0.71 0.54,-0.83 0.12,-0.05 0.24,-0.08 0.38,-0.08 0.32,0 0.6,0.17 0.75,0.39 0.1,0.14 0.17,0.32 0.17,0.51z"/>
  <path class="fil0" d="M4.49 4.84l0 -1.29c0,-0.06 -0.01,-0.11 -0.04,-0.14 -0.02,-0.03 -0.06,-0.05 -0.11,-0.05l-1.82 0c-0.02,0 -0.04,0 -0.05,0.01 -0.01,0.01 -0.03,0.01 -0.04,0.02 -0.01,0.01 -0.03,0.03 -0.04,0.04 -0.01,0.01 -0.01,0.02 -0.01,0.03l0 1.43c0,0.03 0.01,0.06 0.04,0.08 0.02,0.02 0.05,0.04 0.08,0.04l1.86 0c0.02,0 0.04,-0.01 0.05,-0.01 0.02,-0.01 0.03,-0.02 0.04,-0.03 0.01,-0.02 0.02,-0.03 0.02,-0.05 0.01,-0.02 0.01,-0.05 0.01,-0.07zm0.04 -1.29l0 1.29c0,0.03 -0,0.06 -0.01,0.08 -0.01,0.02 -0.02,0.05 -0.03,0.07 -0.01,0.02 -0.03,0.03 -0.06,0.05 -0.02,0.01 -0.04,0.02 -0.07,0.02l-1.86 0c-0.04,0 -0.08,-0.02 -0.11,-0.05 -0.03,-0.03 -0.05,-0.07 -0.05,-0.11l0 -1.43c0,-0.02 0.01,-0.04 0.02,-0.05 0.01,-0.02 0.03,-0.04 0.04,-0.05 0.01,-0.01 0.03,-0.02 0.05,-0.03 0.02,-0.01 0.04,-0.01 0.07,-0.01l1.82 0c0.06,0 0.11,0.02 0.14,0.06 0.03,0.04 0.05,0.1 0.05,0.17zm-0.35 -0.87c0,-0.04 -0.01,-0.09 -0.02,-0.13 -0.01,-0.06 -0.04,-0.11 -0.05,-0.14 -0.09,-0.18 -0.24,-0.31 -0.42,-0.38 -0.18,-0.06 -0.38,-0.06 -0.56,0.02 -0.02,0.01 -0.04,0.02 -0.06,0.03 -0.02,0.01 -0.04,0.02 -0.05,0.03 -0.03,0.02 -0.07,0.05 -0.1,0.08 -0.03,0.03 -0.06,0.06 -0.08,0.1 -0.01,0.02 -0.03,0.04 -0.04,0.05 -0.01,0.02 -0.02,0.04 -0.03,0.06 -0.02,0.04 -0.04,0.09 -0.05,0.15 -0.01,0.05 -0.02,0.1 -0.02,0.14l0 0.48 1.49 0 0 -0.49zm0.02 -0.14c0.01,0.05 0.02,0.1 0.02,0.14l0 0.53 -1.56 0 0 -0.52c0,-0.05 0.01,-0.1 0.02,-0.15 0.01,-0.06 0.04,-0.11 0.06,-0.15 0.01,-0.02 0.02,-0.04 0.03,-0.06 0.01,-0.02 0.02,-0.04 0.04,-0.06 0.03,-0.04 0.06,-0.07 0.09,-0.1 0.03,-0.03 0.07,-0.06 0.1,-0.08 0.02,-0.01 0.04,-0.02 0.06,-0.04 0.02,-0.01 0.04,-0.02 0.06,-0.03 0.19,-0.09 0.4,-0.09 0.59,-0.02 0.18,0.07 0.34,0.2 0.44,0.39 0.02,0.04 0.04,0.09 0.06,0.15zm0.18 0.17l0 0.47c0.08,0 0.15,0.04 0.21,0.09 0.06,0.06 0.1,0.14 0.1,0.22l0 1.41c0,0.09 -0.04,0.17 -0.1,0.23 -0.06,0.06 -0.14,0.09 -0.24,0.09l-1.82 0c-0.09,0 -0.18,-0.04 -0.24,-0.09 -0.06,-0.06 -0.1,-0.14 -0.1,-0.22l0 -1.41c0,-0.06 0.02,-0.12 0.05,-0.17 0.03,-0.05 0.08,-0.09 0.13,-0.12 0.03,-0.01 0.05,-0.02 0.07,-0.03 0.02,-0 0.03,-0.01 0.06,-0.01l0 -0.45c0,-0.18 0.06,-0.36 0.16,-0.5 0.1,-0.15 0.24,-0.28 0.4,-0.34 0.06,-0.02 0.12,-0.05 0.18,-0.06 0.06,-0.02 0.13,-0.02 0.2,-0.02 0.16,0 0.3,0.04 0.43,0.1 0.14,0.07 0.26,0.17 0.34,0.29 0.05,0.07 0.1,0.16 0.13,0.26 0.03,0.08 0.05,0.18 0.05,0.27zm-0.04 0.49l0 -0.49c0,-0.09 -0.02,-0.17 -0.04,-0.26 -0.03,-0.09 -0.08,-0.18 -0.13,-0.25 -0.08,-0.11 -0.19,-0.21 -0.32,-0.28 -0.12,-0.06 -0.26,-0.1 -0.41,-0.1 -0.07,0 -0.13,0.01 -0.19,0.02 -0.06,0.01 -0.12,0.04 -0.18,0.06 -0.15,0.06 -0.29,0.18 -0.38,0.33 -0.09,0.14 -0.15,0.31 -0.15,0.48l0 0.49 -0.02 0c-0.03,0 -0.05,0 -0.07,0.01 -0.02,0 -0.03,0.01 -0.06,0.03 -0.05,0.02 -0.09,0.06 -0.11,0.1 -0.03,0.04 -0.04,0.09 -0.04,0.15l0 1.41c0,0.07 0.03,0.14 0.09,0.19 0.05,0.05 0.13,0.08 0.21,0.08l1.82 0c0.08,0 0.16,-0.03 0.21,-0.08 0.06,-0.05 0.09,-0.12 0.09,-0.2l0 -1.41c0,-0.07 -0.03,-0.14 -0.09,-0.19 -0.05,-0.05 -0.12,-0.08 -0.2,-0.08l-0.02 0 0 -0.02z"/>
  <path class="fil1" d="M3.58 4.13c0,-0.23 -0.3,-0.21 -0.3,-0.01 0,0.06 0.03,0.12 0.07,0.13 0,0.04 -0.01,0.09 0,0.12 0.02,0.08 0.13,0.08 0.15,0 0.01,-0.04 0,-0.08 0,-0.12 0.04,-0.01 0.07,-0.06 0.07,-0.11zm0.16 -0.01c0,0.13 -0.07,0.18 -0.08,0.21 -0.01,0.03 0,0.06 -0.01,0.09 -0.07,0.22 -0.37,0.22 -0.44,0 -0.02,-0.07 0.01,-0.07 -0.02,-0.12 -0.01,-0.01 -0.01,-0.02 -0.02,-0.03 -0.16,-0.24 0.12,-0.57 0.41,-0.43 0.09,0.04 0.17,0.15 0.17,0.28z"/>
  <path class="fil0" d="M3.56 4.13c0,-0.07 -0.03,-0.12 -0.08,-0.13 -0.02,-0.01 -0.04,-0.01 -0.05,-0.01 -0.02,0 -0.04,0 -0.05,0.01 -0.04,0.02 -0.08,0.06 -0.08,0.12 0,0.03 0.01,0.05 0.02,0.07 0.01,0.02 0.02,0.03 0.04,0.04l0.01 0 0 0.01c0,0.01 -0,0.02 -0,0.03 -0,0.03 -0,0.06 0,0.08 0,0.02 0.01,0.03 0.03,0.04 0.01,0.01 0.02,0.01 0.03,0.01 0.01,-0 0.02,-0 0.03,-0.01 0.01,-0.01 0.02,-0.02 0.02,-0.04 0.01,-0.02 0.01,-0.06 0,-0.08 -0,-0.01 -0,-0.02 -0,-0.03l0 -0.01 0.01 -0c0.01,-0 0.03,-0.02 0.04,-0.03 0.01,-0.02 0.02,-0.04 0.02,-0.06zm-0.06 -0.17c0.06,0.02 0.1,0.08 0.1,0.17 0,0.03 -0.01,0.06 -0.03,0.08 -0.01,0.02 -0.03,0.04 -0.05,0.04l0 0.02c0,0.03 0,0.07 -0.01,0.1 -0.01,0.03 -0.02,0.05 -0.04,0.06 -0.01,0.01 -0.03,0.01 -0.05,0.01 -0.02,0 -0.03,-0 -0.05,-0.01 -0.02,-0.01 -0.04,-0.03 -0.04,-0.06 -0.01,-0.03 -0.01,-0.06 -0.01,-0.1l0 -0.02c-0.02,-0.01 -0.04,-0.03 -0.05,-0.05 -0.01,-0.03 -0.02,-0.06 -0.02,-0.09 0,-0.08 0.04,-0.13 0.1,-0.16 0.02,-0.01 0.05,-0.01 0.07,-0.01 0.02,-0 0.05,0 0.07,0.01zm0.26 0.16c0,0.1 -0.04,0.16 -0.07,0.2 -0.01,0.01 -0.01,0.02 -0.01,0.02 -0,0.01 -0,0.02 -0,0.03 0,0.02 0,0.04 -0.01,0.06 -0.02,0.06 -0.06,0.11 -0.1,0.14 -0.04,0.03 -0.09,0.04 -0.14,0.04 -0.05,0 -0.1,-0.01 -0.14,-0.04 -0.05,-0.03 -0.08,-0.07 -0.1,-0.13 -0.01,-0.03 -0.01,-0.05 -0.01,-0.07 0,-0.01 0,-0.02 -0.01,-0.04l-0.01 -0.01c-0.01,-0.01 -0.01,-0.01 -0.02,-0.02 -0.05,-0.07 -0.06,-0.15 -0.04,-0.22 0.01,-0.06 0.04,-0.11 0.08,-0.16 0.04,-0.05 0.09,-0.08 0.15,-0.1 0.07,-0.02 0.16,-0.02 0.24,0.02 0.05,0.02 0.1,0.07 0.13,0.12 0.03,0.05 0.05,0.11 0.05,0.17zm-0.1 0.17c0.02,-0.03 0.06,-0.08 0.06,-0.17 0,-0.05 -0.02,-0.11 -0.04,-0.15 -0.03,-0.05 -0.07,-0.09 -0.12,-0.11 -0.07,-0.04 -0.15,-0.04 -0.21,-0.02 -0.05,0.02 -0.1,0.05 -0.13,0.09 -0.04,0.04 -0.06,0.09 -0.07,0.14 -0.01,0.06 -0,0.13 0.04,0.19 0.01,0.01 0.01,0.02 0.02,0.02l0.01 0.01c0.02,0.03 0.02,0.05 0.02,0.07 -0,0.01 -0,0.03 0.01,0.06 0.02,0.05 0.05,0.09 0.09,0.11 0.04,0.02 0.08,0.03 0.12,0.03 0.04,-0 0.08,-0.01 0.12,-0.03 0.04,-0.03 0.07,-0.06 0.09,-0.12 0.01,-0.02 0,-0.03 0,-0.05 -0,-0.01 -0,-0.03 0,-0.04 0,-0.01 0.01,-0.02 0.02,-0.03z"/>
  <rect class="fil1" y="6.82" width="6.77" height="0.19" rx="0.2" ry="0.09"/>
 </g>
</svg>
