<?xml version="1.0" encoding="UTF-8"?>
<!DOCTYPE svg PUBLIC "-//W3C//DTD SVG 1.1//EN" "http://www.w3.org/Graphics/SVG/1.1/DTD/svg11.dtd">
<!-- Creator: CorelDRAW 2018 (64-Bit) -->
<svg xmlns="http://www.w3.org/2000/svg" xml:space="preserve" width="36.248mm" height="37.523mm" version="1.1" style="shape-rendering:geometricPrecision; text-rendering:geometricPrecision; image-rendering:optimizeQuality; fill-rule:evenodd; clip-rule:evenodd"
viewBox="0 0 6.77 7.01"
 xmlns:xlink="http://www.w3.org/1999/xlink">
 <defs>
  <style type="text/css">
   <![CDATA[
    .str0 {stroke:#59656C;stroke-width:0.19;stroke-miterlimit:22.9256}
    .str1 {stroke:#59656C;stroke-width:0.04;stroke-miterlimit:22.9256}
    .fil0 {fill:none}
    .fil1 {fill:#59656C}
   ]]>
  </style>
 </defs>
 <g id="Слой_x0020_1">
  <metadata id="CorelCorpID_0Corel-Layer"/>
  <g id="_4611488832">
   <path class="fil0 str0" d="M1.09 6.92l0 -6.44c0,-0.21 0.17,-0.39 0.37,-0.39l3.95 0c0.2,0 0.37,0.17 0.37,0.39l0 6.44"/>
   <g>
    <path class="fil1 str1" d="M4.51 4.84l0 -1.29c0,-0.11 -0.04,-0.21 -0.17,-0.21l-1.82 0c-0.05,0 -0.08,0.01 -0.1,0.04 -0.02,0.02 -0.06,0.06 -0.06,0.09l0 1.43c0,0.07 0.07,0.13 0.14,0.13l1.86 0c0.04,0 0.09,-0.03 0.11,-0.06 0.03,-0.04 0.04,-0.08 0.04,-0.14zm-0.31 -2.16c0,-0.1 -0.04,-0.22 -0.08,-0.28 -0.19,-0.38 -0.63,-0.53 -1,-0.36 -0.04,0.02 -0.08,0.04 -0.11,0.07 -0.07,0.05 -0.14,0.11 -0.19,0.18 -0.03,0.04 -0.05,0.07 -0.07,0.12 -0.04,0.07 -0.08,0.19 -0.08,0.3l0 0.5 1.53 0 0 -0.51zm0.16 0.03l0 0.49c0.18,0 0.31,0.15 0.31,0.29l0 1.41c0,0.16 -0.14,0.3 -0.32,0.3l-1.82 0c-0.18,0 -0.32,-0.14 -0.32,-0.29l0 -1.41c0,-0.12 0.07,-0.22 0.17,-0.27 0.06,-0.03 0.07,-0.03 0.14,-0.03l0 -0.47c0,-0.37 0.25,-0.71 0.54,-0.83 0.12,-0.05 0.24,-0.08 0.38,-0.08 0.32,0 0.6,0.17 0.75,0.39 0.1,0.14 0.17,0.32 0.17,0.51z"/>
    <path class="fil1 str1" d="M3.58 4.13c0,-0.23 -0.3,-0.21 -0.3,-0.01 0,0.06 0.03,0.12 0.07,0.13 0,0.04 -0.01,0.09 0,0.12 0.02,0.08 0.13,0.08 0.15,0 0.01,-0.04 0,-0.08 0,-0.12 0.04,-0.01 0.07,-0.06 0.07,-0.11zm0.16 -0.01c0,0.13 -0.07,0.18 -0.08,0.21 -0.01,0.03 0,0.06 -0.01,0.09 -0.07,0.22 -0.37,0.22 -0.44,0 -0.02,-0.07 0.01,-0.07 -0.02,-0.12 -0.01,-0.01 -0.01,-0.02 -0.02,-0.03 -0.16,-0.24 0.12,-0.57 0.41,-0.43 0.09,0.04 0.17,0.15 0.17,0.28z"/>
   </g>
   <rect class="fil1" y="6.82" width="6.77" height="0.19" rx="0.2" ry="0.09"/>
  </g>
 </g>
</svg>
