<?xml version="1.0" encoding="UTF-8"?>
<!DOCTYPE svg PUBLIC "-//W3C//DTD SVG 1.1//EN" "http://www.w3.org/Graphics/SVG/1.1/DTD/svg11.dtd">
<!-- Creator: CorelDRAW 2018 (64-Bit) -->
<svg xmlns="http://www.w3.org/2000/svg" xml:space="preserve" width="60.0632mm" height="47mm" version="1.1" style="shape-rendering:geometricPrecision; text-rendering:geometricPrecision; image-rendering:optimizeQuality; fill-rule:evenodd; clip-rule:evenodd"
viewBox="0 0 59.92 46.89"
 xmlns:xlink="http://www.w3.org/1999/xlink">
 <defs>
  <style type="text/css">
   <![CDATA[
    .str1 {stroke:#55ADAD;stroke-width:1;stroke-miterlimit:22.9256}
    .str0 {stroke:white;stroke-width:0.4;stroke-miterlimit:22.9256}
    .str2 {stroke:#55ADAD;stroke-width:0.2;stroke-miterlimit:22.9256}
    .fil3 {fill:none}
    .fil2 {fill:#55ADAD}
    .fil0 {fill:#59656C}
    .fil1 {fill:white}
   ]]>
  </style>
 </defs>
 <g id="Слой_x0020_1">
  <metadata id="CorelCorpID_0Corel-Layer"/>
  <g id="_1594814496">
   <g>
    <path class="fil0 str0" d="M18.36 29.22c0.63,0.86 1.67,0.32 3.54,-0.33 1.21,-0.42 2.41,-0.92 3.4,-1.54 2.43,-1.51 2.1,2.34 7.45,-1.04 0.54,1.03 0.69,1.31 1.43,1.99 0.39,0.35 1.72,1.23 2.45,1.06 0.44,-0.11 0.66,-0.64 0.43,-1.06 -0.34,-0.61 -1.98,-0.39 -2.83,-2.38 -0.79,-1.86 1.05,-2.21 1.09,-5.42 0.02,-1.99 -0.84,-3.91 -1.84,-5.01 -2.05,-2.25 -5.82,-4.24 -10.14,-2.45 -2.51,1.04 -4.31,2.55 -6.15,4.25 -0.31,0.28 -1.79,1.5 -0.7,2.06 0.79,0.4 2.16,-1.52 3.86,-2.79 1.22,-0.91 2.58,-1.95 4.46,-2.43 5.77,-1.46 11.62,4.15 7.71,10.05 -1.03,1.55 -3.02,2.58 -4.57,1.77 -2.54,-1.33 -3.3,0.59 -7.53,1.85 -1,0.3 -2.09,0.28 -2.06,1.42z"/>
    <path class="fil0 str0" d="M25.01 9.8c-3.34,0.54 -8.75,3.67 -8.22,5.06 0.3,0.79 1.14,0.34 1.68,-0.2 5.36,-5.23 14.51,-4.36 17.59,2 0.62,1.29 0.85,2.95 0.67,4.55 -0.22,1.84 -1.18,3.68 -0.83,4.17 1.14,1.59 1.94,-2.03 2.08,-2.66 1.94,-9.07 -6.57,-13.96 -12.97,-12.93z"/>
    <path class="fil0 str0" d="M16.61 22.86c0.95,0.42 1.51,-0.35 2.71,-1.49 2.3,-2.17 5.28,-5.32 9,-4.1 2.14,0.7 3.82,3.63 1.75,5.63 -1.55,1.51 -2.54,-0.78 -3.38,0.13 -0.95,1.03 1.31,1.9 2.29,1.89 4.57,-0.04 5.15,-8.8 -1.68,-9.39 -3.52,-0.3 -6.01,2.22 -7.77,3.58l-2.38 2.18c-0.53,0.45 -0.9,0.64 -0.54,1.58z"/>
    <path class="fil0 str0" d="M26.08 30.31c3.54,-0.46 6.16,0.57 9.03,1.88 0.77,0.35 1.61,-0.2 1.14,-1 -0.28,-0.48 -1.2,-0.74 -1.77,-0.98 -4.58,-1.93 -9.02,-2.02 -13.41,0.06 -0.56,0.26 -1.58,0.63 -1.14,1.48 0.42,0.79 1.42,0.01 1.88,-0.19 1.3,-0.57 2.65,-1.03 4.26,-1.24z"/>
    <path class="fil0 str0" d="M19.95 9.97c1.84,0.25 5.33,-3.54 12.81,-0.02 0.51,0.24 1.22,0.88 1.69,0.9 0.79,0.04 1.11,-0.88 0.29,-1.46 -4.21,-2.97 -9.58,-3.07 -14.32,-0.96 -0.84,0.37 -0.95,0.73 -0.48,1.54z"/>
    <path class="fil0 str0" d="M29.41 22.06c1,-1.54 -1.3,-7.2 -7.99,-0.79l-2.11 2.17c-0.48,0.52 -1.02,0.88 -1.47,1.39 -0.59,0.65 -0.33,1.66 0.54,1.45 0.41,-0.1 1.21,-1.06 1.49,-1.37 0.47,-0.51 1,-0.89 1.48,-1.38 1.2,-1.24 3.08,-3.24 4.74,-3.7 0.91,-0.25 1.6,0.12 1.9,0.75 0.43,0.9 0.03,1.68 1.42,1.49z"/>
    <path class="fil0 str0" d="M26.44 33.03c1.3,-0.21 2.74,-0.1 3.97,0.22 0.58,0.15 1.09,0.32 1.63,0.58 0.34,0.16 1.16,0.63 1.42,0.69 0.64,0.14 1.98,-0.82 -0.54,-1.96 -3.5,-1.57 -7.07,-1.49 -10.42,0.18 -1.45,0.72 -0.86,2.18 0.71,1.36 0.94,-0.49 2.01,-0.88 3.23,-1.08z"/>
    <path class="fil0 str0" d="M26.46 20.75c-0.35,0.12 -0.21,0.05 -0.5,0.24l-4.2 3.74c-0.83,0.76 -0.45,1.82 0.53,1.49 0.17,-0.06 1.39,-1.16 1.57,-1.35l3.03 -2.69c0.91,-0.71 0.35,-1.7 -0.44,-1.44z"/>
   </g>
   <g>
    <circle class="fil1 str1" cx="33.75" cy="27.88" r="7.91"/>
    <path class="fil2 str2" d="M45.77 39.26l-6.13 -6.13c-0.19,0.2 -0.39,0.39 -0.59,0.58l6.13 6.13c0.1,0.1 0.31,0.05 0.47,-0.11l0 0c0.16,-0.16 0.21,-0.37 0.11,-0.47z"/>
   </g>
  </g>
  <rect class="fil3" width="59.92" height="46.89"/>
 </g>
</svg>
