<?xml version="1.0" encoding="UTF-8"?>
<!DOCTYPE svg PUBLIC "-//W3C//DTD SVG 1.1//EN" "http://www.w3.org/Graphics/SVG/1.1/DTD/svg11.dtd">
<!-- Creator: CorelDRAW 2018 (64-Bit) -->
<svg xmlns="http://www.w3.org/2000/svg" xml:space="preserve" width="60mm" height="60mm" version="1.1" style="shape-rendering:geometricPrecision; text-rendering:geometricPrecision; image-rendering:optimizeQuality; fill-rule:evenodd; clip-rule:evenodd"
viewBox="0 0 16.16 16.16"
 xmlns:xlink="http://www.w3.org/1999/xlink">
 <defs>
  <style type="text/css">
   <![CDATA[
    .str0 {stroke:#59656C;stroke-width:0.27;stroke-miterlimit:22.9256}
    .fil0 {fill:none}
   ]]>
  </style>
 </defs>
 <g id="Слой_x0020_1">
  <metadata id="CorelCorpID_0Corel-Layer"/>
  <g id="_4611807424">
   <path class="fil0 str0" d="M6.27 9.98c-0.08,-2.11 -1.34,-1.9 -1.58,-3.38 -0.12,-0.75 0.11,-1.29 0.61,-1.85 0.44,-0.49 -0.07,-0.98 -0.46,-0.57 -0.52,0.54 -0.91,1.05 -0.94,1.97 -0.03,1.06 0.47,1.75 0.99,2.27 0.76,0.76 0.83,2.08 0.09,2.91 -0.15,0.17 -0.35,0.26 -0.3,0.52 0.04,0.22 0.37,0.47 0.73,0.11 0.56,-0.51 0.83,-1.27 0.85,-1.98z"/>
   <path class="fil0 str0" d="M9.26 9.98c-0.08,-2.11 -1.34,-1.9 -1.58,-3.38 -0.12,-0.75 0.11,-1.29 0.61,-1.85 0.44,-0.49 -0.07,-0.98 -0.46,-0.57 -0.52,0.54 -0.91,1.05 -0.94,1.97 -0.03,1.06 0.47,1.75 0.99,2.27 0.76,0.76 0.83,2.08 0.09,2.91 -0.15,0.17 -0.35,0.26 -0.3,0.52 0.04,0.22 0.37,0.47 0.73,0.11 0.56,-0.51 0.83,-1.27 0.85,-1.98z"/>
   <path class="fil0 str0" d="M12.26 9.98c-0.08,-2.11 -1.34,-1.9 -1.58,-3.38 -0.12,-0.75 0.11,-1.29 0.61,-1.85 0.44,-0.49 -0.07,-0.98 -0.46,-0.57 -0.52,0.54 -0.91,1.05 -0.94,1.97 -0.03,1.06 0.47,1.75 0.99,2.27 0.76,0.76 0.83,2.08 0.09,2.91 -0.15,0.17 -0.35,0.26 -0.3,0.52 0.04,0.22 0.37,0.47 0.73,0.11 0.56,-0.51 0.83,-1.27 0.85,-1.98z"/>
  </g>
  <rect class="fil0" x="-0" width="16.16" height="16.16"/>
 </g>
</svg>
