<?xml version="1.0" encoding="UTF-8"?>
<!DOCTYPE svg PUBLIC "-//W3C//DTD SVG 1.1//EN" "http://www.w3.org/Graphics/SVG/1.1/DTD/svg11.dtd">
<!-- Creator: CorelDRAW 2018 (64-Bit) -->
<svg xmlns="http://www.w3.org/2000/svg" xml:space="preserve" width="32.0142mm" height="31.1486mm" version="1.1" style="shape-rendering:geometricPrecision; text-rendering:geometricPrecision; image-rendering:optimizeQuality; fill-rule:evenodd; clip-rule:evenodd"
viewBox="0 0 4.61 4.48"
 xmlns:xlink="http://www.w3.org/1999/xlink">
 <defs>
  <style type="text/css">
   <![CDATA[
    .fil0 {fill:#59656C;fill-rule:nonzero}
   ]]>
  </style>
 </defs>
 <g id="Слой_x0020_1">
  <metadata id="CorelCorpID_0Corel-Layer"/>
  <path class="fil0" d="M1.26 3.25c-0.02,-0.61 -0.24,-0.84 -0.44,-1.06 -0.17,-0.19 -0.34,-0.37 -0.4,-0.74 -0.03,-0.21 -0.02,-0.4 0.04,-0.57 0.06,-0.17 0.16,-0.32 0.3,-0.48 0.07,-0.08 0.08,-0.15 0.07,-0.2 -0.01,-0.02 -0.01,-0.03 -0.03,-0.04 -0.01,-0.01 -0.02,-0.02 -0.04,-0.02 -0.04,-0.01 -0.09,0 -0.14,0.06 -0.13,0.14 -0.25,0.28 -0.34,0.44 -0.08,0.16 -0.14,0.34 -0.14,0.57 -0.01,0.27 0.05,0.49 0.15,0.68 0.1,0.19 0.23,0.34 0.36,0.48 0.22,0.22 0.34,0.52 0.35,0.82 0.01,0.3 -0.09,0.6 -0.3,0.83 -0.02,0.02 -0.04,0.04 -0.06,0.06 -0.05,0.05 -0.1,0.09 -0.08,0.16 0,0.02 0.01,0.04 0.03,0.06 0.01,0.01 0.03,0.03 0.05,0.03 0.02,0.01 0.04,0.01 0.06,0 0.04,-0.01 0.08,-0.03 0.13,-0.07l0 -0c0.13,-0.12 0.24,-0.28 0.31,-0.44 0.08,-0.18 0.12,-0.37 0.12,-0.56zm-0.34 -1.16c0.22,0.24 0.45,0.49 0.48,1.15l0 0c-0.01,0.21 -0.05,0.42 -0.14,0.62 -0.08,0.18 -0.19,0.35 -0.34,0.49 -0.07,0.07 -0.14,0.1 -0.2,0.11 -0.05,0.01 -0.1,0 -0.14,-0.01 -0.04,-0.01 -0.08,-0.04 -0.1,-0.07 -0.04,-0.04 -0.06,-0.09 -0.07,-0.13 -0.03,-0.15 0.05,-0.21 0.13,-0.29 0.02,-0.02 0.03,-0.03 0.05,-0.05 0.18,-0.2 0.27,-0.47 0.26,-0.73 -0.01,-0.27 -0.11,-0.53 -0.3,-0.72 -0.14,-0.14 -0.29,-0.31 -0.39,-0.52 -0.1,-0.21 -0.17,-0.45 -0.16,-0.75 0.01,-0.26 0.07,-0.46 0.16,-0.64 0.09,-0.17 0.22,-0.32 0.36,-0.47 0.09,-0.1 0.2,-0.12 0.28,-0.09 0.04,0.01 0.07,0.03 0.1,0.06 0.03,0.03 0.05,0.06 0.06,0.1 0.03,0.1 0.01,0.22 -0.09,0.34 -0.13,0.14 -0.22,0.28 -0.28,0.43 -0.05,0.15 -0.07,0.31 -0.04,0.5 0.05,0.32 0.21,0.49 0.36,0.66z"/>
  <path class="fil0" d="M2.86 3.25c-0.02,-0.61 -0.24,-0.84 -0.44,-1.06 -0.17,-0.19 -0.34,-0.37 -0.4,-0.74 -0.03,-0.21 -0.02,-0.4 0.04,-0.57 0.06,-0.17 0.16,-0.32 0.3,-0.48 0.07,-0.08 0.08,-0.15 0.07,-0.2 -0.01,-0.02 -0.01,-0.03 -0.03,-0.04 -0.01,-0.01 -0.02,-0.02 -0.04,-0.02 -0.04,-0.01 -0.09,0 -0.14,0.06 -0.13,0.14 -0.25,0.28 -0.34,0.44 -0.08,0.16 -0.14,0.34 -0.14,0.57 -0.01,0.27 0.05,0.49 0.15,0.68 0.1,0.19 0.23,0.34 0.36,0.48 0.22,0.22 0.34,0.52 0.35,0.82 0.01,0.3 -0.09,0.6 -0.3,0.83 -0.02,0.02 -0.04,0.04 -0.06,0.06 -0.05,0.05 -0.1,0.09 -0.08,0.16 0,0.02 0.01,0.04 0.03,0.06l-0 0c0.01,0.01 0.03,0.02 0.05,0.03 0.02,0.01 0.04,0.01 0.06,0 0.04,-0.01 0.08,-0.03 0.13,-0.07l0 -0c0.13,-0.12 0.24,-0.28 0.31,-0.44 0.08,-0.18 0.12,-0.37 0.12,-0.56zm-0.34 -1.16c0.22,0.24 0.45,0.49 0.48,1.15l0 0c-0.01,0.21 -0.05,0.42 -0.14,0.62 -0.08,0.18 -0.19,0.35 -0.34,0.49 -0.07,0.07 -0.14,0.1 -0.2,0.11 -0.05,0.01 -0.1,0 -0.14,-0.01 -0.04,-0.01 -0.08,-0.04 -0.1,-0.07l-0 0c-0.04,-0.04 -0.06,-0.09 -0.07,-0.13 -0.03,-0.15 0.05,-0.21 0.13,-0.29 0.02,-0.02 0.03,-0.03 0.05,-0.05 0.18,-0.2 0.27,-0.47 0.26,-0.73 -0.01,-0.27 -0.11,-0.53 -0.3,-0.72 -0.14,-0.14 -0.29,-0.31 -0.39,-0.52 -0.1,-0.21 -0.17,-0.45 -0.16,-0.75 0.01,-0.26 0.07,-0.46 0.16,-0.64 0.09,-0.17 0.22,-0.32 0.36,-0.47 0.09,-0.1 0.2,-0.12 0.28,-0.09 0.04,0.01 0.07,0.03 0.1,0.06 0.03,0.03 0.05,0.06 0.06,0.1 0.03,0.1 0.01,0.22 -0.09,0.34 -0.13,0.14 -0.22,0.28 -0.28,0.43 -0.05,0.15 -0.07,0.31 -0.04,0.5 0.05,0.32 0.21,0.49 0.36,0.66z"/>
  <path class="fil0" d="M4.46 3.25c-0.02,-0.61 -0.24,-0.84 -0.44,-1.06 -0.17,-0.19 -0.34,-0.37 -0.4,-0.74 -0.03,-0.21 -0.02,-0.4 0.04,-0.57 0.06,-0.17 0.16,-0.32 0.3,-0.48 0.07,-0.08 0.08,-0.15 0.07,-0.2 -0.01,-0.02 -0.01,-0.03 -0.03,-0.04 -0.01,-0.01 -0.02,-0.02 -0.04,-0.02 -0.04,-0.01 -0.09,0 -0.14,0.06 -0.13,0.14 -0.25,0.28 -0.34,0.44 -0.08,0.16 -0.14,0.34 -0.14,0.57 -0.01,0.27 0.05,0.49 0.15,0.68 0.1,0.19 0.23,0.34 0.36,0.48 0.22,0.22 0.34,0.52 0.35,0.82 0.01,0.3 -0.09,0.6 -0.3,0.83 -0.02,0.02 -0.04,0.04 -0.06,0.06 -0.05,0.05 -0.1,0.09 -0.08,0.16 0,0.02 0.01,0.04 0.03,0.06l-0 0c0.01,0.01 0.03,0.02 0.05,0.03 0.02,0.01 0.04,0.01 0.06,0 0.04,-0.01 0.08,-0.03 0.13,-0.07l0 -0c0.13,-0.12 0.24,-0.28 0.31,-0.44 0.08,-0.18 0.12,-0.37 0.12,-0.56zm-0.34 -1.16c0.22,0.24 0.45,0.49 0.48,1.15l0 0c-0.01,0.21 -0.05,0.42 -0.14,0.62 -0.08,0.18 -0.19,0.35 -0.34,0.49 -0.07,0.07 -0.14,0.1 -0.2,0.11 -0.05,0.01 -0.1,0 -0.14,-0.01 -0.04,-0.01 -0.08,-0.04 -0.1,-0.07l-0 0c-0.04,-0.04 -0.06,-0.09 -0.07,-0.13 -0.03,-0.15 0.05,-0.21 0.13,-0.29 0.02,-0.02 0.03,-0.03 0.05,-0.05 0.18,-0.2 0.27,-0.47 0.26,-0.73 -0.01,-0.27 -0.11,-0.53 -0.3,-0.72 -0.14,-0.14 -0.29,-0.31 -0.39,-0.52 -0.1,-0.21 -0.17,-0.45 -0.16,-0.75 0.01,-0.26 0.07,-0.46 0.16,-0.64 0.09,-0.17 0.22,-0.32 0.36,-0.47 0.09,-0.1 0.2,-0.12 0.28,-0.09 0.04,0.01 0.07,0.03 0.1,0.06 0.03,0.03 0.05,0.06 0.06,0.1 0.03,0.1 0.01,0.22 -0.09,0.34 -0.13,0.14 -0.22,0.28 -0.28,0.43 -0.05,0.15 -0.07,0.31 -0.04,0.5 0.05,0.32 0.21,0.49 0.36,0.66z"/>
 </g>
</svg>
