<?xml version="1.0" encoding="UTF-8"?>
<!DOCTYPE svg PUBLIC "-//W3C//DTD SVG 1.1//EN" "http://www.w3.org/Graphics/SVG/1.1/DTD/svg11.dtd">
<!-- Creator: CorelDRAW 2018 (64-Bit) -->
<svg xmlns="http://www.w3.org/2000/svg" xml:space="preserve" width="60mm" height="60mm" version="1.1" style="shape-rendering:geometricPrecision; text-rendering:geometricPrecision; image-rendering:optimizeQuality; fill-rule:evenodd; clip-rule:evenodd"
viewBox="0 0 17.38 17.38"
 xmlns:xlink="http://www.w3.org/1999/xlink">
 <defs>
  <style type="text/css">
   <![CDATA[
    .str0 {stroke:#59656C;stroke-width:0.29;stroke-miterlimit:22.9256}
    .fil0 {fill:none}
    .fil1 {fill:#59656C}
   ]]>
  </style>
 </defs>
 <g id="Слой_x0020_1">
  <metadata id="CorelCorpID_0Corel-Layer"/>
  <g id="_4611469120">
   <path class="fil0 str0" d="M5.47 2.81l3.8 2.22c0.18,0.1 0.37,0.17 0.37,0.37l0 8.81c0,0.21 -0.2,0.48 -0.37,0.37l-3.91 -2.26c-0.18,-0.1 -0.27,-0.17 -0.27,-0.37l0 -8.87c0,-0.21 0.2,-0.37 0.37,-0.27z"/>
   <rect class="fil1" x="8.42" y="8.38" width="0.29" height="1.5" rx="0.14" ry="0.14"/>
   <path class="fil0 str0" d="M5.41 2.77l6.5 0c0.21,0 0.37,0.17 0.37,0.37l0 8.81c0,0.21 -0.17,0.37 -0.37,0.37l-2.27 0"/>
  </g>
  <rect class="fil0" x="-0" width="17.38" height="17.38"/>
 </g>
</svg>
