<?xml version="1.0" encoding="UTF-8"?>
<!DOCTYPE svg PUBLIC "-//W3C//DTD SVG 1.1//EN" "http://www.w3.org/Graphics/SVG/1.1/DTD/svg11.dtd">
<!-- Creator: CorelDRAW 2018 (64-Bit) -->
<svg xmlns="http://www.w3.org/2000/svg" xml:space="preserve" width="60mm" height="60mm" version="1.1" style="shape-rendering:geometricPrecision; text-rendering:geometricPrecision; image-rendering:optimizeQuality; fill-rule:evenodd; clip-rule:evenodd"
viewBox="0 0 41.21 41.21"
 xmlns:xlink="http://www.w3.org/1999/xlink">
 <defs>
  <style type="text/css">
   <![CDATA[
    .fil1 {fill:none}
    .fil0 {fill:#59656C}
   ]]>
  </style>
 </defs>
 <g id="Слой_x0020_1">
  <metadata id="CorelCorpID_0Corel-Layer"/>
  <g id="_5207013696">
   <path class="fil0" d="M17.5 16.01c0.26,-0.05 4.71,-0.02 5.1,-0.02 1.48,0 1.54,-0.11 1.54,1.05 -0,0.43 -0,0.86 0,1.29 0,0.43 -0.02,0.75 -0.43,0.82 -0.25,0.04 -4.73,0.01 -5.11,0.01 -1.42,0 -1.52,0.13 -1.52,-1.04 0,-0.43 0,-0.86 -0,-1.29 -0,-0.42 0.02,-0.75 0.43,-0.82zm-0.13 -0.73c-0.45,0.08 -0.76,0.4 -0.92,0.73 -0.17,0.34 -0.11,1.09 -0.11,1.52 0,0.42 -0.06,1.2 0.08,1.55 0.13,0.35 0.5,0.69 0.88,0.8 0.2,0.05 6.16,0.07 6.56,0.02 0.38,-0.05 0.76,-0.46 0.91,-0.72 0.18,-0.32 0.11,-1.11 0.11,-1.53 0,-0.37 0.06,-1.28 -0.07,-1.56 -0.13,-0.3 -0.51,-0.71 -0.89,-0.79 -0.26,-0.05 -6.25,-0.05 -6.54,0z"/>
   <path class="fil0" d="M17.51 9.94c0.26,-0.05 4.71,-0.01 5.1,-0.01 1.44,0 1.54,-0.14 1.54,1.04 -0,0.43 -0,0.86 0,1.29 0,0.44 -0.01,0.75 -0.43,0.82 -0.27,0.05 -4.72,0.01 -5.12,0.01 -1.43,0 -1.52,0.13 -1.52,-1.05 0,-0.43 0,-0.86 -0,-1.29 -0,-0.43 0,-0.74 0.44,-0.82zm-0.18 -0.73c-0.4,0.07 -0.76,0.46 -0.9,0.75 -0.15,0.31 -0.09,1.13 -0.09,1.54 0,0.42 -0.06,1.21 0.08,1.54 0.44,1.04 1.49,0.8 2.52,0.8 0.64,0 4.69,0.03 4.95,-0.01 0.36,-0.06 0.76,-0.48 0.89,-0.75 0.16,-0.33 0.09,-1.12 0.09,-1.54 0,-0.38 0.06,-1.27 -0.08,-1.55 -0.52,-1.05 -1.46,-0.78 -2.53,-0.78 -0.61,0 -4.7,-0.03 -4.93,0.01z"/>
   <path class="fil0" d="M17.45 22.09c0.38,-0.09 2.02,-0.03 2.53,-0.03 0.39,0 3.58,-0.04 3.81,0.03 0.4,0.12 0.35,0.5 0.35,0.95 -0,0.43 -0,0.86 0,1.29 0,0.42 0.03,0.78 -0.38,0.88 -0.31,0.07 -4.41,0.03 -5.1,0.03 -1.46,0 -1.59,0.14 -1.59,-0.97 0,-0.43 0,-0.86 0,-1.29 -0,-0.44 -0.04,-0.77 0.38,-0.88zm-0.18 -0.73c-0.36,0.1 -0.74,0.46 -0.87,0.78 -0.11,0.27 -0.06,1.19 -0.06,1.56 0,0.42 -0.07,1.2 0.1,1.52 0.53,0.99 1.41,0.74 2.57,0.74 0.6,0 4.71,0.03 4.93,-0.02 0.36,-0.09 0.73,-0.49 0.86,-0.78 0.12,-0.26 0.07,-1.2 0.07,-1.56 0,-0.45 0.08,-1.17 -0.11,-1.53 -0.52,-0.99 -1.45,-0.74 -2.58,-0.74 -0.85,0 -4.61,-0.05 -4.91,0.03z"/>
   <path class="fil0" d="M17.45 28.16c0.26,-0.07 4.45,-0.03 5.09,-0.03 1.5,0 1.61,-0.14 1.6,0.98 -0,0.43 -0,0.86 0,1.29 0,0.42 0.03,0.78 -0.38,0.88 -0.38,0.09 -2.04,0.02 -2.55,0.02 -0.4,0 -3.55,0.04 -3.79,-0.03 -0.4,-0.12 -0.35,-0.52 -0.35,-0.93 0,-0.43 0,-0.86 0,-1.29 -0,-0.45 -0.04,-0.76 0.38,-0.88zm-1.11 2.83c0.03,0.35 0.38,0.74 0.73,0.93 0.38,0.19 1.05,0.11 1.52,0.11l4.95 0c0.57,0 0.86,-0.25 1.08,-0.55 0.34,-0.44 0.24,-0.78 0.24,-1.4 0,-0.5 0.04,-1.16 -0,-1.64 -0.03,-0.41 -0.46,-0.8 -0.72,-0.94 -0.32,-0.18 -1.11,-0.1 -1.54,-0.1l-4.95 -0c-0.35,-0 -0.43,0.01 -0.68,0.16 -0.77,0.49 -0.63,1.13 -0.63,1.79 0,0.49 -0.04,1.17 0,1.64z"/>
   <path class="fil0" d="M27.26 23.48c0.22,-0.34 0.52,-0.48 0.74,-0.87 0.19,-0.35 -0.09,-1.1 -1.12,0.1l-0.41 0.43c-0.42,0.43 -0.57,0.41 -0.6,0.66 -0.02,0.18 -0.01,0.24 0.08,0.35 0.31,0.38 0.69,0.68 1.05,1.01l0.64 0.62c0.32,0.21 0.86,-0.18 0.37,-0.69l-0.42 -0.42c-0.15,-0.14 -0.28,-0.24 -0.39,-0.45 0.68,-0 1.35,-0 2.03,-0 0.5,0 1.51,0.09 1.89,-0.13 0.65,-0.37 0.67,-0.78 0.67,-1.34 -0,-1.01 0.05,-3.22 -0,-4.08 -0.03,-0.54 -0.47,-0.97 -0.88,-1.13 -0.59,-0.23 -3.13,-0.12 -3.95,-0.12 -0.29,0 -0.68,-0.04 -0.92,0.09 -0.26,0.14 -0.22,0.57 0.02,0.66 0.16,0.07 3.54,0.04 4,0.03 0.98,-0.01 1,0.11 1,1.06 -0,0.57 0.06,3.7 -0.06,3.98 -0.19,0.43 -1.2,0.25 -1.71,0.25 -0.46,-0 -1.67,0.06 -2.04,-0.02z"/>
   <path class="fil0" d="M14 18.16c-0.1,0.27 -0.61,0.64 -0.81,0.88 -0.11,0.14 -0.29,0.31 -0.14,0.54 0.37,0.6 0.99,-0.35 1.37,-0.72l0.64 -0.62c0.06,-0.06 0.15,-0.15 0.2,-0.22 0.23,-0.3 -0.08,-0.6 -0.29,-0.78 -0.08,-0.07 -0.13,-0.14 -0.21,-0.21l-0.84 -0.83c-0.12,-0.13 -0.28,-0.35 -0.57,-0.23 -0.2,0.08 -0.3,0.32 -0.16,0.55 0.2,0.34 0.65,0.52 0.82,0.91l-3.05 0c-0.34,0 -0.63,-0 -0.75,-0.27 -0.13,-0.26 -0.06,-3.43 -0.06,-4 -0,-0.95 -0.04,-1.08 0.95,-1.07 0.46,0 3.86,0.04 4.03,-0.02 0.28,-0.1 0.29,-0.46 0.07,-0.63 -0.18,-0.14 -0.67,-0.08 -0.92,-0.08 -0.66,0 -3.58,-0.08 -3.98,0.05 -0.43,0.14 -0.86,0.59 -0.88,1.15 -0.03,1.22 0,2.78 0,4.05 -0,1.81 1.34,1.54 2.52,1.54 0.69,0 1.38,0 2.07,0z"/>
   <path class="fil0" d="M14 29.56c-0.69,0 -1.38,0 -2.08,0 -0.6,0 -1.58,0.12 -1.74,-0.29 -0.11,-0.27 -0.05,-3.44 -0.05,-4.01 -0,-0.96 0,-1.05 0.99,-1.05 0.48,0 3.82,0.04 4.01,-0.04 0.27,-0.11 0.25,-0.5 0.05,-0.64 -0.16,-0.11 -0.73,-0.05 -0.96,-0.05 -0.62,0 -3.69,-0.08 -4.01,0.06 -0.23,0.1 -0.44,0.3 -0.56,0.45 -0.2,0.24 -0.25,0.39 -0.25,0.77l0 4.05c-0,0.4 -0.03,0.54 0.18,0.84 0.16,0.23 0.25,0.36 0.52,0.5 0.58,0.3 3.2,-0 3.91,0.14 -0.49,0.63 -1.21,1.01 -0.96,1.41 0.35,0.55 0.88,-0.23 1.41,-0.74 0.89,-0.85 1.2,-1.04 0.45,-1.65l-0.63 -0.62c-0.33,-0.31 -0.62,-0.79 -0.96,-0.59 -0.19,0.11 -0.26,0.35 -0.12,0.56 0.21,0.32 0.64,0.51 0.81,0.89z"/>
  </g>
  <rect class="fil1" x="-0" width="41.21" height="41.21"/>
 </g>
</svg>
