<?xml version="1.0" encoding="UTF-8"?>
<!DOCTYPE svg PUBLIC "-//W3C//DTD SVG 1.1//EN" "http://www.w3.org/Graphics/SVG/1.1/DTD/svg11.dtd">
<!-- Creator: CorelDRAW 2018 (64-Bit) -->
<svg xmlns="http://www.w3.org/2000/svg" xml:space="preserve" width="33.0478mm" height="33.0478mm" version="1.1" style="shape-rendering:geometricPrecision; text-rendering:geometricPrecision; image-rendering:optimizeQuality; fill-rule:evenodd; clip-rule:evenodd"
viewBox="0 0 4.08 4.08"
 xmlns:xlink="http://www.w3.org/1999/xlink">
 <defs>
  <style type="text/css">
   <![CDATA[
    .fil1 {fill:#59656C}
    .fil0 {fill:#59656C;fill-rule:nonzero}
   ]]>
  </style>
 </defs>
 <g id="Слой_x0020_1">
  <metadata id="CorelCorpID_0Corel-Layer"/>
  <g id="_1758819872">
   <path class="fil0" d="M0.46 0l3.16 0c0.13,0 0.24,0.05 0.32,0.13 0.08,0.08 0.13,0.2 0.13,0.32l0 3.16c0,0.13 -0.05,0.24 -0.13,0.32 -0.08,0.08 -0.2,0.13 -0.32,0.13l-3.16 0c-0.13,0 -0.24,-0.05 -0.32,-0.13 -0.08,-0.08 -0.13,-0.2 -0.13,-0.32l0 -3.16c0,-0.13 0.05,-0.24 0.13,-0.32 0.08,-0.08 0.2,-0.13 0.32,-0.13zm3.16 0.12l-3.16 0c-0.09,0 -0.18,0.04 -0.24,0.1 -0.06,0.06 -0.1,0.14 -0.1,0.24l0 3.16c0,0.09 0.04,0.18 0.1,0.24 0.06,0.06 0.14,0.1 0.24,0.1l3.16 0c0.09,0 0.18,-0.04 0.24,-0.1 0.06,-0.06 0.1,-0.14 0.1,-0.24l0 -3.16c0,-0.09 -0.04,-0.18 -0.1,-0.24 -0.06,-0.06 -0.14,-0.1 -0.24,-0.1z"/>
   <path class="fil1" d="M2.92 1.09l0.63 -0.63c0.03,-0.03 0.07,-0.03 0.1,0l0 0c0.03,0.03 0.03,0.07 0,0.1l-0.63 0.63 0.29 0c0.04,0 0.07,0.03 0.07,0.07l0 0c0,0.04 -0.03,0.07 -0.07,0.07l-0.45 0c-0,0 -0.01,0 -0.01,0l-0 0c-0.02,0 -0.04,-0.01 -0.05,-0.02l-0 -0 -0 -0 0 0c-0.02,-0.02 -0.02,-0.04 -0.02,-0.06l0 -0.45c0,-0.04 0.03,-0.07 0.07,-0.07l0 0c0.04,0 0.07,0.03 0.07,0.07l0 0.29z"/>
   <path class="fil1" d="M2.92 2.99l0.63 0.63c0.03,0.03 0.07,0.03 0.1,0l0 0c0.03,-0.03 0.03,-0.07 0,-0.1l-0.63 -0.63 0.29 0c0.04,0 0.07,-0.03 0.07,-0.07l0 0c0,-0.04 -0.03,-0.07 -0.07,-0.07l-0.45 0c-0,-0 -0.01,-0 -0.01,-0l-0 0c-0.02,0 -0.04,0.01 -0.05,0.02l-0 0 -0 0 0 0c-0.02,0.02 -0.02,0.04 -0.02,0.06l0 0.45c0,0.04 0.03,0.07 0.07,0.07l0 0c0.04,0 0.07,-0.03 0.07,-0.07l0 -0.29z"/>
   <path class="fil1" d="M1.16 1.09l-0.63 -0.63c-0.03,-0.03 -0.07,-0.03 -0.1,0l-0 0c-0.03,0.03 -0.03,0.07 0,0.1l0.63 0.63 -0.29 0c-0.04,0 -0.07,0.03 -0.07,0.07l0 0c0,0.04 0.03,0.07 0.07,0.07l0.45 0c0,0 0.01,0 0.01,0l0 0c0.02,0 0.04,-0.01 0.05,-0.02l0 -0 0 -0 0 0c0.02,-0.02 0.02,-0.04 0.02,-0.06l0 -0.45c0,-0.04 -0.03,-0.07 -0.07,-0.07l-0 0c-0.04,0 -0.07,0.03 -0.07,0.07l0 0.29z"/>
   <path class="fil1" d="M1.16 2.99l-0.63 0.63c-0.03,0.03 -0.07,0.03 -0.1,0l-0 0c-0.03,-0.03 -0.03,-0.07 0,-0.1l0.63 -0.63 -0.29 0c-0.04,0 -0.07,-0.03 -0.07,-0.07l0 0c0,-0.04 0.03,-0.07 0.07,-0.07l0.45 0c0,-0 0.01,-0 0.01,-0l0 0c0.02,0 0.04,0.01 0.05,0.02l0 0 0 0 0 0c0.02,0.02 0.02,0.04 0.02,0.06l0 0.45c0,0.04 -0.03,0.07 -0.07,0.07l-0 0c-0.04,0 -0.07,-0.03 -0.07,-0.07l0 -0.29z"/>
  </g>
 </g>
</svg>
