<?xml version="1.0" encoding="UTF-8"?>
<!DOCTYPE svg PUBLIC "-//W3C//DTD SVG 1.1//EN" "http://www.w3.org/Graphics/SVG/1.1/DTD/svg11.dtd">
<!-- Creator: CorelDRAW 2018 (64-Bit) -->
<svg xmlns="http://www.w3.org/2000/svg" xml:space="preserve" width="60mm" height="60mm" version="1.1" style="shape-rendering:geometricPrecision; text-rendering:geometricPrecision; image-rendering:optimizeQuality; fill-rule:evenodd; clip-rule:evenodd"
viewBox="0 0 13.43 13.43"
 xmlns:xlink="http://www.w3.org/1999/xlink">
 <defs>
  <style type="text/css">
   <![CDATA[
    .str0 {stroke:#59656C;stroke-width:0.22;stroke-miterlimit:22.9256}
    .fil0 {fill:none}
    .fil1 {fill:#59656C}
   ]]>
  </style>
 </defs>
 <g id="Слой_x0020_1">
  <metadata id="CorelCorpID_0Corel-Layer"/>
  <g id="_1838805088">
   <rect class="fil0 str0" x="3.13" y="3.13" width="7.17" height="7.17" rx="0.72" ry="0.72"/>
   <g>
    <path class="fil1" d="M8.31 4.98l1.14 -1.14c0.05,-0.05 0.13,-0.05 0.18,0l0 0c0.05,0.05 0.05,0.13 0,0.18l-1.14 1.14 0.52 0c0.07,0 0.13,0.06 0.13,0.13l0 0c0,0.07 -0.06,0.13 -0.13,0.13l-0.82 0c-0.01,0 -0.01,0 -0.02,0l-0 0c-0.04,0 -0.07,-0.01 -0.09,-0.04l-0 -0 -0 -0 0 0c-0.03,-0.03 -0.04,-0.07 -0.04,-0.11l0 -0.81c0,-0.07 0.06,-0.13 0.13,-0.13l0 0c0.07,0 0.13,0.06 0.13,0.13l0 0.52z"/>
    <path class="fil1" d="M8.31 8.44l1.14 1.14c0.05,0.05 0.13,0.05 0.18,0l0 0c0.05,-0.05 0.05,-0.13 0,-0.18l-1.14 -1.14 0.52 0c0.07,0 0.13,-0.06 0.13,-0.13l0 0c0,-0.07 -0.06,-0.13 -0.13,-0.13l-0.82 0c-0.01,-0 -0.01,-0 -0.02,-0l-0 0c-0.04,0 -0.07,0.01 -0.09,0.04l-0 0 -0 0 0 0c-0.03,0.03 -0.04,0.07 -0.04,0.11l0 0.81c0,0.07 0.06,0.13 0.13,0.13l0 0c0.07,0 0.13,-0.06 0.13,-0.13l0 -0.52z"/>
    <path class="fil1" d="M5.12 4.98l-1.14 -1.14c-0.05,-0.05 -0.13,-0.05 -0.18,0l-0 0c-0.05,0.05 -0.05,0.13 0,0.18l1.14 1.14 -0.52 0c-0.07,0 -0.13,0.06 -0.13,0.13l0 0c0,0.07 0.06,0.13 0.13,0.13l0.82 0c0.01,0 0.01,0 0.02,0l0 0c0.04,0 0.07,-0.01 0.09,-0.04l0 -0 0 -0 0 0c0.03,-0.03 0.04,-0.07 0.04,-0.11l0 -0.81c0,-0.07 -0.06,-0.13 -0.13,-0.13l-0 0c-0.07,0 -0.13,0.06 -0.13,0.13l0 0.52z"/>
    <path class="fil1" d="M5.12 8.44l-1.14 1.14c-0.05,0.05 -0.13,0.05 -0.18,0l-0 0c-0.05,-0.05 -0.05,-0.13 0,-0.18l1.14 -1.14 -0.52 0c-0.07,0 -0.13,-0.06 -0.13,-0.13l0 0c0,-0.07 0.06,-0.13 0.13,-0.13l0.82 0c0.01,-0 0.01,-0 0.02,-0l0 0c0.04,0 0.07,0.01 0.09,0.04l0 0 0 0 0 0c0.03,0.03 0.04,0.07 0.04,0.11l0 0.81c0,0.07 -0.06,0.13 -0.13,0.13l-0 0c-0.07,0 -0.13,-0.06 -0.13,-0.13l0 -0.52z"/>
   </g>
  </g>
  <rect class="fil0" x="-0" width="13.43" height="13.43"/>
 </g>
</svg>
