<?xml version="1.0" encoding="UTF-8"?>
<!DOCTYPE svg PUBLIC "-//W3C//DTD SVG 1.1//EN" "http://www.w3.org/Graphics/SVG/1.1/DTD/svg11.dtd">
<!-- Creator: CorelDRAW 2018 (64-Bit) -->
<svg xmlns="http://www.w3.org/2000/svg" xml:space="preserve" width="37.4209mm" height="37.4209mm" version="1.1" style="shape-rendering:geometricPrecision; text-rendering:geometricPrecision; image-rendering:optimizeQuality; fill-rule:evenodd; clip-rule:evenodd"
viewBox="0 0 9.27 9.27"
 xmlns:xlink="http://www.w3.org/1999/xlink">
 <defs>
  <style type="text/css">
   <![CDATA[
    .fil0 {fill:#59656C}
    .fil1 {fill:#59656C;fill-rule:nonzero}
   ]]>
  </style>
 </defs>
 <g id="Слой_x0020_1">
  <metadata id="CorelCorpID_0Corel-Layer"/>
  <g id="_1773723472">
   <path class="fil0" d="M0.12 0l0 0c0.07,0 0.12,0.05 0.12,0.12l0 8.92 8.92 0c0.07,0 0.12,0.05 0.12,0.12l0 0c0,0.07 -0.05,0.12 -0.12,0.12l-9.04 0 -0 0 0 0 -0 -0c-0,-0 -0.01,-0 -0.01,-0 -0,-0 -0.01,-0 -0.01,-0l-0 -0 -0 -0 -0 -0 -0.01 -0 -0 -0 -0.01 -0 -0 -0c-0,-0 -0.01,-0 -0.01,-0l-0 -0 -0 -0 -0 -0 -0 -0 -0 -0c-0,-0 -0.01,-0 -0.01,-0.01l-0 -0 -0 -0 -0 -0 -0 -0 -0 -0 -0 -0 -0 -0c-0,-0 -0.01,-0.01 -0.01,-0.01l-0 -0c-0,-0 -0,-0.01 -0,-0.01 -0,-0 -0,-0.01 -0,-0.01 -0,-0 -0,-0.01 -0,-0.01 -0,-0 -0,-0.01 -0,-0.01 -0,-0 -0,-0.01 -0,-0.01l0 -0 0 -9.04c0,-0.07 0.05,-0.12 0.12,-0.12z"/>
   <path class="fil1" d="M2.1 0.69c0.35,0 0.67,0.14 0.89,0.37 0.23,0.23 0.37,0.55 0.37,0.89 0,0.35 -0.14,0.67 -0.37,0.89 -0.23,0.23 -0.55,0.37 -0.89,0.37 -0.35,0 -0.67,-0.14 -0.89,-0.37 -0.23,-0.23 -0.37,-0.55 -0.37,-0.89 0,-0.35 0.14,-0.67 0.37,-0.89 0.23,-0.23 0.55,-0.37 0.89,-0.37zm0.72 0.55c-0.18,-0.18 -0.44,-0.3 -0.72,-0.3 -0.28,0 -0.54,0.11 -0.72,0.3 -0.18,0.18 -0.3,0.44 -0.3,0.72 0,0.28 0.11,0.54 0.3,0.72 0.18,0.18 0.44,0.3 0.72,0.3 0.28,0 0.54,-0.11 0.72,-0.3 0.18,-0.18 0.3,-0.44 0.3,-0.72 0,-0.28 -0.11,-0.54 -0.3,-0.72z"/>
   <path class="fil1" d="M4.23 3.32c0.35,0 0.67,0.14 0.89,0.37 0.23,0.23 0.37,0.55 0.37,0.89 0,0.35 -0.14,0.67 -0.37,0.89 -0.23,0.23 -0.55,0.37 -0.89,0.37 -0.35,0 -0.67,-0.14 -0.89,-0.37 -0.23,-0.23 -0.37,-0.55 -0.37,-0.89 0,-0.35 0.14,-0.67 0.37,-0.89 0.23,-0.23 0.55,-0.37 0.89,-0.37zm0.72 0.55c-0.18,-0.18 -0.44,-0.3 -0.72,-0.3 -0.28,0 -0.54,0.11 -0.72,0.3 -0.18,0.18 -0.3,0.44 -0.3,0.72 0,0.28 0.11,0.54 0.3,0.72 0.18,0.18 0.44,0.3 0.72,0.3 0.28,0 0.54,-0.11 0.72,-0.3 0.18,-0.18 0.3,-0.44 0.3,-0.72 0,-0.28 -0.11,-0.54 -0.3,-0.72z"/>
   <path class="fil1" d="M1.9 3.89c0.19,0 0.37,0.08 0.49,0.2 0.13,0.13 0.2,0.3 0.2,0.49 0,0.19 -0.08,0.37 -0.2,0.49 -0.13,0.13 -0.3,0.2 -0.49,0.2 -0.19,0 -0.37,-0.08 -0.49,-0.2 -0.13,-0.13 -0.2,-0.3 -0.2,-0.49 0,-0.19 0.08,-0.37 0.2,-0.49 0.13,-0.13 0.3,-0.2 0.49,-0.2zm0.32 0.38c-0.08,-0.08 -0.19,-0.13 -0.32,-0.13 -0.12,0 -0.24,0.05 -0.32,0.13 -0.08,0.08 -0.13,0.19 -0.13,0.32 0,0.12 0.05,0.24 0.13,0.32 0.08,0.08 0.19,0.13 0.32,0.13 0.12,0 0.24,-0.05 0.32,-0.13 0.08,-0.08 0.13,-0.19 0.13,-0.32 0,-0.12 -0.05,-0.24 -0.13,-0.32z"/>
   <path class="fil1" d="M1.9 6.48c0.19,0 0.37,0.08 0.49,0.2 0.13,0.13 0.2,0.3 0.2,0.49 0,0.19 -0.08,0.37 -0.2,0.49 -0.13,0.13 -0.3,0.2 -0.49,0.2 -0.19,0 -0.37,-0.08 -0.49,-0.2 -0.13,-0.13 -0.2,-0.3 -0.2,-0.49 0,-0.19 0.08,-0.37 0.2,-0.49 0.13,-0.13 0.3,-0.2 0.49,-0.2zm0.32 0.38c-0.08,-0.08 -0.19,-0.13 -0.32,-0.13 -0.12,0 -0.24,0.05 -0.32,0.13 -0.08,0.08 -0.13,0.19 -0.13,0.32 0,0.12 0.05,0.24 0.13,0.32 0.08,0.08 0.19,0.13 0.32,0.13 0.12,0 0.24,-0.05 0.32,-0.13 0.08,-0.08 0.13,-0.19 0.13,-0.32 0,-0.12 -0.05,-0.24 -0.13,-0.32z"/>
   <path class="fil1" d="M6.55 3.89c0.19,0 0.37,0.08 0.49,0.2 0.13,0.13 0.2,0.3 0.2,0.49 0,0.19 -0.08,0.37 -0.2,0.49 -0.13,0.13 -0.3,0.2 -0.49,0.2 -0.19,0 -0.37,-0.08 -0.49,-0.2 -0.13,-0.13 -0.2,-0.3 -0.2,-0.49 0,-0.19 0.08,-0.37 0.2,-0.49 0.13,-0.13 0.3,-0.2 0.49,-0.2zm0.32 0.38c-0.08,-0.08 -0.19,-0.13 -0.32,-0.13 -0.12,0 -0.24,0.05 -0.32,0.13 -0.08,0.08 -0.13,0.19 -0.13,0.32 0,0.12 0.05,0.24 0.13,0.32 0.08,0.08 0.19,0.13 0.32,0.13 0.12,0 0.24,-0.05 0.32,-0.13 0.08,-0.08 0.13,-0.19 0.13,-0.32 0,-0.12 -0.05,-0.24 -0.13,-0.32z"/>
   <path class="fil1" d="M6.38 1.15c0.19,0 0.37,0.08 0.49,0.2 0.13,0.13 0.2,0.3 0.2,0.49 0,0.19 -0.08,0.37 -0.2,0.49 -0.13,0.13 -0.3,0.2 -0.49,0.2 -0.19,0 -0.37,-0.08 -0.49,-0.2 -0.13,-0.13 -0.2,-0.3 -0.2,-0.49 0,-0.19 0.08,-0.37 0.2,-0.49 0.13,-0.13 0.3,-0.2 0.49,-0.2zm0.32 0.38c-0.08,-0.08 -0.19,-0.13 -0.32,-0.13 -0.12,0 -0.24,0.05 -0.32,0.13 -0.08,0.08 -0.13,0.19 -0.13,0.32 0,0.12 0.05,0.24 0.13,0.32 0.08,0.08 0.19,0.13 0.32,0.13 0.12,0 0.24,-0.05 0.32,-0.13 0.08,-0.08 0.13,-0.19 0.13,-0.32 0,-0.12 -0.05,-0.24 -0.13,-0.32z"/>
   <path class="fil1" d="M4.47 1.15c0.19,0 0.37,0.08 0.49,0.2 0.13,0.13 0.2,0.3 0.2,0.49 0,0.19 -0.08,0.37 -0.2,0.49 -0.13,0.13 -0.3,0.2 -0.49,0.2 -0.19,0 -0.37,-0.08 -0.49,-0.2 -0.13,-0.13 -0.2,-0.3 -0.2,-0.49 0,-0.19 0.08,-0.37 0.2,-0.49 0.13,-0.13 0.3,-0.2 0.49,-0.2zm0.32 0.38c-0.08,-0.08 -0.19,-0.13 -0.32,-0.13 -0.12,0 -0.24,0.05 -0.32,0.13 -0.08,0.08 -0.13,0.19 -0.13,0.32 0,0.12 0.05,0.24 0.13,0.32 0.08,0.08 0.19,0.13 0.32,0.13 0.12,0 0.24,-0.05 0.32,-0.13 0.08,-0.08 0.13,-0.19 0.13,-0.32 0,-0.12 -0.05,-0.24 -0.13,-0.32z"/>
   <path class="fil1" d="M6.55 6.48c0.19,0 0.37,0.08 0.49,0.2 0.13,0.13 0.2,0.3 0.2,0.49 0,0.19 -0.08,0.37 -0.2,0.49 -0.13,0.13 -0.3,0.2 -0.49,0.2 -0.19,0 -0.37,-0.08 -0.49,-0.2 -0.13,-0.13 -0.2,-0.3 -0.2,-0.49 0,-0.19 0.08,-0.37 0.2,-0.49 0.13,-0.13 0.3,-0.2 0.49,-0.2zm0.32 0.38c-0.08,-0.08 -0.19,-0.13 -0.32,-0.13 -0.12,0 -0.24,0.05 -0.32,0.13 -0.08,0.08 -0.13,0.19 -0.13,0.32 0,0.12 0.05,0.24 0.13,0.32 0.08,0.08 0.19,0.13 0.32,0.13 0.12,0 0.24,-0.05 0.32,-0.13 0.08,-0.08 0.13,-0.19 0.13,-0.32 0,-0.12 -0.05,-0.24 -0.13,-0.32z"/>
   <path class="fil1" d="M8.3 3.89c0.19,0 0.37,0.08 0.49,0.2 0.13,0.13 0.2,0.3 0.2,0.49 0,0.19 -0.08,0.37 -0.2,0.49 -0.13,0.13 -0.3,0.2 -0.49,0.2 -0.19,0 -0.37,-0.08 -0.49,-0.2 -0.13,-0.13 -0.2,-0.3 -0.2,-0.49 0,-0.19 0.08,-0.37 0.2,-0.49 0.13,-0.13 0.3,-0.2 0.49,-0.2zm0.32 0.38c-0.08,-0.08 -0.19,-0.13 -0.32,-0.13 -0.12,0 -0.24,0.05 -0.32,0.13 -0.08,0.08 -0.13,0.19 -0.13,0.32 0,0.12 0.05,0.24 0.13,0.32 0.08,0.08 0.19,0.13 0.32,0.13 0.12,0 0.24,-0.05 0.32,-0.13 0.08,-0.08 0.13,-0.19 0.13,-0.32 0,-0.12 -0.05,-0.24 -0.13,-0.32z"/>
   <path class="fil1" d="M8.3 1.15c0.19,0 0.37,0.08 0.49,0.2 0.13,0.13 0.2,0.3 0.2,0.49 0,0.19 -0.08,0.37 -0.2,0.49 -0.13,0.13 -0.3,0.2 -0.49,0.2 -0.19,0 -0.37,-0.08 -0.49,-0.2 -0.13,-0.13 -0.2,-0.3 -0.2,-0.49 0,-0.19 0.08,-0.37 0.2,-0.49 0.13,-0.13 0.3,-0.2 0.49,-0.2zm0.32 0.38c-0.08,-0.08 -0.19,-0.13 -0.32,-0.13 -0.12,0 -0.24,0.05 -0.32,0.13 -0.08,0.08 -0.13,0.19 -0.13,0.32 0,0.12 0.05,0.24 0.13,0.32 0.08,0.08 0.19,0.13 0.32,0.13 0.12,0 0.24,-0.05 0.32,-0.13 0.08,-0.08 0.13,-0.19 0.13,-0.32 0,-0.12 -0.05,-0.24 -0.13,-0.32z"/>
   <path class="fil1" d="M8.3 6.48c0.19,0 0.37,0.08 0.49,0.2 0.13,0.13 0.2,0.3 0.2,0.49 0,0.19 -0.08,0.37 -0.2,0.49 -0.13,0.13 -0.3,0.2 -0.49,0.2 -0.19,0 -0.37,-0.08 -0.49,-0.2 -0.13,-0.13 -0.2,-0.3 -0.2,-0.49 0,-0.19 0.08,-0.37 0.2,-0.49 0.13,-0.13 0.3,-0.2 0.49,-0.2zm0.32 0.38c-0.08,-0.08 -0.19,-0.13 -0.32,-0.13 -0.12,0 -0.24,0.05 -0.32,0.13 -0.08,0.08 -0.13,0.19 -0.13,0.32 0,0.12 0.05,0.24 0.13,0.32 0.08,0.08 0.19,0.13 0.32,0.13 0.12,0 0.24,-0.05 0.32,-0.13 0.08,-0.08 0.13,-0.19 0.13,-0.32 0,-0.12 -0.05,-0.24 -0.13,-0.32z"/>
  </g>
 </g>
</svg>
