<?xml version="1.0" encoding="UTF-8"?>
<!DOCTYPE svg PUBLIC "-//W3C//DTD SVG 1.1//EN" "http://www.w3.org/Graphics/SVG/1.1/DTD/svg11.dtd">
<!-- Creator: CorelDRAW 2018 (64-Bit) -->
<svg xmlns="http://www.w3.org/2000/svg" xml:space="preserve" width="60mm" height="60mm" version="1.1" style="shape-rendering:geometricPrecision; text-rendering:geometricPrecision; image-rendering:optimizeQuality; fill-rule:evenodd; clip-rule:evenodd"
viewBox="0 0 14.33 14.33"
 xmlns:xlink="http://www.w3.org/1999/xlink">
 <defs>
  <style type="text/css">
   <![CDATA[
    .str0 {stroke:#59656C;stroke-width:0.24;stroke-miterlimit:22.9256}
    .fil0 {fill:none}
   ]]>
  </style>
 </defs>
 <g id="Слой_x0020_1">
  <metadata id="CorelCorpID_0Corel-Layer"/>
  <path class="fil0 str0" d="M6.73 3.69l-0.73 2.84 -2.17 -1.43c-0.21,-0.07 -0.65,-0.46 -0.58,0.12l1.33 3.47c-0.15,0.12 -1.2,0.39 -1.49,0.5 -0.51,0.09 -1.2,0.31 -0.41,0.66l2.89 1.29c0.33,0 0.62,-0.54 0.72,-0.82l-1.03 -0.53 1.21 -0.16 -0.7 -1.59 1.15 0.96 0.19 -1.91 0.4 1.98 1.44 -1.06 -0.95 1.75 1.4 0.07 -1.28 0.63c0.15,0.26 0.44,0.67 0.75,0.67l2.82 -1.25c0.5,-0.22 0.42,-0.36 -0.06,-0.57l-1.49 -0.68 1.52 -3.2c0.38,-0.8 -0.14,-0.54 -0.59,-0.27l-2.79 1.64 -0.99 -3.17c-0.21,-0.69 -0.42,-0.52 -0.56,0.05z"/>
  <rect class="fil0" x="-0" width="14.33" height="14.33"/>
 </g>
</svg>
