<?xml version="1.0" encoding="UTF-8"?>
<!DOCTYPE svg PUBLIC "-//W3C//DTD SVG 1.1//EN" "http://www.w3.org/Graphics/SVG/1.1/DTD/svg11.dtd">
<!-- Creator: CorelDRAW 2018 (64-Bit) -->
<svg xmlns="http://www.w3.org/2000/svg" xml:space="preserve" width="60mm" height="60mm" version="1.1" style="shape-rendering:geometricPrecision; text-rendering:geometricPrecision; image-rendering:optimizeQuality; fill-rule:evenodd; clip-rule:evenodd"
viewBox="0 0 21.77 21.77"
 xmlns:xlink="http://www.w3.org/1999/xlink">
 <defs>
  <style type="text/css">
   <![CDATA[
    .str0 {stroke:#59656C;stroke-width:0.36;stroke-miterlimit:22.9256}
    .fil2 {fill:none}
    .fil1 {fill:#59656C}
    .fil0 {fill:white}
   ]]>
  </style>
 </defs>
 <g id="Слой_x0020_1">
  <metadata id="CorelCorpID_0Corel-Layer"/>
  <g id="_1838756288">
   <path class="fil0 str0" d="M6.1 7.88c-0.14,-0.25 -0.25,-0.37 -0.62,-0.36 -0.25,0.01 -0.6,0.04 -0.77,0.19 -0.17,0.15 -0.2,0.49 -0.02,0.67 0.09,0.09 0.49,0.26 0.66,0.3 -0.06,0.09 -0.08,0.07 -0.18,0.17 -0.79,0.84 -0.79,1.63 -0.51,2.81 0.09,0.4 0.25,0.65 0.25,1.07 -0.01,0.97 -0.13,1.56 1.08,1.56 0.36,-0 0.95,0.07 1.23,-0.12 0.43,-0.3 0.32,-0.72 0.37,-0.94 0.43,-0.03 1.17,0.03 1.63,0.04l3.34 0c0.46,-0.02 1.2,-0.07 1.63,-0.05 0.06,0.24 -0.05,0.66 0.39,0.95 0.28,0.18 1.61,0.15 1.85,0.04 0.57,-0.25 0.45,-0.96 0.45,-1.49 -0,-0.44 0.16,-0.67 0.25,-1.09 0.52,-2.27 -0.46,-2.6 -0.69,-2.96 0.18,-0.04 0.58,-0.21 0.67,-0.32 0.17,-0.19 0.15,-0.52 -0.06,-0.67 -0.15,-0.11 -0.56,-0.17 -0.78,-0.17 -0.35,0 -0.46,0.13 -0.59,0.36 -0.19,-0.31 -0.39,-0.88 -0.56,-1.26 -0.18,-0.4 -0.52,-0.8 -0.88,-0.97 -1,-0.46 -5.87,-0.45 -6.72,0 -0.96,0.51 -0.95,1.41 -1.44,2.22zm10.01 2.87c0.08,-0.29 0.02,-0.57 -0.15,-0.74 -0.35,-0.36 -1.99,0.29 -2.12,0.45 -0.15,0.19 -0.07,0.58 0.07,0.72 0.18,0.19 0.53,0.13 0.84,0.13 0.68,-0 1.18,0.11 1.36,-0.56zm-10.44 -0.07c0.19,0.71 0.56,0.63 1.28,0.63 0.27,0 0.69,0.06 0.88,-0.09 0.16,-0.12 0.29,-0.45 0.16,-0.7 -0.14,-0.28 -1.78,-0.8 -2.1,-0.56 -0.17,0.13 -0.29,0.42 -0.21,0.72zm1.19 -2.26c0.73,-0.02 1.47,-0.09 2.22,-0.11 1.27,-0.04 2.39,-0 3.65,0.01 0.74,0.01 1.48,0.08 2.21,0.1 -0.23,-0.82 -0.54,-1.59 -1.29,-2.01 -0.72,-0.4 -4.73,-0.4 -5.5,-0 -0.75,0.39 -1.05,1.22 -1.29,2.01z"/>
   <g>
    <circle class="fil0 str0" cx="11.75" cy="12.64" r="3.46"/>
    <path class="fil1" d="M17.01 17.63l-2.68 -2.68c-0.08,0.09 -0.17,0.17 -0.26,0.26l2.69 2.69c0.04,0.04 0.14,0.02 0.21,-0.05l0 0c0.07,-0.07 0.09,-0.16 0.05,-0.21z"/>
   </g>
  </g>
  <rect class="fil2" x="-0" width="21.77" height="21.77"/>
 </g>
</svg>
