<?xml version="1.0" encoding="UTF-8"?>
<!DOCTYPE svg PUBLIC "-//W3C//DTD SVG 1.1//EN" "http://www.w3.org/Graphics/SVG/1.1/DTD/svg11.dtd">
<!-- Creator: CorelDRAW 2018 (64-Bit) -->
<svg xmlns="http://www.w3.org/2000/svg" xml:space="preserve" width="60mm" height="60mm" version="1.1" style="shape-rendering:geometricPrecision; text-rendering:geometricPrecision; image-rendering:optimizeQuality; fill-rule:evenodd; clip-rule:evenodd"
viewBox="0 0 20.03 20.03"
 xmlns:xlink="http://www.w3.org/1999/xlink">
 <defs>
  <style type="text/css">
   <![CDATA[
    .str0 {stroke:#59656C;stroke-width:0.33;stroke-miterlimit:22.9256}
    .fil0 {fill:none}
    .fil1 {fill:#59656C}
   ]]>
  </style>
 </defs>
 <g id="Слой_x0020_1">
  <metadata id="CorelCorpID_0Corel-Layer"/>
  <g id="_4802859200">
   <g>
    <circle class="fil0 str0" cx="6.45" cy="6.64" r="0.91"/>
    <path class="fil0 str0" d="M10.27 9.01l5.08 4.91c0.44,0.5 0.47,1.11 0.42,1.71l-2.65 -0.14 -0.31 -0.96 -0.79 -0.13 -0.39 -1.14 -0.88 -0.08 -0.27 -1.02 -0.83 -0.01 -1.3 -1.53c-0.29,0.09 -0.6,0.14 -0.93,0.14 -1.76,0 -3.18,-1.42 -3.18,-3.18 0,-1.76 1.42,-3.18 3.18,-3.18 1.76,0 3.18,1.42 3.18,3.18 0,0.52 -0.12,1.01 -0.34,1.44l0 0z"/>
   </g>
   <rect class="fil1" transform="matrix(0.632012 0.632931 -0.502247 0.501517 9.56505 9.61672)" width="8.08" height="0.42" rx="0.21" ry="0.21"/>
  </g>
  <rect class="fil0" x="-0" width="20.03" height="20.03"/>
 </g>
</svg>
