<?xml version="1.0" encoding="UTF-8"?>
<!DOCTYPE svg PUBLIC "-//W3C//DTD SVG 1.1//EN" "http://www.w3.org/Graphics/SVG/1.1/DTD/svg11.dtd">
<!-- Creator: CorelDRAW 2018 (64-Bit) -->
<svg xmlns="http://www.w3.org/2000/svg" xml:space="preserve" width="60mm" height="60mm" version="1.1" style="shape-rendering:geometricPrecision; text-rendering:geometricPrecision; image-rendering:optimizeQuality; fill-rule:evenodd; clip-rule:evenodd"
viewBox="0 0 15.17 15.17"
 xmlns:xlink="http://www.w3.org/1999/xlink">
 <defs>
  <style type="text/css">
   <![CDATA[
    .str0 {stroke:#59656C;stroke-width:0.25;stroke-miterlimit:22.9256}
    .fil0 {fill:none}
    .fil1 {fill:#59656C}
   ]]>
  </style>
 </defs>
 <g id="Слой_x0020_1">
  <metadata id="CorelCorpID_0Corel-Layer"/>
  <g id="_4698891248">
   <path class="fil0 str0" d="M3.31 4.73l8.54 0c0.38,0 0.69,0.31 0.69,0.69l0 5.52c0,0.38 -0.31,0.69 -0.69,0.69l-8.54 0c-0.38,0 -0.69,-0.31 -0.69,-0.69l0 -5.52c0,-0.38 0.31,-0.69 0.69,-0.69z"/>
   <g>
    <path class="fil1" d="M8.18 6.79l3.42 0c0.06,0 0.11,0.06 0.11,0.13l0 0c0,0.07 -0.05,0.13 -0.11,0.13l-3.42 0c-0.06,0 -0.11,-0.06 -0.11,-0.13l0 0c0,-0.07 0.05,-0.13 0.11,-0.13z"/>
    <path class="fil1" d="M8.18 8.05l3.42 0c0.06,0 0.11,0.06 0.11,0.13l0 0c0,0.07 -0.05,0.13 -0.11,0.13l-3.42 0c-0.06,0 -0.11,-0.06 -0.11,-0.13l0 0c0,-0.07 0.05,-0.13 0.11,-0.13z"/>
    <path class="fil1" d="M8.18 9.3l3.42 0c0.06,0 0.11,0.06 0.11,0.13l0 0c0,0.07 -0.05,0.13 -0.11,0.13l-3.42 0c-0.06,0 -0.11,-0.06 -0.11,-0.13l0 0c0,-0.07 0.05,-0.13 0.11,-0.13z"/>
   </g>
   <g>
    <path class="fil0 str0" d="M7.21 9.93c0,-0.96 0.1,-0.89 -0.87,-1.29 -0.1,-0.04 -0.33,-0.19 -0.43,-0.12 -0.2,0.14 -0.36,0.26 -0.69,0.07 -0.19,-0.11 -0.05,-0.18 -0.63,0.09 -0.75,0.35 -0.77,0.21 -0.77,1.08 -0,0.05 -0,0.11 -0,0.16 0,0.14 0.04,0.11 0.37,0.11l2.79 0c0.1,0 0.23,0.03 0.23,-0.09z"/>
    <ellipse class="fil0 str0" cx="5.51" cy="7.3" rx="0.83" ry="0.96"/>
   </g>
   <path class="fil0 str0" d="M7.58 3.53c0.58,0 1.04,0.53 1.04,1.19l-2.09 0c0,-0.66 0.47,-1.19 1.04,-1.19z"/>
  </g>
  <rect class="fil0" x="-0" width="15.17" height="15.17"/>
 </g>
</svg>
