<?xml version="1.0" encoding="UTF-8"?>
<!DOCTYPE svg PUBLIC "-//W3C//DTD SVG 1.1//EN" "http://www.w3.org/Graphics/SVG/1.1/DTD/svg11.dtd">
<!-- Creator: CorelDRAW 2018 (64-Bit) -->
<svg xmlns="http://www.w3.org/2000/svg" xml:space="preserve" width="60mm" height="60mm" version="1.1" style="shape-rendering:geometricPrecision; text-rendering:geometricPrecision; image-rendering:optimizeQuality; fill-rule:evenodd; clip-rule:evenodd"
viewBox="0 0 18.8 18.8"
 xmlns:xlink="http://www.w3.org/1999/xlink">
 <defs>
  <style type="text/css">
   <![CDATA[
    .fil2 {fill:none}
    .fil1 {fill:#59656C}
    .fil0 {fill:#FEFEFE}
   ]]>
  </style>
 </defs>
 <g id="Слой_x0020_1">
  <metadata id="CorelCorpID_0Corel-Layer"/>
  <g id="_4685382304">
   <path class="fil0" d="M9.08 6.5c0.45,-0.05 0.9,-0 1.29,0.14 0.5,0.18 0.76,0.39 1.11,0.72 0.06,0.05 0.13,0.12 0.18,0.19 0.11,0.13 0.2,0.28 0.29,0.44 0.43,0.75 0.47,1.55 0.2,2.37 -0.13,0.4 -0.27,0.63 -0.53,0.94 -0.48,0.57 -1.14,0.93 -1.91,1.02 -0.98,0.12 -1.87,-0.31 -2.4,-0.85 -0.19,-0.2 -0.34,-0.37 -0.47,-0.62 -0.17,-0.33 -0.3,-0.68 -0.36,-1.11 -0.12,-0.96 0.31,-1.87 0.85,-2.39 0.5,-0.49 0.98,-0.75 1.74,-0.83zm0.04 -1.28c-1.99,0.08 -3.79,0.97 -5.12,2.08 -0.39,0.33 -0.78,0.66 -1.12,1.04l-0.18 0.19c-0.05,0.06 -0.12,0.14 -0.17,0.2 -0.13,0.15 -0.38,0.44 -0.47,0.62 -0.07,0.15 0.27,0.5 0.39,0.65 0.05,0.06 0.11,0.14 0.16,0.19 0.04,0.04 0.05,0.06 0.08,0.09 0.13,0.16 0.65,0.68 0.82,0.81 0.04,0.03 0.05,0.05 0.09,0.08 0.03,0.03 0.06,0.05 0.1,0.08l0.61 0.49c1.45,1.11 3.3,1.91 5.38,1.83 1.66,-0.06 3.21,-0.72 4.29,-1.47 0.14,-0.1 0.28,-0.19 0.42,-0.3 0.39,-0.29 0.81,-0.66 1.17,-0.99 0.13,-0.12 0.24,-0.23 0.36,-0.36l0.5 -0.58c0.06,-0.07 0.11,-0.12 0.17,-0.2 0.2,-0.26 0.18,-0.3 0.06,-0.48 -0.09,-0.14 -0.21,-0.28 -0.32,-0.4 -0.36,-0.4 -0.35,-0.42 -0.77,-0.83l-0.19 -0.18c-0.24,-0.23 -0.63,-0.54 -0.89,-0.75 -1.4,-1.1 -3.35,-1.92 -5.37,-1.83z"/>
   <path class="fil0" d="M6.8 9.57c0.09,1.38 1.28,2.52 2.78,2.42 1.37,-0.09 2.53,-1.3 2.41,-2.79 -0.1,-1.35 -1.28,-2.53 -2.77,-2.41 -1.39,0.11 -2.53,1.25 -2.43,2.77z"/>
   <path class="fil1" d="M9.11 5.22c2.02,-0.08 3.97,0.73 5.37,1.83 0.26,0.2 0.66,0.52 0.89,0.75l0.19 0.18c0.43,0.41 0.41,0.44 0.77,0.83 0.11,0.12 0.23,0.26 0.32,0.4 0.12,0.18 0.13,0.22 -0.06,0.48 -0.06,0.08 -0.1,0.13 -0.17,0.2l-0.5 0.58c-0.12,0.13 -0.23,0.24 -0.36,0.36 -0.36,0.33 -0.78,0.71 -1.17,0.99 -0.14,0.1 -0.28,0.2 -0.42,0.3 -1.09,0.75 -2.63,1.4 -4.29,1.47 -2.08,0.08 -3.93,-0.73 -5.38,-1.83l-0.61 -0.49c-0.03,-0.03 -0.06,-0.05 -0.1,-0.08 -0.04,-0.04 -0.05,-0.05 -0.09,-0.08 -0.18,-0.14 -0.69,-0.66 -0.82,-0.81 -0.03,-0.04 -0.04,-0.06 -0.08,-0.09 -0.05,-0.05 -0.11,-0.13 -0.16,-0.19 -0.12,-0.15 -0.47,-0.49 -0.39,-0.65 0.09,-0.18 0.33,-0.47 0.47,-0.62 0.05,-0.06 0.12,-0.13 0.17,-0.2l0.18 -0.19c0.34,-0.38 0.73,-0.71 1.12,-1.04 1.33,-1.11 3.13,-2 5.12,-2.08zm7.94 4.29c0.06,-0.22 -0.09,-0.42 -0.18,-0.56 -0.1,-0.15 -0.31,-0.41 -0.42,-0.53l-0.27 -0.3c-0.5,-0.56 -1.41,-1.31 -2.07,-1.74 -1.24,-0.8 -2.73,-1.47 -4.59,-1.5 -2.25,-0.04 -4.03,0.88 -5.58,2.04 -0.27,0.2 -0.41,0.35 -0.62,0.52 -0.22,0.18 -0.44,0.44 -0.57,0.56 -0.11,0.1 -0.53,0.58 -0.63,0.71 -0.03,0.04 -0.06,0.06 -0.09,0.1 -0.45,0.55 -0.33,0.77 0.06,1.25l0.54 0.61c0.07,0.07 0.11,0.13 0.18,0.2 0.21,0.23 0.77,0.71 1.01,0.9 1.49,1.18 3.26,2.1 5.46,2.14 0.93,0.02 1.82,-0.15 2.63,-0.42 0.64,-0.21 1.5,-0.62 2.05,-0.99 0.45,-0.3 0.92,-0.62 1.32,-0.97 0.08,-0.07 0.13,-0.12 0.2,-0.18 0.12,-0.1 0.81,-0.81 0.93,-0.96 0.18,-0.22 0.55,-0.53 0.64,-0.88z"/>
   <path class="fil1" d="M6.8 9.57c-0.1,-1.52 1.04,-2.66 2.43,-2.77 1.49,-0.12 2.66,1.05 2.77,2.41 0.11,1.49 -1.05,2.7 -2.41,2.79 -1.5,0.1 -2.69,-1.04 -2.78,-2.42zm2.28 -3.08c-0.76,0.08 -1.24,0.34 -1.74,0.83 -0.54,0.52 -0.97,1.44 -0.85,2.39 0.05,0.43 0.18,0.77 0.36,1.11 0.13,0.25 0.29,0.43 0.47,0.62 0.53,0.55 1.43,0.97 2.4,0.85 0.77,-0.09 1.43,-0.45 1.91,-1.02 0.25,-0.3 0.4,-0.54 0.53,-0.94 0.27,-0.82 0.23,-1.62 -0.2,-2.37 -0.09,-0.16 -0.18,-0.31 -0.29,-0.44 -0.05,-0.06 -0.12,-0.14 -0.18,-0.19 -0.35,-0.33 -0.61,-0.54 -1.11,-0.72 -0.4,-0.14 -0.85,-0.19 -1.29,-0.14z"/>
  </g>
  <rect class="fil2" x="-0" width="18.8" height="18.8"/>
 </g>
</svg>
