<?xml version="1.0" encoding="UTF-8"?>
<!DOCTYPE svg PUBLIC "-//W3C//DTD SVG 1.1//EN" "http://www.w3.org/Graphics/SVG/1.1/DTD/svg11.dtd">
<!-- Creator: CorelDRAW 2018 (64-Bit) -->
<svg xmlns="http://www.w3.org/2000/svg" xml:space="preserve" width="60.0632mm" height="47mm" version="1.1" style="shape-rendering:geometricPrecision; text-rendering:geometricPrecision; image-rendering:optimizeQuality; fill-rule:evenodd; clip-rule:evenodd"
viewBox="0 0 62.78 49.12"
 xmlns:xlink="http://www.w3.org/1999/xlink">
 <defs>
  <style type="text/css">
   <![CDATA[
    .str0 {stroke:#59656C;stroke-width:1.05;stroke-miterlimit:22.9256}
    .fil1 {fill:none}
    .fil0 {fill:#55ADAD}
   ]]>
  </style>
 </defs>
 <g id="Слой_x0020_1">
  <metadata id="CorelCorpID_0Corel-Layer"/>
  <g id="_1637948992">
   <path class="fil0" d="M44.24 40.86l3.68 0 0 -3.68c0,-0.2 0.17,-0.37 0.37,-0.37l0 0c0.2,0 0.37,0.17 0.37,0.37l0 4.05 0 0 -0 0.01 -0 0.01 -0 0.01 -0 0.01 -0 0.01 -0 0.01 -0 0.01 -0 0.01 -0 0.01c-0,0.01 -0,0.01 -0,0.02l-0 0.01c-0,0.01 -0.01,0.02 -0.01,0.03l-0 0.01c-0,0.01 -0,0.01 -0.01,0.02 -0.01,0.01 -0.01,0.02 -0.02,0.03 -0.06,0.09 -0.16,0.16 -0.27,0.18l-0.01 0c-0.01,0 -0.01,0 -0.02,0l-0.01 0 -0.01 0 -4.05 0c-0.2,0 -0.37,-0.17 -0.37,-0.37l0 0c0,-0.2 0.17,-0.37 0.37,-0.37z"/>
   <path class="fil0" d="M44.24 8.26l3.68 0 0 3.68c0,0.2 0.17,0.37 0.37,0.37l0 0c0.2,0 0.37,-0.17 0.37,-0.37l0 -4.05 0 0 -0 -0.01 -0 -0.01 -0 -0.01 -0 -0.01 -0 -0.01 -0 -0.01 -0 -0.01 -0 -0.01 -0 -0.01c-0,-0.01 -0,-0.01 -0,-0.02l-0 -0.01c-0,-0.01 -0.01,-0.02 -0.01,-0.03l-0 -0.01c-0,-0.01 -0,-0.01 -0.01,-0.02 -0.01,-0.01 -0.01,-0.02 -0.02,-0.03 -0.06,-0.09 -0.16,-0.16 -0.27,-0.18l-0.01 -0c-0.01,-0 -0.01,-0 -0.02,-0l-0.01 -0 -0.01 -0 -4.05 0c-0.2,0 -0.37,0.17 -0.37,0.37l0 0c0,0.2 0.17,0.37 0.37,0.37z"/>
   <path class="fil0" d="M18.53 40.86l-3.68 0 0 -3.68c0,-0.2 -0.17,-0.37 -0.37,-0.37l0 0c-0.2,0 -0.37,0.17 -0.37,0.37l0 4.05 0 0 0 0.01 0 0.01 0 0.01 0 0.01 0 0.01 0 0.01 0 0.01 0 0.01 0 0.01c0,0.01 0,0.01 0,0.02l0 0.01c0,0.01 0.01,0.02 0.01,0.03l0 0.01c0,0.01 0,0.01 0.01,0.02 0.01,0.01 0.01,0.02 0.02,0.03 0.06,0.09 0.16,0.16 0.27,0.18l0.01 0c0.01,0 0.01,0 0.02,0l0.01 0 0.01 0 4.05 0c0.2,0 0.37,-0.17 0.37,-0.37l0 0c0,-0.2 -0.17,-0.37 -0.37,-0.37z"/>
   <path class="fil0" d="M18.53 8.26l-3.68 0 0 3.68c0,0.2 -0.17,0.37 -0.37,0.37l0 0c-0.2,0 -0.37,-0.17 -0.37,-0.37l0 -4.05 0 0 0 -0.01 0 -0.01 0 -0.01 0 -0.01 0 -0.01 0 -0.01 0 -0.01 0 -0.01 0 -0.01c0,-0.01 0,-0.01 0,-0.02l0 -0.01c0,-0.01 0.01,-0.02 0.01,-0.03l0 -0.01c0,-0.01 0,-0.01 0.01,-0.02 0.01,-0.01 0.01,-0.02 0.02,-0.03 0.06,-0.09 0.16,-0.16 0.27,-0.18l0.01 -0c0.01,-0 0.01,-0 0.02,-0l0.01 -0 0.01 -0 4.05 0c0.2,0 0.37,0.17 0.37,0.37l0 0c0,0.2 -0.17,0.37 -0.37,0.37z"/>
   <path class="fil1 str0" d="M30.74 12.75c0,0.23 0.03,0.85 0.16,1 0.1,0.11 0.34,0.08 0.45,-0 0.1,-0.08 0.2,-0.21 0.26,-0.31 0.08,0.15 0.14,0.79 0.54,1.02 -0.02,0.8 -0.21,1.6 -0.21,2.44 -2.31,-0.12 -4.9,0.33 -7.68,1.28 -0.46,0.16 -0.41,0.26 -0.84,0.03 -2.35,-1.76 -2.41,-4.9 -2.79,-5.01 -0.56,0.44 -0.58,3.52 -0.28,4.18 0.71,1.52 2.07,1.76 2.19,1.96 -0.02,0.08 -0.52,0.56 -0.63,0.69 -1.92,2.27 -2.75,6.39 -3.32,9.24 -0.32,1.58 -0.78,2.29 -1.49,3.73 -0.39,0.41 -1.83,1.23 -1.2,1.99 0.26,0.31 0.92,0.3 1.32,0.1 0.86,-0.43 1.53,-1.04 1.84,-1.86 0.33,-0.89 1.33,-2.54 1.83,-3.39 1.08,-1.82 1.15,-3.36 3.87,-4.5 0.78,-0.32 1.81,0.52 2.18,1.12 0.53,0.84 -2.15,2.61 -2.18,3.09 -0.03,0.43 0.95,3.36 1.27,3.94 0.21,0.38 3.11,0.79 3.22,0.14 0.09,-0.53 -1.14,-1.09 -1.53,-1.27 -0.51,-0.23 -1,-1.64 -0.57,-2.06 0.32,-0.32 2.03,-1.32 2.32,-1.68 0.08,-0.1 0.2,-0.24 0.29,-0.32 0.05,0.02 0.36,0.13 0.41,0.15 0.05,0.32 0.06,0.72 0.1,1.06 0.13,0.95 0.35,1.92 0.59,2.83 0.64,2.39 0.39,4.91 0.35,7.35 -0.01,0.74 0.68,1.32 1.46,1.32 0.6,0 1.16,-0.28 1.36,-0.65 0.36,-0.68 -0.33,-1.1 -0.44,-1.28 -0.07,-0.12 -0.27,-1.36 -0.31,-1.61 -0.22,-1.47 -0.23,-3.34 -0.1,-4.81 0.03,-0.37 0.82,-3.42 1.03,-3.91 1.62,-0.24 2.08,-0.09 3.88,-0.62 0.12,0.23 0.19,1.3 0.19,1.62 0,1.34 -0.16,2.7 -0.41,4 -0.23,1.17 -0.63,2.19 -0.32,3.44 0.14,0.54 0.48,0.8 1.03,0.97 0.64,0.19 1.09,0.01 1.5,-0.31 0.77,-0.59 0.15,-1.14 -0.41,-1.84 -0.18,-0.23 -0.25,-0.36 -0.25,-0.76 0,-1.26 0.4,-2.54 0.78,-3.63 0.39,-1.13 1.08,-1.91 1.08,-3.14 0,-0.8 1.33,-2.31 1.33,-4.14 0,-2.2 -1.28,-4.69 -1.33,-6.19 -0.01,-0.39 0.91,-1.6 0.91,-3.54 0,-0.29 0.01,-0.2 0.16,-0.36 0.29,-0.3 0.39,-0.81 0.52,-1.01 0.1,0.2 0.23,0.51 0.44,0.53 0.55,-0.59 -0.06,-2.23 -0.3,-2.72 -0.63,-1.3 -1.05,-0.74 -1.77,-1.17 -1.53,-0.91 -2.57,-0.67 -4.18,-0.87 -1.08,-0.13 -2.4,-0.11 -3.3,0.49 -0.29,0.19 -1.2,0.32 -1.68,0.47 -1.43,0.45 -1.35,1.42 -1.35,2.75z"/>
  </g>
  <rect class="fil1" width="62.78" height="49.12"/>
 </g>
</svg>
