<?xml version="1.0" encoding="UTF-8"?>
<!DOCTYPE svg PUBLIC "-//W3C//DTD SVG 1.1//EN" "http://www.w3.org/Graphics/SVG/1.1/DTD/svg11.dtd">
<!-- Creator: CorelDRAW 2018 (64-Bit) -->
<svg xmlns="http://www.w3.org/2000/svg" xml:space="preserve" width="60mm" height="60mm" version="1.1" style="shape-rendering:geometricPrecision; text-rendering:geometricPrecision; image-rendering:optimizeQuality; fill-rule:evenodd; clip-rule:evenodd"
viewBox="0 0 16.36 16.36"
 xmlns:xlink="http://www.w3.org/1999/xlink">
 <defs>
  <style type="text/css">
   <![CDATA[
    .str0 {stroke:#59656C;stroke-width:0.27;stroke-miterlimit:22.9256}
    .fil0 {fill:none}
    .fil1 {fill:#59656C;fill-rule:nonzero}
   ]]>
  </style>
 </defs>
 <g id="Слой_x0020_1">
  <metadata id="CorelCorpID_0Corel-Layer"/>
  <g id="_4685443072">
   <circle class="fil0 str0" cx="8.18" cy="5.97" r="3.22"/>
   <g>
    <path class="fil0 str0" d="M5.33 7.47c-0.65,1.48 -1.3,2.96 -1.95,4.44 -0.23,0.53 -0.31,0.49 0.24,0.36l1.46 -0.33c0.19,0.41 0.38,0.82 0.56,1.23 0.26,0.56 0.18,0.57 0.41,0l1.67 -4.02"/>
    <path class="fil0 str0" d="M11.04 7.47c0.65,1.48 1.3,2.96 1.95,4.44 0.23,0.53 0.31,0.49 -0.24,0.36l-1.46 -0.33c-0.19,0.41 -0.38,0.82 -0.56,1.23 -0.26,0.56 -0.18,0.57 -0.41,0l-1.67 -4.02"/>
   </g>
  </g>
  <path class="fil1" d="M7.28 6.93l0.62 -1.83 -0.44 0 -0.23 0.78c-0.06,0.21 -0.12,0.43 -0.17,0.65l-0.01 0c-0.04,-0.23 -0.1,-0.44 -0.16,-0.66l-0.22 -0.77 -0.45 0 0.59 1.83 0.48 0zm0.81 -1.83l0 1.83 0.42 0 0 -1.83 -0.42 0zm0.77 1.83l0.41 0 0 -0.66c0.04,0.01 0.09,0.01 0.14,0.01 0.24,0 0.45,-0.06 0.6,-0.19 0.11,-0.1 0.17,-0.26 0.17,-0.43 0,-0.18 -0.08,-0.33 -0.2,-0.42 -0.12,-0.1 -0.3,-0.15 -0.56,-0.15 -0.25,0 -0.43,0.02 -0.56,0.04l0 1.81zm0.41 -1.52c0.03,-0.01 0.09,-0.02 0.17,-0.02 0.21,0 0.32,0.1 0.32,0.27 0,0.19 -0.14,0.3 -0.36,0.3 -0.06,0 -0.1,-0 -0.14,-0.01l0 -0.54z"/>
  <rect class="fil0" x="-0" width="16.36" height="16.36"/>
 </g>
</svg>
