<?xml version="1.0" encoding="UTF-8"?>
<!DOCTYPE svg PUBLIC "-//W3C//DTD SVG 1.1//EN" "http://www.w3.org/Graphics/SVG/1.1/DTD/svg11.dtd">
<!-- Creator: CorelDRAW 2018 (64-Bit) -->
<svg xmlns="http://www.w3.org/2000/svg" xml:space="preserve" width="60mm" height="60mm" version="1.1" style="shape-rendering:geometricPrecision; text-rendering:geometricPrecision; image-rendering:optimizeQuality; fill-rule:evenodd; clip-rule:evenodd"
viewBox="0 0 17.61 17.61"
 xmlns:xlink="http://www.w3.org/1999/xlink">
 <defs>
  <style type="text/css">
   <![CDATA[
    .str0 {stroke:#59656C;stroke-width:0.29;stroke-miterlimit:22.9256}
    .fil0 {fill:none}
    .fil1 {fill:#59656C}
   ]]>
  </style>
 </defs>
 <g id="Слой_x0020_1">
  <metadata id="CorelCorpID_0Corel-Layer"/>
  <g id="_4685401344">
   <g>
    <path class="fil0 str0" d="M11.49 12.17c0,-0.69 0,-1.03 0,-1.14 0.01,-1.12 -0.04,-1.1 -1.51,-1.71 -0.18,-0.07 -0.58,-0.33 -0.74,-0.21 -0.35,0.24 -0.63,0.45 -1.2,0.12 -0.32,-0.18 -0.09,-0.31 -1.09,0.16 -1.31,0.61 -1.33,0.36 -1.33,1.87 -0,0.06 -0,0.21 -0,0.83"/>
    <ellipse class="fil0 str0" cx="8.55" cy="7" rx="1.44" ry="1.67"/>
   </g>
   <circle class="fil0 str0" cx="8.56" cy="8.66" r="4.6"/>
   <path class="fil1" d="M15.47 15.38l-3.56 -3.56c-0.07,0.07 -0.14,0.14 -0.21,0.21l3.56 3.56c0.06,0.06 0.15,0.06 0.21,0l0 0c0.06,-0.06 0.06,-0.15 0,-0.21z"/>
  </g>
  <rect class="fil0" x="-0" width="17.61" height="17.61"/>
 </g>
</svg>
