<?xml version="1.0" encoding="UTF-8"?>
<!DOCTYPE svg PUBLIC "-//W3C//DTD SVG 1.1//EN" "http://www.w3.org/Graphics/SVG/1.1/DTD/svg11.dtd">
<!-- Creator: CorelDRAW 2018 (64-Bit) -->
<svg xmlns="http://www.w3.org/2000/svg" xml:space="preserve" width="60mm" height="60mm" version="1.1" style="shape-rendering:geometricPrecision; text-rendering:geometricPrecision; image-rendering:optimizeQuality; fill-rule:evenodd; clip-rule:evenodd"
viewBox="0 0 42.55 42.55"
 xmlns:xlink="http://www.w3.org/1999/xlink">
 <defs>
  <style type="text/css">
   <![CDATA[
    .fil1 {fill:none}
    .fil0 {fill:#59656C}
   ]]>
  </style>
 </defs>
 <g id="Слой_x0020_1">
  <metadata id="CorelCorpID_0Corel-Layer"/>
  <g id="_5211883952">
   <path class="fil0" d="M17.12 22.08c0.5,-0.2 0.68,0.55 0.27,0.71 -0.47,0.18 -0.76,-0.51 -0.27,-0.71zm4.03 -1.82c0.52,-0.2 0.67,0.57 0.28,0.7 -0.48,0.16 -0.77,-0.51 -0.28,-0.7zm4.55 -0.16c0.53,-0.18 0.67,0.59 0.23,0.71 -0.47,0.13 -0.73,-0.54 -0.23,-0.71zm-7.22 -1.9c0.46,-0.14 0.64,0.62 0.17,0.73 -0.48,0.12 -0.72,-0.57 -0.17,-0.73zm5.08 -0.38c0.52,-0.19 0.67,0.62 0.21,0.72 -0.47,0.1 -0.68,-0.56 -0.21,-0.72zm-3.92 1.14c1.36,-0.13 1.3,0.3 1.29,-1.3 -0.01,-0.81 -0.05,-1.7 0,-2.5 0.57,-0.2 1.83,0.15 2.36,0.3l-0 1.59c-0.03,0.14 -0.9,0.36 -0.75,1.32 0.09,0.53 0.54,0.96 1.14,0.96 1.1,-0 1.68,-1.53 0.52,-2.15 -0.13,-0.07 -0.09,-0.02 -0.14,-0.13l-0 -1.23c0.51,0.13 1.47,0.97 1.86,1.44 1.77,2.1 2.02,5.02 0.54,7.33 -0.46,0.71 -1.39,1.7 -2.22,2.07 -0.07,-0.36 -0.02,-1.36 -0.02,-1.79l0.01 -2.23c0.02,-0.18 0.05,-0.15 0.18,-0.25 0.21,-0.17 0.78,-0.86 0.9,-0.88 0.16,-0.02 0.37,0.16 0.74,0.07 1.05,-0.25 1.2,-1.63 0.32,-2.13 -0.48,-0.28 -1.04,-0.13 -1.37,0.18 -0.56,0.53 -0.28,1.06 -0.26,1.36 -0.16,0.11 -0.33,0.32 -0.47,0.47 -0.16,0.17 -0.22,0.16 -0.46,0.44 -0.16,0.18 -0.33,0.25 -0.34,0.59 -0.06,1.34 0.08,2.99 -0,4.54 -0.58,0.16 -1.14,0.38 -1.8,0.39l-0 -5.73c1.26,-0.48 0.85,-2.26 -0.43,-2.22 -0.59,0.02 -1.01,0.45 -1.09,0.98 -0.14,0.84 0.56,1.11 0.75,1.26l-0.01 5.69c-0.37,0.05 -1.62,-0.19 -1.78,-0.42 -0.13,-0.26 0.1,-2.75 -0.05,-3.22 -0.11,-0.33 -0.73,-0.66 -0.75,-0.88 -0.01,-0.15 0.14,-0.35 0.07,-0.71 -0.23,-1.13 -1.96,-1.27 -2.25,-0.01 -0.11,0.5 0.14,0.96 0.4,1.15 0.49,0.36 0.68,0.23 1.26,0.15 0.44,0.55 0.58,0.29 0.56,1.33 -0.01,0.37 0.03,1.6 -0.04,1.86 -0.09,-0.08 -0.26,-0.15 -0.37,-0.22 -0.52,-0.34 -1.24,-0.98 -1.58,-1.49 -0.17,-0.24 -0.33,-0.48 -0.48,-0.74 -1.22,-2.07 -0.9,-4.7 0.48,-6.64 0.09,-0.13 0.18,-0.24 0.27,-0.35 0.68,-0.85 2.45,-1.9 3.54,-2l0 2.95 -0.53 -0.01c-0.15,-0.31 -0.2,-0.42 -0.46,-0.58 -0.23,-0.14 -0.52,-0.22 -0.83,-0.16 -0.53,0.1 -0.92,0.52 -0.92,1.13 0,0.6 0.41,1.04 0.95,1.14 0.65,0.11 1.01,-0.26 1.27,-0.74zm1.22 -4.6c-1.6,0.2 -2.53,0.48 -3.79,1.41 -0.18,0.13 -0.32,0.27 -0.46,0.4 -0.77,0.71 -1.38,1.55 -1.77,2.56 -0.99,2.54 -0.44,5.25 1.33,7.21 0.69,0.77 1.48,1.33 2.55,1.77 1.81,0.74 4.01,0.61 5.7,-0.26 1.11,-0.57 2.06,-1.43 2.71,-2.48 1.56,-2.53 1.39,-5.54 -0.36,-7.91l-0.83 -0.9c-0.56,-0.5 -1.26,-0.99 -2.13,-1.33 -0.74,-0.29 -2.09,-0.58 -2.95,-0.47z"/>
   <path class="fil0" d="M20.06 11.59c4.2,-0.31 7.73,0.96 10.72,2.65 1.44,0.82 2.63,1.79 3.87,2.84l0.69 0.61c0.08,0.06 0.14,0.11 0.21,0.18 0.3,0.29 0.54,0.57 0.82,0.83 0.3,0.27 0.52,0.61 0.8,0.9 0.27,0.27 0.92,1.08 1.11,1.41 0.16,0.29 0.12,0.28 -0.04,0.56 -0.23,0.39 -0.8,1.01 -1.11,1.41l-0.79 0.87c-0.4,0.44 -0.85,0.8 -1.08,1.05l-1.09 0.97c-1.6,1.29 -2.03,1.64 -3.96,2.74 -2.21,1.26 -5.08,2.14 -7.71,2.33 -4.86,0.35 -9.27,-1.44 -12.72,-3.98 -1.27,-0.93 -3.43,-2.8 -4.38,-4.02 -0.36,-0.45 -0.83,-0.93 -1.11,-1.42 -0.17,-0.29 -0.15,-0.27 0.01,-0.56 0.23,-0.39 1.17,-1.5 1.5,-1.86 0.63,-0.69 1.88,-1.91 2.56,-2.45 2.07,-1.65 3.49,-2.72 6.24,-3.81 1.68,-0.66 3.45,-1.12 5.45,-1.27zm19.03 9.93c0.14,-0.54 -0.22,-0.99 -0.44,-1.31 -0.23,-0.34 -1.09,-1.4 -1.4,-1.7 -0.09,-0.09 -0.14,-0.12 -0.22,-0.21 -0.42,-0.48 -1.72,-1.72 -2.28,-2.16 -0.91,-0.72 -1.45,-1.2 -2.52,-1.88 -3.22,-2.07 -6.62,-3.43 -10.68,-3.49 -4.36,-0.07 -7.94,1.44 -10.9,3.28 -0.75,0.47 -1.42,0.97 -2.09,1.47 -0.34,0.26 -0.64,0.53 -0.97,0.79l-0.92 0.84c-0.89,0.88 -1.76,1.77 -2.55,2.75 -0.82,1.01 -0.94,1.41 -0.23,2.44 0.39,0.56 1.54,1.84 2.05,2.38l2.32 2.08c0.65,0.53 1.31,1.02 2.04,1.49 7.11,4.6 14.38,4.68 21.58,0.22 1.52,-0.94 2.7,-1.93 4,-3.1 0.29,-0.26 1.63,-1.68 1.93,-2.07l0.4 -0.46c0.33,-0.35 0.73,-0.82 0.86,-1.35z"/>
  </g>
  <rect class="fil1" x="-0" width="42.55" height="42.55"/>
 </g>
</svg>
