<?xml version="1.0" encoding="UTF-8"?>
<!DOCTYPE svg PUBLIC "-//W3C//DTD SVG 1.1//EN" "http://www.w3.org/Graphics/SVG/1.1/DTD/svg11.dtd">
<!-- Creator: CorelDRAW 2018 (64-Bit) -->
<svg xmlns="http://www.w3.org/2000/svg" xml:space="preserve" width="60mm" height="60mm" version="1.1" style="shape-rendering:geometricPrecision; text-rendering:geometricPrecision; image-rendering:optimizeQuality; fill-rule:evenodd; clip-rule:evenodd"
viewBox="0 0 13.57 13.57"
 xmlns:xlink="http://www.w3.org/1999/xlink">
 <defs>
  <style type="text/css">
   <![CDATA[
    .str0 {stroke:#59656C;stroke-width:0.23;stroke-miterlimit:22.9256}
    .fil0 {fill:none}
    .fil1 {fill:#59656C}
   ]]>
  </style>
 </defs>
 <g id="Слой_x0020_1">
  <metadata id="CorelCorpID_0Corel-Layer"/>
  <g id="_4612167584">
   <path class="fil0 str0" d="M10.39 10.62c0,-2.05 0.21,-1.9 -1.85,-2.75 -0.22,-0.09 -0.71,-0.4 -0.92,-0.26 -0.43,0.3 -0.77,0.55 -1.48,0.15 -0.4,-0.23 -0.11,-0.38 -1.34,0.19 -1.61,0.75 -1.64,0.44 -1.64,2.3 -0,0.11 -0.01,0.23 -0,0.34 0.01,0.3 0.08,0.23 0.79,0.23l5.94 0c0.22,0 0.49,0.07 0.49,-0.19z"/>
   <g>
    <path class="fil1" d="M8.82 7.03l1.04 0 0 -1.04c0,-0.06 0.05,-0.1 0.1,-0.1l0 0c0.06,0 0.1,0.05 0.1,0.1l0 1.14 0 0 -0 0 -0 0 -0 0 -0 0 -0 0 -0 0 -0 0 -0 0 -0 0c-0,0 -0,0 -0,0l-0 0c-0,0 -0,0 -0,0.01l-0 0c-0,0 -0,0 -0,0 -0,0 -0,0.01 -0,0.01 -0.02,0.03 -0.04,0.05 -0.08,0.05l-0 0c-0,0 -0,0 -0.01,0l-0 0 -0 0 -1.14 0c-0.06,0 -0.1,-0.05 -0.1,-0.1l0 0c0,-0.06 0.05,-0.1 0.1,-0.1z"/>
    <path class="fil1" d="M8.82 2.95l1.04 0 0 1.04c0,0.06 0.05,0.1 0.1,0.1l0 0c0.06,0 0.1,-0.05 0.1,-0.1l0 -1.14 0 0 -0 -0 -0 -0 -0 -0 -0 -0 -0 -0 -0 -0 -0 -0 -0 -0 -0 -0c-0,-0 -0,-0 -0,-0l-0 -0c-0,-0 -0,-0 -0,-0.01l-0 -0c-0,-0 -0,-0 -0,-0 -0,-0 -0,-0.01 -0,-0.01 -0.02,-0.03 -0.04,-0.05 -0.08,-0.05l-0 -0c-0,-0 -0,-0 -0.01,-0l-0 -0 -0 -0 -1.14 0c-0.06,0 -0.1,0.05 -0.1,0.1l0 0c0,0.06 0.05,0.1 0.1,0.1z"/>
    <g>
     <path class="fil1" d="M4.75 7.03l-1.04 0 0 -1.04c0,-0.06 -0.05,-0.1 -0.1,-0.1l0 0c-0.06,0 -0.1,0.05 -0.1,0.1l0 1.14 0 0 0 0 0 0 0 0 0 0 0 0 0 0 0 0 0 0 0 0c0,0 0,0 0,0l0 0c0,0 0,0 0,0.01l0 0c0,0 0,0 0,0 0,0 0,0.01 0,0.01 0.02,0.03 0.04,0.05 0.08,0.05l0 0c0,0 0,0 0.01,0l0 0 0 0 1.14 0c0.06,0 0.1,-0.05 0.1,-0.1l0 0c0,-0.06 -0.05,-0.1 -0.1,-0.1z"/>
     <path class="fil1" d="M4.75 2.95l-1.04 0 0 1.04c0,0.06 -0.05,0.1 -0.1,0.1l0 0c-0.06,0 -0.1,-0.05 -0.1,-0.1l0 -1.14 0 0 0 -0 0 -0 0 -0 0 -0 0 -0 0 -0 0 -0 0 -0 0 -0c0,-0 0,-0 0,-0l0 -0c0,-0 0,-0 0,-0.01l0 -0c0,-0 0,-0 0,-0 0,-0 0,-0.01 0,-0.01 0.02,-0.03 0.04,-0.05 0.08,-0.05l0 -0c0,-0 0,-0 0.01,-0l0 -0 0 -0 1.14 0c0.06,0 0.1,0.05 0.1,0.1l0 0c0,0.06 -0.05,0.1 -0.1,0.1z"/>
    </g>
   </g>
   <ellipse class="fil0 str0" cx="6.78" cy="5.01" rx="1.77" ry="2.05"/>
  </g>
  <rect class="fil0" x="-0" width="13.57" height="13.57"/>
 </g>
</svg>
