<?xml version="1.0" encoding="UTF-8"?>
<!DOCTYPE svg PUBLIC "-//W3C//DTD SVG 1.1//EN" "http://www.w3.org/Graphics/SVG/1.1/DTD/svg11.dtd">
<!-- Creator: CorelDRAW 2018 (64-Bit) -->
<svg xmlns="http://www.w3.org/2000/svg" xml:space="preserve" width="60.0001mm" height="60mm" version="1.1" style="shape-rendering:geometricPrecision; text-rendering:geometricPrecision; image-rendering:optimizeQuality; fill-rule:evenodd; clip-rule:evenodd"
viewBox="0 0 24.25 24.25"
 xmlns:xlink="http://www.w3.org/1999/xlink">
 <defs>
  <style type="text/css">
   <![CDATA[
    .str0 {stroke:#59656C;stroke-width:0.4;stroke-miterlimit:22.9256}
    .fil0 {fill:none}
   ]]>
  </style>
 </defs>
 <g id="Слой_x0020_1">
  <metadata id="CorelCorpID_0Corel-Layer"/>
  <g id="_852386032">
   <g>
    <path class="fil0 str0" d="M9.67 6.47c0,0.77 0.31,1.35 0.71,1.75 1.56,1.56 4.2,0.48 4.2,-1.75 0,-1.32 -1.09,-2.43 -2.48,-2.43 -1.32,0 -2.43,1.11 -2.43,2.43z"/>
    <path class="fil0 str0" d="M5.89 16.38c0,0.62 0.14,0.91 0.58,1.33 0.43,0.42 0.99,0.43 1.59,0.43l0 -2.57c0,-0.93 0.41,-1.76 1.31,-2.07l2.62 -0.13 -2.35 -4.4c-0.96,0 -1.94,0.08 -2.24,1.25l-1.5 6.17z"/>
    <path class="fil0 str0" d="M12.31 13.37l2.74 0.12c0.48,0.16 0.88,0.5 1.1,0.92 0.41,0.77 0.13,3.65 0.28,3.71 0.33,0.15 1.07,-0.16 1.34,-0.38 0.37,-0.3 0.59,-0.74 0.59,-1.14l-1.33 -5.83c-0.17,-0.82 -0.36,-1.28 -1.13,-1.66 -0.33,-0.16 -0.76,-0.15 -1.25,-0.15l-2.35 4.4z"/>
    <path class="fil0 str0" d="M9.22 15.28l0 2.61 5.94 0 -0.08 -2.93c-0.11,-0.19 -0.36,-0.41 -0.65,-0.41l-4.48 0c-0.37,0 -0.73,0.36 -0.73,0.73z"/>
   </g>
   <rect class="fil0 str0" x="7.68" y="19.06" width="8.88" height="1.06" rx="0.25" ry="0.25"/>
  </g>
  <rect class="fil0" y="-0" width="24.25" height="24.25"/>
 </g>
</svg>
