<?xml version="1.0" encoding="UTF-8"?>
<!DOCTYPE svg PUBLIC "-//W3C//DTD SVG 1.1//EN" "http://www.w3.org/Graphics/SVG/1.1/DTD/svg11.dtd">
<!-- Creator: CorelDRAW 2018 (64-Bit) -->
<svg xmlns="http://www.w3.org/2000/svg" xml:space="preserve" width="37.6868mm" height="37.6781mm" version="1.1" style="shape-rendering:geometricPrecision; text-rendering:geometricPrecision; image-rendering:optimizeQuality; fill-rule:evenodd; clip-rule:evenodd"
viewBox="0 0 8.75 8.75"
 xmlns:xlink="http://www.w3.org/1999/xlink">
 <defs>
  <style type="text/css">
   <![CDATA[
    .fil1 {fill:#59656C}
    .fil0 {fill:#99A0A5}
   ]]>
  </style>
 </defs>
 <g id="Слой_x0020_1">
  <metadata id="CorelCorpID_0Corel-Layer"/>
  <g id="_1844934528">
   <g>
    <path class="fil0" d="M4.27 6.94l0.22 0 0 0.06 0 0.42 0 0.2 -0.23 0 0.01 -0.69zm-0.01 -0c-0.01,0.09 -0.01,0.65 0,0.71l0.23 -0c0.02,-0.05 0.02,-0.62 0.01,-0.71 -0.06,-0.01 -0.18,-0.01 -0.24,0z"/>
    <path class="fil0" d="M4.26 1.11l0.23 0 0 0.69 -0.23 0 0 -0.7zm0 0c-0,0.01 -0.01,0 -0.01,0.02 -0,0.01 -0,0.03 -0,0.05l0 0.63 0.24 0c0.01,-0.06 0.01,-0.66 -0,-0.71 -0.03,-0 -0.2,-0.01 -0.23,0.01z"/>
   </g>
   <g>
    <path class="fil1" d="M5.66 2.96c0.02,0.14 0.11,0.14 0.26,0.14 0.13,-0 0.26,-0 0.39,-0l1.95 -0c0.11,-0 0.26,0.01 0.36,-0 0.11,-0.02 0.19,-0.12 0.1,-0.22 -0.06,-0.07 -0.24,-0.04 -0.34,-0.04l-2.31 -0.01c-0.16,0 -0.14,0.05 -0.14,-0.24l-0 -1.94c-0,-0.13 -0,-0.26 -0,-0.39 0,-0.13 0.01,-0.25 -0.13,-0.25 -0.13,0 -0.14,0.14 -0.14,0.26l0.01 1.15c0,0.24 -0.02,1.41 0,1.54z"/>
    <path class="fil1" d="M5.92 5.92c0.07,-0.02 0.65,-0.01 0.77,-0.01l1.94 -0c0.11,-0.02 0.15,-0.15 0.06,-0.22 -0.08,-0.07 -0.57,-0.04 -0.72,-0.04 -0.35,0 -2.19,-0.03 -2.27,0.03 -0.09,0.07 -0.05,0.58 -0.05,0.73l0 1.56c0,0.15 -0.03,0.65 0.04,0.73 0.07,0.09 0.21,0.04 0.22,-0.07l0.01 -2.7z"/>
    <path class="fil1" d="M2.83 2.82c-0.08,0.02 -0.65,0.01 -0.77,0.01l-1.94 0c-0.1,0.02 -0.14,0.15 -0.07,0.22 0.08,0.07 0.58,0.04 0.72,0.04 0.35,0 2.19,0.03 2.27,-0.03 0.09,-0.07 0.05,-0.58 0.05,-0.73l0 -1.56c0,-0.14 0.03,-0.65 -0.04,-0.73 -0.07,-0.09 -0.21,-0.04 -0.22,0.07l-0.01 2.7z"/>
    <path class="fil1" d="M2.82 5.93c0.03,0.1 -0.01,2.56 0.01,2.71 0.02,0.11 0.15,0.15 0.22,0.06 0.07,-0.08 0.04,-0.6 0.04,-0.74l0 -1.54c0,-0.15 0.04,-0.65 -0.05,-0.72 -0.07,-0.06 -0.61,-0.04 -0.75,-0.04l-1.56 0c-0.14,0 -0.63,-0.03 -0.71,0.04 -0.08,0.08 -0.03,0.21 0.09,0.22 0.12,0.01 0.27,0 0.39,0 0.35,0 2.23,-0.01 2.3,0.01z"/>
    <path class="fil1" d="M1.11 4.49c0.05,0.02 0.65,0.02 0.71,0l0 -0.23 -0.28 -0 -0.27 -0 -0.16 0.01 0 0.23z"/>
    <polygon class="fil1" points="8.04,4.49 8.75,4.49 8.75,4.26 8.46,4.25 8.19,4.25 8.04,4.25 "/>
    <polygon class="fil1" points="0,4.49 0.71,4.49 0.71,4.26 0.43,4.25 0.17,4.25 0,4.25 "/>
    <polygon class="fil1" points="5.83,4.49 6.54,4.49 6.54,4.26 6.26,4.25 6,4.25 5.83,4.25 "/>
    <polygon class="fil1" points="2.21,4.49 2.92,4.49 2.92,4.26 2.63,4.25 2.36,4.25 2.21,4.25 "/>
    <path class="fil1" d="M4.25 8.75l0.24 -0 0 -0.04 0 -0.16 -0 -0.49c-0.06,-0.01 -0.18,-0.01 -0.24,0l-0 0.67 -0 0.04z"/>
    <path class="fil1" d="M4.25 6.54l0.24 -0 0 -0.7c-0.06,-0.01 -0.18,-0.01 -0.24,0l-0 0.7z"/>
    <polygon class="fil1" points="4.25,0.71 4.49,0.71 4.49,0 4.26,0 "/>
    <polygon class="fil1" points="4.25,2.91 4.49,2.91 4.49,2.7 4.49,2.25 4.49,2.21 4.26,2.21 4.25,2.59 "/>
    <polygon class="fil1" points="6.94,4.49 7.64,4.49 7.64,4.26 7.36,4.25 7.09,4.25 6.93,4.25 "/>
    <polygon class="fil1" points="4.26,1.11 4.26,1.81 4.49,1.8 4.49,1.11 "/>
    <polygon class="fil1" points="4.26,7.63 4.49,7.63 4.49,7.43 4.49,7 4.49,6.94 4.27,6.94 "/>
   </g>
  </g>
 </g>
</svg>
