<?xml version="1.0" encoding="UTF-8"?>
<!DOCTYPE svg PUBLIC "-//W3C//DTD SVG 1.1//EN" "http://www.w3.org/Graphics/SVG/1.1/DTD/svg11.dtd">
<!-- Creator: CorelDRAW 2018 (64-Bit) -->
<svg xmlns="http://www.w3.org/2000/svg" xml:space="preserve" width="60mm" height="60mm" version="1.1" style="shape-rendering:geometricPrecision; text-rendering:geometricPrecision; image-rendering:optimizeQuality; fill-rule:evenodd; clip-rule:evenodd"
viewBox="0 0 20.34 20.34"
 xmlns:xlink="http://www.w3.org/1999/xlink">
 <defs>
  <style type="text/css">
   <![CDATA[
    .str0 {stroke:#59656C;stroke-width:0.34;stroke-miterlimit:22.9256}
    .fil0 {fill:none}
    .fil1 {fill:#59656C}
   ]]>
  </style>
 </defs>
 <g id="Слой_x0020_1">
  <metadata id="CorelCorpID_0Corel-Layer"/>
  <g id="_4802825120">
   <rect class="fil0 str0" x="3.72" y="4.99" width="12.91" height="3.89" rx="0.64" ry="0.64"/>
   <path class="fil0 str0" d="M10.17 9.78l0 0c1.46,0 2.66,1.19 2.66,2.66l0 2.14c-0.78,0.5 -1.69,0.78 -2.66,0.78 -0.97,0 -1.88,-0.28 -2.66,-0.78l0 -2.14c0,-1.46 1.19,-2.66 2.66,-2.66z"/>
   <path class="fil0 str0" d="M15.38 8.87c0.03,0.25 0.05,0.51 0.05,0.77 0,3.15 -2.36,5.71 -5.26,5.71 -2.91,0 -5.26,-2.56 -5.26,-5.71 0,-0.26 0.02,-0.52 0.05,-0.77l10.43 0z"/>
   <circle class="fil0 str0" cx="10.17" cy="12.4" r="1.34"/>
   <circle class="fil1" cx="14.96" cy="7.17" r="0.36"/>
  </g>
  <rect class="fil0" x="-0" width="20.34" height="20.34"/>
 </g>
</svg>
