<?xml version="1.0" encoding="UTF-8"?>
<!DOCTYPE svg PUBLIC "-//W3C//DTD SVG 1.1//EN" "http://www.w3.org/Graphics/SVG/1.1/DTD/svg11.dtd">
<!-- Creator: CorelDRAW 2018 (64-Bit) -->
<svg xmlns="http://www.w3.org/2000/svg" xml:space="preserve" width="60mm" height="60mm" version="1.1" style="shape-rendering:geometricPrecision; text-rendering:geometricPrecision; image-rendering:optimizeQuality; fill-rule:evenodd; clip-rule:evenodd"
viewBox="0 0 15.34 15.34"
 xmlns:xlink="http://www.w3.org/1999/xlink">
 <defs>
  <style type="text/css">
   <![CDATA[
    .str0 {stroke:#59656C;stroke-width:0.26;stroke-miterlimit:22.9256}
    .fil0 {fill:none}
   ]]>
  </style>
 </defs>
 <g id="Слой_x0020_1">
  <metadata id="CorelCorpID_0Corel-Layer"/>
  <path class="fil0 str0" d="M10.39 6.9c-0.25,-0.35 -0.52,-0.71 -0.78,-1.07 -0.1,-0.13 -0.3,-0.44 -0.42,-0.5l-2.2 -1.05c-0.11,-0.05 -0.21,-0.11 -0.36,-0.08 -0.18,0.04 -1.37,0.99 -1.62,1.17 -0.09,0.07 -0.18,0.12 -0.22,0.24 -0.04,0.14 -0.01,0.28 0.06,0.36 0.22,0.25 0.42,0.15 0.63,-0.01 0.4,-0.29 0.8,-0.61 1.2,-0.9 0.07,-0.05 0.07,-0.05 0.15,-0 0.28,0.14 0.7,0.32 0.94,0.45 -0.01,0.07 -0.81,1.31 -0.9,1.47 -0.36,0.56 -0.84,1.6 -1.17,2.25 -0.4,0.05 -2.03,-0.05 -2.25,0.04 -0.36,0.15 -0.31,0.74 0.19,0.74l2.25 -0c0.21,-0 0.26,-0.06 0.36,-0.17 0.13,-0.14 0.71,-0.7 1.04,-1.04l0.72 0.5c0.18,0.13 0.38,0.26 0.55,0.38 -0.02,0.1 -0.18,0.38 -0.23,0.48l-0.69 1.39c-0.07,0.15 -0.21,0.33 -0.12,0.54 0.06,0.15 0.24,0.27 0.44,0.22 0.2,-0.05 0.25,-0.19 0.34,-0.36l0.69 -1.39c0.09,-0.2 0.43,-0.78 0.43,-0.96 -0,-0.21 -0.16,-0.32 -0.27,-0.43l-0.87 -0.87c-0.06,-0.06 -0.13,-0.12 -0.17,-0.17 0.01,-0.08 0.62,-1.07 0.74,-1.27l0.19 -0.32c0.03,-0.04 0.04,-0.07 0.08,-0.09l0.76 1.03c0.07,0.11 0.18,0.19 0.39,0.19l1.46 0c0.53,0 0.55,-0.66 0.14,-0.76 -0.13,-0.03 -1.2,-0.01 -1.45,-0.01zm-0.91 -3.87c-0.54,0.1 -0.9,0.55 -0.82,1.1 0.07,0.48 0.55,0.9 1.11,0.81 0.49,-0.08 0.89,-0.52 0.81,-1.1 -0.07,-0.47 -0.55,-0.91 -1.09,-0.81z"/>
  <rect class="fil0" x="-0" width="15.34" height="15.34"/>
 </g>
</svg>
