<?xml version="1.0" encoding="UTF-8"?>
<!DOCTYPE svg PUBLIC "-//W3C//DTD SVG 1.1//EN" "http://www.w3.org/Graphics/SVG/1.1/DTD/svg11.dtd">
<!-- Creator: CorelDRAW 2018 (64-Bit) -->
<svg xmlns="http://www.w3.org/2000/svg" xml:space="preserve" width="60mm" height="60mm" version="1.1" style="shape-rendering:geometricPrecision; text-rendering:geometricPrecision; image-rendering:optimizeQuality; fill-rule:evenodd; clip-rule:evenodd"
viewBox="0 0 18.53 18.53"
 xmlns:xlink="http://www.w3.org/1999/xlink">
 <defs>
  <style type="text/css">
   <![CDATA[
    .fil1 {fill:none}
    .fil0 {fill:#59656B}
   ]]>
  </style>
 </defs>
 <g id="Слой_x0020_1">
  <metadata id="CorelCorpID_0Corel-Layer"/>
  <g id="_4611814752">
   <path class="fil0" d="M4.42 9.43c-0.03,-0.22 0.07,-0.81 0.11,-1.03 0.12,-0.63 0.34,-1.12 0.64,-1.65 0.2,-0.34 0.29,-0.41 0.48,-0.67 0.13,-0.17 0.43,-0.44 0.59,-0.57 1.76,-1.47 4.55,-1.38 6.22,0.16l0.35 0.35c0.04,0.04 0.09,0.11 0.14,0.16 0.05,0.06 0.08,0.1 0.12,0.16 0.08,0.11 0.16,0.21 0.23,0.33 0.15,0.24 0.27,0.46 0.4,0.75 0.05,0.11 0.1,0.34 0.27,0.3 0.19,-0.04 0.11,-0.25 0.05,-0.38 -0.44,-1.12 -1.22,-1.95 -2.13,-2.47 -1.02,-0.59 -2.38,-0.93 -3.77,-0.63 -2.31,0.51 -3.72,2.45 -3.98,4.63 -0.02,0.14 -0.02,0.4 -0.05,0.51l-0.6 -0.55c-0.07,-0.07 -0.22,-0.23 -0.32,-0.26 -0.21,-0.07 -0.22,0.16 -0.1,0.28l0.58 0.58c0.09,0.09 0.51,0.52 0.6,0.55 0.08,0 0.54,-0.49 0.61,-0.57 0.19,-0.19 0.41,-0.39 0.59,-0.59 0.14,-0.16 0.02,-0.36 -0.16,-0.25 -0.07,0.04 -0.1,0.08 -0.16,0.14l-0.74 0.71z"/>
   <path class="fil0" d="M14.42 9.16c0.03,0.04 0.1,0.09 0.15,0.13l0.31 0.29c0.05,0.05 0.1,0.08 0.15,0.13 0.07,0.07 0.22,0.23 0.32,0.26 0.17,0.04 0.24,-0.13 0.07,-0.3l-0.87 -0.87c-0.1,-0.09 -0.24,-0.27 -0.33,-0.24 -0.04,0.01 -1.1,1.07 -1.18,1.16 -0.12,0.14 0,0.34 0.18,0.23 0.07,-0.04 0.1,-0.07 0.16,-0.14l0.73 -0.7c0.04,0.31 -0.13,1.13 -0.21,1.42 -0.13,0.43 -0.29,0.81 -0.49,1.16 -0.85,1.49 -2.38,2.41 -4.18,2.39 -2.04,-0.02 -3.63,-1.2 -4.42,-2.98 -0.04,-0.09 -0.07,-0.21 -0.14,-0.26 -0.1,-0.08 -0.24,0.01 -0.24,0.11 -0.01,0.21 0.42,0.97 0.52,1.12 0.84,1.35 2.57,2.34 4.23,2.34l0.28 0c1.12,0 2.46,-0.52 3.21,-1.28 0.11,-0.11 0.2,-0.19 0.32,-0.31 0.36,-0.36 0.8,-1.11 0.98,-1.57 0.13,-0.32 0.22,-0.62 0.3,-0.97 0.04,-0.18 0.07,-0.36 0.1,-0.55 0.02,-0.15 0.02,-0.44 0.06,-0.57z"/>
   <path class="fil0" d="M9.43 9c0.02,-0.65 0.01,-1.31 0.01,-1.96l-0.01 -1.46c-0,-0.07 -0,-0.17 -0.02,-0.23 -0.01,-0.07 -0.05,-0.1 -0.13,-0.11 -0.19,-0.01 -0.17,0.16 -0.17,0.32 -0,0.16 -0,0.32 -0,0.49l-0 2.94c0,0.39 0.01,0.34 0.15,0.49l0.17 0.19c0.2,0.18 0.75,0.75 0.99,0.99 0.08,0.08 0.4,0.44 0.52,0.45 0.07,0 0.25,-0.1 0.09,-0.28 -0.08,-0.09 -0.15,-0.17 -0.23,-0.25l-0.24 -0.25c-0.13,-0.14 -0.16,-0.15 -0.25,-0.24 -0.16,-0.17 -0.32,-0.34 -0.49,-0.5 -0.25,-0.24 -0.4,-0.29 -0.39,-0.58z"/>
  </g>
  <rect class="fil1" x="-0" width="18.53" height="18.53"/>
 </g>
</svg>
