<?xml version="1.0" encoding="UTF-8"?>
<!DOCTYPE svg PUBLIC "-//W3C//DTD SVG 1.1//EN" "http://www.w3.org/Graphics/SVG/1.1/DTD/svg11.dtd">
<!-- Creator: CorelDRAW 2018 (64-Bit) -->
<svg xmlns="http://www.w3.org/2000/svg" xml:space="preserve" width="60.0632mm" height="47mm" version="1.1" style="shape-rendering:geometricPrecision; text-rendering:geometricPrecision; image-rendering:optimizeQuality; fill-rule:evenodd; clip-rule:evenodd"
viewBox="0 0 57.24 44.79"
 xmlns:xlink="http://www.w3.org/1999/xlink">
 <defs>
  <style type="text/css">
   <![CDATA[
    .str0 {stroke:#59656C;stroke-width:0.95;stroke-miterlimit:22.9256}
    .fil0 {fill:none}
    .fil1 {fill:#55ADAD}
   ]]>
  </style>
 </defs>
 <g id="Слой_x0020_1">
  <metadata id="CorelCorpID_0Corel-Layer"/>
  <g id="_1632685888">
   <g>
    <path class="fil0 str0" d="M6.02 26.54c0,1.05 1.96,1.87 2.51,0.09l1.16 -4.74c0.25,-1.03 0.24,-1.2 0.22,-0.02 -0.06,5.47 -0.63,11.02 -0.63,16.48 0,0.96 1.48,1.89 2.5,0.61 0.42,-0.52 1.5,-9.3 1.81,-11.37l1.87 11.42c0.79,1.05 2.39,0.6 2.54,-0.77l-0.69 -16.24c-0.07,-0.92 0.06,-0.73 0.23,0l1.55 5.35c1.07,0.85 2.07,-0.1 2.07,-0.91 0,-0.75 -1.46,-9.73 -1.65,-10.79 -0.15,-0.82 -0.36,-1.19 -0.9,-1.63 -0.63,-0.51 -2.09,-1.1 -2.94,-1.29 -0.92,1.08 -3.39,0.95 -4.17,0 -0.94,0.22 -1.88,0.7 -2.68,1.16 -1.16,0.66 -1.09,1.55 -1.47,3.87 -0.14,0.86 -1.34,8.05 -1.34,8.79z"/>
    <path class="fil0 str0" d="M10.44 8.27c0,0.97 0.4,1.77 0.87,2.29 1.63,1.82 5.45,1.05 5.45,-2.29 0,-2.11 -2.31,-3.79 -4.53,-2.75 -0.21,0.1 -0.69,0.44 -0.87,0.61 -0.41,0.41 -0.92,1.35 -0.92,2.14z"/>
   </g>
   <path class="fil1" d="M46 37.4l3.36 0 0 -3.36c0,-0.19 0.15,-0.34 0.34,-0.34l0 0c0.19,0 0.34,0.15 0.34,0.34l0 3.69 0 0 -0 0.01 -0 0.01 -0 0.01 -0 0.01 -0 0.01 -0 0.01 -0 0.01 -0 0.01 -0 0.01c-0,0.01 -0,0.01 -0,0.02l-0 0.01c-0,0.01 -0.01,0.02 -0.01,0.02l-0 0.01c-0,0.01 -0,0.01 -0.01,0.01 -0,0.01 -0.01,0.02 -0.02,0.03 -0.05,0.09 -0.14,0.15 -0.25,0.16l-0.01 0c-0.01,0 -0.01,0 -0.02,0l-0.01 0 -0.01 0 -3.69 0c-0.18,0 -0.34,-0.15 -0.34,-0.34l0 0c0,-0.19 0.15,-0.34 0.34,-0.34z"/>
   <path class="fil1" d="M46 6.7l3.36 0 0 3.36c0,0.19 0.15,0.34 0.34,0.34l0 0c0.19,0 0.34,-0.15 0.34,-0.34l0 -3.69 0 0 -0 -0.01 -0 -0.01 -0 -0.01 -0 -0.01 -0 -0.01 -0 -0.01 -0 -0.01 -0 -0.01 -0 -0.01c-0,-0.01 -0,-0.01 -0,-0.02l-0 -0.01c-0,-0.01 -0.01,-0.02 -0.01,-0.02l-0 -0.01c-0,-0.01 -0,-0.01 -0.01,-0.01 -0,-0.01 -0.01,-0.02 -0.02,-0.03 -0.05,-0.09 -0.14,-0.15 -0.25,-0.16l-0.01 -0c-0.01,-0 -0.01,-0 -0.02,-0l-0.01 -0 -0.01 -0 -3.69 0c-0.18,0 -0.34,0.15 -0.34,0.34l0 0c0,0.19 0.15,0.34 0.34,0.34z"/>
   <path class="fil1" d="M29.17 37.4l-3.36 0 0 -3.36c0,-0.19 -0.15,-0.34 -0.34,-0.34l0 0c-0.19,0 -0.34,0.15 -0.34,0.34l0 3.69 0 0 0 0.01 0 0.01 0 0.01 0 0.01 0 0.01 0 0.01 0 0.01 0 0.01 0 0.01c0,0.01 0,0.01 0,0.02l0 0.01c0,0.01 0.01,0.02 0.01,0.02l0 0.01c0,0.01 0,0.01 0.01,0.01 0,0.01 0.01,0.02 0.02,0.03 0.05,0.09 0.14,0.15 0.25,0.16l0.01 0c0.01,0 0.01,0 0.02,0l0.01 0 0.01 0 3.69 0c0.18,0 0.34,-0.15 0.34,-0.34l0 0c0,-0.19 -0.15,-0.34 -0.34,-0.34z"/>
   <path class="fil1" d="M29.17 6.7l-3.36 0 0 3.36c0,0.19 -0.15,0.34 -0.34,0.34l0 0c-0.19,0 -0.34,-0.15 -0.34,-0.34l0 -3.69 0 0 0 -0.01 0 -0.01 0 -0.01 0 -0.01 0 -0.01 0 -0.01 0 -0.01 0 -0.01 0 -0.01c0,-0.01 0,-0.01 0,-0.02l0 -0.01c0,-0.01 0.01,-0.02 0.01,-0.02l0 -0.01c0,-0.01 0,-0.01 0.01,-0.01 0,-0.01 0.01,-0.02 0.02,-0.03 0.05,-0.09 0.14,-0.15 0.25,-0.16l0.01 -0c0.01,-0 0.01,-0 0.02,-0l0.01 -0 0.01 -0 3.69 0c0.18,0 0.34,0.15 0.34,0.34l0 0c0,0.19 -0.15,0.34 -0.34,0.34z"/>
   <path class="fil0 str0" d="M45.42 21.5c-0.84,-1.15 -1.72,-2.35 -2.61,-3.57 -0.33,-0.44 -0.99,-1.46 -1.4,-1.67l-7.32 -3.49c-0.37,-0.18 -0.71,-0.38 -1.22,-0.28 -0.61,0.12 -4.57,3.3 -5.39,3.89 -0.31,0.22 -0.59,0.41 -0.72,0.81 -0.15,0.46 -0.04,0.92 0.21,1.21 0.73,0.83 1.4,0.49 2.11,-0.02 1.32,-0.95 2.65,-2.03 3.99,-3 0.25,-0.18 0.22,-0.15 0.51,-0.01 0.93,0.46 2.32,1.05 3.12,1.49 -0.03,0.22 -2.69,4.36 -3.01,4.89 -1.21,1.87 -2.81,5.32 -3.91,7.5 -1.32,0.18 -6.75,-0.18 -7.49,0.13 -1.19,0.5 -1.04,2.45 0.65,2.45l7.49 -0c0.71,-0 0.87,-0.21 1.19,-0.55 0.44,-0.47 2.37,-2.35 3.47,-3.45l2.38 1.66c0.6,0.44 1.26,0.87 1.85,1.27 -0.06,0.35 -0.59,1.26 -0.76,1.61l-2.31 4.63c-0.25,0.48 -0.69,1.11 -0.4,1.81 0.2,0.5 0.8,0.91 1.47,0.75 0.68,-0.17 0.82,-0.63 1.13,-1.21l2.31 -4.63c0.31,-0.65 1.43,-2.6 1.42,-3.19 -0.01,-0.7 -0.55,-1.05 -0.9,-1.43l-2.9 -2.9c-0.2,-0.19 -0.43,-0.41 -0.57,-0.58 0.05,-0.26 2.07,-3.55 2.46,-4.25l0.62 -1.06c0.09,-0.14 0.12,-0.24 0.25,-0.31l2.53 3.43c0.25,0.37 0.62,0.65 1.29,0.65l4.86 0c1.75,0 1.84,-2.21 0.45,-2.53 -0.45,-0.1 -4.01,-0.02 -4.84,-0.04zm-3.03 -12.89c-1.81,0.33 -3,1.83 -2.75,3.66 0.22,1.59 1.82,3.01 3.69,2.7 1.63,-0.27 2.95,-1.73 2.68,-3.66 -0.22,-1.58 -1.82,-3.03 -3.62,-2.7z"/>
  </g>
  <rect class="fil0" width="57.24" height="44.79"/>
 </g>
</svg>
