<?xml version="1.0" encoding="UTF-8"?>
<!DOCTYPE svg PUBLIC "-//W3C//DTD SVG 1.1//EN" "http://www.w3.org/Graphics/SVG/1.1/DTD/svg11.dtd">
<!-- Creator: CorelDRAW 2018 (64-Bit) -->
<svg xmlns="http://www.w3.org/2000/svg" xml:space="preserve" width="48.4209mm" height="37.0771mm" version="1.1" style="shape-rendering:geometricPrecision; text-rendering:geometricPrecision; image-rendering:optimizeQuality; fill-rule:evenodd; clip-rule:evenodd"
viewBox="0 0 37.27 28.54"
 xmlns:xlink="http://www.w3.org/1999/xlink">
 <defs>
  <style type="text/css">
   <![CDATA[
    .fil0 {fill:#55ADAD}
    .fil1 {fill:#59656C;fill-rule:nonzero}
   ]]>
  </style>
 </defs>
 <g id="Слой_x0020_1">
  <metadata id="CorelCorpID_0Corel-Layer"/>
  <g id="_1337531680">
   <path class="fil0" d="M32.67 26.38l2.71 0 0 -2.71c0,-0.15 0.12,-0.27 0.27,-0.27l0 0c0.15,0 0.27,0.12 0.27,0.27l0 2.98 0 0 -0 0.01 -0 0.01 -0 0.01 -0 0.01 -0 0.01 -0 0.01 -0 0.01 -0 0.01 -0 0.01c-0,0 -0,0.01 -0,0.01l-0 0.01c-0,0.01 -0,0.01 -0.01,0.02l-0 0.01c-0,0 -0,0.01 -0.01,0.01 -0,0.01 -0.01,0.02 -0.01,0.02 -0.04,0.07 -0.11,0.12 -0.2,0.13l-0.01 0c-0,0 -0.01,0 -0.01,0l-0.01 0 -0.01 0 -2.98 0c-0.15,0 -0.27,-0.12 -0.27,-0.27l0 0c0,-0.15 0.12,-0.27 0.27,-0.27z"/>
   <path class="fil0" d="M32.67 1.59l2.71 0 0 2.71c0,0.15 0.12,0.27 0.27,0.27l0 0c0.15,0 0.27,-0.12 0.27,-0.27l0 -2.98 0 0 -0 -0.01 -0 -0.01 -0 -0.01 -0 -0.01 -0 -0.01 -0 -0.01 -0 -0.01 -0 -0.01 -0 -0.01c-0,-0 -0,-0.01 -0,-0.01l-0 -0.01c-0,-0.01 -0,-0.01 -0.01,-0.02l-0 -0.01c-0,-0 -0,-0.01 -0.01,-0.01 -0,-0.01 -0.01,-0.02 -0.01,-0.02 -0.04,-0.07 -0.11,-0.12 -0.2,-0.13l-0.01 -0c-0,-0 -0.01,-0 -0.01,-0l-0.01 -0 -0.01 -0 -2.98 0c-0.15,0 -0.27,0.12 -0.27,0.27l0 0c0,0.15 0.12,0.27 0.27,0.27z"/>
   <path class="fil0" d="M19.08 26.38l-2.71 0 0 -2.71c0,-0.15 -0.12,-0.27 -0.27,-0.27l0 0c-0.15,0 -0.27,0.12 -0.27,0.27l0 2.98 0 0 0 0.01 0 0.01 0 0.01 0 0.01 0 0.01 0 0.01 0 0.01 0 0.01 0 0.01c0,0 0,0.01 0,0.01l0 0.01c0,0.01 0,0.01 0.01,0.02l0 0.01c0,0 0,0.01 0.01,0.01 0,0.01 0.01,0.02 0.01,0.02 0.04,0.07 0.11,0.12 0.2,0.13l0.01 0c0,0 0.01,0 0.01,0l0.01 0 0.01 0 2.98 0c0.15,0 0.27,-0.12 0.27,-0.27l0 0c0,-0.15 -0.12,-0.27 -0.27,-0.27z"/>
   <path class="fil0" d="M19.08 1.59l-2.71 0 0 2.71c0,0.15 -0.12,0.27 -0.27,0.27l0 0c-0.15,0 -0.27,-0.12 -0.27,-0.27l0 -2.98 0 0 0 -0.01 0 -0.01 0 -0.01 0 -0.01 0 -0.01 0 -0.01 0 -0.01 0 -0.01 0 -0.01c0,-0 0,-0.01 0,-0.01l0 -0.01c0,-0.01 0,-0.01 0.01,-0.02l0 -0.01c0,-0 0,-0.01 0.01,-0.01 0,-0.01 0.01,-0.02 0.01,-0.02 0.04,-0.07 0.11,-0.12 0.2,-0.13l0.01 -0c0,-0 0.01,-0 0.01,-0l0.01 -0 0.01 -0 2.98 0c0.15,0 0.27,0.12 0.27,0.27l0 0c0,0.15 -0.12,0.27 -0.27,0.27z"/>
   <g>
    <path class="fil1" d="M0.77 17.61c0,0.15 0.11,0.29 0.26,0.4 0.09,0.06 0.2,0.11 0.31,0.12 0.1,0.02 0.2,0.01 0.3,-0.02 0.16,-0.06 0.32,-0.22 0.41,-0.53l0.93 -3.82 0.08 -0.36c0.09,-0.38 0.14,-0.59 0.43,-0.61 0.43,-0.04 0.43,0.25 0.42,0.89l-0 0.16c-0.02,2.11 -0.14,4.2 -0.25,6.3 -0.13,2.33 -0.25,4.67 -0.25,7.01 0,0.11 0.05,0.23 0.13,0.33 0.08,0.1 0.2,0.19 0.33,0.24 0.12,0.05 0.27,0.06 0.41,0.02 0.16,-0.04 0.32,-0.15 0.47,-0.34 0.19,-0.24 0.77,-4.48 1.13,-7.15 0.11,-0.83 0.2,-1.51 0.25,-1.85l0.36 -2.42 1.89 11.53c0.13,0.15 0.3,0.22 0.46,0.24 0.09,0.01 0.19,0 0.27,-0.02 0.09,-0.02 0.18,-0.07 0.25,-0.12 0.16,-0.12 0.29,-0.32 0.32,-0.58l-0.56 -13.07c-0.02,-0.28 -0.02,-0.46 -0,-0.56l0 -0c0.05,-0.25 0.19,-0.37 0.42,-0.36 0.16,0.01 0.28,0.1 0.36,0.25l0 0c0.05,0.1 0.11,0.29 0.17,0.55l1.21 4.17c0.13,0.08 0.25,0.12 0.36,0.12 0.09,0 0.17,-0.02 0.24,-0.06 0.08,-0.04 0.15,-0.1 0.21,-0.17 0.09,-0.12 0.15,-0.26 0.15,-0.39 0,-0.22 -0.18,-1.45 -0.4,-2.92 -0.36,-2.33 -0.83,-5.22 -0.93,-5.73 -0.05,-0.29 -0.12,-0.5 -0.21,-0.66 -0.09,-0.16 -0.21,-0.29 -0.38,-0.43 -0.21,-0.17 -0.56,-0.35 -0.94,-0.52 -0.37,-0.16 -0.76,-0.3 -1.08,-0.39l-0.05 0.04c-0.46,0.38 -1.15,0.55 -1.81,0.53 -0.66,-0.01 -1.32,-0.21 -1.73,-0.56l0 -0 -0.01 -0.01c-0.29,0.08 -0.57,0.19 -0.85,0.32 -0.36,0.16 -0.7,0.35 -1.01,0.52 -0.62,0.35 -0.7,0.87 -0.87,2.04 -0.03,0.23 -0.07,0.49 -0.13,0.82l-0.03 0.21c-0.2,1.24 -1.04,6.3 -1.04,6.83zm-0.18 1.03c-0.35,-0.24 -0.59,-0.61 -0.59,-1.03 0,-0.58 0.85,-5.7 1.05,-6.95l0.03 -0.21c0.04,-0.26 0.09,-0.55 0.12,-0.81 0.21,-1.42 0.3,-2.06 1.26,-2.59 0.34,-0.19 0.71,-0.39 1.07,-0.56 0.39,-0.17 0.79,-0.33 1.19,-0.42l0.23 -0.05 0.15 0.19c0.03,0.03 0.06,0.07 0.09,0.09l0 0c0.28,0.24 0.75,0.37 1.25,0.38 0.5,0.01 1,-0.1 1.31,-0.36 0.04,-0.04 0.09,-0.08 0.12,-0.12l0.15 -0.18 0.23 0.05c0.39,0.09 0.92,0.27 1.42,0.49 0.44,0.19 0.85,0.42 1.11,0.63 0.26,0.21 0.44,0.41 0.57,0.66 0.13,0.24 0.22,0.52 0.29,0.89 0.1,0.53 0.58,3.44 0.93,5.75 0.23,1.5 0.41,2.77 0.41,3.03 0,0.3 -0.12,0.61 -0.32,0.87 -0.12,0.15 -0.27,0.28 -0.45,0.37 -0.18,0.1 -0.39,0.15 -0.6,0.15 -0.3,0 -0.61,-0.1 -0.93,-0.35l-0.1 -0.08 -0.62 -2.14 0.46 10.73 -0 0.03c-0.06,0.5 -0.3,0.88 -0.63,1.13 -0.15,0.12 -0.33,0.2 -0.51,0.25 -0.18,0.05 -0.37,0.07 -0.56,0.05 -0.39,-0.04 -0.77,-0.24 -1.05,-0.61l-0.06 -0.08 -1.12 -6.8c-0.37,2.74 -0.9,6.47 -1.2,6.85 -0.27,0.33 -0.57,0.52 -0.87,0.6 -0.3,0.08 -0.61,0.06 -0.87,-0.05 -0.26,-0.1 -0.49,-0.27 -0.66,-0.48 -0.19,-0.23 -0.3,-0.52 -0.3,-0.81 0,-2.32 0.13,-4.69 0.26,-7.05 0.06,-1.17 0.13,-2.34 0.17,-3.5l-0.28 1.16 -0.01 0.02c-0.17,0.57 -0.5,0.89 -0.88,1.04 -0.23,0.09 -0.47,0.1 -0.69,0.06 -0.22,-0.04 -0.43,-0.12 -0.61,-0.25zm2.95 -5.08c-0.14,0.01 -0.06,0.01 0.04,0.01 0.09,-0.01 0.11,-0.02 -0.04,-0.01l-0 0z"/>
    <path class="fil1" d="M4.34 2.86c0,0.31 0.06,0.6 0.16,0.86 0.11,0.29 0.27,0.54 0.45,0.74 0.39,0.43 0.96,0.65 1.55,0.65 0.27,0 0.55,-0.05 0.8,-0.14 0.25,-0.09 0.49,-0.23 0.69,-0.41 0.41,-0.37 0.69,-0.93 0.69,-1.69 0,-0.3 -0.07,-0.59 -0.19,-0.84 -0.17,-0.36 -0.45,-0.68 -0.79,-0.9 -0.34,-0.22 -0.74,-0.35 -1.17,-0.35 -0.31,0 -0.64,0.07 -0.96,0.22 -0.06,0.03 -0.18,0.11 -0.3,0.19 -0.12,0.08 -0.23,0.17 -0.29,0.23 -0.15,0.15 -0.32,0.41 -0.45,0.71 -0.11,0.24 -0.18,0.51 -0.18,0.74zm-0.56 1.13c-0.13,-0.34 -0.21,-0.72 -0.21,-1.13 0,-0.35 0.1,-0.71 0.24,-1.04 0.17,-0.39 0.41,-0.74 0.62,-0.95 0.08,-0.08 0.23,-0.2 0.39,-0.31 0.15,-0.11 0.31,-0.21 0.42,-0.26 0.43,-0.2 0.87,-0.29 1.29,-0.29 0.58,0 1.13,0.18 1.59,0.48 0.46,0.3 0.83,0.72 1.06,1.22 0.17,0.36 0.26,0.76 0.26,1.17 0,1 -0.38,1.76 -0.94,2.26 -0.28,0.25 -0.6,0.44 -0.94,0.56 -0.34,0.12 -0.7,0.19 -1.06,0.19 -0.79,0 -1.58,-0.3 -2.12,-0.9 -0.23,-0.26 -0.45,-0.59 -0.59,-0.98z"/>
    <path class="fil1" d="M31.89 13.78l-2.11 -2.88 -0.15 -0.22c-0.26,-0.36 -0.64,-0.9 -0.83,-1.01 -1.98,-0.95 -4.01,-1.87 -5.97,-2.85l0 -0c-0.22,-0.11 -0.43,-0.21 -0.68,-0.16 -0.27,0.05 -2.03,1.4 -3.2,2.31 -0.45,0.35 -0.82,0.63 -1.01,0.77l-0.03 0.02c-0.18,0.13 -0.35,0.25 -0.41,0.44 -0.04,0.12 -0.04,0.24 -0.02,0.34 0.02,0.1 0.06,0.19 0.12,0.26l-0 0c0.2,0.22 0.36,0.29 0.52,0.27 0.2,-0.03 0.43,-0.17 0.67,-0.35 0.54,-0.39 1.11,-0.83 1.68,-1.26 0.49,-0.38 0.99,-0.76 1.54,-1.16l-0 -0c0.37,-0.27 0.38,-0.26 0.74,-0.08l0.07 0.03c0.29,0.15 0.66,0.31 1.03,0.48 0.55,0.25 1.11,0.51 1.5,0.72l0.24 0.13 -0.04 0.27c-0.03,0.23 -1.47,2.49 -2.16,3.58l-0.33 0.51 -0 0c-0.73,1.12 -1.64,2.98 -2.42,4.58 -0.27,0.54 -0.52,1.06 -0.71,1.44l-0.09 0.18 -0.2 0.03c-0.5,0.07 -1.64,0.05 -2.81,0.02 -1.42,-0.03 -2.88,-0.05 -3.14,0.05 -0.19,0.08 -0.31,0.23 -0.36,0.39 -0.03,0.11 -0.04,0.22 -0.02,0.33 0.02,0.11 0.07,0.21 0.14,0.29l0 0c0.12,0.13 0.32,0.22 0.61,0.22l0 0 6.05 -0c0.38,0 0.48,-0.11 0.65,-0.29l0.03 -0.04 0 -0c0.2,-0.22 0.8,-0.81 1.44,-1.44 0.48,-0.48 0.99,-0.98 1.37,-1.36l0.23 -0.23 2.19 1.52 0.01 0.01c0.32,0.24 0.67,0.47 1,0.7 0.16,0.11 0.33,0.22 0.48,0.32l0.2 0.14 -0.04 0.24c-0.04,0.26 -0.29,0.72 -0.48,1.08 -0.07,0.13 -0.13,0.25 -0.17,0.33l-0 0.01 -1.87 3.74 -0 0c-0.03,0.06 -0.06,0.12 -0.09,0.17 -0.16,0.29 -0.35,0.65 -0.22,0.97 0.05,0.13 0.17,0.25 0.31,0.33 0.13,0.06 0.28,0.09 0.43,0.05 0.3,-0.07 0.42,-0.3 0.56,-0.59l0.1 -0.2 1.86 -3.72c0.05,-0.12 0.16,-0.32 0.28,-0.55 0.34,-0.65 0.84,-1.6 0.83,-1.86 -0,-0.3 -0.23,-0.51 -0.44,-0.71 -0.06,-0.06 -0.13,-0.12 -0.19,-0.18l-2.33 -2.33 -0.07 -0.07c-0.15,-0.14 -0.31,-0.3 -0.42,-0.44l-0.11 -0.14 0.03 -0.17c0.04,-0.21 0.84,-1.55 1.44,-2.56 0.26,-0.44 0.49,-0.81 0.59,-0.99l0.5 -0.86 0 -0 0.03 -0.05c0.08,-0.14 0.14,-0.25 0.34,-0.34l0.28 -0.14c0.74,1.01 1.48,2.06 2.24,3.04 0.07,0.1 0.15,0.19 0.26,0.25 0.11,0.06 0.26,0.1 0.46,0.1l3.92 0c0.32,0 0.54,-0.12 0.65,-0.29 0.06,-0.09 0.09,-0.19 0.1,-0.29 0.01,-0.11 0,-0.22 -0.04,-0.32 -0.06,-0.18 -0.21,-0.33 -0.44,-0.39 -0.2,-0.05 -1.48,-0.04 -2.53,-0.03 -0.57,0 -1.07,0.01 -1.3,0l-0.19 -0.01 -0.11 -0.15zm-0.51 -2c0.26,0.36 0.52,0.71 1.02,1.39 0.26,0 0.66,-0 1.09,-0 1.09,-0.01 2.42,-0.02 2.7,0.05 0.51,0.12 0.84,0.47 0.99,0.88 0.07,0.21 0.1,0.43 0.07,0.65 -0.03,0.22 -0.1,0.44 -0.23,0.63 -0.25,0.37 -0.68,0.63 -1.29,0.63l-3.92 0c-0.34,0 -0.61,-0.08 -0.83,-0.2 -0.23,-0.13 -0.39,-0.3 -0.52,-0.49l-1.72 -2.33 -0.38 0.64c-0.1,0.17 -0.33,0.56 -0.6,1.01 -0.47,0.79 -1.07,1.79 -1.27,2.16 0.06,0.06 0.14,0.13 0.21,0.2 0.82,0.79 1.62,1.62 2.42,2.42 0.05,0.05 0.1,0.1 0.16,0.15 0.32,0.3 0.67,0.63 0.68,1.26 0.01,0.45 -0.54,1.5 -0.92,2.22 -0.11,0.21 -0.2,0.38 -0.26,0.52 -0.48,0.8 -1.53,2.89 -1.88,3.75 -0.05,0.09 -0.07,0.14 -0.09,0.18 -0.23,0.47 -0.42,0.83 -1.07,0.99 -0.35,0.08 -0.68,0.03 -0.96,-0.11 -0.31,-0.16 -0.55,-0.43 -0.67,-0.72 -0.27,-0.66 0.02,-1.19 0.26,-1.63l0.08 -0.15 -0 -0 1.87 -3.74 0 0c0.04,-0.09 0.11,-0.22 0.18,-0.35 0.11,-0.2 0.24,-0.45 0.32,-0.62l-0.23 -0.15c-0.34,-0.23 -0.69,-0.47 -1.03,-0.71l-1.66 -1.15c-0.35,0.35 -0.76,0.75 -1.15,1.14 -0.63,0.62 -1.22,1.2 -1.41,1.41l-0 -0 -0.03 0.03c-0.31,0.33 -0.49,0.53 -1.21,0.53l-6.05 0 0 0c-0.53,0 -0.92,-0.19 -1.18,-0.48l0 -0c-0.17,-0.19 -0.28,-0.42 -0.33,-0.66 -0.05,-0.23 -0.03,-0.48 0.04,-0.71 0.12,-0.37 0.38,-0.7 0.79,-0.87 0.4,-0.17 1.95,-0.14 3.45,-0.11 1,0.02 1.98,0.04 2.5,0 0.21,-0.41 0.41,-0.82 0.62,-1.24 0.79,-1.61 1.71,-3.49 2.47,-4.65l-0 -0c0.08,-0.12 0.18,-0.29 0.33,-0.52 0.54,-0.85 1.56,-2.46 1.92,-3.06 -0.33,-0.17 -0.74,-0.35 -1.13,-0.53 -0.37,-0.17 -0.74,-0.34 -1.05,-0.49l-0.03 -0.01c-0.47,0.35 -0.99,0.74 -1.51,1.14 -0.56,0.43 -1.12,0.86 -1.7,1.28 -0.33,0.24 -0.66,0.44 -1.02,0.49 -0.41,0.05 -0.8,-0.08 -1.19,-0.52l-0 0c-0.15,-0.17 -0.26,-0.4 -0.3,-0.64 -0.04,-0.22 -0.03,-0.46 0.05,-0.71 0.14,-0.44 0.41,-0.63 0.7,-0.83l0.03 -0.02c0.18,-0.13 0.54,-0.41 0.98,-0.75 1.24,-0.95 3.08,-2.37 3.52,-2.46 0.51,-0.1 0.84,0.06 1.17,0.23l0 -0 0.05 0.03 5.91 2.82 0.01 0.01c0.35,0.19 0.81,0.82 1.11,1.26 0.05,0.08 0.1,0.14 0.15,0.21l0.98 1.34zm-1.56 -8.26c-0.64,0.12 -1.17,0.44 -1.51,0.89 -0.33,0.44 -0.48,1 -0.4,1.63l0.01 0.05c0.09,0.53 0.4,1.02 0.84,1.37 0.44,0.34 1.02,0.53 1.64,0.45l0.05 -0.01c0.58,-0.1 1.11,-0.41 1.46,-0.89 0.32,-0.43 0.48,-1 0.39,-1.64l-0.01 -0.08c-0.09,-0.51 -0.4,-1 -0.83,-1.35 -0.43,-0.34 -0.97,-0.53 -1.55,-0.45l-0.08 0.01zm-2.12 0.43c0.45,-0.61 1.15,-1.04 1.99,-1.19 0.04,-0.01 0.08,-0.01 0.12,-0.02 0.8,-0.11 1.55,0.15 2.13,0.6 0.57,0.45 0.98,1.11 1.11,1.81l0.02 0.11c0.12,0.85 -0.1,1.61 -0.53,2.2 -0.46,0.63 -1.17,1.06 -1.95,1.19l-0.07 0.01c-0.84,0.12 -1.62,-0.14 -2.22,-0.6 -0.59,-0.46 -1.01,-1.14 -1.13,-1.85 -0,-0.01 -0.01,-0.05 -0.01,-0.06 -0.12,-0.84 0.1,-1.6 0.54,-2.2z"/>
   </g>
  </g>
 </g>
</svg>
