<?xml version="1.0" encoding="UTF-8"?>
<!DOCTYPE svg PUBLIC "-//W3C//DTD SVG 1.1//EN" "http://www.w3.org/Graphics/SVG/1.1/DTD/svg11.dtd">
<!-- Creator: CorelDRAW 2018 (64-Bit) -->
<svg xmlns="http://www.w3.org/2000/svg" xml:space="preserve" width="60mm" height="60mm" version="1.1" style="shape-rendering:geometricPrecision; text-rendering:geometricPrecision; image-rendering:optimizeQuality; fill-rule:evenodd; clip-rule:evenodd"
viewBox="0 0 15.96 15.96"
 xmlns:xlink="http://www.w3.org/1999/xlink">
 <defs>
  <style type="text/css">
   <![CDATA[
    .str0 {stroke:#59656C;stroke-width:0.27;stroke-miterlimit:22.9256}
    .fil1 {fill:none}
    .fil0 {fill:white}
   ]]>
  </style>
 </defs>
 <g id="Слой_x0020_1">
  <metadata id="CorelCorpID_0Corel-Layer"/>
  <g id="_4701160976">
   <rect class="fil0 str0" x="4.39" y="3.1" width="8.53" height="8.53" rx="0.85" ry="0.85"/>
   <rect class="fil0 str0" x="3.04" y="4.34" width="8.53" height="8.53" rx="0.85" ry="0.85"/>
   <g>
    <path class="fil1 str0" d="M9.52 10.81c0,-1.26 0.13,-1.16 -1.13,-1.69 -0.13,-0.06 -0.44,-0.25 -0.56,-0.16 -0.26,0.18 -0.48,0.34 -0.91,0.09 -0.24,-0.14 -0.07,-0.23 -0.82,0.12 -0.99,0.46 -1,0.27 -1.01,1.41 -0,0.07 -0,0.14 -0,0.21 0.01,0.18 0.05,0.14 0.48,0.14l3.65 0c0.14,0 0.3,0.04 0.3,-0.12z"/>
    <ellipse class="fil1 str0" cx="7.31" cy="7.36" rx="1.09" ry="1.26"/>
   </g>
  </g>
  <rect class="fil1" x="-0" width="15.96" height="15.96"/>
 </g>
</svg>
