<?xml version="1.0" encoding="UTF-8"?>
<!DOCTYPE svg PUBLIC "-//W3C//DTD SVG 1.1//EN" "http://www.w3.org/Graphics/SVG/1.1/DTD/svg11.dtd">
<!-- Creator: CorelDRAW 2018 (64-Bit) -->
<svg xmlns="http://www.w3.org/2000/svg" xml:space="preserve" width="60mm" height="60mm" version="1.1" style="shape-rendering:geometricPrecision; text-rendering:geometricPrecision; image-rendering:optimizeQuality; fill-rule:evenodd; clip-rule:evenodd"
viewBox="0 0 13.29 13.29"
 xmlns:xlink="http://www.w3.org/1999/xlink">
 <defs>
  <style type="text/css">
   <![CDATA[
    .fil1 {fill:none}
    .fil0 {fill:#59656C}
   ]]>
  </style>
 </defs>
 <g id="Слой_x0020_1">
  <metadata id="CorelCorpID_0Corel-Layer"/>
  <g id="_4698927344">
   <path class="fil0" d="M10.18 5.28l-0.06 0.21 -0.24 -0.06 -0.63 -0.21c-0.09,-0.03 -0.18,0.02 -0.21,0.1l-0 0c-0.03,0.09 0.02,0.18 0.1,0.21l0.99 0.33c0.01,0 0.01,0.01 0.02,0.01l0 0c0.04,0.01 0.09,0.01 0.13,-0.01l0 -0 0 -0 0 0c0.05,-0.02 0.08,-0.07 0.09,-0.12l0.32 -0.98c0.03,-0.09 -0.02,-0.18 -0.1,-0.21l0 0c-0.09,-0.03 -0.18,0.02 -0.21,0.1l-0.21 0.63z"/>
   <path class="fil0" d="M5.28 8.28l0 -1.75 2.45 0 0 1.72 -1.68 0c-0.29,0 -0.49,0.02 -0.77,0.02zm0.44 -2.57c0,-0.34 0.33,-0.69 0.82,-0.69 0.4,0 0.73,0.36 0.73,0.77l0 0.44 -1.55 0 0 -0.53zm-0.29 0.07l0 0.46c-0.16,0 -0.44,-0.03 -0.44,0.2l0 1.86c0,0.14 0.06,0.24 0.2,0.24l2.57 0c0.36,0 0.27,-0.38 0.27,-0.82l-0.03 -1.34c-0.04,-0.18 -0.25,-0.14 -0.44,-0.14 0,-0.45 0.04,-0.83 -0.29,-1.17 -0.73,-0.74 -1.83,-0.16 -1.83,0.7z"/>
   <path class="fil0" d="M6.5 10.56c0.91,0 2.03,-0.42 2.62,-1.01 0.16,-0.16 0.46,-0.44 0.57,-0.65 -0.07,-0.04 -0.17,-0.13 -0.24,-0.15 -0.02,0.08 -0.27,0.37 -0.35,0.45 -0.12,0.13 -0.6,0.5 -0.79,0.6 -0.31,0.16 -0.37,0.21 -0.77,0.33 -0.86,0.26 -1.75,0.17 -2.55,-0.19 -0.4,-0.18 -0.74,-0.44 -1.05,-0.75 -1.42,-1.42 -1.4,-3.7 -0.01,-5.09 0.29,-0.29 0.65,-0.58 1.04,-0.75 1.19,-0.5 2.22,-0.47 3.37,0.15 0.14,0.08 0.34,0.21 0.46,0.32 0.25,0.23 0.34,0.3 0.56,0.57 0.19,0.22 0.45,0.68 0.55,0.96 0.02,0.06 0.04,0.12 0.06,0.18l0.3 0c-0.2,-0.73 -0.71,-1.45 -1.28,-1.91 -1.56,-1.28 -3.8,-1.17 -5.23,0.27 -0.19,0.19 -0.4,0.43 -0.54,0.67 -0.04,0.06 -0.06,0.09 -0.09,0.15 -0.27,0.45 -0.4,0.95 -0.48,1.47l-0.04 0.47c-0,0.17 0.07,0.71 0.11,0.87 0.1,0.49 0.32,0.95 0.59,1.35 0.71,1.03 1.92,1.69 3.22,1.69z"/>
  </g>
  <rect class="fil1" x="-0" width="13.29" height="13.29"/>
 </g>
</svg>
