<?xml version="1.0" encoding="UTF-8"?>
<!DOCTYPE svg PUBLIC "-//W3C//DTD SVG 1.1//EN" "http://www.w3.org/Graphics/SVG/1.1/DTD/svg11.dtd">
<!-- Creator: CorelDRAW 2018 (64-Bit) -->
<svg xmlns="http://www.w3.org/2000/svg" xml:space="preserve" width="60mm" height="60mm" version="1.1" style="shape-rendering:geometricPrecision; text-rendering:geometricPrecision; image-rendering:optimizeQuality; fill-rule:evenodd; clip-rule:evenodd"
viewBox="0 0 39.95 39.95"
 xmlns:xlink="http://www.w3.org/1999/xlink">
 <defs>
  <style type="text/css">
   <![CDATA[
    .str0 {stroke:#59656C;stroke-width:0.07;stroke-miterlimit:22.9256}
    .fil1 {fill:none}
    .fil0 {fill:#59656C}
   ]]>
  </style>
 </defs>
 <g id="Слой_x0020_1">
  <metadata id="CorelCorpID_0Corel-Layer"/>
  <g id="_5211897552">
   <g>
    <g>
     <path class="fil0 str0" d="M6.98 19.64l8.79 0c0.18,0 0.33,0.15 0.33,0.33l0 0c0,0.18 -0.15,0.33 -0.33,0.33l-8.8 0 0.96 0.96c0.13,0.13 0.13,0.34 0,0.47l-0 0c-0.13,0.13 -0.34,0.13 -0.47,0l-1.49 -1.49c-0.01,-0.01 -0.02,-0.02 -0.03,-0.03l0 0c-0.07,-0.07 -0.1,-0.15 -0.1,-0.24l0 -0 0 -0 0 0c0,-0.11 0.06,-0.21 0.14,-0.27l1.48 -1.48c0.13,-0.13 0.34,-0.13 0.47,0l0 0c0.13,0.13 0.13,0.34 0,0.47l-0.95 0.95z"/>
     <path class="fil0 str0" d="M32.97 19.64l-8.79 0c-0.18,0 -0.33,0.15 -0.33,0.33l0 0c0,0.18 0.15,0.33 0.33,0.33l8.8 0 -0.96 0.96c-0.13,0.13 -0.13,0.34 0,0.47l0 0c0.13,0.13 0.34,0.13 0.47,0l1.49 -1.49c0.01,-0.01 0.02,-0.02 0.03,-0.03l0 0c0.07,-0.07 0.1,-0.15 0.1,-0.24l0 -0 0 -0 0 0c0,-0.11 -0.06,-0.21 -0.14,-0.27l-1.48 -1.48c-0.13,-0.13 -0.34,-0.13 -0.47,0l0 0c-0.13,0.13 -0.13,0.34 0,0.47l0.95 0.95z"/>
    </g>
    <g>
     <path class="fil0 str0" d="M19.64 32.97l0 -8.79c0,-0.18 0.15,-0.33 0.33,-0.33l0 0c0.18,0 0.33,0.15 0.33,0.33l0 8.8 0.96 -0.96c0.13,-0.13 0.34,-0.13 0.47,0l0 0c0.13,0.13 0.13,0.34 0,0.47l-1.49 1.49c-0.01,0.01 -0.02,0.02 -0.03,0.03l0 0c-0.07,0.07 -0.15,0.1 -0.24,0.1l-0 0 -0 0 -0 0c-0.11,0 -0.21,-0.06 -0.27,-0.14l-1.48 -1.48c-0.13,-0.13 -0.13,-0.34 0,-0.47l0 -0c0.13,-0.13 0.34,-0.13 0.47,0l0.95 0.95z"/>
     <path class="fil0 str0" d="M19.64 6.98l0 8.79c0,0.18 0.15,0.33 0.33,0.33l0 0c0.18,0 0.33,-0.15 0.33,-0.33l0 -8.8 0.96 0.96c0.13,0.13 0.34,0.13 0.47,0l0 -0c0.13,-0.13 0.13,-0.34 0,-0.47l-1.49 -1.49c-0.01,-0.01 -0.02,-0.02 -0.03,-0.03l0 0c-0.07,-0.07 -0.15,-0.1 -0.24,-0.1l-0 0 -0 0 -0 0c-0.11,0 -0.21,0.06 -0.27,0.14l-1.48 1.48c-0.13,0.13 -0.13,0.34 0,0.47l0 0c0.13,0.13 0.34,0.13 0.47,0l0.95 -0.95z"/>
    </g>
    <g>
     <path class="fil0 str0" d="M12.93 26.54l2.94 -2.94c0.13,-0.13 0.34,-0.13 0.47,0l0 0c0.13,0.13 0.13,0.34 0,0.47l-2.95 2.95 1.36 0c0.18,0 0.33,0.15 0.33,0.33l0 0c0,0.18 -0.15,0.33 -0.33,0.33l-2.11 0c-0.01,0 -0.03,0 -0.04,0l0 0c-0.09,0 -0.18,-0.04 -0.24,-0.1l-0 -0 -0 -0 0 0c-0.08,-0.08 -0.11,-0.19 -0.09,-0.29l0 -2.09c0,-0.18 0.15,-0.33 0.33,-0.33l0 0c0.18,0 0.33,0.15 0.33,0.33l0 1.34z"/>
     <path class="fil0 str0" d="M26.54 12.93l-2.94 2.94c-0.13,0.13 -0.13,0.34 0,0.47l0 0c0.13,0.13 0.34,0.13 0.47,0l2.95 -2.95 0 1.36c0,0.18 0.15,0.33 0.33,0.33l0 0c0.18,0 0.33,-0.15 0.33,-0.33l0 -2.11c0,-0.01 0,-0.03 0,-0.04l0 0c0,-0.09 -0.04,-0.18 -0.1,-0.24l-0 -0 -0 -0 0 0c-0.08,-0.08 -0.19,-0.11 -0.29,-0.09l-2.09 0c-0.18,0 -0.33,0.15 -0.33,0.33l0 0c0,0.18 0.15,0.33 0.33,0.33l1.34 0z"/>
    </g>
   </g>
   <g>
    <path class="fil0 str0" d="M27.02 26.54l-2.94 -2.94c-0.13,-0.13 -0.34,-0.13 -0.47,0l0 0c-0.13,0.13 -0.13,0.34 0,0.47l2.95 2.95 -1.36 0c-0.18,0 -0.33,0.15 -0.33,0.33l0 0c0,0.18 0.15,0.33 0.33,0.33l2.11 0c0.01,0 0.03,0 0.04,0l0 0c0.09,0 0.18,-0.04 0.24,-0.1l0 -0 0 -0 0 0c0.08,-0.08 0.11,-0.19 0.09,-0.29l0 -2.09c0,-0.18 -0.15,-0.33 -0.33,-0.33l-0 0c-0.18,0 -0.33,0.15 -0.33,0.33l0 1.34z"/>
    <path class="fil0 str0" d="M13.41 12.93l2.94 2.94c0.13,0.13 0.13,0.34 0,0.47l0 0c-0.13,0.13 -0.34,0.13 -0.47,0l-2.95 -2.95 0 1.36c0,0.18 -0.15,0.33 -0.33,0.33l0 0c-0.18,0 -0.33,-0.15 -0.33,-0.33l0 -2.11c-0,-0.01 -0,-0.03 -0,-0.04l0 0c0,-0.09 0.04,-0.18 0.1,-0.24l0 -0 0 -0 0 0c0.08,-0.08 0.19,-0.11 0.29,-0.09l2.09 0c0.18,0 0.33,0.15 0.33,0.33l0 0c0,0.18 -0.15,0.33 -0.33,0.33l-1.34 0z"/>
   </g>
  </g>
  <rect class="fil1" x="-0" width="39.95" height="39.95"/>
 </g>
</svg>
