<?xml version="1.0" encoding="UTF-8"?>
<!DOCTYPE svg PUBLIC "-//W3C//DTD SVG 1.1//EN" "http://www.w3.org/Graphics/SVG/1.1/DTD/svg11.dtd">
<!-- Creator: CorelDRAW 2018 (64-Bit) -->
<svg xmlns="http://www.w3.org/2000/svg" xml:space="preserve" width="35.7759mm" height="33.7644mm" version="1.1" style="shape-rendering:geometricPrecision; text-rendering:geometricPrecision; image-rendering:optimizeQuality; fill-rule:evenodd; clip-rule:evenodd"
viewBox="0 0 8.33 7.86"
 xmlns:xlink="http://www.w3.org/1999/xlink">
 <defs>
  <style type="text/css">
   <![CDATA[
    .fil0 {fill:#59656C}
   ]]>
  </style>
 </defs>
 <g id="Слой_x0020_1">
  <metadata id="CorelCorpID_0Corel-Layer"/>
  <g id="_1839443616">
   <path class="fil0" d="M0.28 6.45l7.76 0 0 1.14 -7.76 0 0 -1.14zm1.14 -2.37l2.59 0c0.18,0 0.19,-0.27 0.02,-0.27l-0.22 0 0 -1.3 2.81 0c0.18,0 0.31,0.08 0.42,0.17 0.51,0.41 0.45,1.06 0.51,1.57l0.05 0.56c0,0.05 -0,0.1 0,0.15 0.01,0.06 0.01,0.06 0.02,0.13l0.08 1.1 -7.02 0 0.08 -1.2c0.02,-0.27 0.02,-0.66 0.06,-0.96 0.01,-0.09 0.01,-0.19 0.02,-0.27 0.01,-0.1 0.01,-0.17 0.02,-0.26 0.05,-0.27 0.18,-0.59 0.38,-0.77 0.09,-0.08 0.23,-0.19 0.38,-0.2l0 1.29 -0.22 0c-0.17,0 -0.17,0.27 0.02,0.27zm0.47 -2.76l1.64 0 0 2.47 -1.64 0 0 -2.47zm3.36 -1.05l1.91 0 0 0.64 -1.91 0 0 -0.64zm-0.27 -0.17l0 0.99c0,0.05 0.07,0.1 0.13,0.1l0.95 0 0 1.05 -2.26 0 0 -1c0,-0.1 -0.05,-0.18 -0.15,-0.18l-1.87 0c-0.08,0 -0.17,0.03 -0.17,0.1l0 1.09c-0.31,0.01 -0.61,0.28 -0.77,0.52 -0.24,0.35 -0.27,0.74 -0.3,1.14l-0.17 2.27c-0.25,0 -0.38,-0.04 -0.38,0.18l0 1.29c0,0.15 0.04,0.22 0.18,0.22l7.96 0c0.15,0 0.18,-0.07 0.18,-0.22l0 -1.29c0,-0.23 -0.17,-0.18 -0.38,-0.18 0,-0.24 -0.05,-0.65 -0.07,-0.9l-0.08 -1.24c-0,-0.21 -0.07,-0.7 -0.13,-0.86 -0.12,-0.32 -0.25,-0.57 -0.54,-0.76 -0.26,-0.18 -0.49,-0.16 -0.79,-0.16l0 -1.05 0.92 0c0.1,0 0.17,-0.03 0.17,-0.13l0 -0.94c0,-0.08 -0.1,-0.12 -0.18,-0.12l-2.09 0c-0.08,0 -0.17,0.03 -0.17,0.1z"/>
   <path class="fil0" d="M5.05 3.34l1.62 0 0 0.45 -1.62 0 0 -0.45zm-0.27 -0.12l0 0.7c0,0.08 0.05,0.13 0.13,0.13l1.92 0c0.04,0 0.1,-0.06 0.1,-0.1l0 -0.77c0,-0.05 -0.07,-0.1 -0.13,-0.1l-1.89 0c-0.08,0 -0.13,0.05 -0.13,0.13z"/>
   <path class="fil0" d="M5 4.9c0,0.19 0.26,0.13 0.57,0.13 0.19,0 0.16,-0.27 -0.02,-0.27 -0.29,0 -0.55,-0.05 -0.55,0.13z"/>
   <path class="fil0" d="M2.52 4.9c0,0.19 0.23,0.13 0.57,0.13 0.17,0 0.2,-0.27 -0.05,-0.27 -0.27,0 -0.52,-0.05 -0.52,0.13z"/>
   <path class="fil0" d="M3.95 5.77c0.2,0 0.52,0.05 0.52,-0.12 0,-0.21 -0.25,-0.15 -0.6,-0.15 -0.11,0 -0.17,0.27 0.08,0.27z"/>
   <path class="fil0" d="M5 5.62c0,0.21 0.26,0.15 0.55,0.15 0.2,0 0.2,-0.27 0.02,-0.27l-0.47 0c-0.05,0 -0.1,0.07 -0.1,0.12z"/>
   <path class="fil0" d="M6.25 4.87c0,0.22 0.06,0.17 0.57,0.17 0.17,0 0.15,-0.27 -0.02,-0.27 -0.18,0 -0.55,-0.05 -0.55,0.1z"/>
   <path class="fil0" d="M3.9 5.03c0.22,0 0.57,0.05 0.57,-0.1 0,-0.22 -0.25,-0.17 -0.55,-0.17 -0.18,0 -0.19,0.27 -0.02,0.27z"/>
   <path class="fil0" d="M2.52 5.6c0,0.22 0.19,0.17 0.55,0.17 0.2,0 0.17,-0.27 0.03,-0.27l-0.48 0c-0.04,0 -0.1,0.06 -0.1,0.1z"/>
   <path class="fil0" d="M1.4 5.03c0.41,0 0.57,0.06 0.57,-0.15 0,-0.16 -0.39,-0.12 -0.55,-0.12 -0.18,0 -0.19,0.27 -0.02,0.27z"/>
   <path class="fil0" d="M1.45 5.77c0.26,0 0.52,0.05 0.52,-0.13 0,-0.06 -0.05,-0.13 -0.1,-0.13l-0.5 0c-0.11,0 -0.17,0.27 0.08,0.27z"/>
   <path class="fil0" d="M6.25 5.62c0,0.2 0.19,0.15 0.52,0.15 0.25,0 0.18,-0.27 0.07,-0.27l-0.47 0c-0.08,0 -0.12,0.04 -0.12,0.12z"/>
  </g>
 </g>
</svg>
