<?xml version="1.0" encoding="UTF-8"?>
<!DOCTYPE svg PUBLIC "-//W3C//DTD SVG 1.1//EN" "http://www.w3.org/Graphics/SVG/1.1/DTD/svg11.dtd">
<!-- Creator: CorelDRAW 2018 (64-Bit) -->
<svg xmlns="http://www.w3.org/2000/svg" xml:space="preserve" width="60.0001mm" height="60mm" version="1.1" style="shape-rendering:geometricPrecision; text-rendering:geometricPrecision; image-rendering:optimizeQuality; fill-rule:evenodd; clip-rule:evenodd"
viewBox="0 0 23.38 23.38"
 xmlns:xlink="http://www.w3.org/1999/xlink">
 <defs>
  <style type="text/css">
   <![CDATA[
    .fil1 {fill:none}
    .fil0 {fill:#59656C}
   ]]>
  </style>
 </defs>
 <g id="Слой_x0020_1">
  <metadata id="CorelCorpID_0Corel-Layer"/>
  <g id="_4346166688">
   <g>
    <path class="fil0" d="M5.2 15.92l12.99 0 0 1.9 -12.99 0 0 -1.9zm1.9 -3.98l4.34 0c0.3,0 0.32,-0.45 0.03,-0.45l-0.36 0 0 -2.18 4.7 0c0.31,0 0.52,0.14 0.7,0.28 0.86,0.69 0.76,1.78 0.85,2.62l0.08 0.93c0.01,0.08 -0,0.17 0,0.25 0.01,0.11 0.02,0.1 0.03,0.23l0.14 1.85 -11.76 0 0.14 -2.02c0.04,-0.45 0.04,-1.1 0.11,-1.6 0.02,-0.15 0.01,-0.32 0.03,-0.45 0.02,-0.16 0.01,-0.28 0.04,-0.44 0.08,-0.45 0.29,-0.99 0.64,-1.29 0.16,-0.14 0.38,-0.31 0.64,-0.34l0 2.16 -0.36 0c-0.29,0 -0.28,0.45 0.03,0.45zm0.78 -4.62l2.74 0 0 4.14 -2.74 0 0 -4.14zm5.63 -1.76l3.19 0 0 1.06 -3.19 0 0 -1.06zm-0.45 -0.28l0 1.65c0,0.09 0.12,0.17 0.22,0.17l1.6 0 0 1.76 -3.78 0 0 -1.68c0,-0.17 -0.08,-0.31 -0.25,-0.31l-3.14 0c-0.13,0 -0.28,0.05 -0.28,0.17l0 1.82c-0.51,0.01 -1.02,0.46 -1.29,0.86 -0.41,0.59 -0.45,1.24 -0.5,1.91l-0.28 3.81c-0.42,0 -0.64,-0.07 -0.64,0.31l0 2.16c0,0.24 0.06,0.36 0.31,0.36l13.33 0c0.25,0 0.31,-0.12 0.31,-0.36l0 -2.16c0,-0.38 -0.29,-0.31 -0.64,-0.31 0,-0.39 -0.09,-1.09 -0.11,-1.51l-0.14 -2.07c-0.01,-0.35 -0.11,-1.17 -0.21,-1.44 -0.2,-0.53 -0.42,-0.95 -0.9,-1.28 -0.44,-0.31 -0.82,-0.28 -1.32,-0.28l0 -1.76 1.54 0c0.17,0 0.28,-0.06 0.28,-0.22l0 -1.57c0,-0.13 -0.17,-0.2 -0.31,-0.2l-3.5 0c-0.13,0 -0.28,0.05 -0.28,0.17z"/>
    <path class="fil0" d="M13.17 10.71l2.72 0 0 0.76 -2.72 0 0 -0.76zm-0.45 -0.2l0 1.18c0,0.14 0.09,0.22 0.22,0.22l3.22 0c0.07,0 0.17,-0.1 0.17,-0.17l0 -1.29c0,-0.09 -0.12,-0.17 -0.22,-0.17l-3.16 0c-0.14,0 -0.22,0.09 -0.22,0.22z"/>
    <path class="fil0" d="M13.09 13.31c0,0.32 0.44,0.22 0.95,0.22 0.32,0 0.27,-0.45 -0.03,-0.45 -0.49,0 -0.92,-0.09 -0.92,0.22z"/>
    <path class="fil0" d="M8.95 13.31c0,0.32 0.39,0.22 0.95,0.22 0.28,0 0.34,-0.45 -0.08,-0.45 -0.46,0 -0.87,-0.09 -0.87,0.22z"/>
    <path class="fil0" d="M11.33 14.77c0.34,0 0.87,0.08 0.87,-0.2 0,-0.35 -0.42,-0.25 -1.01,-0.25 -0.18,0 -0.29,0.45 0.14,0.45z"/>
    <path class="fil0" d="M13.09 14.52c0,0.35 0.44,0.25 0.92,0.25 0.33,0 0.33,-0.45 0.03,-0.45l-0.78 0c-0.08,0 -0.17,0.12 -0.17,0.2z"/>
    <path class="fil0" d="M15.19 13.26c0,0.37 0.11,0.28 0.95,0.28 0.29,0 0.25,-0.45 -0.03,-0.45 -0.3,0 -0.92,-0.08 -0.92,0.17z"/>
    <path class="fil0" d="M11.24 13.54c0.37,0 0.95,0.08 0.95,-0.17 0,-0.38 -0.41,-0.28 -0.92,-0.28 -0.31,0 -0.32,0.45 -0.03,0.45z"/>
    <path class="fil0" d="M8.95 14.49c0,0.37 0.32,0.28 0.92,0.28 0.34,0 0.29,-0.45 0.06,-0.45l-0.81 0c-0.07,0 -0.17,0.1 -0.17,0.17z"/>
    <path class="fil0" d="M7.07 13.54c0.69,0 0.95,0.1 0.95,-0.25 0,-0.27 -0.65,-0.2 -0.92,-0.2 -0.31,0 -0.32,0.45 -0.03,0.45z"/>
    <path class="fil0" d="M7.16 14.77c0.43,0 0.87,0.08 0.87,-0.22 0,-0.1 -0.08,-0.22 -0.17,-0.22l-0.84 0c-0.18,0 -0.29,0.45 0.14,0.45z"/>
    <path class="fil0" d="M15.19 14.52c0,0.33 0.32,0.25 0.87,0.25 0.42,0 0.3,-0.45 0.11,-0.45l-0.78 0c-0.13,0 -0.2,0.07 -0.2,0.2z"/>
   </g>
  </g>
  <rect class="fil1" y="-0" width="23.38" height="23.38"/>
 </g>
</svg>
