<?xml version="1.0" encoding="UTF-8"?>
<!DOCTYPE svg PUBLIC "-//W3C//DTD SVG 1.1//EN" "http://www.w3.org/Graphics/SVG/1.1/DTD/svg11.dtd">
<!-- Creator: CorelDRAW 2018 (64-Bit) -->
<svg xmlns="http://www.w3.org/2000/svg" xml:space="preserve" width="60mm" height="60mm" version="1.1" style="shape-rendering:geometricPrecision; text-rendering:geometricPrecision; image-rendering:optimizeQuality; fill-rule:evenodd; clip-rule:evenodd"
viewBox="0 0 21.42 21.42"
 xmlns:xlink="http://www.w3.org/1999/xlink">
 <defs>
  <style type="text/css">
   <![CDATA[
    .str0 {stroke:#59656C;stroke-width:0.36;stroke-miterlimit:22.9256}
    .fil0 {fill:none}
    .fil1 {fill:#59656C}
   ]]>
  </style>
 </defs>
 <g id="Слой_x0020_1">
  <metadata id="CorelCorpID_0Corel-Layer"/>
  <g id="_5112032496">
   <g>
    <g>
     <path class="fil0 str0" d="M1.27 12.43c0,0.44 0.82,0.78 1.04,0.04l0.48 -1.97c0.1,-0.43 0.1,-0.5 0.09,-0.01 -0.03,2.28 -0.26,4.58 -0.26,6.86 0,0.4 0.61,0.79 1.04,0.25 0.17,-0.22 0.63,-3.87 0.75,-4.73l0.78 4.75c0.33,0.44 0.99,0.25 1.06,-0.32l-0.29 -6.76c-0.03,-0.38 0.03,-0.3 0.1,0l0.65 2.23c0.45,0.36 0.86,-0.04 0.86,-0.38 0,-0.31 -0.61,-4.05 -0.69,-4.49 -0.06,-0.34 -0.15,-0.5 -0.37,-0.68 -0.26,-0.21 -0.87,-0.46 -1.22,-0.54 -0.38,0.45 -1.41,0.39 -1.73,0 -0.39,0.09 -0.78,0.29 -1.12,0.48 -0.48,0.27 -0.45,0.64 -0.61,1.61 -0.06,0.36 -0.56,3.35 -0.56,3.66z"/>
     <path class="fil0 str0" d="M3.11 4.83c0,0.4 0.16,0.73 0.36,0.95 0.68,0.76 2.27,0.44 2.27,-0.95 0,-0.88 -0.96,-1.58 -1.88,-1.14 -0.09,0.04 -0.29,0.18 -0.36,0.25 -0.17,0.17 -0.38,0.56 -0.38,0.89z"/>
    </g>
    <g>
     <path class="fil0 str0" d="M13.85 12.43c0,0.44 0.82,0.78 1.04,0.04l0.48 -1.97c0.1,-0.43 0.1,-0.5 0.09,-0.01 -0.03,2.28 -0.26,4.58 -0.26,6.86 0,0.4 0.61,0.79 1.04,0.25 0.17,-0.22 0.63,-3.87 0.75,-4.73l0.78 4.75c0.33,0.44 0.99,0.25 1.06,-0.32l-0.29 -6.76c-0.03,-0.38 0.03,-0.3 0.1,0l0.65 2.23c0.45,0.36 0.86,-0.04 0.86,-0.38 0,-0.31 -0.61,-4.05 -0.69,-4.49 -0.06,-0.34 -0.15,-0.5 -0.37,-0.68 -0.26,-0.21 -0.87,-0.46 -1.22,-0.54 -0.38,0.45 -1.41,0.39 -1.73,0 -0.39,0.09 -0.78,0.29 -1.12,0.48 -0.48,0.27 -0.45,0.64 -0.61,1.61 -0.06,0.36 -0.56,3.35 -0.56,3.66z"/>
     <path class="fil0 str0" d="M15.68 4.83c0,0.4 0.16,0.73 0.36,0.95 0.68,0.76 2.27,0.44 2.27,-0.95 0,-0.88 -0.96,-1.58 -1.88,-1.14 -0.09,0.04 -0.29,0.18 -0.36,0.25 -0.17,0.17 -0.38,0.56 -0.38,0.89z"/>
    </g>
   </g>
   <path class="fil1" d="M9.68 12.85l2.57 0c0.11,0 0.21,0.09 0.21,0.21l0 0c0,0.11 -0.09,0.21 -0.21,0.21l-2.57 0 0.59 0.59c0.08,0.08 0.08,0.21 0,0.29l-0 0c-0.08,0.08 -0.21,0.08 -0.29,0l-0.92 -0.92c-0.01,-0.01 -0.01,-0.01 -0.02,-0.02l0 0c-0.04,-0.04 -0.06,-0.09 -0.06,-0.15l0 -0 0 -0 0 0c0,-0.07 0.03,-0.13 0.09,-0.17l0.91 -0.91c0.08,-0.08 0.21,-0.08 0.29,0l0 0c0.08,0.08 0.08,0.21 0,0.29l-0.58 0.58z"/>
   <path class="fil1" d="M11.74 9.21l-2.57 0c-0.11,0 -0.21,0.09 -0.21,0.21l0 0c0,0.11 0.09,0.21 0.21,0.21l2.57 0 -0.59 0.59c-0.08,0.08 -0.08,0.21 0,0.29l0 0c0.08,0.08 0.21,0.08 0.29,0l0.92 -0.92c0.01,-0.01 0.01,-0.01 0.02,-0.02l0 0c0.04,-0.04 0.06,-0.09 0.06,-0.15l0 -0 0 -0 0 0c0,-0.07 -0.03,-0.13 -0.09,-0.17l-0.91 -0.91c-0.08,-0.08 -0.21,-0.08 -0.29,0l-0 0c-0.08,0.08 -0.08,0.21 0,0.29l0.58 0.58z"/>
  </g>
  <rect class="fil0" x="-0" width="21.42" height="21.42"/>
 </g>
</svg>
