<?xml version="1.0" encoding="UTF-8"?>
<!DOCTYPE svg PUBLIC "-//W3C//DTD SVG 1.1//EN" "http://www.w3.org/Graphics/SVG/1.1/DTD/svg11.dtd">
<!-- Creator: CorelDRAW 2018 (64-Bit) -->
<svg xmlns="http://www.w3.org/2000/svg" xml:space="preserve" width="60.0632mm" height="47mm" version="1.1" style="shape-rendering:geometricPrecision; text-rendering:geometricPrecision; image-rendering:optimizeQuality; fill-rule:evenodd; clip-rule:evenodd"
viewBox="0 0 59.92 46.89"
 xmlns:xlink="http://www.w3.org/1999/xlink">
 <defs>
  <style type="text/css">
   <![CDATA[
    .str0 {stroke:#59656C;stroke-width:1;stroke-miterlimit:22.9256}
    .fil1 {fill:none}
    .fil0 {fill:#55ADAD}
   ]]>
  </style>
 </defs>
 <g id="Слой_x0020_1">
  <metadata id="CorelCorpID_0Corel-Layer"/>
  <g id="_1629695872">
   <path class="fil0" d="M51.78 34.11l3.51 0 0 -3.51c0,-0.19 0.16,-0.35 0.35,-0.35l0 0c0.19,0 0.35,0.16 0.35,0.35l0 3.87 0 0 -0 0.01 -0 0.01 -0 0.01 -0 0.01 -0 0.01 -0 0.01 -0 0.01 -0 0.01 -0 0.01c-0,0.01 -0,0.01 -0,0.02l-0 0.01c-0,0.01 -0.01,0.02 -0.01,0.02l-0 0.01c-0,0.01 -0,0.01 -0.01,0.02 -0,0.01 -0.01,0.02 -0.02,0.03 -0.05,0.09 -0.15,0.15 -0.26,0.17l-0.01 0c-0.01,0 -0.01,0 -0.02,0l-0.01 0 -0.01 0 -3.87 0c-0.19,0 -0.35,-0.16 -0.35,-0.35l0 0c0,-0.19 0.16,-0.35 0.35,-0.35z"/>
   <path class="fil0" d="M51.78 4.99l3.51 0 0 3.51c0,0.19 0.16,0.35 0.35,0.35l0 0c0.19,0 0.35,-0.16 0.35,-0.35l0 -3.87 0 0 -0 -0.01 -0 -0.01 -0 -0.01 -0 -0.01 -0 -0.01 -0 -0.01 -0 -0.01 -0 -0.01 -0 -0.01c-0,-0.01 -0,-0.01 -0,-0.02l-0 -0.01c-0,-0.01 -0.01,-0.02 -0.01,-0.02l-0 -0.01c-0,-0.01 -0,-0.01 -0.01,-0.02 -0,-0.01 -0.01,-0.02 -0.02,-0.03 -0.05,-0.09 -0.15,-0.15 -0.26,-0.17l-0.01 -0c-0.01,-0 -0.01,-0 -0.02,-0l-0.01 -0 -0.01 -0 -3.87 0c-0.19,0 -0.35,0.16 -0.35,0.35l0 0c0,0.19 0.16,0.35 0.35,0.35z"/>
   <path class="fil0" d="M34.16 34.11l-3.51 0 0 -3.51c0,-0.19 -0.16,-0.35 -0.35,-0.35l0 0c-0.19,0 -0.35,0.16 -0.35,0.35l0 3.87 0 0 0 0.01 0 0.01 0 0.01 0 0.01 0 0.01 0 0.01 0 0.01 0 0.01 0 0.01c0,0.01 0,0.01 0,0.02l0 0.01c0,0.01 0.01,0.02 0.01,0.02l0 0.01c0,0.01 0,0.01 0.01,0.02 0,0.01 0.01,0.02 0.02,0.03 0.05,0.09 0.15,0.15 0.26,0.17l0.01 0c0.01,0 0.01,0 0.02,0l0.01 0 0.01 0 3.87 0c0.19,0 0.35,-0.16 0.35,-0.35l0 0c0,-0.19 -0.16,-0.35 -0.35,-0.35z"/>
   <path class="fil0" d="M34.16 4.99l-3.51 0 0 3.51c0,0.19 -0.16,0.35 -0.35,0.35l0 0c-0.19,0 -0.35,-0.16 -0.35,-0.35l0 -3.87 0 0 0 -0.01 0 -0.01 0 -0.01 0 -0.01 0 -0.01 0 -0.01 0 -0.01 0 -0.01 0 -0.01c0,-0.01 0,-0.01 0,-0.02l0 -0.01c0,-0.01 0.01,-0.02 0.01,-0.02l0 -0.01c0,-0.01 0,-0.01 0.01,-0.02 0,-0.01 0.01,-0.02 0.02,-0.03 0.05,-0.09 0.15,-0.15 0.26,-0.17l0.01 -0c0.01,-0 0.01,-0 0.02,-0l0.01 -0 0.01 -0 3.87 0c0.19,0 0.35,0.16 0.35,0.35l0 0c0,0.19 -0.16,0.35 -0.35,0.35z"/>
   <g>
    <path class="fil1 str0" d="M45.01 41.66c0.35,1.17 1.66,1.23 2.11,0.31 0.63,-3.22 0.59,-7.61 -0.39,-9.5 -0.56,-1.12 -2.88,-4.77 -2.95,-5.59 -0.09,-1.01 0.49,-7.15 0.77,-7.73 1.37,0.85 2.41,2.42 3.74,3.14 0.5,0.27 6.64,1.51 6.47,-0.42 -0.11,-1.26 -3.54,-1.13 -6.15,-2.47 -1.57,-2.21 -2.8,-3.71 -3.45,-4.17 -1,-0.71 -5.73,-1.5 -7.11,-1.05 -2.58,0.85 -4.87,0.72 -6.19,2.49 -0.63,0.84 -1.22,1.6 -1.85,2.49 -0.74,1.04 -1.51,2.22 -0.77,2.94 1.29,1.24 3.65,-3.66 4.91,-4.16 0.27,-0.11 4.07,-0.87 4.79,-0.55 0.29,1.09 -0.33,4.23 -0.44,5.63 -0.18,2.22 -0.58,3.47 0.67,5.21 0.81,1.13 1.97,2.32 2.86,3.32 3.72,4.19 1.64,5.69 2.97,10.08z"/>
    <path class="fil1 str0" d="M41.54 34.14c-0.35,-0.68 -1.69,-2.51 -2.34,-2.96 -0.83,0.77 -1.49,2.05 -2.12,3.06 -1.13,1.79 -1.92,2.47 -3.74,4.07 -0.71,0.63 -2.62,1.57 -1.94,3 0.97,2.01 2.97,-0.33 5.4,-1.98 2.48,-1.68 3.07,-2.18 4.48,-4.7 0.18,-0.33 0.06,-0.09 0.25,-0.5z"/>
    <path class="fil1 str0" d="M40.25 9.21c0,1.01 0.41,1.85 0.91,2.4 1.71,1.9 5.7,1.1 5.7,-2.4 0,-2.21 -2.41,-3.96 -4.74,-2.87 -0.22,0.1 -0.73,0.46 -0.91,0.64 -0.43,0.43 -0.96,1.41 -0.96,2.24z"/>
   </g>
   <path class="fil1 str0" d="M8.47 36.61c0.44,0.64 1.56,2.76 2.08,3.59 0.22,0.36 0.66,0.74 1.27,0.58 0.46,-0.12 0.82,-0.51 0.82,-1.06 -0,-0.47 -1.01,-2.05 -1.3,-2.54 -0.13,-0.23 -0.64,-1.04 -0.68,-1.22l6.84 -0c0.11,0.78 -0.08,3.01 0.02,3.89 0.15,1.26 1.9,1.3 2.17,0.14 0.07,-0.32 0.03,-3.31 0.03,-3.88 0,-0.69 0.24,-1.89 1.11,-2.06 0.79,-0.16 0.65,-0.26 1.99,0.66 0.98,0.67 1.66,0.92 2.54,0.03 1.3,-1.32 -0.57,-2.26 -0.8,-3.78 -0.1,-0.66 -0.08,-1.35 -0.31,-1.96 -0.35,-0.95 -0.59,-0.68 0.02,-1.49 0.3,-0.4 0.71,-0.9 0.65,-1.62 -0.08,-0.99 -0.95,-1.43 -1.87,-0.63 -0.93,0.8 -0.68,0.69 -1.94,1.41 -2.27,1.29 -3.91,2.39 -6.17,2.4l-6.85 0c-0.92,0.01 -1.99,-1.87 -3.02,-1.93 -0.59,-0.03 -1.01,0.35 -1.13,0.82 -0.26,1.02 1.46,2.01 2.23,2.63 0.32,0.24 0.28,0.2 0.27,0.69 -0,1.32 -0.01,2.64 0,3.96 0,0.45 -1,2.22 -1.23,2.67 -0.47,0.96 -1.28,1.96 -0.31,2.69 0.48,0.36 1.13,0.18 1.45,-0.15 0.33,-0.35 1.92,-3.71 2.1,-3.84z"/>
  </g>
  <rect class="fil1" width="59.92" height="46.89"/>
 </g>
</svg>
