<?xml version="1.0" encoding="UTF-8"?>
<!DOCTYPE svg PUBLIC "-//W3C//DTD SVG 1.1//EN" "http://www.w3.org/Graphics/SVG/1.1/DTD/svg11.dtd">
<!-- Creator: CorelDRAW 2018 (64-Bit) -->
<svg xmlns="http://www.w3.org/2000/svg" xml:space="preserve" width="60mm" height="60mm" version="1.1" style="shape-rendering:geometricPrecision; text-rendering:geometricPrecision; image-rendering:optimizeQuality; fill-rule:evenodd; clip-rule:evenodd"
viewBox="0 0 13.43 13.43"
 xmlns:xlink="http://www.w3.org/1999/xlink">
 <defs>
  <style type="text/css">
   <![CDATA[
    .str0 {stroke:#59656C;stroke-width:0.22;stroke-miterlimit:22.9256}
    .fil0 {fill:none}
    .fil1 {fill:#59656C}
   ]]>
  </style>
 </defs>
 <g id="Слой_x0020_1">
  <metadata id="CorelCorpID_0Corel-Layer"/>
  <g id="_1838773280">
   <g>
    <path class="fil0 str0" d="M4.65 7.84c0,0.29 0.53,0.51 0.68,0.02l0.31 -1.29c0.07,-0.28 0.06,-0.32 0.06,-0 -0.02,1.49 -0.17,2.99 -0.17,4.48 0,0.26 0.4,0.51 0.68,0.17 0.11,-0.14 0.41,-2.53 0.49,-3.09l0.51 3.1c0.21,0.29 0.65,0.16 0.69,-0.21l-0.19 -4.41c-0.02,-0.25 0.02,-0.2 0.06,0l0.42 1.45c0.29,0.23 0.56,-0.03 0.56,-0.25 0,-0.2 -0.4,-2.64 -0.45,-2.93 -0.04,-0.22 -0.1,-0.32 -0.24,-0.44 -0.17,-0.14 -0.57,-0.3 -0.8,-0.35 -0.25,0.29 -0.92,0.26 -1.13,0 -0.26,0.06 -0.51,0.19 -0.73,0.31 -0.31,0.18 -0.3,0.42 -0.4,1.05 -0.04,0.23 -0.36,2.19 -0.36,2.39z"/>
    <path class="fil0 str0" d="M5.86 2.88c0,0.26 0.11,0.48 0.24,0.62 0.44,0.49 1.48,0.29 1.48,-0.62 0,-0.57 -0.63,-1.03 -1.23,-0.75 -0.06,0.03 -0.19,0.12 -0.24,0.17 -0.11,0.11 -0.25,0.37 -0.25,0.58z"/>
   </g>
   <g>
    <path class="fil1" d="M2.36 6.45l1.61 0c0.07,0 0.13,0.06 0.13,0.13l0 0c0,0.07 -0.06,0.13 -0.13,0.13l-1.61 0 0.37 0.37c0.05,0.05 0.05,0.13 0,0.18l-0 0c-0.05,0.05 -0.13,0.05 -0.18,0l-0.58 -0.58c-0,-0 -0.01,-0.01 -0.01,-0.01l0 0c-0.03,-0.03 -0.04,-0.06 -0.04,-0.09l0 -0 0 -0 0 0c0,-0.04 0.02,-0.08 0.06,-0.11l0.57 -0.57c0.05,-0.05 0.13,-0.05 0.18,0l0 0c0.05,0.05 0.05,0.13 0,0.18l-0.37 0.37z"/>
    <path class="fil1" d="M11.07 6.45l-1.61 0c-0.07,0 -0.13,0.06 -0.13,0.13l0 0c0,0.07 0.06,0.13 0.13,0.13l1.61 0 -0.37 0.37c-0.05,0.05 -0.05,0.13 0,0.18l0 0c0.05,0.05 0.13,0.05 0.18,0l0.58 -0.58c0,-0 0.01,-0.01 0.01,-0.01l0 0c0.03,-0.03 0.04,-0.06 0.04,-0.09l0 -0 0 -0 0 0c0,-0.04 -0.02,-0.08 -0.06,-0.11l-0.57 -0.57c-0.05,-0.05 -0.13,-0.05 -0.18,0l-0 0c-0.05,0.05 -0.05,0.13 0,0.18l0.37 0.37z"/>
   </g>
  </g>
  <rect class="fil0" x="-0" width="13.43" height="13.43"/>
 </g>
</svg>
