<?xml version="1.0" encoding="UTF-8"?>
<!DOCTYPE svg PUBLIC "-//W3C//DTD SVG 1.1//EN" "http://www.w3.org/Graphics/SVG/1.1/DTD/svg11.dtd">
<!-- Creator: CorelDRAW 2018 (64-Bit) -->
<svg xmlns="http://www.w3.org/2000/svg" xml:space="preserve" width="42.8832mm" height="42.7346mm" version="1.1" style="shape-rendering:geometricPrecision; text-rendering:geometricPrecision; image-rendering:optimizeQuality; fill-rule:evenodd; clip-rule:evenodd"
viewBox="0 0 6.86 6.84"
 xmlns:xlink="http://www.w3.org/1999/xlink">
 <defs>
  <style type="text/css">
   <![CDATA[
    .fil1 {fill:#59656C}
    .fil0 {fill:#59656C;fill-rule:nonzero}
   ]]>
  </style>
 </defs>
 <g id="Слой_x0020_1">
  <metadata id="CorelCorpID_0Corel-Layer"/>
  <path class="fil0" d="M2.04 4.22c0,0.04 0.03,0.08 0.07,0.11 0.02,0.02 0.05,0.03 0.08,0.03 0.03,0 0.05,0 0.08,-0.01 0.04,-0.02 0.08,-0.06 0.11,-0.14l0.22 -0.92 0.02 -0.09c0.02,-0.09 0.03,-0.13 0.09,-0.14 0.09,-0.01 0.09,0.06 0.09,0.2l-0 0.04c-0.01,0.51 -0.03,1.01 -0.06,1.52 -0.03,0.56 -0.06,1.12 -0.06,1.69 0,0.03 0.01,0.06 0.03,0.09 0.02,0.03 0.05,0.05 0.09,0.06 0.03,0.01 0.07,0.02 0.11,0.01 0.04,-0.01 0.08,-0.04 0.12,-0.09 0.05,-0.06 0.19,-1.08 0.27,-1.73 0.03,-0.2 0.05,-0.36 0.06,-0.44l0.08 -0.5 0.44 2.7c0.03,0.04 0.08,0.06 0.12,0.07 0.02,0 0.05,0 0.07,-0.01 0.02,-0.01 0.05,-0.02 0.06,-0.03 0.04,-0.03 0.07,-0.08 0.08,-0.15l-0.13 -3.15c-0.01,-0.07 -0,-0.11 -0,-0.13 0.01,-0.05 0.04,-0.08 0.09,-0.08 0.03,0 0.06,0.02 0.08,0.05 0.01,0.02 0.03,0.07 0.04,0.13l0.29 1.01c0.03,0.02 0.07,0.03 0.1,0.03 0.02,0 0.05,-0.01 0.06,-0.02 0.02,-0.01 0.04,-0.03 0.05,-0.05 0.02,-0.03 0.04,-0.07 0.04,-0.1 0,-0.05 -0.04,-0.35 -0.1,-0.7 -0.09,-0.56 -0.2,-1.26 -0.22,-1.38 -0.01,-0.07 -0.03,-0.12 -0.05,-0.16 -0.02,-0.04 -0.05,-0.07 -0.1,-0.11 -0.05,-0.04 -0.14,-0.09 -0.23,-0.13 -0.09,-0.04 -0.19,-0.08 -0.27,-0.1 -0.01,0 -0.01,0.01 -0.02,0.01 -0.11,0.09 -0.27,0.13 -0.43,0.13 -0.16,-0 -0.31,-0.05 -0.41,-0.13l-0.01 -0.01c-0.07,0.02 -0.14,0.05 -0.21,0.08 -0.09,0.04 -0.17,0.08 -0.24,0.13 -0.16,0.09 -0.17,0.22 -0.22,0.5 -0.01,0.06 -0.02,0.12 -0.03,0.2l-0.01 0.05c-0.05,0.3 -0.25,1.52 -0.25,1.64zm-0.02 0.24c-0.08,-0.06 -0.14,-0.14 -0.14,-0.24 0,-0.14 0.2,-1.37 0.25,-1.67l0.01 -0.05c0.01,-0.06 0.02,-0.13 0.03,-0.19 0.05,-0.34 0.07,-0.49 0.3,-0.61 0.08,-0.05 0.17,-0.09 0.26,-0.13 0.09,-0.04 0.19,-0.08 0.28,-0.1l0.05 -0.01 0.03 0.04c0.01,0.01 0.01,0.02 0.02,0.02 0.07,0.06 0.19,0.09 0.31,0.09 0.12,0 0.25,-0.03 0.32,-0.09 0.01,-0.01 0.02,-0.02 0.03,-0.03l0.03 -0.04 0.05 0.01c0.09,0.02 0.22,0.07 0.34,0.12 0.1,0.05 0.2,0.1 0.27,0.15 0.06,0.05 0.1,0.1 0.13,0.15 0.03,0.06 0.05,0.12 0.07,0.21 0.02,0.13 0.14,0.83 0.22,1.38 0.06,0.36 0.1,0.67 0.1,0.73 0,0.07 -0.03,0.14 -0.07,0.2 -0.03,0.03 -0.06,0.06 -0.1,0.09 -0.04,0.02 -0.09,0.04 -0.14,0.04 -0.07,0 -0.14,-0.02 -0.22,-0.08l-0.02 -0.02 -0.18 -0.61 0.11 2.68 -0 0.01c-0.01,0.12 -0.07,0.21 -0.15,0.26 -0.04,0.03 -0.08,0.05 -0.12,0.06 -0.04,0.01 -0.09,0.02 -0.13,0.01 -0.09,-0.01 -0.18,-0.06 -0.24,-0.14l-0.01 -0.02 -0.28 -1.72c-0.09,0.66 -0.22,1.63 -0.3,1.72 -0.06,0.08 -0.13,0.12 -0.2,0.14 -0.07,0.02 -0.14,0.01 -0.2,-0.01 -0.06,-0.02 -0.11,-0.06 -0.15,-0.11 -0.04,-0.05 -0.07,-0.12 -0.07,-0.19 0,-0.56 0.03,-1.13 0.06,-1.7 0.02,-0.32 0.04,-0.65 0.05,-0.97l-0.1 0.4 -0 0c-0.04,0.13 -0.12,0.21 -0.2,0.24 -0.05,0.02 -0.11,0.02 -0.16,0.01 -0.05,-0.01 -0.1,-0.03 -0.14,-0.06zm0.69 -1.22l0.02 0c0.02,-0 0.03,-0.01 -0.01,-0l-0.01 0zm0 0c-0.02,0 -0,0 0.02,0l-0.02 -0z"/>
  <path class="fil0" d="M2.9 0.68c0,0.08 0.01,0.15 0.04,0.21 0.03,0.07 0.07,0.13 0.11,0.18 0.1,0.11 0.24,0.16 0.38,0.16 0.07,0 0.13,-0.01 0.2,-0.03 0.06,-0.02 0.12,-0.06 0.17,-0.1 0.1,-0.09 0.17,-0.23 0.17,-0.42 0,-0.07 -0.02,-0.14 -0.05,-0.21 -0.04,-0.09 -0.11,-0.17 -0.19,-0.22 -0.08,-0.05 -0.18,-0.09 -0.29,-0.09 -0.08,0 -0.16,0.02 -0.24,0.05 -0.02,0.01 -0.05,0.03 -0.07,0.05 -0.03,0.02 -0.06,0.04 -0.07,0.06l-0 0c-0.04,0.04 -0.08,0.1 -0.11,0.18 -0.03,0.06 -0.04,0.12 -0.04,0.18zm-0.11 0.27c-0.03,-0.08 -0.05,-0.17 -0.05,-0.27 0,-0.08 0.02,-0.17 0.06,-0.25 0.04,-0.09 0.1,-0.18 0.15,-0.23l-0 -0c0.02,-0.02 0.06,-0.05 0.09,-0.07 0.04,-0.03 0.07,-0.05 0.1,-0.06 0.1,-0.05 0.21,-0.07 0.3,-0.07 0.14,0 0.27,0.04 0.38,0.11 0.11,0.07 0.2,0.17 0.25,0.29 0.04,0.08 0.06,0.18 0.06,0.28 0,0.24 -0.09,0.42 -0.22,0.54 -0.07,0.06 -0.14,0.1 -0.22,0.13 -0.08,0.03 -0.17,0.04 -0.25,0.04 -0.19,0 -0.37,-0.07 -0.5,-0.21 -0.06,-0.06 -0.11,-0.14 -0.14,-0.23z"/>
  <path class="fil1" d="M0.32 3.23l1.15 0c0.05,0 0.09,0.04 0.09,0.09l0 0c0,0.05 -0.04,0.09 -0.09,0.09l-1.15 0 0.27 0.27c0.04,0.04 0.04,0.09 0,0.13l-0 0c-0.04,0.04 -0.09,0.04 -0.13,0l-0.41 -0.41c-0,-0 -0.01,-0 -0.01,-0.01l0 0c-0.02,-0.02 -0.03,-0.04 -0.03,-0.07l0 -0 0 -0 0 0c0,-0.03 0.02,-0.06 0.04,-0.08l0.41 -0.41c0.04,-0.04 0.09,-0.04 0.13,0l0 0c0.04,0.04 0.04,0.09 0,0.13l-0.26 0.26z"/>
  <path class="fil1" d="M6.55 3.23l-1.15 0c-0.05,0 -0.09,0.04 -0.09,0.09l0 0c0,0.05 0.04,0.09 0.09,0.09l1.15 0 -0.27 0.27c-0.04,0.04 -0.04,0.09 0,0.13l0 0c0.04,0.04 0.09,0.04 0.13,0l0.41 -0.41c0,-0 0.01,-0 0.01,-0.01l0 0c0.02,-0.02 0.03,-0.04 0.03,-0.07l0 -0 0 -0 0 0c0,-0.03 -0.02,-0.06 -0.04,-0.08l-0.41 -0.41c-0.04,-0.04 -0.09,-0.04 -0.13,0l-0 0c-0.04,0.04 -0.04,0.09 0,0.13l0.26 0.26z"/>
 </g>
</svg>
