<?xml version="1.0" encoding="UTF-8"?>
<!DOCTYPE svg PUBLIC "-//W3C//DTD SVG 1.1//EN" "http://www.w3.org/Graphics/SVG/1.1/DTD/svg11.dtd">
<!-- Creator: CorelDRAW 2018 (64-Bit) -->
<svg xmlns="http://www.w3.org/2000/svg" xml:space="preserve" width="60mm" height="60mm" version="1.1" style="shape-rendering:geometricPrecision; text-rendering:geometricPrecision; image-rendering:optimizeQuality; fill-rule:evenodd; clip-rule:evenodd"
viewBox="0 0 41.21 41.21"
 xmlns:xlink="http://www.w3.org/1999/xlink">
 <defs>
  <style type="text/css">
   <![CDATA[
    .str0 {stroke:#59656C;stroke-width:0.69;stroke-miterlimit:22.9256}
    .fil0 {fill:none}
   ]]>
  </style>
 </defs>
 <g id="Слой_x0020_1">
  <metadata id="CorelCorpID_0Corel-Layer"/>
  <g id="_4738772560">
   <path class="fil0 str0" d="M3.24 14.85c-0.03,1.16 -0.03,2.29 -0.02,3.45 0.03,1.16 0.47,1.51 1.3,1.48 0.92,-0.03 1.55,-1.2 2.73,-1.06 1.45,0.17 2.48,1.56 2.19,3 -0.19,0.95 -1.02,1.84 -1.87,2.13 -0.91,0.32 -1.6,-0.36 -2.38,-0.74 -0.85,-0.42 -1.92,-0.7 -1.97,1.05 -0.01,1.15 -0.01,2.29 0,3.44 0.15,0.87 0.84,0.83 1.73,0.85 1.57,0.02 3.87,-0.38 3.98,1.1 0.09,1.19 -0.84,1.2 -1.04,2.21 -0.36,1.83 1.1,3.01 2.88,2.88 1.19,-0.29 2.24,-1.04 2.11,-2.42 -0.09,-1.01 -0.64,-1.39 -0.92,-1.89 -0.9,-1.58 0.95,-1.9 2.06,-1.89 0.74,0.01 1.47,-0 2.21,0 0.72,0 1.21,-0.19 1.26,-0.93 0,-0.03 0,-0.07 0.01,-0.1 -0.01,-0.63 -0.01,-1.25 -0.01,-1.87 -0,-0.25 -0,-0.49 0,-0.73 0,-0.22 0,-0.43 0.01,-0.65 0.05,-1.74 1.12,-1.47 1.97,-1.05 0.77,0.38 1.47,1.06 2.38,0.74 0.85,-0.3 1.67,-1.19 1.87,-2.13 0.29,-1.44 -0.74,-2.83 -2.19,-3 -1.18,-0.14 -1.81,1.03 -2.73,1.06 -0.83,0.03 -1.27,-0.32 -1.3,-1.48 -0.01,-1.16 -0.01,-2.29 0.02,-3.45 0.01,-0.01 0.01,-0.03 0.02,-0.04 -0.25,-0.81 -0.98,-0.66 -2.24,-0.67 -0.87,-0.01 -3.14,0.34 -3.47,-0.83 -0.13,-0.45 0.01,-0.85 0.23,-1.21 0.41,-0.68 0.89,-1.09 0.83,-2.03 -0.07,-1.03 -0.81,-1.81 -1.83,-2.05 -2.58,-0.61 -4.19,1.97 -2.62,3.8 0.37,0.43 0.79,1.11 0.28,1.79 -0.45,0.6 -1.18,0.54 -2.08,0.54 -1.21,0 -2.84,-0.38 -3.4,0.71z"/>
   <path class="fil0 str0" d="M17.52 14.85c-0.03,1.16 -0.03,2.29 -0.02,3.45 0.03,1.16 0.47,1.51 1.3,1.48 0.92,-0.03 1.55,-1.2 2.73,-1.06 1.45,0.17 2.48,1.56 2.19,3 -0.19,0.95 -1.02,1.84 -1.87,2.13 -0.91,0.32 -1.6,-0.36 -2.38,-0.74 -0.85,-0.42 -1.92,-0.7 -1.97,1.05 -0.01,1.15 -0.01,2.29 0,3.44 0.15,0.87 0.84,0.83 1.73,0.85 1.57,0.02 3.87,-0.38 3.98,1.1 0.09,1.19 -0.84,1.2 -1.04,2.21 -0.36,1.83 1.1,3.01 2.88,2.88 1.19,-0.29 2.24,-1.04 2.11,-2.42 -0.09,-1.01 -0.64,-1.39 -0.92,-1.89 -0.9,-1.58 0.95,-1.9 2.06,-1.89 0.74,0.01 1.47,-0 2.21,0 0.72,0 1.21,-0.19 1.26,-0.93 0.09,-1.23 -0.17,-3.37 0.2,-4.16 0.25,-0.54 0.88,-0.79 1.5,-0.56 0.83,0.31 1.18,1.24 2.46,1.07 0.93,-0.12 1.66,-0.95 2,-2.01 0.06,-0.6 0.05,-0.59 -0.01,-1.19 -0.44,-1.45 -1.26,-2.02 -2.82,-1.83 -0.66,0.27 -1.48,0.99 -1.92,1.03 -1.85,0.17 -1.41,-2.31 -1.41,-4.2 -0,-1.75 -0.61,-1.49 -2.19,-1.51 -0.87,-0.01 -3.14,0.34 -3.47,-0.83 -0.13,-0.45 0.01,-0.85 0.23,-1.21 0.41,-0.68 0.89,-1.09 0.83,-2.03 -0.07,-1.03 -0.81,-1.81 -1.83,-2.05 -2.58,-0.61 -4.19,1.97 -2.62,3.8 0.37,0.43 0.79,1.11 0.28,1.79 -0.45,0.6 -1.18,0.54 -2.08,0.54 -1.21,0 -2.84,-0.38 -3.4,0.71z"/>
  </g>
  <rect class="fil0" x="-0" width="41.21" height="41.21"/>
 </g>
</svg>
