<?xml version="1.0" encoding="UTF-8"?>
<!DOCTYPE svg PUBLIC "-//W3C//DTD SVG 1.1//EN" "http://www.w3.org/Graphics/SVG/1.1/DTD/svg11.dtd">
<!-- Creator: CorelDRAW 2018 (64-Bit) -->
<svg xmlns="http://www.w3.org/2000/svg" xml:space="preserve" width="60mm" height="60mm" version="1.1" style="shape-rendering:geometricPrecision; text-rendering:geometricPrecision; image-rendering:optimizeQuality; fill-rule:evenodd; clip-rule:evenodd"
viewBox="0 0 21.77 21.77"
 xmlns:xlink="http://www.w3.org/1999/xlink">
 <defs>
  <style type="text/css">
   <![CDATA[
    .fil2 {fill:none}
    .fil1 {fill:#59656C}
    .fil0 {fill:white}
   ]]>
  </style>
 </defs>
 <g id="Слой_x0020_1">
  <metadata id="CorelCorpID_0Corel-Layer"/>
  <g id="_5112067696">
   <path class="fil0" d="M10.96 4.46c-0.07,0.02 -0.69,0.46 -0.8,0.54 -0.26,0.19 -0.51,0.35 -0.77,0.54l-3.1 2.17c-0.26,0.18 -0.51,0.37 -0.78,0.55 -0.14,0.1 -0.26,0.18 -0.39,0.28 -0.09,0.07 -0.3,0.2 -0.37,0.27 4.03,0.03 8.13,-0.03 12.16,0l0.09 -0c-0.09,-0.09 -2.89,-2.07 -3.03,-2.17l-3.02 -2.17z"/>
   <path class="fil1" d="M5.05 16.21c0.3,0 0.6,0 0.89,0 0.24,0 0.66,0.07 0.72,-0.16 0.03,-0.13 0.01,-5.18 0.01,-5.24 0,-0.19 0.05,-0.72 -0.08,-0.79 -0.11,-0.06 -0.26,-0 -0.27,0.13 -0.01,0.13 0,0.29 0,0.42l0 5.26c-0.41,0 -0.82,0 -1.23,-0 -0.49,-0 -0.42,0.05 -0.42,0.79 0,1.33 -0.21,1.07 1.36,1.07l9.73 0c1.38,0 1.34,0.14 1.34,-0.48 -0,-0.2 0,-0.41 0,-0.61 0,-0.74 0.06,-0.77 -0.44,-0.77 -0.4,0 -0.8,0 -1.21,0 0,-1.17 0,-2.34 0,-3.51l0 -2.19c-0.01,-0.12 -0.18,-0.17 -0.28,-0.1 -0.12,0.08 -0.07,0.62 -0.07,0.8 0,0.36 -0.02,5.13 0.02,5.24 0.07,0.19 0.51,0.13 0.73,0.13 0.29,0 0.58,0 0.87,0l0 1.13 -11.68 0 0 -1.13z"/>
   <path class="fil1" d="M10.96 4.46l3.02 2.17c0.14,0.1 2.94,2.08 3.03,2.17l-0.09 0c-4.03,-0.03 -8.12,0.03 -12.16,-0 0.06,-0.07 0.28,-0.2 0.37,-0.27 0.13,-0.09 0.25,-0.18 0.39,-0.28 0.26,-0.18 0.52,-0.37 0.78,-0.55l3.1 -2.17c0.26,-0.18 0.51,-0.35 0.77,-0.54 0.11,-0.08 0.73,-0.52 0.8,-0.54zm-0.09 -0.39c-0.08,0.03 -0.59,0.4 -0.7,0.48l-1.39 0.97c-0.23,0.17 -0.46,0.32 -0.69,0.49l-4 2.8c-0.06,0.04 -0.12,0.08 -0.11,0.18 0.02,0.22 0.22,0.16 0.42,0.16l12.99 0c0.19,0 0.41,0.03 0.39,-0.2 -0.01,-0.13 -0.52,-0.45 -0.65,-0.53l-2.08 -1.48c-1.15,-0.8 -2.3,-1.66 -3.45,-2.45 -0.12,-0.09 -0.23,-0.16 -0.34,-0.25 -0.13,-0.09 -0.27,-0.23 -0.4,-0.19z"/>
   <path class="fil1" d="M13.17 15.94c0.02,0.33 0.29,0.31 0.36,0.12 0.04,-0.11 0.02,-3.35 0.02,-3.72 0,-0.48 0.02,-1.02 -0,-1.49 -0.02,-0.3 -0.27,-0.35 -0.35,-0.12 -0.06,0.16 -0.03,3.3 -0.03,3.71 0,0.48 -0.03,1.03 0,1.49z"/>
   <path class="fil1" d="M8.6 16c0.03,-0.16 0.01,-0.55 0.01,-0.74 0,-0.57 0.02,-4.32 -0.01,-4.48 -0.05,-0.24 -0.32,-0.24 -0.36,0.01 -0.03,0.18 -0.01,0.55 -0.01,0.75 0,0.55 -0.02,4.36 0.01,4.49 0.04,0.23 0.31,0.26 0.36,-0.03z"/>
   <path class="fil1" d="M11.04 16.09c0.04,-0.09 0.02,-4.37 0.02,-5.18 0,-0.11 0.01,-0.24 -0.08,-0.29 -0.09,-0.04 -0.24,-0.01 -0.26,0.08 -0.02,0.09 -0,4.71 -0,5.2 -0,0.14 -0.01,0.23 0.09,0.28 0.1,0.04 0.2,-0.01 0.24,-0.09z"/>
  </g>
  <rect class="fil2" x="-0" width="21.77" height="21.77"/>
 </g>
</svg>
