<?xml version="1.0" encoding="UTF-8"?>
<!DOCTYPE svg PUBLIC "-//W3C//DTD SVG 1.1//EN" "http://www.w3.org/Graphics/SVG/1.1/DTD/svg11.dtd">
<!-- Creator: CorelDRAW 2018 (64-Bit) -->
<svg xmlns="http://www.w3.org/2000/svg" xml:space="preserve" width="38.0449mm" height="37.6388mm" version="1.1" style="shape-rendering:geometricPrecision; text-rendering:geometricPrecision; image-rendering:optimizeQuality; fill-rule:evenodd; clip-rule:evenodd"
viewBox="0 0 8.77 8.67"
 xmlns:xlink="http://www.w3.org/1999/xlink">
 <defs>
  <style type="text/css">
   <![CDATA[
    .fil1 {fill:#59656C}
    .fil0 {fill:white}
   ]]>
  </style>
 </defs>
 <g id="Слой_x0020_1">
  <metadata id="CorelCorpID_0Corel-Layer"/>
  <g id="_1773671056">
   <path class="fil0" d="M4.43 0.26c-0.04,0.01 -0.44,0.29 -0.51,0.34 -0.17,0.12 -0.33,0.22 -0.49,0.34l-1.97 1.38c-0.16,0.12 -0.33,0.23 -0.49,0.35 -0.09,0.06 -0.16,0.12 -0.25,0.17 -0.06,0.04 -0.19,0.13 -0.23,0.17 2.56,0.02 5.16,-0.02 7.72,0l0.06 -0c-0.06,-0.06 -1.84,-1.32 -1.92,-1.38l-1.92 -1.38z"/>
   <path class="fil1" d="M0.67 7.72c0.19,0 0.38,0 0.57,0 0.15,0 0.42,0.05 0.46,-0.1 0.02,-0.08 0.01,-3.29 0.01,-3.32 0,-0.12 0.03,-0.46 -0.05,-0.5 -0.07,-0.04 -0.17,-0 -0.17,0.08 -0,0.08 0,0.18 0,0.27l0 3.34c-0.26,0 -0.52,0 -0.78,-0 -0.31,-0 -0.27,0.03 -0.27,0.5 0,0.84 -0.13,0.68 0.87,0.68l6.18 0c0.88,0 0.85,0.09 0.85,-0.31 -0,-0.13 0,-0.26 0,-0.39 0,-0.47 0.04,-0.49 -0.28,-0.49 -0.26,0 -0.51,0 -0.77,0 0,-0.74 0,-1.48 0,-2.23l0 -1.39c-0.01,-0.08 -0.11,-0.11 -0.18,-0.07 -0.08,0.05 -0.05,0.4 -0.05,0.51 0,0.23 -0.01,3.26 0.01,3.33 0.04,0.12 0.32,0.08 0.46,0.08 0.19,0 0.37,0 0.56,0l0 0.72 -7.42 0 0 -0.72z"/>
   <path class="fil1" d="M4.43 0.26l1.92 1.38c0.09,0.06 1.86,1.32 1.92,1.38l-0.06 0c-2.56,-0.02 -5.16,0.02 -7.72,-0 0.04,-0.05 0.17,-0.13 0.23,-0.17 0.08,-0.06 0.16,-0.11 0.25,-0.17 0.17,-0.11 0.33,-0.23 0.49,-0.35l1.97 -1.38c0.16,-0.12 0.32,-0.22 0.49,-0.34 0.07,-0.05 0.46,-0.33 0.51,-0.34zm-0.05 -0.25c-0.05,0.02 -0.37,0.25 -0.45,0.31l-0.88 0.62c-0.14,0.11 -0.29,0.2 -0.44,0.31l-2.54 1.78c-0.04,0.03 -0.08,0.05 -0.07,0.12 0.01,0.14 0.14,0.1 0.27,0.1l8.25 0c0.12,0 0.26,0.02 0.25,-0.12 -0.01,-0.08 -0.33,-0.28 -0.41,-0.34l-1.32 -0.94c-0.73,-0.51 -1.46,-1.05 -2.19,-1.56 -0.08,-0.05 -0.14,-0.1 -0.22,-0.16 -0.08,-0.06 -0.17,-0.15 -0.25,-0.12z"/>
   <path class="fil1" d="M5.83 7.55c0.01,0.21 0.18,0.2 0.23,0.08 0.03,-0.07 0.01,-2.13 0.01,-2.36 0,-0.3 0.02,-0.65 -0,-0.95 -0.01,-0.19 -0.17,-0.22 -0.22,-0.07 -0.04,0.1 -0.02,2.1 -0.02,2.36 0,0.3 -0.02,0.65 0,0.95z"/>
   <path class="fil1" d="M2.93 7.58c0.02,-0.1 0,-0.35 0,-0.47 0,-0.36 0.01,-2.74 -0.01,-2.85 -0.03,-0.15 -0.2,-0.16 -0.23,0.01 -0.02,0.11 -0,0.35 -0,0.47 0,0.35 -0.01,2.77 0,2.85 0.03,0.14 0.2,0.17 0.23,-0.02z"/>
   <path class="fil1" d="M4.48 7.64c0.03,-0.06 0.01,-2.78 0.01,-3.29 0,-0.07 0,-0.15 -0.05,-0.18 -0.06,-0.03 -0.15,-0.01 -0.17,0.05 -0.01,0.05 -0,2.99 -0,3.3 -0,0.09 -0.01,0.15 0.06,0.18 0.06,0.03 0.13,-0.01 0.15,-0.06z"/>
  </g>
 </g>
</svg>
