<?xml version="1.0" encoding="UTF-8"?>
<!DOCTYPE svg PUBLIC "-//W3C//DTD SVG 1.1//EN" "http://www.w3.org/Graphics/SVG/1.1/DTD/svg11.dtd">
<!-- Creator: CorelDRAW 2018 (64-Bit) -->
<svg xmlns="http://www.w3.org/2000/svg" xml:space="preserve" width="60.0632mm" height="47mm" version="1.1" style="shape-rendering:geometricPrecision; text-rendering:geometricPrecision; image-rendering:optimizeQuality; fill-rule:evenodd; clip-rule:evenodd"
viewBox="0 0 62.77 49.12"
 xmlns:xlink="http://www.w3.org/1999/xlink">
 <defs>
  <style type="text/css">
   <![CDATA[
    .fil2 {fill:none}
    .fil0 {fill:#55ADAD}
    .fil1 {fill:#59656C}
   ]]>
  </style>
 </defs>
 <g id="Слой_x0020_1">
  <metadata id="CorelCorpID_0Corel-Layer"/>
  <g id="_1635683184">
   <g>
    <path class="fil0" d="M48.23 28.17l3.68 0 0 -3.68c0,-0.2 0.17,-0.37 0.37,-0.37l0 0c0.2,0 0.37,0.17 0.37,0.37l0 4.05 0 0 -0 0.01 -0 0.01 -0 0.01 -0 0.01 -0 0.01 -0 0.01 -0 0.01 -0 0.01 -0 0.01c-0,0.01 -0,0.01 -0,0.02l-0 0.01c-0,0.01 -0.01,0.02 -0.01,0.03l-0 0.01c-0,0.01 -0,0.01 -0.01,0.02 -0.01,0.01 -0.01,0.02 -0.02,0.03 -0.06,0.09 -0.16,0.16 -0.27,0.18l-0.01 0c-0.01,0 -0.01,0 -0.02,0l-0.01 0 -0.01 0 -4.05 0c-0.2,0 -0.37,-0.17 -0.37,-0.37l0 0c0,-0.2 0.17,-0.37 0.37,-0.37z"/>
    <path class="fil0" d="M48.23 6.39l3.68 0 0 3.68c0,0.2 0.17,0.37 0.37,0.37l0 0c0.2,0 0.37,-0.17 0.37,-0.37l0 -4.05 0 0 -0 -0.01 -0 -0.01 -0 -0.01 -0 -0.01 -0 -0.01 -0 -0.01 -0 -0.01 -0 -0.01 -0 -0.01c-0,-0.01 -0,-0.01 -0,-0.02l-0 -0.01c-0,-0.01 -0.01,-0.02 -0.01,-0.03l-0 -0.01c-0,-0.01 -0,-0.01 -0.01,-0.02 -0.01,-0.01 -0.01,-0.02 -0.02,-0.03 -0.06,-0.09 -0.16,-0.16 -0.27,-0.18l-0.01 -0c-0.01,-0 -0.01,-0 -0.02,-0l-0.01 -0 -0.01 -0 -4.05 0c-0.2,0 -0.37,0.17 -0.37,0.37l0 0c0,0.2 0.17,0.37 0.37,0.37z"/>
    <path class="fil0" d="M14.54 28.17l-3.68 0 0 -3.68c0,-0.2 -0.17,-0.37 -0.37,-0.37l0 0c-0.2,0 -0.37,0.17 -0.37,0.37l0 4.05 0 0 0 0.01 0 0.01 0 0.01 0 0.01 0 0.01 0 0.01 0 0.01 0 0.01 0 0.01c0,0.01 0,0.01 0,0.02l0 0.01c0,0.01 0.01,0.02 0.01,0.03l0 0.01c0,0.01 0,0.01 0.01,0.02 0.01,0.01 0.01,0.02 0.02,0.03 0.06,0.09 0.16,0.16 0.27,0.18l0.01 0c0.01,0 0.01,0 0.02,0l0.01 0 0.01 0 4.05 0c0.2,0 0.37,-0.17 0.37,-0.37l0 0c0,-0.2 -0.17,-0.37 -0.37,-0.37z"/>
    <path class="fil0" d="M14.54 6.39l-3.68 0 0 3.68c0,0.2 -0.17,0.37 -0.37,0.37l0 0c-0.2,0 -0.37,-0.17 -0.37,-0.37l0 -4.05 0 0 0 -0.01 0 -0.01 0 -0.01 0 -0.01 0 -0.01 0 -0.01 0 -0.01 0 -0.01 0 -0.01c0,-0.01 0,-0.01 0,-0.02l0 -0.01c0,-0.01 0.01,-0.02 0.01,-0.03l0 -0.01c0,-0.01 0,-0.01 0.01,-0.02 0.01,-0.01 0.01,-0.02 0.02,-0.03 0.06,-0.09 0.16,-0.16 0.27,-0.18l0.01 -0c0.01,-0 0.01,-0 0.02,-0l0.01 -0 0.01 -0 4.05 0c0.2,0 0.37,0.17 0.37,0.37l0 0c0,0.2 -0.17,0.37 -0.37,0.37z"/>
   </g>
   <g>
    <path class="fil1" d="M15.2 21.29c0.41,0 1.27,0.07 1.5,-0.16 0.18,-0.18 0.3,-1.29 0.37,-1.66 0.21,-1.05 0.58,-2.18 0.97,-3.14 0.22,-0.54 0.64,-1.31 0.95,-1.8 0.37,-0.59 1.25,-1.79 1.79,-2.32l1.04 -1c0.53,-0.47 1.45,-1.12 2.01,-1.46 0.59,-0.35 1.2,-0.62 1.81,-0.94 0,0.6 0,1.21 0,1.81 0,0.63 0.04,1.18 0.04,1.77 -0,0.55 -0.04,1.28 0,1.81l0.05 0.86c0.02,0.15 0.03,0.25 0.14,0.32 0.3,0.21 0.83,0.11 0.92,-0.25 0.04,-0.14 0.06,-0.74 0.06,-0.92 -0,-0.65 0,-1.31 -0,-1.96 -0,-0.35 0.04,-0.57 0.04,-0.94l0 -2.94c0.22,-0.02 0.59,-0.16 0.8,-0.22 0.27,-0.07 0.57,-0.13 0.83,-0.19 0.94,-0.19 1.3,-0.24 2.25,-0.24l0 10.3c0,0.25 0.74,0.64 1.08,0.14 0.11,-0.15 0.09,-0.39 0.09,-0.63 -0,-0.28 0.04,-0.44 0.04,-0.68 0.04,-2.96 -0,-6.14 -0,-9.13 2,0 3.47,0.61 3.89,0.64 0,0.31 -0.04,6.59 0.02,6.73 0.06,0.14 0.29,0.4 0.58,0.4 0.29,0 0.48,-0.13 0.54,-0.44 0.1,-0.52 0.06,-2.09 0.06,-2.65 0,-0.61 0.04,-1.13 0.04,-1.77 0,-0.6 0,-1.21 0,-1.81 1.03,0.54 1.62,0.77 2.62,1.49 0.15,0.11 0.25,0.18 0.39,0.29 0.6,0.45 0.61,0.49 1.13,0.95l0.36 0.32c1.24,1.24 2.38,2.89 3.07,4.51 0.31,0.72 0.51,1.24 0.73,2.03 0.1,0.37 0.19,0.71 0.27,1.12 0.07,0.35 0.11,0.78 0.19,1.16 0.08,0.38 0.15,0.54 0.43,0.59 0.27,0.05 0.94,0.03 1.25,0.03l0 1.32 -32.37 0 0 -1.32zm15.25 -14.79l1.95 0c0.47,0.02 0.95,0.06 1.6,0.17 0.51,0.08 0.98,0.2 1.45,0.33 0.45,0.12 0.92,0.28 1.33,0.44 0.22,0.08 0.41,0.15 0.62,0.24 1.2,0.54 1.74,0.82 2.85,1.56 0.49,0.33 1.52,1.14 1.95,1.56 0.4,0.39 0.95,0.95 1.3,1.38 1.2,1.48 1.56,2.13 2.36,3.79 0.51,1.07 0.91,2.55 1.12,3.75 0.02,0.09 0.06,0.24 0.07,0.35 0.47,0 0.99,-0.04 1.35,0.09 0.21,0.07 0.31,0.15 0.34,0.37 0.03,0.17 0.04,0.43 0.05,0.72l0 1.8c-0,0.43 -0.24,0.75 -0.41,0.75l-33.95 0c-0.1,0 -0.27,-0.2 -0.32,-0.28 -0.08,-0.13 -0.1,-0.28 -0.1,-0.47l0 -2.05c0.01,-0.33 0.04,-0.59 0.08,-0.66 0.2,-0.3 1.3,-0.31 1.65,-0.31 0,-0.22 0.09,-0.54 0.14,-0.77 0.05,-0.25 0.1,-0.49 0.16,-0.71 0.13,-0.51 0.25,-0.89 0.41,-1.36 0.34,-1.02 0.64,-1.53 1.08,-2.42 0.39,-0.77 0.9,-1.5 1.39,-2.16 0.71,-0.95 1.4,-1.52 2.15,-2.26 0.1,-0.1 0.15,-0.12 0.25,-0.21 1.17,-1.1 3.22,-2.21 4.72,-2.75 1.28,-0.46 2.93,-0.9 4.38,-0.9 0.02,0 0.03,0 0.05,0z"/>
    <path class="fil1" d="M17.27 25.51c0,4.08 0.78,6.43 2.52,9.56 0.06,0.11 0.12,0.2 0.18,0.31 0.08,0.11 0.11,0.19 0.19,0.3 0.47,0.72 0.69,1.03 1.22,1.72 0.58,0.74 1.18,1.38 1.84,2.05l0.77 0.7c0.43,0.42 1.42,1.13 1.95,1.48 0.95,0.63 2.21,1.24 3.34,1.56 0.57,0.16 1.13,0.26 1.67,0.29l0.8 0c1.04,-0.06 2.05,-0.34 3.09,-0.79l1.3 -0.66c0.22,-0.13 0.39,-0.24 0.6,-0.38l0.61 -0.41c0.11,-0.07 0.18,-0.13 0.28,-0.21 0.11,-0.08 0.18,-0.12 0.28,-0.21l2.07 -1.85 1.39 -1.59c1.38,-1.86 2.18,-3.18 3.01,-5.36l0.37 -1.1c0.16,-0.5 0.29,-1.04 0.4,-1.56 0.26,-1.3 0.3,-2.55 0.3,-4.03 0,-0.6 0.01,-1.06 -0.64,-1.06 -0.77,0 -0.46,0.81 -0.53,1.43 -0.03,0.3 -0.03,0.6 -0.03,0.95 -0,0.28 -0.06,0.63 -0.08,0.91 -0.15,2.2 -1.12,5.08 -2.29,7.02l-0.98 1.51c-0.26,0.38 -1.24,1.59 -1.54,1.89 -0.09,0.09 -0.15,0.15 -0.25,0.24 -0.34,0.34 -0.64,0.64 -1,0.96l-1.09 0.87c-0.41,0.28 -0.76,0.52 -1.18,0.78 -2.15,1.29 -4.47,1.91 -6.98,0.97 -0.21,-0.08 -0.49,-0.18 -0.7,-0.28 -0.23,-0.11 -0.45,-0.19 -0.66,-0.32 -0.7,-0.42 -0.95,-0.49 -1.81,-1.14l-0.83 -0.64c-1.08,-0.91 -1.77,-1.68 -2.64,-2.75 -0.15,-0.18 -0.29,-0.37 -0.42,-0.56 -0.53,-0.78 -1.06,-1.58 -1.49,-2.43 -0.32,-0.62 -0.65,-1.39 -0.89,-2.05 -0.73,-2.01 -0.99,-3.71 -0.99,-5.88 0,-0.29 0.01,-1.11 -0.16,-1.31 -0.19,-0.22 -0.92,-0.3 -1,0.26 -0.04,0.25 -0.05,0.56 -0.05,0.82z"/>
   </g>
  </g>
  <rect class="fil2" width="62.77" height="49.12"/>
 </g>
</svg>
