<?xml version="1.0" encoding="UTF-8"?>
<!DOCTYPE svg PUBLIC "-//W3C//DTD SVG 1.1//EN" "http://www.w3.org/Graphics/SVG/1.1/DTD/svg11.dtd">
<!-- Creator: CorelDRAW 2018 (64-Bit) -->
<svg xmlns="http://www.w3.org/2000/svg" xml:space="preserve" width="60mm" height="60mm" version="1.1" style="shape-rendering:geometricPrecision; text-rendering:geometricPrecision; image-rendering:optimizeQuality; fill-rule:evenodd; clip-rule:evenodd"
viewBox="0 0 16.36 16.36"
 xmlns:xlink="http://www.w3.org/1999/xlink">
 <defs>
  <style type="text/css">
   <![CDATA[
    .str0 {stroke:#59656C;stroke-width:0.27;stroke-miterlimit:22.9256}
    .fil0 {fill:none}
    .fil1 {fill:#59656C;fill-rule:nonzero}
   ]]>
  </style>
 </defs>
 <g id="Слой_x0020_1">
  <metadata id="CorelCorpID_0Corel-Layer"/>
  <g id="_4701178896">
   <circle class="fil0 str0" cx="8.18" cy="10.75" r="3.13"/>
   <g>
    <path class="fil0 str0" d="M5.16 7.12c0.82,-0.69 1.88,-1.1 3.03,-1.1 1.14,0 2.19,0.41 3.01,1.08"/>
    <path class="fil0 str0" d="M4.4 5.35c1.03,-0.69 2.35,-1.1 3.8,-1.1 1.43,0 2.74,0.41 3.77,1.08"/>
    <path class="fil0 str0" d="M3.67 3.58c1.22,-0.69 2.8,-1.1 4.52,-1.1 1.7,0 3.27,0.41 4.49,1.08"/>
   </g>
   <path class="fil1" d="M7.73 12.21l0 -0.95c0.1,0.02 0.21,0.03 0.34,0.03 0.41,0 0.77,-0.12 0.99,-0.36 0.16,-0.17 0.25,-0.4 0.25,-0.69 0,-0.29 -0.11,-0.52 -0.28,-0.68 -0.19,-0.17 -0.5,-0.27 -0.91,-0.27 -0.21,0 -0.39,0.01 -0.54,0.03 -0.31,0.03 -0.26,-0 -0.26,0.3l0 2.65c0,0.44 0.42,0.48 0.42,-0.05zm0 -2.56c0.07,-0.02 0.21,-0.03 0.39,-0.03 0.46,0 0.77,0.21 0.77,0.64 0,0.45 -0.31,0.69 -0.81,0.69 -0.14,0 -0.26,-0.01 -0.35,-0.03l0 -1.26z"/>
  </g>
  <rect class="fil0" x="-0" width="16.36" height="16.36"/>
 </g>
</svg>
