<?xml version="1.0" encoding="UTF-8"?>
<!DOCTYPE svg PUBLIC "-//W3C//DTD SVG 1.1//EN" "http://www.w3.org/Graphics/SVG/1.1/DTD/svg11.dtd">
<!-- Creator: CorelDRAW 2018 (64-Bit) -->
<svg xmlns="http://www.w3.org/2000/svg" xml:space="preserve" width="60mm" height="60mm" version="1.1" style="shape-rendering:geometricPrecision; text-rendering:geometricPrecision; image-rendering:optimizeQuality; fill-rule:evenodd; clip-rule:evenodd"
viewBox="0 0 42.55 42.55"
 xmlns:xlink="http://www.w3.org/1999/xlink">
 <defs>
  <style type="text/css">
   <![CDATA[
    .fil1 {fill:none}
    .fil0 {fill:#59656C}
   ]]>
  </style>
 </defs>
 <g id="Слой_x0020_1">
  <metadata id="CorelCorpID_0Corel-Layer"/>
  <g id="_705208176">
   <path class="fil0" d="M21.4 33.85c0.43,-1.84 0.36,-4.42 -0.19,-6.22 -0.3,-0.98 -0.82,-0.63 -1.99,-0.27 -0.37,0.11 -0.97,0.34 -1.42,0.34 -0.09,-0.35 -0.99,-1.43 -1.23,-1.67 -0.42,-0.42 -1.21,-0.93 -1.76,-1.23 0.4,-1.73 1.23,-2.75 0.55,-3.27 -0.23,-0.18 -0.8,-0.36 -1.14,-0.44 -1.52,-0.36 -3.98,-0.24 -5.47,0.11 0.37,-0.55 2.11,-1.62 2.81,-2.03 1.88,-1.08 3.43,-1.51 5.64,-1.74 1.33,-0.14 0.97,0.02 1.68,-0.78 1.59,-1.79 2.83,-3.36 4.97,-4.79 1.05,-0.7 1.94,-1.25 3.09,-1.83 1.76,-0.88 5.14,-2.11 7.73,-2.11 -0.01,0.5 -0.17,1.61 -0.27,2.1 -0.14,0.68 -0.24,1.41 -0.42,2.04 -0.83,2.99 -2.33,5.71 -4.22,8.08 -0.41,0.51 -0.71,0.82 -1.18,1.28 -0.91,0.91 -1.51,1.53 -2.54,2.3 -0.16,0.12 -0.61,0.4 -0.71,0.52 -0.17,0.21 -0.32,2.17 -0.56,3.13 -0.26,1.02 -0.62,2.3 -1.11,3.2 -0.39,0.72 -1.71,2.9 -2.27,3.27zm-14.15 -12.04c0,0.46 0.42,0.33 0.77,0.25 2.49,-0.57 1.92,-0.51 4.68,-0.51 0.95,0 1.54,0.27 2.28,0.44 -0.04,0.45 -0.48,1.58 -0.65,2.07 -0.39,1.16 -0.15,1.09 0.67,1.6 0.59,0.37 1.06,0.71 1.49,1.23 1.41,1.74 0.49,1.77 2.68,1.12 0.44,-0.13 1,-0.24 1.35,-0.41 0.61,1.26 0.62,4.24 0.29,5.91l-0.42 1.4c-0.01,0.3 0.14,0.39 0.39,0.38 0.53,-0.02 2,-2.15 2.35,-2.62 1.23,-1.65 1.95,-3.61 2.38,-5.62 0.09,-0.42 0.14,-0.69 0.2,-1.12 0.24,-1.72 -0.24,-0.89 1.6,-2.44 1.65,-1.38 2.59,-2.36 3.88,-4.21 2.46,-3.55 4.09,-7.53 4.09,-11.99 -1.84,-0.43 -6.56,1.12 -8.41,2.05 -3.37,1.69 -5.8,3.57 -8.18,6.49 -0.22,0.27 -0.46,0.69 -0.75,0.83 -0.25,0.12 -0.7,0.11 -0.93,0.12 -0.33,0.02 -0.9,0.1 -1.17,0.15 -2.17,0.36 -3.96,1.17 -5.73,2.35 -0.24,0.16 -2.85,2.07 -2.85,2.51z"/>
   <path class="fil0" d="M14.55 30.07l0 0zm0 0c-0.18,0.66 -1.93,1.67 -2.83,1.92 -0.3,0.08 -1.05,0.19 -1.39,0.19 0.18,-0.37 0,-1.04 0.79,-2.55 0.32,-0.61 0.95,-1.48 1.5,-1.84 -0.11,0.46 -0.5,1.53 -0.15,2.08 0.34,0.52 1.39,0.2 2.08,0.2zm-4.83 2.2l0 0.53c1.91,0 2.8,-0.16 4.28,-1.25 0.66,-0.49 2.03,-1.86 2.04,-2.7 -0.3,0.03 -0.43,0.09 -0.67,0.2 -0.27,0.12 -0.39,0.17 -0.7,0.27 -0.38,0.13 -1.24,0.23 -1.71,0.23 0,-1.78 0.79,-2.19 0.79,-3.08 -0.89,0.02 -2.33,1.51 -2.76,2.16 -0.66,1 -1.28,2.34 -1.28,3.64z"/>
   <path class="fil0" d="M27.03 13.29c3.21,0 3.32,4.66 -0.09,4.66 -1.84,0 -2.97,-2.54 -1.52,-3.98 0.37,-0.37 0.9,-0.68 1.61,-0.68zm-2.9 2.11c0,3.18 3.34,3.97 4.99,2.44 0.95,-0.88 1.31,-2.35 0.67,-3.53 -1.68,-3.15 -5.66,-1.37 -5.66,1.09z"/>
  </g>
  <rect class="fil1" x="-0" width="42.55" height="42.55"/>
 </g>
</svg>
