<?xml version="1.0" encoding="UTF-8"?>
<!DOCTYPE svg PUBLIC "-//W3C//DTD SVG 1.1//EN" "http://www.w3.org/Graphics/SVG/1.1/DTD/svg11.dtd">
<!-- Creator: CorelDRAW 2018 (64-Bit) -->
<svg xmlns="http://www.w3.org/2000/svg" xml:space="preserve" width="60mm" height="60mm" version="1.1" style="shape-rendering:geometricPrecision; text-rendering:geometricPrecision; image-rendering:optimizeQuality; fill-rule:evenodd; clip-rule:evenodd"
viewBox="0 0 13.57 13.57"
 xmlns:xlink="http://www.w3.org/1999/xlink">
 <defs>
  <style type="text/css">
   <![CDATA[
    .fil1 {fill:none}
    .fil0 {fill:#59656C}
   ]]>
  </style>
 </defs>
 <g id="Слой_x0020_1">
  <metadata id="CorelCorpID_0Corel-Layer"/>
  <g id="_4611812448">
   <g>
    <path class="fil0" d="M11.06 9.84l1.04 0 0 -1.04c0,-0.06 0.05,-0.1 0.1,-0.1l0 0c0.06,0 0.1,0.05 0.1,0.1l0 1.14 0 0 -0 0 -0 0 -0 0 -0 0 -0 0 -0 0 -0 0 -0 0 -0 0c-0,0 -0,0 -0,0l-0 0c-0,0 -0,0 -0,0.01l-0 0c-0,0 -0,0 -0,0 -0,0 -0,0.01 -0,0.01 -0.02,0.03 -0.04,0.05 -0.08,0.05l-0 0c-0,0 -0,0 -0.01,0l-0 0 -0 0 -1.14 0c-0.06,0 -0.1,-0.05 -0.1,-0.1l0 0c0,-0.06 0.05,-0.1 0.1,-0.1z"/>
    <path class="fil0" d="M11.06 3.73l1.04 0 0 1.04c0,0.06 0.05,0.1 0.1,0.1l0 0c0.06,0 0.1,-0.05 0.1,-0.1l0 -1.14 0 0 -0 -0 -0 -0 -0 -0 -0 -0 -0 -0 -0 -0 -0 -0 -0 -0 -0 -0c-0,-0 -0,-0 -0,-0l-0 -0c-0,-0 -0,-0 -0,-0.01l-0 -0c-0,-0 -0,-0 -0,-0 -0,-0 -0,-0.01 -0,-0.01 -0.02,-0.03 -0.04,-0.05 -0.08,-0.05l-0 -0c-0,-0 -0,-0 -0.01,-0l-0 -0 -0 -0 -1.14 0c-0.06,0 -0.1,0.05 -0.1,0.1l0 0c0,0.06 0.05,0.1 0.1,0.1z"/>
    <path class="fil0" d="M2.5 9.84l-1.04 0 0 -1.04c0,-0.06 -0.05,-0.1 -0.1,-0.1l0 0c-0.06,0 -0.1,0.05 -0.1,0.1l0 1.14 0 0 0 0 0 0 0 0 0 0 0 0 0 0 0 0 0 0 0 0c0,0 0,0 0,0l0 0c0,0 0,0 0,0.01l0 0c0,0 0,0 0,0 0,0 0,0.01 0,0.01 0.02,0.03 0.04,0.05 0.08,0.05l0 0c0,0 0,0 0.01,0l0 0 0 0 1.14 0c0.06,0 0.1,-0.05 0.1,-0.1l0 0c0,-0.06 -0.05,-0.1 -0.1,-0.1z"/>
    <path class="fil0" d="M2.5 3.73l-1.04 0 0 1.04c0,0.06 -0.05,0.1 -0.1,0.1l0 0c-0.06,0 -0.1,-0.05 -0.1,-0.1l0 -1.14 0 0 0 -0 0 -0 0 -0 0 -0 0 -0 0 -0 0 -0 0 -0 0 -0c0,-0 0,-0 0,-0l0 -0c0,-0 0,-0 0,-0.01l0 -0c0,-0 0,-0 0,-0 0,-0 0,-0.01 0,-0.01 0.02,-0.03 0.04,-0.05 0.08,-0.05l0 -0c0,-0 0,-0 0.01,-0l0 -0 0 -0 1.14 0c0.06,0 0.1,0.05 0.1,0.1l0 0c0,0.06 -0.05,0.1 -0.1,0.1z"/>
   </g>
   <g>
    <path class="fil0" d="M4.42 8.06l1.13 0.01 0 -3.23c-0.09,-0.02 -1.06,-0.02 -1.14,0l0 3.22z"/>
    <polygon class="fil0" points="8.51,8.07 8.6,8.07 9.58,8.07 9.64,8.07 9.64,4.83 8.51,4.83 "/>
    <polygon class="fil0" points="3.12,8.73 3.7,8.73 3.7,4.83 3.12,4.83 "/>
    <polygon class="fil0" points="6.75,8.07 7.32,8.07 7.33,4.83 6.75,4.83 "/>
    <polygon class="fil0" points="10.1,8.74 10.44,8.74 10.44,4.83 10.1,4.83 "/>
    <polygon class="fil0" points="5.79,8.07 6.17,8.07 6.18,4.83 5.79,4.83 "/>
    <polygon class="fil0" points="7.52,8.07 7.81,8.07 7.81,4.83 7.71,4.83 7.64,4.83 7.59,4.83 7.52,4.83 "/>
    <polygon class="fil0" points="7.99,8.07 8.06,8.07 8.18,8.07 8.28,8.07 8.28,4.83 8.16,4.83 8.09,4.83 7.99,4.83 "/>
    <polygon class="fil0" points="3.9,4.89 3.9,7.98 3.9,8.07 4.19,8.07 4.19,4.89 4.19,4.83 3.9,4.83 "/>
    <polygon class="fil0" points="9.79,4.89 9.79,8.01 9.79,8.07 9.86,8.07 9.89,8.07 9.96,8.07 9.96,7.99 9.96,4.83 9.79,4.83 "/>
   </g>
  </g>
  <rect class="fil1" x="-0" width="13.57" height="13.57"/>
 </g>
</svg>
