<?xml version="1.0" encoding="UTF-8"?>
<!DOCTYPE svg PUBLIC "-//W3C//DTD SVG 1.1//EN" "http://www.w3.org/Graphics/SVG/1.1/DTD/svg11.dtd">
<!-- Creator: CorelDRAW 2018 (64-Bit) -->
<svg xmlns="http://www.w3.org/2000/svg" xml:space="preserve" width="60.0001mm" height="60mm" version="1.1" style="shape-rendering:geometricPrecision; text-rendering:geometricPrecision; image-rendering:optimizeQuality; fill-rule:evenodd; clip-rule:evenodd"
viewBox="0 0 24.25 24.25"
 xmlns:xlink="http://www.w3.org/1999/xlink">
 <defs>
  <style type="text/css">
   <![CDATA[
    .str0 {stroke:#59656C;stroke-width:0.12;stroke-miterlimit:22.9256}
    .fil1 {fill:none}
    .fil0 {fill:#59656C}
   ]]>
  </style>
 </defs>
 <g id="Слой_x0020_1">
  <metadata id="CorelCorpID_0Corel-Layer"/>
  <path class="fil0 str0" d="M11.35 8.91c0,-0.28 0.2,-0.57 0.41,-0.68 0.72,-0.36 1.47,0.47 0.97,1.14 -0.22,0.3 -0.31,0.1 -0.31,0.43 0,0.63 0.23,1.07 0.59,1.52 0.11,0.13 0.36,0.32 0.51,0.41 0.89,0.54 2.16,0.57 3.04,0.01 0.31,-0.2 0.74,-0.7 0.74,-1.05 0,-0.07 -0.11,-0.12 -0.22,-0.28 -0.21,-0.29 -0.16,-0.73 0.1,-0.97 0.5,-0.47 1.29,-0.07 1.29,0.48 0,0.24 0,0.33 -0.15,0.54 -0.09,0.13 -0.17,0.17 -0.31,0.24 -0.15,0.07 -0.15,0.19 -0.2,0.36l-0.61 2.15c-0.17,0.58 -0.33,1.14 -0.49,1.72 -0.08,0.27 -0.15,0.63 -0.3,0.81 -0.15,0.19 -0.4,0.38 -0.73,0.38l-7.09 0c-0.32,0 -0.57,-0.19 -0.72,-0.37 -0.17,-0.21 -0.22,-0.51 -0.3,-0.81l-1.11 -3.88c-0.04,-0.15 -0.05,-0.3 -0.19,-0.37 -0.15,-0.08 -0.22,-0.1 -0.32,-0.23 -0.23,-0.31 -0.21,-0.74 0.06,-1.01 0.29,-0.29 0.78,-0.28 1.07,-0.01 0.32,0.3 0.28,0.87 -0.02,1.12 -0.06,0.05 -0.11,0.06 -0.11,0.15 0,0.33 0.43,0.82 0.73,1.03 0.91,0.61 2.31,0.54 3.21,-0.11 0.19,-0.13 0.33,-0.27 0.47,-0.46 0.31,-0.42 0.46,-0.88 0.46,-1.46 0,-0.16 -0.14,-0.11 -0.3,-0.32 -0.1,-0.13 -0.18,-0.31 -0.18,-0.47zm-0.3 -0.02c0,0.29 0.11,0.54 0.29,0.72 0.03,0.03 0.05,0.05 0.08,0.08 0.1,0.09 0.09,0.03 0.09,0.13 0,0.29 -0.1,0.62 -0.2,0.82 -0.1,0.2 -0.26,0.46 -0.44,0.59 -0.11,0.08 -0.18,0.15 -0.3,0.22 -0.77,0.46 -1.88,0.49 -2.63,0.05 -0.23,-0.14 -0.41,-0.29 -0.55,-0.52 -0.2,-0.34 -0.11,-0.22 0.08,-0.54 0.34,-0.58 -0.04,-1.54 -0.97,-1.54 -0.54,0 -1.03,0.48 -1.03,1.01 0,0.39 0.13,0.67 0.4,0.88 0.31,0.23 0.15,-0.08 0.4,0.78 0.1,0.34 1.09,3.89 1.19,4.11 0.03,0.06 0.07,0.13 0.11,0.18 0.06,0.08 0.2,0.23 0.29,0.3 0.17,0.12 0.42,0.23 0.65,0.23l7.2 0c0.33,0 0.63,-0.19 0.8,-0.36 0.25,-0.25 0.29,-0.42 0.4,-0.78l1.18 -4.12c0.01,-0.05 0.02,-0.07 0.03,-0.12 0.04,-0.15 0,-0.04 0.23,-0.21 0.78,-0.58 0.39,-1.9 -0.66,-1.9 -0.24,0 -0.46,0.09 -0.6,0.19 -0.08,0.06 -0.15,0.12 -0.21,0.19 -0.05,0.06 -0.12,0.17 -0.16,0.25 -0.29,0.74 0.23,1.14 0.23,1.17 0,0.22 -0.4,0.65 -0.65,0.79 -0.55,0.3 -0.84,0.32 -1.45,0.32 -0.55,0 -1.08,-0.25 -1.48,-0.57 -0.38,-0.31 -0.64,-0.95 -0.64,-1.46 0,-0.09 0.72,-0.45 0.37,-1.31 -0.06,-0.14 -0.12,-0.21 -0.21,-0.31 -0.05,-0.07 -0.21,-0.18 -0.3,-0.22 -0.68,-0.35 -1.55,0.15 -1.55,0.94z"/>
  <rect class="fil1" y="-0" width="24.25" height="24.25"/>
 </g>
</svg>
