<?xml version="1.0" encoding="UTF-8"?>
<!DOCTYPE svg PUBLIC "-//W3C//DTD SVG 1.1//EN" "http://www.w3.org/Graphics/SVG/1.1/DTD/svg11.dtd">
<!-- Creator: CorelDRAW 2018 (64-Bit) -->
<svg xmlns="http://www.w3.org/2000/svg" xml:space="preserve" width="60mm" height="60mm" version="1.1" style="shape-rendering:geometricPrecision; text-rendering:geometricPrecision; image-rendering:optimizeQuality; fill-rule:evenodd; clip-rule:evenodd"
viewBox="0 0 14.48 14.48"
 xmlns:xlink="http://www.w3.org/1999/xlink">
 <defs>
  <style type="text/css">
   <![CDATA[
    .str0 {stroke:#59656C;stroke-width:0.24;stroke-miterlimit:22.9256}
    .fil0 {fill:none}
    .fil1 {fill:white}
   ]]>
  </style>
 </defs>
 <g id="Слой_x0020_1">
  <metadata id="CorelCorpID_0Corel-Layer"/>
  <g id="_4685421824">
   <g>
    <path class="fil0 str0" d="M9.25 6.48c0,0.19 0.35,0.34 0.45,0.02l0.21 -0.86c0.05,-0.19 0.04,-0.22 0.04,-0 -0.01,0.99 -0.11,1.99 -0.11,2.98 0,0.17 0.27,0.34 0.45,0.11 0.08,-0.09 0.27,-1.68 0.33,-2.05l0.34 2.06c0.14,0.19 0.43,0.11 0.46,-0.14l-0.12 -2.93c-0.01,-0.17 0.01,-0.13 0.04,0l0.28 0.97c0.19,0.15 0.37,-0.02 0.37,-0.16 0,-0.14 -0.26,-1.76 -0.3,-1.95 -0.03,-0.15 -0.07,-0.22 -0.16,-0.29 -0.11,-0.09 -0.38,-0.2 -0.53,-0.23 -0.17,0.19 -0.61,0.17 -0.75,0 -0.17,0.04 -0.34,0.13 -0.48,0.21 -0.21,0.12 -0.2,0.28 -0.27,0.7 -0.03,0.15 -0.24,1.45 -0.24,1.59z"/>
    <path class="fil0 str0" d="M10.05 3.18c0,0.17 0.07,0.32 0.16,0.41 0.3,0.33 0.98,0.19 0.98,-0.41 0,-0.38 -0.42,-0.68 -0.82,-0.5 -0.04,0.02 -0.13,0.08 -0.16,0.11 -0.07,0.07 -0.17,0.24 -0.17,0.39z"/>
   </g>
   <g>
    <path class="fil1 str0" d="M6.19 7.35c0,0.23 0.43,0.41 0.55,0.02l0.26 -1.05c0.06,-0.23 0.05,-0.26 0.05,-0 -0.01,1.21 -0.14,2.44 -0.14,3.65 0,0.21 0.33,0.42 0.55,0.13 0.09,-0.12 0.33,-2.06 0.4,-2.52l0.41 2.53c0.18,0.23 0.53,0.13 0.56,-0.17l-0.15 -3.6c-0.02,-0.2 0.01,-0.16 0.05,0l0.34 1.18c0.24,0.19 0.46,-0.02 0.46,-0.2 0,-0.17 -0.32,-2.15 -0.37,-2.39 -0.03,-0.18 -0.08,-0.26 -0.2,-0.36 -0.14,-0.11 -0.46,-0.24 -0.65,-0.29 -0.2,0.24 -0.75,0.21 -0.92,0 -0.21,0.05 -0.42,0.16 -0.59,0.26 -0.26,0.15 -0.24,0.34 -0.33,0.86 -0.03,0.19 -0.3,1.78 -0.3,1.94z"/>
    <path class="fil1 str0" d="M7.17 3.31c0,0.21 0.09,0.39 0.19,0.51 0.36,0.4 1.21,0.23 1.21,-0.51 0,-0.47 -0.51,-0.84 -1,-0.61 -0.05,0.02 -0.15,0.1 -0.19,0.13 -0.09,0.09 -0.2,0.3 -0.2,0.47z"/>
   </g>
   <g>
    <path class="fil1 str0" d="M2.5 8.35c0,0.28 0.53,0.5 0.67,0.02l0.31 -1.27c0.07,-0.28 0.06,-0.32 0.06,-0 -0.02,1.47 -0.17,2.96 -0.17,4.42 0,0.26 0.4,0.51 0.67,0.16 0.11,-0.14 0.4,-2.5 0.49,-3.05l0.5 3.06c0.21,0.28 0.64,0.16 0.68,-0.21l-0.19 -4.36c-0.02,-0.25 0.02,-0.2 0.06,0l0.42 1.44c0.29,0.23 0.56,-0.03 0.56,-0.25 0,-0.2 -0.39,-2.61 -0.44,-2.9 -0.04,-0.22 -0.1,-0.32 -0.24,-0.44 -0.17,-0.14 -0.56,-0.29 -0.79,-0.35 -0.25,0.29 -0.91,0.25 -1.12,0 -0.25,0.06 -0.5,0.19 -0.72,0.31 -0.31,0.18 -0.29,0.42 -0.4,1.04 -0.04,0.23 -0.36,2.16 -0.36,2.36z"/>
    <path class="fil1 str0" d="M3.68 3.45c0,0.26 0.11,0.47 0.23,0.62 0.44,0.49 1.46,0.28 1.46,-0.62 0,-0.57 -0.62,-1.02 -1.22,-0.74 -0.06,0.03 -0.19,0.12 -0.23,0.16 -0.11,0.11 -0.25,0.36 -0.25,0.57z"/>
   </g>
  </g>
  <rect class="fil0" x="-0" width="14.48" height="14.48"/>
 </g>
</svg>
