<?xml version="1.0" encoding="UTF-8"?>
<!DOCTYPE svg PUBLIC "-//W3C//DTD SVG 1.1//EN" "http://www.w3.org/Graphics/SVG/1.1/DTD/svg11.dtd">
<!-- Creator: CorelDRAW 2018 (64-Bit) -->
<svg xmlns="http://www.w3.org/2000/svg" xml:space="preserve" width="60mm" height="60mm" version="1.1" style="shape-rendering:geometricPrecision; text-rendering:geometricPrecision; image-rendering:optimizeQuality; fill-rule:evenodd; clip-rule:evenodd"
viewBox="0 0 22.14 22.14"
 xmlns:xlink="http://www.w3.org/1999/xlink">
 <defs>
  <style type="text/css">
   <![CDATA[
    .str0 {stroke:#59656C;stroke-width:0.37;stroke-miterlimit:22.9256}
    .fil0 {fill:none}
   ]]>
  </style>
 </defs>
 <g id="Слой_x0020_1">
  <metadata id="CorelCorpID_0Corel-Layer"/>
  <g id="_4798179600">
   <rect class="fil0 str0" x="5.81" y="4.59" width="10.52" height="12.96" rx="1.09" ry="1.09"/>
   <path class="fil0 str0" d="M6.9 4.59l8.35 0c0.6,0 1.09,0.49 1.09,1.09l0 1.76 -10.52 0 0 -1.76c0,-0.6 0.49,-1.09 1.09,-1.09z"/>
   <g>
    <g>
     <rect class="fil0 str0" x="7.57" y="9.15" width="1.7" height="1.24" rx="0.36" ry="0.36"/>
     <rect class="fil0 str0" x="10.22" y="9.15" width="1.7" height="1.24" rx="0.36" ry="0.36"/>
     <rect class="fil0 str0" x="12.87" y="9.15" width="1.7" height="1.24" rx="0.36" ry="0.36"/>
    </g>
    <g>
     <rect class="fil0 str0" x="7.57" y="11.79" width="1.7" height="1.24" rx="0.36" ry="0.36"/>
     <rect class="fil0 str0" x="10.22" y="11.79" width="1.7" height="1.24" rx="0.36" ry="0.36"/>
     <rect class="fil0 str0" x="12.87" y="11.79" width="1.7" height="1.24" rx="0.36" ry="0.36"/>
    </g>
    <g>
     <rect class="fil0 str0" x="7.57" y="14.44" width="1.7" height="1.24" rx="0.36" ry="0.36"/>
     <rect class="fil0 str0" x="10.22" y="14.44" width="1.7" height="1.24" rx="0.36" ry="0.36"/>
     <rect class="fil0 str0" x="12.87" y="14.44" width="1.7" height="1.24" rx="0.36" ry="0.36"/>
    </g>
   </g>
  </g>
  <rect class="fil0" x="-0" width="22.14" height="22.14"/>
 </g>
</svg>
