<?xml version="1.0" encoding="UTF-8"?>
<!DOCTYPE svg PUBLIC "-//W3C//DTD SVG 1.1//EN" "http://www.w3.org/Graphics/SVG/1.1/DTD/svg11.dtd">
<!-- Creator: CorelDRAW 2018 (64-Bit) -->
<svg xmlns="http://www.w3.org/2000/svg" xml:space="preserve" width="60mm" height="60mm" version="1.1" style="shape-rendering:geometricPrecision; text-rendering:geometricPrecision; image-rendering:optimizeQuality; fill-rule:evenodd; clip-rule:evenodd"
viewBox="0 0 16.16 16.16"
 xmlns:xlink="http://www.w3.org/1999/xlink">
 <defs>
  <style type="text/css">
   <![CDATA[
    .str0 {stroke:#59656C;stroke-width:0.27;stroke-miterlimit:22.9256}
    .fil0 {fill:none}
   ]]>
  </style>
 </defs>
 <g id="Слой_x0020_1">
  <metadata id="CorelCorpID_0Corel-Layer"/>
  <g id="_4611479840">
   <path class="fil0 str0" d="M9.88 4.24c0,0.32 0.13,0.34 0.28,0.63 0.38,0.73 0.54,1.26 0.54,2.12 0,0.32 -0.05,0.64 -0.11,0.9 -0.03,0.13 -0.07,0.28 -0.11,0.4 -0.25,0.64 -0.49,1.07 -0.99,1.57 -0.26,0.26 -0.54,0.49 -0.86,0.67l-0.51 0.25c-1.03,0.41 -2.02,0.4 -3.06,0.04 -0.17,-0.06 -0.39,-0.18 -0.55,-0.26 -0.29,-0.15 -0.32,-0.28 -0.64,-0.28 -0.25,0 -0.55,0.35 -0.28,0.7 0.51,0.67 0.78,0.91 1.47,1.37 0.05,0.04 0.07,0.04 0.13,0.07 0.59,0.3 0.93,0.48 1.64,0.6 0.25,0.04 0.5,0.07 0.75,0.07l0.31 0c1.04,-0.03 2,-0.38 2.87,-1.03 0.06,-0.05 0.11,-0.09 0.17,-0.14 0.31,-0.24 0.67,-0.65 0.89,-0.96 0.18,-0.26 0.3,-0.48 0.45,-0.77 0.3,-0.6 0.46,-1.33 0.47,-2.06l0 -0.15c-0.01,-0.5 -0.08,-0.99 -0.23,-1.43 -0.1,-0.31 -0.32,-0.83 -0.51,-1.11l-0.33 -0.48c-0.06,-0.07 -0.13,-0.15 -0.18,-0.22 -0.11,-0.14 -0.37,-0.38 -0.51,-0.5 -0.28,-0.25 -0.6,-0.54 -0.92,-0.27 -0.06,0.06 -0.13,0.16 -0.13,0.27z"/>
   <path class="fil0 str0" d="M4.36 4.18c0,0.1 0.04,0.16 0.11,0.24l0.18 0.16c0.38,0.39 0.34,0.24 0.28,0.62 -0.02,0.11 -0.1,0.49 -0.08,0.56 0.09,0.33 0.47,0.06 0.62,-0.02 0.5,-0.25 0.26,-0.25 0.75,-0.01 0.06,0.03 0.13,0.06 0.18,0.09 0.13,0.08 0.36,0.19 0.45,-0.05 0.03,-0.08 -0.01,-0.19 -0.02,-0.28 -0.12,-0.73 -0.19,-0.5 0.23,-0.92 0.15,-0.15 0.29,-0.21 0.29,-0.39 0,-0.33 -0.83,-0.2 -0.96,-0.33l-0.32 -0.66c-0.05,-0.08 -0.11,-0.13 -0.18,-0.14l-0.07 0c-0.06,0.01 -0.13,0.05 -0.17,0.13l-0.32 0.66c-0.12,0.14 -0.97,0 -0.97,0.34z"/>
   <path class="fil0 str0" d="M5.95 7.52c-0.1,0 -0.55,0.05 -0.63,0.12 -0.21,0.19 0.01,0.36 0.11,0.45 0.04,0.04 0.08,0.08 0.12,0.12 0.06,0.05 0.08,0.05 0.12,0.12 -0.01,0.18 -0.09,0.39 -0.09,0.57 0,0.09 0.12,0.2 0.22,0.2 0.08,0 0.28,-0.13 0.35,-0.17 0.26,-0.13 0.18,-0.12 0.35,-0.04 0.21,0.11 0.38,0.27 0.55,0.16 0.22,-0.14 -0.02,-0.61 0.01,-0.73 0.03,-0.05 0.07,-0.08 0.12,-0.12 0.16,-0.12 0.45,-0.35 0.25,-0.56 -0.08,-0.08 -0.27,-0.08 -0.41,-0.1 -0.08,-0.01 -0.16,-0.03 -0.23,-0.03l-0.15 -0.34c-0.06,-0.13 -0.11,-0.25 -0.27,-0.25 -0.15,0 -0.2,0.14 -0.25,0.25 -0.04,0.08 -0.15,0.26 -0.15,0.34z"/>
  </g>
  <rect class="fil0" x="-0" width="16.16" height="16.16"/>
 </g>
</svg>
