<?xml version="1.0" encoding="UTF-8"?>
<!DOCTYPE svg PUBLIC "-//W3C//DTD SVG 1.1//EN" "http://www.w3.org/Graphics/SVG/1.1/DTD/svg11.dtd">
<!-- Creator: CorelDRAW 2018 (64-Bit) -->
<svg xmlns="http://www.w3.org/2000/svg" xml:space="preserve" width="60mm" height="60mm" version="1.1" style="shape-rendering:geometricPrecision; text-rendering:geometricPrecision; image-rendering:optimizeQuality; fill-rule:evenodd; clip-rule:evenodd"
viewBox="0 0 13.29 13.29"
 xmlns:xlink="http://www.w3.org/1999/xlink">
 <defs>
  <style type="text/css">
   <![CDATA[
    .str0 {stroke:#59656C;stroke-width:0.22;stroke-miterlimit:22.9256}
    .fil1 {fill:none}
    .fil0 {fill:#FEFEFE}
   ]]>
  </style>
 </defs>
 <g id="Слой_x0020_1">
  <metadata id="CorelCorpID_0Corel-Layer"/>
  <g id="_1635437536">
   <path class="fil0 str0" d="M5.11 6.59c-0.16,-0 -0.13,-0.05 -0.13,0.28 0,0.27 -0.02,2.82 0.01,2.91 0.01,0.03 0.26,0.06 0.3,0.07l0.9 0.18c0.57,0.13 1.59,0.11 2.19,0.11 0.14,-0 0.37,-0.04 0.5,-0.07 0.45,-0.11 0.63,-0.33 0.62,-0.79 -0.01,-0.33 0.21,-0.18 0.36,-0.49 0.06,-0.13 0.08,-0.34 0.02,-0.49 -0.07,-0.16 -0.23,-0.19 -0.01,-0.34 0.1,-0.07 0.2,-0.21 0.2,-0.38 0.01,-0.2 -0.08,-0.3 -0.18,-0.39 -0.16,-0.17 0.03,-0.2 0.1,-0.33 0.12,-0.21 0,-0.71 -0.2,-0.83 -0.29,-0.17 -0.65,-0.15 -0.97,-0.15 -0.19,0 -1.02,0.01 -1.14,-0.01 -0.09,-0.15 -0.01,-0.33 0.05,-0.47 0.21,-0.51 0.46,-0.84 0.46,-1.38 0,-0.67 -0.41,-1.05 -0.9,-0.77 -0.12,0.07 -0.12,0.3 -0.13,0.48 -0.02,0.32 -0.08,0.7 -0.31,0.91 -0.06,0.06 -0.11,0.09 -0.16,0.14 -0.05,0.04 -0.12,0.1 -0.17,0.14l-0.31 0.3c-0.31,0.31 -0.57,0.66 -0.76,1.09 -0.09,0.2 -0.14,0.29 -0.33,0.28z"/>
   <path class="fil0 str0" d="M3.26 10.05c0.17,0.03 0.56,0.01 0.75,0.01 0.17,0 0.19,0.01 0.31,-0.07 0.08,-0.05 0.14,-0.12 0.17,-0.22 0.03,-0.11 0.01,-2.91 0.01,-3.05 -0,-0.12 -0.05,-0.2 -0.16,-0.22 -0.23,-0.06 -0.47,-0.04 -0.73,-0.04l-0.38 -0.01c-0.02,1.01 -0,2.16 -0,3.19 0,0.13 -0.03,0.33 0.04,0.42z"/>
  </g>
  <rect class="fil1" y="-0" width="13.29" height="13.29"/>
 </g>
</svg>
