<?xml version="1.0" encoding="UTF-8"?>
<!DOCTYPE svg PUBLIC "-//W3C//DTD SVG 1.1//EN" "http://www.w3.org/Graphics/SVG/1.1/DTD/svg11.dtd">
<!-- Creator: CorelDRAW 2018 (64-Bit) -->
<svg xmlns="http://www.w3.org/2000/svg" xml:space="preserve" width="35.5479mm" height="43.7777mm" version="1.1" style="shape-rendering:geometricPrecision; text-rendering:geometricPrecision; image-rendering:optimizeQuality; fill-rule:evenodd; clip-rule:evenodd"
viewBox="0 0 8.37 10.31"
 xmlns:xlink="http://www.w3.org/1999/xlink">
 <defs>
  <style type="text/css">
   <![CDATA[
    .fil0 {fill:#59656C;fill-rule:nonzero}
   ]]>
  </style>
 </defs>
 <g id="Слой_x0020_1">
  <metadata id="CorelCorpID_0Corel-Layer"/>
  <g id="_1839450688">
   <path class="fil0" d="M4.62 9.9c0.02,0.08 0.07,0.13 0.12,0.16l0 0c0.02,0.01 0.04,0.02 0.06,0.02 0.02,0 0.04,-0 0.06,-0.01 0.04,-0.01 0.08,-0.04 0.11,-0.09 0.09,-0.45 0.12,-0.97 0.1,-1.45 -0.02,-0.43 -0.08,-0.82 -0.2,-1.05l-0 -0c-0.05,-0.09 -0.14,-0.26 -0.26,-0.45 -0.24,-0.42 -0.55,-0.94 -0.56,-1.12 -0.01,-0.15 0.02,-0.68 0.07,-1.18 0.05,-0.46 0.11,-0.9 0.15,-0.99l0.06 -0.12 0.11 0.07c0.19,0.12 0.35,0.28 0.51,0.44 0.16,0.16 0.33,0.32 0.5,0.42 0.06,0.03 0.44,0.12 0.84,0.15 0.19,0.02 0.38,0.02 0.53,-0.01 0.12,-0.02 0.2,-0.05 0.22,-0.1 0,-0.01 0,-0.02 0,-0.04 -0.01,-0.11 -0.28,-0.18 -0.63,-0.26 -0.31,-0.07 -0.66,-0.16 -0.98,-0.32l-0.03 -0.01 -0.02 -0.02c-0.21,-0.3 -0.4,-0.55 -0.56,-0.75 -0.15,-0.18 -0.27,-0.31 -0.35,-0.36l-0 0c-0.13,-0.09 -0.52,-0.19 -0.93,-0.25 -0.37,-0.06 -0.75,-0.08 -0.91,-0.02 -0.21,0.07 -0.42,0.12 -0.62,0.16 -0.42,0.09 -0.79,0.17 -1.01,0.48 -0.07,0.1 -0.12,0.16 -0.17,0.23 -0.11,0.15 -0.22,0.29 -0.33,0.45 -0.1,0.14 -0.2,0.28 -0.24,0.41 -0.04,0.1 -0.04,0.18 0.02,0.24 0.06,0.06 0.18,-0.03 0.32,-0.17 0.12,-0.12 0.24,-0.28 0.35,-0.43l-0 -0c0.2,-0.26 0.38,-0.5 0.55,-0.56 0.05,-0.02 0.5,-0.12 0.87,-0.16 0.23,-0.03 0.43,-0.03 0.53,0.01l0.05 0.02 0.01 0.05c0.06,0.23 -0.01,0.72 -0.06,1.14 -0.02,0.17 -0.04,0.32 -0.05,0.44 -0.01,0.09 -0.02,0.19 -0.03,0.27 -0.04,0.42 -0.07,0.71 0.19,1.07 0.16,0.22 0.38,0.46 0.58,0.68 0.06,0.07 0.12,0.13 0.2,0.22 0.67,0.75 0.68,1.2 0.69,1.75 0.01,0.3 0.01,0.62 0.14,1.05l0 0zm0.01 0.37c-0.1,-0.05 -0.19,-0.15 -0.24,-0.3 -0.14,-0.46 -0.15,-0.8 -0.15,-1.11 -0.01,-0.5 -0.02,-0.91 -0.63,-1.6 -0.05,-0.06 -0.12,-0.13 -0.19,-0.21 -0.2,-0.22 -0.42,-0.47 -0.59,-0.7 -0.31,-0.44 -0.28,-0.76 -0.23,-1.23 0.01,-0.08 0.02,-0.17 0.03,-0.27 0.01,-0.11 0.03,-0.28 0.06,-0.45 0.05,-0.35 0.1,-0.76 0.08,-0.98 -0.08,-0.01 -0.21,0 -0.35,0.02 -0.35,0.04 -0.77,0.13 -0.81,0.14 -0.1,0.04 -0.27,0.26 -0.45,0.49l-0 0c-0.12,0.16 -0.25,0.32 -0.37,0.45 -0.23,0.24 -0.45,0.36 -0.65,0.17 -0.14,-0.14 -0.14,-0.31 -0.08,-0.49 0.06,-0.15 0.17,-0.31 0.27,-0.46 0.12,-0.16 0.23,-0.31 0.33,-0.45 0.06,-0.08 0.13,-0.17 0.17,-0.23 0.28,-0.37 0.68,-0.46 1.15,-0.57 0.19,-0.04 0.39,-0.09 0.6,-0.15 0.2,-0.07 0.61,-0.05 1.02,0.01 0.44,0.06 0.87,0.18 1.03,0.29l-0 0c0.1,0.07 0.23,0.21 0.4,0.41 0.16,0.19 0.35,0.44 0.56,0.74 0.29,0.14 0.62,0.22 0.91,0.29 0.44,0.1 0.79,0.19 0.81,0.47 0,0.05 -0,0.09 -0.01,0.13 -0.05,0.15 -0.2,0.23 -0.4,0.26 -0.17,0.03 -0.38,0.03 -0.59,0.01 -0.42,-0.03 -0.86,-0.14 -0.93,-0.18 -0.2,-0.11 -0.38,-0.28 -0.55,-0.45 -0.11,-0.11 -0.22,-0.22 -0.34,-0.31 -0.03,0.17 -0.06,0.46 -0.09,0.77 -0.05,0.49 -0.09,1 -0.07,1.14 0.01,0.13 0.3,0.62 0.53,1.02 0.11,0.19 0.21,0.36 0.26,0.46 0.14,0.26 0.21,0.69 0.23,1.15 0.02,0.5 -0.02,1.05 -0.11,1.52l-0 0.02 -0.01 0.01c-0.06,0.11 -0.15,0.19 -0.26,0.22 -0.05,0.01 -0.1,0.02 -0.15,0.02 -0.05,-0 -0.1,-0.02 -0.15,-0.04z"/>
   <path class="fil0" d="M3.43 7.88c-0.06,-0.11 -0.18,-0.27 -0.29,-0.41 -0.07,-0.09 -0.15,-0.18 -0.21,-0.24 -0.13,0.15 -0.25,0.35 -0.36,0.54 -0.04,0.07 -0.08,0.14 -0.12,0.2 -0.31,0.49 -0.53,0.69 -1.02,1.11l-0 -0 -0.03 0.02 0 0c-0.04,0.03 -0.09,0.07 -0.15,0.11 -0.19,0.14 -0.46,0.34 -0.35,0.57 0.08,0.16 0.2,0.17 0.34,0.1 0.15,-0.07 0.33,-0.21 0.53,-0.36 0.14,-0.1 0.28,-0.22 0.43,-0.32 0.33,-0.22 0.54,-0.37 0.7,-0.54 0.16,-0.17 0.3,-0.37 0.48,-0.7 0,-0 0.02,-0.04 0.03,-0.05l0.01 -0.02zm-0.11 -0.56c0.15,0.18 0.29,0.39 0.34,0.5l0.03 0.05 -0.02 0.05c-0.02,0.04 -0.03,0.06 -0.03,0.06l-0.01 0.02c-0,0.01 -0.01,0.01 -0.01,0.03l-0.02 0.04c-0.2,0.35 -0.34,0.57 -0.52,0.75 -0.18,0.18 -0.39,0.34 -0.74,0.57 -0.14,0.1 -0.29,0.21 -0.42,0.31 -0.21,0.16 -0.4,0.31 -0.57,0.39 -0.28,0.13 -0.5,0.12 -0.66,-0.21 -0.19,-0.4 0.17,-0.67 0.43,-0.86 0.05,-0.04 0.1,-0.07 0.13,-0.1l0 0 0.03 -0.02 0 -0c0.47,-0.41 0.68,-0.6 0.97,-1.06 0.04,-0.06 0.08,-0.13 0.12,-0.2 0.14,-0.24 0.29,-0.49 0.48,-0.66l0.07 -0.06 0.08 0.05c0.09,0.06 0.21,0.2 0.33,0.35z"/>
   <path class="fil0" d="M4.11 0c0.3,0 0.58,0.12 0.78,0.32 0.2,0.2 0.32,0.47 0.32,0.78 0,0.3 -0.12,0.58 -0.32,0.78 -0.2,0.2 -0.47,0.32 -0.78,0.32 -0.3,0 -0.58,-0.12 -0.78,-0.32 -0.2,-0.2 -0.32,-0.47 -0.32,-0.78 0,-0.3 0.12,-0.58 0.32,-0.78 0.2,-0.2 0.47,-0.32 0.78,-0.32zm0.61 0.49c-0.16,-0.16 -0.37,-0.25 -0.61,-0.25 -0.24,0 -0.46,0.1 -0.61,0.25 -0.16,0.16 -0.25,0.37 -0.25,0.61 0,0.24 0.1,0.46 0.25,0.61 0.16,0.16 0.37,0.25 0.61,0.25 0.24,0 0.46,-0.1 0.61,-0.25 0.16,-0.16 0.25,-0.37 0.25,-0.61 0,-0.24 -0.1,-0.46 -0.25,-0.61z"/>
   <path class="fil0" d="M6.51 5.21l1.41 0c0.13,0 0.24,0.05 0.32,0.13 0.08,0.08 0.13,0.2 0.13,0.32l0 1.91c0,0.13 -0.05,0.24 -0.13,0.32l-0 -0c-0.08,0.08 -0.2,0.13 -0.32,0.13l-1.41 0c-0.12,0 -0.24,-0.05 -0.32,-0.13l-0 -0c-0.08,-0.08 -0.13,-0.2 -0.13,-0.32l0 -1.91c0,-0.12 0.05,-0.24 0.13,-0.32l-0 -0c0.08,-0.08 0.2,-0.13 0.32,-0.13zm1.41 0.24l-1.41 0c-0.06,0 -0.11,0.02 -0.15,0.06l-0 0c-0.04,0.04 -0.06,0.09 -0.06,0.15l0 1.91c0,0.06 0.02,0.12 0.06,0.15l0 0c0.04,0.04 0.09,0.06 0.15,0.06l1.41 0c0.06,0 0.12,-0.02 0.15,-0.06l0 -0c0.04,-0.04 0.06,-0.09 0.06,-0.15l0 -1.91c0,-0.06 -0.02,-0.11 -0.06,-0.15 -0.04,-0.04 -0.09,-0.06 -0.15,-0.06z"/>
   <path class="fil0" d="M7.21 4.63c0.17,0 0.33,0.08 0.44,0.21 0.11,0.13 0.17,0.3 0.17,0.49l0 0.12 -1.22 0 0 -0.12c0,-0.19 0.07,-0.36 0.17,-0.49 0.11,-0.13 0.26,-0.21 0.44,-0.21zm0.26 0.36c-0.07,-0.08 -0.16,-0.13 -0.26,-0.13 -0.1,0 -0.19,0.05 -0.26,0.13 -0.05,0.06 -0.09,0.13 -0.1,0.22l0.72 0c-0.02,-0.08 -0.05,-0.16 -0.1,-0.22z"/>
  </g>
 </g>
</svg>
