<?xml version="1.0" encoding="UTF-8"?>
<!DOCTYPE svg PUBLIC "-//W3C//DTD SVG 1.1//EN" "http://www.w3.org/Graphics/SVG/1.1/DTD/svg11.dtd">
<!-- Creator: CorelDRAW 2018 (64-Bit) -->
<svg xmlns="http://www.w3.org/2000/svg" xml:space="preserve" width="60.0001mm" height="60mm" version="1.1" style="shape-rendering:geometricPrecision; text-rendering:geometricPrecision; image-rendering:optimizeQuality; fill-rule:evenodd; clip-rule:evenodd"
viewBox="0 0 23.81 23.81"
 xmlns:xlink="http://www.w3.org/1999/xlink">
 <defs>
  <style type="text/css">
   <![CDATA[
    .str0 {stroke:#59656C;stroke-width:0.4;stroke-miterlimit:22.9256}
    .fil0 {fill:none}
   ]]>
  </style>
 </defs>
 <g id="Слой_x0020_1">
  <metadata id="CorelCorpID_0Corel-Layer"/>
  <g id="_4936420976">
   <path class="fil0 str0" d="M12.44 19.96c0.16,0.54 0.76,0.57 0.97,0.14 0.29,-1.48 0.27,-3.5 -0.18,-4.37 -0.26,-0.52 -1.33,-2.19 -1.36,-2.57 -0.04,-0.47 0.22,-3.29 0.36,-3.56 0.63,0.39 1.11,1.11 1.72,1.44 0.23,0.13 3.06,0.69 2.98,-0.19 -0.05,-0.58 -1.63,-0.52 -2.83,-1.14 -0.72,-1.02 -1.29,-1.71 -1.59,-1.92 -0.46,-0.33 -2.63,-0.69 -3.27,-0.48 -1.19,0.39 -2.24,0.33 -2.85,1.15 -0.29,0.39 -0.56,0.74 -0.85,1.15 -0.34,0.48 -0.7,1.02 -0.35,1.35 0.6,0.57 1.68,-1.68 2.26,-1.91 0.13,-0.05 1.87,-0.4 2.21,-0.25 0.13,0.5 -0.15,1.95 -0.2,2.59 -0.08,1.02 -0.27,1.6 0.31,2.4 0.37,0.52 0.91,1.07 1.32,1.53 1.71,1.93 0.75,2.62 1.36,4.64z"/>
   <path class="fil0 str0" d="M10.85 16.5c-0.16,-0.31 -0.78,-1.16 -1.08,-1.36 -0.38,0.35 -0.68,0.94 -0.98,1.41 -0.52,0.82 -0.88,1.14 -1.72,1.87 -0.33,0.29 -1.21,0.72 -0.89,1.38 0.45,0.93 1.37,-0.15 2.48,-0.91 1.14,-0.77 1.41,-1 2.06,-2.16 0.08,-0.15 0.03,-0.04 0.12,-0.23z"/>
   <circle class="fil0 str0" cx="11.77" cy="5.07" r="1.66"/>
   <rect class="fil0 str0" x="15.25" y="12.19" width="3.51" height="4.36" rx="0.57" ry="0.5"/>
   <path class="fil0 str0" d="M17 11.21c0.46,0 0.83,0.44 0.83,0.98l-1.65 0c0,-0.54 0.37,-0.98 0.83,-0.98z"/>
  </g>
  <rect class="fil0" y="-0" width="23.81" height="23.81"/>
 </g>
</svg>
