<?xml version="1.0" encoding="UTF-8"?>
<!DOCTYPE svg PUBLIC "-//W3C//DTD SVG 1.1//EN" "http://www.w3.org/Graphics/SVG/1.1/DTD/svg11.dtd">
<!-- Creator: CorelDRAW 2018 (64-Bit) -->
<svg xmlns="http://www.w3.org/2000/svg" xml:space="preserve" width="60mm" height="60mm" version="1.1" style="shape-rendering:geometricPrecision; text-rendering:geometricPrecision; image-rendering:optimizeQuality; fill-rule:evenodd; clip-rule:evenodd"
viewBox="0 0 21.42 21.42"
 xmlns:xlink="http://www.w3.org/1999/xlink">
 <defs>
  <style type="text/css">
   <![CDATA[
    .str0 {stroke:#59656C;stroke-width:0.36;stroke-miterlimit:22.9256}
    .fil0 {fill:none}
    .fil1 {fill:#59656C}
   ]]>
  </style>
 </defs>
 <g id="Слой_x0020_1">
  <metadata id="CorelCorpID_0Corel-Layer"/>
  <g id="_1838813120">
   <path class="fil0 str0" d="M7.41 7.04l0.27 0.18c0.09,-0.05 1.43,-1.85 1.55,-2.01 0.08,-0.1 0.14,-0.19 0.21,-0.29 0.21,-0.26 0.45,-0.64 0.63,-0.88l0.62 -0.89c0.07,-0.1 0.15,-0.17 0.17,-0.32 0.02,-0.16 -0.06,-0.29 -0.17,-0.37 -0.33,-0.21 -0.52,0.06 -0.64,0.25l-1.17 1.81c-0.12,0.19 -0.24,0.44 -0.36,0.62l-0.37 0.62c-0.06,0.11 -0.13,0.2 -0.19,0.31 -0.11,0.2 -0.5,0.8 -0.55,0.96z"/>
   <path class="fil1" d="M5.88 8.57c-0.05,0.05 -0.16,0.16 -0.04,0.3 0.04,0.05 0.2,0.15 0.27,0.19 0.13,0.09 0.43,0.38 0.63,0.2 0.25,-0.23 -0.13,-0.43 -0.24,-0.51 -0.12,-0.09 -0.43,-0.39 -0.61,-0.18z"/>
   <path class="fil0 str0" d="M10.84 5.13c0,0.43 0.18,0.78 0.39,1.02 0.72,0.81 2.42,0.47 2.42,-1.02 0,-0.94 -1.02,-1.68 -2.01,-1.22 -0.09,0.04 -0.31,0.19 -0.38,0.27 -0.18,0.18 -0.41,0.6 -0.41,0.95zm3.23 6.09c-0.07,-0.36 0.28,-3.52 0.04,-3.72 -0.28,-0.23 -0.57,-0.31 -0.95,-0.4 -0.41,0.48 -1.51,0.42 -1.85,0 -0.83,0.19 -1.14,0.57 -1.8,0.94 -0.13,0.07 -0.46,0.29 -0.58,0.32l-1.63 -1.31c-0.71,-0.58 -1.38,0.13 -0.62,0.88 0.51,0.51 1.17,1.18 1.69,1.68 0.13,0.12 0.28,0.24 0.55,0.21 0.21,-0.02 1.11,-0.54 1.4,-0.71 0.09,0.7 0.28,1.47 0.27,2.03l-1.17 7.31c0,0.43 0.66,0.84 1.11,0.27l1.7 -5.04 1.54 5.06c0.35,0.47 1.06,0.26 1.13,-0.34l-0.84 -7.21z"/>
  </g>
  <rect class="fil0" x="-0" width="21.42" height="21.42"/>
 </g>
</svg>
