<?xml version="1.0" encoding="UTF-8"?>
<!DOCTYPE svg PUBLIC "-//W3C//DTD SVG 1.1//EN" "http://www.w3.org/Graphics/SVG/1.1/DTD/svg11.dtd">
<!-- Creator: CorelDRAW 2018 (64-Bit) -->
<svg xmlns="http://www.w3.org/2000/svg" xml:space="preserve" width="36.2479mm" height="31.3424mm" version="1.1" style="shape-rendering:geometricPrecision; text-rendering:geometricPrecision; image-rendering:optimizeQuality; fill-rule:evenodd; clip-rule:evenodd"
viewBox="0 0 21.91 18.95"
 xmlns:xlink="http://www.w3.org/1999/xlink">
 <defs>
  <style type="text/css">
   <![CDATA[
    .fil3 {fill:#55ADAD}
    .fil0 {fill:white}
    .fil2 {fill:#55ADAD;fill-rule:nonzero}
    .fil1 {fill:#59656C;fill-rule:nonzero}
   ]]>
  </style>
 </defs>
 <g id="Слой_x0020_1">
  <metadata id="CorelCorpID_0Corel-Layer"/>
  <path class="fil0" d="M2.98 4.58c-0.23,-0.41 -0.42,-0.62 -1.03,-0.61 -0.42,0.01 -1,0.07 -1.28,0.31 -0.29,0.26 -0.34,0.82 -0.03,1.11 0.16,0.15 0.82,0.44 1.09,0.5 -0.1,0.14 -0.13,0.11 -0.29,0.29 -1.31,1.4 -1.31,2.71 -0.85,4.69 0.16,0.67 0.41,1.08 0.41,1.77 -0.01,1.61 -0.21,2.6 1.8,2.6 0.61,-0 1.58,0.12 2.05,-0.21 0.72,-0.49 0.53,-1.2 0.62,-1.56 0.72,-0.05 1.95,0.04 2.72,0.07l5.57 0c0.77,-0.04 1.99,-0.12 2.72,-0.08 0.09,0.4 -0.09,1.1 0.65,1.58 0.46,0.3 2.67,0.24 3.08,0.06 0.94,-0.42 0.75,-1.59 0.74,-2.48 -0,-0.73 0.26,-1.12 0.42,-1.82 0.86,-3.78 -0.76,-4.32 -1.15,-4.93 0.3,-0.07 0.96,-0.35 1.12,-0.53 0.29,-0.32 0.24,-0.86 -0.1,-1.12 -0.26,-0.19 -0.94,-0.29 -1.3,-0.28 -0.59,0 -0.76,0.22 -0.98,0.61 -0.32,-0.51 -0.65,-1.47 -0.93,-2.1 -0.3,-0.67 -0.87,-1.33 -1.46,-1.61 -1.67,-0.77 -9.79,-0.74 -11.19,0 -1.6,0.85 -1.57,2.34 -2.4,3.7zm16.67 4.78c0.13,-0.48 0.03,-0.94 -0.25,-1.23 -0.59,-0.61 -3.32,0.49 -3.53,0.75 -0.26,0.32 -0.11,0.96 0.11,1.19 0.3,0.31 0.89,0.22 1.39,0.22 1.13,-0 1.97,0.19 2.27,-0.94zm-17.39 -0.11c0.31,1.18 0.93,1.05 2.12,1.05 0.44,0 1.14,0.1 1.47,-0.15 0.27,-0.2 0.48,-0.74 0.27,-1.16 -0.24,-0.47 -2.96,-1.33 -3.51,-0.93 -0.29,0.21 -0.49,0.71 -0.36,1.2zm1.98 -3.76c1.22,-0.03 2.45,-0.15 3.69,-0.19 2.11,-0.06 3.98,-0 6.08,0.01 1.24,0.01 2.46,0.14 3.69,0.17 -0.39,-1.36 -0.9,-2.65 -2.14,-3.34 -1.2,-0.66 -7.88,-0.67 -9.17,-0 -1.24,0.64 -1.75,2.04 -2.15,3.35z"/>
  <path class="fil1" d="M2.71 4.72c-0.09,-0.16 -0.17,-0.29 -0.28,-0.36 -0.1,-0.07 -0.25,-0.1 -0.49,-0.1 -0.19,0 -0.43,0.02 -0.64,0.06 -0.18,0.04 -0.35,0.09 -0.44,0.17l-0.02 0.02c-0.07,0.08 -0.12,0.19 -0.12,0.32 -0.01,0.12 0.02,0.24 0.1,0.32l0.02 0.02c0.05,0.05 0.21,0.13 0.38,0.21 0.21,0.1 0.44,0.19 0.57,0.22l0.44 0.1 -0.26 0.37c-0.08,0.11 -0.13,0.15 -0.19,0.2 -0.03,0.02 -0.07,0.05 -0.13,0.12 -0.61,0.65 -0.91,1.28 -1.01,1.97 -0.1,0.71 0.01,1.49 0.24,2.45 0.05,0.22 0.11,0.41 0.18,0.6 0.13,0.39 0.24,0.74 0.24,1.25 -0,0.14 -0,0.27 -0.01,0.39 -0,0.15 -0.01,0.3 -0,0.43 0,0.92 0.14,1.47 1.51,1.47 0.13,-0 0.27,0 0.41,0.01 0.53,0.02 1.17,0.04 1.47,-0.16 0.42,-0.29 0.44,-0.7 0.46,-1.01 0.01,-0.14 0.01,-0.26 0.04,-0.37l0.05 -0.21 0.22 -0.01c0.57,-0.04 1.43,0.01 2.16,0.05 0.22,0.01 0.43,0.02 0.59,0.03l0 -0 5.57 0c0.13,-0.01 0.31,-0.01 0.49,-0.02 0.74,-0.04 1.65,-0.09 2.25,-0.05l0.23 0.01 0.05 0.22c0.03,0.12 0.03,0.24 0.04,0.38 0.02,0.32 0.04,0.74 0.48,1.02 0.15,0.1 0.65,0.15 1.19,0.16 0.69,0.01 1.41,-0.04 1.59,-0.12 0.63,-0.28 0.6,-1.09 0.57,-1.81 -0,-0.13 -0.01,-0.26 -0.01,-0.39 -0,-0.52 0.11,-0.87 0.24,-1.26 0.06,-0.2 0.13,-0.4 0.19,-0.63 0.67,-2.93 -0.22,-3.78 -0.76,-4.3 -0.14,-0.14 -0.26,-0.25 -0.35,-0.39l-0.23 -0.36 0.42 -0.1c0.15,-0.03 0.39,-0.13 0.61,-0.23 0.17,-0.08 0.32,-0.16 0.36,-0.21l0 -0c0.01,-0.01 0.02,-0.02 0.03,-0.03 0.07,-0.09 0.09,-0.21 0.08,-0.32 -0.01,-0.11 -0.06,-0.22 -0.13,-0.29l-0.03 -0.02c-0.07,-0.05 -0.23,-0.1 -0.41,-0.14 -0.25,-0.06 -0.53,-0.08 -0.71,-0.08 -0.22,0 -0.36,0.04 -0.45,0.1 -0.1,0.07 -0.17,0.19 -0.26,0.35l-0.25 0.45 -0.27 -0.43c-0.22,-0.36 -0.45,-0.92 -0.66,-1.44 -0.1,-0.25 -0.2,-0.5 -0.29,-0.7 -0.14,-0.31 -0.35,-0.63 -0.59,-0.89 -0.22,-0.25 -0.47,-0.45 -0.72,-0.56 -0.79,-0.37 -3.15,-0.54 -5.5,-0.54 -2.39,0 -4.75,0.18 -5.42,0.54 -0.98,0.52 -1.3,1.34 -1.64,2.21 -0.18,0.45 -0.36,0.92 -0.64,1.38l-0.27 0.44 -0.25 -0.45zm0.06 -0.86c0.06,0.04 0.12,0.09 0.17,0.14 0.14,-0.29 0.26,-0.59 0.37,-0.88 0.38,-0.98 0.74,-1.9 1.92,-2.52 0.75,-0.4 3.23,-0.61 5.7,-0.61 2.43,-0 4.89,0.19 5.76,0.6 0.33,0.15 0.64,0.4 0.92,0.7 0.28,0.31 0.53,0.68 0.69,1.06 0.1,0.22 0.2,0.46 0.3,0.72 0.13,0.32 0.26,0.65 0.39,0.93 0.04,-0.04 0.09,-0.08 0.14,-0.12 0.19,-0.14 0.44,-0.21 0.8,-0.21 0.22,-0 0.55,0.03 0.84,0.09 0.25,0.05 0.49,0.14 0.64,0.25 0.02,0.02 0.05,0.04 0.07,0.06 0.2,0.18 0.31,0.43 0.33,0.69 0.02,0.25 -0.04,0.52 -0.2,0.74 -0.02,0.03 -0.04,0.06 -0.06,0.08l-0 -0c-0.1,0.11 -0.32,0.24 -0.55,0.35 -0.09,0.04 -0.18,0.08 -0.26,0.11 0.63,0.61 1.65,1.62 0.91,4.85 -0.06,0.27 -0.13,0.49 -0.2,0.69 -0.11,0.34 -0.22,0.65 -0.21,1.07 0,0.11 0.01,0.24 0.01,0.38 0.03,0.91 0.07,1.93 -0.93,2.38 -0.26,0.11 -1.09,0.19 -1.85,0.17 -0.64,-0.01 -1.26,-0.09 -1.51,-0.26 -0.69,-0.45 -0.73,-1.04 -0.75,-1.49l-0 -0.05c-0.56,-0.01 -1.31,0.03 -1.93,0.06 -0.17,0.01 -0.34,0.02 -0.51,0.03l-0.01 0 -5.57 0 -0.01 -0c-0.2,-0.01 -0.39,-0.02 -0.6,-0.03 -0.6,-0.03 -1.31,-0.07 -1.83,-0.06l-0 0.04c-0.02,0.44 -0.05,1.02 -0.72,1.48 -0.46,0.31 -1.21,0.29 -1.83,0.27 -0.14,-0 -0.28,-0.01 -0.39,-0.01 -1.91,0 -2.11,-0.76 -2.11,-2.07 -0,-0.14 0,-0.29 0,-0.44 0,-0.13 0,-0.26 0.01,-0.39 0,-0.41 -0.1,-0.72 -0.21,-1.06 -0.06,-0.2 -0.13,-0.4 -0.19,-0.65 -0.24,-1.02 -0.36,-1.87 -0.24,-2.67 0.11,-0.8 0.45,-1.52 1.13,-2.25 -0.07,-0.03 -0.13,-0.06 -0.2,-0.09 -0.23,-0.11 -0.45,-0.23 -0.55,-0.32 -0.02,-0.02 -0.04,-0.04 -0.05,-0.05 -0.18,-0.21 -0.26,-0.48 -0.25,-0.75 0.01,-0.26 0.11,-0.52 0.29,-0.7 0.02,-0.02 0.04,-0.04 0.05,-0.05 0.18,-0.16 0.45,-0.26 0.73,-0.32 0.25,-0.05 0.52,-0.07 0.74,-0.07 0.37,-0.01 0.63,0.06 0.83,0.19zm16.59 5.41c0.05,-0.19 0.06,-0.38 0.03,-0.55 -0.03,-0.16 -0.1,-0.29 -0.2,-0.4l-0.01 -0.01c-0.23,-0.18 -0.92,-0.06 -1.6,0.14 -0.7,0.21 -1.35,0.49 -1.48,0.61 -0.06,0.08 -0.07,0.21 -0.06,0.34 0.02,0.19 0.08,0.36 0.16,0.44 0.15,0.16 0.53,0.15 0.89,0.14 0.11,-0 0.23,-0.01 0.29,-0.01 0.1,0 0.27,0 0.43,0.01 0.78,0.02 1.35,0.03 1.55,-0.72zm0.62 -0.67c0.05,0.26 0.04,0.54 -0.04,0.82 -0.32,1.2 -1.1,1.19 -2.15,1.16 -0.11,-0 -0.22,-0 -0.42,-0 -0.12,0 -0.2,0 -0.27,0 -0.5,0.01 -1,0.03 -1.34,-0.32 -0.16,-0.17 -0.3,-0.49 -0.33,-0.81 -0.03,-0.28 0.02,-0.57 0.2,-0.79 0.01,-0.01 0.02,-0.03 0.04,-0.04 0.17,-0.16 0.94,-0.52 1.73,-0.76 0.83,-0.25 1.73,-0.36 2.15,-0.03 0.02,0.02 0.04,0.04 0.06,0.06 0.18,0.19 0.3,0.43 0.36,0.7zm-17.43 0.56c0.22,0.84 0.68,0.83 1.51,0.83l0.32 -0c0.07,0 0.19,0 0.31,0.01 0.36,0.01 0.8,0.03 0.97,-0.1 0.09,-0.07 0.18,-0.22 0.22,-0.38 0.03,-0.13 0.03,-0.28 -0.03,-0.4 -0.13,-0.18 -0.77,-0.45 -1.45,-0.64 -0.68,-0.2 -1.36,-0.31 -1.6,-0.19l-0.01 0c-0.1,0.07 -0.19,0.21 -0.23,0.37l0 0c-0.05,0.16 -0.06,0.33 -0.01,0.51zm1.51 1.43c-1.13,0.01 -1.76,0.02 -2.1,-1.28 -0.08,-0.29 -0.06,-0.58 0.01,-0.83 0.09,-0.29 0.25,-0.54 0.46,-0.68 0.03,-0.02 0.06,-0.04 0.09,-0.06 0.39,-0.19 1.24,-0.08 2.04,0.15 0.79,0.23 1.56,0.58 1.77,0.87l-0 0c0.02,0.03 0.04,0.05 0.05,0.08 0.13,0.26 0.14,0.55 0.08,0.81 -0.07,0.3 -0.24,0.58 -0.44,0.73 -0.34,0.26 -0.9,0.24 -1.36,0.22 -0.09,-0 -0.18,-0.01 -0.29,-0.01 -0.22,0 -0.27,0 -0.32,0zm0.59 -5.43c0.48,-0.02 0.96,-0.05 1.45,-0.08 0.6,-0.04 1.19,-0.08 1.82,-0.09 1.54,-0.04 2.95,-0.03 4.42,-0.01 0.55,0.01 1.1,0.01 1.67,0.02 0.71,0 1.4,0.05 2.09,0.09 0.4,0.02 0.8,0.05 1.19,0.07 -0.16,-0.52 -0.35,-1.02 -0.6,-1.46 -0.31,-0.53 -0.71,-0.99 -1.28,-1.3 -0.56,-0.31 -2.48,-0.46 -4.42,-0.46 -1.94,-0 -3.87,0.15 -4.47,0.46 -0.56,0.29 -0.96,0.76 -1.26,1.3 -0.25,0.45 -0.44,0.96 -0.61,1.47zm1.49 0.52c-0.63,0.04 -1.25,0.08 -1.9,0.1l-0.42 0.01 0.12 -0.4c0.21,-0.67 0.44,-1.37 0.78,-1.99 0.36,-0.64 0.83,-1.19 1.51,-1.55 0.68,-0.35 2.73,-0.53 4.74,-0.53 2.03,0 4.07,0.18 4.71,0.54 0.68,0.38 1.15,0.91 1.51,1.53 0.35,0.61 0.58,1.29 0.78,1.99l0.11 0.4 -0.41 -0.01c-0.56,-0.02 -1.09,-0.05 -1.63,-0.08 -0.69,-0.04 -1.38,-0.09 -2.06,-0.09 -0.58,-0 -1.13,-0.01 -1.67,-0.02 -1.46,-0.02 -2.86,-0.04 -4.4,0.01 -0.59,0.02 -1.19,0.06 -1.8,0.09z"/>
  <circle class="fil0" cx="12.26" cy="11.6" r="4.79"/>
  <path class="fil2" d="M12.26 6.51c1.41,0 2.68,0.57 3.6,1.49 0.92,0.92 1.49,2.2 1.49,3.6 0,1.41 -0.57,2.68 -1.49,3.6 -0.92,0.92 -2.2,1.49 -3.6,1.49 -1.41,0 -2.68,-0.57 -3.6,-1.49 -0.92,-0.92 -1.49,-2.2 -1.49,-3.6 0,-1.41 0.57,-2.68 1.49,-3.6 0.92,-0.92 2.2,-1.49 3.6,-1.49zm3.17 1.92c-0.81,-0.81 -1.93,-1.31 -3.17,-1.31 -1.24,0 -2.36,0.5 -3.17,1.31 -0.81,0.81 -1.31,1.93 -1.31,3.17 0,1.24 0.5,2.36 1.31,3.17 0.81,0.81 1.93,1.31 3.17,1.31 1.24,0 2.36,-0.5 3.17,-1.31 0.81,-0.81 1.31,-1.93 1.31,-3.17 0,-1.24 -0.5,-2.36 -1.31,-3.17z"/>
  <path class="fil3" d="M19.54 18.5l-3.71 -3.71c-0.12,0.12 -0.23,0.24 -0.36,0.35l3.71 3.71c0.06,0.06 0.19,0.03 0.29,-0.07l0 0c0.1,-0.1 0.13,-0.23 0.07,-0.29z"/>
  <path class="fil2" d="M19.49 18.54l-3.67 -3.67 -0.13 0.13 -0.14 0.13 3.67 3.67c0.01,0.01 0.04,0.02 0.07,0.01 0.04,-0.01 0.09,-0.04 0.13,-0.08 0.04,-0.04 0.07,-0.09 0.08,-0.13 0.01,-0.03 0.01,-0.06 -0.01,-0.07zm-3.63 -3.8l3.71 3.71c0.05,0.05 0.06,0.11 0.04,0.19 -0.01,0.06 -0.05,0.13 -0.11,0.19 -0.06,0.06 -0.12,0.09 -0.19,0.11 -0.07,0.02 -0.14,0.01 -0.19,-0.04l-3.76 -3.76 0.04 -0.04c0.06,-0.06 0.12,-0.12 0.18,-0.18 0.06,-0.06 0.12,-0.12 0.17,-0.18l0.04 -0.04 0.04 0.04z"/>
 </g>
</svg>
