<?xml version="1.0" encoding="UTF-8"?>
<!DOCTYPE svg PUBLIC "-//W3C//DTD SVG 1.1//EN" "http://www.w3.org/Graphics/SVG/1.1/DTD/svg11.dtd">
<!-- Creator: CorelDRAW 2018 (64-Bit) -->
<svg xmlns="http://www.w3.org/2000/svg" xml:space="preserve" width="60.0632mm" height="47mm" version="1.1" style="shape-rendering:geometricPrecision; text-rendering:geometricPrecision; image-rendering:optimizeQuality; fill-rule:evenodd; clip-rule:evenodd"
viewBox="0 0 59.92 46.89"
 xmlns:xlink="http://www.w3.org/1999/xlink">
 <defs>
  <style type="text/css">
   <![CDATA[
    .str1 {stroke:#55ADAD;stroke-width:1;stroke-miterlimit:22.9256}
    .str0 {stroke:#59656C;stroke-width:1;stroke-miterlimit:22.9256}
    .fil2 {fill:none}
    .fil1 {fill:#55ADAD}
    .fil0 {fill:white}
   ]]>
  </style>
 </defs>
 <g id="Слой_x0020_1">
  <metadata id="CorelCorpID_0Corel-Layer"/>
  <g id="_1635690256">
   <path class="fil0 str0" d="M16.79 16.16c-0.38,-0.67 -0.7,-1.02 -1.71,-1 -0.7,0.01 -1.65,0.11 -2.11,0.51 -0.48,0.42 -0.56,1.36 -0.06,1.83 0.26,0.25 1.35,0.72 1.81,0.83 -0.17,0.24 -0.22,0.19 -0.48,0.47 -2.16,2.32 -2.16,4.48 -1.4,7.74 0.26,1.11 0.68,1.77 0.68,2.93 -0.02,2.66 -0.35,4.29 2.97,4.29 1,-0 2.6,0.19 3.38,-0.34 1.19,-0.81 0.88,-1.98 1.02,-2.57 1.19,-0.08 3.22,0.07 4.49,0.12l9.19 0c1.27,-0.06 3.29,-0.2 4.49,-0.12 0.15,0.65 -0.14,1.82 1.08,2.61 0.76,0.5 4.41,0.4 5.08,0.1 1.56,-0.7 1.23,-2.63 1.22,-4.09 -0.01,-1.2 0.43,-1.84 0.69,-3.01 1.42,-6.24 -1.26,-7.14 -1.9,-8.13 0.5,-0.12 1.59,-0.58 1.86,-0.87 0.48,-0.53 0.4,-1.43 -0.16,-1.84 -0.42,-0.31 -1.55,-0.47 -2.15,-0.47 -0.97,0 -1.26,0.36 -1.61,1 -0.52,-0.84 -1.07,-2.43 -1.54,-3.46 -0.49,-1.1 -1.43,-2.2 -2.41,-2.66 -2.76,-1.28 -16.15,-1.23 -18.47,0.01 -2.63,1.4 -2.6,3.86 -3.95,6.11zm27.52 7.89c0.21,-0.79 0.06,-1.56 -0.41,-2.03 -0.97,-1 -5.48,0.81 -5.83,1.24 -0.42,0.52 -0.18,1.59 0.19,1.97 0.49,0.51 1.46,0.37 2.3,0.37 1.86,-0 3.25,0.31 3.75,-1.54zm-28.71 -0.19c0.51,1.95 1.54,1.73 3.51,1.73 0.73,0 1.88,0.16 2.42,-0.25 0.44,-0.34 0.8,-1.23 0.45,-1.92 -0.39,-0.78 -4.89,-2.2 -5.79,-1.54 -0.47,0.35 -0.8,1.17 -0.59,1.98zm3.26 -6.21c2.02,-0.05 4.04,-0.26 6.09,-0.31 3.49,-0.1 6.57,-0.01 10.03,0.02 2.04,0.01 4.06,0.23 6.09,0.28 -0.65,-2.25 -1.48,-4.38 -3.54,-5.52 -1.97,-1.09 -13,-1.11 -15.13,-0 -2.05,1.06 -2.88,3.36 -3.54,5.53z"/>
   <g>
    <circle class="fil0 str1" cx="32.11" cy="27.76" r="7.91"/>
    <path class="fil1" d="M44.13 39.14l-6.13 -6.13c-0.19,0.2 -0.39,0.39 -0.59,0.58l6.13 6.13c0.1,0.1 0.31,0.05 0.47,-0.11l0 0c0.16,-0.16 0.21,-0.37 0.11,-0.47z"/>
   </g>
  </g>
  <rect class="fil2" width="59.92" height="46.89"/>
 </g>
</svg>
