<?xml version="1.0" encoding="UTF-8"?>
<!DOCTYPE svg PUBLIC "-//W3C//DTD SVG 1.1//EN" "http://www.w3.org/Graphics/SVG/1.1/DTD/svg11.dtd">
<!-- Creator: CorelDRAW 2018 (64-Bit) -->
<svg xmlns="http://www.w3.org/2000/svg" xml:space="preserve" width="60mm" height="60mm" version="1.1" style="shape-rendering:geometricPrecision; text-rendering:geometricPrecision; image-rendering:optimizeQuality; fill-rule:evenodd; clip-rule:evenodd"
viewBox="0 0 13.43 13.43"
 xmlns:xlink="http://www.w3.org/1999/xlink">
 <defs>
  <style type="text/css">
   <![CDATA[
    .str0 {stroke:#59656C;stroke-width:0.22;stroke-miterlimit:22.9256}
    .fil1 {fill:none}
    .fil0 {fill:#59656C}
   ]]>
  </style>
 </defs>
 <g id="Слой_x0020_1">
  <metadata id="CorelCorpID_0Corel-Layer"/>
  <g id="_4611825408">
   <path class="fil0" d="M8.88 9.25l2.61 0c0.06,0 0.11,0.05 0.11,0.11l0 0c0,0.06 -0.05,0.11 -0.11,0.11l-2.72 0 -0 -0 -0.01 -0c-0,-0 -0.01,-0 -0.01,-0 -0.03,-0.01 -0.05,-0.02 -0.07,-0.04 -0.01,-0.01 -0.01,-0.02 -0.02,-0.03l-0 -0 -0 -0 -0 -0 -0 -0 -0 -0 -0 -0 -0 -0 -0 -0 -0 -0 -0 -0 -0 -0 -0 -0 -0 -0 -0 -0 0 -6.11c0,-0.06 0.05,-0.11 0.11,-0.11l0 0c0.06,0 0.11,0.05 0.11,0.11l0 5.99zm-0.22 0.11l0 0z"/>
   <path class="fil1 str0" d="M2.72 6.27c-0.32,0.06 -0.81,-0.12 -0.93,0.19 -0.04,0.11 -0.02,1.02 -0.02,1.29 0,0.35 -0.09,0.81 0.29,0.82l5.92 -0.02 0.01 -1.15c-0,-0.17 -0.05,-0.22 -0.12,-0.34l-1.88 -3.11c-0.13,-0.23 -0.19,-0.38 -0.53,-0.38 -0.6,-0 -1.21,0 -1.81,0 -0.29,0 -0.62,-0.05 -0.79,0.12 -0.18,0.17 -0.13,0.49 -0.13,0.78 0,0.59 0.02,1.22 -0,1.81z"/>
   <path class="fil1 str0" d="M9.63 3.85c-0.1,0.06 -0.06,0.33 -0.06,0.46 0,0.25 -0.02,1.49 0.02,1.56 0.06,0.11 0.31,0.07 0.45,0.07 0.25,0 1.49,0.02 1.56,-0.02 0.11,-0.05 0.07,-0.31 0.07,-0.45 0,-0.25 0.02,-1.5 -0.02,-1.57 -0.06,-0.11 -0.32,-0.07 -0.45,-0.07 -0.24,0 -1.51,-0.02 -1.56,0.02z"/>
   <path class="fil1 str0" d="M9.57 6.64l0 1.75c0,0.12 0.05,0.17 0.17,0.17l1.75 0c0.13,0 0.18,-0.04 0.18,-0.17l0 -1.75c0,-0.14 -0.04,-0.18 -0.18,-0.18l-1.75 0c-0.14,0 -0.17,0.04 -0.17,0.18z"/>
   <g>
    <path class="fil1 str0" d="M6.84 9.82c0.11,-0.38 -0.16,-0.68 -0.44,-0.76 -0.36,-0.1 -0.67,0.16 -0.75,0.43 -0.22,0.79 0.96,1.13 1.19,0.33z"/>
    <path class="fil1 str0" d="M2.89 9.73c0.04,0.33 0.32,0.58 0.68,0.55 0.32,-0.03 0.6,-0.32 0.55,-0.68 -0.04,-0.31 -0.32,-0.59 -0.68,-0.55 -0.31,0.03 -0.59,0.32 -0.55,0.68z"/>
   </g>
  </g>
  <rect class="fil1" x="-0" width="13.43" height="13.43"/>
 </g>
</svg>
