<?xml version="1.0" encoding="UTF-8"?>
<!DOCTYPE svg PUBLIC "-//W3C//DTD SVG 1.1//EN" "http://www.w3.org/Graphics/SVG/1.1/DTD/svg11.dtd">
<!-- Creator: CorelDRAW 2018 (64-Bit) -->
<svg xmlns="http://www.w3.org/2000/svg" xml:space="preserve" width="60mm" height="60mm" version="1.1" style="shape-rendering:geometricPrecision; text-rendering:geometricPrecision; image-rendering:optimizeQuality; fill-rule:evenodd; clip-rule:evenodd"
viewBox="0 0 21.77 21.77"
 xmlns:xlink="http://www.w3.org/1999/xlink">
 <defs>
  <style type="text/css">
   <![CDATA[
    .str0 {stroke:#59656C;stroke-width:0.36;stroke-miterlimit:22.9256}
    .fil0 {fill:none}
    .fil1 {fill:#59656C}
   ]]>
  </style>
 </defs>
 <g id="Слой_x0020_1">
  <metadata id="CorelCorpID_0Corel-Layer"/>
  <g id="_4798213456">
   <circle class="fil0 str0" cx="10.89" cy="10.89" r="7.14"/>
   <g>
    <path class="fil1" d="M10.89 6.16l0 0c0.13,0 0.9,0.11 0.89,0.24l-0.65 6.93c-0.01,0.13 -0.11,0.24 -0.24,0.24l-0 0c-0.13,0 -0.23,-0.11 -0.24,-0.24l-0.65 -6.93c-0.01,-0.13 0.76,-0.24 0.89,-0.24z"/>
    <path class="fil1" d="M10.89 14.66c0.27,0 0.48,0.22 0.48,0.48 0,0.27 -0.22,0.48 -0.48,0.48 -0.27,0 -0.48,-0.22 -0.48,-0.48 0,-0.27 0.22,-0.48 0.48,-0.48z"/>
   </g>
  </g>
  <rect class="fil0" x="-0" width="21.77" height="21.77"/>
 </g>
</svg>
