<?xml version="1.0" encoding="UTF-8"?>
<!DOCTYPE svg PUBLIC "-//W3C//DTD SVG 1.1//EN" "http://www.w3.org/Graphics/SVG/1.1/DTD/svg11.dtd">
<!-- Creator: CorelDRAW 2018 (64-Bit) -->
<svg xmlns="http://www.w3.org/2000/svg" xml:space="preserve" width="60.0632mm" height="47mm" version="1.1" style="shape-rendering:geometricPrecision; text-rendering:geometricPrecision; image-rendering:optimizeQuality; fill-rule:evenodd; clip-rule:evenodd"
viewBox="0 0 62.71 49.07"
 xmlns:xlink="http://www.w3.org/1999/xlink">
 <defs>
  <style type="text/css">
   <![CDATA[
    .str1 {stroke:#59656C;stroke-width:1.04;stroke-miterlimit:22.9256}
    .str0 {stroke:#55ADAD;stroke-width:0.78;stroke-miterlimit:22.9256}
    .fil0 {fill:none}
   ]]>
  </style>
 </defs>
 <g id="Слой_x0020_1">
  <metadata id="CorelCorpID_0Corel-Layer"/>
  <g id="_1635689968">
   <path class="fil0 str0" d="M31.93 37.45l0.57 0c0.03,1.06 0.1,2.24 0.56,3.75 0.37,1.22 1.73,1.29 2.21,0.33 0.25,-1.26 0.39,-2.68 0.43,-4.08l11.81 0 5.22 7.73 -26.02 0 5.22 -7.73z"/>
   <g>
    <path class="fil0 str1" d="M33.06 41.2c0.37,1.22 1.73,1.29 2.21,0.33 0.66,-3.37 0.62,-7.96 -0.4,-9.95 -0.59,-1.17 -3.02,-4.99 -3.09,-5.85 -0.09,-1.06 0.51,-7.48 0.81,-8.09 1.43,0.89 2.52,2.53 3.92,3.28 0.53,0.29 6.95,1.58 6.77,-0.44 -0.12,-1.31 -3.7,-1.19 -6.43,-2.58 -1.64,-2.32 -2.94,-3.88 -3.61,-4.36 -1.05,-0.74 -5.99,-1.57 -7.44,-1.1 -2.7,0.88 -5.1,0.75 -6.47,2.61 -0.66,0.88 -1.28,1.68 -1.94,2.61 -0.78,1.09 -1.58,2.33 -0.8,3.08 1.35,1.3 3.82,-3.83 5.14,-4.35 0.29,-0.11 4.26,-0.91 5.02,-0.57 0.3,1.14 -0.35,4.43 -0.47,5.89 -0.19,2.32 -0.61,3.64 0.7,5.46 0.85,1.18 2.06,2.43 2.99,3.48 3.89,4.39 1.71,5.95 3.1,10.55z"/>
    <path class="fil0 str1" d="M29.43 33.33c-0.37,-0.71 -1.77,-2.63 -2.45,-3.09 -0.87,0.81 -1.55,2.15 -2.22,3.2 -1.18,1.87 -2.01,2.59 -3.91,4.26 -0.74,0.66 -2.74,1.65 -2.03,3.14 1.01,2.11 3.11,-0.35 5.65,-2.07 2.59,-1.76 3.21,-2.28 4.69,-4.92 0.19,-0.35 0.06,-0.1 0.26,-0.52z"/>
    <path class="fil0 str1" d="M28.08 7.25c0,1.06 0.43,1.93 0.95,2.51 1.79,1.99 5.97,1.15 5.97,-2.51 0,-2.32 -2.53,-4.15 -4.96,-3.01 -0.23,0.11 -0.76,0.48 -0.95,0.67 -0.45,0.45 -1.01,1.48 -1.01,2.34z"/>
   </g>
  </g>
  <rect class="fil0" width="62.71" height="49.07"/>
 </g>
</svg>
