<?xml version="1.0" encoding="UTF-8"?>
<!DOCTYPE svg PUBLIC "-//W3C//DTD SVG 1.1//EN" "http://www.w3.org/Graphics/SVG/1.1/DTD/svg11.dtd">
<!-- Creator: CorelDRAW 2018 (64-Bit) -->
<svg xmlns="http://www.w3.org/2000/svg" xml:space="preserve" width="60mm" height="60mm" version="1.1" style="shape-rendering:geometricPrecision; text-rendering:geometricPrecision; image-rendering:optimizeQuality; fill-rule:evenodd; clip-rule:evenodd"
viewBox="0 0 13.57 13.57"
 xmlns:xlink="http://www.w3.org/1999/xlink">
 <defs>
  <style type="text/css">
   <![CDATA[
    .fil1 {fill:none}
    .fil0 {fill:#59656C}
   ]]>
  </style>
 </defs>
 <g id="Слой_x0020_1">
  <metadata id="CorelCorpID_0Corel-Layer"/>
  <g id="_4726791856">
   <path class="fil0" d="M9.79 5.04l0.18 0.01 0 0.18 0 0.53c0,0.07 0.06,0.13 0.13,0.13l0 0c0.07,0 0.13,-0.06 0.13,-0.13l0 -0.83c0,-0.01 0,-0.01 0,-0.02l0 -0c0,-0.04 -0.01,-0.07 -0.04,-0.09l-0 -0 -0 -0 -0 -0c-0.03,-0.03 -0.07,-0.04 -0.12,-0.04l-0.82 0c-0.07,0 -0.13,0.06 -0.13,0.13l0 0c0,0.07 0.06,0.13 0.13,0.13l0.52 0z"/>
   <path class="fil0" d="M3.27 10.27l7.14 0c0.06,0 0.11,0.05 0.11,0.11l0 0c0,0.06 -0.05,0.11 -0.11,0.11l-7.26 0 -0 -0 -0.01 -0c-0,-0 -0.01,-0 -0.01,-0 -0.03,-0.01 -0.05,-0.02 -0.07,-0.04 -0.01,-0.01 -0.01,-0.02 -0.02,-0.03l-0 -0 -0 -0 -0 -0 -0 -0 -0 -0 -0 -0 -0 -0 -0 -0 -0 -0 -0 -0 -0 -0 -0 -0 -0 -0 -0 -0 0 -7.2c0,-0.06 0.05,-0.11 0.11,-0.11l0 0c0.06,0 0.11,0.05 0.11,0.11l0 7.08zm-0.23 0.11l0 0z"/>
   <rect class="fil0" transform="matrix(-0.878394 -0.878394 -0.878396 0.878396 6.73402 6.41526)" width="0.18" height="3.07" rx="0.09" ry="0.09"/>
   <rect class="fil0" transform="matrix(-0.878394 -0.878394 -0.878396 0.878396 10.2423 4.9551)" width="0.18" height="3.07" rx="0.09" ry="0.09"/>
   <path class="fil0" d="M6.5 6.33l-0 0c-0.06,0.03 -0.05,0.11 -0.01,0.16l0.97 1.08c0.04,0.05 0.12,0.05 0.16,0.01l0 -0c0.04,-0.04 0.05,-0.11 0.01,-0.16l-0.97 -1.08c-0.04,-0.05 -0.1,-0.04 -0.16,-0.01z"/>
  </g>
  <rect class="fil1" x="-0" width="13.57" height="13.57"/>
 </g>
</svg>
