<?xml version="1.0" encoding="UTF-8"?>
<!DOCTYPE svg PUBLIC "-//W3C//DTD SVG 1.1//EN" "http://www.w3.org/Graphics/SVG/1.1/DTD/svg11.dtd">
<!-- Creator: CorelDRAW 2018 (64-Bit) -->
<svg xmlns="http://www.w3.org/2000/svg" xml:space="preserve" width="28.9542mm" height="28.9542mm" version="1.1" style="shape-rendering:geometricPrecision; text-rendering:geometricPrecision; image-rendering:optimizeQuality; fill-rule:evenodd; clip-rule:evenodd"
viewBox="0 0 37.11 37.11"
 xmlns:xlink="http://www.w3.org/1999/xlink">
 <defs>
  <style type="text/css">
   <![CDATA[
    .fil1 {fill:#6B757A;fill-opacity:0.321569}
    .fil0 {fill:white;fill-opacity:0.321569}
   ]]>
  </style>
 </defs>
 <g id="Слой_x0020_1">
  <metadata id="CorelCorpID_0Corel-Layer"/>
  <g id="_1255354640">
   <path class="fil0" d="M18.55 0c10.25,0 18.55,8.31 18.55,18.55 0,10.25 -8.31,18.55 -18.55,18.55 -10.25,0 -18.55,-8.31 -18.55,-18.55 0,-10.25 8.31,-18.55 18.55,-18.55z"/>
   <g>
    <path class="fil1" d="M9.61 22.57c0,0.77 0.87,1.2 1.51,0.56l0.96 -0.95c0.28,-0.28 0.55,-0.59 0.85,-0.86l2.78 -2.78c0,-0 0.04,-0.03 0.04,-0.04 0.37,-0.34 0.71,-0.71 1.06,-1.06l0.2 -0.21c0.3,-0.3 0.59,-0.62 0.91,-0.9 0.04,-0.04 0.04,-0.03 0.08,-0.08l0.27 -0.27c0.1,-0.1 0.2,-0.18 0.28,-0.29 0.16,0.11 1.13,1.11 1.38,1.36l4.11 4.11c0,0 0.01,0.01 0.01,0.01 0,0 0.01,0.01 0.01,0.01 0,0 0.01,0.01 0.01,0.01l1.66 1.67c0.37,0.37 0.65,0.7 1.2,0.51 0.49,-0.16 0.74,-0.77 0.44,-1.22 -0.13,-0.2 -1.74,-1.78 -1.93,-1.97l-0.48 -0.48c-0.04,-0.04 -0.04,-0.03 -0.08,-0.08 -0,-0 -0.01,-0.01 -0.01,-0.01l-3.63 -3.63c-0,-0 -0.01,-0.01 -0.01,-0.01l-0.12 -0.12c-0.03,-0.03 -0.04,-0.04 -0.06,-0.06l-0.03 -0.03c-0,-0 -0.01,-0.01 -0.01,-0.01 -0.02,-0.02 -0.02,-0.02 -0.04,-0.04l-0.15 -0.16c-0.42,-0.4 -0.84,-0.8 -1.23,-1.22l-0.05 -0.05c-0.27,-0.28 -0.53,-0.64 -0.97,-0.64 -0.16,0 -0.32,0.05 -0.43,0.11l-0.16 0.12c-0.02,0.02 -0.03,0.04 -0.06,0.07l-1.01 1.01c-0.02,0.02 -0.01,0.02 -0.04,0.04l-0.29 0.28c-0.25,0.23 -0.5,0.47 -0.72,0.72l-0.38 0.4c-0.59,0.62 -1.24,1.17 -1.82,1.8 -0,0 -0.01,0.01 -0.01,0.01 -0.05,0.06 -0.09,0.09 -0.14,0.14l-1.07 1.07c-0.32,0.3 -0.66,0.6 -0.94,0.94 -0.02,0.03 -0.04,0.05 -0.07,0.08 -0.44,0.48 -0.94,0.92 -1.4,1.39 -0.18,0.18 -0.41,0.36 -0.41,0.72z"/>
    <path class="fil1" d="M18.55 0c10.25,0 18.55,8.31 18.55,18.55 0,10.25 -8.31,18.55 -18.55,18.55 -10.25,0 -18.55,-8.31 -18.55,-18.55 0,-10.25 8.31,-18.55 18.55,-18.55zm0 1.54c9.4,0 17.02,7.62 17.02,17.02 0,9.4 -7.62,17.02 -17.02,17.02 -9.4,0 -17.02,-7.62 -17.02,-17.02 0,-9.4 7.62,-17.02 17.02,-17.02z"/>
   </g>
  </g>
 </g>
</svg>
