<?xml version="1.0" encoding="UTF-8"?>
<!DOCTYPE svg PUBLIC "-//W3C//DTD SVG 1.1//EN" "http://www.w3.org/Graphics/SVG/1.1/DTD/svg11.dtd">
<!-- Creator: CorelDRAW 2018 (64-Bit) -->
<svg xmlns="http://www.w3.org/2000/svg" xml:space="preserve" width="134.444mm" height="63.7117mm" version="1.1" style="shape-rendering:geometricPrecision; text-rendering:geometricPrecision; image-rendering:optimizeQuality; fill-rule:evenodd; clip-rule:evenodd"
viewBox="0 0 337.05 159.72"
 xmlns:xlink="http://www.w3.org/1999/xlink">
 <defs>
  <style type="text/css">
   <![CDATA[
    .fil1 {fill:#75BDBD}
    .fil0 {fill:#D9E3F2}
   ]]>
  </style>
 </defs>
 <g id="Слой_x0020_1">
  <metadata id="CorelCorpID_0Corel-Layer"/>
  <g id="_1572830096">
   <g>
    <circle class="fil0" cx="2.08" cy="2.08" r="2.08"/>
    <circle class="fil0" cx="13.15" cy="2.08" r="2.08"/>
    <circle class="fil0" cx="24.22" cy="2.08" r="2.08"/>
    <circle class="fil0" cx="35.29" cy="2.08" r="2.08"/>
    <circle class="fil0" cx="46.36" cy="2.08" r="2.08"/>
    <circle class="fil0" cx="57.44" cy="2.08" r="2.08"/>
    <circle class="fil0" cx="68.51" cy="2.08" r="2.08"/>
    <circle class="fil0" cx="79.58" cy="2.08" r="2.08"/>
    <circle class="fil0" cx="90.65" cy="2.08" r="2.08"/>
    <circle class="fil0" cx="101.73" cy="2.08" r="2.08"/>
    <circle class="fil0" cx="112.8" cy="2.08" r="2.08"/>
    <circle class="fil0" cx="123.87" cy="2.08" r="2.08"/>
    <circle class="fil0" cx="134.94" cy="2.08" r="2.08"/>
    <circle class="fil0" cx="2.08" cy="13.15" r="2.08"/>
    <circle class="fil0" cx="13.15" cy="13.15" r="2.08"/>
    <circle class="fil0" cx="24.22" cy="13.15" r="2.08"/>
    <circle class="fil0" cx="35.29" cy="13.15" r="2.08"/>
    <circle class="fil0" cx="46.36" cy="13.15" r="2.08"/>
    <circle class="fil0" cx="57.44" cy="13.15" r="2.08"/>
    <circle class="fil0" cx="68.51" cy="13.15" r="2.08"/>
    <circle class="fil0" cx="79.58" cy="13.15" r="2.08"/>
    <circle class="fil0" cx="90.65" cy="13.15" r="2.08"/>
    <circle class="fil0" cx="101.73" cy="13.15" r="2.08"/>
    <circle class="fil0" cx="112.8" cy="13.15" r="2.08"/>
    <circle class="fil0" cx="123.87" cy="13.15" r="2.08"/>
    <circle class="fil0" cx="134.94" cy="13.15" r="2.08"/>
    <circle class="fil0" cx="2.08" cy="24.22" r="2.08"/>
    <circle class="fil0" cx="13.15" cy="24.22" r="2.08"/>
    <circle class="fil0" cx="24.22" cy="24.22" r="2.08"/>
    <circle class="fil0" cx="35.29" cy="24.22" r="2.08"/>
    <circle class="fil0" cx="46.36" cy="24.22" r="2.08"/>
    <circle class="fil0" cx="57.44" cy="24.22" r="2.08"/>
    <circle class="fil0" cx="68.51" cy="24.22" r="2.08"/>
    <circle class="fil0" cx="79.58" cy="24.22" r="2.08"/>
    <circle class="fil0" cx="90.65" cy="24.22" r="2.08"/>
    <circle class="fil0" cx="101.73" cy="24.22" r="2.08"/>
    <circle class="fil0" cx="112.8" cy="24.22" r="2.08"/>
    <circle class="fil0" cx="123.87" cy="24.22" r="2.08"/>
    <circle class="fil0" cx="134.94" cy="24.22" r="2.08"/>
    <circle class="fil0" cx="2.08" cy="35.03" r="2.08"/>
    <circle class="fil0" cx="13.15" cy="35.03" r="2.08"/>
    <circle class="fil0" cx="24.22" cy="35.03" r="2.08"/>
    <circle class="fil0" cx="35.29" cy="35.03" r="2.08"/>
    <circle class="fil0" cx="46.36" cy="35.03" r="2.08"/>
    <circle class="fil0" cx="57.44" cy="35.03" r="2.08"/>
    <circle class="fil0" cx="68.51" cy="35.03" r="2.08"/>
    <circle class="fil0" cx="79.58" cy="35.03" r="2.08"/>
    <circle class="fil0" cx="90.65" cy="35.03" r="2.08"/>
    <circle class="fil0" cx="101.73" cy="35.03" r="2.08"/>
    <circle class="fil0" cx="112.8" cy="35.03" r="2.08"/>
    <circle class="fil0" cx="123.87" cy="35.03" r="2.08"/>
    <circle class="fil0" cx="134.94" cy="35.03" r="2.08"/>
    <circle class="fil0" cx="2.08" cy="46.11" r="2.08"/>
    <circle class="fil0" cx="13.15" cy="46.11" r="2.08"/>
    <circle class="fil0" cx="24.22" cy="46.11" r="2.08"/>
    <circle class="fil0" cx="35.29" cy="46.11" r="2.08"/>
    <circle class="fil0" cx="46.36" cy="46.11" r="2.08"/>
    <circle class="fil0" cx="57.44" cy="46.11" r="2.08"/>
    <circle class="fil0" cx="68.51" cy="46.11" r="2.08"/>
    <circle class="fil0" cx="79.58" cy="46.11" r="2.08"/>
    <circle class="fil0" cx="90.65" cy="46.11" r="2.08"/>
    <circle class="fil0" cx="101.73" cy="46.11" r="2.08"/>
    <circle class="fil0" cx="112.8" cy="46.11" r="2.08"/>
    <circle class="fil0" cx="123.87" cy="46.11" r="2.08"/>
    <circle class="fil0" cx="134.94" cy="46.11" r="2.08"/>
    <circle class="fil0" cx="2.08" cy="57.18" r="2.08"/>
    <circle class="fil0" cx="13.15" cy="57.18" r="2.08"/>
    <circle class="fil0" cx="24.22" cy="57.18" r="2.08"/>
    <circle class="fil0" cx="35.29" cy="57.18" r="2.08"/>
    <circle class="fil0" cx="46.36" cy="57.18" r="2.08"/>
    <circle class="fil0" cx="57.44" cy="57.18" r="2.08"/>
    <circle class="fil0" cx="68.51" cy="57.18" r="2.08"/>
    <circle class="fil0" cx="79.58" cy="57.18" r="2.08"/>
    <circle class="fil0" cx="90.65" cy="57.18" r="2.08"/>
    <circle class="fil0" cx="101.73" cy="57.18" r="2.08"/>
    <circle class="fil0" cx="112.8" cy="57.18" r="2.08"/>
    <circle class="fil0" cx="123.87" cy="57.18" r="2.08"/>
    <circle class="fil0" cx="134.94" cy="57.18" r="2.08"/>
    <circle class="fil0" cx="2.08" cy="68.25" r="2.08"/>
    <circle class="fil0" cx="13.15" cy="68.25" r="2.08"/>
    <circle class="fil0" cx="24.22" cy="68.25" r="2.08"/>
    <circle class="fil0" cx="35.29" cy="68.25" r="2.08"/>
    <circle class="fil0" cx="46.36" cy="68.25" r="2.08"/>
    <circle class="fil0" cx="57.44" cy="68.25" r="2.08"/>
    <circle class="fil0" cx="68.51" cy="68.25" r="2.08"/>
    <circle class="fil0" cx="79.58" cy="68.25" r="2.08"/>
    <circle class="fil0" cx="90.65" cy="68.25" r="2.08"/>
    <circle class="fil0" cx="101.73" cy="68.25" r="2.08"/>
    <circle class="fil0" cx="112.8" cy="68.25" r="2.08"/>
    <circle class="fil0" cx="123.87" cy="68.25" r="2.08"/>
    <circle class="fil0" cx="134.94" cy="68.25" r="2.08"/>
    <circle class="fil0" cx="2.08" cy="79.32" r="2.08"/>
    <circle class="fil0" cx="13.15" cy="79.32" r="2.08"/>
    <circle class="fil0" cx="24.22" cy="79.32" r="2.08"/>
    <circle class="fil0" cx="35.29" cy="79.32" r="2.08"/>
    <circle class="fil0" cx="46.36" cy="79.32" r="2.08"/>
    <circle class="fil0" cx="57.44" cy="79.32" r="2.08"/>
    <circle class="fil0" cx="68.51" cy="79.32" r="2.08"/>
    <circle class="fil0" cx="79.58" cy="79.32" r="2.08"/>
    <circle class="fil0" cx="90.65" cy="79.32" r="2.08"/>
    <circle class="fil0" cx="101.73" cy="79.32" r="2.08"/>
    <circle class="fil0" cx="112.8" cy="79.32" r="2.08"/>
    <circle class="fil0" cx="123.87" cy="79.32" r="2.08"/>
    <circle class="fil0" cx="134.94" cy="79.32" r="2.08"/>
    <circle class="fil0" cx="2.08" cy="90.4" r="2.08"/>
    <circle class="fil0" cx="13.15" cy="90.4" r="2.08"/>
    <circle class="fil0" cx="24.22" cy="90.4" r="2.08"/>
    <circle class="fil0" cx="35.29" cy="90.4" r="2.08"/>
    <circle class="fil0" cx="46.36" cy="90.4" r="2.08"/>
    <circle class="fil0" cx="57.44" cy="90.4" r="2.08"/>
    <circle class="fil0" cx="68.51" cy="90.4" r="2.08"/>
    <circle class="fil0" cx="79.58" cy="90.4" r="2.08"/>
    <circle class="fil0" cx="90.65" cy="90.4" r="2.08"/>
    <circle class="fil0" cx="101.73" cy="90.4" r="2.08"/>
    <circle class="fil0" cx="112.8" cy="90.4" r="2.08"/>
    <circle class="fil0" cx="123.87" cy="90.4" r="2.08"/>
    <circle class="fil0" cx="134.94" cy="90.4" r="2.08"/>
    <circle class="fil0" cx="2.08" cy="101.47" r="2.08"/>
    <circle class="fil0" cx="13.15" cy="101.47" r="2.08"/>
    <circle class="fil0" cx="24.22" cy="101.47" r="2.08"/>
    <circle class="fil0" cx="35.29" cy="101.47" r="2.08"/>
    <circle class="fil0" cx="46.36" cy="101.47" r="2.08"/>
    <circle class="fil0" cx="57.44" cy="101.47" r="2.08"/>
    <circle class="fil0" cx="68.51" cy="101.47" r="2.08"/>
    <circle class="fil0" cx="79.58" cy="101.47" r="2.08"/>
    <circle class="fil0" cx="90.65" cy="101.47" r="2.08"/>
    <circle class="fil0" cx="101.73" cy="101.47" r="2.08"/>
    <circle class="fil0" cx="112.8" cy="101.47" r="2.08"/>
    <circle class="fil0" cx="123.87" cy="101.47" r="2.08"/>
    <circle class="fil0" cx="134.94" cy="101.47" r="2.08"/>
    <circle class="fil0" cx="2.08" cy="112.54" r="2.08"/>
    <circle class="fil0" cx="13.15" cy="112.54" r="2.08"/>
    <circle class="fil0" cx="24.22" cy="112.54" r="2.08"/>
    <circle class="fil0" cx="35.29" cy="112.54" r="2.08"/>
    <circle class="fil0" cx="46.36" cy="112.54" r="2.08"/>
    <circle class="fil0" cx="57.44" cy="112.54" r="2.08"/>
    <circle class="fil0" cx="68.51" cy="112.54" r="2.08"/>
    <circle class="fil0" cx="79.58" cy="112.54" r="2.08"/>
    <circle class="fil0" cx="90.65" cy="112.54" r="2.08"/>
    <circle class="fil0" cx="101.73" cy="112.54" r="2.08"/>
    <circle class="fil0" cx="112.8" cy="112.54" r="2.08"/>
    <circle class="fil0" cx="123.87" cy="112.54" r="2.08"/>
    <circle class="fil0" cx="134.94" cy="112.54" r="2.08"/>
    <circle class="fil0" cx="2.08" cy="123.61" r="2.08"/>
    <circle class="fil0" cx="13.15" cy="123.61" r="2.08"/>
    <circle class="fil0" cx="24.22" cy="123.61" r="2.08"/>
    <circle class="fil0" cx="35.29" cy="123.61" r="2.08"/>
    <circle class="fil0" cx="46.36" cy="123.61" r="2.08"/>
    <circle class="fil0" cx="57.44" cy="123.61" r="2.08"/>
    <circle class="fil0" cx="68.51" cy="123.61" r="2.08"/>
    <circle class="fil0" cx="79.58" cy="123.61" r="2.08"/>
    <circle class="fil0" cx="90.65" cy="123.61" r="2.08"/>
    <circle class="fil0" cx="101.73" cy="123.61" r="2.08"/>
    <circle class="fil0" cx="112.8" cy="123.61" r="2.08"/>
    <circle class="fil0" cx="123.87" cy="123.61" r="2.08"/>
    <circle class="fil0" cx="134.94" cy="123.61" r="2.08"/>
    <circle class="fil0" cx="146.31" cy="2.08" r="2.08"/>
    <circle class="fil0" cx="157.38" cy="2.08" r="2.08"/>
    <circle class="fil0" cx="168.45" cy="2.08" r="2.08"/>
    <circle class="fil0" cx="179.52" cy="2.08" r="2.08"/>
    <circle class="fil0" cx="190.6" cy="2.08" r="2.08"/>
    <circle class="fil0" cx="201.67" cy="2.08" r="2.08"/>
    <circle class="fil0" cx="212.74" cy="2.08" r="2.08"/>
    <circle class="fil0" cx="223.81" cy="2.08" r="2.08"/>
    <circle class="fil0" cx="234.89" cy="2.08" r="2.08"/>
    <circle class="fil0" cx="245.96" cy="2.08" r="2.08"/>
    <circle class="fil0" cx="257.03" cy="2.08" r="2.08"/>
    <circle class="fil0" cx="268.1" cy="2.08" r="2.08"/>
    <circle class="fil0" cx="279.17" cy="2.08" r="2.08"/>
    <circle class="fil0" cx="290.25" cy="2.08" r="2.08"/>
    <circle class="fil0" cx="301.32" cy="2.08" r="2.08"/>
    <circle class="fil0" cx="312.39" cy="2.08" r="2.08"/>
    <circle class="fil0" cx="146.31" cy="13.15" r="2.08"/>
    <circle class="fil0" cx="157.38" cy="13.15" r="2.08"/>
    <circle class="fil0" cx="168.45" cy="13.15" r="2.08"/>
    <circle class="fil0" cx="179.52" cy="13.15" r="2.08"/>
    <circle class="fil0" cx="190.6" cy="13.15" r="2.08"/>
    <circle class="fil0" cx="201.67" cy="13.15" r="2.08"/>
    <circle class="fil0" cx="212.74" cy="13.15" r="2.08"/>
    <circle class="fil0" cx="223.81" cy="13.15" r="2.08"/>
    <circle class="fil0" cx="234.89" cy="13.15" r="2.08"/>
    <circle class="fil0" cx="245.96" cy="13.15" r="2.08"/>
    <circle class="fil0" cx="257.03" cy="13.15" r="2.08"/>
    <circle class="fil0" cx="268.1" cy="13.15" r="2.08"/>
    <circle class="fil0" cx="279.17" cy="13.15" r="2.08"/>
    <circle class="fil0" cx="290.25" cy="13.15" r="2.08"/>
    <circle class="fil0" cx="301.32" cy="13.15" r="2.08"/>
    <circle class="fil0" cx="312.39" cy="13.15" r="2.08"/>
    <circle class="fil0" cx="146.31" cy="24.22" r="2.08"/>
    <circle class="fil0" cx="157.38" cy="24.22" r="2.08"/>
    <circle class="fil0" cx="168.45" cy="24.22" r="2.08"/>
    <circle class="fil0" cx="179.52" cy="24.22" r="2.08"/>
    <circle class="fil0" cx="190.6" cy="24.22" r="2.08"/>
    <circle class="fil0" cx="201.67" cy="24.22" r="2.08"/>
    <circle class="fil0" cx="212.74" cy="24.22" r="2.08"/>
    <circle class="fil0" cx="223.81" cy="24.22" r="2.08"/>
    <circle class="fil0" cx="234.89" cy="24.22" r="2.08"/>
    <circle class="fil0" cx="245.96" cy="24.22" r="2.08"/>
    <circle class="fil0" cx="257.03" cy="24.22" r="2.08"/>
    <circle class="fil0" cx="268.1" cy="24.22" r="2.08"/>
    <circle class="fil0" cx="279.17" cy="24.22" r="2.08"/>
    <circle class="fil0" cx="290.25" cy="24.22" r="2.08"/>
    <circle class="fil0" cx="301.32" cy="24.22" r="2.08"/>
    <circle class="fil0" cx="312.39" cy="24.22" r="2.08"/>
    <circle class="fil0" cx="146.31" cy="35.03" r="2.08"/>
    <circle class="fil0" cx="157.38" cy="35.03" r="2.08"/>
    <circle class="fil0" cx="168.45" cy="35.03" r="2.08"/>
    <circle class="fil0" cx="179.52" cy="35.03" r="2.08"/>
    <circle class="fil0" cx="190.6" cy="35.03" r="2.08"/>
    <circle class="fil0" cx="201.67" cy="35.03" r="2.08"/>
    <circle class="fil0" cx="212.74" cy="35.03" r="2.08"/>
    <circle class="fil0" cx="223.81" cy="35.03" r="2.08"/>
    <circle class="fil0" cx="234.89" cy="35.03" r="2.08"/>
    <circle class="fil0" cx="245.96" cy="35.03" r="2.08"/>
    <circle class="fil0" cx="257.03" cy="35.03" r="2.08"/>
    <circle class="fil0" cx="268.1" cy="35.03" r="2.08"/>
    <circle class="fil0" cx="279.17" cy="35.03" r="2.08"/>
    <circle class="fil0" cx="290.25" cy="35.03" r="2.08"/>
    <circle class="fil0" cx="301.32" cy="35.03" r="2.08"/>
    <circle class="fil0" cx="312.39" cy="35.03" r="2.08"/>
    <circle class="fil0" cx="146.31" cy="46.11" r="2.08"/>
    <circle class="fil0" cx="157.38" cy="46.11" r="2.08"/>
    <circle class="fil0" cx="168.45" cy="46.11" r="2.08"/>
    <circle class="fil0" cx="179.52" cy="46.11" r="2.08"/>
    <circle class="fil0" cx="190.6" cy="46.11" r="2.08"/>
    <circle class="fil0" cx="201.67" cy="46.11" r="2.08"/>
    <circle class="fil0" cx="212.74" cy="46.11" r="2.08"/>
    <circle class="fil0" cx="223.81" cy="46.11" r="2.08"/>
    <circle class="fil0" cx="234.89" cy="46.11" r="2.08"/>
    <circle class="fil0" cx="245.96" cy="46.11" r="2.08"/>
    <circle class="fil0" cx="257.03" cy="46.11" r="2.08"/>
    <circle class="fil0" cx="268.1" cy="46.11" r="2.08"/>
    <circle class="fil0" cx="279.17" cy="46.11" r="2.08"/>
    <circle class="fil0" cx="290.25" cy="46.11" r="2.08"/>
    <circle class="fil0" cx="301.32" cy="46.11" r="2.08"/>
    <circle class="fil0" cx="312.39" cy="46.11" r="2.08"/>
    <circle class="fil0" cx="146.31" cy="57.18" r="2.08"/>
    <circle class="fil0" cx="157.38" cy="57.18" r="2.08"/>
    <circle class="fil0" cx="168.45" cy="57.18" r="2.08"/>
    <circle class="fil0" cx="179.52" cy="57.18" r="2.08"/>
    <circle class="fil0" cx="190.6" cy="57.18" r="2.08"/>
    <circle class="fil0" cx="201.67" cy="57.18" r="2.08"/>
    <circle class="fil0" cx="212.74" cy="57.18" r="2.08"/>
    <circle class="fil0" cx="223.81" cy="57.18" r="2.08"/>
    <circle class="fil0" cx="234.89" cy="57.18" r="2.08"/>
    <circle class="fil0" cx="245.96" cy="57.18" r="2.08"/>
    <circle class="fil0" cx="257.03" cy="57.18" r="2.08"/>
    <circle class="fil0" cx="268.1" cy="57.18" r="2.08"/>
    <circle class="fil0" cx="279.17" cy="57.18" r="2.08"/>
    <circle class="fil0" cx="290.25" cy="57.18" r="2.08"/>
    <circle class="fil0" cx="301.32" cy="57.18" r="2.08"/>
    <circle class="fil0" cx="312.39" cy="57.18" r="2.08"/>
    <circle class="fil0" cx="146.31" cy="68.25" r="2.08"/>
    <circle class="fil0" cx="157.38" cy="68.25" r="2.08"/>
    <circle class="fil0" cx="168.45" cy="68.25" r="2.08"/>
    <circle class="fil0" cx="179.52" cy="68.25" r="2.08"/>
    <circle class="fil0" cx="190.6" cy="68.25" r="2.08"/>
    <circle class="fil0" cx="201.67" cy="68.25" r="2.08"/>
    <circle class="fil0" cx="212.74" cy="68.25" r="2.08"/>
    <circle class="fil0" cx="223.81" cy="68.25" r="2.08"/>
    <circle class="fil0" cx="234.89" cy="68.25" r="2.08"/>
    <circle class="fil0" cx="245.96" cy="68.25" r="2.08"/>
    <circle class="fil0" cx="257.03" cy="68.25" r="2.08"/>
    <circle class="fil0" cx="268.1" cy="68.25" r="2.08"/>
    <circle class="fil0" cx="279.17" cy="68.25" r="2.08"/>
    <circle class="fil0" cx="290.25" cy="68.25" r="2.08"/>
    <circle class="fil0" cx="301.32" cy="68.25" r="2.08"/>
    <circle class="fil0" cx="312.39" cy="68.25" r="2.08"/>
    <circle class="fil0" cx="146.31" cy="79.32" r="2.08"/>
    <circle class="fil0" cx="157.38" cy="79.32" r="2.08"/>
    <circle class="fil0" cx="168.45" cy="79.32" r="2.08"/>
    <circle class="fil0" cx="179.52" cy="79.32" r="2.08"/>
    <circle class="fil0" cx="190.6" cy="79.32" r="2.08"/>
    <circle class="fil0" cx="201.67" cy="79.32" r="2.08"/>
    <circle class="fil0" cx="212.74" cy="79.32" r="2.08"/>
    <circle class="fil0" cx="223.81" cy="79.32" r="2.08"/>
    <circle class="fil0" cx="234.89" cy="79.32" r="2.08"/>
    <circle class="fil0" cx="245.96" cy="79.32" r="2.08"/>
    <circle class="fil0" cx="257.03" cy="79.32" r="2.08"/>
    <circle class="fil0" cx="268.1" cy="79.32" r="2.08"/>
    <circle class="fil0" cx="279.17" cy="79.32" r="2.08"/>
    <circle class="fil0" cx="290.25" cy="79.32" r="2.08"/>
    <circle class="fil0" cx="301.32" cy="79.32" r="2.08"/>
    <circle class="fil0" cx="312.39" cy="79.32" r="2.08"/>
    <circle class="fil0" cx="146.31" cy="90.4" r="2.08"/>
    <circle class="fil0" cx="157.38" cy="90.4" r="2.08"/>
    <circle class="fil0" cx="168.45" cy="90.4" r="2.08"/>
    <circle class="fil0" cx="179.52" cy="90.4" r="2.08"/>
    <circle class="fil0" cx="190.6" cy="90.4" r="2.08"/>
    <circle class="fil0" cx="201.67" cy="90.4" r="2.08"/>
    <circle class="fil0" cx="212.74" cy="90.4" r="2.08"/>
    <circle class="fil0" cx="223.81" cy="90.4" r="2.08"/>
    <circle class="fil0" cx="234.89" cy="90.4" r="2.08"/>
    <circle class="fil0" cx="245.96" cy="90.4" r="2.08"/>
    <circle class="fil0" cx="257.03" cy="90.4" r="2.08"/>
    <circle class="fil0" cx="268.1" cy="90.4" r="2.08"/>
    <circle class="fil0" cx="279.17" cy="90.4" r="2.08"/>
    <circle class="fil0" cx="290.25" cy="90.4" r="2.08"/>
    <circle class="fil0" cx="301.32" cy="90.4" r="2.08"/>
    <circle class="fil0" cx="312.39" cy="90.4" r="2.08"/>
    <circle class="fil0" cx="146.31" cy="101.47" r="2.08"/>
    <circle class="fil0" cx="157.38" cy="101.47" r="2.08"/>
    <circle class="fil0" cx="168.45" cy="101.47" r="2.08"/>
    <circle class="fil0" cx="179.52" cy="101.47" r="2.08"/>
    <circle class="fil0" cx="190.6" cy="101.47" r="2.08"/>
    <circle class="fil0" cx="201.67" cy="101.47" r="2.08"/>
    <circle class="fil0" cx="212.74" cy="101.47" r="2.08"/>
    <circle class="fil0" cx="223.81" cy="101.47" r="2.08"/>
    <circle class="fil0" cx="234.89" cy="101.47" r="2.08"/>
    <circle class="fil0" cx="245.96" cy="101.47" r="2.08"/>
    <circle class="fil0" cx="257.03" cy="101.47" r="2.08"/>
    <circle class="fil0" cx="268.1" cy="101.47" r="2.08"/>
    <circle class="fil0" cx="279.17" cy="101.47" r="2.08"/>
    <circle class="fil0" cx="290.25" cy="101.47" r="2.08"/>
    <circle class="fil0" cx="301.32" cy="101.47" r="2.08"/>
    <circle class="fil0" cx="312.39" cy="101.47" r="2.08"/>
    <circle class="fil0" cx="146.31" cy="112.54" r="2.08"/>
    <circle class="fil0" cx="157.38" cy="112.54" r="2.08"/>
    <circle class="fil0" cx="168.45" cy="112.54" r="2.08"/>
    <circle class="fil0" cx="179.52" cy="112.54" r="2.08"/>
    <circle class="fil0" cx="190.6" cy="112.54" r="2.08"/>
    <circle class="fil0" cx="201.67" cy="112.54" r="2.08"/>
    <circle class="fil0" cx="212.74" cy="112.54" r="2.08"/>
    <circle class="fil0" cx="223.81" cy="112.54" r="2.08"/>
    <circle class="fil0" cx="234.89" cy="112.54" r="2.08"/>
    <circle class="fil0" cx="245.96" cy="112.54" r="2.08"/>
    <circle class="fil0" cx="257.03" cy="112.54" r="2.08"/>
    <circle class="fil0" cx="268.1" cy="112.54" r="2.08"/>
    <circle class="fil0" cx="279.17" cy="112.54" r="2.08"/>
    <circle class="fil0" cx="290.25" cy="112.54" r="2.08"/>
    <circle class="fil0" cx="301.32" cy="112.54" r="2.08"/>
    <circle class="fil0" cx="312.39" cy="112.54" r="2.08"/>
    <circle class="fil0" cx="146.31" cy="123.61" r="2.08"/>
    <circle class="fil0" cx="157.38" cy="123.61" r="2.08"/>
    <circle class="fil0" cx="168.45" cy="123.61" r="2.08"/>
    <circle class="fil0" cx="179.52" cy="123.61" r="2.08"/>
    <circle class="fil0" cx="190.6" cy="123.61" r="2.08"/>
    <circle class="fil0" cx="201.67" cy="123.61" r="2.08"/>
    <circle class="fil0" cx="212.74" cy="123.61" r="2.08"/>
    <circle class="fil0" cx="223.81" cy="123.61" r="2.08"/>
    <circle class="fil0" cx="234.89" cy="123.61" r="2.08"/>
    <circle class="fil0" cx="245.96" cy="123.61" r="2.08"/>
    <circle class="fil0" cx="257.03" cy="123.61" r="2.08"/>
    <circle class="fil0" cx="268.1" cy="123.61" r="2.08"/>
    <circle class="fil0" cx="279.17" cy="123.61" r="2.08"/>
    <circle class="fil0" cx="290.25" cy="123.61" r="2.08"/>
    <circle class="fil0" cx="301.32" cy="123.61" r="2.08"/>
    <circle class="fil0" cx="312.39" cy="123.61" r="2.08"/>
    <circle class="fil0" cx="2.08" cy="135.5" r="2.08"/>
    <circle class="fil0" cx="13.15" cy="135.5" r="2.08"/>
    <circle class="fil0" cx="24.22" cy="135.5" r="2.08"/>
    <circle class="fil0" cx="35.29" cy="135.5" r="2.08"/>
    <circle class="fil0" cx="46.36" cy="135.5" r="2.08"/>
    <circle class="fil0" cx="57.44" cy="135.5" r="2.08"/>
    <circle class="fil0" cx="68.51" cy="135.5" r="2.08"/>
    <circle class="fil0" cx="79.58" cy="135.5" r="2.08"/>
    <circle class="fil0" cx="90.65" cy="135.5" r="2.08"/>
    <circle class="fil0" cx="101.73" cy="135.5" r="2.08"/>
    <circle class="fil0" cx="112.8" cy="135.5" r="2.08"/>
    <circle class="fil0" cx="123.87" cy="135.5" r="2.08"/>
    <circle class="fil0" cx="134.94" cy="135.5" r="2.08"/>
    <circle class="fil0" cx="2.08" cy="146.58" r="2.08"/>
    <circle class="fil0" cx="13.15" cy="146.58" r="2.08"/>
    <circle class="fil0" cx="24.22" cy="146.58" r="2.08"/>
    <circle class="fil0" cx="35.29" cy="146.58" r="2.08"/>
    <circle class="fil0" cx="46.36" cy="146.58" r="2.08"/>
    <circle class="fil0" cx="57.44" cy="146.58" r="2.08"/>
    <circle class="fil0" cx="68.51" cy="146.58" r="2.08"/>
    <circle class="fil0" cx="79.58" cy="146.58" r="2.08"/>
    <circle class="fil0" cx="90.65" cy="146.58" r="2.08"/>
    <circle class="fil0" cx="101.73" cy="146.58" r="2.08"/>
    <circle class="fil0" cx="112.8" cy="146.58" r="2.08"/>
    <circle class="fil0" cx="123.87" cy="146.58" r="2.08"/>
    <circle class="fil0" cx="134.94" cy="146.58" r="2.08"/>
    <circle class="fil0" cx="2.08" cy="157.65" r="2.08"/>
    <circle class="fil0" cx="13.15" cy="157.65" r="2.08"/>
    <circle class="fil0" cx="24.22" cy="157.65" r="2.08"/>
    <circle class="fil0" cx="35.29" cy="157.65" r="2.08"/>
    <circle class="fil0" cx="46.36" cy="157.65" r="2.08"/>
    <circle class="fil0" cx="57.44" cy="157.65" r="2.08"/>
    <circle class="fil0" cx="68.51" cy="157.65" r="2.08"/>
    <circle class="fil0" cx="79.58" cy="157.65" r="2.08"/>
    <circle class="fil0" cx="90.65" cy="157.65" r="2.08"/>
    <circle class="fil0" cx="101.73" cy="157.65" r="2.08"/>
    <circle class="fil0" cx="112.8" cy="157.65" r="2.08"/>
    <circle class="fil0" cx="123.87" cy="157.65" r="2.08"/>
    <circle class="fil0" cx="134.94" cy="157.65" r="2.08"/>
    <circle class="fil0" cx="146.31" cy="135.5" r="2.08"/>
    <circle class="fil0" cx="157.38" cy="135.5" r="2.08"/>
    <circle class="fil0" cx="168.45" cy="135.5" r="2.08"/>
    <circle class="fil0" cx="179.52" cy="135.5" r="2.08"/>
    <circle class="fil0" cx="190.6" cy="135.5" r="2.08"/>
    <circle class="fil0" cx="201.67" cy="135.5" r="2.08"/>
    <circle class="fil0" cx="212.74" cy="135.5" r="2.08"/>
    <circle class="fil0" cx="223.81" cy="135.5" r="2.08"/>
    <circle class="fil0" cx="234.89" cy="135.5" r="2.08"/>
    <circle class="fil0" cx="245.96" cy="135.5" r="2.08"/>
    <circle class="fil0" cx="257.03" cy="135.5" r="2.08"/>
    <circle class="fil0" cx="268.1" cy="135.5" r="2.08"/>
    <circle class="fil0" cx="279.17" cy="135.5" r="2.08"/>
    <circle class="fil0" cx="290.25" cy="135.5" r="2.08"/>
    <circle class="fil0" cx="301.32" cy="135.5" r="2.08"/>
    <circle class="fil0" cx="312.39" cy="135.5" r="2.08"/>
    <circle class="fil0" cx="146.31" cy="146.58" r="2.08"/>
    <circle class="fil0" cx="157.38" cy="146.58" r="2.08"/>
    <circle class="fil0" cx="168.45" cy="146.58" r="2.08"/>
    <circle class="fil0" cx="179.52" cy="146.58" r="2.08"/>
    <circle class="fil0" cx="190.6" cy="146.58" r="2.08"/>
    <circle class="fil0" cx="201.67" cy="146.58" r="2.08"/>
    <circle class="fil0" cx="212.74" cy="146.58" r="2.08"/>
    <circle class="fil0" cx="223.81" cy="146.58" r="2.08"/>
    <circle class="fil0" cx="234.89" cy="146.58" r="2.08"/>
    <circle class="fil0" cx="245.96" cy="146.58" r="2.08"/>
    <circle class="fil0" cx="257.03" cy="146.58" r="2.08"/>
    <circle class="fil0" cx="268.1" cy="146.58" r="2.08"/>
    <circle class="fil0" cx="279.17" cy="146.58" r="2.08"/>
    <circle class="fil0" cx="290.25" cy="146.58" r="2.08"/>
    <circle class="fil0" cx="301.32" cy="146.58" r="2.08"/>
    <circle class="fil0" cx="312.39" cy="146.58" r="2.08"/>
    <circle class="fil0" cx="146.31" cy="157.65" r="2.08"/>
    <circle class="fil0" cx="157.38" cy="157.65" r="2.08"/>
    <circle class="fil0" cx="168.45" cy="157.65" r="2.08"/>
    <circle class="fil0" cx="179.52" cy="157.65" r="2.08"/>
    <circle class="fil0" cx="190.6" cy="157.65" r="2.08"/>
    <circle class="fil0" cx="201.67" cy="157.65" r="2.08"/>
    <circle class="fil0" cx="212.74" cy="157.65" r="2.08"/>
    <circle class="fil0" cx="223.81" cy="157.65" r="2.08"/>
    <circle class="fil0" cx="234.89" cy="157.65" r="2.08"/>
    <circle class="fil0" cx="245.96" cy="157.65" r="2.08"/>
    <circle class="fil0" cx="257.03" cy="157.65" r="2.08"/>
    <circle class="fil0" cx="268.1" cy="157.65" r="2.08"/>
    <circle class="fil0" cx="279.17" cy="157.65" r="2.08"/>
    <circle class="fil0" cx="290.25" cy="157.65" r="2.08"/>
    <circle class="fil0" cx="301.32" cy="157.65" r="2.08"/>
    <circle class="fil0" cx="312.39" cy="157.65" r="2.08"/>
    <circle class="fil0" cx="323.9" cy="2.08" r="2.08"/>
    <circle class="fil0" cx="334.97" cy="2.08" r="2.08"/>
    <circle class="fil0" cx="323.9" cy="13.15" r="2.08"/>
    <circle class="fil0" cx="334.97" cy="13.15" r="2.08"/>
    <circle class="fil0" cx="323.9" cy="24.22" r="2.08"/>
    <circle class="fil0" cx="334.97" cy="24.22" r="2.08"/>
    <circle class="fil0" cx="323.9" cy="35.03" r="2.08"/>
    <circle class="fil0" cx="334.97" cy="35.03" r="2.08"/>
    <circle class="fil0" cx="323.9" cy="46.11" r="2.08"/>
    <circle class="fil0" cx="334.97" cy="46.11" r="2.08"/>
    <circle class="fil0" cx="323.9" cy="57.18" r="2.08"/>
    <circle class="fil0" cx="334.97" cy="57.18" r="2.08"/>
    <circle class="fil0" cx="323.9" cy="68.25" r="2.08"/>
    <circle class="fil0" cx="334.97" cy="68.25" r="2.08"/>
    <circle class="fil0" cx="323.9" cy="79.32" r="2.08"/>
    <circle class="fil0" cx="334.97" cy="79.32" r="2.08"/>
    <circle class="fil0" cx="323.9" cy="90.4" r="2.08"/>
    <circle class="fil0" cx="334.97" cy="90.4" r="2.08"/>
    <circle class="fil0" cx="323.9" cy="101.47" r="2.08"/>
    <circle class="fil0" cx="334.97" cy="101.47" r="2.08"/>
    <circle class="fil0" cx="323.9" cy="112.54" r="2.08"/>
    <circle class="fil0" cx="334.97" cy="112.54" r="2.08"/>
    <circle class="fil0" cx="323.9" cy="123.61" r="2.08"/>
    <circle class="fil0" cx="334.97" cy="123.61" r="2.08"/>
    <circle class="fil0" cx="323.9" cy="135.5" r="2.08"/>
    <circle class="fil0" cx="334.97" cy="135.5" r="2.08"/>
    <circle class="fil0" cx="323.9" cy="146.58" r="2.08"/>
    <circle class="fil0" cx="334.97" cy="146.58" r="2.08"/>
    <circle class="fil0" cx="323.9" cy="157.65" r="2.08"/>
    <circle class="fil0" cx="334.97" cy="157.65" r="2.08"/>
   </g>
   <path class="fil1" d="M193.81 126.66c-0.71,2.4 -4.4,1.48 -3.68,-1.05 0.7,-2.48 4.37,-1.27 3.68,1.05zm-12.2 -1.86c-0.7,-2.18 2.58,-2.84 3.05,-0.95 0.53,2.11 -2.47,2.78 -3.05,0.95zm8.83 -22.81c2.53,-1.01 3.62,2.66 1.48,3.52 -2.44,0.97 -3.82,-2.58 -1.48,-3.52zm-16.59 -1.58c2.4,-0.92 3.62,2.75 1.36,3.56 -2.53,0.91 -3.67,-2.68 -1.36,-3.56zm-14.61 -8.17c2.97,-1.02 4.04,3.39 1.5,4.28 -2.87,1.01 -4.4,-3.29 -1.5,-4.28zm56.5 -0.51c2.22,-1.04 3.63,2.4 1.53,3.47 -1.07,0.55 -2.29,-0.05 -2.66,-1 -0.54,-1.39 0.32,-2.09 1.13,-2.47zm-20.74 8.9c0.2,-0.47 0.93,-1.37 1.31,-1.78l8.23 -10.81c0.17,-0.22 0.1,-0.16 0.31,-0.4 0.25,-0.27 0.07,-0.13 0.36,-0.33 1.22,0.79 2.3,1.56 3.59,2.4 1,0.65 2.69,1.64 3.58,2.44l-0.11 2.05 -17.26 6.44zm-30.72 -4.62c0.04,-0.66 0.25,-1.1 0.19,-1.86 -0.07,-0.96 -0.3,-0.89 0.24,-1.53l11.69 -12.65c0.48,-0.44 0.59,-0.52 0.9,-0.92l1.72 0.2c0.35,1.47 4.41,9.35 4.28,9.9l-5.42 6.92c-0.59,0.74 -1.24,1.54 -1.7,2.28 -1.9,-0.38 -3.56,-0.37 -4.59,0.99 -0.94,-0.16 -6.05,-2.68 -7.31,-3.31zm-29.67 -10.22c2.54,-0.57 3.03,3.26 0.81,3.74 -2.52,0.54 -3.35,-3.17 -0.81,-3.74zm56.53 -3.1c3.68,0.9 3.5,0.39 5.9,-0.87l6.16 4.16c-0.22,0.58 -8.16,10.81 -9.19,12.16 -0.38,0.49 -0.96,1.22 -1.28,1.72 -0.94,-0.19 -1.08,-0.24 -2.19,-0.24l-4.55 -10.2 5.14 -6.73zm1.35 -8.05c1.94,-0.61 3.62,0.63 4.05,2.1 0.58,1.99 -0.74,3.62 -2.13,4.02 -4.1,1.2 -5.97,-4.84 -1.92,-6.13zm-14.1 -0.48c2.05,-0.47 2.69,2.73 0.69,3.16 -2.11,0.45 -2.83,-2.67 -0.69,-3.16zm35.06 2.17c0.51,-0.67 1.81,-2.72 2.52,-2.84l-0.54 15.87c-0.34,0.2 -1.54,0.8 -1.77,0.9l-7.11 -4.75 6.9 -9.19zm-95.28 -3.35c1.55,-0.47 11.74,-4.22 12.28,-4.19 0.59,0.03 1.41,1.19 2.25,1.92l12.73 12.04c1.31,1.49 3.86,3.53 5.31,5 0.39,0.39 0.57,0.66 0.98,1.02 0.62,0.55 3.99,3.64 4,3.96 -0.1,0.04 -0.1,0.05 -0.33,0.06 -0.26,0 -0.07,0.01 -0.23,-0.02 -0.09,-0.01 -0.44,-0.12 -0.56,-0.16 -0.34,-0.1 -0.65,-0.17 -1.02,-0.27 -4.32,-1.18 -10.7,-2.73 -14.49,-3.95 0.44,-5.58 -5.86,-5.88 -7.33,-3.28l-12.29 -8.78c-0.52,-0.39 -1.26,-0.96 -1.74,-1.22 0.23,-0.85 0.29,-1.17 0.43,-2.14zm-4.78 -1.53c2.56,-0.83 3.35,2.98 1.18,3.64 -2.42,0.75 -3.59,-2.86 -1.18,-3.64zm100.39 0.7l-9.14 12c-0.99,-0.5 -2.19,-1.43 -3.13,-2.06 -0.76,-0.51 -2.29,-1.64 -3.06,-1.97 0.15,-1.05 0.37,-1.55 0.49,-2.83l14.84 -5.15zm2.84 -4.35c2.3,-1 3.63,2.8 1.22,3.58 -1.16,0.38 -2.13,-0.36 -2.42,-1.19 -0.46,-1.31 0.37,-2.03 1.2,-2.39zm-83.57 0.13c0.16,-0.14 -0.15,0.05 0.25,-0.17l1.47 -0.53c3.1,-1.1 9.93,-3.6 12.31,-4.25 1.22,1.1 0.67,2.13 4.84,2.86 0.33,2.03 3.68,15.67 4.41,18.62 0.32,1.31 2.55,7.97 0.22,5.8l-2.27 -2.17c-1.03,-0.91 -1.96,-1.93 -3,-2.87 -2.29,-2.06 -5.37,-5.27 -7.63,-7.26l-7.57 -7.18c-1.12,-1.14 -1.81,-1.55 -3.01,-2.85zm-17.6 -13.55c1.24,1 2,1.91 3.28,3.08 0.6,0.55 1.16,1 1.73,1.57l3.25 3.19c0.56,0.53 4.74,4.25 4.97,4.76l-11.25 3.86c-0.49,-0.36 -0.7,-0.78 -1.34,-1.14 -0.6,-0.34 -1.12,-0.39 -1.69,-0.63l0.01 -14.31 1.03 -0.39zm65.66 24.01c2.65,-3.71 -0.24,-3.07 1.4,-4.95l9.66 -10.54c0.59,0.28 0.96,0.79 1.77,0.99l-0.93 8.34c-2.33,0.38 -3.72,1.45 -4.51,3.19 -1.23,2.74 -0.01,4.39 0.87,5.98 -0.81,1.32 -3.73,4.5 -4.29,5.64 -0.64,-0.55 -3.88,-8.32 -3.98,-8.65zm-6.58 -17.35l16.53 -0.3c-0.4,0.8 -3.32,3.63 -4.08,4.55l-2.66 2.93c-0.63,0.64 -3.72,3.83 -3.95,4.34 -1.89,-0.5 -3.06,-0.49 -4.21,0.81 -1.69,1.91 -0.66,3.21 -0.55,4.34 -0.68,0.45 -1.63,1.65 -2.49,2.51l-3.85 4.17c-0.9,1 -5.5,6.35 -6.36,6.66 -0.07,-0.69 1.85,-5.14 2.27,-6.18 2.99,-7.99 6.22,-15.9 9.35,-23.83zm-13.69 28.86l-0.87 -0.07c-0.32,-0.5 -3.8,-15.58 -4.44,-18.32 -0.46,-1.97 -1.06,-4.13 -1.45,-6.18 1.56,-0.52 2.78,-2.06 3.19,-3.97l14.84 -0.27 -3.15 8.12 -8.13 20.69zm-9.85 -32.58c1.94,-0.67 3.61,0.66 4.03,2.1 0.58,1.98 -0.72,3.62 -2.13,4.02 -4.05,1.17 -6.02,-4.71 -1.91,-6.12zm44 -0.13c1.4,-0.39 2.65,0.61 2.94,1.73 0.36,1.4 -0.56,2.64 -1.63,2.96 -3.06,0.94 -4.7,-3.74 -1.32,-4.7zm10.38 -2.04l0.8 0.83c1.21,1.11 1.8,1.11 3.5,1.16l4.71 9.37c-0.84,1.1 -1.24,1.48 -1.3,3.44 -0.83,0.53 -14.03,5.01 -14.72,5.18 -0.96,-1.1 -1.37,-2.05 -3.15,-2.59l0.94 -8.25c0.87,-0.46 2.55,-0.5 3.61,-2.67 1,-2.06 0.32,-3.1 -0.37,-4.83l5.98 -1.63zm-29.87 3.6c0.52,-1.6 1.34,-3.47 1.99,-5.08 0.69,-1.7 1.32,-3.32 1.99,-5.04 1.32,-3.38 2.63,-6.88 4.03,-10.12l1.06 -0.03c0.67,1.2 1.45,3.06 2.05,4.38 0.82,1.81 5.75,12.21 5.95,13.05 -1.79,1.9 -0.86,1.31 -1.66,2.61l-15.4 0.23zm33.14 -7.64c2.44,-0.52 3.21,3.21 0.83,3.73 -2.52,0.56 -3.41,-3.18 -0.83,-3.73zm-89.7 3.43c-0.47,-0.42 -1.37,-1.13 -1.66,-1.59 1.69,0.27 18.85,4.73 22.05,5.54 1.21,0.31 2.44,0.61 3.67,0.92 1.11,0.28 5.27,0.88 2.69,1.68l-2.88 0.99c-2.27,0.76 -10.67,3.9 -11.82,3.99l-12.05 -11.54zm-6.33 -5.51c2.43,-1.01 3.62,2.63 1.45,3.51 -1.76,0.72 -3.22,-1.11 -2.49,-2.64 0.28,-0.59 0.51,-0.66 1.03,-0.88zm34.32 9.04c-0.92,-0.08 -21.12,-5.27 -22.7,-5.69l-6.61 -1.69c-0.09,-0.07 -0.5,-0.25 -0,-0.73l25.02 -12.68c1.61,1.43 2.26,0.94 2.7,1.32 0.21,0.29 3.96,15.72 4.04,16.88 -0.52,0.47 -0.9,0.55 -1.44,1.15 -0.43,0.48 -0.59,0.82 -1.01,1.44zm9.88 -0.16c0.42,-0.59 11.66,-9.58 12.19,-10 3.47,-2.78 8.95,-7.49 12.26,-9.89l-8.21 20.83 -15.79 0.27 -0.44 -1.21zm-9.18 -19.91c0.45,-0.41 0.8,-0.61 1.2,-1.1 0.36,-0.44 0.52,-1.07 0.82,-1.41 2.65,-0.15 29.79,-0.12 30.21,0.09 0.29,0.46 0.06,0.58 -0.26,0.87 -0.31,0.28 -0.51,0.37 -0.81,0.62 -5.41,4.55 -11.57,9.4 -17.13,13.95l-6.29 5.06c-1.86,-0.97 -1.34,-0.89 -3.81,-1.22l-3.94 -16.86zm35.73 -5.46c2.33,-0.84 3.53,2.93 1.14,3.65 -2.34,0.7 -3.7,-2.73 -1.14,-3.65zm-38.72 3.55c-0.48,-0.26 -0.9,-0.7 -0.97,-1.29 -0.07,-1.2 0.26,-1.8 1.05,-2.16 0.85,-0.4 1.8,-0.16 2.35,0.5 1.18,1.42 -0.01,3.62 -2.42,2.95zm46.66 2.22c-0.74,-0.54 -2.78,-2.26 -3.45,-2.57 0.27,-1.34 0.31,-2.52 -0.41,-3.59 -1.82,-2.69 -6.06,-2.85 -7.54,1.09l-30.24 -0c-0.31,-0.4 -1.47,-3.79 -5.09,-2.91 -2.22,0.54 -3.26,2.25 -3.06,4.99l-25.07 12.67c-1.94,-2.11 -5.14,-1.69 -6.63,0.57 -1.62,2.46 0.01,5.71 2.39,6.16l-0.01 14.65c-0.31,0.47 -0.87,0.65 -1.26,1.08 -2.06,2.32 -1.03,5.91 1.8,6.76 1.86,0.56 2.21,-0.07 3.56,-0.39l5.58 4c1.84,1.3 3.71,2.61 5.51,3.95 4.23,3.16 3.19,1.77 3.57,3.74 0.32,1.71 1.82,3.12 3.71,3.27 1.81,0.14 2.47,-0.6 3.42,-1.33l17.45 4.7c0.43,2.57 2.93,4.14 5.4,3.65 1.07,-0.21 1.33,-0.64 2.06,-0.93l7.46 3.4c-0.23,3.2 1.38,5.08 4.54,5.07l5.92 15.16c-0.8,1.27 -1.99,2.54 -0.66,4.65 1.99,3.18 7.36,1.22 6.27,-2.81 -0.24,-0.88 -0.76,-1.5 -1.3,-1.86 -0.98,-0.66 -1.3,-0.41 -2.22,-0.77l-5.91 -15.22c1.83,-1.49 2.01,-3.29 0.86,-5.75l4.85 -6.27c0.54,-0.68 1.14,-1.51 1.69,-2.04 1.16,2.98 2.85,5.97 4.01,9.02 -0.73,1.27 -1.82,1.92 -1.35,4.19 0.34,1.65 1.34,2.38 2.62,3.01l1.06 14.43 -0.39 0.22c-0.12,0.06 -0.18,0.08 -0.29,0.14 -1.65,0.87 -2.51,2.45 -2.23,4.36 0.68,4.62 7.63,4.69 8.21,-0.14 0.37,-3.07 -1.85,-3.88 -3.05,-4.59l-1.04 -14.18 0.82 -0.36c0.29,-0.12 0.42,-0.21 0.65,-0.35 1.53,-0.96 1.87,-2.32 1.82,-4.16 0.73,-0.47 17.29,-6.69 18.15,-6.8 0.53,0.94 2.02,1.49 3.51,1.34 2.68,-0.28 4.35,-3.14 3.25,-5.79 -0.69,-1.65 -1.74,-1.75 -2.53,-2.35l0.53 -15.71c0.34,-0.25 0.93,-0.39 1.38,-0.72 2.37,-1.74 2.4,-4.95 0.09,-6.76 -0.95,-0.74 -1.85,-0.85 -3.28,-0.76l-4.66 -9.28c0.33,-0.51 0.53,-0.5 0.9,-1.18 1.45,-2.65 -0.29,-5.92 -3.26,-6.15 -1.65,-0.13 -2.1,0.45 -3.11,0.94l-14.96 -11.49zm13.39 13.11c0.02,0.02 0.06,0.05 0.08,0.07 0.35,0.32 0.24,0.22 0.06,1.45 -1.48,0.54 -3.39,0.94 -4.93,1.37 -4.86,1.35 -1.76,0.4 -5.31,0.61l-4 -8.73c-1.39,-2.84 -2.61,-5.83 -3.95,-8.58l18.04 13.82z"/>
  </g>
 </g>
</svg>
