<?xml version="1.0" encoding="UTF-8"?>
<!DOCTYPE svg PUBLIC "-//W3C//DTD SVG 1.1//EN" "http://www.w3.org/Graphics/SVG/1.1/DTD/svg11.dtd">
<!-- Creator: CorelDRAW 2018 (64-Bit) -->
<svg xmlns="http://www.w3.org/2000/svg" xml:space="preserve" width="55.5434mm" height="17.8666mm" version="1.1" style="shape-rendering:geometricPrecision; text-rendering:geometricPrecision; image-rendering:optimizeQuality; fill-rule:evenodd; clip-rule:evenodd"
viewBox="0 0 53.73 17.28"
 xmlns:xlink="http://www.w3.org/1999/xlink">
 <defs>
  <style type="text/css">
   <![CDATA[
    .fil1 {fill:#55ADAD;fill-rule:nonzero}
    .fil0 {fill:#59656C;fill-rule:nonzero}
   ]]>
  </style>
 </defs>
 <g id="Слой_x0020_1">
  <metadata id="CorelCorpID_0Corel-Layer"/>
  <g id="_2037256352">
   <path class="fil0" d="M45.08 0c2.39,0 4.55,0.97 6.11,2.53 1.56,1.56 2.53,3.72 2.53,6.11 0,2.39 -0.97,4.55 -2.53,6.11 -1.56,1.56 -3.72,2.53 -6.11,2.53 -2.39,0 -4.55,-0.97 -6.11,-2.53 -1.56,-1.56 -2.53,-3.72 -2.53,-6.11 0,-2.39 0.97,-4.55 2.53,-6.11 1.56,-1.56 3.72,-2.53 6.11,-2.53zm5.43 3.21c-1.39,-1.39 -3.31,-2.25 -5.43,-2.25 -2.12,0 -4.04,0.86 -5.43,2.25 -1.39,1.39 -2.25,3.31 -2.25,5.43 0,2.12 0.86,4.04 2.25,5.43 1.39,1.39 3.31,2.25 5.43,2.25 2.12,0 4.04,-0.86 5.43,-2.25 1.39,-1.39 2.25,-3.31 2.25,-5.43 0,-2.12 -0.86,-4.04 -2.25,-5.43z"/>
   <path class="fil0" d="M1.27 0.41l13.92 0c0.35,0 0.67,0.14 0.9,0.37 0.23,0.23 0.37,0.55 0.37,0.9l0 13.92c0,0.35 -0.14,0.67 -0.37,0.9 -0.23,0.23 -0.55,0.37 -0.9,0.37l-13.92 0c-0.35,0 -0.67,-0.14 -0.9,-0.37 -0.23,-0.23 -0.37,-0.55 -0.37,-0.9l0 -13.92c0,-0.35 0.14,-0.67 0.37,-0.9 0.23,-0.23 0.55,-0.37 0.9,-0.37zm13.92 0.97l-13.92 0c-0.08,0 -0.16,0.03 -0.22,0.09 -0.06,0.06 -0.09,0.13 -0.09,0.22l0 13.92c0,0.08 0.03,0.16 0.09,0.22 0.06,0.06 0.13,0.09 0.22,0.09l13.92 0c0.08,0 0.16,-0.03 0.22,-0.09 0.06,-0.06 0.09,-0.13 0.09,-0.22l0 -13.92c0,-0.08 -0.03,-0.16 -0.09,-0.22 -0.06,-0.06 -0.13,-0.09 -0.22,-0.09z"/>
   <path class="fil1" d="M19.51 16.79c-0.19,0 -0.39,-0.05 -0.55,-0.15 -0.13,-0.08 -0.25,-0.18 -0.34,-0.31 -0.09,-0.14 -0.15,-0.31 -0.15,-0.49 0,-0.16 0.04,-0.34 0.14,-0.51l8.12 -14.26c0.12,-0.2 0.27,-0.35 0.43,-0.45 0.14,-0.08 0.3,-0.12 0.45,-0.12 0.15,0 0.31,0.04 0.45,0.12 0.17,0.09 0.32,0.24 0.43,0.45l8.12 14.26c0.1,0.18 0.14,0.35 0.14,0.51 0,0.18 -0.06,0.35 -0.15,0.49 -0.09,0.13 -0.2,0.23 -0.34,0.31 -0.17,0.09 -0.36,0.15 -0.55,0.15l-16.21 0zm-0.06 -0.98c0.02,0.01 0.04,0.01 0.06,0.01l16.21 0c0.02,0 0.04,-0 0.06,-0.01l-8.13 -14.27c-0.02,-0.03 -0.03,-0.05 -0.04,-0.06 -0.01,0.01 -0.03,0.04 -0.04,0.06l-8.13 14.27z"/>
  </g>
 </g>
</svg>
