<?xml version="1.0" encoding="UTF-8"?>
<!DOCTYPE svg PUBLIC "-//W3C//DTD SVG 1.1//EN" "http://www.w3.org/Graphics/SVG/1.1/DTD/svg11.dtd">
<!-- Creator: CorelDRAW 2018 (64-Bit) -->
<svg xmlns="http://www.w3.org/2000/svg" xml:space="preserve" width="30.0996mm" height="33.286mm" version="1.1" style="shape-rendering:geometricPrecision; text-rendering:geometricPrecision; image-rendering:optimizeQuality; fill-rule:evenodd; clip-rule:evenodd"
viewBox="0 0 15.13 16.73"
 xmlns:xlink="http://www.w3.org/1999/xlink">
 <defs>
  <style type="text/css">
   <![CDATA[
    .fil2 {fill:#55ADAD}
    .fil0 {fill:#59656C}
    .fil1 {fill:white}
    .fil4 {fill:#55ADAD;fill-rule:nonzero}
    .fil3 {fill:white;fill-rule:nonzero}
   ]]>
  </style>
 </defs>
 <g id="Слой_x0020_1">
  <metadata id="CorelCorpID_0Corel-Layer"/>
  <g id="_2023681968">
   <path class="fil0" d="M1.24 11.3c0.32,0.43 0.84,0.16 1.78,-0.16 0.61,-0.21 1.21,-0.46 1.71,-0.77 1.22,-0.76 1.06,1.18 3.76,-0.52 0.27,0.52 0.35,0.66 0.72,1 0.2,0.18 0.87,0.62 1.24,0.53 0.22,-0.05 0.33,-0.32 0.22,-0.54 -0.17,-0.31 -1,-0.2 -1.42,-1.2 -0.4,-0.94 0.53,-1.11 0.55,-2.73 0.01,-1 -0.42,-1.97 -0.93,-2.52 -1.03,-1.13 -2.93,-2.14 -5.11,-1.23 -1.26,0.52 -2.17,1.28 -3.1,2.14 -0.15,0.14 -0.9,0.76 -0.35,1.04 0.4,0.2 1.09,-0.77 1.94,-1.41 0.61,-0.46 1.3,-0.98 2.25,-1.22 2.9,-0.74 5.85,2.09 3.88,5.06 -0.52,0.78 -1.52,1.3 -2.3,0.89 -1.28,-0.67 -1.66,0.3 -3.79,0.93 -0.5,0.15 -1.05,0.14 -1.04,0.72z"/>
   <path class="fil0" d="M4.59 1.52c-1.68,0.27 -4.41,1.85 -4.14,2.55 0.15,0.4 0.57,0.17 0.85,-0.1 2.7,-2.64 7.31,-2.2 8.86,1.01 0.31,0.65 0.43,1.49 0.34,2.29 -0.11,0.93 -0.6,1.85 -0.42,2.1 0.57,0.8 0.98,-1.02 1.05,-1.34 0.98,-4.57 -3.31,-7.03 -6.53,-6.52z"/>
   <path class="fil0" d="M0.36 8.09c0.48,0.21 0.76,-0.18 1.37,-0.75 1.16,-1.1 2.66,-2.68 4.54,-2.07 1.08,0.35 1.93,1.83 0.88,2.84 -0.78,0.76 -1.28,-0.39 -1.7,0.07 -0.48,0.52 0.66,0.95 1.15,0.95 2.3,-0.02 2.59,-4.43 -0.85,-4.73 -1.77,-0.15 -3.03,1.12 -3.92,1.8l-1.2 1.1c-0.27,0.23 -0.45,0.32 -0.27,0.79z"/>
   <path class="fil0" d="M5.13 11.85c1.78,-0.23 3.1,0.29 4.55,0.95 0.39,0.18 0.81,-0.1 0.57,-0.51 -0.14,-0.24 -0.6,-0.38 -0.89,-0.5 -2.31,-0.97 -4.54,-1.02 -6.76,0.03 -0.28,0.13 -0.8,0.32 -0.57,0.74 0.21,0.4 0.71,0 0.94,-0.1 0.65,-0.29 1.33,-0.52 2.15,-0.62z"/>
   <path class="fil0" d="M2.05 1.6c0.93,0.13 2.69,-1.79 6.45,-0.01 0.26,0.12 0.62,0.44 0.85,0.45 0.4,0.02 0.56,-0.45 0.15,-0.74 -2.12,-1.5 -4.83,-1.55 -7.21,-0.49 -0.42,0.19 -0.48,0.37 -0.24,0.78z"/>
   <path class="fil0" d="M6.81 7.69c0.5,-0.77 -0.66,-3.63 -4.02,-0.4l-1.06 1.09c-0.24,0.26 -0.51,0.44 -0.74,0.7 -0.3,0.33 -0.16,0.84 0.27,0.73 0.2,-0.05 0.61,-0.53 0.75,-0.69 0.24,-0.26 0.5,-0.45 0.74,-0.7 0.6,-0.63 1.55,-1.63 2.39,-1.87 0.46,-0.13 0.81,0.06 0.96,0.38 0.22,0.45 0.02,0.84 0.72,0.75z"/>
   <path class="fil0" d="M5.31 13.22c0.65,-0.11 1.38,-0.05 2,0.11 0.29,0.08 0.55,0.16 0.82,0.29 0.17,0.08 0.58,0.32 0.71,0.35 0.32,0.07 1,-0.41 -0.27,-0.99 -1.76,-0.79 -3.56,-0.75 -5.25,0.09 -0.73,0.36 -0.43,1.1 0.36,0.69 0.47,-0.25 1.01,-0.44 1.63,-0.54z"/>
   <path class="fil0" d="M5.32 7.03c-0.18,0.06 -0.1,0.02 -0.25,0.12l-2.11 1.88c-0.42,0.38 -0.22,0.92 0.27,0.75 0.08,-0.03 0.7,-0.58 0.79,-0.68l1.53 -1.35c0.46,-0.36 0.17,-0.85 -0.22,-0.72z"/>
   <circle class="fil1" cx="9" cy="10.62" r="3.98"/>
   <path class="fil2" d="M15.05 16.36l-3.09 -3.09c-0.1,0.1 -0.2,0.2 -0.3,0.29l3.09 3.09c0.05,0.05 0.16,0.02 0.24,-0.06l0 0c0.08,-0.08 0.11,-0.19 0.06,-0.24z"/>
   <g>
    <path class="fil3" d="M1.34 11.26c0.23,0.28 0.64,0.14 1.31,-0.1 0.11,-0.04 0.23,-0.08 0.34,-0.12 0.3,-0.1 0.6,-0.22 0.89,-0.35 0.29,-0.13 0.56,-0.27 0.8,-0.42 0.54,-0.33 0.83,-0.19 1.17,-0.03 0.45,0.22 1.01,0.49 2.58,-0.5l0.09 -0.06c0.01,0.01 0.05,0.09 0.05,0.1 0.27,0.51 0.34,0.64 0.7,0.97 0.11,0.1 0.39,0.3 0.67,0.42 0.18,0.08 0.35,0.12 0.48,0.09 0.02,-0 0.04,-0.01 0.06,-0.02 0.05,-0.03 0.09,-0.07 0.11,-0.12 0.02,-0.05 0.03,-0.12 0.01,-0.17 -0.01,-0.02 -0.01,-0.05 -0.03,-0.07 -0.04,-0.08 -0.17,-0.13 -0.32,-0.19 -0.34,-0.14 -0.81,-0.33 -1.1,-1.02 -0.22,-0.52 -0.07,-0.82 0.13,-1.22 0.18,-0.35 0.4,-0.79 0.41,-1.56 0,-0.46 -0.09,-0.91 -0.24,-1.32 -0.17,-0.46 -0.41,-0.85 -0.67,-1.13 -0.56,-0.62 -1.39,-1.2 -2.38,-1.44 -0.79,-0.19 -1.67,-0.16 -2.62,0.23 -0.62,0.26 -1.16,0.58 -1.66,0.93 -0.5,0.36 -0.95,0.76 -1.41,1.19l-0.04 0.04c-0.11,0.1 -0.33,0.3 -0.43,0.49 -0.07,0.13 -0.07,0.26 0.1,0.35 0.19,0.1 0.55,-0.24 0.99,-0.66 0.26,-0.24 0.54,-0.51 0.84,-0.74l0.03 -0.02c0.61,-0.46 1.3,-0.98 2.25,-1.22 1.13,-0.29 2.27,-0.05 3.13,0.53 0.35,0.23 0.65,0.52 0.9,0.84 0.24,0.33 0.43,0.7 0.53,1.1 0.21,0.83 0.08,1.78 -0.56,2.75 -0.28,0.43 -0.71,0.78 -1.16,0.96 -0.42,0.16 -0.87,0.18 -1.27,-0.03 -0.76,-0.4 -1.19,-0.18 -1.92,0.19 -0.45,0.23 -1,0.51 -1.8,0.75 -0.1,0.03 -0.2,0.05 -0.29,0.07 -0.35,0.08 -0.67,0.16 -0.67,0.51zm1.37 0.09c-0.77,0.28 -1.23,0.44 -1.55,0.01l-0.02 -0.03 -0 -0.03c-0.02,-0.55 0.38,-0.64 0.83,-0.74 0.09,-0.02 0.19,-0.04 0.28,-0.07 0.78,-0.23 1.32,-0.51 1.76,-0.73 0.79,-0.4 1.25,-0.64 2.11,-0.19 0.34,0.18 0.73,0.16 1.1,0.02 0.42,-0.16 0.81,-0.49 1.07,-0.88 0.61,-0.91 0.73,-1.81 0.54,-2.59 -0.09,-0.37 -0.27,-0.72 -0.49,-1.03 -0.23,-0.31 -0.52,-0.58 -0.85,-0.8 -0.82,-0.54 -1.9,-0.77 -2.97,-0.5 -0.91,0.23 -1.58,0.73 -2.18,1.18l-0.03 0.02c-0.29,0.22 -0.57,0.48 -0.83,0.72 -0.5,0.47 -0.9,0.86 -1.22,0.69 -0.3,-0.16 -0.3,-0.39 -0.18,-0.62 0.12,-0.23 0.35,-0.44 0.47,-0.55l0.04 -0.04c0.47,-0.43 0.93,-0.84 1.43,-1.21 0.51,-0.37 1.06,-0.69 1.7,-0.96 0.99,-0.41 1.92,-0.43 2.74,-0.24 1.03,0.25 1.89,0.85 2.48,1.5 0.27,0.3 0.53,0.72 0.71,1.2 0.16,0.43 0.25,0.9 0.25,1.39 -0.01,0.82 -0.24,1.28 -0.43,1.64 -0.18,0.35 -0.31,0.61 -0.13,1.05 0.26,0.61 0.69,0.79 0.99,0.91 0.19,0.08 0.35,0.14 0.43,0.28 0.02,0.04 0.04,0.08 0.05,0.12 0.02,0.1 0.01,0.21 -0.02,0.3 -0.04,0.09 -0.11,0.17 -0.2,0.22 -0.03,0.02 -0.07,0.03 -0.11,0.04 -0.17,0.04 -0.39,-0.01 -0.6,-0.1 -0.3,-0.13 -0.6,-0.34 -0.73,-0.45 -0.36,-0.33 -0.45,-0.48 -0.69,-0.93 -1.59,0.98 -2.2,0.69 -2.69,0.45 -0.29,-0.14 -0.54,-0.26 -0.98,0.02 -0.25,0.16 -0.53,0.3 -0.83,0.43 -0.29,0.13 -0.6,0.25 -0.91,0.35 -0.13,0.04 -0.24,0.08 -0.34,0.12z"/>
    <path class="fil3" d="M4.61 1.62c-0.37,0.06 -0.79,0.18 -1.22,0.35 -0.73,0.28 -1.47,0.67 -2.02,1.06 -0.53,0.37 -0.87,0.74 -0.84,0.97 0,0.01 0.01,0.02 0.01,0.03 0.02,0.04 0.04,0.08 0.06,0.1 0.03,0.03 0.06,0.04 0.1,0.05 0.05,0 0.1,-0.01 0.15,-0.03 0.13,-0.05 0.26,-0.15 0.37,-0.26 0.49,-0.47 1.03,-0.85 1.61,-1.13 1.11,-0.54 2.34,-0.72 3.49,-0.56 1.16,0.16 2.23,0.65 3.04,1.48 0.35,0.36 0.65,0.77 0.88,1.25 0.16,0.33 0.27,0.71 0.33,1.11 0.06,0.4 0.06,0.83 0.02,1.24 -0.05,0.43 -0.18,0.85 -0.28,1.21 -0.12,0.41 -0.22,0.73 -0.15,0.83 0.21,0.29 0.4,0.08 0.54,-0.23 0.18,-0.39 0.29,-0.91 0.33,-1.07 0.16,-0.76 0.18,-1.46 0.08,-2.09 -0.19,-1.16 -0.76,-2.1 -1.55,-2.82 -0.79,-0.72 -1.79,-1.2 -2.81,-1.42 -0.72,-0.15 -1.45,-0.18 -2.13,-0.07zm-1.29 0.16c0.44,-0.17 0.87,-0.29 1.26,-0.36 0.71,-0.11 1.46,-0.09 2.2,0.07 1.06,0.23 2.09,0.72 2.91,1.46 0.82,0.74 1.42,1.73 1.61,2.94 0.11,0.66 0.09,1.38 -0.08,2.16 -0.03,0.16 -0.15,0.71 -0.34,1.11 -0.22,0.48 -0.52,0.78 -0.89,0.27 -0.13,-0.18 -0.02,-0.54 0.12,-1 0.11,-0.35 0.23,-0.76 0.28,-1.17 0.05,-0.4 0.04,-0.8 -0.02,-1.19 -0.06,-0.38 -0.16,-0.74 -0.31,-1.05 -0.22,-0.46 -0.51,-0.86 -0.84,-1.2 -0.77,-0.79 -1.81,-1.27 -2.92,-1.42 -1.11,-0.15 -2.3,0.03 -3.37,0.54 -0.56,0.27 -1.09,0.64 -1.56,1.1 -0.13,0.12 -0.29,0.24 -0.44,0.3 -0.08,0.03 -0.16,0.05 -0.24,0.04 -0.08,-0.01 -0.16,-0.04 -0.23,-0.11 -0.04,-0.04 -0.08,-0.1 -0.1,-0.17 -0.01,-0.02 -0.02,-0.05 -0.02,-0.07 -0.05,-0.32 0.33,-0.75 0.92,-1.17 0.57,-0.4 1.33,-0.8 2.07,-1.08z"/>
    <path class="fil3" d="M0.44 8.02c0.33,0.12 0.57,-0.12 0.97,-0.51 0.08,-0.07 0.16,-0.16 0.25,-0.24l0.21 -0.2c1.15,-1.09 2.6,-2.48 4.42,-1.89 0.31,0.1 0.61,0.29 0.85,0.54 0.23,0.24 0.41,0.52 0.5,0.83 0.1,0.31 0.11,0.64 0,0.96 -0.08,0.24 -0.22,0.47 -0.43,0.68 -0.5,0.48 -0.88,0.28 -1.21,0.11 -0.19,-0.1 -0.36,-0.19 -0.49,-0.04 -0.05,0.05 -0.07,0.1 -0.08,0.14 -0.02,0.07 0.01,0.15 0.07,0.21 0.07,0.08 0.18,0.16 0.3,0.22 0.26,0.13 0.59,0.21 0.79,0.21 0.69,-0.01 1.18,-0.43 1.44,-1.02 0.13,-0.29 0.19,-0.61 0.2,-0.95 0,-0.34 -0.06,-0.68 -0.19,-1.01 -0.32,-0.79 -1.06,-1.45 -2.3,-1.56 -1.49,-0.13 -2.62,0.79 -3.46,1.47 -0.13,0.11 -0.26,0.21 -0.38,0.31 -0.41,0.38 -0.83,0.79 -1.26,1.15 -0.19,0.16 -0.31,0.26 -0.19,0.59zm1.11 -0.36c-0.48,0.47 -0.76,0.74 -1.23,0.53l-0.04 -0.02 -0.01 -0.04c-0.19,-0.5 -0.03,-0.63 0.24,-0.85l0.06 -0.05 1.2 -1.1c0.12,-0.09 0.25,-0.2 0.38,-0.31 0.87,-0.71 2.03,-1.65 3.6,-1.52 1.33,0.12 2.13,0.83 2.47,1.68 0.14,0.35 0.21,0.72 0.2,1.08 -0,0.36 -0.08,0.72 -0.21,1.03 -0.29,0.65 -0.85,1.13 -1.62,1.14 -0.23,0 -0.59,-0.09 -0.88,-0.23 -0.15,-0.07 -0.28,-0.16 -0.36,-0.27 -0.1,-0.12 -0.15,-0.25 -0.11,-0.39 0.02,-0.08 0.06,-0.15 0.13,-0.23 0.23,-0.25 0.46,-0.13 0.73,0 0.27,0.14 0.59,0.31 0.98,-0.07 0.19,-0.19 0.32,-0.39 0.38,-0.59 0.09,-0.28 0.08,-0.57 -0.01,-0.84 -0.09,-0.28 -0.25,-0.54 -0.45,-0.75 -0.22,-0.22 -0.48,-0.4 -0.76,-0.49 -1.71,-0.56 -3.12,0.79 -4.22,1.84l-0.21 0.2c-0.09,0.08 -0.17,0.16 -0.25,0.24z"/>
    <path class="fil3" d="M5.12 11.75c0.91,-0.12 1.69,-0.04 2.44,0.14 0.74,0.19 1.44,0.48 2.17,0.82 0.1,0.05 0.21,0.06 0.3,0.03 0.06,-0.01 0.1,-0.04 0.14,-0.07 0.03,-0.03 0.05,-0.07 0.06,-0.12 0.01,-0.06 -0.01,-0.13 -0.05,-0.21 -0.1,-0.17 -0.4,-0.28 -0.66,-0.38 -0.07,-0.03 -0.13,-0.05 -0.18,-0.07 -1.14,-0.48 -2.27,-0.73 -3.37,-0.74 -1.11,-0 -2.21,0.25 -3.3,0.76l-0.08 0.04c-0.06,0.03 -0.12,0.06 -0.19,0.09 -0.2,0.1 -0.38,0.25 -0.26,0.48 0.12,0.23 0.44,0.06 0.66,-0.06 0.06,-0.03 0.11,-0.06 0.16,-0.08 0.33,-0.14 0.67,-0.28 1.02,-0.38 0.36,-0.11 0.74,-0.19 1.15,-0.25zm2.39 0.34c-0.72,-0.18 -1.49,-0.25 -2.37,-0.14 -0.4,0.05 -0.77,0.13 -1.12,0.24 -0.35,0.11 -0.68,0.23 -1,0.38 -0.04,0.02 -0.09,0.04 -0.14,0.07 -0.29,0.16 -0.71,0.39 -0.93,-0.02 -0.2,-0.38 0.06,-0.6 0.34,-0.75 0.07,-0.03 0.14,-0.07 0.2,-0.1l0.08 -0.04c1.12,-0.53 2.25,-0.78 3.38,-0.78 1.14,0 2.29,0.26 3.45,0.75 0.06,0.02 0.12,0.05 0.18,0.07 0.29,0.11 0.63,0.24 0.76,0.47 0.07,0.12 0.09,0.23 0.08,0.33 -0.01,0.09 -0.05,0.17 -0.12,0.24 -0.06,0.06 -0.14,0.1 -0.23,0.13 -0.13,0.03 -0.28,0.02 -0.43,-0.05 -0.72,-0.33 -1.41,-0.62 -2.13,-0.8z"/>
    <path class="fil3" d="M2.11 1.51c0.23,0.01 0.53,-0.1 0.9,-0.24 1.09,-0.41 2.78,-1.06 5.54,0.24 0.1,0.05 0.21,0.12 0.33,0.2 0.18,0.12 0.37,0.24 0.49,0.25 0.08,0 0.15,-0.02 0.19,-0.05 0.04,-0.03 0.06,-0.07 0.08,-0.11 0.01,-0.04 0.02,-0.1 0,-0.15 -0.02,-0.08 -0.08,-0.17 -0.19,-0.24 -1.02,-0.72 -2.17,-1.1 -3.36,-1.18 -1.25,-0.08 -2.55,0.17 -3.76,0.7 -0.18,0.08 -0.28,0.16 -0.31,0.24 -0.03,0.08 0.01,0.19 0.09,0.35zm0.97 -0.06c-0.43,0.16 -0.76,0.29 -1.05,0.25l-0.05 -0.01 -0.02 -0.04c-0.13,-0.23 -0.18,-0.4 -0.14,-0.55 0.05,-0.15 0.18,-0.26 0.42,-0.37 1.24,-0.55 2.56,-0.81 3.85,-0.72 1.22,0.08 2.41,0.47 3.46,1.21 0.15,0.1 0.23,0.23 0.27,0.36 0.02,0.09 0.02,0.18 -0,0.26 -0.03,0.08 -0.08,0.15 -0.14,0.21 -0.08,0.07 -0.2,0.1 -0.33,0.1 -0.18,-0.01 -0.39,-0.15 -0.59,-0.28 -0.11,-0.07 -0.21,-0.14 -0.3,-0.18 -2.68,-1.26 -4.33,-0.63 -5.38,-0.23z"/>
    <path class="fil3" d="M6.75 7.6c0.11,-0.22 0.1,-0.59 -0.05,-0.93 -0.09,-0.2 -0.22,-0.38 -0.4,-0.52 -0.18,-0.14 -0.41,-0.23 -0.69,-0.25 -0.64,-0.04 -1.55,0.32 -2.75,1.48l-1.06 1.09c-0.12,0.13 -0.25,0.24 -0.37,0.35 -0.13,0.11 -0.26,0.22 -0.37,0.35 -0.08,0.09 -0.13,0.2 -0.13,0.3 -0,0.06 0.01,0.12 0.03,0.16 0.02,0.04 0.05,0.07 0.09,0.09 0.05,0.02 0.11,0.03 0.19,0.01 0.15,-0.04 0.46,-0.39 0.63,-0.58l0.07 -0.08c0.13,-0.14 0.27,-0.26 0.41,-0.38 0.12,-0.1 0.23,-0.2 0.34,-0.32l0.06 -0.06c0.61,-0.64 1.54,-1.6 2.38,-1.84 0.24,-0.07 0.46,-0.05 0.64,0.02 0.2,0.08 0.35,0.23 0.44,0.41 0.07,0.14 0.1,0.27 0.12,0.38 0.05,0.21 0.08,0.35 0.44,0.31zm0.13 -1.02c0.19,0.42 0.19,0.9 0.02,1.16l-0.03 0.04 -0.05 0.01c-0.59,0.08 -0.64,-0.13 -0.71,-0.46 -0.02,-0.1 -0.05,-0.22 -0.11,-0.34 -0.07,-0.14 -0.18,-0.25 -0.33,-0.31 -0.14,-0.06 -0.31,-0.06 -0.51,-0.01 -0.78,0.22 -1.69,1.16 -2.29,1.78l-0.06 0.06c-0.11,0.12 -0.23,0.22 -0.35,0.33 -0.13,0.12 -0.27,0.23 -0.39,0.37l-0.07 0.08c-0.18,0.21 -0.52,0.59 -0.73,0.64 -0.13,0.03 -0.23,0.02 -0.32,-0.02 -0.08,-0.04 -0.15,-0.11 -0.19,-0.19 -0.04,-0.08 -0.05,-0.17 -0.05,-0.26 0.01,-0.14 0.07,-0.3 0.18,-0.42 0.12,-0.14 0.25,-0.25 0.39,-0.37 0.12,-0.11 0.24,-0.21 0.36,-0.33 0.35,-0.37 0.71,-0.74 1.07,-1.1 1.25,-1.2 2.21,-1.58 2.9,-1.53 0.32,0.02 0.59,0.13 0.8,0.29 0.21,0.16 0.36,0.37 0.46,0.6z"/>
    <path class="fil3" d="M5.3 13.12c0.33,-0.05 0.67,-0.07 1.01,-0.05 0.36,0.02 0.71,0.08 1.03,0.16 0.15,0.04 0.29,0.08 0.43,0.13 0.14,0.05 0.27,0.1 0.41,0.17 0.05,0.03 0.13,0.07 0.21,0.11 0.18,0.1 0.4,0.21 0.48,0.23 0.08,0.02 0.19,-0.01 0.27,-0.08 0.03,-0.03 0.06,-0.06 0.07,-0.1 0.01,-0.04 0.01,-0.08 -0.01,-0.12 -0.06,-0.14 -0.25,-0.31 -0.67,-0.5 -0.86,-0.39 -1.74,-0.57 -2.6,-0.56 -0.87,0.01 -1.73,0.23 -2.56,0.65 -0.23,0.12 -0.34,0.27 -0.36,0.39 -0,0.04 0,0.08 0.02,0.11 0.02,0.03 0.04,0.06 0.08,0.08 0.11,0.06 0.29,0.05 0.53,-0.08 0.24,-0.13 0.5,-0.24 0.77,-0.33 0.28,-0.09 0.57,-0.17 0.88,-0.22zm1 0.15c-0.33,-0.02 -0.66,-0 -0.97,0.05 -0.3,0.05 -0.58,0.12 -0.85,0.21 -0.27,0.09 -0.52,0.2 -0.75,0.32 -0.31,0.16 -0.56,0.16 -0.72,0.07 -0.07,-0.04 -0.13,-0.1 -0.16,-0.16 -0.03,-0.07 -0.05,-0.14 -0.04,-0.22 0.02,-0.19 0.17,-0.4 0.47,-0.55 0.86,-0.43 1.75,-0.65 2.65,-0.67 0.89,-0.02 1.79,0.17 2.68,0.58 0.47,0.21 0.7,0.42 0.77,0.6 0.04,0.09 0.04,0.18 0.02,0.26 -0.02,0.08 -0.07,0.14 -0.13,0.19 -0.12,0.1 -0.31,0.15 -0.44,0.12 -0.1,-0.02 -0.34,-0.15 -0.53,-0.25 -0.08,-0.04 -0.16,-0.08 -0.21,-0.11 -0.13,-0.06 -0.26,-0.12 -0.39,-0.16 -0.13,-0.05 -0.27,-0.09 -0.41,-0.12 -0.31,-0.08 -0.65,-0.14 -0.99,-0.15z"/>
    <path class="fil3" d="M5.36 7.13l-0.07 0.02c-0.03,0.01 -0.05,0.01 -0.05,0.02 -0,0 -0.01,0.01 -0.03,0.02l-0.06 0.04 -2.11 1.88c-0.13,0.12 -0.19,0.25 -0.19,0.36 -0,0.05 0.01,0.1 0.03,0.14 0.02,0.04 0.05,0.07 0.08,0.08 0.06,0.03 0.15,0.03 0.25,-0 0.02,-0.01 0.12,-0.09 0.25,-0.2 0.2,-0.17 0.45,-0.4 0.5,-0.45 0.49,-0.45 1.03,-0.94 1.54,-1.36 0.13,-0.1 0.19,-0.21 0.2,-0.31 0,-0.05 -0.01,-0.09 -0.02,-0.13 -0.02,-0.04 -0.05,-0.07 -0.08,-0.09 -0.06,-0.04 -0.13,-0.05 -0.22,-0.02zm-0.13 -0.17l0.07 -0.02c0.15,-0.05 0.28,-0.03 0.39,0.04 0.07,0.04 0.12,0.1 0.15,0.17 0.03,0.07 0.05,0.15 0.05,0.23 -0.01,0.15 -0.09,0.31 -0.27,0.46l-1.52 1.35c-0.06,0.06 -0.31,0.29 -0.51,0.46 -0.14,0.12 -0.27,0.22 -0.32,0.24 -0.16,0.05 -0.3,0.04 -0.41,-0.01 -0.08,-0.04 -0.14,-0.1 -0.17,-0.17 -0.04,-0.07 -0.05,-0.16 -0.05,-0.24 0.01,-0.16 0.09,-0.34 0.26,-0.49 0.58,-0.55 1.56,-1.5 2.19,-1.94 0.03,-0.02 0.04,-0.03 0.06,-0.04 0.02,-0.01 0.04,-0.02 0.08,-0.03z"/>
    <path class="fil4" d="M9 6.39c1.17,0 2.23,0.47 2.99,1.24 0.77,0.77 1.24,1.83 1.24,2.99 0,1.17 -0.47,2.23 -1.24,2.99 -0.77,0.77 -1.83,1.24 -2.99,1.24 -1.17,0 -2.23,-0.47 -2.99,-1.24 -0.77,-0.77 -1.24,-1.83 -1.24,-2.99 0,-1.17 0.47,-2.23 1.24,-2.99 0.77,-0.77 1.83,-1.24 2.99,-1.24zm2.64 1.6c-0.68,-0.68 -1.61,-1.09 -2.64,-1.09 -1.03,0 -1.96,0.42 -2.64,1.09 -0.68,0.68 -1.09,1.61 -1.09,2.64 0,1.03 0.42,1.96 1.09,2.64 0.68,0.68 1.61,1.09 2.64,1.09 1.03,0 1.96,-0.42 2.64,-1.09 0.68,-0.68 1.09,-1.61 1.09,-2.64 0,-1.03 -0.42,-1.96 -1.09,-2.64z"/>
    <path class="fil4" d="M15.02 16.39l-3.05 -3.05 -0.11 0.11 -0.11 0.11 3.05 3.05c0.01,0.01 0.03,0.01 0.06,0.01 0.03,-0.01 0.07,-0.03 0.11,-0.06 0.03,-0.03 0.06,-0.07 0.06,-0.11 0.01,-0.03 0,-0.05 -0.01,-0.06zm-3.02 -3.16l3.09 3.09c0.04,0.04 0.05,0.09 0.03,0.15 -0.01,0.05 -0.04,0.11 -0.09,0.15 -0.05,0.05 -0.1,0.08 -0.15,0.09 -0.06,0.01 -0.12,0 -0.15,-0.03l-3.12 -3.12 0.04 -0.04c0.05,-0.05 0.1,-0.1 0.15,-0.15 0.05,-0.05 0.1,-0.1 0.14,-0.15l0.04 -0.04 0.04 0.04z"/>
   </g>
  </g>
 </g>
</svg>
