<?xml version="1.0" encoding="UTF-8"?>
<!DOCTYPE svg PUBLIC "-//W3C//DTD SVG 1.1//EN" "http://www.w3.org/Graphics/SVG/1.1/DTD/svg11.dtd">
<!-- Creator: CorelDRAW 2018 (64-Bit) -->
<svg xmlns="http://www.w3.org/2000/svg" xml:space="preserve" width="40.6895mm" height="34.6611mm" version="1.1" style="shape-rendering:geometricPrecision; text-rendering:geometricPrecision; image-rendering:optimizeQuality; fill-rule:evenodd; clip-rule:evenodd"
viewBox="0 0 28.9 24.62"
 xmlns:xlink="http://www.w3.org/1999/xlink">
 <defs>
  <style type="text/css">
   <![CDATA[
    .fil0 {fill:#55ADAD}
    .fil1 {fill:#59656C}
   ]]>
  </style>
 </defs>
 <g id="Слой_x0020_1">
  <metadata id="CorelCorpID_0Corel-Layer"/>
  <g id="_2023644240">
   <path class="fil0" d="M25.9 15.31l2.5 0 0 -2.5c0,-0.14 0.11,-0.25 0.25,-0.25l0 0c0.14,0 0.25,0.11 0.25,0.25l0 2.75 0 0 -0 0.01 -0 0.01 -0 0.01 -0 0.01 -0 0.01 -0 0.01 -0 0.01 -0 0.01 -0 0.01c-0,0 -0,0.01 -0,0.01l-0 0.01c-0,0.01 -0,0.01 -0.01,0.02l-0 0.01c-0,0 -0,0.01 -0.01,0.01 -0,0.01 -0.01,0.01 -0.01,0.02 -0.04,0.06 -0.11,0.11 -0.18,0.12l-0.01 0c-0,0 -0.01,0 -0.01,0l-0.01 0 -0.01 0 -2.75 0c-0.14,0 -0.25,-0.11 -0.25,-0.25l0 0c0,-0.14 0.11,-0.25 0.25,-0.25z"/>
   <path class="fil0" d="M25.9 0.5l2.5 0 0 2.5c0,0.14 0.11,0.25 0.25,0.25l0 0c0.14,0 0.25,-0.11 0.25,-0.25l0 -2.75 0 0 -0 -0.01 -0 -0.01 -0 -0.01 -0 -0.01 -0 -0.01 -0 -0.01 -0 -0.01 -0 -0.01 -0 -0.01c-0,-0 -0,-0.01 -0,-0.01l-0 -0.01c-0,-0.01 -0,-0.01 -0.01,-0.02l-0 -0.01c-0,-0 -0,-0.01 -0.01,-0.01 -0,-0.01 -0.01,-0.01 -0.01,-0.02 -0.04,-0.06 -0.11,-0.11 -0.18,-0.12l-0.01 -0c-0,-0 -0.01,-0 -0.01,-0l-0.01 -0 -0.01 -0 -2.75 0c-0.14,0 -0.25,0.11 -0.25,0.25l0 0c0,0.14 0.11,0.25 0.25,0.25z"/>
   <path class="fil0" d="M3 15.31l-2.5 0 0 -2.5c0,-0.14 -0.11,-0.25 -0.25,-0.25l0 0c-0.14,0 -0.25,0.11 -0.25,0.25l0 2.75 0 0 0 0.01 0 0.01 0 0.01 0 0.01 0 0.01 0 0.01 0 0.01 0 0.01 0 0.01c0,0 0,0.01 0,0.01l0 0.01c0,0.01 0,0.01 0.01,0.02l0 0.01c0,0 0,0.01 0.01,0.01 0,0.01 0.01,0.01 0.01,0.02 0.04,0.06 0.11,0.11 0.18,0.12l0.01 0c0,0 0.01,0 0.01,0l0.01 0 0.01 0 2.75 0c0.14,0 0.25,-0.11 0.25,-0.25l0 0c0,-0.14 -0.11,-0.25 -0.25,-0.25z"/>
   <path class="fil0" d="M3 0.5l-2.5 0 0 2.5c0,0.14 -0.11,0.25 -0.25,0.25l0 0c-0.14,0 -0.25,-0.11 -0.25,-0.25l0 -2.75 0 0 0 -0.01 0 -0.01 0 -0.01 0 -0.01 0 -0.01 0 -0.01 0 -0.01 0 -0.01 0 -0.01c0,-0 0,-0.01 0,-0.01l0 -0.01c0,-0.01 0,-0.01 0.01,-0.02l0 -0.01c0,-0 0,-0.01 0.01,-0.01 0,-0.01 0.01,-0.01 0.01,-0.02 0.04,-0.06 0.11,-0.11 0.18,-0.12l0.01 -0c0,-0 0.01,-0 0.01,-0l0.01 -0 0.01 -0 2.75 0c0.14,0 0.25,0.11 0.25,0.25l0 0c0,0.14 -0.11,0.25 -0.25,0.25z"/>
   <path class="fil1" d="M3.78 10c0.27,0 0.84,0.05 0.99,-0.1 0.12,-0.12 0.2,-0.85 0.25,-1.1 0.14,-0.69 0.38,-1.44 0.64,-2.07 0.15,-0.36 0.42,-0.86 0.63,-1.19 0.24,-0.39 0.83,-1.18 1.18,-1.53l0.68 -0.66c0.35,-0.31 0.95,-0.74 1.33,-0.96 0.39,-0.23 0.79,-0.41 1.19,-0.62 0,0.4 0,0.8 0,1.19 0,0.42 0.02,0.78 0.02,1.17 -0,0.36 -0.03,0.84 0,1.19l0.03 0.56c0.02,0.1 0.02,0.16 0.09,0.21 0.2,0.14 0.55,0.08 0.61,-0.16 0.02,-0.1 0.04,-0.49 0.04,-0.61 -0,-0.43 0,-0.86 -0,-1.29 -0,-0.23 0.03,-0.38 0.03,-0.62l0 -1.94c0.14,-0.01 0.39,-0.11 0.53,-0.14 0.18,-0.05 0.38,-0.09 0.55,-0.12 0.62,-0.12 0.86,-0.16 1.49,-0.16l0 6.79c0,0.17 0.49,0.42 0.72,0.09 0.07,-0.1 0.06,-0.26 0.06,-0.42 -0,-0.19 0.02,-0.29 0.03,-0.45 0.02,-1.95 -0,-4.05 -0,-6.02 1.32,0 2.29,0.4 2.56,0.42 0,0.2 -0.02,4.35 0.01,4.44 0.04,0.09 0.19,0.26 0.39,0.26 0.19,0 0.32,-0.09 0.36,-0.29 0.07,-0.34 0.04,-1.38 0.04,-1.75 0,-0.4 0.02,-0.75 0.02,-1.17 0,-0.4 0,-0.8 0,-1.19 0.68,0.36 1.07,0.51 1.73,0.98 0.1,0.07 0.17,0.12 0.26,0.19 0.39,0.29 0.4,0.33 0.74,0.62l0.24 0.21c0.82,0.82 1.57,1.91 2.03,2.97 0.2,0.48 0.33,0.82 0.48,1.34 0.07,0.25 0.13,0.47 0.18,0.74 0.05,0.23 0.07,0.52 0.13,0.77 0.05,0.25 0.1,0.36 0.28,0.39 0.18,0.03 0.62,0.02 0.83,0.02l0 0.87 -21.34 0 0 -0.87zm10.06 -9.75l1.29 0c0.31,0.01 0.62,0.04 1.06,0.11 0.34,0.06 0.64,0.13 0.95,0.21 0.29,0.08 0.6,0.19 0.88,0.29 0.15,0.05 0.27,0.1 0.41,0.16 0.79,0.35 1.14,0.54 1.88,1.03 0.32,0.22 1,0.75 1.28,1.03 0.26,0.26 0.62,0.63 0.85,0.91 0.79,0.98 1.03,1.41 1.56,2.5 0.34,0.71 0.6,1.68 0.74,2.47 0.01,0.06 0.04,0.16 0.04,0.23 0.31,0 0.65,-0.02 0.89,0.06 0.14,0.05 0.2,0.1 0.23,0.25 0.02,0.11 0.03,0.28 0.03,0.48l0 1.19c0,0.28 -0.16,0.5 -0.27,0.5l-22.39 0c-0.07,0 -0.18,-0.13 -0.21,-0.19 -0.05,-0.09 -0.06,-0.19 -0.06,-0.31l0 -1.35c0.01,-0.22 0.02,-0.39 0.05,-0.44 0.13,-0.2 0.86,-0.2 1.09,-0.2 0,-0.15 0.06,-0.36 0.09,-0.51 0.03,-0.17 0.07,-0.32 0.1,-0.47 0.08,-0.33 0.17,-0.59 0.27,-0.9 0.22,-0.67 0.42,-1.01 0.71,-1.6 0.25,-0.51 0.59,-0.99 0.92,-1.42 0.47,-0.62 0.93,-1 1.42,-1.49 0.06,-0.06 0.1,-0.08 0.16,-0.14 0.77,-0.72 2.13,-1.46 3.11,-1.81 0.84,-0.3 1.93,-0.59 2.89,-0.59 0.01,0 0.02,-0 0.03,-0z"/>
   <path class="fil1" d="M5.15 12.78c0,2.69 0.51,4.24 1.66,6.3 0.04,0.07 0.08,0.13 0.12,0.2 0.05,0.08 0.08,0.12 0.12,0.2 0.31,0.48 0.45,0.68 0.81,1.13 0.38,0.49 0.78,0.91 1.21,1.35l0.51 0.46c0.28,0.28 0.93,0.74 1.29,0.98 0.63,0.42 1.46,0.82 2.2,1.03 0.38,0.11 0.74,0.17 1.1,0.19l0.53 0c0.68,-0.04 1.35,-0.22 2.04,-0.52l0.86 -0.43c0.15,-0.09 0.26,-0.16 0.4,-0.25l0.4 -0.27c0.07,-0.05 0.12,-0.09 0.19,-0.14 0.07,-0.05 0.12,-0.08 0.19,-0.14l1.37 -1.22 0.92 -1.05c0.91,-1.23 1.43,-2.09 1.99,-3.54l0.24 -0.73c0.11,-0.33 0.19,-0.69 0.26,-1.03 0.17,-0.86 0.2,-1.68 0.2,-2.66 0,-0.39 0,-0.7 -0.42,-0.7 -0.51,0 -0.31,0.53 -0.35,0.94 -0.02,0.2 -0.02,0.4 -0.02,0.63 -0,0.18 -0.04,0.42 -0.05,0.6 -0.1,1.45 -0.74,3.35 -1.51,4.63l-0.65 1c-0.17,0.25 -0.82,1.05 -1.02,1.25 -0.06,0.06 -0.1,0.1 -0.16,0.16 -0.22,0.22 -0.42,0.43 -0.66,0.63l-0.72 0.58c-0.27,0.18 -0.5,0.35 -0.78,0.51 -1.42,0.85 -2.95,1.26 -4.6,0.64 -0.14,-0.05 -0.32,-0.12 -0.46,-0.19 -0.15,-0.07 -0.3,-0.13 -0.43,-0.21 -0.46,-0.28 -0.62,-0.32 -1.19,-0.75l-0.55 -0.42c-0.71,-0.6 -1.17,-1.11 -1.74,-1.82 -0.1,-0.12 -0.19,-0.25 -0.28,-0.37 -0.35,-0.51 -0.7,-1.04 -0.98,-1.6 -0.21,-0.41 -0.43,-0.91 -0.59,-1.35 -0.48,-1.32 -0.65,-2.45 -0.65,-3.88 0,-0.19 0.01,-0.73 -0.1,-0.87 -0.13,-0.15 -0.6,-0.2 -0.66,0.17 -0.02,0.16 -0.03,0.37 -0.03,0.54z"/>
  </g>
 </g>
</svg>
