<?xml version="1.0" encoding="UTF-8"?>
<!DOCTYPE svg PUBLIC "-//W3C//DTD SVG 1.1//EN" "http://www.w3.org/Graphics/SVG/1.1/DTD/svg11.dtd">
<!-- Creator: CorelDRAW 2018 (64-Bit) -->
<svg xmlns="http://www.w3.org/2000/svg" xml:space="preserve" width="40.7601mm" height="38.0479mm" version="1.1" style="shape-rendering:geometricPrecision; text-rendering:geometricPrecision; image-rendering:optimizeQuality; fill-rule:evenodd; clip-rule:evenodd"
viewBox="0 0 26.44 24.68"
 xmlns:xlink="http://www.w3.org/1999/xlink">
 <defs>
  <style type="text/css">
   <![CDATA[
    .fil2 {fill:#55ADAD}
    .fil0 {fill:white}
    .fil1 {fill:#59656C;fill-rule:nonzero}
   ]]>
  </style>
 </defs>
 <g id="Слой_x0020_1">
  <metadata id="CorelCorpID_0Corel-Layer"/>
  <g id="_1123017264">
   <rect class="fil0" x="0.32" y="0.32" width="25.79" height="24.03" rx="2.58" ry="2.41"/>
   <path class="fil1" d="M2.73 0l20.98 0c0.75,0 1.43,0.31 1.93,0.8 0.5,0.5 0.8,1.18 0.8,1.93l0 19.22c0,0.75 -0.31,1.43 -0.8,1.93 -0.5,0.5 -1.18,0.8 -1.93,0.8l-20.98 0c-0.75,0 -1.43,-0.31 -1.93,-0.8 -0.49,-0.49 -0.8,-1.18 -0.8,-1.93l0 -19.22c0,-0.75 0.31,-1.43 0.8,-1.93 0.5,-0.49 1.18,-0.8 1.93,-0.8zm20.98 0.65l-20.98 0c-0.57,0 -1.09,0.23 -1.47,0.61 -0.38,0.38 -0.61,0.9 -0.61,1.47l0 19.22c0,0.57 0.23,1.09 0.61,1.47 0.38,0.38 0.9,0.61 1.47,0.61l20.98 0c0.57,0 1.09,-0.23 1.47,-0.61 0.38,-0.38 0.61,-0.9 0.61,-1.47l0 -19.22c0,-0.57 -0.23,-1.09 -0.61,-1.47 -0.38,-0.38 -0.9,-0.61 -1.47,-0.61z"/>
   <path class="fil1" d="M7.28 9.57c-0.06,-0.1 -0.11,-0.18 -0.16,-0.21 -0.05,-0.04 -0.14,-0.05 -0.28,-0.05 -0.13,0 -0.29,0.01 -0.44,0.04 -0.11,0.02 -0.21,0.05 -0.26,0.1l-0 0 -0 0 0 0c-0.03,0.03 -0.05,0.09 -0.06,0.15 -0,0.06 0.01,0.11 0.04,0.15l0.01 0.01c0.03,0.02 0.13,0.08 0.24,0.13 0.14,0.07 0.3,0.13 0.38,0.15l0.47 0.11 -0.28 0.39c-0.06,0.09 -0.1,0.12 -0.16,0.16 -0.02,0.01 -0.04,0.03 -0.08,0.07 -0.42,0.45 -0.62,0.87 -0.69,1.33 -0.07,0.48 0.01,1.03 0.16,1.69 0.03,0.15 0.08,0.28 0.12,0.41 0.09,0.28 0.18,0.54 0.18,0.92 -0,0.1 -0,0.19 -0,0.28 -0,0.11 -0,0.21 -0,0.31 0,0.59 0.09,0.93 0.96,0.93 0.1,-0 0.19,0 0.29,0.01 0.36,0.01 0.8,0.03 0.97,-0.1 0.25,-0.17 0.27,-0.43 0.28,-0.63 0,-0.1 0.01,-0.19 0.03,-0.28l0.06 -0.23 0.24 -0.02c0.41,-0.03 1.03,0 1.54,0.03 0.16,0.01 0.3,0.02 0.41,0.02l0 -0 3.94 0c0.09,-0 0.21,-0.01 0.34,-0.02 0.53,-0.03 1.18,-0.06 1.61,-0.04l0.24 0.01 0.05 0.23c0.02,0.09 0.03,0.18 0.03,0.29 0.01,0.21 0.03,0.47 0.29,0.64 0.09,0.06 0.42,0.09 0.79,0.1 0.48,0.01 0.96,-0.02 1.08,-0.08 0.38,-0.17 0.36,-0.7 0.34,-1.18 -0,-0.09 -0.01,-0.18 -0.01,-0.28 -0,-0.39 0.08,-0.64 0.18,-0.93 0.05,-0.14 0.09,-0.28 0.13,-0.44 0.46,-2.02 -0.14,-2.59 -0.5,-2.94 -0.11,-0.1 -0.2,-0.19 -0.27,-0.3l-0.25 -0.39 0.45 -0.1c0.1,-0.02 0.26,-0.08 0.41,-0.15 0.11,-0.05 0.2,-0.1 0.22,-0.12l0.01 -0.01c0.03,-0.04 0.04,-0.1 0.04,-0.16 -0,-0.05 -0.03,-0.1 -0.06,-0.13l0 -0 -0.01 -0.01 0 -0c-0.04,-0.03 -0.13,-0.06 -0.25,-0.08 -0.17,-0.04 -0.36,-0.06 -0.48,-0.06 -0.13,0 -0.21,0.02 -0.26,0.05 -0.05,0.04 -0.1,0.11 -0.15,0.21l-0.27 0.48 -0.29 -0.47c-0.16,-0.26 -0.33,-0.66 -0.48,-1.04 -0.07,-0.18 -0.14,-0.35 -0.2,-0.49 -0.09,-0.21 -0.23,-0.42 -0.4,-0.6 -0.15,-0.16 -0.31,-0.3 -0.48,-0.37 -0.54,-0.25 -2.2,-0.37 -3.85,-0.37 -1.68,0 -3.33,0.13 -3.79,0.37 -0.66,0.35 -0.88,0.91 -1.11,1.51 -0.13,0.33 -0.26,0.66 -0.46,1l-0.29 0.48 -0.27 -0.49zm0.2 -0.75l0.02 0.02c0.07,-0.16 0.14,-0.32 0.2,-0.48 0.28,-0.71 0.54,-1.38 1.41,-1.85 0.55,-0.29 2.32,-0.44 4.09,-0.44 1.73,-0 3.5,0.14 4.12,0.43 0.25,0.11 0.48,0.3 0.68,0.52 0.21,0.23 0.39,0.5 0.51,0.78 0.07,0.16 0.14,0.33 0.21,0.51 0.07,0.18 0.14,0.36 0.22,0.52 0.16,-0.11 0.35,-0.17 0.62,-0.17 0.17,-0 0.41,0.02 0.62,0.07 0.19,0.04 0.37,0.11 0.49,0.2l0 0c0.02,0.01 0.04,0.03 0.06,0.05l0 0c0.16,0.15 0.25,0.35 0.27,0.56 0.02,0.21 -0.04,0.42 -0.17,0.6 -0.01,0.02 -0.03,0.04 -0.05,0.06 -0.08,0.09 -0.25,0.19 -0.42,0.27l-0.04 0.02c0.46,0.46 1.05,1.26 0.56,3.43 -0.05,0.2 -0.1,0.35 -0.14,0.5 -0.08,0.23 -0.15,0.44 -0.15,0.72 0,0.08 0,0.17 0.01,0.26 0.02,0.68 0.05,1.44 -0.72,1.79 -0.19,0.09 -0.8,0.14 -1.36,0.13 -0.47,-0.01 -0.93,-0.07 -1.13,-0.2 -0.5,-0.33 -0.56,-0.74 -0.58,-1.08 -0.38,-0 -0.86,0.02 -1.26,0.04l-0.37 0.02 -3.94 0 -0.01 -0c-0.15,-0.01 -0.28,-0.01 -0.43,-0.02 -0.39,-0.02 -0.83,-0.04 -1.19,-0.04 -0.02,0.32 -0.07,0.73 -0.55,1.06 -0.35,0.24 -0.91,0.22 -1.36,0.21 -0.1,-0 -0.2,-0.01 -0.27,-0.01 -1.45,0 -1.61,-0.58 -1.61,-1.57 -0,-0.1 0,-0.21 0,-0.32l0 -0.27c0,-0.27 -0.07,-0.48 -0.14,-0.71 -0.05,-0.14 -0.1,-0.29 -0.14,-0.47 -0.17,-0.73 -0.26,-1.35 -0.17,-1.93 0.08,-0.55 0.3,-1.04 0.72,-1.54l-0 -0c-0.17,-0.08 -0.34,-0.17 -0.42,-0.25 -0.02,-0.02 -0.03,-0.03 -0.04,-0.04 -0.15,-0.17 -0.21,-0.39 -0.2,-0.61 0.01,-0.21 0.09,-0.42 0.23,-0.57l0 0c0.02,-0.02 0.03,-0.03 0.04,-0.04l-0 -0c0.15,-0.13 0.35,-0.21 0.57,-0.25 0.18,-0.04 0.38,-0.05 0.55,-0.05 0.29,-0.01 0.49,0.05 0.65,0.16zm11.59 3.9c0.03,-0.12 0.04,-0.24 0.02,-0.34 -0.02,-0.09 -0.05,-0.17 -0.11,-0.22 -0.13,-0.1 -0.58,-0.01 -1.03,0.12 -0.47,0.14 -0.9,0.32 -0.99,0.4 -0.02,0.03 -0.02,0.09 -0.02,0.16 0.01,0.11 0.04,0.21 0.08,0.25 0.08,0.08 0.31,0.07 0.55,0.06 0.09,-0 0.18,-0.01 0.21,-0.01 0.05,0 0.18,0 0.31,0.01 0.5,0.01 0.87,0.02 0.99,-0.43zm0.65 -0.46c0.04,0.2 0.03,0.41 -0.03,0.63 -0.25,0.94 -0.84,0.92 -1.63,0.91 -0.07,-0 -0.14,-0 -0.29,-0 -0.1,0 -0.14,0 -0.19,0 -0.38,0.01 -0.76,0.02 -1.03,-0.26 -0.13,-0.14 -0.24,-0.39 -0.26,-0.64l0 -0c-0.02,-0.22 0.02,-0.46 0.16,-0.64l0 -0c0.01,-0.01 0.02,-0.03 0.03,-0.04l0 -0c0.13,-0.12 0.69,-0.39 1.27,-0.56 0.62,-0.18 1.29,-0.27 1.62,-0 0.02,0.02 0.04,0.03 0.05,0.05 0.14,0.15 0.24,0.34 0.28,0.55zm-12.35 0.39c0.13,0.51 0.43,0.51 0.96,0.5l0.23 -0c0.05,0 0.13,0 0.23,0.01 0.24,0.01 0.53,0.02 0.62,-0.05 0.05,-0.04 0.09,-0.11 0.11,-0.21 0.02,-0.07 0.02,-0.14 -0.01,-0.2 -0.09,-0.11 -0.51,-0.28 -0.96,-0.41 -0.45,-0.13 -0.9,-0.21 -1.05,-0.15 -0.05,0.04 -0.09,0.11 -0.12,0.2l0 0c-0.03,0.09 -0.03,0.2 -0.01,0.3zm0.97 1.15c-0.86,0.01 -1.33,0.01 -1.59,-0.99 -0.06,-0.23 -0.05,-0.45 0.01,-0.65 0.07,-0.23 0.2,-0.42 0.36,-0.54 0.02,-0.02 0.05,-0.03 0.08,-0.05 0.3,-0.15 0.94,-0.07 1.53,0.1 0.58,0.17 1.15,0.43 1.31,0.65l0 0c0.02,0.02 0.03,0.05 0.04,0.07 0.11,0.21 0.12,0.44 0.07,0.65 -0.06,0.24 -0.19,0.46 -0.35,0.58 -0.28,0.21 -0.69,0.19 -1.04,0.18 -0.06,-0 -0.12,-0 -0.2,-0l-0.23 0zm0.57 -4.07c0.28,-0.01 0.58,-0.03 0.87,-0.05 0.42,-0.03 0.84,-0.05 1.29,-0.07 1.09,-0.03 2.1,-0.02 3.14,-0.01 0.39,0 0.78,0.01 1.18,0.01 0.51,0 1,0.03 1.49,0.06 0.23,0.01 0.46,0.03 0.68,0.04 -0.1,-0.31 -0.22,-0.6 -0.37,-0.86 -0.21,-0.36 -0.48,-0.67 -0.86,-0.88 -0.38,-0.21 -1.72,-0.31 -3.08,-0.31 -1.36,-0 -2.7,0.1 -3.11,0.32 -0.38,0.19 -0.64,0.51 -0.85,0.88 -0.15,0.27 -0.27,0.56 -0.37,0.87zm0.91 0.59c-0.44,0.03 -0.88,0.06 -1.35,0.07l-0.45 0.01 0.13 -0.43c0.15,-0.48 0.31,-0.98 0.56,-1.43 0.26,-0.47 0.61,-0.88 1.12,-1.14 0.5,-0.26 1.97,-0.39 3.41,-0.39 1.45,0 2.92,0.13 3.39,0.39 0.5,0.28 0.85,0.67 1.11,1.13 0.25,0.44 0.42,0.93 0.56,1.44l0.12 0.42 -0.44 -0.01c-0.4,-0.01 -0.78,-0.03 -1.16,-0.06 -0.49,-0.03 -0.98,-0.06 -1.45,-0.06 -0.41,-0 -0.8,-0.01 -1.18,-0.01 -1.03,-0.01 -2.03,-0.03 -3.11,0.01 -0.41,0.01 -0.84,0.04 -1.27,0.07z"/>
   <path class="fil2" d="M19.51 19.77l2.28 0 0 -2.28c0,-0.13 0.1,-0.23 0.23,-0.23l0 0c0.13,0 0.23,0.1 0.23,0.23l0 2.51 0 0 -0 0.01 -0 0.01 -0 0.01 -0 0.01 -0 0.01 -0 0.01 -0 0.01 -0 0.01 -0 0.01c-0,0 -0,0.01 -0,0.01l-0 0.01c-0,0.01 -0,0.01 -0.01,0.02l-0 0.01c-0,0 -0,0.01 -0,0.01 -0,0.01 -0.01,0.01 -0.01,0.02 -0.04,0.06 -0.1,0.1 -0.17,0.11l-0.01 0c-0,0 -0.01,0 -0.01,0l-0.01 0 -0.01 0 -2.51 0c-0.13,0 -0.23,-0.1 -0.23,-0.23l0 0c0,-0.13 0.1,-0.23 0.23,-0.23z"/>
   <path class="fil2" d="M19.51 4.91l2.28 0 0 2.28c0,0.13 0.1,0.23 0.23,0.23l0 0c0.13,0 0.23,-0.1 0.23,-0.23l0 -2.51 0 0 -0 -0.01 -0 -0.01 -0 -0.01 -0 -0.01 -0 -0.01 -0 -0.01 -0 -0.01 -0 -0.01 -0 -0.01c-0,-0 -0,-0.01 -0,-0.01l-0 -0.01c-0,-0.01 -0,-0.01 -0.01,-0.02l-0 -0.01c-0,-0 -0,-0.01 -0,-0.01 -0,-0.01 -0.01,-0.01 -0.01,-0.02 -0.04,-0.06 -0.1,-0.1 -0.17,-0.11l-0.01 -0c-0,-0 -0.01,-0 -0.01,-0l-0.01 -0 -0.01 -0 -2.51 0c-0.13,0 -0.23,0.1 -0.23,0.23l0 0c0,0.13 0.1,0.23 0.23,0.23z"/>
   <path class="fil2" d="M6.93 19.77l-2.28 0 0 -2.28c0,-0.13 -0.1,-0.23 -0.23,-0.23l0 0c-0.13,0 -0.23,0.1 -0.23,0.23l0 2.51 0 0 0 0.01 0 0.01 0 0.01 0 0.01 0 0.01 0 0.01 0 0.01 0 0.01 0 0.01c0,0 0,0.01 0,0.01l0 0.01c0,0.01 0,0.01 0.01,0.02l0 0.01c0,0 0,0.01 0,0.01 0,0.01 0.01,0.01 0.01,0.02 0.04,0.06 0.1,0.1 0.17,0.11l0.01 0c0,0 0.01,0 0.01,0l0.01 0 0.01 0 2.51 0c0.13,0 0.23,-0.1 0.23,-0.23l0 0c0,-0.13 -0.1,-0.23 -0.23,-0.23z"/>
   <path class="fil2" d="M6.93 4.91l-2.28 0 0 2.28c0,0.13 -0.1,0.23 -0.23,0.23l0 0c-0.13,0 -0.23,-0.1 -0.23,-0.23l0 -2.51 0 0 0 -0.01 0 -0.01 0 -0.01 0 -0.01 0 -0.01 0 -0.01 0 -0.01 0 -0.01 0 -0.01c0,-0 0,-0.01 0,-0.01l0 -0.01c0,-0.01 0,-0.01 0.01,-0.02l0 -0.01c0,-0 0,-0.01 0,-0.01 0,-0.01 0.01,-0.01 0.01,-0.02 0.04,-0.06 0.1,-0.1 0.17,-0.11l0.01 -0c0,-0 0.01,-0 0.01,-0l0.01 -0 0.01 -0 2.51 0c0.13,0 0.23,0.1 0.23,0.23l0 0c0,0.13 -0.1,0.23 -0.23,0.23z"/>
  </g>
 </g>
</svg>
