<?xml version="1.0" encoding="UTF-8"?>
<!DOCTYPE svg PUBLIC "-//W3C//DTD SVG 1.1//EN" "http://www.w3.org/Graphics/SVG/1.1/DTD/svg11.dtd">
<!-- Creator: CorelDRAW 2018 (64-Bit) -->
<svg xmlns="http://www.w3.org/2000/svg" xml:space="preserve" width="36.5046mm" height="35.2636mm" version="1.1" style="shape-rendering:geometricPrecision; text-rendering:geometricPrecision; image-rendering:optimizeQuality; fill-rule:evenodd; clip-rule:evenodd"
viewBox="0 0 4.92 4.76"
 xmlns:xlink="http://www.w3.org/1999/xlink">
 <defs>
  <style type="text/css">
   <![CDATA[
    .fil0 {fill:#59656C}
    .fil2 {fill:#59656C;fill-rule:nonzero}
    .fil1 {fill:white;fill-rule:nonzero}
   ]]>
  </style>
 </defs>
 <g id="Слой_x0020_1">
  <metadata id="CorelCorpID_0Corel-Layer"/>
  <g id="_2119614800">
   <path class="fil0" d="M4.64 1.56l-0.04 0.15c-0.19,-0.05 -0.36,-0.11 -0.55,-0.17 -0.02,-0.01 -0.04,-0 -0.06,0 -0.02,0.01 -0.03,0.03 -0.04,0.05 -0.01,0.02 -0,0.04 0,0.06 0.01,0.02 0.03,0.03 0.05,0.04l0.25 0.08c0.12,0.04 0.23,0.08 0.36,0.12l0 0c0.01,0 0.02,0 0.03,0 0.01,-0 0.02,-0 0.03,-0.01l0 -0c0.01,-0.01 0.02,-0.01 0.03,-0.02 0.01,-0.01 0.01,-0.02 0.01,-0.04l0 -0c0.07,-0.2 0.13,-0.4 0.2,-0.6 0.01,-0.02 0,-0.04 -0,-0.06 -0.01,-0.02 -0.03,-0.03 -0.05,-0.04l-0 -0c-0.02,-0.01 -0.04,-0 -0.06,0 -0.02,0.01 -0.03,0.03 -0.04,0.05l-0.13 0.38z"/>
   <path class="fil1" d="M1.62 3.41l0 -1.08 1.52 0 0 1.08 -1.04 0c-0.09,0 -0.16,0 -0.24,0.01 -0.07,0 -0.15,0.01 -0.24,0.01l-0.01 0 0 -0.01zm0.03 -1.05l0 1.04c0.08,-0 0.15,-0 0.22,-0.01 0.08,-0 0.15,-0.01 0.24,-0.01l1.01 0 0 -1.02 -1.47 0zm0.24 -0.51c0,-0.11 0.06,-0.23 0.15,-0.31 0.09,-0.07 0.21,-0.12 0.36,-0.12 0.13,0 0.24,0.06 0.32,0.14 0.08,0.09 0.14,0.21 0.14,0.34l0 0.28 -0.97 0 0 -0.34zm0.17 -0.29c-0.09,0.08 -0.14,0.18 -0.14,0.29l0 0.31 0.92 0 0 -0.26c0,-0.12 -0.05,-0.24 -0.13,-0.32 -0.08,-0.08 -0.18,-0.13 -0.3,-0.13 -0.14,0 -0.26,0.05 -0.34,0.12zm-0.32 0.33l0 0.3 -0.04 -0c-0.01,-0 -0.02,-0 -0.04,-0 -0.09,0 -0.19,0.01 -0.19,0.11l0 1.13c0,0.04 0.01,0.08 0.03,0.1 0.02,0.02 0.04,0.03 0.08,0.03l1.56 0c0.13,0 0.15,-0.09 0.15,-0.23 0,-0.04 -0,-0.07 -0,-0.11 -0,-0.05 -0,-0.09 -0,-0.14l-0.02 -0.82c-0.02,-0.08 -0.11,-0.08 -0.2,-0.07 -0.02,0 -0.04,0 -0.06,0l-0.01 0 0 -0.09c0,-0.24 0,-0.45 -0.17,-0.63 -0.14,-0.14 -0.3,-0.2 -0.46,-0.2 -0.08,0 -0.17,0.02 -0.24,0.05 -0.08,0.03 -0.15,0.08 -0.21,0.14 -0.11,0.11 -0.18,0.26 -0.18,0.43zm-0.03 0.27l0 -0.27c0,-0.18 0.08,-0.34 0.19,-0.45 0.06,-0.06 0.13,-0.11 0.21,-0.14 0.08,-0.03 0.17,-0.05 0.25,-0.05 0.16,0 0.33,0.06 0.48,0.21 0.19,0.19 0.18,0.4 0.18,0.65l-0 0.06c0.01,-0 0.03,-0 0.04,-0 0.1,-0 0.2,-0.01 0.22,0.1l0 0c0,0.17 -0.01,0.69 0.02,0.82 0,0.05 0,0.1 0,0.14 0,0.04 0,0.08 0,0.12 0,0.15 -0.03,0.26 -0.18,0.26l-1.56 0c-0.04,0 -0.08,-0.02 -0.1,-0.04 -0.02,-0.03 -0.04,-0.07 -0.04,-0.12l0 -1.13c0,-0.12 0.12,-0.14 0.22,-0.14l0.05 0z"/>
   <path class="fil1" d="M1.62 3.41l0 -1.08 1.52 0 0 1.08 -1.04 0c-0.09,0 -0.16,0 -0.24,0.01 -0.07,0 -0.15,0.01 -0.24,0.01l-0.01 0 0 -0.01zm0.03 -1.05l0 1.04c0.08,-0 0.15,-0 0.22,-0.01 0.08,-0 0.15,-0.01 0.24,-0.01l1.01 0 0 -1.02 -1.47 0zm0.24 -0.51c0,-0.11 0.06,-0.23 0.15,-0.31 0.09,-0.07 0.21,-0.12 0.36,-0.12 0.13,0 0.24,0.06 0.32,0.14 0.08,0.09 0.14,0.21 0.14,0.34l0 0.28 -0.97 0 0 -0.34zm0.17 -0.29c-0.09,0.08 -0.14,0.18 -0.14,0.29l0 0.31 0.92 0 0 -0.26c0,-0.12 -0.05,-0.24 -0.13,-0.32 -0.08,-0.08 -0.18,-0.13 -0.3,-0.13 -0.14,0 -0.26,0.05 -0.34,0.12zm-0.32 0.33l0 0.3 -0.04 -0c-0.01,-0 -0.02,-0 -0.04,-0 -0.09,0 -0.19,0.01 -0.19,0.11l0 1.13c0,0.04 0.01,0.08 0.03,0.1 0.02,0.02 0.04,0.03 0.08,0.03l1.56 0c0.13,0 0.15,-0.09 0.15,-0.23 0,-0.04 -0,-0.07 -0,-0.11 -0,-0.05 -0,-0.09 -0,-0.14l-0.02 -0.82c-0.02,-0.08 -0.11,-0.08 -0.2,-0.07 -0.02,0 -0.04,0 -0.06,0l-0.01 0 0 -0.09c0,-0.24 0,-0.45 -0.17,-0.63 -0.14,-0.14 -0.3,-0.2 -0.46,-0.2 -0.08,0 -0.17,0.02 -0.24,0.05 -0.08,0.03 -0.15,0.08 -0.21,0.14 -0.11,0.11 -0.18,0.26 -0.18,0.43zm-0.03 0.27l0 -0.27c0,-0.18 0.08,-0.34 0.19,-0.45 0.06,-0.06 0.13,-0.11 0.21,-0.14 0.08,-0.03 0.17,-0.05 0.25,-0.05 0.16,0 0.33,0.06 0.48,0.21 0.19,0.19 0.18,0.4 0.18,0.65l-0 0.06c0.01,-0 0.03,-0 0.04,-0 0.1,-0 0.2,-0.01 0.22,0.1l0 0c0,0.17 -0.01,0.69 0.02,0.82 0,0.05 0,0.1 0,0.14 0,0.04 0,0.08 0,0.12 0,0.15 -0.03,0.26 -0.18,0.26l-1.56 0c-0.04,0 -0.08,-0.02 -0.1,-0.04 -0.02,-0.03 -0.04,-0.07 -0.04,-0.12l0 -1.13c0,-0.12 0.12,-0.14 0.22,-0.14l0.05 0z"/>
   <path class="fil0" d="M1.6 3.41l0 -1.09 1.55 0 0 1.1 -1.05 0c-0.09,0 -0.16,0 -0.24,0.01 -0.08,0 -0.15,0.01 -0.24,0.01l-0.03 0 0 -0.03zm0.27 -1.56c0,-0.12 0.06,-0.23 0.16,-0.32 0.09,-0.08 0.22,-0.13 0.37,-0.13 0.13,0 0.25,0.06 0.33,0.15 0.09,0.09 0.14,0.22 0.14,0.35l0 0.3 -1 0 0 -0.35zm-0.12 0.04l0 0.31 -0.03 0 -0.03 -0c-0.01,-0 -0.02,-0 -0.04,-0 -0.08,0 -0.18,0.01 -0.18,0.09l0 1.13c0,0.04 0.01,0.07 0.03,0.09 0.01,0.02 0.04,0.03 0.07,0.03l1.56 0c0.12,0 0.14,-0.09 0.14,-0.22 0,-0.04 -0,-0.07 -0,-0.11 -0,-0.05 -0,-0.09 -0,-0.14l-0.02 -0.81c-0.02,-0.07 -0.1,-0.07 -0.18,-0.06 -0.02,0 -0.04,0 -0.06,0l-0.03 0 0 -0.1c0,-0.24 0,-0.44 -0.17,-0.62 -0.14,-0.14 -0.3,-0.2 -0.45,-0.2 -0.08,0 -0.16,0.02 -0.24,0.05 -0.07,0.03 -0.14,0.08 -0.2,0.13 -0.11,0.11 -0.18,0.26 -0.18,0.42z"/>
   <path class="fil2" d="M1.59 3.41l0 -1.1 1.58 0 0 1.13 -1.06 0c-0.09,0 -0.16,0 -0.23,0.01l-0 0c-0.08,0 -0.15,0.01 -0.23,0.01l-0.04 0 0 -0.04zm0.03 -1.08l0 1.09 0.01 0c0.09,0 0.16,-0 0.23,-0.01l0 -0c0.07,-0 0.15,-0.01 0.23,-0.01l1.04 0 0 -1.08 -1.52 0zm0.24 -0.48c0,-0.06 0.02,-0.12 0.04,-0.18 0.03,-0.06 0.07,-0.11 0.12,-0.15 0.05,-0.04 0.11,-0.07 0.17,-0.1 0.06,-0.02 0.13,-0.03 0.2,-0.03 0.07,0 0.13,0.01 0.18,0.04 0.06,0.03 0.11,0.07 0.16,0.11 0.04,0.05 0.08,0.1 0.11,0.17 0.02,0.06 0.04,0.13 0.04,0.19l0 0.31 -1.02 0 0 -0.36zm0.07 -0.17c-0.03,0.05 -0.04,0.11 -0.04,0.17l0 0.34 0.97 0 0 -0.28c0,-0.06 -0.01,-0.13 -0.04,-0.18 -0.02,-0.06 -0.06,-0.11 -0.1,-0.16 -0.04,-0.04 -0.09,-0.08 -0.15,-0.11 -0.05,-0.02 -0.11,-0.04 -0.17,-0.04 -0.07,0 -0.14,0.01 -0.19,0.03 -0.06,0.02 -0.12,0.05 -0.16,0.09 -0.05,0.04 -0.09,0.09 -0.11,0.14zm-0.16 0.21l0 0.32c-0.04,0 -0.07,-0 -0.11,-0 -0.04,0 -0.08,0 -0.11,0.01 -0.03,0.01 -0.05,0.03 -0.05,0.07l0 1.13c0,0.02 0,0.03 0.01,0.05 0,0.01 0.01,0.03 0.02,0.03 0.01,0.01 0.01,0.01 0.02,0.02 0.01,0 0.02,0.01 0.03,0.01l1.56 0c0.05,0 0.09,-0.02 0.1,-0.05 0.02,-0.04 0.02,-0.09 0.02,-0.15 0,-0.04 -0,-0.07 -0,-0.11l-0 -0c-0,-0.05 -0,-0.09 -0,-0.14l-0.02 -0.81c-0.01,-0.03 -0.03,-0.04 -0.06,-0.05 -0.03,-0.01 -0.07,-0.01 -0.11,-0l-0 0c-0.02,0 -0.04,0 -0.05,0l-0.04 0 0 -0.11c0,-0.23 0,-0.44 -0.17,-0.61 -0.06,-0.07 -0.13,-0.11 -0.21,-0.14 -0.08,-0.03 -0.16,-0.05 -0.23,-0.05 -0.04,0 -0.08,0 -0.12,0.01 -0.04,0.01 -0.08,0.02 -0.12,0.04 -0.04,0.02 -0.07,0.03 -0.1,0.06 -0.03,0.02 -0.06,0.05 -0.09,0.08 -0.06,0.05 -0.1,0.12 -0.13,0.19 -0.03,0.07 -0.05,0.14 -0.05,0.22zm-0.03 0.3l0 -0.3c0,-0.08 0.02,-0.16 0.05,-0.23 0.03,-0.08 0.08,-0.14 0.14,-0.2 0.03,-0.03 0.06,-0.06 0.1,-0.08 0.03,-0.02 0.07,-0.04 0.11,-0.06 0.04,-0.02 0.08,-0.03 0.12,-0.04 0.04,-0.01 0.08,-0.01 0.12,-0.01 0.08,0 0.16,0.02 0.24,0.05 0.07,0.03 0.15,0.08 0.21,0.15 0.18,0.18 0.18,0.39 0.17,0.63l-0 0.09 0.01 0c0.02,0 0.03,-0 0.05,-0l0 -0c0.04,-0 0.08,-0 0.12,0 0.04,0.01 0.07,0.03 0.08,0.07l0 0c0,0.17 -0.01,0.68 0.02,0.82 0,0.05 0,0.09 0,0.14l0 0c0,0.04 0,0.08 0,0.11 0,0.07 -0.01,0.12 -0.03,0.16 -0.02,0.04 -0.06,0.07 -0.13,0.07l-1.56 0c-0.02,0 -0.03,-0 -0.04,-0.01 -0.01,-0.01 -0.03,-0.01 -0.03,-0.03 -0.01,-0.01 -0.02,-0.03 -0.02,-0.04 -0,-0.02 -0.01,-0.04 -0.01,-0.06l0 -1.13c0,-0.05 0.03,-0.08 0.07,-0.09 0.04,-0.01 0.08,-0.02 0.12,-0.02l0.06 0 0.01 -0z"/>
   <path class="fil2" d="M2.38 0c0.66,0 1.25,0.27 1.68,0.7 0.29,0.29 0.5,0.65 0.61,1.05l-0.14 -0c-0.11,-0.36 -0.3,-0.69 -0.57,-0.95 -0.41,-0.41 -0.97,-0.66 -1.59,-0.66 -0.62,0 -1.18,0.25 -1.59,0.66 -0.41,0.41 -0.66,0.97 -0.66,1.59 0,0.62 0.25,1.18 0.66,1.59 0.41,0.41 0.97,0.66 1.59,0.66 0.62,0 1.18,-0.25 1.59,-0.66 0.01,-0.01 0.02,-0.02 0.03,-0.03l0.08 0.11c-0.01,0.01 -0.01,0.01 -0.02,0.02 -0.43,0.43 -1.02,0.7 -1.68,0.7 -0.66,0 -1.25,-0.27 -1.68,-0.7 -0.43,-0.43 -0.7,-1.02 -0.7,-1.68 0,-0.66 0.27,-1.25 0.7,-1.68 0.43,-0.43 1.02,-0.7 1.68,-0.7z"/>
  </g>
 </g>
</svg>
