<?xml version="1.0" encoding="UTF-8"?>
<!DOCTYPE svg PUBLIC "-//W3C//DTD SVG 1.1//EN" "http://www.w3.org/Graphics/SVG/1.1/DTD/svg11.dtd">
<!-- Creator: CorelDRAW 2018 (64-Bit) -->
<svg xmlns="http://www.w3.org/2000/svg" xml:space="preserve" width="31.9446mm" height="32.4704mm" version="1.1" style="shape-rendering:geometricPrecision; text-rendering:geometricPrecision; image-rendering:optimizeQuality; fill-rule:evenodd; clip-rule:evenodd"
viewBox="0 0 3.77 3.83"
 xmlns:xlink="http://www.w3.org/1999/xlink">
 <defs>
  <style type="text/css">
   <![CDATA[
    .fil0 {fill:#FEFEFE}
    .fil1 {fill:#59656C;fill-rule:nonzero}
   ]]>
  </style>
 </defs>
 <g id="Слой_x0020_1">
  <metadata id="CorelCorpID_0Corel-Layer"/>
  <g id="_2100192096">
   <path class="fil0" d="M1.07 1.89c-0.08,-0 -0.07,-0.03 -0.07,0.15 0,0.14 -0.01,1.5 0.01,1.55 0.01,0.02 0.14,0.03 0.16,0.04l0.48 0.09c0.31,0.07 0.85,0.06 1.17,0.06 0.07,-0 0.2,-0.02 0.26,-0.04 0.24,-0.06 0.34,-0.18 0.33,-0.42 -0.01,-0.17 0.11,-0.1 0.19,-0.26 0.03,-0.07 0.04,-0.18 0.01,-0.26 -0.04,-0.09 -0.12,-0.1 -0.01,-0.18 0.06,-0.04 0.11,-0.11 0.11,-0.2 0,-0.11 -0.04,-0.16 -0.09,-0.21 -0.09,-0.09 0.01,-0.1 0.05,-0.18 0.06,-0.11 0,-0.38 -0.11,-0.44 -0.15,-0.09 -0.34,-0.08 -0.52,-0.08 -0.1,0 -0.54,0.01 -0.61,-0 -0.05,-0.08 -0.01,-0.18 0.02,-0.25 0.11,-0.27 0.24,-0.45 0.24,-0.74 0,-0.36 -0.22,-0.56 -0.48,-0.41 -0.06,0.04 -0.06,0.16 -0.07,0.25 -0.01,0.17 -0.04,0.37 -0.16,0.49 -0.03,0.03 -0.06,0.05 -0.09,0.07 -0.03,0.02 -0.06,0.05 -0.09,0.08l-0.17 0.16c-0.17,0.16 -0.31,0.35 -0.4,0.58 -0.05,0.11 -0.08,0.15 -0.17,0.15z"/>
   <path class="fil1" d="M1.07 1.95l-0.01 -0 0 0.02c0,0.02 0,0.06 0,0.07 0,0.02 -0,0.06 -0,0.17 -0,0.39 -0.01,1.27 0,1.35l0 -0.01c-0,-0 -0,-0.01 0,-0.01l0 0c0.04,0.01 0.1,0.02 0.11,0.02 0.14,0.01 0.34,0.07 0.49,0.09l0 0c0.28,0.06 0.75,0.06 1.08,0.06l0.08 -0c0.03,-0 0.07,-0 0.12,-0.01 0.05,-0.01 0.1,-0.02 0.13,-0.02 0.11,-0.03 0.18,-0.07 0.23,-0.12 0.04,-0.06 0.06,-0.13 0.06,-0.24 -0,-0.13 0.04,-0.16 0.1,-0.19 0.03,-0.02 0.06,-0.04 0.09,-0.1 0.01,-0.03 0.02,-0.07 0.02,-0.11 0,-0.04 -0,-0.07 -0.01,-0.1 -0.01,-0.02 -0.02,-0.03 -0.03,-0.05 -0,-0.01 -0.01,-0.01 -0.01,-0.02 -0.04,-0.06 -0.05,-0.11 0.06,-0.18 0.02,-0.02 0.04,-0.04 0.06,-0.07l0 -0c0.01,-0.03 0.02,-0.06 0.02,-0.09 0,-0.04 -0.01,-0.07 -0.02,-0.1 -0.01,-0.03 -0.04,-0.05 -0.06,-0.07 -0.1,-0.11 -0.05,-0.15 0.01,-0.21 0.01,-0.01 0.03,-0.03 0.04,-0.04 0.02,-0.04 0.02,-0.12 0,-0.2 -0.02,-0.07 -0.05,-0.14 -0.09,-0.16 -0.13,-0.08 -0.29,-0.07 -0.45,-0.07l-0.04 0 0 0c-0.06,0 -0.08,0 -0.11,0 -0.17,0 -0.45,0 -0.51,-0l-0.03 -0 -0.01 -0.02c-0.06,-0.1 -0.02,-0.21 0.02,-0.3l0 -0.01c0.03,-0.07 0.06,-0.14 0.09,-0.2 0.08,-0.17 0.15,-0.32 0.15,-0.51 0,-0.11 -0.02,-0.21 -0.06,-0.28 -0.02,-0.04 -0.05,-0.07 -0.08,-0.09l-0 0c-0.03,-0.02 -0.07,-0.03 -0.1,-0.03 -0.04,-0 -0.09,0.01 -0.14,0.04 -0.03,0.02 -0.03,0.11 -0.04,0.18l-0 0.03c-0.01,0.09 -0.02,0.19 -0.04,0.28 -0.03,0.1 -0.07,0.18 -0.14,0.25 -0.02,0.02 -0.03,0.03 -0.05,0.04 -0.02,0.02 -0.03,0.02 -0.04,0.04l-0 -0c-0.01,0.01 -0.03,0.02 -0.04,0.03 -0.02,0.01 -0.03,0.03 -0.05,0.04l-0.17 0.16c-0.08,0.08 -0.15,0.16 -0.22,0.26 -0.07,0.09 -0.12,0.19 -0.17,0.3 -0.03,0.06 -0.05,0.1 -0.08,0.13 -0.04,0.04 -0.08,0.05 -0.15,0.05zm-0.03 -0.12c0.01,0 0.02,0 0.03,0l0 0c0.03,0 0.05,-0.01 0.07,-0.02l0 -0c0.02,-0.02 0.03,-0.05 0.05,-0.1 0.05,-0.12 0.11,-0.22 0.18,-0.32 0.07,-0.1 0.15,-0.19 0.23,-0.27 0.05,-0.05 0.11,-0.11 0.17,-0.16l0 -0c0.01,-0.01 0.03,-0.02 0.05,-0.04 0.02,-0.01 0.03,-0.03 0.05,-0.04l0 -0c0.02,-0.01 0.03,-0.03 0.04,-0.03 0.01,-0.01 0.03,-0.02 0.04,-0.04 0.05,-0.05 0.08,-0.12 0.11,-0.19 0.02,-0.08 0.03,-0.17 0.04,-0.25l0 -0.03c0.01,-0.1 0.02,-0.23 0.1,-0.28 0.07,-0.04 0.14,-0.06 0.2,-0.06 0.06,0 0.12,0.02 0.17,0.05l-0 0c0.05,0.03 0.09,0.08 0.12,0.13 0.05,0.09 0.08,0.2 0.08,0.33 -0,0.22 -0.08,0.38 -0.16,0.56 -0.03,0.06 -0.06,0.13 -0.09,0.19l-0 0.01c-0.02,0.05 -0.05,0.11 -0.04,0.16 0.09,0 0.31,0 0.46,0l0.11 -0 0 0 0.04 -0c0.17,-0 0.35,-0 0.51,0.09 0.07,0.04 0.12,0.14 0.14,0.24 0.02,0.1 0.02,0.21 -0.02,0.28l0 0c-0.02,0.03 -0.04,0.05 -0.06,0.07 -0.01,0.01 -0.02,0.02 -0,0.04 0.03,0.03 0.05,0.06 0.08,0.1 0.02,0.04 0.04,0.09 0.03,0.16 -0,0.05 -0.02,0.1 -0.04,0.14 -0.02,0.05 -0.06,0.08 -0.1,0.11 -0.03,0.02 -0.03,0.02 -0.03,0.02 0,0 0.01,0.01 0.01,0.01 0.01,0.02 0.03,0.04 0.05,0.07 0.02,0.04 0.03,0.1 0.02,0.15 -0,0.06 -0.02,0.11 -0.04,0.16 -0.04,0.09 -0.09,0.12 -0.14,0.15 -0.03,0.02 -0.05,0.03 -0.05,0.09 0,0.14 -0.02,0.24 -0.08,0.32 -0.06,0.08 -0.16,0.13 -0.29,0.16 -0.04,0.01 -0.09,0.02 -0.15,0.03 -0.05,0.01 -0.09,0.01 -0.13,0.01l-0.08 0c-0.33,0 -0.81,0 -1.1,-0.06l-0.48 -0.09c-0.02,-0 -0.08,-0.01 -0.12,-0.02 -0.04,-0.01 -0.08,-0.03 -0.09,-0.06 -0.02,-0.05 -0.01,-0.98 -0.01,-1.39 0,-0.06 0,-0.1 0,-0.17 0,-0.04 -0,-0.05 -0,-0.07 -0,-0.05 -0,-0.08 0.01,-0.1 0.02,-0.05 0.05,-0.04 0.09,-0.04zm0.02 1.73l0 0 0 -0.01 -0 -0 -0 0.01zm0 0c0,0 0,0 0,0 0,0.01 0,-0 0,-0.01l-0 0.01z"/>
   <path class="fil0" d="M0.08 3.73c0.09,0.01 0.3,0 0.4,0 0.09,0 0.1,0 0.16,-0.04 0.04,-0.03 0.08,-0.07 0.09,-0.12 0.01,-0.06 0.01,-1.55 0.01,-1.63 -0,-0.07 -0.03,-0.1 -0.08,-0.12 -0.12,-0.03 -0.25,-0.02 -0.39,-0.02l-0.2 -0.01c-0.01,0.54 -0,1.15 -0,1.7 0,0.07 -0.02,0.18 0.02,0.22z"/>
   <path class="fil1" d="M0.12 3.68c0.07,0.01 0.17,0 0.25,0 0.04,-0 0.09,-0 0.11,-0l0 0 0.02 0c0.06,0 0.07,0 0.12,-0.03 0.02,-0.01 0.03,-0.02 0.04,-0.04 0.01,-0.01 0.02,-0.03 0.02,-0.04 0,-0.02 0.01,-0.22 0.01,-0.48 0,-0.46 -0,-1.08 -0,-1.13 -0,-0.02 -0,-0.04 -0.01,-0.05 -0.01,-0.01 -0.02,-0.01 -0.03,-0.02l-0 0c-0.09,-0.02 -0.19,-0.02 -0.29,-0.02 -0.03,0 -0.07,0 -0.08,0l-0 -0 -0.14 -0.01c-0.01,0.35 -0,0.72 -0,1.09 0,0.21 0,0.42 0,0.56 0,0.01 -0,0.03 -0,0.05 -0,0.04 -0,0.09 0,0.12zm0.26 0.12c-0.11,0 -0.24,0.01 -0.31,-0.01l-0.02 -0 -0.01 -0.02c-0.04,-0.05 -0.04,-0.14 -0.03,-0.21 0,-0.02 0,-0.03 0,-0.05 0,-0.22 -0,-0.39 -0,-0.55 -0,-0.39 -0,-0.79 0,-1.15l0 -0.06 0.26 0.01 0 -0c0.04,0 0.06,-0 0.08,-0 0.11,-0 0.22,-0 0.32,0.02 0.04,0.01 0.07,0.03 0.1,0.06 0.02,0.03 0.03,0.07 0.03,0.11 0,0.05 0,0.67 0,1.14 -0,0.27 -0,0.48 -0.01,0.51 -0.01,0.03 -0.02,0.06 -0.04,0.09 -0.02,0.03 -0.05,0.05 -0.07,0.07 -0.07,0.05 -0.09,0.05 -0.18,0.05l-0.02 -0 0 0c-0.04,0 -0.07,0 -0.1,0z"/>
  </g>
 </g>
</svg>
