<?xml version="1.0" encoding="UTF-8"?>
<!DOCTYPE svg PUBLIC "-//W3C//DTD SVG 1.1//EN" "http://www.w3.org/Graphics/SVG/1.1/DTD/svg11.dtd">
<!-- Creator: CorelDRAW 2018 (64-Bit) -->
<svg xmlns="http://www.w3.org/2000/svg" xml:space="preserve" width="45.3476mm" height="32.3868mm" version="1.1" style="shape-rendering:geometricPrecision; text-rendering:geometricPrecision; image-rendering:optimizeQuality; fill-rule:evenodd; clip-rule:evenodd"
viewBox="0 0 7.67 5.48"
 xmlns:xlink="http://www.w3.org/1999/xlink">
 <defs>
  <style type="text/css">
   <![CDATA[
    .fil0 {fill:#59656C}
    .fil1 {fill:#59656C;fill-rule:nonzero}
   ]]>
  </style>
 </defs>
 <g id="Слой_x0020_1">
  <metadata id="CorelCorpID_0Corel-Layer"/>
  <path class="fil0" d="M5.48 4.62l1.97 0c0.05,0 0.08,0.04 0.08,0.08l0 0c0,0.05 -0.04,0.08 -0.08,0.08l-2.06 0 -0 -0 -0 -0c-0,-0 -0.01,-0 -0.01,-0 -0.02,-0 -0.04,-0.02 -0.05,-0.03 -0,-0.01 -0.01,-0.01 -0.01,-0.02l-0 -0 -0 -0 -0 -0 -0 -0 -0 -0 -0 -0 -0 -0 -0 -0 -0 -0 -0 -0 -0 -0 -0 -0 -0 -0 -0 -0 0 -4.62c0,-0.05 0.04,-0.08 0.08,-0.08l0 0c0.05,0 0.08,0.04 0.08,0.08l0 4.53zm-0.17 0.08l0 0z"/>
  <path class="fil1" d="M0.83 2.44c-0.09,0.02 -0.19,0.01 -0.29,0.01 -0.16,-0.01 -0.32,-0.02 -0.36,0.08 -0.02,0.05 -0.01,0.49 -0.01,0.77l0 0.18c0,0.04 -0,0.09 -0,0.14 -0.01,0.19 -0.02,0.4 0.15,0.4l4.39 -0.02 0.01 -0.79c-0,-0.09 -0.02,-0.12 -0.05,-0.17 -0.01,-0.01 -0.02,-0.03 -0.03,-0.04l-1.42 -2.35 -0 -0 -0.02 -0.04c-0.07,-0.13 -0.12,-0.21 -0.31,-0.21 -0.3,-0 -0.6,-0 -0.9,-0l-0.47 0c-0.03,0 -0.08,-0 -0.13,-0 -0.17,-0.01 -0.33,-0.01 -0.41,0.07 -0.08,0.08 -0.08,0.24 -0.07,0.4 0,0.05 0,0.09 0,0.12 0,0.17 0,0.31 0,0.44 0,0.31 0.01,0.63 -0,0.93l-0 0.07 -0.07 0.01zm-0.28 -0.16c0.06,0 0.13,0.01 0.18,0 0.01,-0.28 0.01,-0.56 0,-0.85 -0,-0.16 -0,-0.32 -0,-0.44 0,-0.05 -0,-0.08 -0,-0.12 -0.01,-0.2 -0.01,-0.4 0.12,-0.53 0.13,-0.13 0.33,-0.13 0.54,-0.12 0.04,0 0.07,0 0.12,0 0.31,0 0.4,-0 0.47,-0 0.3,-0 0.6,-0 0.9,0 0.29,0 0.35,0.11 0.45,0.29l0.02 0.04 0 -0 1.42 2.35c0.01,0.02 0.02,0.03 0.02,0.04 0.05,0.08 0.08,0.13 0.08,0.26 0,0.32 -0.01,0.64 -0.01,0.96 -1.52,0.01 -3.04,0.02 -4.57,0.02 -0.33,-0.02 -0.32,-0.3 -0.31,-0.58 0,-0.04 0,-0.08 0,-0.13 0,-0.07 -0,-0.12 -0,-0.18 -0,-0.29 -0.01,-0.75 0.02,-0.83 0.08,-0.21 0.3,-0.2 0.52,-0.19z"/>
  <path class="fil1" d="M6.09 0.61c-0.02,0.01 -0.01,0.12 -0.01,0.2 0,0.03 0,0.05 0,0.07l-0 0.17c-0,0.33 -0.01,0.94 0,0.96 0.01,0.02 0.11,0.01 0.19,0.01 0.03,-0 0.06,-0 0.08,-0l0.17 0c0.33,0 0.95,0.01 0.97,-0.01 0.02,-0.01 0.01,-0.11 0.01,-0.19 -0,-0.03 -0,-0.06 -0,-0.08l0 -0.17c0,-0.33 0.01,-0.95 -0.01,-0.98 -0.01,-0.02 -0.11,-0.01 -0.19,-0.01 -0.03,0 -0.06,0 -0.08,0l-0.16 -0c-0.32,-0 -0.96,-0.01 -0.98,0l-0 0zm-0.18 0.21c-0.01,-0.12 -0.01,-0.29 0.09,-0.35l-0 -0c0.05,-0.03 0.73,-0.03 1.07,-0.03 0.04,0 0.08,0 0.16,0 0.02,0 0.04,-0 0.07,-0 0.13,-0.01 0.29,-0.02 0.35,0.1 0.03,0.06 0.03,0.71 0.02,1.05 -0,0.05 -0,0.09 -0,0.17 0,0.02 0,0.05 0,0.07 0.01,0.13 0.01,0.29 -0.1,0.35 -0.06,0.03 -0.71,0.02 -1.05,0.02 -0.05,-0 -0.08,-0 -0.17,-0 -0.03,0 -0.05,0 -0.07,0 -0.13,0.01 -0.28,0.01 -0.35,-0.1 -0.03,-0.06 -0.03,-0.71 -0.03,-1.05 0,-0.05 0,-0.1 0,-0.17 0,-0.02 -0,-0.04 -0,-0.06z"/>
  <path class="fil1" d="M6.08 2.65l0 1.32c0,0.02 0,0.04 0.01,0.04 0,0 0.02,0.01 0.04,0.01l1.32 0c0.03,0 0.04,-0 0.05,-0 0,-0 0,-0.02 0,-0.04l0 0 0 -1.32 -0 0c0,-0.03 -0,-0.04 -0,-0.05 -0,-0 -0.02,-0 -0.05,-0l-1.32 0c-0.03,0 -0.04,0 -0.04,0 -0,0 -0,0.02 -0,0.05zm-0.17 1.32l0 -1.32c0,-0.07 0.01,-0.12 0.05,-0.16 0.04,-0.04 0.09,-0.06 0.17,-0.06l1.32 0c0.08,0 0.13,0.02 0.17,0.06 0.04,0.04 0.05,0.09 0.05,0.17l-0 0 -0 1.32 0 0c0,0.07 -0.02,0.13 -0.06,0.16 -0.04,0.04 -0.09,0.05 -0.16,0.05l-1.32 0c-0.07,0 -0.12,-0.02 -0.16,-0.06 -0.04,-0.04 -0.06,-0.09 -0.06,-0.16z"/>
  <path class="fil1" d="M3.85 5.03l0 -0.01c0.03,-0.11 0.01,-0.22 -0.05,-0.29 -0.05,-0.08 -0.14,-0.14 -0.22,-0.16l-0.01 -0c-0.1,-0.03 -0.2,-0.01 -0.28,0.04 -0.09,0.05 -0.16,0.14 -0.18,0.23 -0.05,0.18 0.01,0.31 0.12,0.4 0.04,0.03 0.09,0.06 0.15,0.07 0.05,0.02 0.11,0.02 0.16,0.01 0.13,-0.02 0.26,-0.1 0.31,-0.28zm0.17 0.03l-0 0.01c-0.07,0.25 -0.26,0.38 -0.45,0.4 -0.08,0.01 -0.15,0 -0.23,-0.02 -0.07,-0.02 -0.14,-0.06 -0.2,-0.1 -0.15,-0.12 -0.24,-0.32 -0.18,-0.57 0.04,-0.13 0.13,-0.26 0.26,-0.33 0.11,-0.07 0.26,-0.09 0.41,-0.05 0,0 0.01,0 0.01,0 0.12,0.04 0.24,0.12 0.32,0.23 0.08,0.12 0.12,0.27 0.07,0.43l-0 0z"/>
  <path class="fil1" d="M1.03 4.97c0.01,0.1 0.06,0.2 0.14,0.26 0.07,0.06 0.17,0.09 0.28,0.08l0.01 -0c0.1,-0.01 0.18,-0.06 0.25,-0.13 0.06,-0.07 0.1,-0.17 0.09,-0.28l-0 -0.01c-0.01,-0.1 -0.06,-0.19 -0.14,-0.26 -0.07,-0.06 -0.17,-0.09 -0.28,-0.08l-0 0c-0.1,0.01 -0.19,0.06 -0.25,0.14 -0.06,0.07 -0.1,0.17 -0.09,0.28l0 0zm0.03 0.39c-0.11,-0.09 -0.18,-0.22 -0.2,-0.37l-0 -0c-0.02,-0.16 0.04,-0.3 0.13,-0.41 0.09,-0.11 0.22,-0.18 0.36,-0.19l0 -0c0.16,-0.02 0.3,0.03 0.4,0.12 0.11,0.09 0.19,0.23 0.21,0.37 0,0 0,0.01 0,0.01 0.01,0.16 -0.04,0.3 -0.13,0.4 -0.09,0.11 -0.22,0.18 -0.36,0.19 -0,0 -0.01,0 -0.01,0 -0.16,0.01 -0.3,-0.03 -0.4,-0.12z"/>
 </g>
</svg>
