<?xml version="1.0" encoding="UTF-8"?>
<!DOCTYPE svg PUBLIC "-//W3C//DTD SVG 1.1//EN" "http://www.w3.org/Graphics/SVG/1.1/DTD/svg11.dtd">
<!-- Creator: CorelDRAW 2018 (64-Bit) -->
<svg xmlns="http://www.w3.org/2000/svg" xml:space="preserve" width="33.7166mm" height="41.1024mm" version="1.1" style="shape-rendering:geometricPrecision; text-rendering:geometricPrecision; image-rendering:optimizeQuality; fill-rule:evenodd; clip-rule:evenodd"
viewBox="0 0 4.79 5.85"
 xmlns:xlink="http://www.w3.org/1999/xlink">
 <defs>
  <style type="text/css">
   <![CDATA[
    .fil0 {fill:#59656C;fill-rule:nonzero}
   ]]>
  </style>
 </defs>
 <g id="Слой_x0020_1">
  <metadata id="CorelCorpID_0Corel-Layer"/>
  <path class="fil0" d="M0.71 5.28l-0.01 -2.5c-0,-0.01 0,-0.02 0,-0.02 0,-0.04 0.02,-0.08 0.04,-0.11 0.03,-0.03 0.07,-0.06 0.11,-0.06l0.01 0 0.53 0.03c0.04,0 0.08,0.03 0.11,0.06 0.02,0.03 0.04,0.07 0.04,0.12l0.04 2.08 -0.14 0 -0.04 -2.08c-0,-0.01 -0,-0.03 -0.01,-0.04 -0,-0.01 -0.01,-0.01 -0.01,-0.01l-0.53 -0.03c-0,0 0,0 0,0 -0.01,0.01 -0.01,0.02 -0.01,0.03l-0 0.01 0.01 2.5 -0.14 0zm0.14 -2.55l-0 0 0 -0 -0 0zm-0 0l-0 0 0 -0z"/>
  <path class="fil0" d="M1.97 4.56l-0.01 -1.75c-0,-0.01 0,-0.02 0,-0.02 0,-0.03 0.01,-0.05 0.03,-0.07 0.02,-0.03 0.05,-0.05 0.09,-0.05 0,-0 0.01,0 0.01,0l0.28 0.01c0.04,0 0.07,0.03 0.08,0.06 0.01,0.02 0.02,0.05 0.02,0.09l0.02 1.5 -0.14 0 -0.02 -1.5c-0,-0 -0,-0 -0,-0.01l-0.23 -0.01c-0.04,0.5 0.01,1.23 0.01,1.75l-0.14 0z"/>
  <path class="fil0" d="M2.92 1.58l1.69 0c0.05,0 0.1,0.02 0.13,0.05 0.03,0.03 0.05,0.08 0.05,0.13l0 2.29c0,0.05 -0.02,0.1 -0.05,0.13 -0.03,0.03 -0.08,0.05 -0.13,0.05l-1.69 0c-0.05,0 -0.1,-0.02 -0.13,-0.05 -0.03,-0.03 -0.05,-0.08 -0.05,-0.13l0 -2.29c0,-0.05 0.02,-0.1 0.05,-0.13 0.03,-0.03 0.08,-0.05 0.13,-0.05zm1.69 0.14l-1.69 0c-0.01,0 -0.02,0 -0.03,0.01 -0.01,0.01 -0.01,0.02 -0.01,0.03l0 2.29c0,0.01 0,0.02 0.01,0.03 0.01,0.01 0.02,0.01 0.03,0.01l1.69 0c0.01,0 0.02,-0 0.03,-0.01 0.01,-0.01 0.01,-0.02 0.01,-0.03l0 -2.29c0,-0.01 -0,-0.02 -0.01,-0.03 -0.01,-0.01 -0.02,-0.01 -0.03,-0.01z"/>
  <polygon class="fil0" points="2.77,1.82 0.14,0.25 0.14,5.6 2.78,4.04 2.86,4.16 -0,5.85 -0,0 2.84,1.7 "/>
 </g>
</svg>
