<?xml version="1.0" encoding="UTF-8"?>
<!DOCTYPE svg PUBLIC "-//W3C//DTD SVG 1.1//EN" "http://www.w3.org/Graphics/SVG/1.1/DTD/svg11.dtd">
<!-- Creator: CorelDRAW 2018 (64-Bit) -->
<svg xmlns="http://www.w3.org/2000/svg" xml:space="preserve" width="38.1306mm" height="37.698mm" version="1.1" style="shape-rendering:geometricPrecision; text-rendering:geometricPrecision; image-rendering:optimizeQuality; fill-rule:evenodd; clip-rule:evenodd"
viewBox="0 0 6.45 6.38"
 xmlns:xlink="http://www.w3.org/1999/xlink">
 <defs>
  <style type="text/css">
   <![CDATA[
    .fil0 {fill:white}
    .fil1 {fill:#59656C;fill-rule:nonzero}
   ]]>
  </style>
 </defs>
 <g id="Слой_x0020_1">
  <metadata id="CorelCorpID_0Corel-Layer"/>
  <g id="_1942435520">
   <rect class="fil0" x="0.94" y="0.08" width="5.42" height="5.42" rx="0.54" ry="0.54"/>
   <path class="fil1" d="M1.49 0l4.34 0c0.17,0 0.33,0.07 0.44,0.18 0.11,0.11 0.18,0.27 0.18,0.44l0 4.34c0,0.17 -0.07,0.33 -0.18,0.44 -0.11,0.11 -0.27,0.18 -0.44,0.18l-4.34 0c-0.17,0 -0.33,-0.07 -0.44,-0.18 -0.11,-0.11 -0.18,-0.27 -0.18,-0.44l0 -4.34c0,-0.17 0.07,-0.33 0.18,-0.44 0.11,-0.11 0.27,-0.18 0.44,-0.18zm4.34 0.17l-4.34 0c-0.13,0 -0.24,0.05 -0.32,0.13 -0.08,0.08 -0.13,0.2 -0.13,0.32l0 4.34c0,0.13 0.05,0.24 0.13,0.32 0.08,0.08 0.2,0.13 0.32,0.13l4.34 0c0.13,0 0.24,-0.05 0.32,-0.13 0.08,-0.08 0.13,-0.2 0.13,-0.32l0 -4.34c0,-0.13 -0.05,-0.24 -0.13,-0.32 -0.08,-0.08 -0.2,-0.13 -0.32,-0.13z"/>
   <rect class="fil0" x="0.08" y="0.87" width="5.42" height="5.42" rx="0.54" ry="0.54"/>
   <path class="fil1" d="M0.63 0.79l4.34 0c0.17,0 0.33,0.07 0.44,0.18 0.11,0.11 0.18,0.27 0.18,0.44l0 4.34c0,0.17 -0.07,0.33 -0.18,0.44 -0.11,0.11 -0.27,0.18 -0.44,0.18l-4.34 0c-0.17,0 -0.33,-0.07 -0.44,-0.18 -0.11,-0.11 -0.18,-0.27 -0.18,-0.44l0 -4.34c0,-0.17 0.07,-0.33 0.18,-0.44 0.11,-0.11 0.27,-0.18 0.44,-0.18zm4.34 0.17l-4.34 0c-0.13,0 -0.24,0.05 -0.32,0.13 -0.08,0.08 -0.13,0.2 -0.13,0.32l0 4.34c0,0.13 0.05,0.24 0.13,0.32 0.08,0.08 0.2,0.13 0.32,0.13l4.34 0c0.13,0 0.24,-0.05 0.32,-0.13 0.08,-0.08 0.13,-0.2 0.13,-0.32l0 -4.34c0,-0.13 -0.05,-0.24 -0.13,-0.32 -0.08,-0.08 -0.2,-0.13 -0.32,-0.13z"/>
   <path class="fil1" d="M4.12 4.99c0,-0.04 0,-0.12 0,-0.2 0,-0.26 0,-0.39 -0.05,-0.47 -0.06,-0.09 -0.22,-0.16 -0.54,-0.29l-0.07 -0.03c-0.02,-0.01 -0.04,-0.02 -0.07,-0.03 -0.08,-0.04 -0.18,-0.09 -0.21,-0.08l-0.01 0.01c-0.19,0.13 -0.34,0.24 -0.66,0.06 -0.04,-0.02 -0.06,-0.04 -0.08,-0.05 -0.03,-0.02 -0.03,-0.02 -0.37,0.13 -0.09,0.04 -0.17,0.08 -0.24,0.11 -0.34,0.15 -0.35,0.15 -0.35,0.71 -0,0.02 -0,0.04 -0,0.05 -0,0.03 -0,0.05 -0,0.07 0,0.01 0.01,0.01 0.09,0.01 0.04,-0 0.09,-0 0.13,-0l0 0 2.32 0c0.02,0 0.03,0 0.05,0 0.01,0 0.02,0 0.04,0 0.01,0 0.02,0.01 0.02,0.01zm0.17 -0.2c-0,0.04 -0,0.09 -0,0.2 0,0.14 -0.08,0.16 -0.19,0.16 -0.01,0 -0.03,-0 -0.05,-0 -0.02,-0 -0.03,-0 -0.04,-0l-2.32 -0 0 0c-0.07,0 -0.1,0 -0.13,0 -0.23,0.01 -0.25,0.01 -0.26,-0.17 -0,-0.03 -0,-0.06 0,-0.08 0,-0.02 0,-0.04 0,-0.05 0,-0.67 0.01,-0.68 0.45,-0.87 0.07,-0.03 0.14,-0.06 0.24,-0.11 0.43,-0.2 0.44,-0.2 0.54,-0.11l0 0c0.01,0.01 0.03,0.02 0.06,0.04 0.22,0.13 0.34,0.05 0.48,-0.05l0.01 -0.01c0.1,-0.07 0.26,0.01 0.38,0.06 0.02,0.01 0.05,0.02 0.06,0.03l0.07 0.03c0.36,0.15 0.53,0.22 0.62,0.36 0.08,0.13 0.08,0.28 0.08,0.57z"/>
   <path class="fil1" d="M2.8 1.91c0.22,0 0.41,0.1 0.55,0.26 0.14,0.16 0.22,0.38 0.22,0.62 0,0.24 -0.09,0.46 -0.22,0.62 -0.14,0.16 -0.34,0.26 -0.55,0.26 -0.22,0 -0.41,-0.1 -0.55,-0.26 -0.14,-0.16 -0.22,-0.38 -0.22,-0.62 0,-0.24 0.09,-0.46 0.22,-0.62 0.14,-0.16 0.34,-0.26 0.55,-0.26zm0.42 0.37c-0.11,-0.13 -0.26,-0.2 -0.42,-0.2 -0.17,0 -0.32,0.08 -0.42,0.2 -0.11,0.13 -0.18,0.31 -0.18,0.51 0,0.2 0.07,0.38 0.18,0.51 0.11,0.13 0.26,0.2 0.42,0.2 0.17,0 0.32,-0.08 0.42,-0.2 0.11,-0.13 0.18,-0.31 0.18,-0.51 0,-0.2 -0.07,-0.38 -0.18,-0.51z"/>
  </g>
 </g>
</svg>
